<svg xmlns="http://www.w3.org/2000/svg" viewBox="0 0 158.309 180.298"><g data-name="Layer 2"><g data-name="Layer 1"><path d="M24.542 55.254l-.034 5.137H4.336l7.434 9.392h21.634l.02-3.71c0-20.562 1.945-33.616 23.472-35.948v-2.726c-23.234.056-32.334 7.8-32.354 27.855zm69.634 36.012v45.24c0 2.327.529 4.606 6.884 4.606h3.198V95.497c0-9.247 12.813-12.787 12.813-12.787a32.738 32.738 0 0 1-6.335-3.508l-5.536 1.566c-.108.038-11.024 3.212-11.024 10.498zm54.558-86.089v55.214h-14.981l8.016 10.024h16.54V15.274l-9.575-10.097zM94.176 64.96c0 5.604 8.124 10.005 11.255 11.22l3.049 1.192c-2.33-2.146-4.222-4.893-4.222-8.16v-38.48l1.803.115a25.319 25.319 0 0 1 14.906 4.985c-5.745-5.33-14.784-8.19-26.79-8.294zM42.532 169.865v.085l7.873 10.348h71.193v-23.839l-8.443-9.827v23.233H42.532z" fill="#d31245"/><path d="M4.838 55.554h14.981c0-.14.014-.264.014-.372 0-.366-.02-.505-.109-.17 0-22.465 11.54-32.485 37.402-32.485h4.608V64.96c0 6.942-4.682 11.034-8.456 13.359 3.787 2.142 8.456 5.99 8.456 12.948v44.84c0 6.073-4.316 9.844-11.282 9.844h-7.724v19.077h65.59V145.95h-7.257c-9.69 0-11.723-5.138-11.723-9.444v-45.24c0-6.94 5.448-10.874 9.717-13.032-4.215-2.495-9.716-6.82-9.716-13.275V22.612l1.795.014h2.425c25.057 0 39.442 11.378 39.442 31.236 0 0-.013.881-.027 1.692h10.923V4.84H4.837z" fill="#fff"/><path d="M148.734 5.177V0H0v60.39h24.508l.034-5.136c.02-20.056 9.12-27.799 32.354-27.855v37.56c0 7.718-9.642 11.165-9.75 11.19l-7.162 2.497 7.284 2.123c.406.11 9.628 2.876 9.628 10.497v44.84c0 1.242 0 5.006-6.444 5.006H37.897v28.752h75.258v-28.752H101.06c-6.355 0-6.884-2.279-6.884-4.606v-45.24c0-7.286 10.916-10.46 11.024-10.497l5.536-1.567 1.41-.4-3.666-1.43-3.05-1.192c-3.13-1.215-11.254-5.616-11.254-11.22V27.537c12.007.103 21.046 2.965 26.791 8.294 4.71 4.379 7.19 10.42 7.19 18.011l-.062 6.547h20.64zm-4.837 50.377h-10.923c.014-.811.027-1.692.027-1.692 0-19.858-14.385-31.236-39.441-31.236h-2.426l-1.796-.014V64.96c0 6.456 5.502 10.78 9.717 13.275-4.269 2.159-9.717 6.092-9.717 13.032v45.24c0 4.306 2.033 9.444 11.722 9.444h7.257v19.077h-65.59V145.95h7.725c6.966 0 11.282-3.771 11.282-9.844v-44.84c0-6.959-4.669-10.806-8.456-12.948 3.774-2.325 8.456-6.417 8.456-13.359V22.528h-4.608c-25.863 0-37.402 10.02-37.402 32.484.088-.335.109-.196.109.17 0 .108-.014.232-.014.372H4.838V4.84h139.059z" fill="#004b8d"/><path fill="#fff" d="M124.769 171.702h2.541v6.905h1.707v-6.905h2.534v-1.495h-6.782v1.495zm13.287 3.991h-.041l-1.958-5.486h-2.968v8.4h1.715v-6.686h.04l2.352 6.686h1.653l2.432-6.686h.041v6.686h1.721v-8.4h-2.954l-2.033 5.486z"/></g></g></svg>