<svg xmlns="http://www.w3.org/2000/svg" viewBox="0 0 118.928 111.003"><g data-name="Layer 2"><g data-name="Layer 1" fill="#ce1141"><path d="M76.657 74.738c-11.181 2.064-17.307 1.948-26.788 4.587C41.734 96.199 33.035 110.832 20.595 111 4.173 111.227-1.837 98.053.477 90.203c1.703-5.795 3.237-5.625 3.237-2.386 0 1.737 4.61 11.819 16.191 11.251 5.802-.286 10.555-5.94 15.472-14.475a253.485 253.485 0 0 0-10.18 4.587c-2.694 1.284-2.9.849-2.389-1.363.377-1.63 4.333-11.21 19.439-16.333C53.628 48.7 68.4 17.648 98.665 1.896c1.515-.788 7.084-4.829 2.903 2.045-13.982 22.994-18.16 43.103-17.49 58.907 11.133-4.057 17.17-9.964 18.173-18.673.395-3.43 1.337-3.475 3.237-1.365 2.226 2.473 6.96 21.682-20.296 29.92 3.393 18.197 13.292 28.392 18.591 27.53 5.5-.895 9.714-6.817 8.865-15.171-.496-4.856 1.335-3.04 3.067-1.365 5.119 4.945 4.69 20.843-5.455 25.233-14.63 6.33-28.478-8.697-33.603-34.22zm-.83-40.45c-8.136 7.185-14.602 20.736-21.005 34.471.13-.017.248-.02.376-.038a160.188 160.188 0 0 0 20.057-3.237 129.43 129.43 0 0 1 .572-31.196z"/><path d="M110.922 73.531h-1.272v3.578h-.861v-3.578h-1.272v-.77h3.405zm5.76 3.578h-.853v-3.462h-.026l-1.219 3.462h-.828l-1.181-3.462h-.02v3.462h-.86v-4.347h1.49l.977 2.838h.027l1.022-2.838h1.471z"/></g></g></svg>