<svg xmlns="http://www.w3.org/2000/svg" viewBox="0 0 136.642 180.63"><g data-name="Layer 2"><g data-name="Layer 1"><path d="M91.074 167.068h-2.473v6.74H86.93v-6.74h-2.47v-1.46h6.615zm11.22 6.74h-1.671v-6.526h-.04l-2.373 6.525h-1.62l-2.298-6.525h-.045v6.525h-1.669v-8.2h2.903l1.908 5.354h.04l1.992-5.354h2.873z" fill="#fff"/><path d="M136.368 42.412c-1.186-17.905-16.365-31.482-30.58-36.806-4.58-1.451-9.307-2.931-13.888-3.906C76.803-1.57 60.272.23 46.665 4.113 27.98 9.417 9.945 24.04 2.475 43.1c-2.964 7.809-3.669 18.34.135 26.806 4.556 9.765 14.68 13.386 23.42 13.386 9.683 0 16.151-7.153 19.834-13.641v38.53l-.213 26.102c-1.498 1.873-3.313 3.81-4.782 5.83-3.365 5.187-7.92 12.266-8.212 20.839 0 2.539.144 6.899 2.443 10.529 3.112 5.575 9.122 7.978 13.556 8.804a32.63 32.63 0 0 0 15.765-1.662c10.26-3.881 19.42-13.607 21.161-25.27l.066-.413.226-49.68c3.848-1.503 7.749-3.036 11.597-4.739a99.863 99.863 0 0 0 14.587-7.768 49.472 49.472 0 0 0 24.31-48.341zm-34.29 12.593c-1.06 5.324-6.614 10.54-12.891 12.687a25.71 25.71 0 0 1-3.272.901l.174-33.082c6.49-.104 11.503 1.82 13.909 5.653l1.477 3.502a46.22 46.22 0 0 1 .907 5.481 14.307 14.307 0 0 1-.303 4.858z" fill-rule="evenodd" fill="#fff"/><path d="M132.096 42.73c-.978-15.94-15.029-28.33-27.665-33.07l-.083-.025C100.473 8.4 95.638 6.865 91 5.89c-17.308-3.756-34.474-.15-43.17 2.332C29.314 13.48 13.07 27.769 6.459 44.631c-2.924 7.702-2.912 16.913.038 23.484C9.689 74.953 16.99 79.02 26.029 79.02c7.304 0 14-5.651 17.925-15.116.055-.151.442-1.399.442-1.399a20.557 20.557 0 0 0 1.296-6.4v-1.604H44.09a10.617 10.617 0 0 1-3.325-.805l-.79-.275a2.6 2.6 0 0 1-.761-1.72c.84-4.862 4.85-9.712 10.927-13.33v69.863s-.225 26.402-.228 27.463c-.455.571-2.536 3.15-2.536 3.15l-2.953 3.655c-3.25 4.98-7.225 11.093-7.495 18.498v.018c0 2.591.225 5.82 1.885 8.332 1.76 3.296 5.622 5.794 10.55 6.721a27.97 27.97 0 0 0 13.573-1.46c9.605-3.63 16.995-12.422 18.423-21.888.022-.222.216-47.672.24-52.156.082-.136.094-.159.189-.307.507-.201 1.252-.488 1.252-.488 9.046-3.515 18.397-7.15 26.8-12.677a45.184 45.184 0 0 0 22.52-39.368 46.674 46.674 0 0 0-.264-4.998zm-25.837 13.2c-1.55 7.756-8.974 13.504-15.655 15.803a45.03 45.03 0 0 1-9.004 1.879c.024-3.414.24-42.117.24-42.15.291 0 2.659-.17 2.659-.17 5.316-.304 14.881.333 19.342 7.977.12.282 1.791 4.25 1.791 4.25a42.234 42.234 0 0 1 1.122 8.293 16.31 16.31 0 0 1-.495 4.117z" fill="#e81828" fill-rule="evenodd"/></g></g></svg>