<svg xmlns="http://www.w3.org/2000/svg" viewBox="0 0 112.882 161.868"><g data-name="Layer 2"><g data-name="Layer 1"><path fill="#0d2b56" d="M87.002 156.904h1.565v4.326h.998v-4.326h1.577v-.815h-4.14v.815zm8.043 2.827l-1.407-3.641h-1.446v5.137h.935v-4.007h.024l1.528 4.007h.699l1.541-4.007h.024v4.007h.932v-5.137h-1.438l-1.392 3.641zm8.468-59.839c-1.523-4.46-2.043-13.03-10.601-18.96 8.558-5.923 9.078-14.5 10.6-18.954 2.47-7.235 4.11-11.673 9.37-14.8-18.741-10.849-9.693-20.714-25.232-36.25a37.316 37.316 0 0 0-49.142-3.187A22.048 22.048 0 0 0 1.304 29.88a12.45 12.45 0 0 1 11.091-7.326c6.915 0 12.523 6.136 12.523 13.71v25.063c0 2.627-.881 14.303-15.9 19.605 15.019 5.303 15.9 16.978 15.9 19.61v25.065c0 7.565-5.608 13.707-12.523 13.707a12.442 12.442 0 0 1-11.09-7.33 22.043 22.043 0 0 0 37.203 22.144 37.323 37.323 0 0 0 49.142-3.188c15.539-15.538 6.49-25.404 25.232-36.256-5.26-3.12-6.9-7.561-9.37-14.793m-9.71 31.242c-1.774 5.194-3.444 10.092-9.654 16.303-12.622 12.624-33.554 12.201-46.173-.416-2.708 5.872-9.057 9.55-15.938 9.55a17.11 17.11 0 0 1-16.796-13.94 16.447 16.447 0 0 0 7.154 1.632c9.635 0 17.473-8.37 17.473-18.655v-25.066a24.93 24.93 0 0 0-10.246-19.61 24.921 24.921 0 0 0 10.246-19.604V36.265c0-10.292-7.838-18.662-17.473-18.662a16.446 16.446 0 0 0-7.154 1.637A17.113 17.113 0 0 1 22.037 5.296c6.881 0 13.23 3.675 15.938 9.55 12.62-12.619 33.551-13.033 46.173-.416 6.21 6.211 7.88 11.117 9.654 16.307 1.897 5.57 3.86 11.3 11.009 16.963-2.881 3.59-4.36 7.916-5.983 12.676-.354 1.038-.635 2.144-.935 3.321-.872 3.438-4.312 12.483-11.73 17.236 7.418 4.754 10.859 13.802 11.73 17.235.3 1.176.581 2.291.935 3.323 1.622 4.763 3.102 9.089 5.983 12.67-7.148 5.671-9.112 11.399-11.01 16.973"/><path d="M61.147 20.62c-7.644 0-14.284 3.781-17.637 9.337V65.23c3.353 5.553 9.993 9.337 17.637 9.337 11.03 0 19.97-7.886 19.97-17.613a16.023 16.023 0 0 0-3.054-9.362 16.014 16.014 0 0 0 3.053-9.358c0-9.728-8.94-17.614-19.97-17.614m15.02 36.334c0 6.975-6.743 12.661-15.02 12.661a15.85 15.85 0 0 1-12.685-5.884V31.454a15.856 15.856 0 0 1 12.686-5.879c8.276 0 15.018 5.678 15.018 12.659a11.86 11.86 0 0 1-4.914 9.358 11.857 11.857 0 0 1 4.914 9.362M61.147 87.298c-7.644 0-14.284 3.788-17.637 9.34v35.273c3.353 5.553 9.993 9.337 17.637 9.337 11.03 0 19.97-7.886 19.97-17.62a16.019 16.019 0 0 0-3.054-9.355 16.02 16.02 0 0 0 3.053-9.355c0-9.73-8.94-17.62-19.97-17.62m15.02 36.33c0 6.988-6.743 12.668-15.02 12.668a15.842 15.842 0 0 1-12.685-5.884V98.135a15.849 15.849 0 0 1 12.686-5.881c8.276 0 15.018 5.683 15.018 12.664a11.855 11.855 0 0 1-4.914 9.355 11.858 11.858 0 0 1 4.914 9.356" fill="#0d2b56"/><path d="M97.893 98.171c-.871-3.437-4.315-12.486-11.73-17.24 7.415-4.752 10.859-13.797 11.73-17.23.3-1.18.581-2.288.935-3.326 1.622-4.76 3.102-9.083 5.98-12.674-7.145-5.662-9.109-11.392-11.006-16.966-1.777-5.191-3.447-10.097-9.654-16.306-12.619-12.618-33.554-12.2-46.173.416-2.708-5.873-9.054-9.55-15.938-9.55A17.113 17.113 0 0 0 5.24 19.238a16.422 16.422 0 0 1 7.151-1.633c9.638 0 17.476 8.369 17.476 18.656v25.064A24.921 24.921 0 0 1 19.621 80.93a24.934 24.934 0 0 1 10.246 19.61v25.065c0 10.29-7.838 18.66-17.476 18.66a16.448 16.448 0 0 1-7.15-1.637 17.11 17.11 0 0 0 16.795 13.941c6.884 0 13.23-3.675 15.938-9.55 12.62 12.622 33.554 13.04 46.173.414 6.207-6.21 7.877-11.109 9.654-16.302 1.897-5.571 3.86-11.301 11.006-16.97-2.878-3.58-4.358-7.91-5.98-12.672-.354-1.032-.635-2.144-.935-3.319m-16.777 25.46c0 9.729-8.94 17.616-19.97 17.616-7.643 0-14.283-3.784-17.636-9.337V96.64c3.353-5.553 9.993-9.34 17.637-9.34 11.03 0 19.97 7.89 19.97 17.62a16.02 16.02 0 0 1-3.054 9.355 16.011 16.011 0 0 1 3.053 9.355m0-66.676c0 9.727-8.94 17.613-19.97 17.613-7.643 0-14.283-3.784-17.636-9.337V29.957c3.353-5.556 9.993-9.337 17.637-9.337 11.03 0 19.97 7.886 19.97 17.614a16.014 16.014 0 0 1-3.054 9.358 16.023 16.023 0 0 1 3.053 9.361" fill="#bd3039"/></g></g></svg>