<svg viewBox="0 0 165.08 162" xmlns="http://www.w3.org/2000/svg"><g transform="translate(-223.74 -315.53)"><path d="m369.22 473.47h-1.48v4.06h-1v-4.06h-1.49v-.88h4zm6.75 4.06h-1v-3.93l-1.44 3.93h-1l-1.38-3.93v3.93h-1v-4.94h1.75l1.14 3.22 1.19-3.22h1.77z" fill="#00483a"/><path d="m385.22 413.28a76 76 0 0 0 1.12-12.88 74.79 74.79 0 0 0 -5.72-28.76c1.62-5.87 2.09-14.28-2.64-24.39-4.51-9.62-16.26-21.18-30.87-24.66-8.57-2-19.1-1-29.24 2.94a35.17 35.17 0 0 0 -18.79-9.24c-20.6-3.63-39.88 5.68-54.59 26.21-10.59 12.29-14.59 25.24-13 38-4.11 4.93-7.52 10.91-7.74 18-1 32.88 10.1 43.45 28.61 48.31a75 75 0 0 0 73.82 27.19 25.2 25.2 0 0 0 15 2.7c22.27-2.28 45.74-18.73 47.54-45.78a35.6 35.6 0 0 0 -3.5-17.64z" fill="#00483a"/><path d="m374.6 388.21a65.21 65.21 0 0 0 -3.92-12.9c-2.39-3.63-5.14-7.77-5.16-7.81-6.71-11.64-18.64-16.51-31.87-13.05a32.64 32.64 0 0 0 -11.24 5.37c-2.07 2-4.32 4.37-4.8 5.64-6.82 18-18.72 23.64-22.66 24.46-.06.27-.14.55-.18.83-1.86 11.72 10 20.95 10.15 21.07l2.68 2.18-3.37-.06c-.26 0-27.33 1.7-30-26.4-1.91-20.06 4-34.43 20-45.85q2.1-2.24 4.71-4.53a64.4 64.4 0 0 0 -12 3.57 45.51 45.51 0 0 0 -15.4 12.11 54.16 54.16 0 0 1 .35 6.23 43.9 43.9 0 0 1 -2.81 16.35 36 36 0 0 1 -13.08 16.22c1.26 10.7 16.66 15.5 16.83 15.55l3.24 1-3.16 1.26a33.39 33.39 0 0 1 -16.55 2.32 30.33 30.33 0 0 1 5.84 20.67c7.58 4.72 18.69-2.15 18.81-2.23l2.49-1.67-.89 2.88c0 .15-3 13.13-15 16.26a64.4 64.4 0 0 0 49.19 16.93 33.6 33.6 0 0 1 -4.11-10.09l-.69-3.52 2.74 2.31c.12.11 11 9.07 19.47 7.34.75-.28 1.5-.57 2.24-.88a31.62 31.62 0 0 1 14.74-26c1.63-1 3.54-2 5.56-3 6-3 12.92-6.57 16.75-13.32a64.18 64.18 0 0 0 1.1-29.24zm-27.72 72.12c-5.43 7.42-19.16 6.62-19.16 6.62 12.49 5.2 22-.42 22-.42 3.28-3.15-2.84-6.2-2.84-6.2zm-93.47-26.95s-8.69 1.82-5.22 4.77a28.85 28.85 0 0 0 24.16.69s-14.22 2.47-18.94-5.46zm-5-44.27s-6.68-1.41-6.08 3.09c0 0 4 10.33 17 14-.07.03-11.33-7.9-10.96-17.09zm33.72-6.5s-1.38 12.79 8.93 21.57c0 0-7.26-11.55-1.75-21.72-.04 0-5.89-4.17-7.22.15z" fill="#feb"/><path d="m360.9 440.58a1.91 1.91 0 0 0 -1.8-.26c-6.05 2.2-8.42 10.84-8.53 11.21a1.94 1.94 0 0 0 1.05 2.25c1.54.71 4.11 4.42 5.44 6.83a1.91 1.91 0 0 0 2.55.78c1.55-.77 9.24-4.88 9.76-9.35s-6.37-9.9-8.47-11.46zm16.46-4.51a5.5 5.5 0 0 1 -2.17-1 7.09 7.09 0 0 0 -3.53-1.36c-3.15-.06-5.13 2.94-5.35 3.28a1.94 1.94 0 0 0 .41 2.52 37.55 37.55 0 0 1 6.08 6.53 1.93 1.93 0 0 0 2.93.25c.49-.49 4.72-4.84 3.72-8.81a1.92 1.92 0 0 0 -2.09-1.41zm4.18-13.17c-1.44-.62-3.33.56-4.22 2.63s-.42 4.25 1 4.87 3.34-.56 4.23-2.63.45-4.25-1.01-4.87zm-135.35-12c-2.57.59-11 2.83-12.36 7.08s4.07 11.16 5.17 12.5a1.92 1.92 0 0 0 2.65.29c2.18-1.65 6-4 7.73-4.06a1.94 1.94 0 0 0 1.86-1.64c.06-.37 1.35-9.23-3.28-13.69a2 2 0 0 0 -1.77-.46zm-10.45-1.17a20.3 20.3 0 0 1 7.88-3.7 30.26 30.26 0 0 1 -6.87-9.09c-.54-1-1-2.11-1.48-3.17a6.21 6.21 0 0 0 -2 1.6c-2.28 2.91-1 10.87-.62 13.23a1.93 1.93 0 0 0 3.13 1.13zm17.15-66.22a1.93 1.93 0 0 0 1.17 3.11 16.89 16.89 0 0 1 6.26 2.84 2 2 0 0 0 1.49.32 1.92 1.92 0 0 0 1.26-.87 80.39 80.39 0 0 0 3.87-7.52 1.93 1.93 0 0 0 -.53-2.3c-.25-.18-6.03-4.72-13.52 4.44zm19.11-14.38c-2.5 1.14-6.77 3.36-6 5.11.4.89 2.87 1.08 4.37 1.45s7.86-4.82 7.07-6.58-2.93-1.11-5.44.02zm21.58-1.42c1.85 0 3.34-1 3.33-2.35s-1.51-2.36-3.36-2.36-3.33 1.06-3.33 2.35 1.51 2.38 3.36 2.36zm8.71 3.81c1.85 0 3.33-1.06 3.33-2.36s-1.51-2.33-3.36-2.32-3.33 1.07-3.33 2.36 1.51 2.33 3.36 2.32zm-16.35 3c2.34-.41 4-2.07 3.73-3.71s-2.42-2.65-4.78-2.24-4 2.07-3.73 3.72 2.42 2.59 4.78 2.19zm-37.11 16.6a2 2 0 0 0 -1 .83l-4.58 7.64a2 2 0 0 0 .1 2.13 2 2 0 0 0 2 .73 17.87 17.87 0 0 1 9.79 1.2 1.9 1.9 0 0 0 2.57-1.24l2-7a1.91 1.91 0 0 0 -.59-2c-.12-.2-5.05-4.3-10.29-2.33zm6.86 16.14c-2.53-.71-11.05-2.81-14.24.3s-1.77 11.71-1.45 13.44a1.93 1.93 0 0 0 2.19 1.53c2.71-.41 7.21-.65 8.73.13a1.92 1.92 0 0 0 2.42-.54c.22-.3 5.62-7.46 3.68-13.59a2 2 0 0 0 -1.33-1.31zm35.3-9.05c-4.32 1.36-6 9.86-6.39 12.42a1.9 1.9 0 0 0 1.31 2.14c2.61.84 6.75 2.64 7.76 4a1.9 1.9 0 0 0 2.39.62c.35-.18 8.37-4.17 9.37-10.52a1.89 1.89 0 0 0 -.61-1.72c-2.18-2.01-9.59-8.33-13.82-6.98zm14.37-14a1.93 1.93 0 0 0 -1.18.48l-6.68 5.89a1.92 1.92 0 0 0 1.13 3.37 17.71 17.71 0 0 1 8.95 4.12 1.93 1.93 0 0 0 2.84-.4l4.06-6a1.93 1.93 0 0 0 0-2.08c-.12-.26-3.48-5.67-9.12-5.38zm6.13-6.24a1.92 1.92 0 0 0 .43 3.29 17.37 17.37 0 0 1 5.44 4.19 1.89 1.89 0 0 0 1.38.65 1.91 1.91 0 0 0 1.42-.57 73 73 0 0 0 5.47-6.44 1.94 1.94 0 0 0 0-2.36c-.17-.24-4.76-5.99-14.14 1.27zm27.18-8.47c-.37-1.89-2.62-1.75-5.31-1.21s-7.36 1.72-7 3.61c.2 1 2.55 1.7 3.93 2.4s8.71-2.92 8.38-4.8zm13.52 5.93c2.09.47 4.06-.33 4.4-1.8s-1.1-3-3.19-3.51-4.07.32-4.41 1.79 1.1 3.09 3.2 3.52zm-10.06-2.57c-2.39-.14-4.39 1.11-4.49 2.77s1.77 3.13 4.15 3.25 4.39-1.1 4.48-2.77-1.76-3.11-4.14-3.25zm17.56 9.93c1.75.73 3.6.33 4.1-.89s-.5-2.83-2.26-3.56-3.58-.33-4.09.89.49 2.83 2.25 3.56zm11.31 9.82c1.07-.81 1-2.67-.1-4.22s-2.91-2.13-4-1.34-1 2.68.11 4.21 2.93 2.12 3.99 1.35zm-12.89-6c-1.06.77-1 2.67.1 4.18s2.91 2.15 4 1.36 1-2.67-.1-4.2-2.92-2.14-3.99-1.34zm-4.37-2.22c.55-1.21-.4-2.84-2.13-3.62s-3.58-.46-4.13.77.4 2.82 2.13 3.61 3.59.45 4.14-.76zm-22.49-4.67c-2.27 1-3.54 3.09-2.84 4.67s3.1 2.07 5.37 1.07 3.54-3.09 2.84-4.68-3.09-2.07-5.36-1.06z" fill="#f89728"/><g fill="#b5121b"><path d="m295.36 458.85-.34-.21v-.37a24.6 24.6 0 0 1 1.13-6l1.25.23c-.13 2.73.66 4.55 1.45 4.67a1 1 0 0 0 .72-.25c.84-.63 1.88-2.47 2.28-5.15.38-2.52-.74-5.77-1.24-7.07l-.14-.35.25-.28a29.51 29.51 0 0 1 5.14-4.81l.18-.13.89 1-.15.18c-2.12 2.88-2.41 5.4-1.67 5.94a1 1 0 0 0 .75.12c1-.15 2.82-1.29 4.43-3.47s2.1-5.62 2.27-7v-.39l6.56-2.59.65 1.07-.71.75c-2.24 2.79-2.63 5.29-1.93 5.86a1 1 0 0 0 .76.16c1-.11 2.87-1.17 4.58-3.28a15.7 15.7 0 0 0 2.45-6.3l.06-.35 7.63-2.9-1.17 1.69c-1.85 2.67-2.27 5.18-1.48 5.76a1 1 0 0 0 .75.11c1.05-.17 2.81-1.31 4.4-3.51a14.26 14.26 0 0 0 2.07-6l.05-.29 5.57-3.32-.34 1.48c-.63 2.53-.27 4.31.44 4.59s2.83-1.27 4.12-4.6a13.48 13.48 0 0 0 .54-5.43v-.28l.18-.2a29.56 29.56 0 0 0 3.61-4.7l1-1.61.21 1.88c.21 2.27 1 3.51 1.67 3.56a1 1 0 0 0 .71-.29c.8-.68 1.72-2.57 1.94-5.28.22-2.53-1.08-5.71-1.65-6.95l-.1-.21.05-.23a44.17 44.17 0 0 0 1.19-6.79h1.27v.07c1.29 3.34 3.28 4.92 4.13 4.6s1.23-2.85-.06-6.18c-1-2.62-4-5.12-4.94-5.82l-.22-.19v-.29a28 28 0 0 0 -.85-5.15l-.58-2.34 1.67 1.73c2.12 2.19 4.29 3 5 2.41s.19-3.08-2.17-5.78c-1.73-2-5-3.24-6.37-3.71l-.25-.09-.11-.24a58.59 58.59 0 0 0 -3.54-6.57l1-.82a9.36 9.36 0 0 0 2 1.32c3.24 1.52 5.77 1.29 6.15.46s-1.07-2.91-4.31-4.42c-2.35-1.1-5.87-1-7.27-.83h-.33l-4.71-5.75 1.85.41 1.09.25c3.54.48 5.88-.48 6-1.39a1.14 1.14 0 0 0 -.26-.71c-.64-.84-2.49-1.85-5.17-2.22a14.18 14.18 0 0 0 -5.94.88l-.36.13-.28-.26c-1-.94-2.07-1.83-3.14-2.69-.66.14-1.34.28-2 .44-.92.25-1.8.54-2.68.85v.27a10.54 10.54 0 0 0 .51 3.54c1.27 3.35 3.21 5 4.07 4.65a.94.94 0 0 0 .51-.57c.44-.95.46-3.06-.48-5.6l-.26-.59 1-.76 3.88 3.68-.14.37c-.36 1.08-1.49 4.81-.88 7.53.81 3.48 2.53 5.34 3.42 5.14a1.07 1.07 0 0 0 .58-.5c.56-.89.87-3 .24-5.62a9 9 0 0 0 -1.06-2.55l1.06-.74a64.69 64.69 0 0 1 4.16 5.71l.19.32-.17.33c-.73 1.4-2 4.09-1.92 6.34.06 3.58 1.37 5.74 2.28 5.73a1 1 0 0 0 .68-.37c.73-.76 1.45-2.74 1.4-5.45l1.22-.34 2 4.67-.31.28c-1.16 1.2-3.21 3.55-3.79 5.86-.89 3.46-.2 5.89.68 6.13a1 1 0 0 0 .75-.17c.91-.54 2.12-2.26 2.79-4.89l.22-1.49 1.27-.09a22.66 22.66 0 0 1 .5 4v3.4l-.29.18a14.66 14.66 0 0 0 -4.69 4.47c-1.72 3.16-1.65 5.7-.84 6.13.62.34 2.09-.4 3.61-2.4l1.14.52a34.45 34.45 0 0 1 -1.49 5l-.14.39h-.43c-1.13.05-5.05.37-7.36 1.94-2.94 2-4 4.32-3.53 5.06s3 .56 6-1.46a10.51 10.51 0 0 0 2.33-2.34l1.06.71a29.51 29.51 0 0 1 -7.78 8.76l-.8-1 .06-.05c-1.52-.52-4.56-1.39-6.9-.94-3.52.68-5.44 2.34-5.26 3.24a1 1 0 0 0 .47.59c.87.6 2.95 1 5.61.46a10 10 0 0 0 2.78-1.07l.65 1.11a60.52 60.52 0 0 1 -8.86 4.36l-.29.12-.28-.16c-1.44-.87-4.19-2.33-6.56-2.39-3.57-.1-5.8 1.12-5.82 2s1.71 1.92 4.55 2.24l.14 1.24-5.53 2-.26-.14a13.78 13.78 0 0 0 -5.71-1.93c-2.7-.09-4.69.61-5.46 1.33a1 1 0 0 0 -.37.68c0 .75 1.47 1.77 4 2.17l1.9.31-1.72.89a34.42 34.42 0 0 0 -4.19 2.59l-1 .78-.3-.08c-1.51-.37-4.36-.92-6.5-.34-3.47.9-5.26 2.69-5 3.58s2.69 1.55 6.15.64l2.12-.66-1.17 1.59a24.89 24.89 0 0 0 -3.22 5.22l-.11.22-.23.1c-1.34.55-4.61 2-6.2 4.13-2.16 2.85-2.47 5.38-1.74 5.92s3-.5 4.94-3l1.38-1.72-.24 2.2a25.38 25.38 0 0 0 -.18 3.15c0 .94 0 1.77.12 2.51.33.1.66.18 1 .27.65.17 1.3.34 2 .49s1.11.24 1.66.36l1.65.32.55.08c-1.36-2.43-4.52-4.55-5.45-5.15z"/><path d="m271.69 363.73c0 .26-.06.5-.08.75a12.23 12.23 0 0 0 4.6.28c.26-.8.56-1.58.87-2.35a0 0 0 0 1 0 0c.31-.78.65-1.55 1-2.31a13.17 13.17 0 0 0 -2.31.34l-.46-1.18c1.44-.82 2.93-1.59 4.43-2.31.45-.76.92-1.51 1.42-2.24l-1.29.72-.78-1c1.72-2.14 2.18-4.07 1.6-4.63a1 1 0 0 0 -.72-.23c-1.06 0-3 .88-4.88 2.8s-2.84 5.11-3.22 6.53v.17c0 1.57-.07 3.1-.19 4.58v.07z"/></g></g></svg>