<svg width="300" height="300" viewBox="0 0 300 300" fill="none" xmlns="http://www.w3.org/2000/svg">
<path d="M165.32 272.32C171 267.94 174.11 260.29 171.56 251.51L169.86 245.69H130.21L128.5 251.51C125.94 260.29 129.06 267.94 134.76 272.32H65.03C71.45 267.94 77.1 260.29 79.69 251.51L99.19 184.64C101.29 177.45 97.84 170.23 92.37 165.37C100.14 162.98 107.06 157.59 109.22 150.13L120.13 112.69C104.6 107.5 94.46 98.3 94.46 87.62C94.46 73.67 111.74 62.26 135.78 58.99L144.91 27.68H155.12L164.25 58.98C188.28 62.26 205.54 73.67 205.54 87.62C205.54 98.3 195.43 107.5 179.91 112.69L190.82 150.13C192.98 157.59 199.88 162.98 207.66 165.37C202.18 170.23 198.75 177.45 200.86 184.64L220.35 251.51C222.89 260.29 228.59 267.94 235.03 272.32H165.32ZM144.02 198.31H156.04L150.03 177.63L144.02 198.31Z" fill="white"/>
<path d="M223.3 267.56C219.97 263.23 217.33 258.16 215.78 252.85L196.42 186.41C193.35 175.87 199.03 168.38 199.78 167.19C193.05 163.55 188.13 158 186.25 151.44L174.47 111.01C191.09 106.59 202.41 97.78 202.41 87.61C202.41 74.76 184.21 64.03 160.1 61.65L151.59 32.44H148.5L139.99 61.65C115.87 64.01 97.65 74.75 97.65 87.61C97.65 97.78 108.99 106.59 125.6 111.01L113.81 151.44C111.91 158.01 107 163.55 100.27 167.19C101.03 168.38 106.71 175.87 103.63 186.41L84.28 252.85C82.73 258.16 80.09 263.22 76.74 267.56H125.01C121.12 258.96 123.17 252.7 124.92 246.8L126.63 240.91H173.43L175.16 246.8C176.87 252.7 178.93 258.96 175.04 267.56H223.31H223.3ZM137.63 203.08L150.04 160.58L162.41 203.08H137.63Z" fill="#003263"/>
<path d="M150.04 68.8C148.57 68.8 147.12 68.84 145.69 68.89L150.04 53.97V68.8ZM210.46 260.05H184.1C184.71 256.07 184.1 250.79 183.04 247.07L179.04 233.43H120.98L112.82 222.02L104.06 252.04L115.94 260.06H89.55C90.63 257.83 91.52 255.55 92.21 253.19L110.74 189.85C113.65 179.95 112.04 175.67 109.94 169.7C115.52 165.43 119.19 159.88 120.99 153.62L135.05 105.38H135.07L137.19 98.03L143.4 76.69C145.55 76.57 147.77 76.49 150.04 76.49C151.95 76.49 153.82 76.56 155.65 76.64C155.99 76.65 156.32 76.67 156.65 76.69L157.87 80.94C155.33 80.8 152.71 80.7 150.04 80.7V94.55L112.82 222.01H187.22L195.76 251.26L210.46 260.05ZM150.04 94.55L187.22 222.01L172.39 210.58L150.04 133.82V94.55Z" fill="#862633"/>
<path d="M172.39 210.58L187.22 222.01H112.82L150.04 94.55V133.82L127.62 210.58H172.39ZM104.06 252.03L104.062 252.032L104.06 252.04V252.03ZM104.062 252.032L112.82 222.02L120.98 233.43L117.04 247.07C115.9 250.79 115.3 256.06 115.94 260.05L104.062 252.032ZM150.04 68.8V53.97L154.39 68.89C152.96 68.84 151.51 68.8 150.04 68.8ZM162.868 98.022L162.87 98.02L164.98 105.37C164.99 105.37 165.01 105.36 165.01 105.36L179.06 153.61C180.86 159.87 184.56 165.42 190.12 169.69C188.01 175.67 186.41 179.94 189.32 189.84L207.83 253.18C208.52 255.54 209.44 257.82 210.47 260.05L195.77 251.26L187.23 222.01L150.04 94.55V80.7C152.71 80.7 155.33 80.8 157.87 80.94L156.65 76.69L162.868 98.022Z" fill="#BA0021"/>
<path d="M137.19 98.03C123.72 96.42 114.15 92.35 114.15 87.62C114.15 82.18 126.75 77.65 143.4 76.68C145.55 76.56 147.77 76.48 150.04 76.48C151.95 76.48 153.82 76.54 155.65 76.63C155.98 76.64 156.31 76.66 156.65 76.68C173.3 77.64 185.92 82.16 185.92 87.62C185.92 92.35 176.34 96.42 162.88 98.03H162.87L164.98 105.38C164.98 105.38 165 105.38 165.01 105.37C182.37 102.77 194.8 95.84 194.8 87.62C194.8 77.85 177.07 69.81 154.4 68.89C152.97 68.84 151.52 68.8 150.05 68.8C148.58 68.8 147.13 68.84 145.7 68.89C122.99 69.81 105.29 77.85 105.29 87.62C105.29 95.83 117.71 102.77 135.07 105.37H135.09L137.21 98.02L137.19 98.03Z" fill="#C4CED4"/>
</svg>
