<svg width="300" height="300" viewBox="0 0 300 300" fill="none" xmlns="http://www.w3.org/2000/svg">
<path d="M51.52 237.14L51.23 237.31L106.17 203.25L94.63 174.94L132.09 151.33L119.98 128.88L156.17 111.56L144.31 91.01L171.86 78.62L161.54 62.78H204.52L243.38 237.21H182.6L196 219.08L175.28 126.41H157.1L102.24 216.64L101.97 217.07L111.73 237.14H51.52ZM170.15 169.19C170.15 169.19 165.07 177.31 164.1 178.87C164.73 180.96 171.31 202.95 171.31 202.95C171.31 202.95 158.02 186.82 156.17 184.59C153.49 186.79 134.67 202.35 134.67 202.35L148.95 177.66C148.55 176.12 146.79 169.19 146.79 169.19H170.15Z" fill="#AA182C"/>
<path d="M149.32 109.39L113.1 126.87L126.02 150.03L88.66 173.45L100.41 201.41L39.14 240.01L36.12 241.92L152.84 57.93L153.73 59.24L165.42 76.42L137.62 88.78L149.32 109.39ZM173 241.94L190.56 217.91L171.01 130.71H159.74L107.98 217.04L120.04 241.92H43.8L48.5 239.01L48.57 238.96L51.23 237.31L51.52 237.14H111.73L101.97 217.07L102.24 216.64L157.1 126.41H175.28L196 219.08L182.6 237.21H243.38L204.52 62.78H161.54V62.77L160.93 61.84L158.38 57.93L208.57 57.96L249.49 241.92L173 241.94Z" fill="black"/>
<path d="M184.658 216.842L174.81 171.38L169.42 179.99L179.23 217.91L155.59 191.75L120.34 217.91L143.85 177.34L141.96 169.88L113.89 216.99L127.99 246.63H27.52L149.64 53.4L212.32 53.36L212.48 54.09L255.52 246.63H163L184.658 216.842ZM156.18 184.59L171.32 202.95C171.32 202.95 164.74 180.96 164.11 178.87C165.08 177.31 170.16 169.19 170.16 169.19H146.79C146.79 169.19 148.55 176.12 148.95 177.66L134.67 202.35C134.67 202.35 153.5 186.79 156.17 184.59H156.18ZM145 164.77H173.37L166.94 135.11H162.67L145 164.77ZM36.12 241.91L39.14 240.01L100.42 201.41L88.66 173.45L126.03 150.03L113.11 126.87L149.32 109.39L137.62 88.78L165.42 76.42L153.73 59.24L152.84 57.93L36.11 241.92L36.12 241.91ZM120.05 241.93L107.98 217.06L159.75 130.73H171.02L190.57 217.93L173.01 241.96L249.49 241.94L208.58 57.98L158.38 57.95L160.94 61.86L161.54 62.79L171.86 78.63L144.31 91.02L156.18 111.57L119.98 128.89L132.09 151.34L94.63 174.94L106.17 203.25L43.8 241.92H120.04L120.05 241.93Z" fill="#3EC1CC"/>
</svg>
