<svg width="300" height="300" viewBox="0 0 300 300" fill="none" xmlns="http://www.w3.org/2000/svg">
<path d="M166.05 119.26C171.85 117.71 178.61 124.16 181.15 133.68C183.67 143.19 181.02 152.15 175.21 153.69C171.34 154.72 167.05 152.2 163.87 147.6C165.49 148.64 167.22 148.95 168.64 148.26C171.34 146.96 171.94 142.58 169.96 138.48C167.99 134.39 164.19 132.13 161.48 133.43C160.52 133.89 159.83 134.75 159.42 135.84C158.29 127.69 160.94 120.62 166.05 119.27V119.26ZM141.49 129.11C147.2 127.24 154.31 133.31 157.37 142.67C160.43 152.02 158.28 161.11 152.57 162.99C148.46 164.33 143.62 161.57 140.1 156.43C142.2 158.03 144.56 158.56 146.36 157.56C149.21 155.99 149.59 151.21 147.2 146.89C144.81 142.58 140.56 140.37 137.71 141.95C136.66 142.52 135.94 143.54 135.58 144.8C134.45 137.25 136.72 130.68 141.47 129.11H141.49ZM80.33 132.92L80.334 132.929L80.33 132.93V132.92ZM80.334 132.929C80.61 132.892 94.225 131.291 108.43 124.63L82.95 138.06L82.91 138.08L82.11 136.5L80.37 133.01L80.334 132.929ZM265.56 70.31C271.23 83.82 267.67 94.37 253.67 105.58C238.09 118.05 216.08 124.91 202.69 128.17C202.86 128.96 203.1 129.95 203.43 131.16C234.24 128.9 256.07 139.47 257.36 151.19C257.63 155.09 254.98 159.71 248.44 161.53C225.77 167.44 221.34 178.07 215.28 204.7C207.17 240.26 172.53 257.13 138.93 257.13C135.11 257.13 131.3 256.91 127.55 256.48C107.09 254.12 88.47 245.66 75.1 232.67C60.59 218.56 52.62 199.6 51.95 177.64L45.2 178.72L44.53 175.94C44.3 174.99 39.32 153.05 62.72 133.55C56.43 118.01 51.04 91.01 75.99 69.88C78.7 67.24 80.49 66 81.79 65.09C82.27 64.75 82.67 64.48 83.04 64.18C84.63 60.09 87.52 56.54 88.9 55.16C97.03 46.71 107.42 45.3 107.86 45.24C118.57 43.62 124.94 48.07 127.35 49.75L127.45 49.82C128.08 49.95 128.93 49.98 130.04 50.01C131.56 50.05 133.45 50.11 136.01 50.45C150.09 52.31 162.11 58.68 171.77 69.38C175.94 68.82 187.12 67.27 192.97 66.05C196.23 65.38 199.48 64.68 202.7 63.99C220.44 60.2 237.18 56.6 248.17 57.73C256.53 59.18 262.78 63.75 265.52 70.29L265.56 70.31ZM199.11 125.81C214.93 122.22 236.65 115.19 251.7 103.15C263.72 93.53 268.11 84.44 262.67 71.48C260.63 66.62 255.73 62.18 247.86 60.8C235.42 59.54 214.5 64.73 193.6 69.07C186.15 70.62 170.54 72.65 170.54 72.65C158.35 58.45 144.43 54.67 135.6 53.5C130.59 52.83 128.2 53.32 126.13 52.65C124.3 51.45 118.69 46.71 108.25 48.29C108.25 48.29 98.6 49.53 91.07 57.34C89.57 58.83 86.89 62.33 85.65 65.99C83.76 67.72 82.25 68.09 77.97 72.23C51.14 94.95 62.12 124.62 66.45 134.49C42.22 153.34 47.51 175.2 47.51 175.2L54.97 174C54.42 271.22 195.31 278.23 212.24 203.99C218.38 177.01 223.34 164.85 247.58 158.53C252.47 157.17 254.42 153.93 254.25 151.5C253.2 141.96 232.41 131.44 201.12 134.43C199.26 128.2 199.11 125.81 199.11 125.81Z" fill="white"/>
<path d="M151.95 88.53C152.16 88.09 152.67 87.75 153.47 87.5C153.5 87.53 153.57 87.57 153.57 87.57C153.63 87.65 153.67 87.74 153.7 87.81C153.91 88.32 153.84 88.75 153.73 89.03C153.6 89.37 153.4 89.56 153.03 89.71C152.67 89.86 152.31 89.79 152.07 89.54C151.84 89.28 151.79 88.89 151.95 88.53ZM136.97 83.05C135.51 82.49 134.25 81.3 133.68 79.96C133.13 78.64 133.17 77.23 133.8 76.27C134.28 75.55 135.02 75.15 135.92 75.15C138.1 75.15 140.04 79.32 141.06 82.82C139.52 83.61 138.23 83.56 136.96 83.06L136.97 83.05ZM139.47 97.64C136.58 98.21 134.25 93.9 133.35 90.77C132.74 88.66 132.72 86.23 133.33 84.13C136 85.79 138.5 85.75 141.43 84.11C142.03 86.01 142.45 88.76 142.47 90.87C142.47 92.56 142.3 94.88 141.4 96.28C140.85 97.13 140.36 97.46 139.47 97.63V97.64ZM252.06 78.28C254.21 83.31 248.43 89.65 246.93 91.13C244.95 93.09 237.6 98.53 226.84 103.44C211.74 110.33 194.16 114.43 189.86 115.59C183 117.45 183.26 119.25 184.59 122.23C187.6 128.94 188.53 133.21 189.69 148.99C199.6 146.02 217.43 146.44 233.36 150.28C223.44 154.22 213.11 161.05 204.37 172.64C178.21 207.38 136.63 204.19 117.83 186.11C113.73 189.57 119.08 201.31 119.08 201.31C118.23 202.11 116.22 201.31 116.22 201.31C102.28 178.16 117.19 172.07 128.83 171.43C133.75 170.54 133.12 173.48 128.61 174.32C109.18 178.77 135.99 201.08 169.2 192.36C198.47 184.68 196.71 166.02 222.83 151.55C201.92 147.59 187.28 152.85 181.04 156.08C176.88 158.23 170.05 158.36 167 157.29C163.14 169.09 150.52 172.4 126.38 166.53C109.23 162.36 95.65 179.22 103.18 200.86C110.9 223.06 149.27 245.27 191.23 219.17C187.81 223.53 183.55 227.35 178.53 230.56C167.68 237.49 153.62 241.31 138.94 241.31C118.02 241.31 98.58 233.8 85.64 220.71C73.79 208.71 67.89 192.86 68.12 173.58C68.12 170.18 69.31 162.67 70.47 160.36L62.01 160.94C62.01 160.94 64.69 148.64 82.97 138.05L82.95 138.04L108.43 124.61C94.09 131.33 80.37 132.91 80.33 132.91C64.61 99.86 81.47 86.42 88.98 80.21C95.33 74.96 96.94 75.16 98.1 70.66C98.78 67.99 101.49 65.17 104.87 63.37C109.18 60.77 114.4 60.47 117.48 62.76C120.38 65.64 126.04 66.32 129.5 66.32C156.42 67.28 164.51 86.96 164.51 86.96C170.62 85.06 180.63 84.84 197.82 81.37C230.81 74.06 233.25 73.86 238.6 73.38C244.78 72.82 249.9 73.19 252.08 78.33L252.06 78.28ZM116.02 68.99C116.02 68.99 106.18 61.45 102.8 73.96L116.02 68.99ZM149.88 86.49L149.65 89.23C149.48 91.07 149.2 92.32 148.32 92.86L148.29 92.88L148.01 94.42L148.15 94.35C149.25 93.9 149.99 92.79 150.4 90.94L150.61 89.4L150.71 88.01L150.73 87.61L150.84 86.12C150.89 85.68 150.96 85.35 151.03 85.1L151.09 84.92C151.14 85.01 151.19 85.08 151.19 85.08C151.56 85.68 152.52 86.48 153.04 86.84C153.04 86.84 153.12 86.88 153.19 86.93C153.11 86.97 153.03 86.99 153.03 86.99C151.29 87.64 151 88.89 151.21 89.52C151.34 89.94 151.71 90.25 152 90.35C152.37 90.5 152.97 90.52 153.48 90.23C154.59 89.61 155.17 88.46 154.97 87.27L154.93 87.03L154.77 86.52C154.7 86.25 154.4 85.89 153.9 85.43L152.7 84.42L152.27 84.07C151.98 83.82 151.8 83.49 151.73 83.12L151.71 82.98L151.59 83.06L150.2 84.06C150 84.66 149.94 85.68 149.91 86.5L149.88 86.49ZM147.66 84.28C147.73 84.47 147.98 84.45 148.46 84.25C148.66 84.17 148.76 84.07 148.87 83.89C149.14 83.47 149.24 82.86 149.11 82.53C149.01 82.3 148.82 82.22 148.43 82.28C148.46 81.86 148.47 81.8 148.64 81.14C148.57 81.16 148.5 81.18 148.46 81.2C148.27 81.28 148.13 81.48 147.9 81.96C147.58 82.67 147.46 83.8 147.66 84.28ZM130.64 80.21C129.05 84.08 129.19 88.63 130.35 92.16C131.56 95.8 133.43 98.45 135.78 99.79C137.15 100.58 138.9 100.69 140.26 100.22C141.92 99.65 143.24 98.42 144.12 96.58C146.04 92.61 145.72 86.46 144.27 82.52C145.02 81.9 145.78 80.81 146.25 79.74L145.05 79.31C144.77 80.01 144.27 80.69 143.79 81.21C141.59 75.39 138.71 72.45 135.64 72.62C133.85 72.71 132.33 73.51 131.36 74.9C130.33 76.38 130 78.43 130.64 80.2V80.21ZM152.54 162.99C158.26 161.12 160.41 152.02 157.34 142.67C154.28 133.31 147.18 127.24 141.46 129.11C136.71 130.67 134.44 137.25 135.57 144.8C135.93 143.54 136.65 142.52 137.7 141.95C140.56 140.36 144.8 142.58 147.19 146.89C149.58 151.2 149.21 155.99 146.35 157.56C144.55 158.56 142.18 158.04 140.09 156.43C143.62 161.57 148.45 164.33 152.56 162.99H152.54ZM175.21 153.72C181.02 152.18 183.67 143.22 181.15 133.71C178.61 124.19 171.85 117.74 166.05 119.29C160.94 120.64 158.29 127.71 159.42 135.86C159.83 134.77 160.52 133.91 161.48 133.45C164.19 132.15 167.98 134.4 169.96 138.5C171.95 142.6 171.34 146.98 168.64 148.28C167.22 148.96 165.49 148.65 163.87 147.62C167.05 152.22 171.34 154.74 175.21 153.71V153.72ZM147.47 116.85C168.1 117.31 181.11 113.01 198.94 102.35C215.23 90.98 231.82 80.9 231.82 80.9C231.82 80.9 198.15 88.38 176.96 91.03C154.1 93.64 133.88 109.36 133.88 109.36C125.18 115.11 133.95 115.01 147.47 116.85ZM245.3 80.5C244.09 78.86 211.02 101.91 211.02 101.91C231.58 94.94 248.28 84.58 245.3 80.5Z" fill="black"/>
<path d="M116.02 68.99L102.8 73.96C106.18 61.45 116.02 68.99 116.02 68.99ZM176.96 91.03C198.15 88.38 231.82 80.9 231.82 80.9C231.82 80.9 215.24 90.98 198.94 102.35C181.11 113.01 168.1 117.31 147.47 116.85C133.95 115.02 125.18 115.12 133.88 109.36C133.88 109.36 154.1 93.63 176.96 91.03ZM245.3 80.5C248.28 84.58 231.57 94.94 211.02 101.91C211.02 101.91 244.1 78.86 245.3 80.5ZM135.78 99.77C133.43 98.42 131.56 95.78 130.35 92.14C129.18 88.61 129.05 84.06 130.64 80.19C130 78.41 130.33 76.37 131.36 74.89C132.33 73.5 133.85 72.71 135.64 72.61C138.72 72.44 141.59 75.38 143.79 81.2C144.27 80.69 144.77 80 145.05 79.3L146.25 79.73C145.78 80.8 145.02 81.9 144.27 82.51C145.72 86.45 146.04 92.6 144.12 96.57C143.24 98.41 141.92 99.64 140.26 100.21C138.9 100.68 137.15 100.58 135.78 99.78V99.77ZM133.79 76.29C133.16 77.25 133.12 78.67 133.67 79.98C134.25 81.32 135.51 82.5 136.96 83.07C138.24 83.57 139.52 83.62 141.06 82.83C140.04 79.32 138.1 75.16 135.92 75.16C135.02 75.16 134.28 75.56 133.8 76.28L133.79 76.29ZM133.33 84.11C132.73 86.22 132.74 88.64 133.35 90.75C134.25 93.87 136.57 98.18 139.47 97.62C140.35 97.45 140.84 97.12 141.4 96.27C142.31 94.87 142.47 92.55 142.47 90.86C142.45 88.76 142.03 86.01 141.43 84.1C138.5 85.75 136 85.78 133.33 84.12V84.11ZM147.67 84.28C147.47 83.81 147.59 82.67 147.91 81.96C148.14 81.49 148.28 81.28 148.47 81.2C148.52 81.18 148.59 81.16 148.65 81.14C148.48 81.8 148.47 81.86 148.44 82.28C148.82 82.22 149.02 82.3 149.12 82.53C149.25 82.86 149.15 83.48 148.88 83.89C148.77 84.07 148.67 84.16 148.47 84.25C148 84.45 147.75 84.47 147.67 84.28ZM148.38 92.88C149.25 92.34 149.54 91.09 149.71 89.25L149.94 86.51C149.97 85.69 150.03 84.66 150.23 84.07L151.62 83.07L151.74 82.99L151.76 83.13C151.83 83.5 152.01 83.83 152.3 84.08L152.73 84.43L153.93 85.44C154.42 85.9 154.73 86.26 154.8 86.53L154.96 87.04L155 87.28C155.2 88.47 154.62 89.63 153.51 90.24C153 90.53 152.4 90.51 152.03 90.36C151.74 90.26 151.37 89.96 151.24 89.53C151.03 88.9 151.32 87.66 153.06 87L153.22 86.94C153.15 86.89 153.07 86.85 153.07 86.85C152.56 86.49 151.59 85.69 151.22 85.09C151.22 85.09 151.17 85.02 151.12 84.93C151.08 85.03 151.06 85.11 151.06 85.11C150.98 85.36 150.92 85.69 150.87 86.13L150.76 87.62L150.74 88.02L150.64 89.41L150.43 90.95C150.02 92.79 149.28 93.91 148.18 94.36L148.04 94.43L148.32 92.89L148.35 92.87L148.38 92.88ZM153.57 87.57C153.57 87.57 153.5 87.53 153.47 87.5C152.67 87.75 152.16 88.09 151.95 88.53C151.78 88.89 151.83 89.28 152.07 89.54C152.31 89.78 152.67 89.86 153.03 89.71C153.39 89.56 153.6 89.37 153.73 89.03C153.85 88.75 153.91 88.33 153.7 87.81C153.673 87.7222 153.629 87.6407 153.57 87.57ZM262.65 71.48C268.09 84.44 263.7 93.52 251.68 103.15C236.63 115.19 214.91 122.21 199.09 125.81C199.09 125.81 199.24 128.2 201.1 134.43C232.4 131.44 253.19 141.96 254.24 151.5C254.42 153.93 252.46 157.17 247.57 158.53C223.33 164.85 218.37 177.01 212.23 203.99C195.3 278.23 54.41 271.22 54.96 174L47.5 175.2C47.5 175.2 42.21 153.35 66.44 134.49C62.11 124.62 51.13 94.95 77.96 72.23C82.23 68.09 83.75 67.71 85.64 65.99C86.88 62.33 89.56 58.83 91.06 57.34C98.59 49.53 108.24 48.29 108.24 48.29C118.69 46.71 124.29 51.45 126.13 52.65C128.19 53.32 130.59 52.83 135.6 53.5C144.44 54.67 158.35 58.45 170.54 72.65C170.54 72.65 186.15 70.63 193.6 69.07C214.5 64.74 235.42 59.54 247.86 60.8C255.73 62.17 260.63 66.61 262.67 71.48H262.65ZM226.89 103.53C237.65 98.61 245 93.17 246.98 91.22C248.49 89.73 254.26 83.4 252.11 78.37C249.93 73.23 244.8 72.86 238.63 73.42C233.28 73.9 230.84 74.1 197.85 81.41C180.66 84.88 170.65 85.1 164.54 87C164.54 87 156.45 67.32 129.53 66.36C126.08 66.36 120.42 65.68 117.51 62.8C114.43 60.51 109.2 60.8 104.9 63.41C101.52 65.21 98.81 68.04 98.13 70.7C96.98 75.2 95.36 75 89.01 80.25C81.5 86.46 64.63 99.9 80.36 132.95L80.4 133.04C80.94 134.18 81.52 135.34 82.14 136.53L82.93 138.11L82.97 138.09L82.99 138.1C64.71 148.68 62.03 160.99 62.03 160.99L70.49 160.41C69.33 162.72 68.14 170.23 68.14 173.63C67.91 192.91 73.81 208.76 85.66 220.76C98.6 233.85 118.04 241.36 138.96 241.36C153.64 241.36 167.7 237.53 178.55 230.61C183.57 227.4 187.83 223.57 191.25 219.22C149.29 245.32 110.92 223.1 103.2 200.91C95.66 179.27 109.25 162.41 126.4 166.58C150.53 172.45 163.16 169.14 167.02 157.34C170.07 158.41 176.9 158.27 181.06 156.13C187.3 152.9 201.94 147.64 222.85 151.6C196.73 166.07 198.49 184.73 169.22 192.41C136.01 201.13 109.2 178.82 128.63 174.37C133.14 173.53 133.77 170.59 128.85 171.48C117.21 172.12 102.29 178.2 116.24 201.36C116.24 201.36 118.25 202.16 119.1 201.36C119.1 201.36 113.74 189.62 117.85 186.16C136.65 204.24 178.23 207.43 204.39 172.69C213.13 161.1 223.46 154.27 233.38 150.33C217.45 146.49 199.62 146.06 189.71 149.04C188.55 133.26 187.61 128.99 184.61 122.28C183.28 119.3 183.02 117.5 189.88 115.64C194.19 114.48 211.76 110.38 226.86 103.49L226.89 103.53Z" fill="#DF4601"/>
</svg>
