<svg width="300" height="300" viewBox="0 0 300 300" fill="none" xmlns="http://www.w3.org/2000/svg">
<path d="M38 151C38 88.59 88.59 38 150.98 38C213.37 38 263.99 88.59 263.99 151C263.99 213.41 213.4 264 150.98 264C88.56 264 38 213.41 38 151Z" fill="white"/>
<path d="M209.99 168.75H195.92C188.53 168.75 189.91 159.31 189.91 156.79H202.15C202.15 156.79 201.81 158.63 202.45 159.79C203.42 161.55 207.72 161.46 207.72 159.32V157.43C207.72 157.43 208.23 154.46 205.68 154.46H196.69C189.56 154.46 189.92 149.29 189.92 146.95C189.92 144.61 189.72 147.37 189.92 141.01C190.13 134.67 193.11 132.54 198.55 132.54C200.81 132.54 208.05 132.54 210.01 132.51C218.51 132.51 220.06 135.2 220.06 143.66H207.02V141.98C207.02 139.22 202.01 139.75 202.01 141.44C202.01 142.5 201.48 146 203.88 146H212.74C217.01 146 220.07 148.76 220.03 153.01C220.03 153.73 220.07 160.41 220.07 161.12C220.07 166.97 216.64 168.77 210.02 168.77L209.99 168.75ZM138.88 157.35V132.53H151.18V157.65C151.18 166.67 149.05 168.78 141.89 168.78H129.1C123.2 168.78 121.3 164.97 121.3 156.99V132.53H133.59V157.35C133.59 160.73 138.88 160.73 138.88 157.35ZM155.63 168.77V132.52H175.04C182.35 132.52 185.49 134.24 185.49 142.72C185.49 147.17 184.64 149.49 182.1 150.77C185.49 152.67 185.49 156.28 185.49 159.46C185.49 167.5 181.93 168.77 175.04 168.77H155.63ZM205.67 191.71C193.19 208.28 173.33 219 150.96 219C113.17 219 82.51 188.34 82.51 150.56C82.51 112.78 113.16 82.11 150.96 82.11C173.57 82.11 193.6 93.06 206.08 109.97L185.99 129.57C178.84 117.69 165.82 109.73 150.96 109.73C128.41 109.73 110.14 128 110.14 150.56C110.14 173.12 128.41 191.4 150.96 191.4C165.38 191.4 178.05 183.92 185.32 172.63L205.67 191.71ZM173.77 142.4C173.73 140.92 172.33 141.03 168.54 141.03V146.11C170.66 146.11 173.77 146.33 173.77 144.41V142.4ZM173.68 157.17C173.03 155.43 172.67 155.64 168.54 155.64V160.72C171.19 160.72 173.68 160.94 173.68 159.03C173.68 158.56 173.81 157.53 173.68 157.17Z" fill="#CC3433"/>
<path d="M150.96 44.89C209.32 44.89 256.64 92.21 256.64 150.56C256.64 208.91 209.32 256.24 150.96 256.24C92.6 256.24 45.29 208.91 45.29 150.56C45.29 92.21 92.6 44.89 150.96 44.89ZM229.01 150.56C229.01 107.45 194.06 72.51 150.96 72.51C107.86 72.51 72.91 107.46 72.91 150.56C72.91 193.67 107.86 228.63 150.96 228.63C194.06 228.63 229.01 193.67 229.01 150.56Z" fill="#0E3386"/>
</svg>
