<svg width="300" height="300" viewBox="0 0 300 300" fill="none" xmlns="http://www.w3.org/2000/svg">
<path d="M162.59 92.98C108.46 92.98 87.22 128.96 87.22 146.19C87.22 156.17 90.13 164.94 95.07 172.42C107.9 191.82 134.5 202.44 159.95 202.44C187.52 202.44 209.2 191.6 226.91 178.15H264.75C247.11 207.61 209.62 231.55 161.16 231.55C105.83 231.55 84.07 207.81 58.45 180.6C47.94 169.44 41.37 159.36 24.35 146.81C24.35 146.81 24.88 146.63 26.11 145.79C29.47 143.5 38.27 136.24 57.4 113.58C77.14 90.2 110.71 64.25 156.52 64.25C202.33 64.25 248.14 85.37 265.89 120.42H227.62C219.56 107.67 194.43 92.98 162.6 92.98H162.59Z" fill="white"/>
<path d="M161.18 231.54C209.64 231.54 247.14 207.6 264.77 178.14L267.42 184.34C249.79 213.8 212.29 237.74 163.84 237.74C108.5 237.74 87.11 216.32 61.49 189.11C50.98 177.96 44.22 168.29 27.85 154.9L24.36 146.81C41.38 159.37 47.94 169.44 58.46 180.6C84.08 207.81 105.83 231.55 161.17 231.55L161.18 231.54ZM164.435 99.3C111.519 99.302 91.08 134.031 91.08 151.26C91.08 157.18 91.84 166.34 95.08 172.42C90.14 164.94 87.23 156.17 87.23 146.19C87.23 128.96 108.47 92.98 162.6 92.98C194.43 92.98 219.55 107.67 227.62 120.42H265.89C265.89 120.42 267.69 125.28 268.41 126.74H228.34C220.27 113.991 196.252 99.301 164.435 99.3Z" fill="black"/>
</svg>
