<svg width="300" height="300" viewBox="0 0 300 300" fill="none" xmlns="http://www.w3.org/2000/svg">
<path d="M172.94 180.34C186.38 178.56 199.43 177.38 212.08 176.98C215.84 193.19 220.78 219.09 223.15 234.31C195.87 247.35 171.95 256.45 148.03 264.75C122.72 256.05 99.4 246.17 75.28 234.7C80.42 213.15 83.39 180.34 83.39 137.44C83.39 107.99 81.61 90.4 77.06 68.06C100.78 55.81 124.11 45.13 149.61 35.25C160.67 39.72 170.96 44.48 181.03 49.51L184.2 40.98C192.5 39.79 209.3 41.18 224.72 43.55C221.76 63.12 218.4 84.07 214.84 105.42C213.85 111.35 212.86 117.28 212.07 123.21C194.67 125.58 179.05 126.76 171.74 125.38C171.94 107.26 172.09 96.49 171.78 89.25C164.44 86.45 157.29 83.89 149.6 81.5C142.48 83.88 134.17 87.04 126.62 90.2C125.87 130.19 125.41 170.19 125.46 210.18C132.86 213.06 140.49 215.68 148.42 218.09C156.94 216.14 164.97 213.78 172.93 211.03V180.34H172.94Z" fill="white"/>
<path d="M179.65 186.27V215.81C169.56 219.48 159.21 222.68 148.02 225.01C138.03 221.96 128.19 218.62 118.75 214.75C118.66 171.79 119.16 128.69 119.98 85.73C129.37 81.62 140.57 77.38 149.4 74.38C159.56 77.4 168.69 80.79 178.14 84.47C178.78 91.57 178.69 101.69 178.46 119.25C185.38 119.45 195.07 118.66 206.13 117.27C209.89 93.94 213.64 70.82 217 49.27C206.33 47.89 196.05 47.1 188.93 47.29L184.65 58.88C173.3 53.04 161.9 47.64 149.6 42.55C126.87 51.45 105.91 60.93 84.56 71.81C88.51 92.17 90.09 109.96 90.09 137.44C90.09 177.37 87.52 209 82.97 230.94C104.52 241.02 125.47 249.72 148.01 257.63C171.14 249.52 193.87 240.83 215.42 230.55C214.23 221.46 210.28 199.91 206.72 183.9C197.82 184.3 188.93 185.09 179.64 186.27H179.65Z" fill="#E31937"/>
</svg>
