<svg width="300" height="300" viewBox="0 0 300 300" fill="none" xmlns="http://www.w3.org/2000/svg">
<path d="M219.73 244.8C227.04 251.14 234.89 249.86 234.89 249.86V260.23C234.89 260.23 195.8 260.26 193.34 260.26C192.39 260.26 157.6 201.69 157.6 201.69H148.16V231.41C148.16 247.83 153.32 249.82 167.22 249.82V260.25H99.72V249.82C114.68 249.82 118.24 246.49 118.24 230.3V186.53C117.82 186.54 117.43 186.57 117.01 186.57C92.86 186.57 76.27 176.47 66 162.55C55.71 148.63 51.21 131.12 51.21 115.63C51.21 93.19 58.43 74.55 71.05 60.86C83.49 47.39 101.34 39.76 122.25 39.76C141.55 39.76 152.18 46.5 156.68 46.5C158.31 46.5 159.21 45.6 159.93 43.35H166.61L168.22 90.27H159.75C157.77 78.82 153.27 69.39 146.95 62.88C140.64 56.37 132.71 52.78 123.69 52.78C99.72 52.78 83.31 77.25 83.31 112.04C83.31 144.9 97.16 168.28 118.25 172.72V152.88C118.25 136.25 115.04 132.7 99.73 132.7V122.27C110.59 121.38 117.89 120.72 132.14 119.83C143.36 119.17 154.4 118.72 160.46 118.72C188.96 118.72 217.46 128.66 217.58 159.31C217.46 187.66 191.13 193.78 186.95 195.87C198.36 198.43 212.17 237.38 219.74 244.79L219.73 244.8ZM58.67 114.54C58.62 162.14 93.95 171.13 93.95 171.13C93.95 171.13 75.77 148.38 75.82 111.86C75.89 72.54 95.3 53.8 95.3 53.8C95.3 53.8 58.71 68.08 58.67 114.54ZM140.91 129.84L125.53 130.9V249.78H140.91V129.84ZM208.49 159.92C208.42 133.41 180.36 130.89 180.36 130.89C180.36 130.89 190.51 137.35 190.5 160.18C190.49 182.79 179.9 189.15 179.9 189.15C179.9 189.15 208.58 183.26 208.5 159.91L208.49 159.92ZM148.17 190.81C174 191.25 183.26 181.27 183.26 158.42C183.26 140.9 174.17 129.37 156.89 129.37H148.16V164.83C154.56 159.08 159.94 150.46 164.25 138.96H172.72C171.28 151.76 166.95 168.38 161.73 183.64L161.18 185.21C159.56 184.54 157.75 184.09 155.95 183.87C154.33 183.42 152.35 183.42 150.18 183.42C149.52 183.42 148.84 183.46 148.16 183.48V190.81H148.17ZM194.19 249.84L216.12 249.89C216.12 249.89 211.54 246.27 205.15 233.52C199.22 219.39 188.12 202.11 180.35 198.22C180.35 198.22 178.18 199.07 175.21 199.91C171.94 200.85 165.26 201.9 165.26 201.9C174.37 214.54 194.18 249.84 194.18 249.84H194.19Z" fill="#C4CED4"/>
<path d="M95.3 53.8C95.3 53.8 75.89 72.54 75.82 111.86C75.76 148.38 93.95 171.13 93.95 171.13C93.95 171.13 58.63 162.14 58.67 114.54C58.7 68.09 95.3 53.8 95.3 53.8ZM125.53 130.9L140.91 129.84V249.78H125.53V130.9ZM190.51 160.16C190.52 137.33 180.37 130.87 180.37 130.87C180.37 130.87 208.42 133.39 208.5 159.9C208.58 183.26 179.9 189.14 179.9 189.14C179.9 189.14 190.5 182.78 190.5 160.17L190.51 160.16ZM205.13 233.52C211.53 246.26 216.1 249.89 216.1 249.89L194.17 249.84C194.17 249.84 174.36 214.54 165.25 201.9C165.25 201.9 171.94 200.85 175.2 199.91C178.17 199.07 180.34 198.22 180.34 198.22C188.11 202.11 199.21 219.39 205.14 233.52H205.13Z" fill="#33006F"/>
</svg>
