<svg width="300" height="300" viewBox="0 0 300 300" fill="none" xmlns="http://www.w3.org/2000/svg">
<path d="M63.14 68.34C63.14 52.82 53.7 47.83 45.25 47.94L42.49 47.82V39.78H97.61V47.97C89.72 48.63 81.65 53.95 81.65 68.33V116.68L85.47 114.31C93.41 101.9 114.26 69.01 118.59 59.51C123.93 47.87 115.77 47.87 107.94 47.87V39.75H156.8V47.87H153.36C148.04 47.87 141.47 47.87 132.69 59.86C121.46 75.23 99.17 112.47 99.17 112.47C133.31 115.31 146.16 167.23 154.93 174.27C149.92 137.18 174.68 90.93 211.01 92.72C215.08 92.9 220.08 92.34 231.67 95.87C243.27 99.4 244.33 93.07 245.88 85.99H254.55V147.1H247.05C246.43 136.52 241.7 101.52 211.1 100.45C180 99.41 174.15 139.3 173.72 166.53C172.16 267.15 235.43 263.98 247.02 231.48C248.71 226.79 247.97 225.44 246.07 224.42C232.28 217.02 248.27 197.23 257.12 214.54C261.18 222.48 253.91 260.11 215.99 260.11C157.12 260.11 139.89 168.97 117.96 139.31C100.88 116.21 86.95 126.61 81.71 132.26L81.48 148.13L81.62 176.4C81.62 191.94 91.05 196.93 99.52 196.83L102.28 196.93V204.94H42.48V196.93L45.24 196.83C53.7 196.93 63.13 191.94 63.13 176.4V68.34" fill="white"/>
</svg>
