<svg width="300" height="300" viewBox="0 0 300 300" fill="none" xmlns="http://www.w3.org/2000/svg">
<path d="M210.18 162.29H234.24V210.32H205.29C206 213.3 212.66 241.11 213.09 242.98H230.57L230.59 267.08L170.8 266.97V242.98H187.65C186.99 240.03 180.64 212.24 180.17 210.32H138.93C138.51 212.24 132.13 240.02 131.48 242.98H148.32V266.97L88.54 267.08V242.98H106.04C106.48 241.11 113.13 213.3 113.85 210.32H70.8V187.41H88.38V55.47H71.71V32.9L129.27 32.75V55.47H111.58V186.29H119.6C120.11 184.22 142.64 89.84 142.64 89.84H176.49C176.49 89.84 199.06 184.23 199.55 186.29H210.19V162.3L210.18 162.29ZM174.68 186.29C174 183.28 161.32 127.92 159.56 120.3C157.84 127.92 145.15 183.28 144.44 186.29H174.68Z" fill="white"/>
</svg>
