<svg width="300" height="300" viewBox="0 0 300 300" fill="none" xmlns="http://www.w3.org/2000/svg">
<path d="M233.99 51.1C214.53 35.5 196.85 55 196.85 66.17C216.34 70.31 233.71 89.81 225.92 140.44C219.58 181.82 195.16 207.6 179.78 208.1C192.53 190.68 201.09 171 205.76 151.75C219.72 94.3 197.37 75.75 179.67 74.88C158.17 73.81 136.66 103.09 130.65 137.64C125.91 165.02 126.49 192.98 143.16 213.47C128.44 232.07 93.05 237.81 99.26 193.01C104.47 155.51 123.1 114.17 133.4 93.84L133.71 93.3C139.24 81.98 143.63 73.94 145.52 70.75L141.37 70.7C101.09 71.39 69.1 80.68 54.16 101.07C40.17 120.16 39.77 140.25 51.32 152.19L53.01 153.86C56.39 157.27 60.83 159.02 65.25 159.02H65.28C69.26 159.02 73.31 157.53 76.35 154.47C79.4 151.44 80.9 147.38 80.89 143.39C80.89 138.96 79.12 134.52 75.72 131.14C73.9926 129.414 71.9303 128.059 69.66 127.16L69.73 127.04C70.03 126.31 70.39 125.6 70.78 124.91C73.48 120.17 78.2 115.86 84.35 112.76C89.18 110.33 94.88 108.66 101.04 108.04L100.07 110.12C91.53 125.94 79.05 156.06 75.12 171.77C62.84 220.89 82.69 249.66 104.15 253.67C129.99 258.49 149.83 245.96 160.31 229.78C172.81 237.71 205.82 242.28 230.63 198.11C259.18 147.2 260.22 72.14 234 51.11L233.99 51.1ZM160.96 196.58C156.05 184.65 153.81 170.6 153.81 157.26C153.81 141.16 157.02 126.19 162.58 117.4C166.25 111.62 170.58 108.82 175.5 109.13C177.25 109.27 179.23 109.84 180.63 113.2C181.77 115.93 182.29 119.54 182.29 123.75C182.29 144.75 169.74 180.55 160.96 196.57V196.58Z" fill="white"/>
</svg>
