<svg width="300" height="300" viewBox="0 0 300 300" fill="none" xmlns="http://www.w3.org/2000/svg">
<path d="M175.15 140.93C178.21 137.37 181.48 134.35 184.86 131.95L185.75 131.32V154.49L174.85 141.28L175.15 140.92V140.93ZM115.53 95.27L155.33 144.17L155.53 144.46L150.93 155.06L150.44 153.77C141.22 129.45 126.53 117.88 115.84 112.45L115.53 112.29V95.27ZM220.01 174.03L220.005 174.047L220 174.04L220.01 174.03ZM220.005 174.047L224.22 179.55C229.42 186.33 228.8 196.48 222.77 203.14C217.56 208.88 207.63 212.18 194.9 205.39C182.18 212.18 172.24 208.88 167.05 203.14C166.32 202.34 165.7 201.46 165.13 200.56V234.22C165.13 237.87 167.91 242.02 170.44 242.04C174.79 242.06 175.99 234.51 175.99 234.51L180.21 240.02C185.27 246.62 184.86 255.92 179.23 262.13C174.1 267.8 164.04 270.93 150.9 263.82C137.76 270.93 127.71 267.8 122.58 262.13C116.96 255.92 116.54 246.62 121.6 240.02L125.82 234.51C125.82 234.51 127.64 242.48 131.63 242.2C133.75 242.05 136.68 238.53 136.68 234.21V199.55C135.98 200.82 135.17 202.03 134.18 203.13C128.97 208.87 119.04 212.17 106.32 205.38C93.6 212.17 83.66 208.87 78.47 203.13C72.42 196.47 71.8 186.33 77 179.54L81.22 174.03C81.22 174.03 83.85 182.54 88.15 182.61C90.06 182.64 91.67 181.53 92.09 180.96V154.05C84.82 153.02 72.21 147.06 72.21 130.84C72.21 117.01 81.71 107.97 92.09 104.42V70.3C91.67 69.73 90.06 68.65 88.15 68.65C83.34 68.65 81.22 77.23 81.22 77.23L77 71.72C71.8 64.93 72.42 54.79 78.47 48.13C83.67 42.39 93.61 39.09 106.32 45.89C119.04 39.09 128.98 42.39 134.18 48.13C140.21 54.79 140.84 64.93 135.64 71.72L131.43 77.23C131.43 77.23 129.54 68.65 124.49 68.65C123.54 68.66 122.68 68.94 121.98 69.28C125.97 74.12 159.9 115.26 165.31 121.82C169.95 117 175.09 112.96 180.68 109.74V70.3C180.25 69.73 178.66 68.65 176.75 68.65C172.05 68.65 169.82 77.23 169.82 77.23L165.6 71.72C160.4 64.93 161.02 54.79 167.06 48.13C172.26 42.39 182.2 39.09 194.91 45.89C207.64 39.09 217.58 42.39 222.78 48.13C228.81 54.79 229.43 64.93 224.23 71.72L220.01 77.23C220.01 77.23 217.63 68.65 213.08 68.65C211.18 68.65 209.58 69.73 209.14 70.3V104.21C219.62 107.58 229.68 116.73 229.68 130.84C229.68 147.55 216.28 153.38 209.14 154.14V180.96C209.58 181.53 211.18 182.76 213.08 182.61C217.617 182.23 219.888 174.457 220.005 174.047ZM195.24 199.76C204.77 205.67 213.68 205.66 219.06 199.71C221.51 197.01 222.76 193.56 222.76 190.18C222.76 187.67 221.99 185.25 220.58 183.17C218.32 186.64 214.74 188.29 210.65 187.3C207.04 186.42 204.18 183.84 204.14 181.43V126.56L204.91 126.88C209.01 128.56 211.98 132.47 212.86 137.34C213.03 138.31 213.12 139.27 213.12 140.21C213.12 143.55 211.86 146.51 209.86 148.87C213.6 148.12 224.66 144.75 224.66 130.79C224.66 117.91 214.26 110.03 204.59 108.16L204.14 108.07V69.73C204.18 67.31 207.04 64.73 210.65 63.86C214.74 62.87 218.32 64.51 220.58 67.99C221.98 65.91 222.76 63.49 222.76 60.98C222.76 57.6 221.51 54.15 219.06 51.45C213.68 45.51 204.77 45.49 195.24 51.4L194.94 51.58L194.65 51.4C185.11 45.5 176.21 45.51 170.82 51.46C168.456 54.0686 167.142 57.4598 167.13 60.98C167.13 63.49 167.91 65.91 169.32 67.99C171.58 64.51 175.16 62.87 179.26 63.86C182.86 64.74 185.72 67.32 185.76 69.74V112.58L185.45 112.74C177.99 116.62 171.33 122.08 165.6 128.95L165.17 129.47L164.73 128.95C164.73 128.95 115.75 69.55 115.62 69.07C116.17 66.54 119.45 64.16 123.09 63.65C126.8 63.12 129.92 64.81 131.99 67.98C133.39 65.9 134.17 63.48 134.17 60.97C134.17 57.59 132.92 54.14 130.47 51.44C125.09 45.49 116.17 45.47 106.64 51.38L106.35 51.56L106.06 51.38C96.52 45.47 87.62 45.49 82.23 51.44C79.79 54.14 78.53 57.59 78.53 60.97C78.53 63.48 79.31 65.9 80.72 67.98C82.98 64.5 86.56 62.86 90.66 63.85C94.26 64.73 97.12 67.31 97.16 69.73V108.18L96.72 108.28C87.04 110.42 77.28 118.2 77.28 130.79C77.28 144.75 88.36 148.12 92.1 148.87C90.11 146.52 88.84 143.53 88.84 140.18C88.84 139.41 88.9 138.63 89.02 137.85C89.73 133.07 92.48 129.09 96.37 127.2L97.17 126.81V181.45C97.13 183.86 94.27 186.44 90.67 187.31C86.57 188.31 82.99 186.66 80.73 183.19C79.33 185.27 78.54 187.69 78.54 190.2C78.54 193.57 79.8 197.03 82.24 199.72C87.63 205.67 96.53 205.69 106.07 199.78L106.36 199.6L106.65 199.78C116.19 205.69 125.1 205.67 130.48 199.72C132.93 197.03 134.18 193.57 134.18 190.2C134.18 187.68 133.41 185.27 132 183.19C129.73 186.66 126.15 188.31 122.05 187.31C118.45 186.43 115.59 183.86 115.55 181.44V130.84L116.43 131.44C130.01 140.7 140.49 159.62 141.75 171.55V234.17C141.75 240.84 137.25 245.95 132.9 247.05C129.83 247.82 127.15 246.48 125.29 243.67C123.92 245.72 123.14 248.05 123.14 250.42C123.14 253.39 124.21 256.36 126.35 258.71C131.63 264.56 140.72 264.37 150.64 258.22L150.93 258.04L151.23 258.22C161.15 264.36 170.23 264.55 175.52 258.71C177.584 256.442 178.728 253.486 178.73 250.42C178.73 248.05 177.95 245.72 176.57 243.67C174.77 246.36 172.2 247.63 169.23 246.89C164.83 245.78 160.11 240.41 160.11 234.18V172.43C160.39 168.17 162.04 162.68 164.76 156.97L165.14 156.17L165.7 156.86C165.7 156.86 185.59 181.32 185.72 181.73C185.48 184.2 182.43 186.71 178.79 187.43C176.88 187.82 172.31 188.01 169.25 183.3C167.89 185.37 167.11 187.75 167.11 190.22C167.11 193.6 168.36 197.06 170.8 199.75C176.19 205.69 185.09 205.71 194.63 199.8L194.92 199.62L195.22 199.8L195.24 199.76ZM135.66 179.54C136.06 180.05 136.38 180.62 136.7 181.17V171.9C135.85 164.47 129.9 151.18 120.58 141.59V180.96C121 181.53 122.61 182.74 124.51 182.61C128.51 182.32 131.45 174.03 131.45 174.03L135.66 179.54ZM165.62 179.53L169.84 174.02C169.84 174.02 172.7 182.53 176.76 182.6C177.84 182.62 178.8 182.26 179.54 181.86C177.03 178.79 171.35 171.79 166.6 165.97C165.79 168.48 165.28 170.79 165.15 172.71V180.27C165.31 180.03 165.44 179.77 165.62 179.53Z" fill="#FF5910"/>
<path d="M222.74 190.22C222.74 187.71 221.96 185.29 220.56 183.21C218.3 186.68 214.72 188.33 210.63 187.34C207.02 186.47 204.16 183.88 204.12 181.47V126.6L204.89 126.92C208.99 128.6 211.96 132.51 212.84 137.38C213.01 138.35 213.1 139.3 213.1 140.25C213.1 143.59 211.84 146.55 209.84 148.91C213.59 148.16 224.64 144.79 224.64 130.83C224.64 117.95 214.23 110.07 204.57 108.2L204.12 108.11V69.77C204.16 67.35 207.02 64.78 210.63 63.9C214.72 62.91 218.3 64.56 220.56 68.03C221.97 65.95 222.74 63.53 222.74 61.02C222.74 57.64 221.49 54.19 219.04 51.49C213.66 45.55 204.75 45.53 195.22 51.44L194.92 51.62L194.63 51.44C185.09 45.53 176.19 45.55 170.8 51.5C168.36 54.2 167.11 57.65 167.11 61.02C167.11 63.53 167.9 65.95 169.3 68.03C171.56 64.55 175.14 62.9 179.24 63.9C182.84 64.78 185.7 67.35 185.74 69.78V112.62L185.43 112.78C177.98 116.66 171.31 122.12 165.58 128.99L165.15 129.51L164.71 128.99C164.71 128.99 115.72 69.59 115.6 69.11C116.15 66.59 119.43 64.21 123.07 63.69C126.78 63.17 129.9 64.85 131.97 68.02C133.38 65.94 134.15 63.52 134.15 61.01C134.15 57.63 132.9 54.18 130.45 51.48C125.07 45.53 116.15 45.52 106.62 51.42L106.33 51.6L106.04 51.42C96.5 45.51 87.6 45.53 82.21 51.48C79.77 54.18 78.51 57.63 78.51 61.01C78.51 63.52 79.3 65.94 80.7 68.02C82.96 64.54 86.54 62.89 90.64 63.89C94.24 64.77 97.1 67.34 97.14 69.77V108.22L96.7 108.32C87.02 110.45 77.26 118.24 77.26 130.83C77.26 144.79 88.34 148.16 92.08 148.91C90.09 146.56 88.82 143.57 88.82 140.22C88.82 139.45 88.88 138.67 89 137.89C89.71 133.11 92.45 129.13 96.35 127.24L97.15 126.85V181.49C97.11 183.9 94.25 186.47 90.65 187.35C86.55 188.35 82.97 186.7 80.71 183.23C79.3 185.31 78.52 187.73 78.52 190.24C78.52 193.61 79.78 197.07 82.22 199.76C87.61 205.71 96.51 205.73 106.05 199.82L106.34 199.64L106.63 199.82C116.17 205.73 125.08 205.71 130.46 199.76C132.91 197.07 134.16 193.61 134.16 190.24C134.16 187.73 133.38 185.31 131.98 183.23C129.71 186.7 126.13 188.35 122.03 187.35C118.43 186.48 115.57 183.9 115.53 181.48V130.88L116.41 131.48C129.99 140.74 140.47 159.66 141.73 171.59V234.21C141.73 240.87 137.23 245.99 132.88 247.09C129.81 247.86 127.13 246.52 125.27 243.71C123.89 245.76 123.12 248.09 123.12 250.46C123.12 253.43 124.2 256.4 126.33 258.75C131.61 264.59 140.7 264.4 150.62 258.26L150.91 258.08L151.21 258.26C161.13 264.41 170.21 264.6 175.5 258.75C177.64 256.4 178.71 253.43 178.71 250.46C178.71 248.09 177.92 245.76 176.55 243.71C174.75 246.4 172.18 247.67 169.21 246.93C164.8 245.82 160.09 240.45 160.09 234.22V172.47C160.37 168.21 162.02 162.72 164.74 157.01L165.12 156.21L165.68 156.9C165.68 156.9 185.58 181.36 185.7 181.77C185.46 184.24 182.41 186.75 178.77 187.47C176.86 187.85 172.29 188.05 169.23 183.34C167.87 185.4 167.09 187.78 167.09 190.26C167.09 193.64 168.34 197.09 170.78 199.79C176.17 205.74 185.07 205.75 194.61 199.84L194.9 199.66L195.2 199.84C204.73 205.75 213.64 205.73 219.02 199.79C221.392 197.182 222.711 193.785 222.72 190.26L222.74 190.22ZM150.94 155.05L150.45 153.76C141.23 129.44 126.53 117.87 115.85 112.44L115.54 112.28V95.25L155.34 144.15L155.54 144.44L150.94 155.04V155.05ZM185.75 154.49L174.85 141.28L175.15 140.92C178.21 137.37 181.48 134.35 184.86 131.94L185.75 131.31V154.48V154.49Z" fill="#002D72"/>
</svg>
