<svg width="300" height="300" viewBox="0 0 300 300" fill="none" xmlns="http://www.w3.org/2000/svg">
<path d="M231.96 197.61C232.71 196.86 239.15 197.61 235.93 202.31C232.71 207.02 205.62 247.64 205.62 247.64C195.77 263.04 180.13 251.45 173.34 231.07L156.21 179.64H107.61L94.43 218.46C102.06 220.71 109 224.26 114.4 228.83C124.62 218.81 138.26 221.62 139.97 223.33L115 254C75.37 225.23 31.67 243.96 25.71 253.46C32.27 226.73 53.67 215.95 74.99 215.74L100.56 140.48C100.57 140.46 100.58 140.44 100.58 140.42C109.11 115.33 80.57 114.68 72.69 121.83C75.65 93.34 101.14 90.78 113.16 103.4L116.19 94.48C120.21 82.65 120.16 76.01 110.16 70.06C98.58 63.16 86 71.54 79.1 81.4C86.13 50.58 106.8 41.63 125.86 46.56C138.35 50.51 145.7 60.57 149.67 72.5L192.63 201.51C197.17 215.11 205.7 226.34 231.97 197.59L231.96 197.61ZM149.35 159.01L132.16 107.4L114.63 159.01H149.35ZM191.23 107.46H186.05V91.67H201.54V106.25L191.08 119.91H186.66L191.23 107.46ZM257.76 127.51C270.2 129.98 290.12 146.57 274.63 165.37C255.94 188.01 226.1 169.42 218.46 160.54L226.99 148.95C239.57 160.35 256.25 163.49 260.57 156.84C265.69 148.94 255.36 144.3 247.32 142.29C227.62 137.36 210.26 125.77 225.51 104.32C236.59 88.72 263.97 90.76 275.19 106.29L265.53 116.15C259.15 106.54 240.71 105.79 238.07 113.44C234.93 122.52 245.31 125.03 257.75 127.49L257.76 127.51Z" fill="white"/>
</svg>
