<svg width="300" height="300" viewBox="0 0 300 300" fill="none" xmlns="http://www.w3.org/2000/svg">
<path d="M225.07 111.68C225.07 123.29 227.9 134.41 235.21 146.96C215.97 151.74 200.3 163.69 195.08 179.72C187.1 171.92 179.29 168.87 166.89 168.87L115.75 168.84V219.7C115.75 227.32 120.22 234 127.01 236.82L115.75 264.09H84.18L72.92 236.81C79.7 233.87 84.18 227.42 84.18 219.69V90.71C84.18 82.95 79.7 76.51 72.92 73.57L84.18 45.42L166.88 45.53C179.28 45.53 187.09 43.71 195.07 35.91C199.87 51.96 214.7 70.09 233.96 74.87C226.67 87.41 225.05 100.04 225.05 111.67L225.07 111.68ZM198.24 126.79V87.8C198.24 79.13 191.75 72.59 181.37 72.59H115.9V140.83H181.37C193.09 140.83 198.24 135.88 198.24 126.79Z" fill="#FFC72C"/>
</svg>
