<svg width="300" height="300" viewBox="0 0 300 300" fill="none" xmlns="http://www.w3.org/2000/svg">
<path d="M144.26 179.72L144.257 179.704L144.29 179.71L144.26 179.72ZM144.257 179.704C143.535 179.576 142.819 179.418 142.11 179.23C142.31 180.51 142.54 181.92 142.77 183.36C140.59 181.65 138.21 179.93 135.64 178.23C136.06 177.97 136.51 177.7 136.99 177.39C136.26 177.05 135.53 176.66 134.83 176.26C126.32 181.67 117.9 187.03 117.83 186.9L130.08 172.94C128.546 171.629 127.14 170.176 125.88 168.6C125.375 167.968 124.898 167.314 124.45 166.64L123.41 168.99L122.67 170.61C114.31 165.82 107.41 160.54 101.86 154.61C102.08 154.65 102.29 154.69 102.52 154.72L111.9 156.24C112.22 156.3 112.53 156.35 112.86 156.4C115.97 159.04 119.3 161.44 122.74 163.72C121.77 161.86 120.97 159.89 120.4 157.83C120.38 157.75 120.35 157.68 120.33 157.6C120.14 156.9 119.97 156.17 119.82 155.43C104.44 152.95 86.55 149.92 86.58 149.78H150.01C149.78 150.07 148.96 150.94 147.88 152.06C147.73 152.22 147.57 152.39 147.41 152.55C146.97 153 146.52 153.47 146.04 153.96C145.18 154.83 144.29 155.74 143.47 156.55C142.6 157.43 141.82 158.17 141.26 158.69C141.21 158.69 141.16 158.69 141.11 158.67C139.84 158.56 136.01 157.99 130.95 157.21C127.97 156.74 124.56 156.2 120.98 155.62C121.13 156.37 121.32 157.1 121.52 157.81C122.3 160.51 123.47 163.07 124.96 165.4C125.41 166.1 125.87 166.78 126.37 167.43C126.71 167.87 127.05 168.31 127.41 168.71C127.44 168.78 127.48 168.81 127.51 168.86C128.017 169.444 128.544 170.011 129.09 170.56C129.26 170.74 129.44 170.9 129.62 171.06C129.69 171.12 129.73 171.17 129.79 171.22C130 171.43 130.22 171.62 130.45 171.82C130.55 171.92 130.67 172.02 130.77 172.1C130.88 172.19 130.98 172.29 131.09 172.39L131.16 172.44C131.24 172.51 131.31 172.55 131.39 172.62C131.72 172.89 132.07 173.15 132.43 173.41C132.49 173.45 132.53 173.49 132.59 173.52C132.9 173.74 133.21 173.95 133.53 174.18C133.56 174.2 133.6 174.21 133.63 174.23C133.97 174.47 134.32 174.68 134.67 174.91C134.69 174.91 134.69 174.93 134.72 174.93C135.09 175.14 135.47 175.37 135.85 175.58L135.87 175.59C136.59 175.98 137.32 176.32 138.07 176.66V176.68H138.08V176.66L138.1 176.68H138.09C139.31 177.19 140.58 177.66 141.88 178.02C142.61 178.22 143.33 178.4 144.07 178.55C144.139 178.935 144.189 179.319 144.257 179.704ZM165.19 176.17C164.49 176.57 163.76 176.95 163.02 177.3C161.418 178.066 159.752 178.689 158.04 179.16C157.31 179.36 156.59 179.52 155.85 179.68C153.33 195.44 150.2 214.12 150.04 214.09V149.8L150.14 149.9C151.1 151.02 156.63 156.7 158.79 158.69C158.86 158.69 158.93 158.67 159.02 158.67C159 158.87 158.97 159.14 158.93 159.47C158.81 160.38 158.62 161.76 158.36 163.49C158.31 163.88 158.25 164.27 158.19 164.69C157.9 166.57 157.56 168.76 157.19 171.17C156.82 173.47 156.43 175.93 156.02 178.5C156.76 178.33 157.49 178.16 158.21 177.93C159.46 177.57 160.67 177.11 161.85 176.58H161.87C162.61 176.24 163.35 175.89 164.06 175.5C164.48 175.26 164.89 175.03 165.29 174.77C165.31 174.77 165.32 174.76 165.35 174.74C165.71 174.51 166.07 174.28 166.43 174.04C166.48 174.01 166.53 173.97 166.58 173.94C166.9 173.71 167.22 173.48 167.53 173.24C167.6 173.2 167.66 173.15 167.73 173.1C168.1 172.82 168.46 172.53 168.82 172.24C168.88 172.17 168.95 172.13 169.02 172.06C169.11 171.99 169.2 171.9 169.29 171.83C169.322 171.801 169.355 171.775 169.39 171.75C169.48 171.65 169.58 171.57 169.68 171.49C169.86 171.33 170.03 171.15 170.21 170.99C170.32 170.89 170.43 170.78 170.53 170.68C170.66 170.55 170.8 170.42 170.93 170.29C171.06 170.16 171.18 170.02 171.31 169.89C171.7 169.47 172.07 169.05 172.44 168.63C172.48 168.56 172.51 168.51 172.55 168.48C172.91 168.04 173.25 167.61 173.58 167.17C174.06 166.51 174.52 165.83 174.96 165.13C175.64 164.01 176.27 162.85 176.81 161.65V161.62C177.07 161.05 177.3 160.47 177.52 159.89C177.54 159.84 177.55 159.79 177.57 159.76C177.8 159.16 178.01 158.53 178.19 157.9C178.4 157.19 178.58 156.46 178.74 155.73L179.92 155.53C179.161 159.389 177.66 163.063 175.5 166.35C175.05 167.05 174.59 167.71 174.09 168.34C178.31 177.74 182.4 186.8 182.24 186.87L170.09 172.6C168.559 173.944 166.901 175.136 165.14 176.16L165.19 176.17ZM155.76 119.55C156.486 119.699 157.212 119.858 157.918 120.066L156.79 112.94C160.3 115.19 163.98 117.28 167.54 119.19L163.133 122.002C163.855 122.346 164.561 122.723 165.25 123.13C173.69 117.73 182.5 112.2 182.69 112.47L170.04 126.58C172.162 128.445 174.019 130.592 175.56 132.96C176.85 134.95 177.92 137.09 178.73 139.37C179.02 140.18 179.28 141 179.51 141.83C179.69 142.56 179.85 143.29 179.98 144.02C193.99 146.26 210.23 148.95 213.66 149.61C214.09 149.7 214.32 149.77 214.32 149.77L150.03 149.79H150.01V149.77C150.33 149.39 154.18 145.42 156.67 142.89C157.67 141.87 158.47 141.08 158.71 140.85C158.76 140.85 158.84 140.87 158.91 140.87C160.21 141 163.98 141.53 168.98 142.31C171.92 142.76 175.28 143.28 178.81 143.83C178.75 143.45 178.65 143.08 178.56 142.71C178.48 142.35 178.38 142 178.28 141.64C177.53 138.99 176.42 136.48 175.01 134.18C174.58 133.49 174.12 132.8 173.62 132.14C173.29 131.68 172.95 131.23 172.58 130.81C172.54 130.737 172.489 130.669 172.43 130.61C172.06 130.16 171.67 129.72 171.27 129.32L170.82 128.84C170.68 128.7 170.54 128.57 170.39 128.44C170.33 128.37 170.27 128.31 170.21 128.26C170.04 128.11 169.87 127.94 169.7 127.78C169.57 127.67 169.43 127.56 169.3 127.44C169.22 127.37 169.14 127.31 169.07 127.23L168.84 127.03C168.766 126.975 168.696 126.915 168.63 126.85C168.28 126.57 167.94 126.3 167.59 126.04L167.46 125.94C167.14 125.7 166.82 125.47 166.49 125.24C166.47 125.24 166.45 125.22 166.43 125.21C165.7 124.71 164.96 124.26 164.19 123.82C163.47 123.43 162.74 123.06 162 122.73C160.75 122.17 159.46 121.68 158.12 121.29C157.4 121.08 156.67 120.9 155.93 120.74C155.86 120.36 155.81 119.96 155.74 119.56L155.76 119.55ZM120.92 143.92L120.93 143.872L120.94 143.87L120.92 143.92ZM120.93 143.872C120.543 143.941 120.157 143.981 119.77 144.05C119.91 143.32 120.06 142.59 120.24 141.9C121.09 138.63 122.46 135.57 124.27 132.83C124.72 132.13 125.19 131.49 125.69 130.84C121.57 121.71 117.44 112.53 117.59 112.48L129.64 126.64C131.15 125.29 132.79 124.11 134.55 123.09C135.24 122.69 135.93 122.32 136.66 121.96C138.41 121.13 140.24 120.45 142.14 119.95C142.85 119.77 143.58 119.61 144.32 119.48C146.81 103.78 149.86 85.41 150.01 85.44V149.74C149.33 148.89 143.5 142.9 141.27 140.84C141.22 140.84 141.17 140.84 141.12 140.86C141.13 140.68 141.16 140.45 141.19 140.18C141.3 139.25 141.51 137.78 141.78 135.9C141.84 135.51 141.89 135.12 141.96 134.72C142.24 132.86 142.56 130.7 142.93 128.34C143.3 125.96 143.71 123.35 144.13 120.65C143.39 120.81 142.66 120.97 141.94 121.17C140.51 121.58 139.14 122.08 137.81 122.68C137.06 123.02 136.33 123.38 135.63 123.78H135.62C135.22 124.01 134.82 124.24 134.43 124.48L134.36 124.53C134 124.76 133.65 124.99 133.3 125.23C133.25 125.26 133.2 125.3 133.14 125.33C132.82 125.55 132.51 125.78 132.2 126.01C132.13 126.07 132.06 126.12 131.99 126.17C131.62 126.45 131.26 126.74 130.91 127.03C130.76 127.16 130.61 127.29 130.47 127.42C130.44 127.43 130.4 127.47 130.37 127.5C129.96 127.87 129.56 128.24 129.16 128.63C129.03 128.74 128.91 128.87 128.79 129C128.65 129.14 128.52 129.26 128.39 129.41C128.27 129.54 128.15 129.65 128.04 129.78C127.72 130.14 127.4 130.51 127.1 130.87C127.08 130.89 127.08 130.9 127.06 130.92C126.77 131.28 126.47 131.65 126.2 132.04C125.7 132.69 125.23 133.37 124.8 134.08C124.46 134.61 124.15 135.16 123.85 135.73C123.8 135.81 123.75 135.91 123.7 135.99C123.4 136.58 123.12 137.16 122.85 137.74V137.79C122.58 138.41 122.33 139.04 122.1 139.67C122.09 139.71 122.07 139.74 122.07 139.74C121.84 140.39 121.62 141.07 121.44 141.73V141.75C121.243 142.451 121.073 143.159 120.93 143.872ZM205.46 153.48C211.06 164.15 213.94 176.44 213.94 190.16C213.94 239.76 179.38 269.39 145.97 269.39C133.54 269.39 121.8 264.4 114.04 261.08C114.04 261.08 113.36 260.8 112.71 260.51C110.77 261.23 84.63 270.6 84.63 270.6V180.37L87.83 180.73C93.98 181.42 104.49 186.82 108.23 195.18C113.07 205.99 124.39 231.28 144.41 231.28C159.04 231.28 160.62 217.11 160.62 211C160.62 206.15 158.78 201.13 155.25 196.09C155.58 194.1 156.03 191.29 156.51 188.33C156.57 187.99 156.61 187.65 156.67 187.31C162.7 193.5 166.78 200.75 166.78 209.89C166.78 226.31 158.49 237.85 145.97 237.85C124.68 237.85 113.46 221.06 103.56 201.27C101.06 196.26 96.52 191.41 91.18 190.79V261.13L113.48 253.07C118.48 254.62 126.56 262.77 147.22 262.77C179.45 262.77 207.31 232.4 207.31 189.54C207.31 175.27 204.25 163.82 199.15 154.56L199.41 154.51C201.56 154.15 203.58 153.79 205.46 153.47V153.48ZM178.96 125.52C187.77 131.03 194.99 137.7 200.51 145.42C197.69 144.92 194.8 144.44 191.95 143.95C191.87 143.93 191.77 143.92 191.67 143.9C187.2 138.83 182.01 134.66 176.4 131.16C176.46 131.03 176.5 130.91 176.56 130.8C177.09 129.64 177.45 128.84 177.45 128.84C178 127.66 178.5 126.56 178.96 125.52ZM176.1 45.49C178.53 44.6 200.56 36.44 200.56 36.44V118.22L197.4 117.93C192.64 117.46 188.36 115.34 184.57 112.45L186.35 108.55L182.38 110.83C175.2 104.39 170.07 94.96 167.88 89.15C165.58 83.03 160.08 72.75 149.11 72.75C139.05 72.75 137.97 83.52 137.97 88.15C137.97 93.82 140.67 98.84 144.81 103.31C144.53 105.11 144.12 107.6 143.7 110.29C143.66 110.47 143.63 110.66 143.6 110.84C136.29 104.02 131.74 96.25 131.74 87.52C131.74 75.01 137.68 66.02 150.2 66.02C166.48 66.02 172.58 84.71 182.28 101.29C184.55 105.19 189.47 108.48 193.92 109.58V45.61C193.92 45.61 179.08 51.71 175.02 53.09C168.14 47.62 155.36 40.62 144.88 40.62C119.37 40.62 90.58 67.49 90.58 103.47C90.58 122.14 95.05 135.06 102.07 144.86L101.24 145.01C99.06 145.36 96.98 145.74 95.04 146.06C87.55 134.74 84.01 121.31 84.01 105.04C84.01 56.98 120.05 34.6 144.41 34.6C157.23 34.6 168.84 40.06 176.1 45.5V45.49Z" fill="#005C5C"/>
<path d="M111.86 156.26C106.76 155.43 102.48 154.74 102.48 154.74C102.26 154.71 102.04 154.68 101.82 154.63C85.22 151.84 75.38 149.64 75.38 149.64C75.38 149.64 82.52 148.23 95.02 146.08C96.96 145.76 99.03 145.39 101.22 145.03L102.05 144.88C95.03 135.08 90.56 122.16 90.56 103.49C90.56 67.51 119.36 40.64 144.86 40.64C155.35 40.64 168.13 47.64 175.01 53.11C179.07 51.74 193.91 45.63 193.91 45.63V109.59C189.47 108.49 184.54 105.2 182.27 101.3C172.57 84.72 166.47 66.03 150.19 66.03C137.67 66.03 131.73 75.01 131.73 87.53C131.73 96.26 136.28 104.03 143.59 110.85C143.62 110.67 143.65 110.48 143.69 110.3C144.11 107.61 144.52 105.12 144.8 103.32C145.08 101.59 145.25 100.49 145.25 100.49C147.91 84.41 149.88 75.88 149.88 75.88C149.88 75.88 152.13 84.3 154.79 100.48L156.78 112.96C157.17 115.45 157.57 117.95 157.91 120.1C157.19 119.89 156.47 119.73 155.73 119.58C153.25 103.85 150.2 85.41 149.99 85.49C149.84 85.46 146.79 103.84 144.3 119.53C143.56 119.66 142.83 119.82 142.12 120C142.29 118.97 142.47 117.83 142.66 116.65C133.56 109.76 127.13 101.29 127.13 87.66C127.13 71.24 137.12 61.31 148.14 61.31C174.66 61.31 177.88 94.11 189.34 102.4V52.26C185.01 53.99 175.48 58.2 175.48 58.2C173.02 58.2 169.76 55.09 164.88 51.69C159.97 48.56 153.44 45.45 144.88 45.45C121.43 45.45 94.87 68.97 94.87 103.8C94.87 121.77 99.6 134.47 106.69 144.12C110.35 143.54 115.71 142.66 120.21 141.95C120.03 142.64 119.88 143.37 119.74 144.1C104.35 146.57 86.47 149.57 86.55 149.78C86.53 149.92 104.41 152.95 119.79 155.43C119.93 156.17 120.1 156.9 120.3 157.6C120.22 157.6 120.13 157.59 120.05 157.57C120.16 157.65 120.27 157.73 120.37 157.83C120.94 159.88 121.74 161.86 122.71 163.72C119.26 161.44 115.94 159.04 112.83 156.4C112.51 156.35 112.19 156.31 111.87 156.24L111.86 156.26ZM134.79 176.26C135.49 176.66 136.22 177.05 136.95 177.39C136.47 177.7 136.01 177.97 135.6 178.23C134.45 178.96 133.65 179.48 133.65 179.48C118.34 189.21 112.75 191.69 112.75 191.69C112.75 191.69 116.61 183.97 122.64 170.61L123.38 168.99C123.38 168.99 123.8 168.02 124.42 166.64C124.87 167.32 125.35 167.97 125.85 168.6C121.72 177.77 117.64 186.83 117.79 186.9C117.87 187.03 126.29 181.67 134.79 176.26ZM141.3 160.14L141.27 160.16C141.29 160.14 141.29 160.13 141.29 160.11V160.14H141.3ZM123 130.08C116.69 116.04 114.62 108.37 114.62 108.37C114.62 108.37 128.66 117.05 136.65 122C135.92 122.35 135.23 122.73 134.54 123.13C126.12 117.85 117.57 112.52 117.57 112.52C117.43 112.57 121.56 121.75 125.67 130.88C125.16 131.52 124.69 132.17 124.25 132.87C123.52 131.25 123 130.07 123 130.07V130.08ZM182.235 186.857C182.237 186.459 178.231 177.554 174.09 168.34C174.58 167.71 175.05 167.05 175.5 166.35C175.95 167.37 176.25 168.03 176.25 168.03C177.02 169.73 186.12 191.83 186.12 191.83C186.12 191.83 171.02 182.34 162.97 177.29C163.71 176.94 164.44 176.56 165.14 176.16C173.653 181.5 181.992 186.705 182.235 186.857ZM199.4 154.52L199.14 154.57C204.24 163.83 207.3 175.28 207.3 189.55C207.3 232.42 179.44 262.78 147.21 262.78C126.55 262.78 118.47 254.64 113.47 253.08L91.17 261.14V190.8C96.51 191.42 101.05 196.27 103.55 201.28C113.45 221.07 124.67 237.86 145.96 237.86C158.48 237.86 166.77 226.32 166.77 209.9C166.77 200.76 162.69 193.51 156.66 187.32C156.6 187.66 156.56 188 156.5 188.34C156.02 191.31 155.57 194.11 155.24 196.1L154.76 199.09C152.08 215.19 149.98 225.13 149.98 225.13C149.98 225.13 147.9 215.18 145.24 199.07L142.72 183.38C142.49 181.94 142.26 180.53 142.06 179.25C142.77 179.45 143.5 179.61 144.24 179.74C146.73 195.5 149.82 214.13 149.98 214.1C150.14 214.13 153.26 195.45 155.79 179.69C156.53 179.52 157.26 179.36 157.98 179.17C157.82 180.12 157.66 181.18 157.49 182.26C165.62 189.06 171.2 197.38 171.2 210.08C171.2 231.62 159.37 242.66 146.72 242.66C110 242.66 101.84 202.37 95.73 198.55V254.66C100.88 253.54 112.45 247.47 112.45 247.47C117.55 247.47 127.33 258.53 145.69 258.53C173.44 258.53 202.8 231.32 202.8 190.53C202.8 175.39 199.27 164.18 193.74 155.42C189.89 156.03 184.12 156.96 179.41 157.7C179.59 156.99 179.77 156.26 179.92 155.53C195.68 153.04 214.34 149.93 214.31 149.78C214.31 149.77 214.07 149.72 213.65 149.62C210.22 148.95 193.98 146.27 179.97 144.03C179.84 143.3 179.68 142.57 179.5 141.84C180.4 142 181.37 142.16 182.33 142.32C181.158 141.299 179.954 140.315 178.72 139.37C177.643 136.347 176.098 133.513 174.14 130.97C178.27 122 182.7 112.82 182.68 112.48C182.49 112.21 173.68 117.75 165.24 123.14C164.55 122.74 163.85 122.37 163.12 122.01L167.54 119.19L186.34 108.55L184.56 112.45C184.56 112.45 183.5 115.53 178.95 125.52C178.49 126.56 177.99 127.66 177.44 128.84C177.44 128.84 177.08 129.63 176.55 130.8C176.49 130.92 176.45 131.03 176.39 131.16C182 134.65 187.19 138.83 191.66 143.9L191.94 143.95C194.79 144.43 197.68 144.92 200.5 145.42C208.54 146.798 216.577 148.195 224.61 149.61C224.61 149.61 218.01 151.23 205.46 153.47C203.58 153.8 201.55 154.15 199.41 154.51L199.4 154.52Z" fill="#0C2C56"/>
<path d="M129.63 126.66L117.57 112.51C117.57 112.51 126.12 117.84 134.54 123.12C132.79 124.14 131.14 125.33 129.63 126.67V126.66ZM170.02 126.6L182.67 112.49C182.7 112.83 178.27 122.01 174.14 130.98C172.92 129.37 171.54 127.92 170.03 126.59L170.02 126.6ZM117.79 186.9C117.64 186.83 121.72 177.77 125.85 168.6C127.103 170.179 128.506 171.632 130.04 172.94L117.79 186.9ZM170.09 172.59L182.24 186.86C182.24 186.86 173.78 181.59 165.14 176.16C166.91 175.14 168.57 173.94 170.09 172.6V172.59ZM150 149.78H149.998L149.99 149.79V214.09C149.84 214.12 146.74 195.49 144.25 179.73C144.18 179.34 144.13 178.95 144.06 178.56C143.64 175.95 143.25 173.44 142.89 171.12C142.67 169.68 142.47 168.32 142.27 167.06C142.23 166.77 142.18 166.49 142.14 166.22C142.05 165.62 141.97 165.04 141.89 164.49C141.83 164.07 141.76 163.64 141.71 163.24C141.53 162.01 141.38 160.97 141.27 160.13V160.11C141.19 159.5 141.13 159 141.1 158.67C141.15 158.69 141.2 158.69 141.25 158.69C141.81 158.17 142.59 157.42 143.46 156.55C144.28 155.74 145.17 154.83 146.03 153.96C146.51 153.47 146.96 153 147.4 152.55C147.56 152.38 147.72 152.22 147.87 152.06C148.95 150.95 149.77 150.07 149.99 149.78H86.56C86.48 149.58 104.36 146.58 119.75 144.1C120.14 144.03 120.53 143.99 120.92 143.92C124.46 143.36 127.85 142.82 130.81 142.37C135.94 141.58 139.83 141.01 141.11 140.9C141.16 140.88 141.21 140.88 141.26 140.88C143.479 142.92 149.265 148.863 149.99 149.767V85.49C150.2 85.41 153.25 103.86 155.73 119.58C155.8 119.98 155.85 120.37 155.92 120.76C156.33 123.43 156.73 125.99 157.1 128.35C157.32 129.8 157.52 131.18 157.72 132.46C157.77 132.76 157.81 133.07 157.86 133.38C157.93 133.88 158.01 134.37 158.08 134.84C158.15 135.34 158.22 135.83 158.28 136.28C158.46 137.52 158.62 138.56 158.72 139.37C158.8 140.04 158.87 140.56 158.9 140.88C158.83 140.88 158.76 140.86 158.7 140.86L158.69 140.87C158.45 141.09 157.65 141.89 156.65 142.91C154.19 145.419 150.402 149.306 149.999 149.779L150 149.78ZM150.01 149.79L214.3 149.77C214.33 149.92 195.67 153.03 179.91 155.52L178.73 155.72C175.27 156.26 171.98 156.78 169.09 157.23C164.1 157.99 160.32 158.54 158.97 158.67C158.89 158.67 158.81 158.69 158.74 158.69C156.58 156.7 151.05 151.02 150.09 149.9L150.02 149.8L150.01 149.79ZM171.2 210.05C171.2 197.35 165.62 189.03 157.49 182.23C157.66 181.15 157.82 180.1 157.98 179.14C159.7 178.67 161.37 178.04 162.96 177.28C171.02 182.33 186.12 191.82 186.12 191.82C186.12 191.82 177.02 169.72 176.25 168.02C176.25 168.02 175.95 167.36 175.5 166.34C177.243 163.676 178.562 160.758 179.41 157.69C184.12 156.95 189.88 156.03 193.74 155.41C199.27 164.17 202.8 175.38 202.8 190.52C202.8 231.31 173.44 258.52 145.69 258.52C127.33 258.52 117.55 247.46 112.45 247.46C112.45 247.46 100.88 253.53 95.73 254.65V198.54C101.84 202.36 110 242.65 146.72 242.65C159.37 242.65 171.2 231.61 171.2 210.07V210.05ZM120.38 157.83C120.27 157.73 120.16 157.65 120.06 157.57C120.14 157.58 120.23 157.6 120.31 157.6C120.33 157.68 120.36 157.75 120.38 157.83ZM122.99 130.08C122.99 130.08 123.51 131.26 124.24 132.88C122.41 135.663 121.049 138.727 120.21 141.95C115.71 142.66 110.35 143.54 106.69 144.12C99.6 134.47 94.87 121.77 94.87 103.8C94.87 68.96 121.42 45.45 144.88 45.45C153.44 45.45 159.97 48.55 164.88 51.68C169.77 55.08 173.03 58.19 175.48 58.19C175.48 58.19 185.01 53.98 189.34 52.25V102.38C177.88 94.09 174.65 61.3 148.14 61.3C137.12 61.3 127.13 71.22 127.13 87.64C127.13 101.28 133.56 109.75 142.66 116.63C142.47 117.81 142.29 118.94 142.12 119.98C140.22 120.48 138.39 121.16 136.65 121.99C128.66 117.04 114.62 108.36 114.62 108.36C114.62 108.36 116.69 116.03 123 130.07L122.99 130.08ZM179.51 141.85C179.28 141.02 179.02 140.2 178.73 139.39C179.96 140.33 181.17 141.32 182.34 142.34C181.37 142.17 180.41 142.01 179.5 141.85H179.51Z" fill="#C4CED4"/>
<path d="M169.43 169.97C169.43 169.97 169.65 170.17 169.8 170.33C169.99 170.28 170.7 170.05 171.3 169.89C171.17 170.02 171.05 170.16 170.92 170.29C170.79 170.42 170.65 170.55 170.52 170.68C170.41 170.78 170.3 170.89 170.2 170.99L169.87 170.73L169.66 171.49C169.57 171.57 169.47 171.65 169.37 171.75C169.34 171.76 169.3 171.8 169.27 171.83C169.18 171.9 169.09 171.99 169 172.06C168.93 172.13 168.87 172.17 168.8 172.24C168.735 172.179 168.681 172.108 168.64 172.03C168.64 172.03 169.19 170.05 169.42 169.97H169.43ZM132.6 130.9C132.6 130.9 132.27 130.71 132.07 130.55C131.93 130.59 129.74 131.25 129.62 131.25C129.62 131.25 129.01 130.88 129.04 130.62C129.04 130.62 131.39 129.89 131.51 129.91L132.01 130.22L132.52 128.34L132.56 128.16L132.72 128.26C132.72 128.26 133.3 128.6 133.37 128.76C133.37 128.76 132.81 130.83 132.59 130.91L132.6 130.9ZM135.03 132.23C135.03 132.23 134.66 132.05 134.45 131.89C134.34 131.93 132.17 132.73 132.06 132.73C132.06 132.73 131.38 132.39 131.4 132.13C131.4 132.13 133.68 131.28 133.8 131.29L134.35 131.57L134.67 129.68L134.7 129.48L134.88 129.58C134.88 129.58 135.51 129.89 135.59 130.04C135.59 130.04 135.24 132.12 135.03 132.24V132.23ZM137.79 133.48C137.79 133.48 137.39 133.31 137.17 133.17C137.12 133.19 134.95 134.11 134.84 134.11C134.84 134.11 134.11 133.81 134.11 133.54C134.11 133.54 136.34 132.6 136.45 132.6L137.05 132.84L137.21 130.95V130.75L137.39 130.83C137.39 130.83 138.07 131.1 138.16 131.23C138.16 131.23 137.99 133.34 137.79 133.47V133.48ZM140.57 132.11L140.561 132.1L140.56 132.09L140.57 132.11ZM140.561 132.1C140.578 132.256 140.783 134.206 140.61 134.34C140.61 134.34 140.15 134.21 139.9 134.11C139.86 134.13 137.89 135.26 137.78 135.28C137.78 135.28 137.24 135.14 137.03 134.93C137 134.9 136.95 134.85 136.95 134.8C136.95 134.8 138.98 133.63 139.08 133.62L139.74 133.8L139.52 131.94L139.5 131.71L139.71 131.78C139.71 131.78 140.432 131.97 140.561 132.1ZM140.46 135.93C140.42 135.9 140.38 135.85 140.38 135.82C140.38 135.82 141.39 135.12 141.96 134.75C141.89 135.16 141.84 135.54 141.78 135.93C141.53 136.11 141.31 136.24 141.28 136.24C141.28 136.24 140.7 136.13 140.47 135.93H140.46ZM159.18 134.34C159.12 134.67 158.91 136.07 158.81 136.17C158.81 136.17 158.54 136.24 158.27 136.27C158.22 135.82 158.14 135.33 158.07 134.83C158.12 134.57 158.2 134.33 158.2 134.33L158.82 134.17L157.86 133.37C157.81 133.07 157.77 132.76 157.72 132.45C157.89 132.42 158.06 132.39 158.12 132.4C158.12 132.4 159.46 133.51 159.83 133.99L159.9 134.04L159.88 134.06C159.92 134.11 159.94 134.16 159.94 134.19C159.94 134.19 159.46 134.32 159.2 134.35L159.18 134.34ZM162.95 132.92H162.93V132.94C162.97 132.99 163 133.04 163 133.07C163 133.07 162.64 133.2 162.39 133.28C162.35 133.53 162.1 135.02 162.02 135.12C162.02 135.12 161.28 135.41 161.09 135.25C161.09 135.25 161.37 133.47 161.46 133.34L161.94 133.16L159.89 131.81L160.16 131.71C160.16 131.71 160.85 131.44 160.98 131.45C160.98 131.45 162.48 132.44 162.89 132.88L162.95 132.91V132.92ZM165.22 131.83C165.26 131.88 165.29 131.93 165.29 131.96C165.29 131.96 164.97 132.11 164.74 132.19C164.75 132.53 164.79 133.91 164.72 134.04C164.72 134.04 164.05 134.38 163.84 134.25C163.84 134.25 163.79 132.48 163.86 132.35L164.29 132.12L162.16 130.89L162.39 130.78C162.39 130.78 163.02 130.47 163.16 130.47C163.16 130.47 164.73 131.38 165.17 131.8L165.21 131.82V131.84L165.22 131.83ZM167.42 130.77C167.42 130.77 167.14 130.93 166.92 131.03C166.95 131.35 167.1 132.73 167.04 132.86C167.04 132.86 166.41 133.22 166.2 133.12C166.2 133.12 166 131.37 166.07 131.23L166.47 131L164.28 129.9L164.51 129.75C164.51 129.75 165.08 129.43 165.22 129.41C165.22 129.41 166.91 130.25 167.33 130.64H167.34V130.66C167.39 130.69 167.43 130.77 167.43 130.77H167.42ZM166.53 128.58C166.53 128.58 166.99 128.19 167.14 128.16C167.14 128.16 168.88 128.82 169.32 129.16C169.37 129.19 169.41 129.26 169.41 129.26C169.41 129.26 169.16 129.49 168.97 129.62C169.08 129.95 169.55 131.23 169.52 131.37C169.52 131.37 169.02 131.79 168.79 131.72C168.79 131.72 168.17 130.07 168.2 129.91L168.57 129.6L166.34 128.74L166.52 128.58H166.53ZM170.65 130.19C170.65 130.19 170.04 128.54 170.07 128.36L170.2 128.26C170.26 128.31 170.33 128.37 170.38 128.44C170.53 128.57 170.67 128.69 170.81 128.84L171.26 129.33C171.34 129.58 171.38 129.77 171.38 129.82C171.38 129.82 170.88 130.26 170.65 130.19ZM168.19 127.21L168.37 127.05C168.37 127.05 168.48 126.95 168.6 126.85C168.67 126.92 168.74 126.98 168.81 127.03C168.89 127.1 168.97 127.16 169.05 127.23C169.13 127.31 169.2 127.37 169.28 127.44L169.68 127.78L168.2 127.21H168.19ZM167.33 168.6C167.33 168.6 167.66 168.8 167.86 168.96C168.03 168.91 170.21 168.25 170.32 168.26C170.32 168.26 170.94 168.63 170.91 168.89C170.91 168.89 168.54 169.62 168.43 169.59L167.94 169.3L167.38 171.36L167.22 171.26C167.22 171.26 166.64 170.92 166.57 170.76C166.57 170.76 167.14 168.69 167.34 168.61L167.33 168.6ZM168.49 167.25C168.52 167.31 168.54 167.34 168.54 167.39C168.54 167.39 166.25 168.23 166.14 168.23L165.58 167.96L165.24 170.03L165.06 169.95C165.06 169.95 164.42 169.64 164.34 169.48C164.34 169.48 164.69 167.4 164.9 167.3C164.9 167.3 165.27 167.47 165.48 167.62C165.6 167.58 167.77 166.79 167.87 166.79C167.87 166.79 168.33 167.02 168.48 167.24H168.5L168.49 167.25ZM165.11 165.4C165.11 165.4 165.83 165.71 165.83 165.97C165.83 165.97 163.61 166.93 163.51 166.93L162.91 166.69L162.74 168.78L162.56 168.7C162.56 168.7 161.88 168.43 161.78 168.28C161.78 168.28 161.95 166.19 162.15 166.06C162.15 166.06 162.55 166.23 162.78 166.37C162.83 166.33 165 165.41 165.1 165.41L165.11 165.4ZM162.98 164.71L162.977 164.702L162.98 164.7V164.71ZM162.977 164.702C162.895 164.749 160.968 165.86 160.86 165.88L160.2 165.69L160.44 167.78L160.23 167.73C160.23 167.73 159.47 167.52 159.37 167.41C159.37 167.41 159.12 165.31 159.3 165.16C159.3 165.16 159.78 165.29 160.02 165.39C160.07 165.36 162.03 164.23 162.13 164.21C162.13 164.21 162.68 164.35 162.89 164.58H162.91C162.943 164.605 162.969 164.677 162.977 164.702ZM159.48 163.59C159.53 163.62 159.56 163.65 159.57 163.7L158.15 164.67C158.21 164.25 158.27 163.86 158.32 163.47C158.52 163.36 158.65 163.28 158.68 163.26C158.68 163.26 159.26 163.37 159.49 163.57V163.59H159.48ZM140.74 165.17C140.79 164.85 141.01 163.44 141.11 163.34C141.11 163.34 141.44 163.26 141.72 163.23C141.78 163.64 141.84 164.06 141.91 164.48C141.85 164.83 141.73 165.19 141.73 165.19L141.12 165.35L142.16 166.21C142.2 166.48 142.25 166.76 142.29 167.05C142.09 167.09 141.88 167.14 141.81 167.12C141.81 167.12 140.46 166.01 140.1 165.52L140.04 165.49L140.06 165.47C140.027 165.434 140.006 165.388 140 165.34C140 165.34 140.48 165.21 140.74 165.18V165.17ZM137 166.58H137.02C136.98 166.53 136.95 166.48 136.95 166.45C136.95 166.45 137.31 166.31 137.57 166.24C137.61 165.97 137.85 164.5 137.94 164.4C137.94 164.4 138.67 164.11 138.87 164.27C138.87 164.27 138.58 166.07 138.49 166.17L138 166.35L140.05 167.71L139.79 167.81C139.79 167.81 139.1 168.09 138.97 168.07C138.97 168.07 137.46 167.08 137.05 166.63L137 166.6V166.58ZM134.66 167.56L134.663 167.568L134.66 167.57V167.56ZM134.663 167.568C134.698 167.552 134.994 167.414 135.21 167.32C135.2 167.03 135.16 165.62 135.23 165.49C135.23 165.49 135.9 165.15 136.11 165.28C136.11 165.28 136.15 167.04 136.08 167.17L135.65 167.4L137.79 168.63L137.55 168.74C137.55 168.74 136.92 169.05 136.78 169.03C136.78 169.03 135.23 168.14 134.79 167.74L134.72 167.71L134.74 167.69C134.7 167.65 134.673 167.59 134.663 167.568ZM132.88 166.67C132.88 166.67 133.51 166.3 133.72 166.41C133.72 166.41 133.92 168.16 133.85 168.3L133.45 168.53L135.64 169.63L135.41 169.76C135.41 169.76 134.84 170.1 134.69 170.12C134.69 170.12 133.03 169.27 132.6 168.87H132.59C132.54 168.83 132.51 168.79 132.51 168.76C132.51 168.76 132.79 168.6 133 168.5C132.98 168.19 132.82 166.8 132.89 166.67H132.88ZM130.41 168.14C130.41 168.14 130.92 167.72 131.14 167.79C131.14 167.79 131.75 169.44 131.72 169.6L131.36 169.91L133.59 170.77L133.41 170.92C133.41 170.92 132.95 171.33 132.81 171.36C132.81 171.36 131.07 170.7 130.62 170.36C130.57 170.32 130.53 170.28 130.53 170.25C130.53 170.25 130.79 170.04 130.97 169.91C130.86 169.57 130.39 168.3 130.42 168.16L130.41 168.14ZM129.29 169.33L129.287 169.329L129.28 169.31L129.29 169.33ZM129.287 169.329C129.356 169.516 129.897 170.99 129.86 171.14L129.79 171.21C129.73 171.16 129.69 171.12 129.62 171.05C129.45 170.89 129.27 170.73 129.09 170.55C128.94 170.41 128.8 170.26 128.66 170.1C128.616 169.97 128.586 169.836 128.57 169.7C128.57 169.7 129.066 169.284 129.287 169.329ZM131.75 172.32L131.56 172.48C131.56 172.48 131.49 172.53 131.4 172.61C131.32 172.54 131.24 172.5 131.17 172.43L131.1 172.38C130.99 172.29 130.89 172.19 130.78 172.09C130.68 172.02 130.56 171.92 130.46 171.82L131.76 172.32H131.75ZM130.51 129.57C130.51 129.57 130.29 129.37 130.14 129.21C129.9 129.28 128.58 129.68 128.02 129.81C128.14 129.68 128.26 129.57 128.37 129.44C128.5 129.29 128.63 129.16 128.77 129.03C128.9 128.9 129.02 128.77 129.14 128.66C129.45 128.56 129.72 128.53 129.72 128.53L130.06 128.8L130.46 127.44C130.6 127.31 130.75 127.18 130.9 127.05C131.03 127.18 131.27 127.39 131.3 127.5C131.3 127.5 130.75 129.48 130.52 129.56L130.51 129.57Z" fill="#D50032"/>
<path d="M130.07 128.8L129.73 128.52C129.69 128.5 129.46 128.55 129.15 128.65C129.58 128.23 130.02 127.82 130.47 127.43L130.07 128.79V128.8ZM121 155.66C124.58 156.24 127.99 156.77 130.97 157.24C136.03 158.02 139.86 158.59 141.13 158.7C141.16 159.02 141.22 159.52 141.3 160.14C141.3 160.16 141.28 160.19 141.28 160.19L141.3 160.17C141.4 160.99 141.55 162.03 141.73 163.26C141.45 163.3 141.12 163.38 141.12 163.38C141.02 163.48 140.8 164.89 140.75 165.21C140.49 165.24 140.01 165.37 140.01 165.37C140.01 165.4 140.07 165.5 140.07 165.5L140.05 165.52L140.11 165.55C140.47 166.03 141.82 167.15 141.82 167.15C141.9 167.16 142.1 167.11 142.3 167.08C142.49 168.34 142.7 169.7 142.92 171.14C143.27 173.45 143.67 175.96 144.08 178.57C143.34 178.42 142.61 178.24 141.89 178.03C140.58 177.68 139.32 177.21 138.1 176.69L138.08 176.67C137.33 176.33 136.6 175.99 135.88 175.6C135.87 175.59 135.85 175.59 135.85 175.59C135.47 175.38 135.1 175.15 134.73 174.94C134.71 174.94 134.7 174.92 134.68 174.92C134.33 174.7 133.98 174.48 133.64 174.24L133.54 174.19C133.22 173.97 132.91 173.76 132.6 173.53C132.542 173.5 132.489 173.463 132.44 173.42C132.08 173.16 131.73 172.9 131.4 172.63C131.49 172.55 131.56 172.5 131.56 172.5L131.76 172.34L130.46 171.84C130.23 171.64 130.01 171.45 129.8 171.24L129.87 171.17C129.91 171.01 129.28 169.34 129.28 169.34C129.06 169.29 128.56 169.71 128.56 169.71C128.55 169.75 128.59 169.91 128.65 170.11C128.26 169.7 127.88 169.28 127.51 168.86C127.48 168.81 127.45 168.78 127.41 168.71C127.05 168.3 126.7 167.87 126.37 167.43C125.87 166.79 125.4 166.11 124.96 165.41C123.455 163.058 122.297 160.502 121.52 157.82C121.32 157.1 121.13 156.38 120.98 155.63L121 155.66ZM131.74 169.61C131.77 169.45 131.16 167.8 131.16 167.8C130.94 167.74 130.43 168.16 130.43 168.16C130.41 168.31 130.87 169.57 130.98 169.91C130.8 170.04 130.54 170.25 130.54 170.25C130.55 170.28 130.63 170.36 130.63 170.36C131.08 170.71 132.81 171.37 132.81 171.37C132.96 171.33 133.41 170.93 133.41 170.93L133.6 170.79L131.37 169.93L131.73 169.62L131.74 169.61ZM137.56 166.27C137.3 166.34 136.94 166.48 136.94 166.48C136.94 166.51 137.01 166.61 137.01 166.61H136.99L137.04 166.64C137.45 167.09 138.96 168.08 138.96 168.08C139.09 168.09 139.78 167.82 139.78 167.82L140.04 167.72L137.99 166.36L138.47 166.18C138.56 166.08 138.85 164.28 138.85 164.28C138.65 164.12 137.92 164.41 137.92 164.41C137.83 164.51 137.59 165.99 137.55 166.26L137.56 166.27ZM135.23 165.49C135.16 165.62 135.21 167.03 135.21 167.32L134.66 167.56C134.66 167.59 134.74 167.69 134.74 167.69L134.72 167.71L134.79 167.74C135.23 168.14 136.78 169.03 136.78 169.03C136.92 169.05 137.55 168.74 137.55 168.74L137.79 168.63L135.65 167.4L136.08 167.17C136.16 167.04 136.11 165.28 136.11 165.28C135.89 165.15 135.23 165.49 135.23 165.49ZM133.74 166.41C133.53 166.3 132.9 166.67 132.9 166.67C132.83 166.8 132.98 168.19 133.01 168.5C132.8 168.6 132.52 168.76 132.52 168.76C132.52 168.8 132.55 168.83 132.6 168.88L132.58 168.89H132.61C133.04 169.28 134.7 170.12 134.7 170.12C134.85 170.11 135.42 169.77 135.42 169.77L135.65 169.64L133.46 168.54L133.86 168.31C133.93 168.16 133.73 166.41 133.73 166.41H133.74ZM141.12 165.36L141.73 165.2C141.77 165.15 141.84 164.85 141.91 164.49L142.16 166.22L141.12 165.36ZM158.98 158.67L158.978 158.686L158.93 158.69L158.98 158.67ZM158.978 158.686C160.377 158.557 164.127 158.001 169.05 157.25C171.94 156.79 175.22 156.27 178.69 155.74C178.53 156.47 178.35 157.2 178.14 157.91C177.96 158.54 177.75 159.17 177.52 159.77C177.5 159.8 177.49 159.85 177.47 159.9C177.25 160.48 177.02 161.07 176.76 161.65V161.67C176.22 162.87 175.6 164.03 174.91 165.15C174.48 165.85 174.02 166.53 173.53 167.19C173.2 167.63 172.86 168.06 172.5 168.5C172.46 168.53 172.43 168.57 172.39 168.64C172.03 169.06 171.66 169.48 171.26 169.9C170.66 170.07 169.95 170.29 169.76 170.34C169.61 170.18 169.39 169.98 169.39 169.98C169.15 170.06 168.61 172.04 168.61 172.04C168.62 172.09 168.69 172.17 168.77 172.25C168.41 172.54 168.05 172.83 167.68 173.11C167.62 173.15 167.55 173.2 167.48 173.25C167.17 173.49 166.84 173.72 166.52 173.94L166.37 174.04C166.01 174.28 165.65 174.51 165.29 174.74C165.26 174.76 165.24 174.77 165.23 174.77C164.83 175.03 164.42 175.26 164.01 175.5C163.3 175.88 162.56 176.24 161.81 176.58C160.63 177.12 159.43 177.57 158.17 177.93C157.45 178.16 156.72 178.34 155.98 178.5C156.4 175.93 156.78 173.47 157.15 171.17C157.53 168.76 157.87 166.57 158.15 164.69C158.73 164.3 159.58 163.72 159.58 163.72C159.57 163.68 159.54 163.64 159.48 163.61V163.59C159.25 163.39 158.68 163.28 158.68 163.28C158.65 163.29 158.52 163.38 158.32 163.49C158.58 161.75 158.78 160.38 158.89 159.47C158.929 159.149 158.949 158.884 158.978 158.686ZM160.46 167.79L160.21 165.7L160.87 165.9C160.98 165.88 162.99 164.72 162.99 164.72C162.99 164.67 162.92 164.59 162.92 164.59H162.9C162.69 164.37 162.14 164.22 162.14 164.22C162.04 164.23 160.09 165.37 160.03 165.4C159.79 165.3 159.31 165.17 159.31 165.17C159.14 165.31 159.38 167.42 159.38 167.42C159.48 167.53 160.24 167.74 160.24 167.74L160.45 167.79H160.46ZM163.48 166.94C163.59 166.94 165.81 165.99 165.81 165.99C165.81 165.73 165.09 165.42 165.09 165.42C164.99 165.42 162.83 166.34 162.77 166.37C162.568 166.251 162.358 166.147 162.14 166.06C161.95 166.19 161.77 168.28 161.77 168.28C161.87 168.42 162.55 168.7 162.55 168.7L162.73 168.78L162.9 166.69L163.5 166.93L163.48 166.94ZM166.16 168.21C166.28 168.21 168.57 167.37 168.57 167.37C168.57 167.32 168.54 167.29 168.51 167.22H168.49C168.33 167 167.88 166.77 167.88 166.77C167.77 166.77 165.61 167.57 165.49 167.6C165.28 167.46 164.91 167.28 164.91 167.28C164.7 167.38 164.35 169.47 164.35 169.47C164.43 169.63 165.07 169.94 165.07 169.94L165.25 170.02L165.59 167.95L166.15 168.23L166.16 168.21ZM170.92 168.91C170.95 168.65 170.33 168.28 170.33 168.28C170.22 168.27 168.04 168.93 167.87 168.98C167.67 168.82 167.34 168.62 167.34 168.62C167.14 168.7 166.57 170.77 166.57 170.77C166.64 170.93 167.22 171.27 167.22 171.27L167.38 171.37L167.94 169.31L168.44 169.6C168.56 169.63 170.92 168.9 170.92 168.9V168.91ZM169.87 170.74L170.19 171C170.02 171.16 169.84 171.34 169.66 171.5L169.87 170.74ZM157.11 128.36C156.74 126 156.34 123.44 155.93 120.77C156.67 120.93 157.4 121.11 158.12 121.32C159.46 121.71 160.75 122.19 162 122.76C162.75 123.08 163.48 123.45 164.19 123.84C164.96 124.27 165.7 124.73 166.43 125.23C166.45 125.24 166.47 125.26 166.49 125.26C166.81 125.49 167.14 125.72 167.46 125.96L167.59 126.06C167.95 126.32 168.29 126.6 168.63 126.87C168.51 126.97 168.4 127.07 168.4 127.07L168.22 127.23L169.7 127.8L170.21 128.28L170.08 128.38C170.05 128.56 170.67 130.21 170.67 130.21C170.9 130.28 171.4 129.84 171.4 129.84C171.41 129.79 171.36 129.59 171.28 129.35C171.69 129.75 172.07 130.19 172.44 130.64C172.49 130.69 172.53 130.75 172.59 130.83C172.95 131.25 173.3 131.71 173.63 132.16C174.12 132.82 174.58 133.5 175.02 134.2C176.44 136.49 177.55 139 178.29 141.66C178.39 142.02 178.49 142.37 178.57 142.73C178.66 143.11 178.75 143.48 178.82 143.85C175.29 143.3 171.93 142.78 168.99 142.33C164 141.55 160.22 141.02 158.92 140.89C158.89 140.56 158.82 140.04 158.74 139.38C158.63 138.56 158.48 137.53 158.3 136.28C158.57 136.25 158.85 136.18 158.85 136.18C158.95 136.08 159.16 134.68 159.22 134.35C159.48 134.32 159.96 134.19 159.96 134.19C159.97 134.16 159.9 134.06 159.9 134.06L159.92 134.04L159.85 133.99C159.48 133.5 158.13 132.4 158.13 132.4C158.07 132.38 157.9 132.42 157.73 132.45C157.54 131.17 157.33 129.8 157.11 128.34V128.36ZM162.4 133.26C162.66 133.18 163.01 133.05 163.01 133.05C163.01 133.02 162.95 132.92 162.95 132.92V132.9L162.89 132.87C162.48 132.43 160.98 131.44 160.98 131.44C160.85 131.43 160.16 131.7 160.16 131.7L159.89 131.8L161.94 133.15L161.46 133.33C161.37 133.46 161.09 135.24 161.09 135.24C161.28 135.4 162.02 135.11 162.02 135.11C162.1 135.01 162.35 133.52 162.39 133.26H162.4ZM164.704 134.043C164.779 133.879 164.73 132.535 164.73 132.2C164.96 132.12 165.28 131.97 165.28 131.97C165.28 131.94 165.22 131.84 165.22 131.84V131.82L165.17 131.8C164.73 131.38 163.16 130.47 163.16 130.47C163.02 130.47 162.39 130.78 162.39 130.78L162.16 130.89L164.29 132.12L163.86 132.35C163.78 132.48 163.83 134.25 163.83 134.25C164.037 134.372 164.635 134.078 164.704 134.043ZM167.06 132.85C167.12 132.72 166.97 131.35 166.94 131.02C167.16 130.92 167.44 130.76 167.44 130.76C167.44 130.73 167.36 130.65 167.36 130.65V130.63H167.34C166.91 130.24 165.23 129.4 165.23 129.4C165.09 129.42 164.52 129.74 164.52 129.74L164.29 129.89L166.48 130.99L166.08 131.22C166.01 131.37 166.21 133.12 166.21 133.12C166.42 133.22 167.05 132.86 167.05 132.86L167.06 132.85ZM169.31 129.17C168.86 128.83 167.12 128.17 167.12 128.17C166.97 128.2 166.51 128.59 166.51 128.59L166.33 128.75L168.56 129.61L168.19 129.92C168.16 130.08 168.78 131.73 168.78 131.73C169.01 131.79 169.51 131.37 169.51 131.37C169.54 131.22 169.07 129.94 168.96 129.62C169.15 129.5 169.4 129.25 169.4 129.25L169.31 129.17ZM141.75 135.95C141.47 137.83 141.27 139.3 141.15 140.23C141.12 140.51 141.1 140.73 141.08 140.91C139.8 141.02 135.91 141.59 130.78 142.38C127.82 142.84 124.43 143.37 120.89 143.94C121.04 143.2 121.21 142.48 121.41 141.77V141.75C121.59 141.08 121.81 140.4 122.05 139.74C122.05 139.74 122.07 139.72 122.07 139.69C122.3 139.06 122.55 138.43 122.82 137.81V137.76C123.09 137.18 123.37 136.6 123.67 136.01C123.72 135.93 123.77 135.83 123.82 135.75C124.12 135.18 124.43 134.63 124.77 134.1C125.2 133.39 125.68 132.71 126.17 132.06C126.45 131.67 126.74 131.3 127.03 130.94C127.04 130.92 127.05 130.9 127.07 130.89C127.37 130.54 127.68 130.16 128.01 129.81C128.57 129.68 129.89 129.28 130.13 129.21C130.29 129.37 130.5 129.57 130.5 129.57C130.73 129.49 131.28 127.51 131.28 127.51C131.25 127.4 131.02 127.19 130.88 127.06C131.24 126.77 131.59 126.48 131.96 126.2C132.02 126.15 132.1 126.11 132.17 126.04C132.48 125.81 132.79 125.59 133.11 125.36C133.17 125.33 133.22 125.29 133.27 125.26C133.62 125.02 133.96 124.79 134.33 124.56L134.4 124.51C134.79 124.26 135.19 124.04 135.59 123.81H135.61C137.605 122.699 139.723 121.823 141.92 121.2C142.65 121 143.37 120.84 144.11 120.68C143.69 123.38 143.28 125.99 142.91 128.37C142.54 130.73 142.22 132.89 141.94 134.75C141.36 135.12 140.36 135.82 140.36 135.82C140.37 135.85 140.44 135.93 140.44 135.93H140.46C140.7 136.13 141.27 136.24 141.27 136.24C141.3 136.24 141.51 136.11 141.77 135.93L141.75 135.95ZM129.61 131.25C129.73 131.25 131.91 130.58 132.06 130.55C132.26 130.71 132.59 130.91 132.59 130.91C132.81 130.83 133.37 128.76 133.37 128.76C133.3 128.6 132.71 128.26 132.71 128.26L132.55 128.16L132.51 128.34L132 130.22L131.5 129.91C131.38 129.89 129.03 130.62 129.03 130.62C128.99 130.88 129.61 131.25 129.61 131.25ZM131.39 132.15C131.37 132.41 132.05 132.75 132.05 132.75C132.16 132.75 134.33 131.96 134.44 131.91C134.65 132.07 135.02 132.25 135.02 132.25C135.23 132.14 135.58 130.05 135.58 130.05C135.5 129.9 134.87 129.59 134.87 129.59L134.69 129.49L134.66 129.69L134.34 131.58L133.79 131.31C133.67 131.29 131.39 132.15 131.39 132.15ZM134.11 133.54C134.128 133.807 134.84 134.09 134.84 134.09C134.95 134.09 137.12 133.17 137.17 133.15C137.39 133.3 137.79 133.46 137.79 133.46C137.99 133.33 138.16 131.22 138.16 131.22C138.07 131.09 137.39 130.82 137.39 130.82L137.2 130.74V130.94L137.05 132.84L136.45 132.6C136.341 132.6 134.141 133.527 134.11 133.54ZM137.8 135.31C137.92 135.29 139.89 134.16 139.93 134.14C140.18 134.24 140.64 134.37 140.64 134.37C140.81 134.22 140.58 132.12 140.58 132.12C140.47 131.99 139.72 131.79 139.72 131.79L139.51 131.72L139.53 131.95L139.75 133.81L139.09 133.63C138.98 133.64 136.96 134.81 136.96 134.81C136.97 134.86 137.04 134.94 137.04 134.94C137.25 135.15 137.79 135.3 137.79 135.3L137.8 135.31ZM158.84 134.17L158.22 134.33C158.19 134.36 158.14 134.57 158.09 134.83C158.02 134.36 157.94 133.87 157.87 133.37L158.83 134.17H158.84Z" fill="white"/>
</svg>
