<svg width="300" height="300" viewBox="0 0 300 300" fill="none" xmlns="http://www.w3.org/2000/svg">
<path d="M141.15 137.34V160.79C141.15 160.79 170.95 162.71 180.08 157.18C178.45 162.36 178.96 179.3 180.08 182.12C168.55 176.2 141.15 178.56 141.15 178.56V202.16H185.31L194.72 191.22V150.78L183.82 138.13C177.34 137.41 154.18 137.33 141.16 137.33L141.15 137.34ZM72.83 53.46C82 49.09 91.76 39.85 95.22 33.63C104.06 37.8 185.31 37.19 194.7 33.63C200.37 41.91 206.45 46.54 215.04 49.35C214.24 57.3 214.48 60.11 217.07 66.48H194.7L185.31 55.99H105.64L95.2 65.18V107.43L105.6 117.5L118.77 118.05C118.77 102.36 118.93 99.36 107.39 96.3C111.23 88.6 112.01 87.7 113.02 78.1C122.9 81.42 225 79.61 229.44 77.07C228.73 87.07 234.38 106.07 238.17 113.15H215.8C214.66 105.37 209.75 99.36 201.94 97.9H141.15V118.05C141.15 118.05 188.45 119.34 194.7 117.19C197.81 125.27 208.99 137.11 217.07 140.39C214.36 156.87 214.86 185.05 217.07 202.15C208.27 206.52 199.28 215.49 194.7 224.54C183.57 221.48 141.14 222.98 141.14 222.98V235.64C143.33 244.28 147.97 246.36 156.11 247.06C156.11 247.06 149.57 259.36 149.3 266.56H111.07C110.9 259.54 104.25 247.06 104.25 247.06C111.6 246.72 117.63 242.37 118.75 235.64V222.98C118.75 222.98 105.33 222.48 95.19 224.54C92.12 217.65 80.93 205.32 72.8 202.15C74.68 197.2 73.81 166.31 71.07 159.8H95.19L95.17 191.23L104.57 202.17H118.75V137.35C118.75 137.35 106.34 136.74 95.19 137.58C91.99 131.35 82.41 121.3 72.8 116.56C75.8 105.15 76.07 64.23 72.8 53.46H72.83Z" fill="#FD5A1E"/>
</svg>
