<svg width="300" height="300" viewBox="0 0 300 300" fill="none" xmlns="http://www.w3.org/2000/svg">
<path d="M69.73 187.42C71.39 187.17 92.74 183.21 92.74 183.21V57.08H57.94L57.78 57.14C45.38 62.04 41.15 79.1 40.31 83.18C40.31 83.21 40.29 83.29 40.29 83.29L34.89 82.99L39.5 44.41L172.59 44.35V44.37L177.69 87.66L177.16 87.68L176.15 87.76L172.26 87.97C171.45 84.07 166.8 62.09 154.32 57.13L154.15 57.08H119.05V183.23C119.05 183.23 140.79 187.19 142.23 187.44V194.37H69.73V187.42ZM131.13 250.96V243.98C132.54 243.76 154.67 239.9 155.28 239.78H155.3V109.75C155.3 109.75 132.58 106.02 131.14 105.81V98.82H198.44C198.56 98.82 198.67 98.82 198.8 98.84C231.6 98.9 248.24 108.69 248.24 132.54C248.24 162.33 215.14 170.9 215.14 170.9V170.93C215.14 170.93 257.83 169.92 257.83 207.97C257.83 236.92 239.26 250.98 207.45 250.98H131.14L131.13 250.96ZM222.29 139.02C222.29 104.95 189.59 106.8 189.59 106.8C187.86 106.8 184.13 106.8 182.17 106.99L181.35 107.11V242.08H196.38C220.91 242.08 231.19 226.4 231.8 210.58C231.82 210.07 231.84 209.56 231.84 209.04C231.84 179.81 194.19 176.29 190.95 176.02V171.45C190.95 171.45 221.2 168.36 222.26 140.49C222.28 140.01 222.28 139.52 222.28 139.01L222.29 139.02Z" fill="white"/>
<path d="M92.74 57.1H57.94L57.78 57.16C45.39 62.06 41.16 79.12 40.32 83.2C40.32 83.23 40.3 83.28 40.3 83.29L34.9 83.01L34.34 87.54L44.26 88.06L44.66 86.1C45.33 82.84 49.25 66.39 60.54 61.74H92.73V57.09L92.74 57.1ZM181.34 107.11V242.09H195.62H185.99V111.6C188.04 111.55 191.89 111.44 191.89 111.44C192.16 111.44 205.34 110.84 214.15 119.19C219.37 124.14 222.08 131.29 222.25 140.48C222.27 140 222.27 139.51 222.27 139C222.27 104.93 189.57 106.78 189.57 106.78C187.84 106.78 184.12 106.78 182.15 106.98L181.33 107.1L181.34 107.11ZM190.94 171.69V180.52L193.08 180.7C197.01 181 231.13 184.48 231.8 210.59C231.82 210.08 231.84 209.57 231.84 209.05C231.84 179.82 194.19 176.3 190.95 176.03V171.7L190.94 171.69ZM146.62 187.81C146.62 187.81 126.67 184.19 123.45 183.6V61.73H155.69C166.23 66.09 170.88 85.04 172.05 90.76L172.45 92.72L182.37 92.2L176.75 44.37H172.6L177.7 87.67L177.17 87.69L176.15 87.77L172.26 87.98C171.45 84.06 166.8 62.1 154.31 57.14L154.15 57.09H119.04V183.24C119.04 183.24 140.79 187.2 142.23 187.45V194.38H69.73L69.71 199.06H146.62V187.82V187.81ZM155.3 109.77C155.3 109.77 132.58 106.04 131.14 105.83V98.84H131.12V110.14L155.28 114.1L155.3 109.78V109.77ZM252.11 183.42C244.59 176.05 234.61 173.05 227.28 171.79C237.6 166.69 252.87 155.65 252.87 134.85C252.87 110.25 236.3 98.82 200.74 98.82H198.8C231.6 98.89 248.24 108.68 248.24 132.53C248.24 162.31 215.14 170.89 215.14 170.89V170.91C215.14 170.91 257.83 169.92 257.83 207.97C257.83 236.91 239.26 250.96 207.45 250.96H131.14V244.37H131.11L131.13 246.34V255.63H209.77C243.75 255.63 262.48 239.54 262.48 210.26C262.48 199.17 259 190.1 252.12 183.41" fill="#8FBCE6"/>
</svg>
