<svg width="300" height="300" viewBox="0 0 300 300" fill="none" xmlns="http://www.w3.org/2000/svg">
<path d="M191.71 250.85V221.14L202.51 233.71V264.2H111.46L101.39 250.96V250.85H191.71ZM167.44 150.32C167.44 141.01 181.4 136.95 181.54 136.9L188.62 134.9C192.69 137.82 196.72 139.39 196.72 139.39C196.72 139.39 180.33 143.91 180.33 155.74V214.08H176.24C168.12 214.08 167.44 211.17 167.44 208.19V150.32ZM249.46 53.15V123.67H228.3L218.05 110.85H237.21V40.24L249.46 53.15ZM167.44 68.84C182.79 68.98 194.35 72.63 201.7 79.45C196.2 75.44 189.62 73.07 182.64 73.07L180.33 72.92V122.13C180.33 126.31 182.75 129.83 185.73 132.57L181.83 131.04C177.83 129.49 167.44 123.86 167.44 116.69V68.84ZM78.39 104.28C78.42 78.63 90.06 68.73 119.77 68.66V72.15C92.24 75.13 89.75 91.82 89.75 118.12L89.72 122.86H62.05L52.54 110.85H78.34L78.38 104.28H78.39Z" fill="#C0111F"/>
<path d="M53.18 39.8H231.02V104.65H217.05C217.06 103.62 217.08 102.49 217.08 102.49C217.08 77.09 198.68 62.54 166.64 62.54H163.54L161.24 62.52V116.68C161.24 124.94 168.28 130.47 173.67 133.66C168.21 136.42 161.24 141.45 161.24 150.33V208.19C161.24 213.7 163.84 220.27 176.23 220.27H185.51V244.67H101.63V220.27H111.51C120.42 220.27 125.94 215.45 125.94 207.68V150.33C125.94 141.43 119.97 136.51 115.13 133.77C119.95 130.8 125.94 125.57 125.94 116.69V62.42H120.05C86.98 62.42 72.22 75.23 72.22 103.96C72.33 103.53 72.36 103.71 72.36 104.18C72.36 104.32 72.34 104.48 72.34 104.66H53.18V39.8Z" fill="white"/>
</svg>
