<svg width="300" height="300" viewBox="0 0 300 300" fill="none" xmlns="http://www.w3.org/2000/svg">
<path d="M115.06 127.2H111.62C111.54 124.61 113.08 121.96 115.21 120.54C114.49 123.43 114.89 125.92 115.06 127.2ZM287.89 138.85L283.35 142.77L255.24 167.02L258.09 170.46L263.33 176.77L255.16 176.1L232.41 174.24L231.26 176.45L228.2 182.35L225.14 176.46L224.98 176.14L218.93 181.65C218.59 181.96 189.99 205.66 160.79 256.9L152.05 272.99C144.27 249.82 127.1 202.29 92.16 170.66C85.13 164.3 80.4 162.66 69.37 160.61C44.81 156.03 24.24 148.26 17.35 143.26L17.15 143.11C14.28 140.84 13.94 138.39 14.13 136.76C13.63 134.89 14.05 132.85 15.32 131.11L15.7 130.65C21.38 124.38 38.81 118.82 68.97 113.69C71.94 109.37 74.97 106.46 80.3 104.2L83.09 103.02C87.44 96.9 94.75 89.1 108.71 84.52C114.49 82.62 123.85 81.39 135.71 79.83C165.02 75.97 209.32 70.14 227.49 49.04L238.02 36.81C238.02 36.81 240.67 44.94 237.5 55.39C242.62 52.3 256.18 52.54 256.18 52.54C256.18 52.54 246.6 65.68 244.45 70.81C244.51 70.8 242.82 71.28 244.65 70.76C251.14 68.89 255.36 69.9 255.36 69.9C248.75 79.19 245.24 91.4 243.85 98.35C243.63 99.46 243.4 100.57 243.16 101.7L245.54 100.74L250.8 98.61L250.26 104.26C250.25 104.43 248.89 118.43 248.35 123.95C251.39 121.01 257.13 115.42 257.2 115.35L260.91 111.73L262.81 116.55L264.53 120.92L276.22 118.93L280.61 118.18L280.25 122.62L279.15 135.82L282.24 136.89L287.91 138.84L287.89 138.85ZM110.49 90C97.74 94.18 91.21 101.14 86.67 107.99C86.23 115.06 91.38 121.82 97.43 121.82C97.43 121.82 95.84 117.8 97.88 113.71C98.69 112.11 100.21 110.62 102.25 109.42C117.29 99.33 149.17 109.67 149.17 109.67C141.6 108.98 135.38 109.12 130.14 109.81C139.04 112.58 148.55 116.33 154.99 117.89C162.92 119.81 168.19 120.8 176.07 121.27L175.82 118.17L180.21 118.92L191.89 120.91L193.62 116.54L195.52 111.72L199.23 115.34C199.32 115.41 205.05 121 208.08 123.94C207.54 118.42 206.18 104.41 206.17 104.25L205.63 98.6L210.9 100.73L216.65 103.05L225.28 88.94L228.22 84.13L231.16 88.94L238.13 100.32C240.56 90.44 242.3 79.96 247.39 75.11C242.29 75.29 238.7 76.73 233.13 80.63C236.29 72.1 240.95 65.76 247.26 58.52C241.14 59.45 235.29 61.21 229.54 64.49C231.73 59.27 231.88 52.81 231.88 52.81C204.98 84.04 129.94 83.65 110.51 90.02L110.49 90ZM20.01 134.54C19.53 135.2 19.74 135.5 20.21 135.65C32.34 135.13 49.36 134.53 79.09 135.53C81.61 135.57 84.08 135.62 86.49 135.67C87.99 133.68 90.72 131.92 95.91 131.92H97.44C107.1 132.06 108.93 141.97 119.15 141.97C129.37 141.97 131.18 132.13 140.76 131.93C141.02 131.92 141.31 131.92 141.56 131.92H176.97L176.49 126.04H141.04C131.21 126.04 129.32 115.98 119.14 115.98C108.96 115.98 107.14 125.91 97.67 125.99C87.43 125.38 83.37 116.8 82.57 109.53C78.08 111.43 75.79 113.66 72.42 118.98C35.81 125.04 23.29 130.89 20 134.53L20.01 134.54ZM153.762 257.167C182.389 201.583 215.63 176.62 218.26 174.7L201.24 176.09L193.07 176.76L198.32 170.45L201.16 167.01L190.16 157.52C184.18 166.65 178.35 176.57 175.57 184.22L187.68 184.17C181.46 191.88 169.47 204.62 161.41 218.73C153.35 198.93 134.47 173.46 100.36 159.46C90.48 155.41 81.15 150.03 82.36 142.21C65.28 139.77 46.59 137.8 25.41 137.1C23.8 137.07 22.3 137.04 20.96 137.03C19.73 137.02 19.41 137.51 20.75 138.57C26.56 142.78 46.27 150.41 70.44 154.91C82.07 157.08 87.38 160.26 95.73 166.09C113.897 178.798 138.661 212.848 153.762 257.167ZM250.4 166.59L281.08 140.13L275.46 138.2L276.77 122.32L262.33 124.79L259.58 117.81C259.58 117.81 250.27 126.87 249.03 128.06C248.22 128.82 247.33 129.26 246.57 129.26C245.36 129.26 244.47 128.16 244.71 125.52C244.74 125.29 244.77 124.91 244.82 124.41C245.28 119.62 246.8 103.97 246.8 103.92L242.22 105.77L238.35 107.33L228.2 90.73L218.05 107.33L209.59 103.92C209.59 103.97 211.11 119.61 211.58 124.41C211.63 124.91 211.67 125.28 211.69 125.52C211.93 128.16 211.04 129.26 209.83 129.26C209.06 129.26 208.17 128.82 207.37 128.06C206.13 126.87 196.82 117.81 196.82 117.81L194.07 124.79L179.63 122.32L180.93 138.2L175.31 140.13L205.99 166.59L200.97 172.63L202.74 172.49L212.6 171.69H212.62L226.01 170.6L227.35 173.19L227.63 173.73L228.21 174.85L229.35 172.66L230.42 170.61L255.45 172.65L250.44 166.61L250.4 166.59Z" fill="white"/>
<path d="M97.46 121.84C97.46 121.84 95.87 117.83 97.91 113.73C98.72 112.12 100.24 110.64 102.28 109.44C117.32 99.35 149.2 109.69 149.2 109.69C141.63 109 135.42 109.14 130.17 109.83C139.07 112.6 148.57 116.34 155.02 117.91C162.95 119.84 168.21 120.83 176.1 121.29L175.85 118.19L180.24 118.94L191.92 120.93L193.65 116.56L195.55 111.74L199.26 115.36C199.34 115.43 205.08 121.02 208.11 123.96C207.57 118.45 206.22 104.44 206.2 104.27L205.66 98.62L210.93 100.75L216.68 103.07L225.31 88.96L228.25 84.15L231.19 88.96L238.16 100.34C240.59 90.46 242.33 79.98 247.42 75.13C242.32 75.32 238.73 76.76 233.16 80.65C236.32 72.11 240.98 65.78 247.29 58.54C241.17 59.47 235.32 61.23 229.57 64.51C231.76 59.29 231.91 52.83 231.91 52.83C205.01 84.06 129.97 83.66 110.54 90.04C97.79 94.22 91.26 101.17 86.72 108.03C86.28 115.1 91.43 121.86 97.48 121.86L97.46 121.84Z" fill="#134A8E"/>
<path d="M20.19 135.63C19.72 135.49 19.5 135.18 19.99 134.52C23.28 130.88 35.81 125.03 72.41 118.97C75.78 113.65 78.08 111.42 82.56 109.52C83.37 116.79 87.42 125.37 97.66 125.98C107.13 125.91 108.8 115.97 119.13 115.97C129.46 115.97 131.2 126.03 141.03 126.03H176.48L176.96 131.91H141.55C141.3 131.92 141.01 131.92 140.75 131.92C131.17 132.12 129.4 141.96 119.14 141.96C108.88 141.96 107.09 132.04 97.43 131.91H95.9C90.71 131.91 87.98 133.67 86.48 135.66C84.07 135.6 81.6 135.56 79.08 135.52C49.35 134.53 32.33 135.13 20.2 135.64L20.19 135.63ZM111.62 127.21H115.06C114.9 125.92 114.49 123.44 115.21 120.54C113.08 121.96 111.54 124.62 111.62 127.21ZM193.11 176.76L201.28 176.09L218.3 174.7C215.67 176.62 182.42 201.59 153.79 257.19C138.68 212.86 113.92 178.8 95.75 166.09C87.4 160.26 82.09 157.08 70.46 154.91C46.29 150.41 26.58 142.78 20.77 138.57C19.43 137.51 19.75 137.02 20.98 137.03C22.32 137.05 23.82 137.07 25.43 137.1C46.61 137.8 65.3 139.77 82.38 142.21C81.18 150.03 90.5 155.41 100.38 159.46C134.48 173.46 153.36 198.93 161.43 218.73C169.49 204.62 181.48 191.88 187.7 184.17L175.59 184.22C178.37 176.57 184.2 166.65 190.18 157.52L201.18 167.01L198.34 170.45L193.09 176.76H193.11Z" fill="#1D2D5C"/>
<path d="M276.8 122.33L262.36 124.8L259.61 117.82C259.61 117.82 250.3 126.88 249.06 128.07C248.26 128.83 247.36 129.27 246.6 129.27C245.39 129.27 244.5 128.17 244.74 125.53C244.77 125.29 244.8 124.92 244.85 124.42C245.32 119.62 246.83 103.98 246.83 103.93C246.83 103.88 242.25 105.78 242.25 105.78L238.38 107.34L228.23 90.75L218.08 107.34L209.62 103.93C209.62 103.98 211.14 119.63 211.61 124.42C211.65 124.92 211.69 125.3 211.72 125.53C211.96 128.17 211.07 129.27 209.86 129.27C209.09 129.27 208.21 128.84 207.4 128.07C206.16 126.88 196.85 117.82 196.85 117.82L194.1 124.8L179.66 122.33L180.96 138.21L175.34 140.14L206.02 166.6L201 172.64L202.77 172.5L212.63 171.69L226.04 170.59L227.38 173.18L227.66 173.72L228.25 174.84L229.39 172.65L230.46 170.59L255.49 172.63L250.48 166.59L281.16 140.13L275.54 138.2L276.85 122.32L276.8 122.33Z" fill="#D50032"/>
</svg>
