<svg width="300" height="300" viewBox="0 0 300 300" fill="none" xmlns="http://www.w3.org/2000/svg">
<path d="M153.32 229.67C158.35 229.67 163.23 229.44 167.97 229.01H167.98C168.52 241.62 171.62 253.71 176.02 266.55H129.17C133.59 253.65 136.59 241.51 137.19 228.85H137.2C142.33 229.4 147.69 229.67 153.31 229.67H153.32ZM137.52 117.44L137.43 84.26C137.43 75.33 137.35 68.36 137.25 62.32C108.86 63.86 82.12 72.89 58.29 88.73L64.33 50.93C89.13 42.14 120.76 37.81 152.52 37.81C184.28 37.81 216.04 42.14 240.84 50.93L246.88 88.73C223.06 72.88 196.31 63.85 167.92 62.32C167.83 68.36 167.75 75.32 167.75 84.26C167.76 86.91 167.77 89.58 167.77 92.26C167.79 100.62 167.8 109.14 167.82 117.76C167.87 146.38 167.88 175.97 167.88 203.53C163.17 204.15 158.22 204.48 153.05 204.48C147.57 204.48 142.36 204.12 137.45 203.44C137.6 175.93 137.58 146.4 137.52 117.84V117.44Z" fill="white"/>
<path d="M167.88 203.51C192.3 200.25 210.13 188.98 218.27 174.01L251.74 174.15C243.32 202.36 212.3 224.91 167.97 229H167.96C163.23 229.43 158.34 229.66 153.31 229.66C147.69 229.66 142.33 229.39 137.2 228.84H137.19C107.63 225.7 85.73 213.52 64.6 192.39C55.8 183.6 45.69 171.79 33.62 160.63C45.7 149.47 55.8 137.66 64.6 128.87C85.79 107.67 107.76 95.48 137.45 92.39C137.48 100.6 137.5 108.97 137.52 117.43V117.83C121.79 119.96 109.07 125.32 100.16 132.42C90.71 139.89 84.81 149.74 84.81 160.63C84.81 171.52 90.71 181.36 100.16 188.85C109.06 195.94 121.75 201.29 137.45 203.43C142.36 204.11 147.57 204.47 153.05 204.47C158.23 204.47 163.17 204.14 167.88 203.52V203.51ZM167.82 117.76C167.81 109.14 167.79 100.62 167.77 92.26C212.2 96.3 243.31 118.86 251.74 147.13L218.27 147.26C210.12 132.28 192.27 121 167.82 117.76Z" fill="#D50032"/>
</svg>
