<svg width="300" height="300" viewBox="0 0 300 300" fill="none" xmlns="http://www.w3.org/2000/svg">
<path d="M200.78 45.66C222.66 55.72 234.51 73.01 234.51 94.63C234.51 95.9 234.47 97.19 234.39 98.49C231.9 139.07 200.59 153.93 165.75 166.59V236.39C165.75 246.15 161.35 255.23 153.34 261.97C145 269 133.76 272.32 124.02 270.63C116.75 269.35 111.63 265.28 109.62 259.17C108.95 257.13 108.62 254.94 108.62 252.62C108.62 242.5 114.93 230.02 126.4 217.83V79.15C115.74 84.19 107.89 94.21 107.89 100.5C107.89 100.97 107.94 101.42 108.03 101.85C108.78 105.4 112.74 106.06 115.93 105.99L117.27 105.96L117.05 107.28C116.92 108.1 113.63 127.43 100.63 134.43C94.22 137.89 86.58 137.69 77.95 133.83C70.62 130.54 65.7 123.76 64.08 114.75C61.16 98.41 69.41 78.85 86.15 62.42C112.4 36.84 164.88 29.17 200.77 45.66H200.78ZM171.75 130.93C190.52 127.42 202.07 115.42 202.07 99.9C202.07 98.78 202.02 97.63 201.89 96.46C199.85 78.9 189.35 70.64 170.69 71.89C170.69 71.89 168.02 72.07 166.71 72.16V131.88L171.76 130.94L171.75 130.93Z" fill="white"/>
</svg>
