<svg width="300" height="300" viewBox="0 0 300 300" fill="none" xmlns="http://www.w3.org/2000/svg">
<path d="M176.7 180.69C156 184.5 144.66 184.29 127.11 189.18C112.06 220.4 95.94 247.5 72.91 247.81C42.51 248.23 31.38 223.86 35.66 209.31C38.82 198.59 41.66 198.91 41.66 204.89C41.66 208.13 50.19 226.77 71.63 225.71C82.37 225.2 91.17 214.72 100.27 198.91C94.64 201.33 88.45 204.07 81.41 207.43C76.43 209.81 76.05 208.99 77 204.89C77.7 201.88 85.03 184.15 112.99 174.66C134.05 132.47 161.4 74.99 217.42 45.83C220.23 44.36 230.54 36.88 222.8 49.62C196.92 92.18 189.18 129.39 190.42 158.65C211.03 151.17 222.21 140.22 224.06 124.08C224.8 117.75 226.54 117.66 230.06 121.57C234.18 126.14 242.94 161.7 192.49 176.95C198.76 210.64 217.09 229.52 226.9 227.94C237.08 226.26 244.89 215.32 243.31 199.85C242.39 190.85 245.78 194.21 248.98 197.34C258.47 206.48 257.67 235.9 238.9 244.04C211.81 255.76 186.17 227.95 176.69 180.7L176.7 180.69ZM136.28 169.63C136.53 169.59 136.74 169.59 136.98 169.56C151.13 168.03 163.36 166.12 174.11 163.56C172.22 146.01 172.36 126.5 175.17 105.8C160.1 119.1 148.13 144.18 136.28 169.63Z" fill="white"/>
</svg>
