<svg width="300" height="300" viewBox="0 0 300 300" fill="none" xmlns="http://www.w3.org/2000/svg">
<path d="M210.43 249.79L196.81 228.16L221.36 197.31L229.51 203.89L229.49 186.33L218.5 176.43L188.1 214.26L183.81 207.46C187.52 204.68 192.3 201.11 192.82 200.84C193.71 200.4 195.9 199.09 197 199.09C197.98 199.09 195.46 194.68 188.21 194.7L188.18 155.83L192.34 151.23C192.34 151.23 187.29 152.02 184.88 151.29C184.37 151.13 183.51 150.72 182.46 150.17C183.83 148.01 185.05 145.53 185.96 142.67C190.89 127.05 187.4 112.02 175.83 103.41C167.49 97.21 133.43 79.92 133.43 79.92C133.43 79.92 112.79 69.83 110.56 67.62C108.98 66.04 105.73 63.56 105.72 55.78C105.72 51.12 110.9 45.99 113.13 44.93C116.7 43.24 117.88 42.45 125.11 42.33C129.19 42.28 132.99 43.25 133.5 43.29C138.01 43.76 148.66 47.28 154.15 54.71C156.27 56.81 156.68 62.98 156.68 62.98L165.26 68.46L183.9 44.06L173.79 37.27C170.94 40.33 165.45 40.54 163.23 39.46C161.05 38.37 142.2 31.52 139.53 30.67C134.47 29.04 123.48 27.86 117.57 28.74C111.63 29.63 101.91 31.43 94.3 39.51C85.4 48.98 85.3 56.55 85.31 60.6C85.32 66.98 86.98 75.41 94.11 82.52C104.4 92.81 120.04 99.21 123.58 101.15C129.81 104.61 149.5 114.9 152.36 116.53C164.44 123.56 169.04 131.03 167.75 140.47C167.69 140.93 167.53 141.37 167.44 141.81C162.14 138.7 154.7 134.03 151.71 131.04C151.71 131.04 149.89 132.97 148.73 134.1L139.95 140.72C141.02 136.46 141.12 129.14 140.95 128.4C140.72 127.55 140.07 120.51 133.91 116.13C129.73 113.15 120.39 107.57 112.36 103.62C108.92 101.93 97.73 95.19 92.37 90.72C92.37 90.72 83.14 82.13 81.71 76.86C78.96 70.83 78.83 56.54 80.26 55.12C80.26 55.12 76.75 59.1 74.35 66.99C73.17 70.84 72.38 75.88 72.38 79.29C72.38 84.99 73.38 94.99 79.64 103.43C82.41 107.16 86.75 111.41 91.35 114.41C96.93 118.1 102.58 120.27 102.96 120.55C104.49 121.64 118.99 127.75 120.31 128.4C121.63 129.06 130.94 133.86 131.3 133.99C134.16 135.03 137.77 138.9 138.86 141.54L123.86 152.82C123.86 152.82 124.51 154.02 124.52 155.88V157.32C122.49 156.64 120.42 156.06 118.37 155.71C108.49 154.05 102.47 154.15 94.65 156.07C85.97 158.23 76.86 161.75 68.29 170.3C58.64 180 58.76 186.5 58.76 186.5L68.41 180.79C76.48 176.23 87.13 173.49 94.64 173.49C112.78 173.48 122.03 178.7 124.52 181.59L124.54 198.94C124.54 202.38 123.5 202.84 122.74 203.47C122.44 203.74 122.17 203.77 121.13 204.48C121.13 204.48 122.46 204.97 122.79 205.3C123.66 205.95 157.85 226.55 157.85 226.55L171.1 216.84L177.65 227.27L159.51 249.85L146.98 238.45L147.01 259.74L161.29 272.91L186.47 241.24L207.19 274.18L223.86 260.77V239.67L210.45 249.79H210.43ZM152 150.93C154.02 152.67 156.47 154.28 158.92 155.7C158.87 155.75 158.73 155.86 158.73 155.86C158.73 155.86 149.91 163.39 144.28 164.29V156.62C144.39 156.52 152 150.93 152 150.93ZM157.75 206.48C157.75 206.35 144.26 198.14 144.26 198.14C144.29 198.14 144.29 189.08 144.29 179.4V177.56C150.05 176.44 163.69 169.92 170.9 162.8C170.96 163.87 170.97 169.16 170.97 175.24C170.97 179.19 170.96 183.37 170.96 186.99L162.71 173.89L149.94 182.98V199.2L157.02 194.53L162.25 202.84C159.78 204.84 157.74 206.5 157.74 206.5" fill="white"/>
</svg>
