<svg width="300" height="300" viewBox="0 0 300 300" fill="none" xmlns="http://www.w3.org/2000/svg">
<path d="M131.81 203.91C131.75 204.01 131.7 204.07 131.66 204.15C131.348 204.737 131.247 204.988 131.222 205.245L131.218 205.509L131.22 205.56V206.24C131.22 206.3 131.202 206.782 131.19 207.174L131.17 208.41C131.2 210.18 131.19 212.42 131.18 215.03C131.16 219.24 131.15 224.39 131.29 229.98C131.51 238.58 135.29 249.48 137.25 252.91L139.55 256.93L134.05 255.71C128.92 254.7 116.9 252.33 114.01 226.42L112.56 213.25L110.05 219.16C107.65 224.8 104.8 229.68 101.52 233.77C100.29 235.53 99.1 237.05 97.88 238.41C97.39 238.96 96.88 239.49 96.34 240.02C83.47 253.34 64.24 254.84 57 255.4L56.46 255.44C51.58 255.82 46.67 255.74 41.93 255.65L35.92 255.54L43.38 249.73C55.3 240.81 63.92 234.36 68.15 221.54C68.96 219.06 74.57 201.08 81.2 179.73L81.48 178.8L80.83 178.09C74.86 171.61 64.66 157.88 63.42 138.7L63.33 137C63.18 131.53 63.74 126.09 64.99 120.85L65.48 118.8L63.37 118.78C57.82 118.8 49.01 119.39 42.5 119.94C53.63 114.09 62.85 109.99 68.93 108.2L69.63 108L69.96 107.35C74.61 98.12 80.33 91.38 88.57 85.47C91.28 83.4 94.74 81.36 97.37 79.81L99.5 78.51C102.75 76.32 105.11 74.36 106.94 72.3L107.48 71.67C107.87 71.2 108.31 70.65 108.72 70.05C108.88 69.81 109.03 69.53 109.27 69.12L109.9 68.01C112.55 62.62 112.69 56.35 112.62 53.95C112.66 47.26 113.18 42.34 114.21 38.87C114.48 37.83 115.35 34.83 116.02 33.37L117.12 30.98L119.16 32.64C120.94 34.09 121.72 34.78 123.75 36.81C135.42 49.48 143.12 62.71 147.53 71.57L147.88 72.28L148.66 72.45C151.01 72.99 153.32 73.74 155.51 74.68L155.91 74.85L156.35 74.81C157.68 74.67 161.22 74.35 165.51 74.43L227.67 63.29L215.9 74.66C212.89 75.76 190.2 84.11 177.31 88.88L169.71 91.69L177.79 92.12C189.67 92.77 195.85 98.56 197.46 100.33L200.21 103.32L201.43 102.38C204.72 99.82 208.27 97.44 212.62 94.86C213.71 94.18 214.89 93.47 216.09 92.78C221.56 89.71 227.52 87.28 233.92 85.51C244.37 81.82 254.14 81.04 260.52 81.04C265.27 81.1 270.18 81.74 271.11 81.87L276.09 82.58L272.04 85.54C270.6 86.6 269.05 87.76 267.66 88.86L267.67 88.88C257.26 96.81 249.76 108.46 244.75 124.5L215.9 217.43C215.09 220.19 214.54 222.28 214.29 224.21C213.8 227.88 213.97 230.64 214.82 232.94C215.05 233.62 215.19 234.03 215.91 235.86L216.39 237.1L210.44 243.04L166.53 243.08L188.02 174.65L148.51 227.82H148.49L140.93 237.93L133.29 201.584C132.868 202.332 132.344 203.105 131.81 203.91ZM200.01 103.31L164.28 107.15L154.48 116.74L161.36 149.56L163.58 146.54C170.33 137.36 176.98 128.31 178.08 126.81L178.52 126.24C184.98 117.99 190.59 111.8 196.16 106.78L200.01 103.31Z" fill="white"/>
<path d="M107.12 111.68L107.138 111.67H107.14L107.12 111.68ZM107.138 111.67C90.858 110.95 68.959 111.76 48.07 118.56H48.04C55.73 114.66 63.53 111.77 71.09 109.66C75.47 100.5 80.96 93.41 89.75 87.1C93.07 84.58 97.44 82.13 99.85 80.68C100.08 80.53 100.31 80.37 100.54 80.23C103.87 77.99 106.46 75.88 108.46 73.65C108.66 73.44 108.83 73.22 109.01 73C109.5 72.41 109.98 71.81 110.4 71.19C110.66 70.8 110.89 70.39 111.12 69.98C111.32 69.64 111.53 69.3 111.71 68.94C114.33 63.63 114.77 57.5 114.68 53.82C114.71 48.52 115.08 43.14 116.17 39.46C116.17 39.46 117.18 35.74 117.89 34.19C119.63 35.61 120.35 36.24 122.37 38.27C134.53 51.5 142.22 65.19 146.49 74.03C146.72 74.08 146.94 74.16 147.17 74.21C150.08 74.78 152.9 75.69 155.6 76.93C157.1 76.75 160.03 76.46 163.57 76.46C164.22 76.46 164.86 76.47 165.5 76.49L221.41 66.47L218.02 69.74L207.72 72.38L173.62 78.53L165.75 79.95C159.82 79.74 155.03 80.49 155.03 80.49C152.212 79.0981 149.213 78.1085 146.12 77.55C145.44 77.4 144.76 77.25 144.07 77.13C140.06 68.58 132.17 53.98 119.64 40.37C116.23 50.45 121.04 57.2 114.39 71.08C113.64 72.63 112.96 74.04 111.46 75.69C105.67 82.06 102.43 82.82 96.51 86.83C87.02 92.79 80.14 100.25 75.61 108.49C78.97 107.67 82.25 107.02 85.45 106.48C87.26 106.17 89.05 105.91 90.79 105.68C103.61 104.02 114.37 104.4 120.78 105.31C116.135 107.01 111.642 109.1 107.35 111.56C107.286 111.597 107.205 111.633 107.138 111.67ZM123.14 52.55V52.574L123.13 52.56L123.14 52.55ZM123.14 52.574C129.675 61.419 134.401 69.963 137.02 75.09C128.81 75.14 121.65 77.12 115.98 79.55C119.72 74.54 124.01 65.72 123.16 53.56C123.14 53.403 123.14 52.986 123.14 52.574ZM84.47 176.22L83.84 178.24C83.83 178.23 83.82 178.21 83.81 178.21C74.82 169.14 66.53 154.95 65.48 138.65L65.38 137.79V137.5C65.37 137.44 65.36 137.37 65.36 137.31C65.36 137.25 65.38 137.2 65.38 137.14C65.17 130.04 66.18 122.98 68.38 116.37C69.59 116.3 70.83 116.24 72.12 116.19C64.76 136.53 70.01 159.82 84.46 176.22H84.47ZM130.91 250.71C133.26 252.99 135.47 253.9 135.47 253.9C130.7 252.83 118.94 252.34 116.02 226.17C114.81 215.36 113.99 207.66 113.99 207.66C113.85 206.09 113.59 204.74 113.16 203.48L112.15 206.77C112.08 206.99 112 207.28 111.9 207.62C110.73 211.62 107.28 223.29 99.98 232.35C99.51 232.93 99.07 233.54 98.57 234.1C95.14 237.91 91.05 240.74 86.83 242.85C76.33 247.77 65.38 248.38 60.6 248.72C58.65 248.86 56.74 248.92 54.83 248.93C62.01 243.31 67.7 237.83 71.48 230.06C72.6624 227.762 73.6783 225.383 74.52 222.94C75.88 218.98 89.42 175.22 99.07 143.97C101.03 141.75 103.24 139.76 105.57 137.96C95.92 169.23 80.23 219.99 78.72 224.38C75.6 233.43 71.19 239.7 67.71 243.6C86.34 241.08 92.97 233.71 95.3 231.12C102.93 222.64 106.49 210.4 107.66 206.37L130.05 133.09L138.07 171.12C136.267 172.363 134.538 173.708 132.89 175.15C129.43 178.15 128.43 178.8 125.76 181.25C123.122 183.669 120.923 185.058 118.634 185.609L114.61 198.77C114.6 198.82 114.58 198.86 114.57 198.9C116.57 202.59 116.92 205.76 117.11 207.25C117.43 209.85 117.49 212.73 118.12 218.45C118.16 218.79 118.19 219.1 118.23 219.45C118.31 220.14 118.41 220.91 118.51 221.68C118.58 222.21 118.63 222.69 118.71 223.26C118.89 224.65 119.1 226.14 119.35 227.8C122.14 246.49 128.92 250 130.57 250.59C130.8 250.67 130.93 250.7 130.93 250.7L130.91 250.71ZM119.796 181.808C120.964 181.377 122.173 180.578 123.88 179.21C124.91 178.39 127.02 176.46 129.75 174.23C130.92 173.27 132.2 172.27 133.57 171.26L129.26 150.84L126.66 159.36L119.796 181.808ZM260.5 83.08C265.56 83.14 270.85 83.89 270.85 83.89C269.39 84.96 267.82 86.14 266.38 87.27C255.65 95.44 247.94 107.41 242.8 123.86L213.96 216.76C213.12 219.64 212.54 221.85 212.27 223.91C211.74 227.92 211.94 230.99 212.9 233.58C213.1 234.2 213.21 234.54 214.01 236.57H175.38L201.01 153.72L193.56 163.75L145.59 228.27L137.89 191.77C138.75 190.53 140.02 188.72 141.4 186.9L147.9 217.73L212.9 130.3L181.39 232.14H207.91C207.43 229.58 207.42 226.71 207.87 223.33C208.18 221 208.8 218.6 209.71 215.49L238.57 122.55C243.25 107.54 250.03 96.03 259.2 87.53C250.4 87.68 237.75 89.43 225.17 96.47C214.26 102.71 205.44 110.82 191.49 127.44C183.55 137.77 175.03 149.31 168.8 157.73C165.82 161.76 163.47 164.95 162.1 166.75L159.16 170.62L147.4 114.53C148.95 114.37 150.45 114.27 151.87 114.25L160.3 154.43L161.5 160.15C162.58 158.69 163.84 156.99 165.24 155.1C171.49 146.65 180.04 135.08 188.01 124.7L188.07 124.63C202.42 107.54 211.56 99.16 222.99 92.61C226.81 90.47 230.62 88.82 234.35 87.51C244.35 83.99 253.69 83.08 260.5 83.08Z" fill="#00A3E0"/>
<path d="M136.3 194.88C136.19 196.71 135.92 199.01 135.32 200.63C135.3 200.68 135.27 200.74 135.25 200.8L134.35 196.47L133.42 192.06V192.02C133.54 191.78 133.7 191.5 133.93 191.16C134.06 190.97 134.22 190.73 134.41 190.46C134.78 189.92 135.26 189.23 135.81 188.46C136.14 188 136.49 187.51 136.86 187.01C137.72 185.83 138.67 184.57 139.62 183.41C139.96 182.99 140.3 182.59 140.63 182.21C141.36 181.37 142.07 180.55 142.77 179.75L142.99 179.5C143.61 178.79 144.23 178.09 144.83 177.41C144.95 177.27 145.07 177.14 145.2 177C145.74 176.4 146.27 175.82 146.79 175.26C146.95 175.09 147.1 174.94 147.26 174.77C147.73 174.28 148.2 173.8 148.65 173.35L148.84 173.16H148.85C150.99 171.07 152.93 169.52 154.64 168.95C154.52 168.91 154.39 168.93 154.26 168.91C153.34 168.87 150.89 169.23 146.63 172.58C144.41 174.49 141.67 177.15 138.36 180.89C134.64 185.09 132.91 187.98 131.63 189.64C130.67 190.87 130.38 191.56 130.19 192.71C130.16 192.92 130.07 196.26 129.44 197.97C128.97 199.27 127 202.11 126.9 202.28C125.98 203.81 126.09 204.55 126.12 205.4C126.15 206.25 125.98 217.54 126.3 230.1C126.62 242.65 130.92 250.72 130.92 250.72C130.91 250.71 130.79 250.69 130.56 250.61C128.91 250.02 122.13 246.5 119.34 227.82C119.09 226.16 118.88 224.66 118.7 223.28C118.62 222.71 118.57 222.23 118.5 221.7C118.4 220.93 118.3 220.15 118.22 219.47C118.18 219.11 118.15 218.81 118.11 218.47C117.48 212.74 117.42 209.87 117.1 207.27C116.92 205.78 116.56 202.62 114.56 198.92C114.57 198.87 114.59 198.83 114.6 198.79C115.74 195.05 117.15 190.45 118.62 185.63C120.91 185.09 123.11 183.69 125.75 181.27C128.42 178.82 129.41 178.18 132.88 175.17C134.75 173.55 136.47 172.23 138.06 171.14L130.04 133.11C130.04 133.11 107.75 206.03 107.65 206.39C106.48 210.41 102.92 222.66 95.29 231.14C92.96 233.73 86.32 241.1 67.7 243.62C71.18 239.72 75.59 233.45 78.71 224.4C80.22 220.01 95.91 169.25 105.56 137.98C103.23 139.78 101.02 141.76 99.06 143.99C98.06 145.12 97.12 146.29 96.26 147.53C93.873 150.992 91.271 154.727 89.848 158.745C89.8573 158.71 89.868 158.675 89.88 158.64C90.26 157.39 90.65 156.13 91.04 154.88C91.32 153.97 91.61 153.09 91.87 152.3C92.6203 149.644 93.6389 147.07 94.91 144.62C100.78 133.32 112.68 125.99 121.31 121.99C129.79 118.06 139.33 115.38 147.39 114.54L159.15 170.63L162.09 166.76C163.45 164.96 165.81 161.77 168.79 157.74C175.02 149.32 183.54 137.78 191.48 127.45C205.44 110.84 214.26 102.73 225.16 96.48C237.74 89.44 250.39 87.69 259.19 87.54C250.02 96.04 243.25 107.55 238.56 122.56L209.7 215.5C208.8 218.61 208.17 221.01 207.86 223.34C207.41 226.71 207.42 229.59 207.9 232.15H181.38L212.89 130.31L147.89 217.74L141.39 186.91C140.182 188.505 139.011 190.129 137.88 191.78C137.59 192.19 137.34 192.57 137.16 192.83C136.54 193.74 136.39 194.19 136.33 194.7C136.32 194.76 136.32 194.87 136.32 194.87L136.3 194.88ZM89.79 158.91L89.848 158.745C89.8333 158.8 89.814 158.855 89.79 158.91ZM172.89 97.17C184.38 96.45 188.24 99.58 188.24 99.58L161.28 102.46L152.73 110.78C130.87 110.61 83.67 128.36 88.34 163.66C87.06 167.83 85.74 172.08 84.46 176.22C70.01 159.82 64.76 136.53 72.12 116.19C74.61 116.1 77.22 116.03 79.97 116.03C77.06 122.77 75.69 130.01 76.03 137.61C76.2 141.3 76.75 144.94 77.66 148.48C76.68 135.68 78.96 124.93 83.57 116.07C88.53 116.14 93.8 116.4 99.29 116.92L99.8 116.53C99.83 116.51 99.84 116.5 99.87 116.48C100.54 115.99 101.21 115.49 101.89 115.02C102.57 114.55 103.37 114.01 104.28 113.43C104.9 113.03 105.53 112.65 106.16 112.27C106.48 112.08 106.78 111.89 107.12 111.7C107.19 111.66 107.28 111.62 107.35 111.58C111.72 109.07 116.27 106.99 120.78 105.33C114.36 104.42 103.61 104.04 90.79 105.7C101.4 93.91 117.34 87.05 135.1 84.79C134.76 84.79 134.41 84.8 134.07 84.81C118.94 85.28 104.92 89.36 94.87 96.95C93.2679 98.1588 91.7386 99.461 90.29 100.85C88.51 102.62 86.92 104.52 85.46 106.49C82.26 107.03 78.98 107.68 75.62 108.5C80.15 100.26 87.03 92.79 96.52 86.84C102.44 82.83 105.68 82.07 111.47 75.7C112.97 74.05 113.64 72.65 114.39 71.09C121.04 57.21 116.23 50.46 119.64 40.38C132.16 54 140.06 68.59 144.07 77.14C144.76 77.27 145.44 77.41 146.12 77.57C148.69 78.04 151.76 78.89 155.03 80.51C155.03 80.51 159.82 79.75 165.75 79.97L173.62 78.55L207.82 72.39C207.82 72.39 173.06 85.11 165.42 88C157.78 90.89 157.96 98.08 157.96 98.08L172.89 97.17ZM123.15 53.55C124 65.71 119.71 74.53 115.98 79.54C121.65 77.12 128.81 75.13 137.02 75.08C134.4 69.96 129.66 61.41 123.13 52.55C123.14 52.97 123.14 53.4 123.15 53.56V53.55ZM157.6 90.43C148.99 93.29 147.64 98.71 147.64 98.71L154.16 98.31C154.89 91.99 157.6 90.43 157.6 90.43Z" fill="black"/>
<path d="M79.97 116.03C77.22 116.03 74.61 116.09 72.12 116.19C70.83 116.24 69.59 116.3 68.38 116.37C56.44 117.04 48.57 118.48 48.05 118.58C68.95 111.79 90.84 110.98 107.12 111.69C106.79 111.88 106.48 112.07 106.16 112.26C104.707 113.129 103.282 114.046 101.89 115.01C101.2 115.48 100.54 115.97 99.87 116.47C99.84 116.49 99.82 116.5 99.8 116.52L99.29 116.91C93.8 116.39 88.53 116.14 83.57 116.06C82.35 116.04 81.15 116.03 79.97 116.03ZM157.6 90.43C157.6 90.43 154.9 91.99 154.16 98.31L147.64 98.71C147.64 98.71 149 93.29 157.6 90.43ZM207.72 72.38L218.02 69.74L214.79 72.89C214.44 73.01 174.18 87.82 166.64 90.67C164.54 91.46 163.1 93.16 162.53 94.85L172.68 94.23C173.96 94.15 175.22 94.09 176.41 94.11C188.57 94.36 194.72 100.35 195.96 101.7L163.36 105.21L154.12 114.23H152.41C152.24 114.23 152.05 114.25 151.88 114.25C150.46 114.26 148.96 114.37 147.41 114.53C139.35 115.36 129.81 118.05 121.33 121.98C112.69 125.98 100.79 133.32 94.93 144.61C93.67 147.03 92.65 149.61 91.89 152.29C91.63 153.07 91.35 153.96 91.06 154.87C90.67 156.12 90.29 157.38 89.9 158.63C89.86 158.72 89.84 158.81 89.81 158.9C89.71 159.18 89.63 159.47 89.54 159.75C89.15 161.04 88.75 162.33 88.34 163.65C83.66 128.35 130.87 110.6 152.73 110.77L161.28 102.45L188.24 99.57C188.24 99.57 184.38 96.44 172.89 97.16L157.96 98.07C157.96 98.07 157.78 90.88 165.42 87.99C173.07 85.1 207.82 72.38 207.82 72.38L173.62 78.54L207.71 72.39L207.72 72.38ZM133.47 192.01V192.05C133.3 192.43 133.2 192.75 133.15 193.05C133.14 193.11 133.14 193.17 133.14 193.22C133.04 195.05 132.84 197.35 132.24 198.97C131.8 200.17 130.73 201.85 129.64 203.49C129.58 203.59 129.54 203.65 129.49 203.73C129.07 204.54 129.07 204.66 129.1 205.09V205.36C129.11 205.61 129.13 206.43 129.16 208.42C129.24 213.06 129.05 220.96 129.28 230.01C129.5 238.68 133.26 249.98 135.51 253.9C135.51 253.9 133.29 252.99 130.95 250.71C130.95 250.71 126.65 242.65 126.33 230.09C126.01 217.53 126.18 206.24 126.15 205.39C126.12 204.55 126.01 203.8 126.93 202.27C127.03 202.09 128.99 199.26 129.47 197.96C130.1 196.26 130.18 192.91 130.22 192.7C130.41 191.55 130.7 190.86 131.66 189.63C132.94 187.97 134.67 185.08 138.39 180.88C141.71 177.14 144.44 174.48 146.66 172.57C150.92 169.22 153.37 168.87 154.29 168.9C154.41 168.92 154.55 168.91 154.67 168.94C152.96 169.51 151.02 171.05 148.88 173.15H148.87L148.68 173.34C148.22 173.78 147.76 174.26 147.29 174.76C147.13 174.92 146.98 175.08 146.82 175.25C146.16 175.96 145.506 176.677 144.86 177.4C144.26 178.07 143.65 178.77 143.02 179.49L142.8 179.74C142.1 180.54 141.39 181.36 140.66 182.2C140.32 182.58 139.99 182.99 139.65 183.4C138.7 184.56 137.75 185.82 136.89 187C136.52 187.5 136.17 187.99 135.84 188.45C135.29 189.22 134.82 189.91 134.44 190.45C134.25 190.72 134.09 190.96 133.96 191.15C133.73 191.48 133.57 191.76 133.45 192.01H133.47Z" fill="#41748D"/>
<path d="M135.1 84.77H135.02L135.1 84.76V84.77ZM135.02 84.77C117.292 87.041 101.384 93.888 90.79 105.67C89.05 105.9 87.26 106.17 85.45 106.47C86.91 104.5 88.5 102.61 90.28 100.83C91.72 99.46 93.24 98.15 94.86 96.93C104.91 89.35 118.93 85.26 134.06 84.79C134.383 84.781 134.698 84.772 135.02 84.77ZM76.04 137.61C75.71 130 77.07 122.77 79.98 116.03C81.16 116.03 82.36 116.04 83.58 116.06C78.97 124.92 76.69 135.67 77.67 148.47C76.7514 144.913 76.2051 141.27 76.04 137.6V137.61ZM86.86 242.84C91.08 240.73 95.17 237.9 98.6 234.09C99.1 233.53 99.54 232.92 100.01 232.34C98.9 233.94 97.71 235.51 96.38 236.99C95.91 237.52 95.43 238.01 94.94 238.5C82.23 251.65 63.07 252.82 56.31 253.36C51.43 253.75 46.35 253.65 41.62 253.56C54.84 243.6 65.31 236.67 70.1 222.13C70.91 219.66 76.73 201 83.81 178.2L83.84 178.23L84.47 176.21C85.75 172.07 87.06 167.82 88.35 163.65C88.75 162.34 89.15 161.04 89.55 159.75C89.64 159.46 89.72 159.17 89.82 158.9C91.23 154.82 93.87 151.03 96.29 147.52C97.15 146.28 98.1 145.11 99.09 143.98C89.44 175.23 75.9 219 74.54 222.95C73.63 225.59 72.59 227.95 71.5 230.07C67.71 237.85 62.03 243.33 54.85 248.94C56.75 248.93 58.67 248.87 60.62 248.73C65.39 248.39 76.35 247.78 86.85 242.86L86.86 242.84ZM129.75 174.25L129.759 174.243L129.76 174.25H129.75ZM129.759 174.243L126.66 159.38L129.26 150.86L133.57 171.28C132.274 172.235 131.003 173.223 129.759 174.243ZM137.17 192.83C137.35 192.56 137.61 192.19 137.89 191.78L145.59 228.28L142 233.07L135.28 200.79L135.35 200.62C135.95 199 136.22 196.7 136.33 194.87C136.33 194.82 136.34 194.77 136.34 194.7C136.4 194.19 136.55 193.74 137.17 192.83ZM165.25 155.11C163.85 157 162.59 158.7 161.51 160.16L160.31 154.44C168.36 143.49 180.02 127.65 180.13 127.5C193.84 109.98 202.98 102.96 213.63 96.64C214.77 95.92 215.93 95.22 217.12 94.54C222.97 91.26 228.8 89.04 234.35 87.51C230.63 88.82 226.81 90.47 222.99 92.61C211.55 99.16 202.42 107.54 188.07 124.63L188.01 124.7C180.04 135.08 171.48 146.65 165.24 155.1L165.25 155.11ZM175.38 236.58H214L209.6 240.98L169.3 241.01L193.56 163.76L201.01 153.74L175.38 236.58Z" fill="#EF3340"/>
</svg>
