<svg width="300" height="300" viewBox="0 0 300 300" fill="none" xmlns="http://www.w3.org/2000/svg">
<path d="M209.12 257.11C206.58 220.62 189.03 197.13 160.28 177.11C159.38 196.6 159.28 213.69 159.98 225.65C160.58 236 165.53 242.29 173.61 248.88C163.13 251.27 132.42 250.82 121.95 247.54C123.15 246.65 136.1 239.47 137.23 216.08C138.02 199.27 138.12 186.86 137.53 166.35L136.31 161.09C122.31 150.78 110.11 140.17 94.39 123.2C108.77 161.25 90.5 208.57 88.41 225.95C87.7 231.79 85.85 243.63 86.45 255.76C81.97 253.06 63.83 241.23 55.16 229.85C80.47 186.56 98.74 144.04 59.05 105.39C66.55 94.15 77.63 84.11 86.46 79.77C95.77 106.57 116.12 127.85 130.81 137.12C119.56 95.47 105.17 81.86 96.05 77.21C102.02 63.19 121.81 48.6 132.3 44.87C127.5 60.44 127.09 70.63 131.84 87.25C136.63 104.03 144.13 124.4 152.51 139.68C157.01 131.89 172.89 98.94 177.07 84.56C181.28 70.18 181.28 57.3 179.47 48C188.61 52.64 208.23 71.07 212.73 80.06C203.14 82.14 198.65 87.06 192.96 96.81C187.11 106.86 172.29 144.76 164.05 161.08C172.74 168.58 187.86 178.01 199.84 192.4C186.67 140.56 200.14 101.16 217.52 89.36C225.61 91.74 235.93 98.33 243.44 106.13C215.27 117.96 217.08 153.91 216.93 156.59C215.65 177.21 223.96 213.84 239.57 222.77C242.96 224.72 243.3 224.85 245.08 225.65C242.09 229.24 224.41 246.64 209.14 257.11L209.212 257.047L209.12 257.11Z" fill="white"/>
</svg>
