<svg width="300" height="300" viewBox="0 0 300 300" fill="none" xmlns="http://www.w3.org/2000/svg">
<path d="M245.74 108.03V135.77C245.74 158.92 241.95 172.95 223.77 211.39C204.63 251.86 181.02 263.88 152.78 263.88C134.21 263.88 116.75 257.76 102.64 246.46L102.51 246.51L99.36 243.69L98.78 243.18C94.78 239.6 91.36 235.75 88.42 231.8C88.17 231.47 87.93 231.15 87.69 230.81C87.65 230.76 87.6 230.7 87.57 230.64C87.39 230.4 87.22 230.16 87.05 229.92C85.3686 227.545 83.8163 225.082 82.4 222.54C82.24 222.27 82.08 221.99 81.94 221.72C77.29 213.35 74.23 205.02 71.65 198.05C70.91 196.06 70.22 194.18 69.54 192.43C64.21 178.74 53.89 151.98 48.9 138.5C43.71 124.5 42.91 114.56 46.24 105.27C49.8 95.32 57.76 87.36 68.62 78.48C79.5 69.58 88.83 62.19 101.73 52.87C109.81 47.04 118.47 43.95 126.79 43.95C130.31 43.95 133.64 44.52 136.69 45.63C137.24 45.83 137.84 46.05 138.63 46.35C141.43 47.41 143.92 48.85 146.07 50.62C146.29 50.49 146.5 50.37 146.71 50.24C152.64 46.78 159.29 44.95 165.95 44.95C171.22 44.95 176.37 46.09 180.88 48.24C181.85 48.71 182.42 48.99 183.07 49.34C183.39 49.5 183.73 49.68 184.2 49.93C187.74 51.74 190.78 54.06 193.24 56.76C197.18 55.44 201 54.77 204.65 54.77C210.21 54.77 215.4 56.29 220.1 59.28L221.22 59.99C223.36 61.36 224.45 62.04 226.11 63.21C238.84 72.02 245.73 81.77 245.73 108.03" fill="#FFC72C"/>
<path d="M221.42 70C219.63 68.76 218.59 68.11 215.67 66.25C210 62.63 202.48 61.44 192.22 66.03C191.54 66.33 190.91 66.61 190.28 66.89C188 62.21 183.95 59.08 180.45 57.29C179.01 56.55 178.62 56.32 177.32 55.7C170.35 52.37 160.29 51.89 150.88 57.38C148.99 58.48 146.51 59.95 144.39 61.2C142.22 57.49 138.87 55.26 135.73 54.08C134.98 53.8 134.4 53.59 133.87 53.4C126.93 50.87 116.78 52.21 106.58 59.57C94.43 68.35 85.52 75.33 73.87 84.87C52.56 102.31 48.03 112.33 56.67 135.64C61.42 148.45 71.49 174.6 77.26 189.45C80.57 197.96 84.03 208.99 90.27 219.64C90.84 220.61 91.43 221.58 92.06 222.55C92.22 222.8 92.4 223.05 92.56 223.3C95.4 227.61 98.77 231.77 102.83 235.64C103.15 235.95 103.48 236.27 103.81 236.57C103.98 236.72 104.13 236.88 104.3 237.03L104.32 237.01C117.04 248.59 133.88 255.63 152.79 255.63C187.48 255.63 215.6 227.5 215.6 192.83V192.76C215.6 159.65 188.76 132.81 155.65 132.81C137.66 132.81 119.59 143.21 108.93 159.61C104.4 148.52 94.7 124.79 87.4 107.01C83.47 97.44 84.37 92.6 90.38 87.03C93.45 84.19 97.18 81.34 101.32 78.53C105.55 75.66 110.32 77.35 110.32 82.95V142.2C119.98 132.45 131.83 126.1 147.01 123.3L146.78 74.39C147.86 73.72 148.87 73.1 149.63 72.66C153.5 70.41 156.27 72.9 156.27 76.51V122.04C156.51 122.04 156.75 122.03 156.99 122.03C169.78 122.03 181.77 125.51 192.09 131.54V80.5C193.06 80.11 193.97 79.74 194.67 79.46C198.55 77.92 201.17 80.32 201.17 83.83C201.17 87.34 200.9 137.94 200.9 137.94C215.15 149.69 224.4 166.99 225.85 186.5C232.65 172.03 237.49 158.56 237.49 135.77V108.03C237.49 84.93 232.25 77.49 221.43 70M155.1 157.41C175.1 157.41 191.3 173.62 191.3 193.61C191.3 213.6 175.09 229.81 155.1 229.81C135.11 229.81 118.9 213.6 118.9 193.61C118.9 173.62 135.11 157.41 155.1 157.41Z" fill="#13294B"/>
<path d="M127.64 193.62C127.64 187.05 129.95 181.02 133.81 176.28C141.49 186.51 141.49 200.71 133.81 210.95C129.95 206.21 127.64 200.19 127.64 193.62ZM138.61 215.57C148.71 202.73 148.71 184.49 138.61 171.65C143.2 168.19 148.91 166.13 155.09 166.13C161.27 166.13 166.98 168.19 171.57 171.65C161.47 184.49 161.47 202.73 171.57 215.57C166.825 219.156 161.038 221.094 155.09 221.09C148.91 221.09 143.2 219.03 138.61 215.57ZM176.38 210.95C168.7 200.72 168.7 186.52 176.38 176.28C180.24 181.02 182.56 187.05 182.56 193.62C182.56 200.19 180.24 206.22 176.38 210.95Z" fill="white"/>
</svg>
