<svg xmlns="http://www.w3.org/2000/svg" fill="none" viewBox="0 0 600 361"><g clip-path="url(#a)"><path fill="#fff" stroke="#111" d="M599.5.5v359.015H.5V.5z"/><path fill="#0060a8" d="M375.406 229.054c-26.106 42.359-82.848 53.506-124.56 26.393-41.711-27.112-53.434-82.847-26.321-124.559-25.962 42.071 29.917 95.865 75.44 49.119 45.524-46.746 101.403 6.976 75.441 49.047"/><path fill="#ec1c2e" d="M224.525 130.889c26.106-42.36 82.848-53.506 124.56-26.394 41.639 27.113 53.434 82.848 26.321 124.56 25.962-42.071-29.917-95.865-75.44-49.119-45.524 46.745-101.403-6.976-75.441-49.047"/><path fill="#000" d="m410.215 257.974-22.898 34.347 12.507 8.337 22.898-34.347zM437.215 217.347l-22.88 34.36 12.511 8.33 22.88-34.359zM428.926 270.316l-22.892 34.351 12.508 8.336 22.892-34.351zM455.969 229.809l-22.91 34.339 12.443 8.302 22.91-34.339zM447.616 282.88l-22.88 34.359 12.451 8.291 22.88-34.359zM474.681 242.305l-22.892 34.351 12.508 8.335 22.892-34.351zM162.676 34.368l-49.892 74.866 12.508 8.335 49.892-74.866zM181.444 46.839l-49.866 74.884 12.511 8.331 49.865-74.884zM200.143 59.35l-49.905 74.858 12.506 8.337 49.905-74.857zM143.912 229.857l-12.503 8.342 22.91 34.339 12.503-8.341zM170.973 270.43l-12.51 8.331 22.88 34.359 12.511-8.331zM162.656 217.443l-12.446 8.297 49.905 74.858 12.446-8.298zM125.2 242.369l-12.451 8.291 49.866 74.883 12.451-8.291zM418.65 46.85l-12.51 8.33 49.865 74.884 12.511-8.33zM437.31 34.403l-12.503 8.341 22.91 34.34 12.503-8.342zM464.275 75.04l-12.444 8.302 22.91 34.339 12.444-8.302zM399.86 59.357l-12.507 8.335 22.892 34.352 12.507-8.336zM426.937 99.9l-12.503 8.342 22.91 34.339 12.503-8.342z"/></g><defs><clipPath id="a"><path fill="#fff" d="M0 0h600v360.014H0z"/></clipPath></defs></svg>