<?xml version="1.0" encoding="UTF-8"?><svg id="Layer_2" xmlns="http://www.w3.org/2000/svg" viewBox="0 0 83.38 50.05"><defs><style>.cls-1,.cls-2,.cls-3,.cls-4{fill:none;}.cls-5,.cls-6,.cls-7{fill:#005a9b;}.cls-8,.cls-9,.cls-10,.cls-11{fill:#fff;}.cls-12,.cls-13,.cls-14{fill:#ed1c2e;}.cls-15,.cls-16{fill:#ffcf46;}.cls-9,.cls-17,.cls-6,.cls-2,.cls-13,.cls-10,.cls-18,.cls-3,.cls-7,.cls-19,.cls-14,.cls-11,.cls-16,.cls-4{stroke:#000;}.cls-9,.cls-17,.cls-6,.cls-2,.cls-13,.cls-10,.cls-18,.cls-3,.cls-4{stroke-linecap:round;stroke-linejoin:round;}.cls-9,.cls-2{stroke-width:.01px;}.cls-17{fill:#549433;}.cls-17,.cls-6,.cls-13,.cls-10,.cls-18,.cls-3,.cls-7,.cls-19,.cls-14,.cls-11,.cls-16{stroke-width:.01px;}.cls-19{fill:#9a6b37;}.cls-4{stroke-width:0px;}</style></defs><g id="DESIGN"><g><g><g><rect class="cls-12" x="41.7" width="41.68" height="25.01"/><rect class="cls-12" x=".02" y="25.01" width="41.68" height="25.01"/></g><g><rect class="cls-5" x=".02" width="41.68" height="25.01"/><rect class="cls-5" x="41.7" y="25.01" width="41.68" height="25.01"/></g><polygon class="cls-8" points="46.91 50.02 46.91 30.01 83.38 30.01 83.38 20.01 46.91 20.01 46.91 0 36.49 0 36.49 20.01 .02 20.01 .02 30.01 36.49 30.01 36.49 50.02 46.91 50.02"/><g><g><g><path class="cls-7" d="M41.7,21.33h-3.11l.54,.53v2.69h2.57v-3.22Z"/><path class="cls-7" d="M41.7,27.74c.42-.46,.7-.44,1.87-.44,.63,0,.7-.43,.7-1.25v-1.5h-2.57v3.19Z"/></g><g><path class="cls-14" d="M41.7,27.74c-.41-.46-.7-.44-1.87-.44-.63,0-.7-.43-.7-1.25v-1.5h2.57v3.19Z"/><path class="cls-14" d="M41.7,21.33h3.12l-.55,.53v2.69h-2.57v-3.22Z"/></g><g><path class="cls-11" d="M42.15,27.4v-6.07h-.89v6.07c.15,.05,.31,.17,.44,.33,.12-.14,.3-.28,.45-.33Z"/><rect class="cls-11" x="39.13" y="24.1" width="5.14" height=".89"/></g><path class="cls-7" d="M41.7,23.95l1.69-1.8v.54l.31-.26v3.01c0,1.12-1.76,1.01-2,.49-.24,.52-2,.63-2-.49v-3.01l.31,.26v-.54l1.69,1.8Z"/><path class="cls-11" d="M41.7,25.88c-.81,.44-1.33,.09-1.33-.32v-.52c-.31,0-.67-.16-.67-.26v-.44c0,.13,.53,.25,.67,.25v-1.56l.29,.23v-.41l.44,.46v.32l-.29-.25v1.31c.3,0,.54,.18,.89,.18s.59-.18,.89-.18v-1.31l-.29,.25v-.32l.44-.46v.41l.29-.23v1.56c.14,0,.67-.12,.67-.25v.44c0,.1-.35,.26-.67,.26v.52c0,.42-.53,.76-1.34,.32v-.45c.44,.25,.89,.31,.89,.04v-.32c-.3,0-.54,.18-.89,.18s-.59-.18-.89-.18v.32c0,.27,.46,.21,.89-.04v.45Z"/><path class="cls-14" d="M42.3,23.32v.32l.29-.25v1.31c-.3,0-.54,.18-.89,.18s-.59-.18-.89-.18v-1.31l.29,.25v-.32l.6,.64,.6-.64Z"/><path class="cls-14" d="M39.7,24.78v.66c0,1.12,1.76,1.01,2,.49,.24,.52,2,.63,2-.49v-.66c0,.1-.35,.26-.67,.26v.52c0,.42-.53,.76-1.34,.32-.81,.44-1.33,.09-1.33-.32v-.52c-.31,0-.67-.16-.67-.26Z"/></g><path class="cls-6" d="M42.38,20.26c.03-.08,.06-.2,.09-.31-.23-.03-.51-.05-.77-.05s-.54,.02-.77,.05c.03,.11,.06,.22,.09,.31,.02,.06-.1,.21-.54,.19-.37-.02-.91,.01-1.39,.09,.08,.12,.11,.15,.1,.24,0,.11-.26,.2-.69,.27-.44,.06-.6,.51-.75,1.16-.17-.07-.44-.14-.61-.17,.1-.42,.44-1.37,.86-1.47-.1-.23-.08-.34,.31-.53,.43-.2,1.14-.32,1.94-.35-.05-.19,0-.27,.25-.37,.21-.09,.55-.16,1.2-.16s.99,.07,1.2,.16c.25,.11,.3,.18,.25,.37,.79,.03,1.51,.15,1.94,.35,.39,.18,.42,.3,.31,.53,.42,.1,.76,1.05,.86,1.47-.17,.03-.44,.1-.61,.17-.15-.65-.32-1.1-.75-1.16-.44-.06-.68-.16-.69-.27,0-.09,.02-.12,.1-.24-.47-.08-1.02-.12-1.39-.09-.44,.03-.55-.13-.54-.19Z"/><g><path class="cls-15" d="M40.74,19.38l.02,.15h.07s-.01-.09-.01-.09c0,0,.04,0,.07-.01,.03,0,.06,0,.06,.05,0,.04-.01,.08-.04,.08-.03,0-.07,0-.07,0v-.05s-.08,0-.08,0l.04,.27h.07s-.02-.16-.02-.16c0,0,.05,0,.09-.01,.06-.01,.09-.09,.08-.16-.01-.08-.06-.12-.12-.11-.09,.01-.15,.02-.15,.02Z"/><polygon class="cls-15" points="41.27 19.66 41.3 19.74 41.37 19.74 41.23 19.32 41.14 19.32 41.06 19.76 41.13 19.75 41.14 19.66 41.21 19.66 41.2 19.59 41.16 19.59 41.19 19.42 41.25 19.59 41.2 19.59 41.21 19.66 41.27 19.66"/><polygon class="cls-15" points="41.55 19.73 41.55 19.37 41.66 19.37 41.66 19.3 41.38 19.3 41.38 19.37 41.48 19.37 41.48 19.73 41.55 19.73"/><path class="cls-15" d="M41.76,19.3v.12s.07,0,.07,0v-.05s.07,0,.09,0c.03,0,.05,.02,.05,.06,0,.04-.02,.06-.04,.06s-.1,0-.1,0v-.07s-.07,0-.07,0v.31s.07,0,.07,0v-.16s.04,0,.07,0c.04,0,.06,.01,.06,.07,0,.05,0,.1,0,.1h.07s0-.09,0-.12c0-.05-.03-.09-.05-.09,.02,0,.06-.04,.06-.1,0-.06-.03-.12-.08-.12-.05,0-.2,0-.2,0Z"/><polygon class="cls-15" points="42.19 19.74 42.22 19.32 42.14 19.31 42.11 19.74 42.19 19.74"/><polygon class="cls-15" points="42.5 19.69 42.51 19.78 42.58 19.79 42.51 19.35 42.43 19.35 42.27 19.75 42.34 19.76 42.37 19.68 42.43 19.69 42.44 19.62 42.39 19.61 42.46 19.44 42.49 19.62 42.44 19.62 42.43 19.69 42.5 19.69"/><path class="cls-15" d="M38.53,20.08s.09-.02,.13-.03c.04-.01,.15-.02,.19,.16,.03,.11,0,.23-.08,.25-.08,.02-.14,.03-.14,.03l-.05-.22,.07-.02,.03,.14s.03,0,.06-.01c.02,0,.08-.03,.05-.16-.03-.12-.09-.12-.11-.11-.01,0-.06,.01-.06,.01l.03,.13-.07,.02-.05-.2Z"/><polygon class="cls-15" points="39.05 20.41 38.99 19.98 38.92 19.99 38.98 20.42 39.05 20.41"/><path class="cls-15" d="M39.29,20.29c-.06,0-.1-.05-.11-.14-.01-.09,.02-.15,.08-.16s.1,.05,.11,.14c.01,.09-.02,.15-.08,.16v.07c.11-.01,.16-.11,.15-.24-.02-.13-.09-.21-.19-.2-.1,.01-.15,.11-.14,.24,.02,.13,.09,.22,.19,.2v-.07Z"/><path class="cls-15" d="M39.76,19.99c0-.07-.06-.13-.16-.12-.1,.01-.12,.1-.11,.15,0,.05,.03,.1,.15,.11,.05,0,.08,.02,.08,.05,0,.03-.02,.06-.06,.07-.04,0-.08-.01-.09-.06h-.07c0,.06,.05,.14,.15,.13,.1-.01,.14-.08,.13-.16-.01-.09-.07-.1-.14-.11-.08,0-.09-.03-.09-.05,0-.02,0-.05,.05-.06,.05,0,.08,.01,.09,.05h.07Z"/><path class="cls-15" d="M43.1,19.88v.33h.16v.08h-.23v-.2c.02-.05,.06-.15,.07-.2Z"/><rect class="cls-15" x="43.32" y="19.87" width=".07" height=".43"/><path class="cls-15" d="M43.47,20.3s.1,0,.16,0c.09,0,.12-.07,.12-.12,0-.05-.01-.08-.03-.1,.02-.02,.04-.06,.04-.09,0-.07-.06-.11-.12-.12-.1,0-.14,0-.14,0v.12s.07,0,.07,0v-.04s.07,0,.09,0c.03,0,.04,.03,.04,.05,0,.01-.01,.04-.04,.04-.03,0-.09,0-.09,0v-.05s-.07,0-.07,0v.17s.06,0,.06,0v-.05s.07,0,.1,0c.03,0,.04,.02,.04,.06,0,.04-.02,.06-.04,.05-.02,0-.1,0-.1,0v-.06s-.07,0-.07,0v.14Z"/><polygon class="cls-15" points="44.08 19.92 43.83 19.9 43.79 20.32 44.04 20.35 44.05 20.28 43.87 20.26 43.88 20.15 44.04 20.16 44.05 20.08 43.89 20.07 43.9 19.98 44.08 19.99 44.08 19.92"/><path class="cls-15" d="M44.15,19.93v.12s.06,0,.06,0v-.05s.07,0,.1,.01c.03,0,.04,.03,.04,.06,0,.03-.03,.06-.05,.05-.02,0-.1-.02-.1-.02v-.07s-.06,0-.06,0l-.04,.31h.07s.02-.15,.02-.15c0,0,.04,0,.07,.01,.04,0,.06,.02,.05,.07,0,.05-.01,.1-.01,.1h.07s.01-.08,.02-.11c0-.05-.01-.09-.04-.09,.02,0,.07-.03,.07-.09,0-.06-.01-.13-.06-.13-.05,0-.2-.03-.2-.03Z"/><polygon class="cls-15" points="44.54 20.44 44.62 20.09 44.72 20.12 44.74 20.05 44.47 19.99 44.45 20.06 44.56 20.08 44.48 20.43 44.54 20.44"/><polygon class="cls-15" points="44.85 20.44 44.85 20.53 44.91 20.55 44.93 20.11 44.86 20.08 44.62 20.45 44.68 20.47 44.73 20.4 44.79 20.42 44.81 20.35 44.77 20.34 44.87 20.19 44.86 20.36 44.81 20.35 44.79 20.42 44.85 20.44"/><path class="cls-15" d="M45.14,20.18s.08,.04,.12,.06c.04,.02,.12,.08,.04,.24-.05,.1-.14,.18-.22,.14-.07-.04-.13-.07-.13-.07l.1-.2,.06,.03-.07,.13s.03,.02,.05,.03c.02,0,.08,.03,.14-.09,.06-.11,0-.15-.02-.16-.01,0-.06-.03-.06-.03l-.06,.12-.06-.03,.09-.18Z"/></g><g><path class="cls-3" d="M37.08,22.39c.02-.13,.04-.26,.07-.37"/><path class="cls-3" d="M37.15,22.4c.02-.13,.04-.25,.07-.37"/><path class="cls-3" d="M37.22,22.41c.02-.13,.04-.25,.07-.36"/><path class="cls-3" d="M37.28,22.42c.02-.12,.04-.24,.07-.35"/><path class="cls-3" d="M37.35,22.43c.02-.12,.04-.24,.07-.34"/><path class="cls-3" d="M37.42,22.44c.02-.12,.04-.23,.07-.33"/><path class="cls-3" d="M37.49,22.45c.02-.11,.04-.22,.07-.32"/><path class="cls-3" d="M37.56,22.46c.02-.11,.04-.22,.06-.32"/><path class="cls-3" d="M37.63,22.47c.02-.11,.04-.21,.06-.31"/><path class="cls-3" d="M37.7,22.48c.02-.1,.04-.2,.06-.3"/><path class="cls-3" d="M46.33,22.39c-.02-.13-.04-.26-.08-.37"/><path class="cls-3" d="M46.26,22.4c-.02-.13-.04-.25-.07-.37"/><path class="cls-3" d="M46.19,22.41c-.02-.13-.04-.25-.07-.36"/><path class="cls-3" d="M46.13,22.42c-.02-.12-.04-.24-.07-.35"/><path class="cls-3" d="M46.06,22.43c-.02-.12-.04-.24-.07-.34"/><path class="cls-3" d="M45.99,22.44c-.02-.12-.04-.23-.07-.33"/><path class="cls-3" d="M45.92,22.45c-.02-.11-.04-.22-.07-.32"/><path class="cls-3" d="M45.85,22.46c-.02-.11-.04-.22-.06-.32"/><path class="cls-3" d="M45.78,22.47c-.02-.11-.04-.21-.06-.31"/><path class="cls-3" d="M45.71,22.48c-.02-.1-.04-.2-.06-.3"/><path class="cls-3" d="M40.94,19.95c-.33,.04-.57,.11-.5,.2"/><path class="cls-3" d="M38.72,21.01c-.58,.09-1.16-.15-1.4,.49"/><path class="cls-3" d="M39.2,20.78s0-.03,0-.04c-.05-.12-.39,0-.54,.07-.15,.08-.39,.23-.46,.12-.07-.12,.18-.2,.39-.27,.15-.05,.32-.09,.51-.12"/><path class="cls-3" d="M41.03,20.26c-.03-.1-.19-.12-.37-.07-.25,.07-.26-.09-.35-.32-.02-.06-.04-.12-.06-.17"/><path class="cls-3" d="M38,20.57s.02,.04,.03,.06c.13,.27,.15,.33,.23,.34"/><path class="cls-3" d="M42.47,19.95c.33,.04,.57,.11,.5,.2"/><path class="cls-3" d="M44.69,21.01c.58,.09,1.16-.15,1.4,.49"/><path class="cls-3" d="M44.21,20.78s0-.03,0-.04c.05-.12,.39,0,.54,.07,.15,.08,.39,.23,.46,.12,.07-.12-.18-.2-.39-.27-.15-.05-.32-.09-.51-.12"/><path class="cls-3" d="M42.38,20.26c.03-.1,.19-.12,.37-.07,.25,.07,.27-.09,.35-.32,.02-.06,.04-.12,.06-.17"/><path class="cls-3" d="M45.41,20.57s-.02,.04-.03,.06c-.13,.27-.15,.33-.23,.34"/></g><g><g><polygon class="cls-19" points="41.7 24.1 43.77 22.33 43.82 22.39 41.7 24.2 41.7 24.1"/><polygon class="cls-19" points="41.7 23.91 43.45 22.01 43.51 22.06 41.7 24.01 41.7 23.91"/><polygon class="cls-19" points="41.7 23.65 43.09 21.73 43.15 21.77 41.7 23.77 41.7 23.65"/><polygon class="cls-19" points="41.71 24.1 39.64 22.33 39.59 22.39 41.71 24.2 41.71 24.1"/><polygon class="cls-19" points="41.71 23.91 39.96 22.01 39.91 22.06 41.71 24.01 41.71 23.91"/><polygon class="cls-19" points="41.71 23.65 40.32 21.73 40.26 21.77 41.71 23.77 41.71 23.65"/></g><g><path class="cls-16" d="M43.74,22.31l.3-.16-.2,.27s-.11-.1-.1-.11Z"/><path class="cls-16" d="M43.42,21.99l.28-.19-.17,.29s-.12-.09-.11-.1Z"/><path class="cls-16" d="M43.06,21.71l.25-.22-.13,.31s-.13-.07-.12-.09Z"/><path class="cls-16" d="M39.67,22.31l-.3-.16,.2,.27s.11-.1,.1-.11Z"/><path class="cls-16" d="M39.99,21.99l-.28-.19,.17,.29s.12-.09,.11-.1Z"/><path class="cls-16" d="M40.35,21.71l-.25-.22,.13,.31s.13-.07,.12-.09Z"/></g></g><polygon class="cls-16" points="41.81 23.77 41.81 22.87 42.03 22.87 42.03 22.67 41.81 22.67 41.81 22.37 41.6 22.37 41.6 22.67 41.38 22.67 41.38 22.87 41.6 22.87 41.6 23.77 41.81 23.77"/><g><path class="cls-13" d="M41.99,24.96c.03,.46,.34,1.02,.36,1.29-.04-.03-.12,.03-.15,.03,.03,.14,.05,.27,.04,.4-.12-.07-.21-.05-.26,0-.05,.22-.14,.43-.27,.65,.02-.15-.17-.48-.46-.89-.24-.33-.05-1.16,.26-1.65-.04-.03,0-.11,.1-.22,.1-.1,.22-.09,.35-.07,.12,.02,.26,.1,.2,.25-.08,.22-.16,.24-.16,.21Z"/><path class="cls-10" d="M41.8,24.72c-.44,.69,.12,1.89-.1,2.6,.02-.15-.17-.48-.46-.89-.23-.33-.05-1.16,.26-1.65,.02-.05,.14-.1,.3-.06Z"/><path class="cls-6" d="M41.5,24.78c-.31,.49-.5,1.31-.26,1.65,.09,.13,.17,.25,.24,.36-.09-.51-.21-1.36,.27-2.08-.06,0-.19-.02-.25,.07Z"/><path class="cls-3" d="M41.5,24.78c.07-.09,.21-.09,.34-.06,.06,.02,.12,.04,.15,.08,0,.03,0,.11,0,.15"/><path class="cls-3" d="M41.98,26.67c.05-.22,.05-.46,0-.74-.07-.42-.1-.85-.02-1.15"/><path class="cls-3" d="M41.99,24.96c.04-.06,.04-.11,0-.15"/><path class="cls-3" d="M41.97,24.79c-.12,.45,.14,1,.24,1.5"/></g><g><path class="cls-18" d="M41.65,23.55c.12-.13,.39-.24,.52-.13l.31,.97c-.11,.01-.26,.05-.3,.1-.04,.04-.14,.08-.18,.07-.04,.02-.12,.08-.21,.06-.11-.02-.19,.03-.34,.12l-.33-.98,.08-.1c.08-.07,.31-.18,.44-.11Z"/><path class="cls-9" d="M41.21,23.65c.08-.07,.31-.18,.44-.11,.1-.12,.35-.22,.49-.15l.29,.88c-.08,.05-.24,.03-.34,.09-.03,.02-.11,.06-.12,.09-.05-.02-.16,0-.24,.02-.07,.02-.12,.09-.21,.11l-.31-.93"/><line class="cls-2" x1="41.65" y1="23.55" x2="41.96" y2="24.46"/><path class="cls-4" d="M41.61,23.62c-.1,0-.24,.04-.31,.09"/><path class="cls-4" d="M41.65,23.73c-.1,0-.24,.05-.31,.09"/><path class="cls-4" d="M41.69,23.85c-.09,0-.24,.05-.31,.09"/><path class="cls-4" d="M41.73,23.97c-.09,0-.25,.05-.31,.09"/><path class="cls-4" d="M41.77,24.09c-.09,0-.25,.05-.31,.09"/><path class="cls-4" d="M41.81,24.2c-.08,0-.25,.05-.31,.1"/><path class="cls-4" d="M41.85,24.32c-.08,0-.25,.05-.31,.1"/><path class="cls-4" d="M41.74,23.58c.09-.07,.26-.13,.36-.12"/><path class="cls-4" d="M41.78,23.7c.08-.07,.26-.13,.36-.12"/><path class="cls-4" d="M41.82,23.81c.08-.07,.25-.13,.35-.12"/><path class="cls-4" d="M41.86,23.93c.08-.07,.25-.13,.35-.12"/><path class="cls-4" d="M41.9,24.05c.08-.07,.24-.12,.35-.12"/><path class="cls-4" d="M41.94,24.17c.08-.07,.24-.12,.34-.12"/><path class="cls-4" d="M41.98,24.28c.08-.07,.23-.12,.34-.12"/></g><g><path class="cls-17" d="M44.45,28.38c.27,0,.62,.07,.73,.11-.11-.09-.28-.18-.47-.24,.24,.04,.3,.08,.47,.12,.11,.03,.13,.04,.13,.21,0,.11,0,.25,.07,.02,.06-.2,.08-.23-.03-.3-.12-.08-.26-.15-.42-.22,.31,.08,.57,.18,.72,.28-.08-.12-.2-.26-.38-.37,.18,.04,.42,.14,.59,.23-.08-.11-.22-.29-.39-.37,.28,.06,.57,.15,.73,.24-.15-.2-.33-.38-.56-.45,.31,.04,.6,.13,.73,.21-.18-.17-.37-.35-.55-.41,.25,.03,.49,.1,.62,.16-.17-.17-.46-.31-.73-.36,.19,0,.44,.02,.64,.06-.17-.11-.46-.19-.6-.18,.31-.07,.66-.06,1.05,.07-.16-.1-.45-.22-.72-.28,.15,0,.38-.05,.52-.03-.15-.05-.53-.13-.7-.12,.31-.09,.61-.15,.8-.19-.32-.02-.69,0-1.01,.06,.36-.3,.62-.3,.85-.34,.23-.04,.41-.09,.17-.12-.16-.02-.28-.03-.39-.03,.25-.08,.57-.24,.68-.29,.11-.06,.37-.24,.09-.12-.28,.13-.68,.14-1.04,.19-.15,.02-.27,.05-.37,.11,.2-.11,.41-.23,.64-.34,.23-.11,.18-.15,.38,.08,.1,.11,.09,0-.03-.29-.1-.22-.19-.12-.41-.03-.08,.03-.19,.08-.31,.14,.13-.15,.57-.66,.64-.75,.07-.09,.19,.02,.34,.11,.15,.1,.1,0-.04-.15-.14-.16-.2-.18-.29-.11-.09,.08-.53,.36-.77,.59,.45-.43,.97-.91,1.09-1.04-.26,.14-.49,.29-.69,.45,.07-.1,.2-.29,.27-.37-.1,.07-.25,.15-.33,.22,.12-.21,.25-.41,.26-.45,.03-.05,.06-.07,.1-.07,.04,0,.1,0,.23-.02,.13,0,.08-.04,.02-.05-.36-.09-.34-.05-.42,.02-.06,.06-.14,.15-.22,.26,.09-.28,.36-.54,.41-.62-.28,.15-.43,.28-.53,.41,.13-.21,.53-.53,.65-.65-.13,.05-.39,.18-.46,.26,.07-.12,.13-.24,.19-.37-.22,.14-.38,.33-.51,.54,.01-.05,.03-.13,.06-.2,.07-.14,.26-.33,.37-.44,.1-.11,.12-.14,.41,.04-.04-.12-.1-.21-.15-.28-.09-.12-.13-.07-.24,.02-.06,.05-.12,.12-.24,.22,.13-.32,.27-.66,.35-.88-.21,.2-.37,.48-.5,.79,.01-.22,.13-.68,.11-.91-.1,.12-.2,.33-.25,.57,0-.25,0-.55-.07-.72,.02,.15-.14,.5-.18,.74-.1-.23-.21-.46-.27-.61,0,.12,.04,.4,.09,.73-.08-.25-.37-.52-.38-.72-.01,.29,.2,.79,.22,.93,0,.04,.02,.11,.04,.19-.1-.16-.34-.45-.41-.65,0,.12,.05,.33,.07,.46-.13-.12-.21-.05-.43,.36,.07-.02,.15-.11,.21-.15,.06-.04,.12-.08,.18,.02,.08,.14,.3,.44,.42,.83-.04-.11-.24-.37-.31-.49,.01,.06,.05,.24,.08,.35-.1-.27-.2-.46-.28-.56,0,.13,.09,.5,.11,.66-.06-.14-.12-.25-.17-.36,.04,.11,.09,.48,.09,.66-.09-.15-.17-.27-.23-.36,.05,.15,.1,.46,.1,.63-.03-.06-.06-.1-.07-.13-.1-.16-.17,.13-.23,.28-.06,.15-.03,.13,.04,.03,.11-.16,.09-.14,.16,.03,.04,.11,.15,.35,.24,.68-.09-.14-.21-.33-.28-.48-.07-.14-.07-.13,0,.15,.05,.18,.16,.53,.12,.89-.06-.23-.15-.51-.24-.76,.01,.16,.03,.45,.03,.58-.04-.07-.08-.13-.14-.18,.07,.21,.08,.58,.08,.82-.04-.15-.09-.29-.13-.37,0,.17,.04,.56,.08,.74-.04-.14-.09-.28-.15-.39,.03,.19,.04,.5,0,.7-.01-.1-.04-.2-.08-.31-.01,.1-.04,.37-.11,.49,.04-.18,.04-.34,.03-.43-.05,.19-.12,.36-.2,.51,.02-.09,.06-.26,.07-.43-.03,.11-.1,.19-.14,.28,.02-.15,.02-.27,.02-.33-.08,.25-.19,.43-.33,.64,.08-.21,.1-.42,.1-.55-.13,.23-.14,.33-.35,.6,.11-.23,.09-.42,.07-.53-.02,.06-.09,.23-.19,.42-.02-.13,.01-.46,.05-.55-.09,.06-.21,.23-.21,.37-.03-.14-.08-.25-.16-.34,.07,.45,.04,.84-.23,1.03-.61,.4-1.12,1.28-1.86,1.6,.05,.03,.17,.13,.23,.2,.71-.31,1.18-1.02,1.73-1.41,.26-.14,.86,.17,1.51,0,.26-.07,.75,.08,.97,.17-.1-.14-.3-.26-.66-.33Z"/><path class="cls-3" d="M45.05,26.95c.17-.14,.42-.28,.63-.31"/><path class="cls-3" d="M44.74,27.71c.26-.27,.6-.5,1.01-.59"/><path class="cls-3" d="M46.08,26.91c-.22-.05-.44-.06-.58,0"/><path class="cls-3" d="M45.29,27.42c.17-.02,.36-.01,.53,.01"/><path class="cls-3" d="M45.42,27.24c.06,0,.17,0,.29,0"/><path class="cls-3" d="M44.69,27.37c.09-.17,.2-.48,.26-.75,.01,.19,0,.58-.18,.93"/><path class="cls-3" d="M44.1,27.96c.21-.08,.56-.1,.79-.03-.15-.1-.31-.19-.57-.18"/><path class="cls-3" d="M42.9,27.44c.02,.09,.03,.19,.03,.29"/><path class="cls-3" d="M42.71,28.11c.13-.13,.26-.31,.35-.49"/><path class="cls-3" d="M42.87,28.14c.16-.14,.26-.27,.32-.4"/><path class="cls-3" d="M43.75,27.39c-.03,.19-.1,.52-.35,.74"/><path class="cls-3" d="M43.44,27.69c-.04,.1-.09,.19-.16,.27"/><path class="cls-3" d="M43.63,27.83c.06-.08,.13-.18,.19-.29"/><path class="cls-3" d="M43.68,28.12c.2-.21,.28-.5,.31-.66"/><path class="cls-3" d="M44.64,26.13c.06,.2,.13,.5,.13,.75"/><path class="cls-3" d="M44.43,25.96c.12,.24,.25,.91,.17,1.49"/><path class="cls-3" d="M44.38,26.6c.03,.13,.16,.58,.12,.85"/><path class="cls-3" d="M44.33,26.97c.05,.2,.08,.45,.04,.67"/><path class="cls-3" d="M44.17,27.28c.02,.19-.05,.59-.26,.84"/><path class="cls-3" d="M45.08,26.04c0-.56-.29-1.11-.41-1.35"/><path class="cls-3" d="M45.05,24.01c.14,.37,.36,.87,.29,1.61"/><path class="cls-3" d="M44.88,24.11c.13,.3,.33,.75,.35,1.24"/><path class="cls-3" d="M44.8,24.41c.17,.29,.38,.77,.37,1.31"/><path class="cls-3" d="M44.8,25.57c.07,.24,.15,.57,.14,.92"/><path class="cls-3" d="M45.51,24.3c-.1-.46-.23-.7-.45-.99-.07-.09-.12-.16-.17-.2"/><path class="cls-3" d="M45.28,24.16c.07,.23,.19,.52,.14,.8"/><path class="cls-3" d="M45.24,23.28c.04,.16,.09,.37,.12,.5"/><path class="cls-3" d="M45.57,23.93c-.09-.33-.16-.72-.21-1.05"/><path class="cls-3" d="M45.75,23.54c.01-.19-.1-.49-.22-.78"/><path class="cls-3" d="M45.78,22.74c0,.11,0,.21,0,.28"/><path class="cls-3" d="M45.61,24.02c.09-.32,.19-.64,.31-.94"/><path class="cls-3" d="M45.92,23.61c.04-.13,.1-.28,.16-.44"/><path class="cls-3" d="M45.54,24.53c.1-.26,.19-.5,.32-.72"/><path class="cls-3" d="M45.49,24.96c.13-.33,.17-.65,.37-.88,.12-.14,.22-.29,.32-.45"/><path class="cls-3" d="M45.73,24.55c.1-.22,.14-.37,.26-.53"/><path class="cls-3" d="M45.51,25.16c.12-.25,.38-.63,.59-.91"/><path class="cls-3" d="M45.97,24.89c.04-.1,.11-.22,.17-.34"/><path class="cls-3" d="M45.44,25.46c.17-.23,.43-.5,.76-.76"/><path class="cls-3" d="M45.29,25.9c.16-.22,.34-.45,.52-.62"/><path class="cls-3" d="M45.29,26.09c.2-.22,.45-.39,.65-.5"/><path class="cls-3" d="M45.15,26.49c.22-.25,.36-.38,.5-.46"/><path class="cls-3" d="M44.96,27.22c.21-.2,.58-.35,.94-.46"/><path class="cls-3" d="M45.16,26.71c.29-.26,.65-.58,1.15-.56"/><path class="cls-3" d="M44.94,27.68c.19-.08,.45-.08,.69-.05"/><path class="cls-3" d="M45.05,27.8c.11,0,.26,.02,.41,.05"/><path class="cls-3" d="M45.27,27.99c-.08-.05-.18-.1-.29-.13"/><path class="cls-3" d="M44.93,28.08c-.24-.09-.5-.16-.73-.15"/><path class="cls-3" d="M44.03,28.14c.19-.02,.45,.03,.68,.11"/><path class="cls-3" d="M44.25,28.4c.05-.01,.12-.02,.19-.02"/></g><g><path class="cls-17" d="M39.35,27.93c.12-.02,.46-.02,.72,.03-.18-.07-.06-.48-.28-.64,.22,.1,.31,.06,.42,.08,.01,0,.03,0,.04,.01,0-.06,0-.18,.05-.24,.03,.11,.15,.14,.26,.22,.02,.01,.03,.03,.05,.05,0-.13,.2-.3,.22-.39,.04,.12,.15,.2,.19,.37,.1,.43-.23,.52-.11,.82,.6,.4,1.14,1.19,1.88,1.52-.05,.03-.17,.13-.23,.2-.98-.43-1.61-1.69-2.51-1.75-.02,0-.04,.02-.07,.03-.22,.11-.43,.19-.63,.15-.2-.04-.37,.02-.54,.1,.25-.38,.38-.49,.53-.53-.13,.05-.38,.09-.57,.01-.11,.27-.37,.35-.6,.37-.23,.03-.41,.13-.48,.25-.03-.12-.02-.32,.01-.38-.1,0-.22-.02-.37,0,.14-.05,.26-.44,.6-.49-.06-.04-.12-.09-.17-.16,.08,.05,.15,0,.3-.04,.08-.02,.19-.04,.3-.03-.12-.08-.2-.23-.22-.33-.1,.32-.45,.4-.65,.42-.24,.02-.36,.1-.4,.16,0-.15,.05-.27,.1-.36-.1,0-.19,.02-.25,.03,.04-.23,.16-.37,.28-.45-.15-.03-.35-.29-.36-.48,.12,.14,.6,0,.83,.26-.15-.13-.23-.29-.24-.47,.06,.07,.17,.07,.28,.14-.16-.57-.55-.44-.79-.63-.3-.23-.18-.64-.41-.83,.1,0,.19,0,.26,.02-.05-.12-.05-.37-.04-.51,.06,.18,.26,.16,.39,.33,.02-.05,.03-.1,.02-.15,.09,.11,.17,.2,.23,.3-.02-.19,.06-.3,.12-.35,0,.07,.01,.23,.09,.38,.08,.15,.11,.32,.05,.6-.05,.26,.05,.47,.19,.66,.02-.12,0-.45-.04-.56-.04-.11-.05-.28-.01-.48,.02,.08,.12,.2,.22,.3,.03,.03,.04,.06,.05,.1,.03-.07,.06-.13,.08-.19,.03-.09-.39-.25-.37-.72-.28-.15-.54-.37-.61-.75,.03,.03,.09,.06,.16,.08-.16-.23-.2-.53-.14-.67,.03,.12,.16,.15,.29,.25,.03-.25-.23-.43-.23-.68,.01-.38,.21-.39,.28-.63,.05,.09,.09,.17,.13,.26,.04-.16,.24-.28,.24-.4,.1,.15,.17,.31,.12,.48,.13-.04,.28-.01,.37,.05-.25,.05-.23,.34-.39,.42-.16,.08-.47,.29-.39,.61,.1,.11,.19,.29,.25,.59,.05,.05,.09,.1,.12,.17,.04-.07,.08-.15,.11-.24-.01-.13-.18-.27-.23-.39-.06-.16,.09-.42,.03-.64,.08,.03,.22,.08,.31,.2,.08-.18,.22-.29,.22-.58,.06,.11,.11,.24,.14,.37,.09-.12,.25-.26,.44-.32-.12,.2-.08,.4-.08,.57,0,.17-.01,.45-.25,.63-.24,.19-.31,.24-.36,.71,.1-.22,.35-.39,.36-.51,.05,.21,.09,.37,.09,.52,.08-.1,.23-.15,.4-.16-.12,.14-.21,.69-.54,.76-.32,.07-.45,.39-.54,.53-.11,.17-.14,.29-.03,.52,0-.18,.03-.37,.09-.48,.11-.21,.34-.3,.35-.45,.03,.16,.05,.29,.04,.39,.16-.33,.5-.24,.6-.33-.06,.09-.14,.21-.17,.38-.03,.18-.17,.34-.36,.43-.15,.07-.28,.08-.36,.24-.02,.09,.06,.17,.06,.31,0-.05,.02-.1,.05-.13,.09-.13,.15-.23,.15-.31,.2,.2,.25,.4,.18,.61-.07,.21-.11,.39,.02,.56,.08,.07,.17,.12,.25,.14,.11-.11-.02-.24-.14-.36-.12-.13-.11-.42-.01-.55,.1-.13,.19-.25,.18-.36,.08,.07,.16,.19,.18,.25,.04-.1,.09-.19,.17-.23,.01,.18,.13,.26,.13,.45,.05-.11,.14-.21,.25-.25-.02,.09,.06,.24,.08,.34,0,.07,0,.15-.03,.25-.04,.09-.1,.19-.25,.27-.05,.02-.12,.05-.19,.08,.17-.02,.48,.04,.56,.16-.13-.05-.41,.05-.55,.11Z"/><g><path class="cls-3" d="M37.55,23.47c.04-.36,.25-.72,.39-.81,.03-.02,.06-.03,.09-.04"/><path class="cls-3" d="M37.55,22.38c.02,.19-.1,.54-.06,.78"/><path class="cls-3" d="M38.23,22.68c-.21,.03-.45,.41-.53,.5"/><path class="cls-3" d="M37.96,23.27c.08,.11,.08,.48,.15,.61"/><path class="cls-3" d="M38.47,23.09c.01,.21-.14,.52-.14,.75"/><path class="cls-3" d="M37.24,23.5c.06,.18,.36,.38,.44,.55"/><path class="cls-3" d="M37.28,24.07c.07,.12,.37,.23,.44,.34"/><path class="cls-3" d="M37.52,25.9c-.1-.26-.3-.14-.36-.53-.04-.22-.1-.36-.34-.42"/><path class="cls-3" d="M38.65,24.46c-.14,.24-.08,.49-.24,.7"/><path class="cls-3" d="M37.87,24.6c.04,.24,.22,.31,.24,.46"/><path class="cls-3" d="M36.83,24.64c.02,.1,.18,.27,.21,.39"/><path class="cls-3" d="M37.22,24.78c.06,.19,.05,.44,.08,.58"/><path class="cls-3" d="M36.68,25.01c.34,.19,.29,.6,.5,.72"/><path class="cls-3" d="M39.06,24.7c-.15,.12-.26,.43-.41,.52"/><path class="cls-3" d="M38.49,25.62c-.04,.27-.17,.26-.23,.49"/><path class="cls-3" d="M39.02,25.66c-.19,.11-.31,.47-.57,.59"/><path class="cls-3" d="M37.56,26.37c.06,.09,.25,.15,.29,.26"/><path class="cls-3" d="M36.97,26.57c.12,.12,.43,.1,.56,.2"/><path class="cls-3" d="M37.11,27.28c.12-.14,.48-.18,.64-.31"/><path class="cls-3" d="M37.26,27.52c.13-.14,.5-.1,.68-.34"/><path class="cls-3" d="M38.57,26.64c.02,.14-.09,.45-.05,.63"/><path class="cls-3" d="M39.05,26.7c.01,.21-.12,.47-.07,.64"/><path class="cls-3" d="M39.33,26.64c-.07,.27-.01,.45-.06,.61"/><path class="cls-3" d="M37.59,28.09c.21-.11,.57-.03,.77-.15"/><path class="cls-3" d="M39,28.3c.21-.19,.77-.11,.97-.21"/><path class="cls-3" d="M39.67,26.91c-.1,.18-.04,.36-.15,.48"/><path class="cls-3" d="M40,27.46c.23,.11,.37,.32,.5,.42"/><path class="cls-3" d="M40.85,27.2c.09,.23-.03,.44,0,.55"/><path class="cls-3" d="M40.32,27.27c.04,.12,.2,.16,.25,.31"/><path class="cls-3" d="M39.22,27.86c.16-.09,.38-.11,.54-.09"/><path class="cls-3" d="M37.83,25.32c.03,.23,.17,.36,.13,.51"/><path class="cls-3" d="M37.94,27.61c.14,.08,.42-.03,.62,.07"/><path class="cls-3" d="M37.92,22.28c-.01,.13-.11,.25-.12,.4"/><path class="cls-3" d="M37.67,22.54c.06,.16,.07,.31,.02,.45"/><path class="cls-3" d="M37.62,23.7s-.08-.08-.13-.11"/><path class="cls-3" d="M37.87,24.29c-.15-.15-.37-.21-.53-.27"/><path class="cls-3" d="M38.1,24.22c.06-.17,.09-.37,.07-.52-.01-.13,0-.22,.04-.3"/><path class="cls-3" d="M38.1,24.64c-.02-.25,.11-.45,.4-.77,.13-.14,.14-.42,.07-.69"/><path class="cls-3" d="M37.99,24.46s.03,.09,.04,.14"/><path class="cls-3" d="M37.06,25.09c0-.11,.06-.22,.1-.31"/><path class="cls-3" d="M37.86,26.23s.02,.02,.02,.03"/><path class="cls-3" d="M38.29,24.94c-.07-.28-.41-.38-.45-.48-.02,.08-.04,.16-.04,.22"/><path class="cls-3" d="M38.77,24.78c0,.13-.04,.24-.14,.35-.21,.24-.39,.31-.5,.71"/><path class="cls-3" d="M38.17,25.39c.08-.18,.12-.31,.12-.43,0-.07,.02-.13,.04-.19"/><path class="cls-3" d="M38.08,25.59c.04,.11,.01,.27-.03,.4"/><path class="cls-3" d="M38.06,26.47s0-.03,0-.04"/><path class="cls-3" d="M38.55,25.88c0,.14-.06,.24-.17,.32-.2,.15-.21,.27-.19,.38"/><path class="cls-3" d="M37.97,26.63c-.06-.13-.14-.2-.21-.24"/><path class="cls-3" d="M37.8,26.79s-.06-.04-.09-.07"/><path class="cls-3" d="M37.98,26.68c-.16,.14-.3,.15-.45,.16-.07,0-.18,.03-.28,.1"/><path class="cls-3" d="M38.09,26.75c-.11,.03-.21,.27-.41,.46-.12,.11-.31,.14-.47,.15"/><path class="cls-3" d="M38.21,26.77c.01-.07,.03-.12,.05-.17"/><path class="cls-3" d="M38.17,27.14c.02-.06,.03-.14,.03-.22"/><path class="cls-3" d="M38.39,27.47c.11,0,.21,.03,.26,.1,.02,.03,.04,.05,.07,.07"/><path class="cls-3" d="M38.98,27.78s.06,.01,.08,.02"/><path class="cls-3" d="M38.44,27.41c-.1-.17-.14-.36-.12-.5"/><path class="cls-3" d="M37.73,28.18c.12,.01,.2,.03,.26,.03,.17,0,.49-.07,.63-.34"/><path class="cls-3" d="M37.96,27.7c.24,.17,.59,.18,.95,.15"/><path class="cls-3" d="M38.75,27.92s.02,.01,.04,.02"/><path class="cls-3" d="M39.11,27.63c.06-.11,.07-.27,.03-.4-.03-.09-.02-.3,.05-.48"/><path class="cls-3" d="M39.26,27.65c.09-.15,.14-.22,.16-.42,0-.08,.03-.17,.07-.26"/><path class="cls-3" d="M39.13,27.82c.04-.08,.12-.13,.21-.17"/><path class="cls-3" d="M39.43,27.91s-.05,0-.07,.02"/><path class="cls-3" d="M40.51,28.08c-.17,.01-.28,.03-.46,.11"/><path class="cls-3" d="M40.7,28.04c.02-.39-.3-.59-.44-.64"/><path class="cls-3" d="M40.29,27.99c.22,.01,.43,.1,.63,.23"/><path class="cls-3" d="M40.63,27.43c.1,.1,.2,.29,.11,.57"/><path class="cls-3" d="M37.41,24.93c.08,.12,.06,.32,.03,.5-.03,.18-.04,.26-.02,.33"/><path class="cls-3" d="M40.49,28.04c-.13-.04-.27-.07-.42-.09"/><path class="cls-3" d="M39.34,27.65c-.09,.02-.17,.08-.22,.15"/><path class="cls-10" d="M38.85,23.08c-.15,.25-.05,.61-.25,.85-.2,.24-.39,.38-.37,.77"/></g></g><g><path class="cls-13" d="M41.06,29.03c-.14,.01-.29,.04-.39,.09,.02,.07,.05,.31,.05,.37,.08-.05,.24-.1,.34-.11v-.34Z"/><path class="cls-13" d="M41.57,29.04c-.34-.12-.55-.07-.55,.03v.31c0,.05,.12,.12,.55,.02v-.36Z"/><path class="cls-3" d="M41.57,29.4c-.38-.11-.55-.1-.55-.02"/><path class="cls-13" d="M42.37,29.03c.13,.01,.29,.04,.39,.09-.01,.07-.05,.31-.05,.37-.08-.05-.24-.1-.34-.11v-.34Z"/><path class="cls-13" d="M41.85,29.04c.34-.12,.55-.07,.55,.03v.31c0,.05-.12,.12-.55,.02v-.36Z"/><path class="cls-3" d="M41.85,29.4c.38-.11,.55-.1,.55-.02"/><path class="cls-13" d="M41.7,29c.17,0,.21,.05,.21,.22s-.04,.22-.21,.22-.21-.05-.21-.22,.04-.22,.21-.22Z"/></g><g><g><path class="cls-10" d="M37.09,29.41c-.06,.05-.13,.17-.17,.25"/><path class="cls-10" d="M37.14,29.46c-.06,.05-.13,.17-.18,.25"/><path class="cls-10" d="M37.19,29.52c-.06,.05-.13,.17-.18,.26"/><path class="cls-10" d="M37.24,29.57c-.06,.05-.14,.17-.18,.26"/><path class="cls-10" d="M37.3,29.63c-.06,.05-.14,.18-.19,.27"/><path class="cls-10" d="M37.35,29.68c-.05,.05-.14,.18-.19,.27"/><path class="cls-10" d="M37.4,29.74c-.05,.05-.14,.18-.2,.27"/><path class="cls-10" d="M37.46,29.8c-.05,.05-.14,.18-.2,.28"/><path class="cls-10" d="M37.51,29.85c-.05,.05-.15,.18-.21,.28"/><path class="cls-10" d="M37.56,29.91c-.05,.05-.15,.18-.21,.29"/></g><g><path class="cls-10" d="M46.33,29.41c.06,.05,.13,.17,.17,.25"/><path class="cls-10" d="M46.27,29.46c.06,.05,.13,.17,.18,.25"/><path class="cls-10" d="M46.22,29.52c.06,.05,.13,.17,.18,.26"/><path class="cls-10" d="M46.17,29.57c.06,.05,.14,.17,.19,.26"/><path class="cls-10" d="M46.11,29.63c.06,.05,.14,.18,.19,.27"/><path class="cls-10" d="M46.06,29.68c.05,.05,.14,.18,.19,.27"/><path class="cls-10" d="M46.01,29.74c.05,.05,.14,.18,.2,.27"/><path class="cls-10" d="M45.96,29.8c.05,.05,.14,.18,.2,.28"/><path class="cls-10" d="M45.9,29.85c.05,.05,.15,.18,.21,.28"/><path class="cls-10" d="M45.85,29.91c.05,.05,.15,.18,.21,.29"/></g><path class="cls-13" d="M41.7,28.72c.92,0,1.67,.05,2.26,.18-.07,.06-.14,.13-.18,.17-.06,.05-.03,.17,.09,.28,.12,.11,.42,.2,.71,.07,.06-.02,.11-.05,.17-.07-.08,.07-.15,.16-.11,.25,.17,.39,.84-.12,1.24,.37,.11-.14,.37-.42,.48-.53-.23-.28-.55-.23-.81-.21,.1-.16,.11-.28-.1-.43-.09-.06-.38-.05-.65,.07,.05-.13,.04-.34-.38-.52-.64-.28-1.72-.34-2.72-.34s-2.08,.06-2.72,.34c-.42,.19-.43,.39-.37,.52-.27-.12-.57-.13-.65-.07-.21,.15-.2,.27-.1,.43-.26-.02-.58-.07-.81,.21,.11,.11,.38,.39,.48,.53,.4-.49,1.07,.02,1.24-.37,.04-.09-.03-.18-.11-.25,.05,.03,.11,.05,.17,.07,.29,.13,.59,.04,.71-.07,.12-.11,.14-.23,.09-.28-.05-.04-.11-.11-.18-.17,.59-.13,1.33-.18,2.26-.18Z"/><path class="cls-3" d="M39.45,28.9s-.1,.02-.15,.03c-.27,.07-.59,.31-.31,.33"/><path class="cls-3" d="M38.78,29.59c.05-.12-.09-.15-.22-.1-.11,.04-.23,.05-.37,.04-.2,0-.29-.2-.16-.32,.11-.1,.35,0,.63,.13"/><path class="cls-3" d="M39.63,29.07c-.06-.04-.18-.02-.26,.03-.1,.07-.24,.15-.39,.16-.15,0-.22-.13-.34-.33-.01-.02-.02-.04-.03-.07"/><path class="cls-3" d="M37.86,29.22c.04,.06,.09,.14,.15,.22"/><path class="cls-3" d="M43.96,28.9c.05,.01,.1,.02,.15,.03,.27,.07,.59,.31,.31,.33"/><path class="cls-3" d="M44.63,29.59c-.05-.12,.09-.15,.22-.1,.11,.04,.23,.05,.37,.04,.2,0,.29-.2,.16-.32-.11-.1-.35,0-.63,.13"/><path class="cls-3" d="M43.78,29.07c.06-.04,.18-.02,.26,.03,.1,.07,.24,.15,.39,.16,.15,0,.22-.13,.34-.33,.01-.02,.02-.04,.03-.07"/><path class="cls-3" d="M45.56,29.22c-.04,.06-.09,.14-.15,.22"/></g><g><path class="cls-15" d="M41.7,28.19h.13s.13,.01,.13,.18c0,.1-.04,.2-.12,.2h-.14v-.2h.06v.13h.05s.08-.01,.08-.13c0-.11-.06-.12-.07-.12h-.05v.12h-.06v-.18Z"/><path class="cls-15" d="M42.15,28.52c-.05,0-.09-.05-.09-.14s.03-.14,.09-.14,.09,.05,.09,.14-.03,.14-.09,.14v.07c.09,0,.15-.08,.15-.2s-.06-.2-.15-.2-.15,.08-.15,.2,.06,.2,.15,.2v-.07Z"/><polygon class="cls-15" points="42.52 28.58 42.59 28.29 42.59 28.58 42.65 28.58 42.65 28.2 42.56 28.2 42.5 28.49 42.44 28.2 42.35 28.19 42.34 28.58 42.4 28.58 42.41 28.29 42.46 28.58 42.52 28.58"/><polygon class="cls-15" points="42.77 28.59 42.78 28.21 42.71 28.2 42.7 28.59 42.77 28.59"/><polygon class="cls-15" points="42.91 28.22 43.02 28.49 43.04 28.22 43.1 28.23 43.08 28.61 43.01 28.61 42.9 28.33 42.89 28.6 42.82 28.6 42.84 28.21 42.91 28.22"/><polygon class="cls-15" points="43.2 28.62 43.23 28.24 43.16 28.23 43.13 28.62 43.2 28.62"/><path class="cls-15" d="M43.55,28.4c0-.06-.03-.14-.11-.15-.09-.01-.15,.06-.17,.19-.02,.12,.03,.21,.11,.22,.08,0,.14-.04,.15-.13h-.06s-.03,.06-.08,.06c-.05,0-.07-.06-.06-.14,0-.08,.04-.13,.1-.12,.05,0,.07,.05,.06,.08h.06Z"/><polygon class="cls-15" points="43.74 28.61 43.75 28.7 43.81 28.71 43.77 28.31 43.7 28.3 43.53 28.66 43.59 28.67 43.62 28.6 43.68 28.6 43.69 28.54 43.65 28.53 43.72 28.39 43.73 28.55 43.69 28.54 43.68 28.6 43.74 28.61"/><polygon class="cls-15" points="44 28.36 44.06 28.64 44.12 28.39 44.18 28.4 44.09 28.77 44.03 28.76 43.97 28.46 43.91 28.73 43.84 28.71 43.94 28.34 44 28.36"/><polygon class="cls-15" points="44.34 28.78 44.33 28.86 44.38 28.89 44.43 28.49 44.36 28.46 44.12 28.78 44.18 28.8 44.23 28.74 44.28 28.76 44.3 28.7 44.27 28.69 44.36 28.56 44.34 28.72 44.3 28.7 44.28 28.76 44.34 28.78"/><path class="cls-15" d="M38.89,28.52l.04,.1,.06-.02v-.04s.04-.02,.06-.03c.02,0,.05,0,.06,.03,.01,.03,0,.05-.01,.06-.02,0-.08,.03-.08,.03l-.02-.06-.06,.02,.1,.26,.06-.03-.06-.14s.03-.01,.06-.03c.03-.01,.05,0,.07,.03,.02,.04,.03,.09,.03,.09l.06-.03s-.03-.08-.04-.1c-.02-.04-.05-.06-.07-.05,.02,0,.04-.05,.02-.1-.02-.05-.07-.09-.11-.08-.04,.02-.17,.07-.17,.07Z"/><path class="cls-15" d="M39.55,28.32l.03,.14h.06s-.01-.09-.01-.09c0,0,.03,0,.06-.01,.03,0,.05,0,.06,.04,0,.04,0,.07-.04,.08-.03,0-.06,.01-.06,.01v-.04s-.07,.01-.07,.01l.04,.24h.06s-.03-.15-.03-.15c0,0,.04,0,.08-.01,.06-.01,.08-.09,.07-.14-.01-.07-.06-.11-.11-.1-.08,.01-.14,.03-.14,.03Z"/><path class="cls-15" d="M40,28.59s.06-.04,.05-.08c0-.03-.03-.26-.03-.26h.07s.02,.2,.03,.25c0,.06-.01,.14-.11,.15-.1,.01-.13-.06-.14-.12,0-.05-.03-.26-.03-.26h.07s.03,.22,.03,.25c0,.03,.02,.07,.07,.06Z"/><path class="cls-15" d="M40.21,28.62s.09,0,.14-.01c.08,0,.1-.08,.09-.12,0-.05-.02-.07-.05-.09,.02-.02,.03-.06,.03-.09,0-.07-.07-.09-.13-.09-.09,0-.12,.01-.12,.01v.11s.08,0,.08,0v-.04s.05,0,.08,0c.02,0,.04,.02,.04,.04,0,.01,0,.04-.03,.05-.03,0-.08,0-.08,0v-.04s-.07,0-.07,0l.02,.16h.06s0-.05,0-.05c0,0,.06,0,.09,0,.02,0,.04,.02,.04,.05,0,.03,0,.05-.03,.06-.02,0-.09,0-.09,0v-.05s-.07,0-.07,0v.12Z"/><polygon class="cls-15" points="40.49 28.22 40.5 28.6 40.71 28.59 40.71 28.52 40.56 28.53 40.55 28.21 40.49 28.22"/><polygon class="cls-15" points="40.83 28.58 40.82 28.2 40.75 28.2 40.77 28.59 40.83 28.58"/><path class="cls-15" d="M41.16,28.32c0-.07-.05-.14-.13-.14s-.14,.08-.14,.2c0,.13,.06,.2,.14,.2,.08,0,.14-.06,.14-.14h-.06s-.03,.08-.07,.08-.08-.05-.08-.14,.02-.13,.08-.13,.07,.04,.07,.07h.06Z"/><polygon class="cls-15" points="41.38 28.5 41.4 28.57 41.47 28.57 41.36 28.19 41.28 28.19 41.18 28.58 41.24 28.58 41.26 28.5 41.32 28.5 41.32 28.43 41.28 28.43 41.32 28.28 41.36 28.43 41.32 28.43 41.32 28.5 41.38 28.5"/><polygon class="cls-15" points="39.45 28.34 39.23 28.4 39.32 28.77 39.54 28.72 39.53 28.66 39.37 28.69 39.35 28.6 39.49 28.56 39.47 28.49 39.33 28.53 39.31 28.44 39.47 28.4 39.45 28.34"/></g><g><path class="cls-13" d="M37.49,23.59c.15,0,.15-.22,0-.22-.1,0-.13,.09-.1,.16,.02,.01,.08,.05,.1,.06Z"/><path class="cls-13" d="M37.68,23.77c.15,0,.15-.22,0-.22-.07,0-.1,.05-.11,.1,.03,.03,.09,.09,.11,.12Z"/><path class="cls-13" d="M38.41,24.63s-.05-.05-.1-.05c-.15,0-.15,.22,0,.22,.02-.05,.07-.14,.1-.17Z"/><path class="cls-13" d="M38.11,24.68c.15-.02,.11-.24-.03-.22-.03,0-.06,.02-.07,.04,.02,.05,.03,.1,.03,.12,.02,.02,.05,.04,.07,.05Z"/><path class="cls-13" d="M37.52,25.94c-.15,0-.15,.22,0,.22s.15-.22,0-.22Z"/><path class="cls-13" d="M38.44,27.47c.11-.09-.03-.26-.14-.17-.06,.05-.05,.12,0,.16,.03,0,.11,0,.15,0Z"/><path class="cls-13" d="M38.98,27.78c.12-.08,0-.26-.12-.18-.04,.03-.05,.07-.05,.1,.03,.02,.12,.07,.17,.08Z"/><path class="cls-13" d="M38.06,26.42c-.14,.04-.21-.16-.07-.21,.03,0,.06,0,.08,0,0,.06-.02,.16-.02,.21Z"/><path class="cls-13" d="M40.18,27.97c.1-.1-.05-.26-.15-.15-.04,.04-.04,.09-.02,.13,.05,0,.14,.02,.17,.03Z"/><path class="cls-13" d="M39.3,27.67s-.02-.06-.06-.08c-.13-.07-.23,.12-.1,.19,.03-.04,.1-.1,.16-.12Z"/></g></g></g><rect class="cls-1" y=".04" width="83.36" height="50.02"/></g></g></svg>