<?xml version="1.0" encoding="UTF-8"?><svg id="Layer_2" xmlns="http://www.w3.org/2000/svg" viewBox="0 0 83.43 50.02"><defs><style>.cls-1,.cls-2{fill:none;}.cls-2,.cls-3,.cls-4,.cls-5,.cls-6,.cls-7,.cls-8,.cls-9,.cls-10,.cls-11,.cls-12{stroke:#000;stroke-width:.04px;}.cls-13,.cls-3{fill:#008348;}.cls-14,.cls-7{fill:#fff;}.cls-15,.cls-6{fill:#ed1c2e;}.cls-16{stroke:#abc456;stroke-width:.02px;}.cls-16,.cls-11{fill:#549433;}.cls-4{fill:#0099d8;}.cls-5{fill:#febd11;}.cls-8{fill:#fbb482;}.cls-9{fill:#ae6219;}.cls-10{fill:#ce7418;}.cls-12{fill:#82683b;}</style></defs><g id="DESIGN"><g><g><rect class="cls-14" x="27.79" y="0" width="27.79" height="50.02"/><rect class="cls-15" x="55.58" y="0" width="27.79" height="50.02"/><rect class="cls-13" y="0" width="27.79" height="50.02"/><g><g><path class="cls-4" d="M40.06,29.97c-.94,.26-1.35-.49-1.49-1.03-.1,.49-.09,.76-.47,.66-.37-.1-1.53-.62-1.81-.73-.28-.1-.34,.15,.11,.39,.46,.24,.89,.51,.9,.68,0,.17-.4,.37-.54,.45,.69,0,1.45,.14,1.7,.2,.46,.11,.49,.42-.26,.92,1.91-.21,1.84,.72,2.81,.71,.71,0,1.49,0,1.81-.01,.88-.03,.23-.39,1.07-.59,.59-.15,1.19-.36,1.65-.5-.47-.1-.73-.22-.73-.32s.94-.46,1.39-.65c-.16-.05-.54-.11-1.01,.02-.47,.12-1.29,.25-2.29,.13-.99-.11-2.08,.06-2.83-.31Z"/><g><path class="cls-5" d="M43.37,31.73c.14,.19,.41,.15,.52,0,.12-.17,.04-.37-.09-.46,.09-.25,.14-.83,0-1.05,.14-.08,.21-.29,.09-.46-.11-.16-.38-.2-.52,0-.79-.16-2.56-.12-3.13,0-.14-.19-.41-.15-.52,0-.12,.17-.04,.38,.09,.46-.15,.22-.09,.8,0,1.05-.14,.08-.21,.29-.09,.46,.11,.16,.39,.2,.52,0,.66,.26,2.45,.26,3.13,0Z"/><g><path class="cls-2" d="M40.02,31.39c.18-.1,.38,.13,.22,.34"/><path class="cls-2" d="M40.24,29.74c.15,.21-.04,.45-.22,.34"/><path class="cls-2" d="M43.59,31.39c-.18-.1-.38,.13-.22,.34"/><path class="cls-2" d="M43.37,29.74c-.15,.21,.04,.45,.22,.34"/><path class="cls-2" d="M40.3,29.73c.68-.04,.89,2.24,1.63,2.2"/><path class="cls-2" d="M40.75,29.68c.7-.05,1.01,2.34,1.79,2.22"/><path class="cls-2" d="M41.24,29.65c.7-.05,1.07,2.31,1.76,2.17"/></g></g><g><path class="cls-7" d="M36.81,30.05c-.42,0-.42,.63,0,.63s.43-.63,0-.63Z"/><path class="cls-7" d="M38.48,28.67c-.42,0-.42,.63,0,.63s.43-.63,0-.63Z"/><path class="cls-7" d="M45.38,30.84c-.42,0-.42,.63,0,.63s.43-.63,0-.63Z"/></g><g><path class="cls-12" d="M36.24,28.63c-.25-.13-.56-.09-.66,.06-.1,.15,.14,.43,.39,.54,.25,.11,.48,.02,.55-.08,.07-.11,0-.38-.29-.52Z"/><path class="cls-12" d="M38.11,31.14c-.27,.09-.46,.33-.43,.5,.03,.17,.4,.2,.66,.11,.26-.09,.35-.33,.3-.46-.06-.18-.23-.26-.54-.16Z"/><path class="cls-12" d="M46.08,30.48c.27-.08,.58-.36,.51-.52-.08-.2-.43-.16-.69-.07-.26,.09-.4,.3-.36,.42,.06,.18,.22,.26,.54,.17Z"/></g></g><g><g><path class="cls-10" d="M46.85,32.17c.02-.12-.08-.51-.19-.62,.16-.03,.22-.23,.08-.34-.11-.08-.25-.03-.3,.03-.05,.06-.05,.27,.1,.31,.02,.13,.14,.58,.04,.76,.21,0,.58,.13,.68,.22-.05,.15,.12,.26,.2,.26,.08,0,.2-.1,.19-.23-.02-.17-.22-.23-.33-.12-.06-.11-.36-.22-.48-.26Z"/><path class="cls-10" d="M49.79,29.75c-.02-.12-.24-.46-.38-.52,.14-.07,.13-.29-.03-.35-.13-.04-.24,.05-.27,.13-.03,.07,.04,.27,.2,.26,.06,.12,.32,.5,.28,.71,.2-.06,.59-.06,.71-.01,0,.16,.2,.21,.27,.18,.07-.03,.16-.15,.1-.28-.07-.16-.29-.15-.35,0-.09-.08-.41-.09-.54-.1Z"/><path class="cls-10" d="M51.44,26.5c-.07-.1-.33-.32-.45-.36,.09-.13-.02-.32-.19-.29-.14,.02-.19,.16-.18,.24,0,.08,.16,.22,.29,.14,.11,.08,.39,.36,.45,.57,.15-.15,.54-.25,.67-.26,.07,.14,.28,.09,.32,.03,.05-.06,.07-.21-.04-.3-.14-.11-.32,0-.31,.15-.12-.03-.45,.03-.57,.08Z"/></g><g><path class="cls-3" d="M51.28,26.88c.1-.5,.13-.94-.16-1.36-.32-.47-.01-1.06-.16-1.35,.2,.21,.61,.7,.7,.94,.16-.3,.56-.93,.89-1.02-.02,.18,.03,.43,.07,.64,.07,.32-.3,.8-.61,1.07-.21,.19-.52,.32-.61,1.17l-.13-.09Z"/><path class="cls-3" d="M51.36,26.83c.17-1.2-.17-2.64,.43-3.12,.43,.67,.45,1.5,.18,1.86-.27,.36-.56,.84-.6,1.27Z"/><path class="cls-3" d="M49.21,30.21c.41-.34,.72-.59,.64-1.23-.11-.86,.13-1.86,.9-2.01,.05,.24,.09,.87,.06,1.12,.32-.32,.56-.7,1.23-.74-.5,.48-.67,1.65-1.28,1.9-.62,.25-1.12,.74-1.42,1.15l-.13-.18Z"/><path class="cls-3" d="M49.5,30.07c.26-.31,.44-.48,.57-1.21,.15-.82,.63-1.92,1.33-2.22,.12,.6-.1,1.43-.59,2.03-.49,.6-1.14,1.19-1.31,1.4Z"/><path class="cls-3" d="M46.49,32.31c.54-.34,.69-.57,.81-.93,.32-.93,1.26-1.29,1.29-1.68,.1,.47,.03,1-.11,1.27,.26-.22,.78-.43,1.14-.46-.21,.42,0,.96-.8,1.22-.8,.26-1.16-.13-2.35,.72l.03-.14Z"/><path class="cls-3" d="M46.51,32.36c.48-.4,1.11-.99,1.45-1.42,.34-.43,1.03-1.02,1.71-1.02-.29,.84-1.01,1.55-1.92,1.85-.91,.29-.92,.41-1.24,.59Z"/><path class="cls-3" d="M43.38,32.99c.79-.14,.98-1.29,2.56-1.08-.23,.21-.42,.75-.75,.94,.38,.06,.94,.19,1.34,.42-.44-.06-1.44,.73-2.27,.33-.83-.4-.71-.46-.88-.61Z"/><path class="cls-3" d="M43.75,33.35c.65,.4,2.4-.15,2.98-1.13-.73-.08-1.59,.25-2.07,.48-.48,.23-.91,.23-1.29,.17-1.02-.18-2.19-.19-3.36,.65-.09,.05,.1,.27,.22,.18,.99-.75,2.35-1.06,3.51-.34Z"/></g></g><g><g><path class="cls-10" d="M36.75,32.22c-.02-.27-.05-.47-.13-.61-.07-.15-.11-.48,.03-.49,.14,0,.25,.23,.19,.43-.06,.2,0,.65,.14,.81l-.23-.14Z"/><path class="cls-10" d="M36.66,31.51c-.19-.07-.25,.03-.17,.18,.1,.2,.35,.22,.44,.07,.13-.2,.04-.32-.04-.28-.08,.04-.18,.05-.23,.03Z"/><path class="cls-10" d="M36.7,32.29c-.26,.05-.47,.08-.63,.05-.16-.03-.49,.02-.46,.16,.03,.14,.29,.18,.46,.07,.17-.11,.65-.19,.85-.11l-.22-.17Z"/><path class="cls-10" d="M35.99,32.39c-.12-.17-.04-.25,.12-.21,.22,.04,.31,.28,.19,.41-.16,.18-.3,.13-.28,.04,.02-.09,0-.19-.03-.23Z"/><path class="cls-10" d="M33.82,29.72c.05-.27,.07-.49,.03-.65-.03-.16,0-.49,.15-.47,.14,.02,.19,.28,.08,.46-.11,.18-.14,.63-.04,.83l-.09-.05-.12-.12Z"/><path class="cls-10" d="M33.9,28.99c-.17-.11-.25-.03-.21,.13,.05,.22,.29,.3,.41,.18,.17-.17,.12-.3,.03-.28-.09,.02-.19,0-.23-.02Z"/><path class="cls-10" d="M34.07,30c-.18-.12-.74-.15-.94-.07-.19,.08-.44,0-.44-.14,0-.15,.33-.14,.48-.08,.15,.06,.37,.05,.64,.05l.14,.07,.11,.17Z"/><path class="cls-10" d="M33.08,29.76c-.09-.19,0-.25,.16-.19,.21,.08,.25,.33,.12,.43-.19,.14-.32,.07-.28-.01,.03-.09,.03-.19,0-.23Z"/><path class="cls-10" d="M32.1,26.91c.07-.36,.29-.77,.46-.89,.17-.12,.24-.37,.11-.45-.12-.08-.29,.21-.32,.37-.03,.16-.18,.38-.33,.61v.19s.08,.18,.08,.18Z"/><path class="cls-10" d="M32.43,25.88c-.11-.17-.21-.13-.24,.03-.04,.22,.15,.39,.31,.33,.22-.09,.23-.23,.14-.25-.09-.02-.17-.08-.2-.12Z"/><path class="cls-10" d="M31.92,26.54c-.24-.13-.43-.24-.53-.37-.1-.13-.39-.3-.46-.18-.07,.13,.11,.32,.31,.35,.21,.03,.68,.34,.77,.53l-.03-.14-.06-.2Z"/><path class="cls-10" d="M31.28,26.17c.02-.2,.13-.21,.23-.08,.14,.17,.05,.41-.12,.43-.24,.03-.31-.1-.24-.15,.07-.06,.12-.15,.12-.2Z"/></g><g><path class="cls-3" d="M32.01,27.36c.02-.45-.16-.93-.23-1.24-.07-.31-.3-.27-.33-.49-.02-.13-.06-.16-.31-.28-.25-.12-.33-.17-.32-.33,0-.16,.1-.16,.3-.06,.2,.09,.22-.03,.11-.18-.11-.16-.19-.26-.18-.43,.01-.17,.16-.21,.27-.07,.1,.14,.21,.09,.3-.03,.09-.13-.08-.29,.05-.56,.09-.19,.19-.08,.26,0,.08,.09,.27-.11,.35-.12,.08,0,.12,.1,0,.19-.13,.09,0,.2-.16,.32-.13,.09-.02,.16,.09,.12,.11-.04,.22-.02,.24,.06,.05,.18-.19,.34-.41,.47-.18,.1,0,.16,.31,.14,.19-.01,.08,.19-.17,.29-.17,.06-.28,.23-.17,.31,.11,.08,.12,.12-.04,.3-.15,.18,.19,1.11,.22,1.5l-.03,.1h-.15Z"/><path class="cls-3" d="M34.42,30.04c-.7-.37-.96-.67-.98-1.06-.02-.33-.01-.49,.1-.63,.11-.14,.05-.28-.09-.16-.15,.13-.29,.08-.26-.14,.03-.22,.12-.5,.04-.67-.08-.17-.27-.16-.32,.06-.02,.09-.09,.2-.2,.2s-.09-.23-.05-.37c.04-.14-.09-.25-.17-.12-.07,.12-.24,.25-.31,.06-.07-.19-.25-.08-.21,.04-.18-.06-.2,.08-.14,.16,.09,.11,.12,.21,0,.18-.11-.03-.34-.1-.3,.07,.04,.17,.42,.3,.66,.34,.24,.05,.26,.16,.15,.19-.11,.04-.18,.02-.34,0-.17-.03-.2,.1-.07,.25,.13,.14,.48,.18,.63,.2,.25,.03,.27,.21,.16,.21-.11,0-.32-.08-.33,.03-.02,.11,.28,.23,.49,.21,.22-.02,.25,.03,.29,.09,.3,.41,.86,.89,1.21,1.02l.14-.05-.09-.11Z"/><path class="cls-3" d="M37.12,32.62c-.31-.16-.59-.42-.84-.59-.25-.18-.46-.1-.67-.04-.21,.06-.23-.04-.19-.11,.04-.07,.02-.16-.21-.09-.24,.08-.49,.12-.75-.04s-.22-.31-.03-.28c.19,.03,.31,.02,.48-.07,.17-.09,.07-.22-.21-.22s-.51-.08-.66-.25c-.15-.17,0-.22,.1-.18,.09,.04,.2,.07,.31,.03s.09-.17,0-.19c-.1-.02-.21-.05-.36-.19-.15-.14,0-.17,.18-.17,.18,0,.09-.18,.08-.4,0-.21,.15-.11,.26,.09,.11,.2,.2,.15,.2-.06s.07-.22,.17-.12c.1,.1,.09,.31,.09,.54,0,.22,.15,.37,.21,.1,.07-.27,.2-.2,.33-.06,.13,.14,.07,.42,.15,.74,.06,.26,.21,.15,.26,.07,.05-.08,.12-.17,.15,.17,.02,.33,.44,.96,1.11,1.17l-.16,.17Z"/><path class="cls-3" d="M43.49,33.63c-1.03-.74-2.23-1.11-3.24-.83-.23,.06-.39,.14-.52-.09-.14-.23-.2-.13-.26-.06-.06,.07-.22,.07-.35-.17-.14-.24-.25-.32-.42-.3-.17,.02-.22,.1-.14,.26,.09,.16,0,.28-.14,.13-.14-.15-.34-.34-.5-.34-.16,0-.32,.03-.21,.18,.1,.16,.1,.32-.08,.18-.19-.15-.32-.22-.5-.2-.26,.04-.07,.27-.3,.33-.12,.03-.29,.11-.35,.19-.06,.08-.07,.29,.44,.21,.51-.08,.53-.05,.49,.1-.04,.16-.04,.34,.24,.28,.37-.08,.56-.36,.7-.23,.08,.08-.02,.2-.09,.28-.13,.13,.16,.24,.33,.12,.16-.13,.36-.35,.47-.31,.12,.04,0,.19-.04,.27-.04,.09,0,.26,.2,.16,.2-.1,.33-.7,.95-.62,.18-.34,1.65-.52,2.86,.48,.08,.08,.18,.08,.3,.07,.11-.01,.28,0,.16-.09Z"/></g></g><g><g><g><path class="cls-13" d="M41.92,33.69c.26,.2,.6,.38,.66,.6-.07,.05-.14,.12-.2,.21-.16-.2-.44-.37-.67-.58,.05-.05,.17-.17,.2-.23Z"/><path class="cls-2" d="M41.92,33.69c.26,.2,.6,.38,.66,.6-.07,.05-.14,.12-.2,.21-.16-.2-.44-.37-.67-.58,.05-.05,.17-.17,.2-.23Z"/></g><g><path class="cls-13" d="M41.22,33.32c-.28,.27-.87,.39-1,.92,.11-.04,.24-.07,.37-.05,.03-.27,.64-.57,.88-.79-.08,0-.19-.03-.25-.08Z"/><path class="cls-2" d="M41.22,33.32c-.28,.27-.87,.39-1,.92,.11-.04,.24-.07,.37-.05,.03-.27,.64-.57,.88-.79-.08,0-.19-.03-.25-.08Z"/></g><g><path class="cls-13" d="M41.44,33.4c-.24-.03-.35-.13-.35-.46,0-.34,.05-.42,.36-.43,.11,0,.09,.22,.09,.42s.03,.49-.11,.47Z"/><path class="cls-2" d="M41.44,33.4c-.24-.03-.35-.13-.35-.46,0-.34,.05-.42,.36-.43,.11,0,.09,.22,.09,.42s.03,.49-.11,.47Z"/></g></g><g><path class="cls-6" d="M42.21,33.31c.28,.28,.88,.4,1.01,.94-.11-.04-.24-.07-.37-.05-.03-.25-.54-.52-.81-.74,0-.02,0-.05,.02-.07,.04-.01,.1-.03,.15-.07Z"/><path class="cls-6" d="M42.06,33.38c-.12,.53-.73,.78-1.01,1.12-.06-.09-.13-.16-.2-.21,.1-.32,.74-.55,.95-.88,.07,0,.23-.02,.26-.03Z"/><path class="cls-6" d="M41.87,33.41c.32-.02,.46-.1,.46-.47s-.06-.43-.45-.43c.11,0,.1,.23,.1,.43s.03,.5-.11,.48Z"/></g><g><path class="cls-7" d="M41.8,33.41c-.2,.34-.85,.56-.95,.89-.09-.06-.18-.09-.26-.1,.03-.27,.65-.58,.88-.8,.07,.02,.29,.02,.34,.01Z"/><path class="cls-7" d="M41.92,33.69c.26,.2,.6,.38,.66,.6,.09-.06,.18-.09,.26-.1-.03-.25-.54-.52-.81-.74-.02,.06-.09,.2-.12,.24Z"/><path class="cls-7" d="M41.87,33.41c.14,.03,.11-.28,.11-.48s.01-.43-.1-.43c-.05,0-.11,0-.17,0-.1,0-.19,0-.26,0,.11,0,.09,.22,.09,.42s.03,.49-.11,.47c.08,0,.17,.01,.27,.01,.05,0,.11,0,.16,0Z"/></g></g><g><g><path class="cls-6" d="M34.94,25.55c-.18,.18-.52,0-.67-.16s-.3-.41,0-.69c.23-.22,.51-.09,.69,.19,.18,.28,.14,.5-.01,.66Z"/><path class="cls-6" d="M33.9,24.83c-.18-.14-.18-.23-.07-.34,.11-.11,.21-.09,.32,.04,.15,.17,.16,.3,.09,.37-.07,.07-.16,.08-.34-.06Z"/><path class="cls-6" d="M33.89,25.01c-.17-.05-.2-.11-.15-.22,.05-.11,.12-.1,.24-.04,.16,.08,.21,.13,.18,.2-.03,.07-.1,.11-.26,.06Z"/><path class="cls-6" d="M34.43,24.38c0-.23,.04-.3,.22-.28,.15,.01,.2,.11,.16,.28-.04,.22-.08,.31-.21,.31-.1,0-.17-.08-.17-.31Z"/><polygon class="cls-6" points="33.97 23.8 34.22 24.24 34.11 24.3 33.86 23.86 33.97 23.8"/><path class="cls-6" d="M33.87,23.54c-.22,0-.23,.36,0,.36s.24-.36,0-.36Z"/><path class="cls-6" d="M34.13,24.62c-.15-.21-.12-.31,.02-.39,.14-.08,.25-.04,.33,.14,.1,.23,.07,.37-.02,.42-.09,.05-.19,.03-.33-.17Z"/></g><g><line class="cls-2" x1="34.47" y1="26.36" x2="34.24" y2="26.26"/><line class="cls-2" x1="35.57" y1="25.22" x2="35.6" y2="25.54"/><line class="cls-2" x1="36.34" y1="26.42" x2="36.57" y2="26.17"/><line class="cls-2" x1="35.42" y1="27.62" x2="35.88" y2="27.45"/><line class="cls-2" x1="34.72" y1="27.2" x2="35.11" y2="27.12"/><line class="cls-2" x1="35" y1="27.04" x2="34.63" y2="27.05"/><line class="cls-2" x1="37.09" y1="26.75" x2="36.97" y2="26.54"/><line class="cls-2" x1="36.35" y1="28.16" x2="36.67" y2="28.09"/><line class="cls-2" x1="37.29" y1="28.52" x2="37.52" y2="28.34"/><line class="cls-2" x1="37.46" y1="28.6" x2="37.68" y2="28.37"/><line class="cls-2" x1="39.31" y1="29.17" x2="39.57" y2="28.92"/><line class="cls-2" x1="40.28" y1="29.34" x2="40.57" y2="29.04"/><line class="cls-2" x1="39.51" y1="27.38" x2="39.09" y2="27.17"/><line class="cls-2" x1="39.71" y1="26.85" x2="39.95" y2="27.25"/><line class="cls-2" x1="39.89" y1="26.83" x2="40.04" y2="27.23"/><line class="cls-2" x1="40.84" y1="27.01" x2="40.89" y2="27.38"/><line class="cls-2" x1="41.09" y1="27.03" x2="41.07" y2="27.41"/><line class="cls-2" x1="41.15" y1="29.22" x2="41.25" y2="28.98"/><line class="cls-2" x1="41.42" y1="28.95" x2="41.32" y2="29.3"/><path class="cls-2" d="M45.21,29.35c0,.1,.09,.26,.16,.32"/><path class="cls-2" d="M46.08,28.16c0-.07,.03-.32,.07-.41"/><line class="cls-2" x1="46.65" y1="27.83" x2="46.82" y2="27.46"/><line class="cls-2" x1="46.71" y1="29.46" x2="47.07" y2="29.61"/><line class="cls-2" x1="46.83" y1="29.39" x2="47.18" y2="29.46"/><line class="cls-2" x1="47.53" y1="28.97" x2="47.95" y2="28.92"/><line class="cls-2" x1="43.71" y1="29.37" x2="44.1" y2="29.6"/><line class="cls-2" x1="43.85" y1="29.35" x2="44.32" y2="29.47"/></g><g><path class="cls-3" d="M36.41,27.55c-1.06-.04-1.92-.61-1.98-1.27-.06-.67,.55-1.07,1.12-.81,.98,.44,.73,1.46,1.29,1.54l-.44,.54Z"/><path class="cls-3" d="M39.17,27.74c-.5-.48-1.61-1.38-2.34-.92-.73,.46-.5,1-.29,1.23,.29,.33,1.61,.54,2.52,.25l.1-.56Z"/><path class="cls-3" d="M42.71,28.01c-1.46-.58-2.46-1.13-3.28-.65-.81,.48-.52,1.19-.04,1.52,.48,.33,1.96,.19,2.61,.02,.65-.17,.81-.48,.71-.9Z"/><path class="cls-3" d="M44.96,28.72c.79,.03,.76-.21,.97-.49,.23-.3,.85-.68,1.32-.3,.52,.42,.63,.98,0,1.32-.63,.34-1.06,.44-1.7,.24-.65-.2-1.02-.32-1.16-.34,.32-.13,.48-.27,.56-.43Z"/><path class="cls-3" d="M42.86,30.38c.06-1.52,2.33-.6,2.17-2.08-.07-.67-1.27-.58-2.23-.36-.96,.23-1.02,1.27-1.06,2.48,0,.08,.19,.08,.56,.08s.57,.02,.56-.13Z"/></g><g><path class="cls-6" d="M47.5,27.82c-.29,.18-.37,.4-.28,.56,.09,.17,.44,.13,.67,0,.23-.14,.37-.41,.26-.57-.11-.17-.41-.13-.65,.02Z"/><polygon class="cls-6" points="48.85 27.22 48.5 27.58 48.41 27.5 48.76 27.13 48.85 27.22"/><path class="cls-6" d="M49.07,27.05c-.06-.22-.41-.12-.34,.1,.06,.21,.41,.13,.34-.1Z"/><path class="cls-6" d="M47.87,27.41c.12-.2,.2-.27,.35-.17,.13,.08,.1,.21,0,.34-.14,.18-.22,.24-.33,.18-.08-.05-.13-.16,0-.35Z"/><path class="cls-6" d="M48.35,27.8c.23-.04,.33-.02,.35,.15,.02,.15-.09,.21-.27,.22-.22,0-.32-.01-.35-.14-.02-.09,.04-.2,.26-.23Z"/><path class="cls-6" d="M48.15,27.54c.18-.18,.28-.17,.38-.03,.09,.12,.04,.25-.14,.31-.21,.08-.29,.14-.37,.03-.06-.07-.03-.17,.13-.32Z"/></g><g><path class="cls-16" d="M35.04,25.95c-.2,.1-.1,.29,.1,.19,.2-.1,.11-.3-.1-.19Z"/><path class="cls-16" d="M35.61,25.89c-.22,.06-.16,.27,.06,.21,.22-.06,.16-.27-.06-.21Z"/><path class="cls-16" d="M34.87,26.47c-.03,.22,.19,.25,.21,.03,.03-.22-.19-.25-.21-.03Z"/><path class="cls-16" d="M35.4,26.46c-.12,.15,0,.25,.12,.1,.12-.16,0-.26-.12-.1Z"/><path class="cls-16" d="M36.06,26.33c-.22,.04-.18,.25,.04,.21,.22-.04,.18-.26-.04-.21Z"/><path class="cls-16" d="M35.97,26.96c-.14,.16-.02,.3,.12,.14,.14-.16,.02-.3-.12-.14Z"/><path class="cls-16" d="M35.42,26.97c-.11,.2,.07,.31,.19,.11s-.07-.31-.19-.11Z"/><path class="cls-16" d="M36.84,27.37c-.11,.2,.07,.3,.19,.11,.11-.2-.07-.31-.19-.11Z"/><path class="cls-16" d="M37.26,27.04c-.15,.17,.02,.31,.16,.14,.15-.17-.02-.31-.16-.14Z"/><path class="cls-16" d="M37.01,27.9c0,.23,.21,.23,.21,0,0-.22-.21-.23-.21,0Z"/><path class="cls-16" d="M37.55,27.71c-.08,.21,.13,.28,.2,.07,.08-.21-.13-.29-.2-.07Z"/><path class="cls-16" d="M38.33,27.84c-.08,.21,.13,.29,.2,.07,.08-.21-.13-.29-.2-.07Z"/><path class="cls-16" d="M37.9,28.16c0,.22,.21,.23,.22,0,0-.23-.21-.23-.22,0Z"/><path class="cls-16" d="M39.57,27.96c-.11,.2,.07,.3,.19,.11,.11-.19-.07-.31-.19-.11Z"/><path class="cls-16" d="M39.8,28.6c.06,.22,.27,.16,.21-.06-.06-.22-.27-.16-.21,.06Z"/><path class="cls-16" d="M40.09,27.51c-.11,.2,.07,.3,.19,.11,.11-.19-.07-.31-.19-.11Z"/><path class="cls-16" d="M40.46,28.06c-.15,.17,.01,.31,.16,.14,.15-.17,0-.31-.16-.14Z"/><path class="cls-16" d="M40.99,27.64c-.15,.17,0,.31,.16,.14,.15-.17,0-.31-.16-.14Z"/><path class="cls-16" d="M40.72,28.72c.09,.2,.29,.12,.19-.09-.09-.2-.29-.12-.19,.09Z"/><path class="cls-16" d="M41.22,28.26c-.08,.21,.12,.29,.2,.08,.08-.21-.12-.29-.2-.08Z"/><path class="cls-16" d="M42.6,29.5c-.2-.11-.33,.1-.14,.22,.2,.11,.34-.1,.14-.22Z"/><path class="cls-16" d="M42.24,28.87c-.2-.11-.33,.11-.14,.22,.2,.11,.34-.1,.14-.22Z"/><path class="cls-16" d="M43.47,28.8c-.2-.11-.37,.13-.17,.24,.2,.11,.37-.13,.17-.24Z"/><path class="cls-16" d="M43.7,28.14c-.21-.07-.28,.13-.07,.2,.21,.07,.29-.13,.07-.2Z"/><path class="cls-16" d="M42.8,28.76c-.17-.08-.22,.15-.05,.23,.17,.08,.23-.15,.05-.23Z"/><path class="cls-16" d="M44.11,28.95c-.21-.07-.28,.13-.07,.2,.21,.07,.29-.13,.07-.2Z"/><path class="cls-16" d="M44.44,28.34c-.21-.07-.3,.15-.09,.23,.21,.07,.31-.15,.09-.23Z"/><path class="cls-16" d="M45.4,28.97c-.15-.17-.31-.03-.16,.14,.15,.17,.31,.03,.16-.14Z"/><path class="cls-16" d="M46.19,28.88c-.19-.12-.32,.1-.13,.22,.19,.12,.33-.1,.13-.22Z"/><path class="cls-16" d="M46.76,29.02c-.19-.12-.32,.1-.13,.22,.19,.12,.33-.1,.13-.22Z"/><path class="cls-16" d="M46.43,28.14c-.19-.12-.34,.11-.15,.23,.19,.12,.35-.11,.15-.23Z"/><path class="cls-16" d="M46.87,28.4c-.19-.12-.34,.11-.15,.23,.19,.12,.35-.11,.15-.23Z"/></g><g><path class="cls-6" d="M37.91,26.54c-.31,.21-.4,.62-.22,.88,.17,.26,.47,.19,.63,0,.16-.19,.13-.64,.04-.79l-.44-.09Z"/><path class="cls-6" d="M38.27,25.91c-.22,0-.23,.36,0,.36s.24-.36,0-.36Z"/><path class="cls-6" d="M38.04,26.05c-.24,0-.24,.37,0,.37s.25-.37,0-.37Z"/><path class="cls-6" d="M38.4,26.13c-.24,0-.24,.37,0,.37s.25-.37,0-.37Z"/><path class="cls-6" d="M38.25,26.65c.11,.18,.46,.07,.46-.24-.07,.03-.29,.09-.42,.02l-.05,.22Z"/><path class="cls-6" d="M38.08,26.41c-.13-.02-.27-.08-.3-.23-.21,.21,.01,.56,.31,.43v-.2Z"/><path class="cls-6" d="M38.11,26.71c-.13-.04-.13-.23-.12-.32,.04-.2,.44-.09,.39,.13-.04,.17-.15,.23-.28,.19Z"/></g><g><line class="cls-2" x1="34.96" y1="26.48" x2="34.71" y2="26.34"/><line class="cls-2" x1="34.88" y1="25.8" x2="35.07" y2="26.06"/><line class="cls-2" x1="35.59" y1="25.69" x2="35.61" y2="26"/><line class="cls-2" x1="35.44" y1="26.49" x2="35.25" y2="26.32"/><line class="cls-2" x1="35.49" y1="27.03" x2="35.23" y2="26.88"/><line class="cls-2" x1="36" y1="27.02" x2="35.77" y2="26.81"/><line class="cls-2" x1="36.07" y1="26.39" x2="35.99" y2="26.09"/><line class="cls-2" x1="35.12" y1="26.02" x2="35.1" y2="25.72"/><line class="cls-2" x1="36.92" y1="27.42" x2="36.66" y2="27.3"/><line class="cls-2" x1="37.13" y1="26.93" x2="37.31" y2="27.1"/><line class="cls-2" x1="36.9" y1="27.96" x2="37.11" y2="27.92"/><line class="cls-2" x1="37.12" y1="27.86" x2="36.84" y2="27.76"/><line class="cls-2" x1="37.37" y1="27.76" x2="37.61" y2="27.77"/><line class="cls-2" x1="37.64" y1="27.72" x2="37.4" y2="27.52"/><line class="cls-2" x1="38.14" y1="27.81" x2="38.48" y2="27.84"/><line class="cls-2" x1="37.98" y1="28.14" x2="37.67" y2="28.14"/><line class="cls-2" x1="39.33" y1="28.03" x2="39.61" y2="28.06"/><line class="cls-2" x1="39.68" y1="27.94" x2="39.44" y2="27.76"/><line class="cls-2" x1="39.92" y1="27.46" x2="40.16" y2="27.55"/><line class="cls-2" x1="40.8" y1="27.58" x2="41.03" y2="27.7"/><line class="cls-2" x1="40.17" y1="28.09" x2="40.45" y2="28.17"/><line class="cls-2" x1="40.53" y1="28.07" x2="40.33" y2="27.87"/><line class="cls-2" x1="40.97" y1="28.2" x2="41.3" y2="28.28"/><line class="cls-2" x1="40.54" y1="28.77" x2="40.81" y2="28.69"/><line class="cls-2" x1="42.16" y1="28.98" x2="42.13" y2="28.68"/><line class="cls-2" x1="42.52" y1="29.6" x2="42.52" y2="29.28"/><line class="cls-2" x1="42.87" y1="29.44" x2="42.59" y2="29.6"/><line class="cls-2" x1="43.38" y1="28.9" x2="43.41" y2="28.6"/><line class="cls-2" x1="43.46" y1="28.92" x2="43.82" y2="28.73"/><line class="cls-2" x1="44.12" y1="29.05" x2="44.34" y2="28.92"/><line class="cls-2" x1="44.42" y1="28.45" x2="44.61" y2="28.23"/><line class="cls-2" x1="43.68" y1="28.26" x2="43.88" y2="28"/><line class="cls-2" x1="45.34" y1="29.04" x2="45.53" y2="28.82"/><line class="cls-2" x1="46.15" y1="28.64" x2="46.07" y2="28.96"/><line class="cls-2" x1="46.13" y1="29" x2="46.34" y2="28.82"/><line class="cls-2" x1="46.68" y1="29.11" x2="46.91" y2="28.9"/><line class="cls-2" x1="46.77" y1="28.53" x2="46.96" y2="28.31"/><line class="cls-2" x1="46.37" y1="28.27" x2="46.49" y2="27.93"/></g></g><g><g><path class="cls-9" d="M37.68,18.5c-.19-.13-.14-.3,.19-.54,.26-.18,.54-.5,.53-.72-.01-.24,.06-.26,.13-.02,.05,.19,.06,.35,.02,.47,.14-.21,.2-.61,.2-.77,0-.16,.11-.31,.16-.04,.05,.27,.05,.37,.03,.48,.09-.05,.17-.08,.26-.13,.05-.17,.08-.33,.09-.45,.01-.26,.09-.4,.14-.17,.03,.13,.04,.3,.04,.48,.11-.08,.2-.17,.25-.29,.09-.2,.15-.4,.2-.02,0,.06,0,.14,0,.24,.44-.25,1.05,.24,1.37,.17,.32-.07,.29,0,.19,.09-.04,.04-.11,.08-.19,.12,.38,.11,.61,.41,.8,.72,.17-.67-.32-1.15-.76-1.2-.44-.05-.95-.12-.69-.64,.14-.27,.29-.48,.8-.49,.09-.24,.41-.35,1.08-.3,.86,.06,1.72,.23,2.47,.65,.75,.42,1.21,.65,1.62,.46-.03,.14-.1,.28-.2,.39,1.27,.79,2.24,1.89,2.57,2.94,.19,.6,.33,1.23,.85,1.31-.08,.07-.17,.11-.29,.13,.2,.69,.18,1.82,.01,2.44-.17,.62,0,1.7-.22,2.43-.2,.68-.25,.22-.25-.09,0-.85-.19-1.13-.18-2.93,0-.25-.14-.47-.28-.67-.09,1.14,.35,1.81,.08,3.43-.08,.47-.22,.06-.25-.65-.03-.71-.26-1.11-.34-1.75-.03-.24-.11-.44-.2-.62,0,.68,.26,1.98,.19,2.67-.05,.48-.21,.09-.21-.16,0-.73-.3-1.13-.39-1.78-.02-.18-.15-.45-.35-.76,.13,.51,.2,1.12,.21,1.41,.01,.29-.03,.44-.15,.25-.11-.19-.23-.54-.27-.99-.04-.45-.36-.68-.61-.93,.18,.33,.36,.87,.44,1.22,.07,.32-.02,.37-.09,.25-.06-.13-.26-.47-.37-.79-.1-.32-.35-.62-.64-.73-.28-.12-.29-.1-.6-.43,.31,.35,.66,.83,.83,1.2,.18,.37,.13,.43-.04,.28-.17-.15-.23-.24-.38-.5-.33-.55-.4-.43-.6-.48-.21-.05-.42-.13-.7-.48-.04,.06-.11,.11-.2,.13,.28,.51,.42,1.05,.44,1.56,.73,.54,2.5,1.69,3.59,2.44,.51,.35,.1,.51-.28,.52-.28,.01-.41,0-.52-.06-.07,.25-.56,.44-.87,.21-.13,.21-.48,.28-.78,0-.16,.17-.39,.14-.55,0-.15-.15-.24-.21-.7-.65,.03,.54-.15,.24-.23,.04-.03,.58-.17,.47-.28,.27-.09,.47-.3,.5-.44,.28-.05-.09-.12-.19-.19-.31-.09,.56-.29,.4-.39,.21-.09-.19-.22-.36-.46-.7-.09,.11-.22-.07-.45-.41-.05-.07-.12-.16-.2-.26-.07,.73-.27,.67-.45,.44-.2,.09-.57,.27-.93,.3-.38,.03-.39-.13-.26-.33-.48-.06-.9-.16-.91-.34,0-.18,.61-.53,.96-.76-.31-.26-.45-.54-.4-.6,.07-.07,.31,.01,.53,.13-.3-.36-.68-.99-.6-1.2-.07-.08-.14-.16-.22-.23-.13,.08-.3,.11-.26-.1,.04-.24-.27-.74-.29-1.14-.02-.4,.26-.58,.38-.98-.09-.02-.12-.09-.09-.19,.05-.19,.36-.46,.46-.77-.14,0-.17,0-.07-.13,.1-.13,.18-.33,.21-.51-.07,.05-.1,.02-.1-.05,0-.13-.08-.17-.17-.19-.2-.05-1.48-.12-1.81-.36Z"/><g><path class="cls-2" d="M38.75,17.91c.25-.12,.42-.23,.58-.36,.16-.13,.4-.31,.4,0,0,.31-.4,.57-.8,.61"/><path class="cls-2" d="M39.88,17.17c.41,0,.93,.25,1.08,.41,.15,.16,.18,.36-.24,.32"/><path class="cls-2" d="M39.76,17.45c.38,.12,.72,.29,.92,.45,.2,.16,.18,.31-.21,.22-.39-.09-.62-.2-.83-.32"/><path class="cls-2" d="M41.16,17.45c.54,.5,.78,.92,.86,1.21,.09,.29,.03,.71-.06,.59-.08-.1-.24-.16-.39-.18"/><path class="cls-2" d="M41.05,17.83c.34,.31,.57,.96,.49,1.44-.08,.48-.26,.21-.42,.06-.16-.15-.54-.57-.5-1.17"/><path class="cls-2" d="M39.2,18.24c.34-.11,.9-.07,.83,.16-.06,.23-.56-.04-.79,0"/><path class="cls-2" d="M39.97,17.99c-.02,.06-.04,.15-.16,.21"/><path class="cls-2" d="M39.95,18.5c.14,.26,.48,.41,.69,0"/><path class="cls-2" d="M40.52,21.1c-.11,.53-.11,1.09,.26,1.41,.38,.32,.47,.34,.58,.16,.12-.19,.17-.5,.09-.86-.09-.35-.13-.65-.02-.94"/><path class="cls-2" d="M40.59,22.26c-.02,.15-.05,.32-.17,.41-.11,.08-.18,.07-.21-.09-.03-.17-.51-.9-.15-1.61"/><path class="cls-2" d="M39.74,20.96c-.48,.91,0,1.13-.02,1.43-.01,.3,.14,.22,.2,.13,.05-.09,.1-.23,.1-.47"/><path class="cls-2" d="M40.88,19.33c-.42,.67-.53,1.23-.46,1.55,.07,.32,.31,.45,.49,.25,.18-.2,.25-.35,.32-.52"/><path class="cls-2" d="M41.26,19.65c-.15,.6-.11,.94,.13,1.19,.19,.19,.32,0,.4-.16,.17-.35,.24-.94,.17-1.44"/><path class="cls-2" d="M40.01,19.63c-.15,.44-.24,.87-.27,1.07-.03,.21,.02,.37,.24,.28,.22-.09,.37-.25,.44-.52"/><path class="cls-2" d="M39.86,22.61c.14,.17,.32,.29,.43,.45,.15,.22,.26-.13,.26-.56"/><path class="cls-2" d="M40.23,23.74c-.02,.28,.03,.91,.14,1.11,.11,.2,.31,.51,.59,.08"/><path class="cls-2" d="M41.91,20.33c0,.54,.43,.87,.28,1.6-.06,.31-.19,.52-.71,.09"/><path class="cls-2" d="M41.95,20.08c-.02,.2,.18,.36,.31,.51,.14,.16,.21,.17,.3-.25s.06-.95-.02-1.21"/><path class="cls-2" d="M42.22,21.49c.28,.1,.49,.04,.49-.21s-.11-.49-.24-.66"/><path class="cls-2" d="M37.93,18.37c-.01,.1,.18,.1,.33,.08,.15-.03,.33-.16,.35-.31,.02-.16-.03-.31-.15-.3"/><path class="cls-2" d="M38.04,18.21c.03,.08,.3,.21,.42-.16"/><path class="cls-2" d="M38.13,18.11s.09,.07,.15,.03c.06-.04,.11-.2,.01-.17"/><path class="cls-2" d="M45.13,16.55c.1,.17,.17,.36,.15,.5-.02,.14-.11,.21-.25,.05-.14-.16-.24-.21-.37-.25"/><path class="cls-2" d="M44.35,16.2c.16,.16,.3,.37,.3,.52,0,.14-.08,.36-.24,.23-.16-.12-.24-.22-.35-.3"/><path class="cls-2" d="M43.7,16.14c.19,.16,.31,.31,.36,.48s.08,.35-.24,.22c-.32-.13-1.04-.29-1.52-.31"/><path class="cls-2" d="M42.95,16.1c.49,.08,.51,.62,.76,.7"/><path class="cls-2" d="M43.97,17.38c.45,.1,1.01,.29,1.19,.38,.18,.09,.4,.2,.49,.06,.09-.13,.24-.32,.18-.5"/><path class="cls-2" d="M45.48,17.89c.09,.26,.04,.63-.21,.81"/><path class="cls-2" d="M44.11,18.13c.4-.02,.83,.22,1.02,.44,.2,.22,.32,.6-.09,.91"/><path class="cls-2" d="M45.82,17.6c.88,.81,2.01,2.24,2.23,2.79,.22,.55,.05,.79-.49,.24-.54-.55-1.64-1.89-2.04-2.39"/><path class="cls-2" d="M45.25,19.25c.51,.59,1.2,1.49,1.53,1.74,.33,.25,.59,.42,.52-.6"/><path class="cls-2" d="M44.93,19.95c.47,.48,1.1,1.13,1.42,1.33,.32,.2,.5,.29,.44-.28"/><path class="cls-2" d="M43,20.94c.29,.4,.65,.89,.77,1.02,.12,.14,.11,.34,.09,.5-.02,.16-.09,.14-.26,.1"/><path class="cls-2" d="M43.07,20.25c.21,.28,.21,.51-.1,.55"/><path class="cls-2" d="M43.18,20.39c.28,0,.5-.12,.52-.53"/><path class="cls-2" d="M43.43,19.75c.37,.32,.78-.26,.53-.56"/><path class="cls-2" d="M43.73,19.14c.37,.04,.5-.29,.24-.73"/><path class="cls-2" d="M43.69,18.44c.45,.06,.57-.45,.18-.9"/><path class="cls-2" d="M43.58,17.61c.07-.06,.1-.1,.21-.09,.1,0,.22-.07,.14-.27-.08-.19-.12-.33-.11-.41"/><path class="cls-2" d="M40.81,16.53c.26-.07,.61-.21,.87-.06"/><path class="cls-2" d="M41.65,16.84c.19-.07,.5-.11,.73,0"/><path class="cls-2" d="M42.29,17.24c.14-.08,.67,0,.76,.37"/><path class="cls-2" d="M42.52,17.8c.17-.09,.59,.06,.64,.31"/><path class="cls-2" d="M42.57,18.39c.36,0,.68,.27,.64,.55"/><path class="cls-2" d="M39.65,22.69c.25,.31,1.15,1.24,1.45,1.54,.15,.16,.22,.19,.28-.14"/><path class="cls-2" d="M40.47,23.07c.33,.37,.86,1.02,1.24,1.23,.37,.21,.31-.03,.31-.5"/><path class="cls-2" d="M41.37,22.67c.18,.43,.55,1.08,.93,1.35,.37,.27,.4,.05,.37-.29-.04-.52-.41-1.16-.59-1.51"/><path class="cls-2" d="M40.71,24.28c.13,.15,.42,.14,.28-.14"/><path class="cls-2" d="M41.28,24.35c.31,.59,1.07,1.28,1.3,1.46,.23,.18,.24,.14,.3-.12"/><path class="cls-2" d="M41.98,24.37c.34,.63,.71,1.19,.98,1.35,.27,.15,.35,.17,.37-.23"/><path class="cls-2" d="M42.6,24.14c.23,.56,.52,1.14,.77,1.4,.25,.26,.37,.15,.37-.29"/><path class="cls-2" d="M42.68,21.44c.32,.64,.55,1.34,.58,1.85,.03,.51-.01,.53-.63,.17"/><path class="cls-2" d="M42.98,21.15c.37,.69,.58,1.24,.64,1.63,.05,.38,.03,.48-.37,.32"/><path class="cls-2" d="M43.59,23.15c.26,.73,.44,1.52,.45,1.86,0,.33-.04,.75-.37,.07-.08-.17-.34-.92-.47-1.38"/><path class="cls-2" d="M43.87,22.54c.25,.67,.45,1.31,.46,1.92s0,1.05-.28,.57"/><path class="cls-2" d="M43.61,21.42c.46-.25,.49-.7-.19-1.06"/><path class="cls-2" d="M43.95,20.88c.52-.21,.85-.63-.09-1.09"/><path class="cls-2" d="M44.42,20.21c.34-.02,.56-.26,.55-.52-.01-.26-.22-.6-.93-.64"/><path class="cls-2" d="M44.27,21.83c.44,.14,.78,.24,.7-.51"/><path class="cls-2" d="M44.38,20.62c.38,.43,.54,.73,.98,.82,.51,.12,.49,.05,.29-.76"/><path class="cls-2" d="M38.55,17.69c-.02,.07-.06,.13-.11,.16-.16,.11-.66,.5-.48,.7"/><path class="cls-2" d="M38.55,17.69c.14-.18,.27-.26,.39-.33"/><path class="cls-2" d="M38.95,17.8c.09-.14,.18-.36,.24-.56"/><path class="cls-2" d="M39.46,17.08c0,.13,0,.26-.03,.37"/><path class="cls-2" d="M42.08,18.12c.21,.35,.37,.71,.62,.84,.36,.19-.1,.17-.15,.17-.15-.02-.4-.14-.51-.38"/><path class="cls-2" d="M41.28,17.4c-.12,.06-.28,.11-.4,.1"/><path class="cls-2" d="M39.91,17.02c-.02,.13-.06,.29-.17,.46"/><path class="cls-2" d="M45.25,17.14c.39,.34,.88,.19,1.16-.15"/><path class="cls-2" d="M46.34,22.67c-.25-.25-.57-.57-.61-.86"/><path class="cls-2" d="M47.15,22.92c-.11-.17-.24-.34-.38-.52"/><path class="cls-2" d="M47.91,22.95c-.16-.3-.38-.55-.53-.83"/><path class="cls-2" d="M48.63,22.55c-.16-.22-.32-.41-.35-.59"/><path class="cls-2" d="M49.55,21.38c-.4,.07-1.01-.17-1.48-.88"/><path class="cls-2" d="M41.44,15.8c-.03,.07-.04,.14-.03,.23,.03,.39,.26,.44,.66,.66,.84,.47,.92,.34,1.11,1.54,.14,.88,0,1.11-.54,1.61,.12,.68,.22,.85,.32,1.02,.1,.17,.11,.35-.22,.34"/><path class="cls-2" d="M44.19,22.21c.16-.23,.02-.65-.32-.97"/><path class="cls-2" d="M43.88,22.14c.04,.07,.09,.13,.12,.2"/><path class="cls-2" d="M44.34,24.99c.09-.33,.13-.7,.1-1.1"/><path class="cls-2" d="M45.58,27.02c-.35-.32-.71-.66-1.29-1.18"/><path class="cls-2" d="M46.36,27.01c-.3-.23-1.56-1.37-2.07-1.8"/><path class="cls-2" d="M47.23,26.8c-.54-.34-2.1-1.49-2.89-2.2"/><path class="cls-2" d="M43.73,25.37c.15,.48,.29,.83,.37,1.03"/><path class="cls-2" d="M43.19,26.65c-.11-.18-.25-.42-.43-.71"/><path class="cls-2" d="M43.82,26.68c-.12-.2-.34-.54-.56-.88"/><path class="cls-2" d="M44.33,26.36c-.03-.54-.05-.88-.08-1.11"/><path class="cls-2" d="M40.07,25.9c.04-.05,.09-.11,.14-.16,.18-.18,.4-.33,.78-.41"/><path class="cls-2" d="M41.25,25.93c-.04-.05-.08-.12-.12-.18-.19-.34-.2-.79-.18-1.16"/><path class="cls-2" d="M42.35,26.16c.05-.06,.09-.19,.13-.43"/><path class="cls-2" d="M40.12,24.8c.1,.09,.23,.17,.37,.24"/><path class="cls-2" d="M39.66,23.13c.79,.83,1.61,1.79,2.04,2.36"/><path class="cls-2" d="M39.44,22.9s.03-.03,.05-.04c.13-.1,.2-.25,.24-.41"/><path class="cls-2" d="M39.26,20.68s.06,0,.1,0c.18-.02,.3-.09,.44-.25"/><path class="cls-2" d="M39.63,19.72h.05c.18,0,.44-.09,.7-.39"/><path class="cls-2" d="M39.77,19.09s.05-.04,.08-.07c.08-.08,.18-.2,.15-.44"/></g></g><g><path class="cls-8" d="M37.61,18.44c-.14,0-.31,.12-.22,.26-.46,.27-.49,.81-.27,1.13,.18,.26,.64,.25,.76,.23-.24-.08-.34-.62-.23-.77,.12-.15,.36-.44,.94,.18,.19-.18,.37-.33,.55-.34,.23-.01,.46-.22,.31-.41-.15-.19-.94,.1-1.18-.07-.24-.18-.53,0-.67-.2Z"/><path class="cls-2" d="M39.15,19.11c.03-.19-.13-.24-.35-.2-.22,.04-.4,.17-.52,.27"/><path class="cls-2" d="M37.39,18.69c0,.09,.33,.13,.33-.17"/></g><g><path class="cls-5" d="M43.33,26.87c.07,.26-.39,.46-.64,.37-.25-.09-.54,0-.54,.33,0,.21,.12,.33,.34,.39-.04,.16,.14,.43,.37,.44,.24,0,.44-.2,.44-.43,.32,.06,.79-.27,1.14-.05,.09,.26,.38,.31,.7,.14,.32-.18,.19-.59-.1-.58-.51,0-.89-.3-1.22-.79-.09,.43-.28,.56-.49,.2Z"/><path class="cls-2" d="M42.49,27.96c.06-.21,.52-.31,.6-.42,.09-.1,.3-.24,.39-.25"/><path class="cls-2" d="M43.47,27.05c0,.08,.03,.25,.02,.31,0,.06,0,.14,.22,.14,.22,0,.3,0,.28-.14-.02-.14-.05-.34-.05-.52"/><path class="cls-2" d="M43.31,27.97c.19,0,.39-.13,.44-.32"/><path class="cls-2" d="M43.71,27.92c.12-.03,.26-.13,.29-.28"/><path class="cls-2" d="M44.04,27.85c.12-.02,.21-.09,.21-.21"/><path class="cls-2" d="M43.24,27.41c-.08,.06-.02,.21,.15,.28"/><path class="cls-2" d="M42.93,27.63c-.1,.05-.04,.33,.14,.36"/><path class="cls-2" d="M44.95,27.47c-.15-.01-.39-.02-.43,.05"/><path class="cls-7" d="M42.48,28.66c-.41-.18-.33-.63-.03-.69,.3-.06,.31,.13,.31,.26s-.42,.18-.29,.43Z"/><path class="cls-7" d="M41.82,28.05c-.32-.24-.08-.66,.23-.67,.31,0,.29,.32,.18,.4-.11,.08-.49-.09-.41,.27Z"/><path class="cls-7" d="M45.12,28.54c.45-.05,.48-.39,.38-.58-.1-.2-.33-.18-.4-.12-.07,.07-.15,.25,0,.34,.14,.09,.15,.22,.03,.36Z"/><path class="cls-2" d="M42.63,27.22c.12,.03,.19,.09,.2,.15"/></g><g><path class="cls-5" d="M39.5,24.94c.21,.08,.82,.26,1.38,.42-.15,.04-.37,.11-.53,.25-.35-.08-.98-.19-1.33-.24-.21,.2-.32,.22-.39,.13-.06-.08-.23-.16-.44-.28-.09,.07-.17,.09-.23,.09-.11,.11-.2,.13-.28,.1-.09,.15-.18,.21-.35,.06-.17-.15-.25-.41-.25-.55s.1-.2,.18-.21c.05-.2,.19-.29,.34-.26,.03-.2,.23-.33,.47-.3,.31,.04,1.04-.15,1.21,.07,.12,.17,.44,.49,.21,.72Z"/><g><path class="cls-2" d="M37.27,24.71c-.02,.07,.08,.17,.14,.34,.04,.11,.13,.3,.26,.36"/><path class="cls-2" d="M37.61,24.45s0,.1,.01,.16c.04,.14,.11,.29,.14,.47,.01,.12,.08,.23,.2,.24"/><path class="cls-2" d="M38.85,25.17c-.24-.09-.25-.25-.26-.4,0-.15-.25-.25-.44-.13-.19,.12-.28,.38-.04,.53,.03,.02,.05,.03,.08,.05"/><path class="cls-2" d="M39.5,24.94c-.12,.12-.2,.18-.49,.43"/></g><g><path class="cls-7" d="M37.98,25.31c.09,.16,.32,.31,.59,.14-.11-.09-.31-.19-.38-.23-.06,.04-.13,.08-.21,.09Z"/><path class="cls-7" d="M37.71,25.42c.05,.13,.33,.24,.58,.11-.12-.02-.25-.09-.31-.21h-.02c-.04,.05-.16,.14-.25,.11Z"/><path class="cls-7" d="M37.5,25.56c.04,.1,.29,.14,.4,.01-.06-.02-.18-.08-.2-.15,0,0-.02,0-.03,0-.03,.05-.09,.15-.17,.15Z"/><path class="cls-7" d="M38.48,24.04c-.47-.03-.58,.35-.56,.66,.01,.16,.15,.18,.29,.14,.09-.03,.17-.1,.12-.29-.05-.17-.04-.38,.16-.52Z"/></g></g><path class="cls-5" d="M36.9,17.36c.16,.15,.15,.58-.02,.73,.03-.15,.04-.41-.08-.52l.09-.21Z"/><path class="cls-11" d="M36.99,19.45c-.91,.36-1.12-.17-1.13-.37-.01-.2-.04-.41-.12-.61-.12-.31-.09-.51,.22-.69,.3-.18,.59-.39,.75-.52,.16-.14,.32-.23,.22,.08-.04,.14-.14,.44-.31,.6-.17,.17-.28,.34-.14,.47s.55-.09,.74-.29c.04,.1-.12,.3-.29,.35-.17,.05-.53,.14-.5,.28,.04,.21,.46,.03,.81,.06-.13,.12-.27,.31-.24,.63Z"/><path class="cls-11" d="M38.62,24.95c.33-.14,.9-.46,.57-1.28-.42-1.02-1.65-.28-1.96-.72-.44-.63-.35-1.01,.75-1.83,1.06-.79,.96-1.33,.62-1.67-.08-.1-.39-.39-.63-.38-.23,.01-.41,.27-.35,.46,.28,.21,.4,.6,.1,.83-.96,.71-1.87,1.43-1.45,2.7,.32,.97,1.15,.79,1.43,.8,.48,.02,.91-.02,.75,.29-.03,.05-.08,.12-.15,.19,0,.06,0,.18,.03,.25,.08,0,.18,.03,.22,.09,.06,.08,.03,.2,.06,.26Z"/><path class="cls-10" d="M37.08,22c-.18,.32-.1,.6,.15,.95,.31,.44,1.54-.3,1.96,.72,.33,.81-.24,1.14-.57,1.28-.03-.06,0-.18-.06-.26-.05-.06-.14-.09-.22-.09-.02-.07-.03-.19-.03-.25,.07-.07,.12-.13,.15-.19,.15-.31-.3-.27-.78-.29-1.11-.05-1.03-1.33-.59-1.87Z"/><path class="cls-10" d="M37.64,19.32c.05-.13,.18-.23,.33-.24,.23,0,.54,.28,.63,.38,.33,.32,.44,.83-.48,1.57,.67-.51,.24-1.6-.48-1.71Z"/><path class="cls-11" d="M37.5,25.56c-.68,.56-1.25,.18-1.39-.6-.1-.52-.23-.63-.66-.93-.65-.46-.38-1.03-.22-1.5,.17-.47-.04-.66-.37-.81-.32-.16-1.04-.54-.03-.52,1.01,.02,1.07,1.14,.89,1.52-.19,.38-.26,.67,.33,.9,.6,.23,.41,1.07,.81,1.31,.06,.04,.14,.05,.22,.05,.04,.27,.2,.55,.41,.58Z"/><g><path class="cls-10" d="M34.49,21.21c.07-.06,.13-.25-.06-.3-.23-.06-.24,.14-.37,.18-.17,.05-.21,.1-.06,.23,.1,.09,.01,.27,.24,.33,.19,.05,.25-.15,.2-.23-.03-.06,0-.17,.06-.22Z"/><path class="cls-10" d="M34.75,21.28c.07-.05,.13-.25-.06-.3-.23-.06-.24,.14-.37,.18-.17,.05-.21,.1-.06,.23,.1,.09,.01,.28,.24,.33,.19,.05,.24-.15,.2-.23-.03-.06,0-.17,.05-.22Z"/><path class="cls-10" d="M35.01,21.35c.07-.06,.13-.25-.06-.3-.23-.06-.24,.14-.37,.17-.17,.05-.21,.11-.06,.23,.1,.09,.01,.27,.24,.33,.19,.05,.24-.15,.2-.23-.03-.06,0-.17,.06-.22Z"/></g><g><path class="cls-2" d="M37.63,19.32c.72,.11,1.15,1.2,.48,1.71"/><path class="cls-2" d="M37.79,20.3c-.11,.12-.01,.72,.1,.89"/><path class="cls-2" d="M37.87,21.21c-.22-.05-.75-.17-.92-.22"/><path class="cls-2" d="M37.45,20.56c-.06,.17,0,.78,.04,.96"/><path class="cls-2" d="M37.34,20.66c.16-.02,.95,.17,1.02,.06"/><path class="cls-2" d="M37.9,20.07c0,.19,.55,.63,.34,.84"/><path class="cls-2" d="M37.76,20.33c.12,.04,.68-.14,.6-.37"/><path class="cls-2" d="M36.93,21c-.01,.18,.15,.67,.21,.87"/><path class="cls-2" d="M36.58,21.37c.18-.04,.69,.2,.89,.17"/><path class="cls-2" d="M36.23,22.01c.05-.15,.85-.04,.95-.17"/><path class="cls-2" d="M36.54,21.41c-.08,.12,.27,.56,.4,.79"/><path class="cls-2" d="M36.22,22.03c-.04,.17,.6,.47,.57,.6"/><path class="cls-2" d="M36.19,22.75c-.02-.19,.66-.44,.76-.57"/><path class="cls-2" d="M36.35,23.26c-.09-.23,.42-.58,.46-.75"/><path class="cls-2" d="M36.2,22.8c.08-.08,.53,.07,.57,.3"/><g><path class="cls-2" d="M36.81,22.6c.05,.03,.2-.01,.24,.06"/><path class="cls-2" d="M36.78,22.89c0,.07,.39,0,.45,.06"/><path class="cls-2" d="M36.84,23.28c-.03-.12,.26-.35,.43-.27"/><path class="cls-2" d="M36.98,23.57c-.04-.12,.21-.54,.37-.51"/><path class="cls-2" d="M37.24,23.76c-.09-.05,.17-.65,.36-.66"/><path class="cls-2" d="M37.55,23.85c-.09,0,.1-.75,.32-.75"/><path class="cls-2" d="M37.8,23.87c-.13,0,.05-.76,.3-.77"/><path class="cls-2" d="M38.09,23.88c-.14,0,0-.79,.22-.78"/><path class="cls-2" d="M38.29,23.9c-.13-.04,.1-.81,.28-.77"/><path class="cls-2" d="M38.44,23.96c-.11-.11,.24-.81,.36-.74"/><path class="cls-2" d="M38.47,24.02c-.02-.07,.49-.71,.57-.59"/><path class="cls-2" d="M38.46,24.13c.03-.1,.77-.39,.79-.27"/><path class="cls-2" d="M38.41,24.22c.06-.08,.92-.17,.89,0"/><path class="cls-2" d="M38.35,24.3c.06-.06,.94,.04,.86,.17"/><path class="cls-2" d="M38.31,24.39c.18,0,.84,.18,.77,.25"/><path class="cls-2" d="M38.32,24.53c.29,.03,.65,.2,.56,.28"/></g><path class="cls-2" d="M36.39,23.34c.05,.1,.34-.03,.45-.06"/><path class="cls-2" d="M36.63,23.63c.07,.07,.27,0,.37-.05"/><path class="cls-2" d="M37.9,19.99c-.01-.13,.18-.28,.31-.32"/><path class="cls-2" d="M38.35,19.93c-.1-.03-.49-.13-.58-.23"/><path class="cls-2" d="M37.87,19.39c.07-.08,.26-.28,.35-.24"/><path class="cls-2" d="M38.13,19.58c.09-.11,.26-.32,.35-.23"/><path class="cls-2" d="M38.27,19.77c.11-.11,.34-.29,.41-.2"/><path class="cls-2" d="M38.36,19.95c.15-.11,.42-.26,.45-.12"/><path class="cls-2" d="M38.44,20.18c.18-.1,.41-.23,.39-.12"/><path class="cls-2" d="M38.44,20.4c.16-.07,.34-.15,.3-.07"/><path class="cls-2" d="M38.42,20.59c.06-.03,.14-.05,.19-.05"/><path class="cls-2" d="M37.13,18.82c-.17,0-.51,.76-.68,.75"/><path class="cls-2" d="M36.17,19.52c-.11-.07,.29-.63,.52-.66"/><path class="cls-2" d="M35.85,19.02c0-.16,.36-.33,.57-.31"/><path class="cls-2" d="M36.42,18.73c-.17,.04-.35,.45-.07,.84"/><path class="cls-2" d="M36.49,18.85c-.1,.17,.27,.55,.44,.63"/><path class="cls-2" d="M36.36,25.56c.09,.13,.66-.16,.81-.3"/><path class="cls-2" d="M36.9,24.95c.1,.06-.23,.88,0,.88"/><path class="cls-2" d="M36.69,24.74c.12,.31-.43,.66-.37,.78"/><path class="cls-2" d="M36.56,24.37c.04,.15-.47,.62-.4,.81"/><path class="cls-2" d="M36.22,23.71c.1,.08-.33,.6-.23,.84"/><path class="cls-2" d="M35.64,24.17c.11,.09,.77-.24,.87,.02"/><path class="cls-2" d="M36.12,24.98c.02,.11,.5,.14,.84-.01"/><path class="cls-2" d="M36.01,24.59c.06,.14,.4,.28,.67,.12"/><path class="cls-2" d="M35.95,23.58c-.09-.05-.51,.45-.4,.53"/><path class="cls-2" d="M35.23,23.83c-.1-.13,.35-.53,.44-.44"/><path class="cls-2" d="M35.06,23.49c-.06-.2,.5-.38,.54-.27"/><path class="cls-2" d="M35.07,23.06c.05-.19,.56-.24,.54-.03"/><path class="cls-2" d="M35.19,22.67c.08-.22,.6-.09,.54,.05"/><path class="cls-2" d="M35.28,22.39c.03-.17,.53-.23,.53-.01"/><path class="cls-2" d="M35.28,22.1c-.03-.17,.43-.34,.49-.13"/><path class="cls-2" d="M35.19,21.93c-.12-.16,.36-.44,.45-.31"/><path class="cls-2" d="M35.09,21.85c-.14-.09,.16-.59,.28-.5"/><path class="cls-2" d="M36.13,18.62c-.06-.1-.08-.31,.02-.41,.09-.09,.21-.21,.25-.37,.03-.11-.04-.07-.08-.03-.05,.04-.12,.02-.11-.03,0-.06,.06-.14,.14-.15,.05-.01,.05,.06,.04,.09"/></g></g></g></g><rect class="cls-1" x=".06" width="83.37" height="50.02"/></g></g></svg>