<?xml version="1.0" encoding="UTF-8"?><svg id="Layer_2" xmlns="http://www.w3.org/2000/svg" viewBox="0 0 84.26 50.97"><defs><style>.cls-1{fill:#eb2227;}.cls-2{fill:#fff;}.cls-3{fill:#fcee21;}.cls-4{fill:#085ca8;}</style></defs><g id="DESIGN"><g id="layer1"><g><rect class="cls-3" width="84.26" height="16.99"/><rect class="cls-1" y="33.98" width="84.26" height="16.99"/><rect class="cls-4" y="16.99" width="84.26" height="16.99"/></g><path class="cls-2" d="M39.67,19.75l-.96-1.64-.28,1.84-2.01,.32,1.84,.81-.29,1.84,1.42-1.33,1.83,.81-.96-1.64,1.42-1.33-2.01,.32Zm6.15,.2l-.28-1.84-.96,1.64-2.01-.32,1.42,1.33-.96,1.64,1.83-.81,1.42,1.33-.29-1.84,1.83-.81-2.01-.32Zm-10.24,.6l-1.77,.92-1.52-1.24,.43,1.81-1.77,.93,2.03,.19,.42,1.81,.83-1.7,2.03,.19-1.52-1.24,.83-1.69Zm15.95,1.49l.43-1.81-1.52,1.24-1.77-.92,.83,1.69-1.52,1.24,2.04-.19,.82,1.7,.43-1.81,2.03-.19-1.77-.93Zm-21.26,1.45l-1.31,1.42-1.89-.7,1.08,1.57-1.31,1.42,1.98-.45,1.08,1.57,.14-1.84,1.98-.45-1.89-.69,.14-1.85Zm27.15,3.71l-1.31-1.42,1.08-1.57-1.89,.7-1.31-1.42,.14,1.85-1.89,.69,1.98,.45,.14,1.84,1.08-1.57,1.98,.45Zm-30.47,2.48l-.56-1.78-.7,1.74-2.04-.06,1.61,1.14-.7,1.74,1.69-1.03,1.61,1.14-.56-1.78,1.69-1.04-2.04-.06Zm33.65-.1l-2.04,.06-.7-1.74-.56,1.78-2.04,.06,1.7,1.04-.57,1.78,1.61-1.14,1.69,1.03-.7-1.74,1.61-1.14Z"/></g></g></svg>