<svg xmlns="http://www.w3.org/2000/svg" viewBox="0 0 121.304 141.248"><g data-name="Layer 2"><g data-name="Layer 1"><path d="M103.02 113.11c-4.604 8.506-11.726 8.96-13.17 8.96H42.153v-3.94a97.676 97.676 0 0 0 15.309 2.34c19.211 1.223 34.615-2.623 43.368-10.843 5.782-5.422 8.712-12.554 8.712-21.192 0-11.796-8.17-23.74-26.284-26.544v-2.086h15.7l-8.106-14.63 13.331-22.395s-12.533 4.602-23.127 1.982a194.655 194.655 0 0 0-38.903-4.929v-1.882h7.705V0H15.27v17.95h7.708v2.96A30.608 30.608 0 0 0 0 50.55a29.649 29.649 0 0 0 22.978 28.934v11.9q-2.958-1.319-5.915-2.824L4.9 104.442a177.72 177.72 0 0 0 18.078 7.882v9.746H15.27v19.178h74.58c11.146 0 20.018-4.382 26.85-13.319zM22.979 60.053c-3.308-2.23-4.864-6.273-4.864-10.123a11.641 11.641 0 0 1 4.864-9.371zm66.08 29.97c0 3.19-1.786 5.714-5.458 7.716-8.39 4.564-23.887 5.01-41.447.43V80.465h22.912v9.91h18.193v-8.77c4.063 1.366 5.8 4.033 5.8 8.42m-8.477-46.611H58.448l-9.086 16.392h15.703v1.73H42.153v-22.71c10.18.067 25.29 1.022 38.428 4.588" fill="#fff"/><path d="M103.45 119.45a18.511 18.511 0 0 1-13.6 6.606H38.168v-13.041a100.527 100.527 0 0 0 19.545 3.477c24.463 1.56 47.847-5.107 47.847-28.057 0-11.4-8.71-21.543-26.206-22.996v-9.54h12.975l-4.756-8.578h-26.82l-4.759 8.577h12.978v9.623H38.168V34.865c11.54-.203 33.281.722 50.095 6.867 1.604-2.7 4.202-7.06 7.64-12.837a40.64 40.64 0 0 1-15.805-.263c-6.187-1.532-25.022-5.122-41.93-4.768v-9.897h7.705V3.982h-26.62v9.985h7.705v10.23A26.636 26.636 0 0 0 3.984 50.55c0 13.44 10.016 23.948 22.974 25.622v21.21a131.075 131.075 0 0 1-8.724-3.803l-7.181 9.383a177.688 177.688 0 0 0 15.905 6.533v16.562h-7.705v11.208H89.85c8.917 0 15.946-3.08 21.565-9.186zM26.959 65.637C19.067 64.65 14.13 57.989 14.13 49.93a16.008 16.008 0 0 1 12.828-15.44zm42.014 10.846v9.987h10.382v-9.746c6.047.66 13.69 3.218 13.69 13.3 0 14.57-25.2 19.68-54.876 11.16V76.483z" fill="#c41e3a"/><path d="M115.92 137.79h-1.257v3.458h-.799v-3.458h-1.248v-.653h3.304zm3.12 2.26l1.112-2.913h1.152v4.111h-.745v-3.203h-.022l-1.227 3.203h-.56l-1.223-3.203h-.018v3.203h-.747v-4.111h1.155z" fill="#fff"/></g></g></svg>
