<svg xmlns="http://www.w3.org/2000/svg" viewBox="0 0 189.243 163.128"><g data-name="Layer 2"><g data-name="Layer 1"><path fill="#134a8e" d="M152.5 99.232h1.15v3.132h.773v-3.132h1.152v-.684H152.5v.684zm6.022 1.812h-.018l-.884-2.496h-1.35v3.816h.775v-3.025h.02l1.069 3.025h.752l1.098-3.025h.021v3.025h.78v-3.816h-1.341l-.922 2.496zM57.69 58.73a7.434 7.434 0 0 1 .312-5.6 7.618 7.618 0 0 1 3.018-2.965c10.389-6.972 32.406.173 32.406.173a59.253 59.253 0 0 0-13.141.097c6.145 1.912 12.71 4.498 17.161 5.578a73.33 73.33 0 0 0 14.557 2.336l-.176-2.144 3.03.52 8.066 1.376 1.192-3.02 1.313-3.33 2.563 2.497c.057.048 4.017 3.91 6.11 5.937-.37-3.808-1.307-13.485-1.315-13.599l-.376-3.904 3.638 1.47 3.97 1.602 5.963-9.748 2.028-3.319 2.032 3.32 4.813 7.862c1.677-6.825 2.88-14.06 6.395-17.41-3.523.13-6.001 1.123-9.847 3.816 2.184-5.896 5.405-10.271 9.762-15.275a34.64 34.64 0 0 0-12.24 4.122 25.814 25.814 0 0 0 1.617-8.07c-18.583 21.57-70.41 21.298-83.833 25.7a29.468 29.468 0 0 0-16.452 12.423c-.306 4.884 3.252 9.554 7.434 9.554z"/><path fill="#1d2d5c" d="M132.663 89.651l-3.468 4.171 3.468-4.169v-.002z"/><path d="M123.745 96.661l3.624-4.359 1.964-2.375-7.599-6.553c-4.13 6.308-8.157 13.155-10.077 18.441l8.362-.037c-4.298 5.323-12.578 14.123-18.148 23.87-5.57-13.674-18.613-31.27-42.17-40.939-6.824-2.8-13.265-6.515-12.431-11.916a357.243 357.243 0 0 0-39.34-3.527c-1.112-.02-2.149-.038-3.074-.048-.852-.007-1.07.334-.146 1.065 4.016 2.91 17.626 8.175 34.323 11.286 8.03 1.498 11.703 3.694 17.468 7.723 12.549 8.78 29.655 32.304 40.087 62.926 19.776-38.407 42.74-55.65 44.558-56.978l-11.757.96zM4.328 68.259c8.38-.355 20.137-.77 40.673-.08 1.737.026 3.446.058 5.108.093 1.033-1.372 2.919-2.59 6.507-2.59h1.059c6.671.093 7.908 6.94 14.995 6.94 7.06 0 8.313-6.793 14.927-6.932.182-.001.38-.004.553-.007h24.456l-.333-4.06H87.788c-6.79 0-7.994-6.947-15.126-6.947-7.027 0-8.289 6.862-14.827 6.916-7.075-.42-9.873-6.346-10.428-11.368-3.097 1.313-4.683 2.85-7.009 6.527-25.283 4.183-33.935 8.227-36.205 10.74-.338.456-.189.666.135.768zM69.954 57.83a11.784 11.784 0 0 0-.101 4.605l-2.377-.001a5.607 5.607 0 0 1 2.478-4.604z" fill="#1d2d5c"/><path d="M69.954 57.831a5.607 5.607 0 0 0-2.478 4.604l2.377.001a11.784 11.784 0 0 1 .101-4.605z" fill="#fff"/><path d="M189.243 70.47l-3.916-1.347-2.138-.736.756-9.117.248-3.065-3.03.52-8.072 1.376-1.186-3.02-1.313-3.33-2.565 2.497c-.051.048-4.015 3.91-6.11 5.937.375-3.81 1.309-13.485 1.318-13.599l.376-3.904-3.633 1.47-1.644.662q.246-1.166.476-2.31c.962-4.805 3.382-13.232 7.95-19.654a15.794 15.794 0 0 0-7.395.594c-1.264.362-.097.025-.139.037 1.486-3.54 8.1-12.618 8.1-12.618s-9.368-.168-12.9 1.97A23.145 23.145 0 0 0 154.784 0l-7.276 8.445c-12.552 14.577-43.15 18.603-63.395 21.27-8.189 1.079-14.66 1.928-18.648 3.239A33.473 33.473 0 0 0 47.772 45.73l-1.924.814a16.684 16.684 0 0 0-7.827 6.552C17.189 56.639 5.147 60.478 1.227 64.81l-.262.319a4.587 4.587 0 0 0-.824 3.903 4.732 4.732 0 0 0 2.088 4.384l.137.105c4.758 3.451 18.969 8.817 35.933 11.982 7.617 1.416 10.887 2.548 15.742 6.944 24.134 21.847 35.991 54.674 41.367 70.681l6.038-11.112c20.168-35.395 39.925-51.763 40.158-51.977l4.181-3.809.114.218 2.11 4.068 2.113-4.073.795-1.527 15.712 1.284 5.646.461-3.62-4.359-1.968-2.375 19.417-16.748zM66.708 36.752c13.423-4.402 65.25-4.13 83.833-25.7a25.814 25.814 0 0 1-1.617 8.07A34.64 34.64 0 0 1 161.164 15c-4.357 5.004-7.578 9.38-9.762 15.275 3.846-2.693 6.324-3.686 9.847-3.816-3.515 3.35-4.718 10.585-6.395 17.41l-4.812-7.863-2.032-3.319-2.03 3.32-5.962 9.747-3.97-1.603-3.638-1.469.376 3.904c.008.114.946 9.79 1.316 13.6-2.094-2.028-6.054-5.89-6.11-5.938l-2.564-2.497-1.313 3.33-1.192 3.02-8.066-1.377-3.03-.519.176 2.144a73.33 73.33 0 0 1-14.557-2.336c-4.451-1.08-11.016-3.666-17.161-5.578a59.253 59.253 0 0 1 13.141-.097s-22.018-7.145-32.406-.173a7.618 7.618 0 0 0-3.018 2.965 7.434 7.434 0 0 0-.312 5.6c-4.182 0-7.74-4.671-7.434-9.556a29.468 29.468 0 0 1 16.452-12.422zM4.193 67.491c2.27-2.513 10.922-6.557 36.205-10.74 2.326-3.677 3.912-5.214 7.009-6.527.555 5.022 3.353 10.949 10.428 11.368 6.538-.054 7.8-6.916 14.827-6.916 7.132 0 8.336 6.948 15.126 6.948h24.485l.333 4.059H88.149c-.173.003-.37.006-.552.007-6.614.139-7.867 6.933-14.927 6.933-7.087 0-8.324-6.848-14.995-6.94h-1.059c-3.588 0-5.474 1.217-6.507 2.59-1.662-.036-3.37-.068-5.108-.094-20.536-.69-32.293-.275-40.673.08-.324-.102-.473-.312-.135-.768zm92.395 84.727C86.156 121.596 69.05 98.07 56.501 89.292c-5.765-4.03-9.437-6.225-17.468-7.723-16.697-3.11-30.307-8.375-34.323-11.286-.925-.73-.706-1.072.146-1.065.925.01 1.962.029 3.075.048a357.243 357.243 0 0 1 39.339 3.526c-.834 5.402 5.607 9.117 12.43 11.917 23.558 9.669 36.6 27.266 42.171 40.94 5.57-9.748 13.85-18.548 18.148-23.87l-8.362.036c1.92-5.286 5.947-12.133 10.077-18.441l7.6 6.553-1.965 2.375-3.624 4.36 5.644-.462 11.757-.96c-1.819 1.328-24.782 18.571-44.558 56.978zM163.36 89.65l3.462 4.171-17.288-1.406-.737 1.415-.785 1.513-.003.003-.4-.774v-.002l-.195-.37-.928-1.785-9.25.753-.01-.001-6.81.556-1.221.098 3.468-4.17-21.19-18.278 3.881-1.335-.898-10.97 9.977 1.709 1.902-4.822s6.43 6.258 7.287 7.077a2.627 2.627 0 0 0 1.698.828c.834 0 1.45-.756 1.283-2.58-.015-.164-.042-.424-.073-.769-.324-3.315-1.37-14.12-1.374-14.153v-.003l5.842 2.357 7.011-11.463.003.003 7.013 11.46 2.675-1.077v-.001l3.164-1.279v.003c-.003.033-1.047 10.838-1.37 14.153-.035.345-.059.606-.077.768-.167 1.825.452 2.581 1.286 2.581a2.645 2.645 0 0 0 1.698-.828c.853-.819 7.287-7.077 7.287-7.077l1.902 4.822 9.977-1.709-.903 10.97 3.884 1.335z" fill="#fff"/><path d="M181.567 59.07l-9.977 1.708-1.902-4.822s-6.434 6.258-7.287 7.077a2.645 2.645 0 0 1-1.698.828c-.834 0-1.453-.756-1.286-2.58.018-.164.042-.424.076-.769.324-3.315 1.368-14.12 1.371-14.153v-.003l-3.164 1.279v.001l-2.675 1.077-7.013-11.46-.003-.003L141 48.713l-5.843-2.357v.003c.003.033 1.05 10.838 1.374 14.153.031.345.058.606.073.768.167 1.825-.449 2.581-1.283 2.581a2.627 2.627 0 0 1-1.698-.828c-.857-.819-7.287-7.077-7.287-7.077l-1.902 4.822-9.977-1.709.898 10.97-3.882 1.335 21.191 18.277v.002l-3.468 4.17 1.222-.1 6.808-.555 9.261-.757.928 1.79.194.37.404.773.785-1.513.737-1.42 17.289 1.411-3.463-4.17 21.188-18.278-3.885-1.335z" fill="#e8291c"/></g></g></svg>