<svg xmlns="http://www.w3.org/2000/svg" xmlns:xlink="http://www.w3.org/1999/xlink" viewBox="0 0 338.86 300"><defs><path id="reuse-0" d="M0 0h338.86v300H0z" class="cls-1"/></defs><defs><clipPath id="clippath"><use xlink:href="#reuse-0" class="cls-1"/></clipPath><clipPath id="clippath-1"><use xlink:href="#reuse-0" class="cls-1"/></clipPath><style>.cls-1{fill:none}.cls-3{fill:#fff}.cls-5{fill:#bc955c}.cls-6{fill:#231f20}</style></defs><g id="Layer_1-2" clip-path="url(#clippath)"><g id="Lancaster" clip-path="url(#clippath-1)"><path d="M168.9 173.6c12.19-24.57 22.9-51.06 34.41-74.36 38.89-.44 95.86-37.48 95.86-66.14 0-9.92-5.21-15.93-15.73-15.93-44.46 0-72.74 28.97-94.56 66.1-35.76-4.41-60.22-27.12-60.22-27.12s9.67 32.62 52.48 41.1c-13.55 25.8-24.77 54.08-36.52 78.73-90.3 14.19-118.52 81.95-72.93 81.95 41.32 0 67.63-29.95 88.68-67.99 10.63-1.28 22.16-2 34.61-2 60.2 0 86.81 4.19 86.81 4.19s-25.17-18.73-102.98-18.73c-3.37 0-6.67.07-9.91.21m105.25-140.8c5.41 0 8.29 3.11 8.29 6.46 0 16.85-39.06 39.3-70.71 43.9C228.11 53.9 247 32.82 274.15 32.82M78.45 241.88c-24.11 0-4.8-33.36 56.9-47.62-15.19 27.83-32.32 47.62-56.9 47.62" class="cls-3"/><path d="m278.96 115.51-.38-.85c-.56.39-1.11.8-1.65 1.21.66-.13 1.34-.25 2.03-.36m14.7-6c-2.24 0-4.46.2-6.63.57-2.47.99-4.83 2.22-7.04 3.63l.68 1.54c.89-.12 1.81-.23 2.75-.32l-.61-1.86c.56-.06 1.12-.11 1.7-.16l.61 1.88c.85-.06 1.72-.11 2.62-.14l-.74-1.89c.58-.03 1.16-.05 1.76-.07l.75 1.91c.92-.01 1.85-.01 2.81 0l-.85-1.94c.6 0 1.21.02 1.83.04l.85 1.96c.68.03 1.36.07 2.05.11l-.71-1.97c.6.04 1.2.08 1.81.13l.71 1.99c1.05.09 2.11.21 3.19.35l-.76-2.02c.62.07 1.24.15 1.87.24l.77 2.04c.86.13 1.72.27 2.6.42l-.52-2.01c.59.1 1.19.21 1.8.33l.52 2.03c.64.13 1.28.26 1.92.4l-.29-1.99c.58.12 1.15.25 1.74.39l.29 2c.57.14 1.15.28 1.74.43l-.33-2.01 1.02.27c-5.27-3.94-12.14-6.28-19.92-6.28m22.41 8.89-.09-.6c-.51-.47-1.03-.93-1.58-1.37l.26 1.58c.47.13.93.26 1.41.39m8.37 21.58c.02-.21.03-.42.04-.62l-.08.63h.04m-3.02 1.65 1.2 2.69c-.54.13-1.08.28-1.62.46l-1.21-2.7c-.39.12-.77.25-1.15.39l1.38 2.65c-.52.19-1.03.41-1.54.63l-1.39-2.67c-.5.21-1 .44-1.49.68l1.6 2.6c-.49.25-.98.51-1.47.79l-1.61-2.63c-.6.33-1.2.68-1.79 1.04l2 2.43c-.47.29-.93.6-1.39.92l-2.01-2.45c-.59.4-1.18.81-1.77 1.24l2.47 2.15c-.45.33-.9.68-1.35 1.03l-2.48-2.16c-.72.55-1.43 1.12-2.14 1.71l3 1.76c-.45.37-.89.75-1.34 1.14l-3-1.76c-.6.51-1.19 1.03-1.79 1.56l3.17 1.63c-.44.39-.87.79-1.31 1.19l-3.19-1.64c-.63.57-1.25 1.14-1.89 1.72l3.44 1.43c-.44.41-.88.83-1.32 1.25l-3.46-1.44-1.76 1.64 3.63 1.32c-.44.43-.89.85-1.34 1.28l-3.66-1.33c-.62.57-1.24 1.15-1.88 1.73l3.83 1.21c-.46.43-.92.87-1.38 1.31l-3.87-1.23c-.59.53-1.18 1.07-1.79 1.6l4.03 1.14-1.44 1.32-4.08-1.15c-.62.54-1.25 1.08-1.88 1.61l4.53.82c-.53.47-1.06.93-1.6 1.4l-4.6-.84c-.29.23-.58.46-.87.7 3.01.84 6.24 1.29 9.66 1.29 2.24 0 4.46-.2 6.63-.57 11.99-4.81 21.41-15.03 23.83-27.06l-1.07-2.17c-.49.09-.98.19-1.46.31" class="cls-3"/><path d="m317.74 119.86-.5 2.74c-.54-.16-1.07-.32-1.6-.47l.5-2.74-1.59-.45-.71 2.69c-.54-.14-1.08-.28-1.61-.42l.71-2.7c-.64-.16-1.28-.32-1.91-.47l-.9 2.68-1.64-.36.9-2.69c-.68-.15-1.36-.29-2.03-.42l-1.19 2.66c-.57-.1-1.13-.2-1.69-.29l1.2-2.68c-.92-.16-1.82-.31-2.71-.44l-1.45 2.68c-.6-.08-1.19-.15-1.77-.21l1.47-2.71c-1.11-.14-2.2-.26-3.27-.35l-1.41 2.77c-.61-.04-1.21-.08-1.81-.11l1.43-2.8c-.71-.05-1.41-.09-2.1-.11l-1.66 2.83c-.65-.01-1.29-.02-1.92-.02l1.69-2.87c-.91-.02-1.81-.02-2.69 0l-1.64 2.93c-.66.02-1.32.06-1.96.1l1.67-2.97c-.82.03-1.62.08-2.4.14l-1.53 3.01c-.67.06-1.33.14-1.98.21l1.56-3.06c-.83.08-1.64.18-2.43.28l-1.64 3.12c-.71.11-1.39.23-2.07.36l1.67-3.18c-.69.11-1.36.23-2.01.36l-1.71 3.24c-.74.17-1.46.34-2.15.52l1.23-2.34c-6 5.6-10.15 12.88-11.22 20.84-1.71 12.78 4.98 23.8 16.1 28.93.37-.29.74-.57 1.1-.86l.64 1.6c.49.19.98.37 1.48.54.51-.4 1.01-.8 1.51-1.21l-1.02-3.02c.46-.38.92-.76 1.37-1.14l1.03 3.03c.74-.62 1.47-1.24 2.19-1.85l-1.1-2.97 1.34-1.16 1.1 2.97c.66-.58 1.31-1.15 1.95-1.73l-1.12-2.94 1.33-1.18 1.11 2.92 1.99-1.81-1.2-2.81c.44-.39.88-.78 1.31-1.17l1.19 2.79c.62-.57 1.24-1.14 1.86-1.7l-1.21-2.73 1.31-1.16 1.2 2.71c.67-.61 1.34-1.21 2-1.79l-1.1-2.73c.45-.38.89-.76 1.34-1.13l1.09 2.7c.62-.54 1.24-1.07 1.85-1.59l-1-2.71c.46-.37.92-.73 1.37-1.08l.98 2.67c.75-.61 1.5-1.2 2.26-1.77l-.78-2.72c.48-.34.96-.67 1.44-.99l.77 2.66c.62-.44 1.24-.86 1.86-1.27l-.24-2.9c.53-.31 1.06-.61 1.59-.9l.23 2.81c.57-.34 1.15-.67 1.73-.98l-.1-2.78c.54-.26 1.09-.5 1.64-.73l.1 2.69c.47-.22.95-.43 1.43-.63l.1-2.69c.56-.2 1.12-.39 1.69-.56l-.1 2.6c.37-.13.73-.25 1.11-.36l.31-2.6c.57-.15 1.14-.27 1.72-.39l-.3 2.52c.46-.11.92-.21 1.39-.29l.32-2.48c.5-.08 1.01-.14 1.53-.19 0-6.75-2.37-12.84-6.48-17.62-.11-.03-.21-.07-.32-.1" class="cls-3"/><path d="M293.66 95.17c-2.39 0-4.78.16-7.14.48 23.5-18 35.86-39.86 35.86-63.61C322.38 12.58 307.7 0 285 0c-59.46 0-95.68 49.08-105.2 63.81C146.76 58.3 117 17.18 117 17.18s-42.85 73.17 34.19 102.15C101 127.94 0 176.67 0 252.5 0 272.71 13.33 300 56.06 300c46.24 0 94.89-40.7 94.89-40.7l-15.91 1c21.49-16.15 33.11-33.98 37.49-41.71 108.38-10.78 146.63 19.3 146.63 19.3s9.23-30.69-12.86-54.39c16.99-7.16 29.82-22.43 32.19-40.09 3.25-24.22-15.09-48.25-44.83-48.25m37.41 47.25c-2.65 19.75-21.17 36.02-42.2 37.78 28.3 13.43 24.31 45.22 24.31 45.22s-40.26-24.76-145.39-13.88c0 0-17.33 36.97-62.98 58.16l20.35-1.28s-33.95 24.09-69.1 24.09c-37.65 0-48.58-23.55-48.58-40.02 0-75.23 107.93-120.4 150.86-126.83l4.2-10.62s-70.57-15.41-43.33-83.3c0 0 32.42 39.78 64.61 39.78 0 0 36.28-64.05 101.17-64.05 14.23 0 29.9 6 29.9 24.56 0 57.1-78.76 81.78-78.76 81.78s9.13-.98 27.22-.12c8.31-6.83 19.07-11.05 30.3-11.05 25.71 0 40.02 20.3 37.41 39.77" class="cls-5"/><path d="M282.44 39.26c0-3.35-2.87-6.46-8.29-6.46-27.15 0-46.04 21.09-62.42 50.36 31.65-4.6 70.71-27.05 70.71-43.9m-57.53 37.85c16.17-26.47 32.25-39.37 51.08-41.01 2.05.43 3.33 1.59 3.33 3.16 0 12.13-27.06 30.1-54.41 37.85M78.45 241.88c24.58 0 41.72-19.79 56.9-47.62-61.71 14.25-81.02 47.62-56.9 47.62m49.48-40.93c-14.66 24.32-29.12 36.17-45.85 37.65-15.22-2.2 9.72-26.94 45.85-37.65" class="cls-5"/><path d="M211.32 102.3c39.08-1.61 97.01-38.14 97.01-69.21 0-11.7-6.11-19.04-24.88-19.04-24.44 0-60.89 6.87-96.19 65.86-38.47-5.21-64.81-33.77-64.81-33.77s4.14 40.83 54.06 53.28c-9.73 18.59-34 73.74-34 73.74-96.69 16.3-119.28 87.88-70.82 87.88 54.54 0 74.91-31.94 96.99-68.84 8.51-.76 17.33-1.15 26.31-1.15 67.38 0 100.79 5.69 100.79 5.69s-27.2-26.22-115.73-26.46l31.28-67.98Zm70.47 89.82s-26.61-4.19-86.81-4.19c-12.45 0-23.99.72-34.61 2-21.06 38.05-47.36 67.99-88.68 67.99-45.59 0-17.37-67.76 72.93-81.95 11.75-24.66 22.97-52.93 36.52-78.73-42.81-8.48-52.48-41.1-52.48-41.1s24.46 22.72 60.22 27.13c21.82-37.13 50.1-66.1 94.56-66.1 10.52 0 15.73 6.01 15.73 15.93 0 28.66-56.96 65.7-95.86 66.14-11.51 23.3-22.23 49.79-34.41 74.36 3.24-.14 6.54-.21 9.91-.21 77.81 0 102.98 18.73 102.98 18.73" class="cls-5"/><path d="M33.61 250.11c0-33.2 42.87-79.14 107.71-87.8l3.53-7.86c-28.44 4.13-64.12 16.9-64.12 16.9s24.11-16.01 67.79-25.07l5.69-12.67C85.42 147.9 19.75 194.67 19.75 243.49c0 26.23 20 34.1 35.79 34.1s25.6-4.2 25.6-4.2-47.53 7.02-47.53-23.28m171.38-112.23c5.93-.4 22.77-1.4 43.5-1.5 1.19-4.67 3.25-9.09 6.01-13.09-31.53.02-43.68 1.34-43.68 1.34l-5.84 13.26Zm-4.83 10.98-4.2 9.54c29.63-.22 53.51 4.23 56.35 4.79-2.28-3.7-3.79-7.77-4.5-12.07-19.63-2.37-41.23-2.34-47.65-2.26m70.53-32.17c-.6.41-1.19.82-1.76 1.26.6-.2 1.22-.4 1.86-.59l-.1-.67Zm6.95 56.06c.75-.53 1.48-1.07 2.21-1.61l-1.15-2.87c.09-.07.18-.14.26-.2-11.12-5.13-17.81-16.15-16.1-28.93 1.07-7.96 5.22-15.24 11.22-20.84l.51-.97c-.73.17-1.44.34-2.13.53l-1.58 3.33c-.76.22-1.48.45-2.17.68l1.62-3.4c-.8.24-1.56.49-2.28.75l.15.06-1.37 3.27c-.77.29-1.49.58-2.16.87l1.21-2.9c-6.1 5.62-10.32 12.96-11.4 21-2.05 15.29 7.94 28.08 23.16 31.24m4.54-3.42c-.5-.17-1-.35-1.48-.54l.52 1.29c.33-.25.65-.5.97-.76m-5.6-53.39c.11-.02.22-.04.34-.06.54-.42 1.09-.82 1.65-1.21l-.41-.94c.56-.1 1.12-.19 1.7-.27l.12.27c2.21-1.42 4.57-2.64 7.04-3.63-4.5.77-8.8 2.3-12.73 4.43.53-.12 1.07-.24 1.63-.36l.68 1.78Zm-1.64.34-.67-1.77c-.7.38-1.38.77-2.06 1.18l.18 1.21c.81-.22 1.66-.43 2.54-.62m8.87 53.57c-.44.35-.87.7-1.32 1.05l4.33 1.14c-.53.43-1.08.86-1.62 1.29l-4.38-1.16c-.42.31-.84.62-1.27.93 1.78.27 3.63.41 5.53.41 5.22 0 10.31-1.06 15.02-2.95-2.17.37-4.39.57-6.63.57-3.41 0-6.65-.45-9.66-1.29" class="cls-5"/><path fill="#aa182c" d="m279.11 119.34 1.64-3.13c.79-.11 1.6-.2 2.43-.28l-1.56 3.06c.65-.08 1.3-.15 1.98-.21l1.53-3.01c.78-.06 1.58-.1 2.4-.14l-1.67 2.97c.64-.04 1.3-.07 1.96-.1l1.64-2.93c.88-.01 1.78-.01 2.69 0l-1.69 2.87c.63 0 1.27 0 1.92.02l1.67-2.83c.69.03 1.39.07 2.1.12l-1.43 2.8c.6.03 1.2.07 1.81.11l1.41-2.77c1.07.1 2.16.21 3.27.36l-1.47 2.71 1.77.21 1.45-2.68c.89.13 1.79.28 2.71.44l-1.2 2.68c.56.09 1.12.19 1.69.29l1.19-2.66c.67.13 1.35.27 2.03.42l-.9 2.69c.54.11 1.09.23 1.63.36l.9-2.68c.63.15 1.27.31 1.91.47l-.71 2.7c.53.13 1.07.27 1.61.42l.71-2.7c.53.15 1.06.29 1.59.45l-.5 2.74c.53.15 1.07.31 1.6.47l.5-2.74c.11.03.21.07.32.1-.65-.76-1.35-1.48-2.08-2.17l.09.61c-.47-.14-.94-.27-1.41-.39l-.26-1.58c-.27-.22-.54-.43-.82-.64l-1.02-.27.33 2.01c-.58-.15-1.16-.29-1.74-.43l-.29-2c-.58-.14-1.16-.27-1.74-.39l.29 1.99c-.65-.14-1.29-.28-1.92-.4l-.52-2.03c-.61-.12-1.21-.22-1.8-.33l.52 2.01c-.88-.16-1.75-.3-2.6-.42l-.77-2.04c-.63-.09-1.25-.17-1.87-.24l.76 2.02c-1.08-.14-2.15-.25-3.19-.35l-.71-1.99c-.61-.05-1.21-.09-1.81-.13l.71 1.97c-.69-.05-1.38-.09-2.05-.11l-.85-1.96c-.62-.02-1.23-.04-1.83-.04l.85 1.94a65.8 65.8 0 0 0-2.81 0l-.75-1.91c-.6.02-1.18.04-1.76.07l.74 1.89c-.89.03-1.76.08-2.62.14l-.61-1.88c-.57.05-1.14.1-1.7.16l.61 1.86c-.94.09-1.86.2-2.75.32l-.68-1.54-.12-.27c-.58.09-1.14.18-1.7.27l.41.94.38.85c-.69.11-1.37.23-2.03.36l-.34.06-.68-1.78c-.55.11-1.1.23-1.62.36h-.02l.67 1.77c-.88.2-1.73.41-2.54.62l-.18-1.21c-.52.32-1.03.65-1.53.99l.1.67c-.65.19-1.27.39-1.86.59-1.06.81-2.08 1.66-3.05 2.56l-1.21 2.9a64.3 64.3 0 0 1 2.16-.87l1.37-3.27-.15-.06c.72-.25 1.48-.5 2.28-.75l-1.62 3.4c.69-.23 1.41-.46 2.17-.68l1.58-3.33c.69-.18 1.4-.36 2.13-.53l-.51.97-1.23 2.34c.69-.18 1.41-.35 2.15-.52l1.71-3.24c.65-.13 1.32-.25 2.01-.36l-1.67 3.18c.67-.13 1.36-.25 2.07-.36m43.57 20.96c-.47.09-.93.18-1.39.29l.3-2.52c-.58.12-1.15.25-1.72.39l-.31 2.6c-.37.11-.74.23-1.11.36l.1-2.6c-.57.17-1.13.36-1.69.56l-.1 2.69c-.48.2-.95.41-1.43.63l-.1-2.69c-.55.23-1.1.47-1.64.73l.1 2.78c-.58.31-1.15.63-1.73.98l-.23-2.81c-.54.29-1.07.59-1.6.9l.24 2.9c-.62.41-1.24.83-1.86 1.27l-.77-2.66c-.48.32-.97.65-1.44.99l.78 2.72c-.75.57-1.51 1.16-2.26 1.77l-.98-2.66c-.46.35-.92.71-1.37 1.08l1 2.71c-.62.52-1.24 1.05-1.86 1.59l-1.09-2.7-1.34 1.13 1.1 2.73c-.66.59-1.33 1.19-2 1.8l-1.2-2.71c-.43.38-.87.77-1.31 1.15l1.21 2.73c-.61.56-1.23 1.13-1.86 1.7l-1.19-2.79c-.43.39-.87.78-1.31 1.17l1.2 2.82-1.99 1.81-1.11-2.92c-.44.39-.88.79-1.33 1.18l1.12 2.94c-.64.57-1.29 1.15-1.95 1.73l-1.1-2.97c-.44.39-.89.77-1.34 1.16l1.1 2.97c-.72.62-1.45 1.24-2.19 1.85L284 164c-.45.38-.91.76-1.37 1.14l1.02 3.02c-.5.4-1 .81-1.51 1.21-.32.25-.64.5-.96.76l-.52-1.29-.64-1.6c-.36.29-.73.57-1.1.86-.09.07-.17.14-.26.2l1.15 2.87c-.72.54-1.46 1.08-2.21 1.61.63.13 1.27.25 1.92.34.43-.31.85-.62 1.27-.93l4.38 1.16c.55-.43 1.09-.86 1.62-1.29l-4.33-1.14c.45-.35.88-.7 1.32-1.05.29-.23.59-.46.87-.7l4.6.84c.54-.46 1.07-.93 1.6-1.4l-4.53-.82c.64-.53 1.26-1.07 1.88-1.61l4.08 1.15c.48-.44.97-.88 1.44-1.32l-4.03-1.14c.6-.54 1.2-1.07 1.79-1.61l3.87 1.23c.46-.44.92-.87 1.38-1.31l-3.83-1.21 1.88-1.73 3.66 1.33 1.34-1.28-3.63-1.32 1.76-1.64 3.46 1.44c.44-.42.88-.84 1.32-1.25l-3.44-1.43c.63-.58 1.26-1.16 1.89-1.72l3.19 1.64 1.31-1.19-3.17-1.63c.6-.53 1.2-1.05 1.79-1.56l3 1.76c.45-.39.9-.77 1.34-1.14l-3-1.76c.72-.59 1.43-1.16 2.14-1.71l2.48 2.16c.45-.35.9-.7 1.35-1.03l-2.47-2.15c.59-.43 1.18-.84 1.77-1.24l2.01 2.45c.46-.32.93-.63 1.39-.92l-2-2.43c.59-.37 1.19-.71 1.79-1.04l1.61 2.63c.49-.28.98-.54 1.47-.79l-1.6-2.6c.49-.24.99-.47 1.49-.68l1.39 2.67c.51-.23 1.03-.44 1.54-.63l-1.38-2.65c.38-.14.76-.27 1.15-.39l1.21 2.7c.53-.17 1.07-.33 1.62-.46l-1.2-2.69c.48-.12.97-.22 1.46-.31l1.07 2.17c.13-.66.25-1.32.34-1.99.07-.51.12-1.03.16-1.53h-.04l.08-.62c.04-.6.06-1.19.06-1.78-.51.05-1.02.11-1.52.19l-.33 2.48Z"/><path d="M82.08 238.6c16.73-1.47 31.18-13.33 45.85-37.65-36.12 10.72-61.07 35.45-45.85 37.65M279.32 39.26c0-1.57-1.28-2.73-3.33-3.16-18.83 1.64-34.91 14.54-51.08 41.01 27.35-7.75 54.41-25.72 54.41-37.85" class="cls-6"/><path d="M293.66 102.65c-11.23 0-21.99 4.22-30.3 11.05-18.08-.85-27.22.12-27.22.12s78.76-24.68 78.76-81.78c0-18.56-15.66-24.56-29.9-24.56-64.89 0-101.17 64.05-101.17 64.05-32.2 0-64.61-39.78-64.61-39.78-27.24 67.89 43.33 83.3 43.33 83.3l-4.2 10.62C115.42 132.1 7.48 177.27 7.48 252.5c0 16.47 10.93 40.02 48.58 40.02 35.15 0 69.1-24.09 69.1-24.09l-20.35 1.28c45.66-21.2 62.98-58.16 62.98-58.16 105.13-10.88 145.39 13.88 145.39 13.88s3.99-31.79-24.31-45.22c21.03-1.77 39.55-18.04 42.2-37.78 2.61-19.47-11.7-39.77-37.41-39.77m-39.15 20.63c-2.76 4-4.83 8.42-6.01 13.09-20.74.11-37.57 1.11-43.5 1.5l5.83-13.26s12.15-1.32 43.68-1.34m-2.2 39.91c-2.84-.55-26.72-5-56.35-4.79l4.2-9.54c6.42-.08 28.02-.11 47.65 2.26.71 4.29 2.22 8.37 4.5 12.07M55.53 277.58c-15.79 0-35.79-7.87-35.79-34.1 0-48.82 65.67-95.59 134.46-109.88l-5.69 12.67c-43.68 9.06-67.78 25.07-67.78 25.07s35.68-12.77 64.12-16.9l-3.53 7.86c-64.84 8.66-107.71 54.6-107.71 87.8 0 30.29 47.53 23.28 47.53 23.28s-10.59 4.2-25.6 4.2m240.24-80.84s-33.41-5.69-100.79-5.69c-8.98 0-17.8.39-26.31 1.15-22.08 36.9-42.45 68.84-96.99 68.84-48.46 0-25.87-71.58 70.82-87.88 0 0 24.27-55.15 34-73.74-49.92-12.45-54.06-53.28-54.06-53.28s26.34 28.56 64.81 33.77c35.29-58.99 71.74-65.86 96.18-65.86 18.77 0 24.88 7.34 24.88 19.04 0 31.07-57.93 67.6-97.01 69.21l-31.28 67.98c88.54.24 115.74 26.46 115.74 26.46m28.7-57.39c-.01.21-.03.41-.04.62-.04.51-.1 1.02-.16 1.53-.09.67-.21 1.33-.34 1.99-2.42 12.03-11.84 22.25-23.83 27.06-4.7 1.89-9.79 2.94-15.02 2.94a36.897 36.897 0 0 1-7.45-.75c-15.22-3.16-25.21-15.95-23.16-31.24 1.08-8.04 5.3-15.38 11.4-21 .97-.9 1.99-1.75 3.05-2.56.57-.44 1.16-.85 1.76-1.26.5-.34 1.01-.67 1.53-.99.67-.41 1.36-.8 2.06-1.18h.01c3.93-2.13 8.23-3.67 12.73-4.43 2.17-.37 4.39-.57 6.63-.57 7.78 0 14.65 2.33 19.92 6.28a29.238 29.238 0 0 1 2.4 2.01c.74.69 1.43 1.41 2.08 2.17 4.11 4.77 6.48 10.87 6.48 17.62 0 .59-.02 1.18-.06 1.78" class="cls-6"/><path d="M174.69 223.3h2.22v6.7h.8v-6.7h2.34v-.8h-5.36v.8zm9.65 5.3-1.93-6.1h-1.29v7.5h.8v-6.37l2.01 6.37h.81l2.01-6.37V230h.8v-7.5h-1.29l-1.92 6.1z" class="cls-6"/></g></g></svg>