<svg xmlns="http://www.w3.org/2000/svg" xmlns:xlink="http://www.w3.org/1999/xlink" viewBox="0 0 383.36 300"><defs><path id="reuse-0" d="M0 0h383.36v300H0z" class="cls-1"/></defs><defs><clipPath id="clippath"><use xlink:href="#reuse-0" class="cls-1"/></clipPath><clipPath id="clippath-1"><use xlink:href="#reuse-0" class="cls-1"/></clipPath><style>.cls-1{fill:none}.cls-4{fill:#ff4d00}.cls-5{fill:#fff}</style></defs><g id="Layer_1-2" clip-path="url(#clippath)"><g id="Long-Island" clip-path="url(#clippath-1)"><path d="M0 248.53C0 277.99 53.49 300 101.31 300c31.53 0 49.67-13.25 55.86-18.78 10.79 4.24 49.7 18.42 87.52 18.42 79.68 0 138.67-57.56 138.67-146.15C383.36 59.07 313.62 0 237.91 0c-37.35 0-62.3 12.9-74.18 20.9-24.52 9.97-38.13 27.19-44.22 36.99-38.25 31.34-23.98 71.25-23.98 71.25l5.88-13.72c-4.35 25.52 9.65 49.47 9.65 49.47 2.61-7.7 6.5-13.81 6.5-13.81-3 8.96 2.32 18.88 2.32 18.88s16.03 3.44 26.71 17.41c-16.44 15.79-6.59 33.38-6.59 33.38-13.53-5.05-41.53-13.94-70.95-13.94C23.72 206.82 0 227.8 0 248.53m146.53-20.15 2.56-1.12s-18.37-22.42 3.57-38.91c0 0-7.3-15.32-29.51-22.24 0 0-10.18-20.27 17.6-30.57l-1.3-4.69c-19.48 1.85-28.51 22.64-28.51 22.64s-13.06-28.44 1.14-57.91c0 0-9.8 6-14.22 16.31 0 0-5.72-41.88 54.83-68.48 0 0-12.36.95-22.36 7.81 0 0 29.69-41.71 93.16-31.87 0 0-7.78-6.84-28.16-8.47 0 0 14.75-6.25 42.59-6.25 77.57 0 140.8 60.55 140.8 148.85 0 98.78-69.94 141.51-134.02 141.51-43.09 0-88.58-19.21-88.58-19.21s-17.44 19.56-54.8 19.56c-54.79 0-96.67-25.02-96.67-46.83 0-17.97 21.95-37.07 64.42-37.07 39.7 0 77.46 16.92 77.46 16.92" class="cls-5"/><path d="M212.69 183.72c.6 8.78-8.92 21.45-8.92 21.45.88 2.15 4.5 1.4 4.5 1.4 9.11-9.55 10.61-22.71 10.61-22.71-3.48-1.58-6.19-.14-6.19-.14M45.61 234.78s19.34-11.54 54.82-3.86c.71.16 1.19-.71.67-1.22l-3.64-3.6c-29.78-7.28-46.89-1.93-53.74 1.32-1.82.86-2.23 3.27-.8 4.69l2.69 2.67Zm129.11-69.19c15.73 2.17 12.71-5.3.47-4.63.4-2.5 1-4.81 1.63-6.73-2.55-.83-5.63-1.32-5.63-1.32-10.4 15.35 2.53 31.93 2.53 31.93 13.38 0 23.91 5.96 23.91 5.96s1.06-1.4 1.95-3.06c-20.76.81-25.3-11.24-24.86-22.14" class="cls-5"/><path d="M168.56 152.64c-7.28-.79-14.24 2.54-14.24 2.54-1.43 16.88 13.17 30.44 13.17 30.44s1.95-.5 3.96-.66c0 0-13.39-14.14-2.89-32.32m111.34-19.82c-15.03 0-21.09-21.78-14.7-33.97-11.58 6.69-20.14 18.08-20.14 18.08-3.18 20.57 9.78 32.11 13.8 35.15 7.9-8.95 19.76-17.61 37.07-20.62 3.74-12.27-.79-23.37-.79-23.37s2.21 24.72-15.24 24.72m-60.24 37.3c1.52-.09 2.99-.09 4.41-.02a10.33 10.33 0 0 1-1.35-2.89c-.79 1.24-1.76 2.21-3.06 2.92" class="cls-5"/><path d="M242.41 120.79c-13.29 19.68-15.16 33.13-17.55 41.22-.83 3.29-.17 8.05 2.93 8.42 10.33 1.43 16.95 6.27 16.95 6.27s3.17-11.44 12.7-22.95c-16.26-10.06-15.04-32.96-15.04-32.96" class="cls-5"/><path d="M164.96 186.34s-14.26-12.98-13.34-30.15c0 0-2.48-.87-3.82-4.03 0 0 31.59-14.93 57.05 20.81 0 0 2.96-1.43 9.03-2.22 0 0-7.66-2.86-11.8-16.59 0 0 13.88 23.32 19.2 7.07 0 0 5.1-64.81 61.04-74.65 0 0 2.29-.02 1.76 2.68 0 0 20.31 11.3 14.5 41.82 3.97-.54 8.21-.79 12.74-.69-12.8-45.21-45.52-60.19-45.52-60.19-37.12 8.19-54.47 56.61-54.47 56.61C216.04 73.92 248.1 63 248.1 63c-76.65-13.72-114.36 34.54-94.93 72.82 24.07-2.37 32.76 6.89 32.76 6.89-53.39-9.88-48.41 14.04-48.41 14.04 13.27 6.11 24.58 30.76 24.58 30.76 1.19-.62 2.87-1.15 2.87-1.15" class="cls-5"/><path d="M284.98 103.68c0-4.5-1.86-8.15-4.15-8.15s-4.15 3.65-4.15 8.15 1.86 8.15 4.15 8.15 4.15-3.65 4.15-8.15m60.99 168.76v-6.7h2.33v-.8h-5.36v.8h2.22v6.7h.81zm9.83 0v-7.5h-1.29l-1.92 6.1-1.93-6.1h-1.29v7.5h.81v-6.37l2.01 6.37h.8l2.01-6.37v6.37h.8z" class="cls-5"/><path d="M313.35 165.53c-9.87-.53-18.53 4.83-18.53 4.83 11.75 13.75 10.11 30.99 10.11 30.99 5.77-12.76 7.92-25.33 8.42-35.82" class="cls-4"/><path d="M361.81 154.18c0-134.06-131.55-140.73-131.55-140.73 14.35 7.4 17.07 20.49 17.07 20.49-44.09-19.15-83.1.77-83.1.77 11.51.39 20.47 6.36 20.47 6.36-54.63 12.2-71.73 43.61-71.73 43.61 7.94-4.73 21.16-5.16 21.16-5.16-24.66 23.09-19.55 49.51-19.55 49.51s25.03-75.52 103.36-75.52c14.58 0 27.34 2.33 38.48 6.4 12.11-3.57 34.41-6.5 45.92 14.94-11.02-5.59-21.1-6.39-27.86-6.02 32.68 21.07 45.87 60.16 45.87 93.3 0 42.8-27.72 88.06-88.69 88.06-74.6 0-109.9-31.53-163.47-31.53-33.32 0-53.35 15.15-53.35 24.58 0 18.3 41.31 38.52 81.2 38.52 35.46 0 46.3-14.41 46.3-14.41s-16.01-10.42-40.07-10.42c0 0-2.61 6.25-14.14 6.25s-33.63-6.02-33.63-13.83c0-4.52 9.83-8.75 25.42-8.75 63.4 0 83.76 36.21 158.87 36.21 39.75 0 123.03-32.99 123.03-122.64m-261.39 76.75c-35.47-7.68-54.82 3.86-54.82 3.86l-2.69-2.67c-1.43-1.42-1.02-3.83.8-4.69 6.84-3.24 23.96-8.59 53.74-1.31l3.64 3.59c.52.51.04 1.38-.67 1.22" class="cls-4"/><path d="M208.02 178.41s-5.41 34.19-50.92 54.18c0 0 35.84 12.05 69.97 12.05 49.09 0 71.61-32.9 71.61-32.9 4.99-23.61-9.11-38.05-9.11-38.05s-10.96 6.21-22.4 27.2c0 0 15.64-50.71 46.26-38.04.32-14.33-2.32-24.17-2.32-24.17s-53.65-2.03-71.38 63.78c0 0-1.88-10.57.15-22.06 0 0-15.11-9.38-31.86-1.98m.25 28.17s-3.62.75-4.5-1.41c0 0 9.52-12.67 8.92-21.45 0 0 2.7-1.44 6.19.14 0 0-1.5 13.17-10.61 22.71" class="cls-4"/><path d="M149.88 208.33c0 10.88 9.55 17.64 9.55 17.64s8.32-3.5 17.61-10.55c.04-7.53-5.69-10.05-8.7-10.85-10.75 2.52-14.92 9.03-14.92 9.03s9.08-22.61 32.91-9.19c-4.42-.77-8.31-.96-11.74-.75 2.11 1.4 4.94 4.25 5.26 9.52 6.14-5.08 12.38-11.68 16.67-19.82 0 0-8.58-5.09-19.38-5.09-14.94 0-27.27 9.17-27.27 20.05" class="cls-4"/><path fill="#006937" d="M231.66 247.86c-74.78 0-109.98-31.53-163.47-31.53-34.49 0-55.67 15.67-55.67 26.9 0 20.23 42.15 40.85 83.52 40.85s49.65-17.32 49.65-17.32-15.94-12.11-44.93-12.11c0 0-1.24 6.21-12.64 6.21-13.17 0-31.31-6.67-31.31-11.51 0-2.24 7.93-6.43 23.09-6.43 64.2 0 81.48 36.21 158.87 36.21 48.59 0 125.35-39.09 125.35-124.96C364.13 18.78 233.86 9.52 213.35 9.52c22.61 3.93 30.02 20.32 30.02 20.32-49.39-18.14-88.19 6.89-88.19 6.89s13.63-.65 22.92 3.55C120.23 55.32 106.88 91 106.88 91s7.07-6.14 21.12-8.56c-24.29 26.46-14.01 55.74-14.01 55.74s22.93-82.36 103.95-82.36c12.79 0 24.33 1.9 34.64 5.33 1.11-.4 2.41-.83 3.84-1.25-11.14-4.07-23.91-6.4-38.48-6.4-78.32 0-103.36 75.51-103.36 75.51s-5.11-26.42 19.55-49.51c0 0-13.23.44-21.16 5.16 0 0 17.1-31.41 71.73-43.61 0 0-8.97-5.96-20.47-6.35 0 0 39.01-19.92 83.1-.77 0 0-2.71-13.09-17.07-20.49 0 0 131.55 6.67 131.55 140.72 0 89.64-83.27 122.64-123.03 122.64-75.11 0-95.47-36.22-158.87-36.22-15.59 0-25.42 4.23-25.42 8.75 0 7.82 22.11 13.83 33.63 13.83s14.14-6.25 14.14-6.25c24.07 0 40.08 10.42 40.08 10.42s-10.84 14.41-46.3 14.41c-39.89 0-81.2-20.22-81.2-38.52 0-9.42 20.03-24.58 53.35-24.58 53.57 0 88.87 31.53 163.47 31.53 60.97 0 88.69-45.26 88.69-88.06 0-33.14-13.19-72.23-45.87-93.3-1.57.09-2.97.24-4.16.41 31.99 18.97 47.71 55.53 47.71 92.89 0 58.91-44.77 85.74-86.37 85.74"/><path fill="#231f20" d="M237.91 4.65c-27.84 0-42.59 6.25-42.59 6.25 20.38 1.63 28.16 8.47 28.16 8.47-63.47-9.84-93.16 31.87-93.16 31.87 10-6.86 22.36-7.81 22.36-7.81-60.55 26.6-54.83 68.48-54.83 68.48 4.42-10.31 14.22-16.31 14.22-16.31-14.19 29.47-1.14 57.91-1.14 57.91s9.02-20.8 28.51-22.64l1.3 4.69c-27.78 10.3-17.6 30.57-17.6 30.57 22.21 6.92 29.51 22.24 29.51 22.24-21.95 16.49-3.57 38.91-3.57 38.91l-2.56 1.12s-37.76-16.92-77.46-16.92c-42.47 0-64.42 19.1-64.42 37.07 0 21.81 41.88 46.82 96.67 46.82 37.36 0 54.8-19.56 54.8-19.56s45.49 19.21 88.58 19.21c64.09 0 134.03-42.72 134.03-141.51 0-88.29-63.23-148.85-140.8-148.85M137.53 156.74s-4.99-23.91 48.41-14.04c0 0-8.69-9.26-32.76-6.89-19.43-38.28 18.28-86.53 94.93-72.81 0 0-32.06 10.91-36.77 63.81 0 0 17.35-48.42 54.47-56.61 0 0 32.72 14.97 45.52 60.19-4.53-.11-8.77.15-12.74.69 5.81-30.52-14.5-41.82-14.5-41.82.52-2.7-1.76-2.68-1.76-2.68-55.93 9.84-61.04 74.65-61.04 74.65-5.33 16.25-19.2-7.07-19.2-7.07 4.14 13.73 11.8 16.59 11.8 16.59-6.06.8-9.03 2.22-9.03 2.22-25.46-35.73-57.05-20.8-57.05-20.8 1.34 3.16 3.82 4.03 3.82 4.03-.93 17.17 13.34 30.15 13.34 30.15s-1.68.53-2.87 1.15c0 0-11.3-24.65-24.57-30.76m157.3 13.63s8.66-5.36 18.53-4.82c-.5 10.49-2.64 23.06-8.42 35.82 0 0 1.63-17.24-10.11-31M267.2 200.9c11.44-21 22.4-27.2 22.4-27.2s14.09 14.45 9.11 38.05c0 0-22.53 32.9-71.61 32.9-34.13 0-69.97-12.05-69.97-12.05 45.51-19.98 50.92-54.18 50.92-54.18 16.75-7.4 31.86 1.98 31.86 1.98-2.03 11.5-.15 22.06-.15 22.06 17.73-65.81 71.38-63.78 71.38-63.78s2.64 9.84 2.32 24.17c-30.62-12.67-46.26 38.04-46.26 38.04m-96-47.98s3.09.49 5.63 1.32c-.63 1.92-1.23 4.23-1.63 6.73 12.24-.67 15.26 6.8-.47 4.64-.44 10.91 4.09 22.95 24.86 22.14-.89 1.66-1.95 3.06-1.95 3.06s-10.53-5.97-23.91-5.97c0 0-12.93-16.57-2.53-31.92m.26 32.06c-2.01.16-3.96.66-3.96.66s-14.6-13.56-13.17-30.45c0 0 6.97-3.33 14.24-2.53-10.51 18.18 2.89 32.32 2.89 32.32m48.21-14.86c1.3-.71 2.27-1.68 3.06-2.91.17.57.58 1.77 1.35 2.89-1.42-.07-2.89-.07-4.41.02m37.79-16.37c-9.53 11.51-12.7 22.95-12.7 22.95s-6.62-4.84-16.95-6.27c-3.11-.37-3.76-5.13-2.93-8.42 2.39-8.1 4.26-21.54 17.55-41.22 0 0-1.22 22.9 15.04 32.96m22.45-20.93c17.45 0 15.24-24.72 15.24-24.72s4.53 11.09.79 23.37c-17.31 3.01-29.17 11.67-37.07 20.62-4.02-3.04-16.98-14.58-13.8-35.14 0 0 8.56-11.4 20.14-18.09-6.39 12.19-.34 33.97 14.7 33.97m-3.21-29.14c0-4.5 1.86-8.15 4.15-8.15s4.15 3.65 4.15 8.15-1.86 8.15-4.15 8.15-4.15-3.65-4.15-8.15m-99.54 84.6c10.8 0 19.38 5.09 19.38 5.09-4.29 8.14-10.53 14.74-16.67 19.82-.32-5.27-3.16-8.12-5.26-9.52 3.42-.21 7.32-.02 11.74.75-23.82-13.43-32.91 9.19-32.91 9.19s4.17-6.51 14.92-9.04c3.01.8 8.74 3.32 8.7 10.85-9.29 7.06-17.61 10.55-17.61 10.55s-9.55-6.75-9.55-17.64 12.33-20.05 27.27-20.05m61.64 90.86c-77.39 0-94.67-36.21-158.87-36.21-15.16 0-23.09 4.18-23.09 6.42 0 4.84 18.14 11.51 31.31 11.51 11.39 0 12.63-6.21 12.63-6.21 28.99 0 44.93 12.11 44.93 12.11s-9.28 17.32-49.65 17.32-83.57-20.62-83.57-40.85c0-11.23 21.18-26.9 55.67-26.9 53.49 0 88.7 31.53 163.47 31.53 41.6 0 86.37-26.83 86.37-85.74 0-37.36-15.72-73.91-47.71-92.89 1.19-.17 2.59-.32 4.16-.41 6.77-.38 16.84.43 27.86 6.02-11.51-21.44-33.81-18.51-45.92-14.94-1.44.42-2.73.85-3.84 1.25-10.31-3.43-21.85-5.33-34.64-5.33-81.02 0-103.95 82.36-103.95 82.36s-10.27-29.28 14.01-55.74C113.94 84.86 106.87 91 106.87 91s13.34-35.68 71.22-50.72c-9.28-4.2-22.92-3.55-22.92-3.55s38.81-25.03 88.2-6.89c0 0-7.41-16.39-30.02-20.32 20.51 0 150.78 9.26 150.78 144.66 0 85.87-76.76 124.96-125.35 124.96"/></g></g></svg>