<svg xmlns="http://www.w3.org/2000/svg" viewBox="0 0 141.595 198.592"><g data-name="Layer 2"><g data-name="Layer 1"><path d="M21.731 16.588c-5.138 5.46-10.092 16.297-10.804 23.646a67.789 67.789 0 0 0-.342 6.574c0 7.364 1.508 13.007 4.794 18.5a42.475 42.475 0 0 0 18.882 16.353c7.76 3.602 18.935 8.618 20.27 9.163a27.9 27.9 0 0 1 1.676.769l-5.287 3.835c-6.917-1.578-15.61-.364-17.632.114a50.275 50.275 0 0 0-21.226 10.429c-5.574 4.87-9.749 10.464-11.165 14.97-1.578 5.012-1.073 8.572 1.506 10.574 3.805 2.959 8.708-.068 10.316-1.07 3.307-2.091 9.393-5.917 17.064-7.055 6.67-.99 15.621-.079 19.733 2.607v7.27c-.993.903-2.044 1.867-2.044 1.867a5.51 5.51 0 0 0-1.59 3.92 5.963 5.963 0 0 0 .367 2.056 5.162 5.162 0 0 0 2.263 2.657c13.267 8.084 13.263 8.084 22.191 13.527-.129.048-.393.056-.492.097-1.177.519-3.907 2.229-3.907 6.995v19.42l11.54 11.026a8.53 8.53 0 0 0 6.665 2.873 7 7 0 0 0 5.148-2.776s7.685-9.86 12.443-15.97c3.528 5.461 9.087 14.057 9.087 14.057a2.539 2.539 0 0 0 .134.3c.644 1.384 1.983 4.261 5.137 5.078a7.167 7.167 0 0 0 6.173-1.465c3.448-2.507 11.476-8.768 12.853-10.146l.255-.253a6.447 6.447 0 0 0 2.396-4.713v-18.535a5.92 5.92 0 0 0-3.518-5.497c-1.789-.717-3.837-.717-6.282 1.273-1.092.888-2.959 2.237-5.673 4.289-1.57-2.509-2.41-3.85-3.604-5.749 2.338-2.94 7.887-9.937 10.987-13.85.402.319 1.213.954 1.213.954l.14.093c3.262 2.172 5.751 1.366 6.939.686 3.242-1.829 3.307-5.906 3.247-7.11l.01-15.57-9.805-10.144a6.545 6.545 0 0 0-5.446-2.256 6.756 6.756 0 0 0-5.136 3.145c-.53.76-5.19 6.62-10.03 12.653v-20.37c.597-.6 1.216-1.227 1.216-1.227a9.01 9.01 0 0 0 2.865-6.102 5.925 5.925 0 0 0-.385-2.115 6.411 6.411 0 0 0-4.918-3.92 40.495 40.495 0 0 0 1.266-9.242c.003-.238.006-.478.006-.712 0-6.801-1.565-12.536-4.66-17.056-3.682-5.372-6.532-7.178-10.47-9.68l-1.018-.645C90.487 52.2 66.415 39.548 65.39 39.01l-9.229-4.571c-6.039-3.057-6.474-5.195-6.474-6.355 0-.077.008-.14.01-.205a5.427 5.427 0 0 1 5.228-3.237 28.437 28.437 0 0 1 10.666 1.67c7.37 2.473 7.58 5.476 7.582 6.588-.015.269-.243 3.379-.243 3.379l15.33 10.473 22.978-29.494L92.582 4.781l-2.47 2.472a17.397 17.397 0 0 1-1.653 1.528c-.362-.061-1.33-.22-1.33-.22l-4.114-1.562C76.54 4.382 65.697 0 55.835 0 38.588 0 29.53 8.193 21.731 16.588z" fill="#fff"/><path d="M24.042 18.818c-4.649 4.94-9.29 15.086-9.937 21.707-.211 2.221-.324 4.279-.324 6.203 0 6.76 1.364 11.899 4.326 16.845a39.16 39.16 0 0 0 17.428 15.049c8.114 3.763 18.966 8.627 20.157 9.112 2.224.905 5.594 2.739 6.482 3.689-1.165.844-10.05 7.292-10.615 7.7-5.845-1.898-15.04-.842-17.646-.22a46.902 46.902 0 0 0-19.81 9.695c-5.06 4.422-8.959 9.583-10.183 13.464-1.11 3.53-.99 5.85.363 6.9 1.307 1.018 3.422.6 6.464-1.28 3.246-2.053 9.995-6.289 18.389-7.54a45.584 45.584 0 0 1 17.164.954 28.298 28.298 0 0 1 6.479 3.044v10.746c-.494.446-3.042 2.775-3.042 2.775a2.123 2.123 0 0 0-.594 1.525 2.56 2.56 0 0 0 .157.883 1.942 1.942 0 0 0 .85.943l31.627 19.28s7.515-5.739 8.822-6.735l1.527 2.542c-.687.837-8.788 10.74-9.79 11.961l-7.065-6.3c-1.76-1.622-3.13-1.381-3.79-1.091-1.198.522-1.88 1.945-1.88 3.892v18.006l10.562 10.098a5.311 5.311 0 0 0 4.07 1.894 3.697 3.697 0 0 0 2.692-1.478s12.215-15.675 15.396-19.762c1.204 1.858 11.698 18.092 11.698 18.092l.358.704c.52 1.124 1.313 2.817 2.918 3.234a3.994 3.994 0 0 0 3.343-.925c3.437-2.503 11.348-8.694 12.472-9.822l.263-.258c.777-.772 1.395-1.38 1.395-2.319v-18.568a2.641 2.641 0 0 0-1.457-2.384c-.642-.277-1.687-.338-3.002.927.068-.057-6.373 4.808-8.55 6.457-.85-1.349-6.29-10.025-6.85-10.923.707-.89 13.608-17.146 14.59-18.389l3.738 2.933c1.398.935 2.54 1.124 3.46.603 1.632-.925 1.549-3.702 1.537-4.016V124.28l-8.963-9.28a3.145 3.145 0 0 0-2.64-1.137 3.43 3.43 0 0 0-2.556 1.579c-.473.758-7.398 9.417-12.281 15.486a14.185 14.185 0 0 0-4.03-2.065V104.54l2.38-2.413a5.696 5.696 0 0 0 1.711-3.543 2.622 2.622 0 0 0-.169-.948c-.52-1.384-2.121-2.078-4.761-2.078-.04 0-.874.075-1.672.15a33.275 33.275 0 0 0 2.56-12.504c0-.218.005-.44.005-.656 0-6.116-1.371-11.218-4.079-15.17-3.29-4.806-5.625-6.288-9.499-8.744l-1.034-.66c-4.479-2.856-28.473-15.465-29.49-16l-9.174-4.544c-7.21-3.648-8.364-6.815-8.364-9.46 0-.12 0-.236.008-.358.073-2.18 3.194-6.425 8.626-6.425a31.695 31.695 0 0 1 11.76 1.853c6.67 2.237 9.914 5.478 9.915 9.917-.005.004-.12 1.578-.12 1.578l11.121 7.598 18.819-24.158L92.961 9.05l-.512.509c-2.867 2.873-2.987 2.849-6.048 2.233a39.715 39.715 0 0 1-4.722-1.744c-6.262-2.529-16.74-6.766-25.963-6.766-15.92 0-24.064 7.349-31.674 15.536zm28.233 81.958l11.966-8.686v-.444c-.14-2.015-5.865-4.669-7.885-5.543-1.135-.49-12.16-5.4-20.08-9.078a37.406 37.406 0 0 1-16.661-14.357c-2.629-4.387-4.904-10.084-3.754-21.975.6-6.192 5.11-16.042 9.467-20.672 7.337-7.896 15.175-14.98 30.388-14.98 8.879 0 19.162 4.157 25.303 6.638a38.618 38.618 0 0 0 5.038 1.84c3.372.673 4.268.551 7.11-2.214.99.658 9.286 6.214 10.587 7.083a70044.059 70044.059 0 0 0-16.638 21.36c-1.134-.776-8.209-5.606-8.918-6.096l.044-.636c0-5.275-3.739-9.172-11.112-11.646a33.618 33.618 0 0 0-12.319-1.942c-6.627 0-10.282 5.29-10.385 8.122-.168 4.572 2.713 8.103 9.328 11.454.01.003 9.163 4.538 9.163 4.538.228.121 24.93 13.095 29.34 15.916l1.041.66c3.803 2.418 5.903 3.743 8.991 8.254 2.592 3.787 3.86 8.77 3.763 14.808a30.074 30.074 0 0 1-2.954 13.13l-.756 1.433 4.664-.433c1.672.004 2.808.348 3.033.943.292.778-.691 2.229-1.052 2.55l-3.045 3.098.062.283v25.973l.631.188c1.406.412 3.888 1.418 4.568 2.354l.675.928.72-.898c1.251-1.55 12.257-15.224 12.964-16.348a1.684 1.684 0 0 1 1.214-.766 1.422 1.422 0 0 1 1.18.55s7.285 7.553 8.519 8.825v13.72c.001.065.004.136.004.208 0 .859-.208 1.984-.649 2.23-.274.158-.862-.029-1.561-.495-.002-.006-5.06-3.973-5.06-3.973l-16.453 20.737 8.53 13.604 10.163-7.686c.637-.605 1.015-.712 1.173-.645a.943.943 0 0 1 .387.767v18.568c0 .207-.402.605-.872 1.064l-.27.27c-.984.987-8.664 7.025-12.266 9.642a2.396 2.396 0 0 1-1.868.644c-.798-.207-1.353-1.401-1.763-2.273l-.47-.916-13.042-20.171-16.925 21.716a1.956 1.956 0 0 1-1.411.802 3.79 3.79 0 0 1-2.715-1.38s-9.523-9.107-10.05-9.608v-17.254c0-1.414.43-2.107.83-2.286.444-.193 1.156.1 1.901.788.013.014 8.447 7.533 8.447 7.533l11.734-14.342-3.176-5.29-9.425 7.199c-.996-.606-30.657-18.684-30.705-18.715a.642.642 0 0 1-.061-.262.436.436 0 0 1 .078-.284l3.551-3.232.007-.396v-12.12l-.41-.26a23.37 23.37 0 0 0-7.776-3.527 47.325 47.325 0 0 0-17.468-.968c-8.754 1.396-15.728 5.677-19.07 7.795-3.219 1.99-4.224 1.558-4.456 1.378-.49-.382-.722-1.914.242-4.983 1.112-3.537 4.904-8.51 9.658-12.669a45.162 45.162 0 0 1 19.058-9.305c2.921-.694 12.005-1.596 17.143.275l.443.158z" fill="#c4ced4"/><path d="M135.158 192.801h-1.326v3.614h-.898v-3.614h-1.322v-.785h3.546zm6.016 3.614h-.897v-3.497h-.023l-1.273 3.497h-.864l-1.233-3.497h-.02v3.497h-.897v-4.398h1.557l1.021 2.873h.02l1.062-2.873h1.547zm-6.128-57.43v-13.198l-8.25-7.418-22.848 28.372-3.21-5.118c2.779-2.08 6.367-4.749 6.768-4.949a10.47 10.47 0 0 1 3.13-1.317c.746 0-1.156-3.301-6.597-3.301v-29.19l3.134-3.465s-3.81.601-5.61.053a13.672 13.672 0 0 1-1.8-.83 24.554 24.554 0 0 0 2.63-5.652c3.743-11.825 1.292-22.742-7.587-29.472-6.231-4.72-31.828-17.673-31.828-17.673s-15.486-7.59-17.155-9.259c-1.194-1.193-3.626-3.05-3.626-8.904 0-3.493 3.888-7.338 5.567-8.13 2.678-1.272 3.552-1.87 8.982-1.95a30.552 30.552 0 0 1 6.31.737c3.381.357 11.38 2.991 15.506 8.578 1.578 1.578 1.893 6.207 1.893 6.207l6.433 4.121 14.017-18.304-7.585-5.112a7.84 7.84 0 0 1-7.917 1.65C83.756 14.636 69.6 9.48 67.59 8.84c-3.793-1.215-12.038-2.12-16.488-1.462-4.454.66-11.765 2.015-17.484 8.083-6.677 7.088-6.76 12.777-6.76 15.832a22.685 22.685 0 0 0 6.596 16.466c7.725 7.722 19.46 12.557 22.098 14.018 4.69 2.594 19.47 10.325 21.605 11.567C86.23 78.622 89.69 84.23 88.704 91.322c-.047.348-.16.673-.236 1.01-3.973-2.336-9.565-5.86-11.806-8.102 0 0-1.357 1.445-2.226 2.31l-6.583 4.93a38.898 38.898 0 0 0 .728-9.217c-.163-.661-.658-5.94-5.276-9.233a139.626 139.626 0 0 0-16.161-9.405 109.917 109.917 0 0 1-15.007-9.703s-6.927-6.456-7.998-10.416c-2.064-4.537-2.145-15.258-1.074-16.329a25.485 25.485 0 0 0-4.452 8.91 35.519 35.519 0 0 0-1.483 9.235c0 4.285.74 11.789 5.439 18.139a36.905 36.905 0 0 0 8.762 8.253 63.917 63.917 0 0 0 8.72 4.608c1.155.824 12.04 5.42 13.03 5.916.987.494 5.977 2.812 7.039 3.382 3.755 2.01 5.689 3.299 6.877 6.499l-11.281 8.45a5.192 5.192 0 0 1 .496 2.308v1.067a32.112 32.112 0 0 0-4.613-1.209c-7.423-1.26-11.938-1.184-17.811.264-6.518 1.607-13.361 4.24-19.795 10.67-7.26 7.261-7.171 12.128-7.171 12.128l7.255-4.277a44.345 44.345 0 0 1 19.71-5.45c13.483 0 20.478 3.894 22.425 6.058v13.074c0 2.596-.78 2.923-1.359 3.42-.22.192-.414.205-1.195.74a5.528 5.528 0 0 1 1.237.621c.658.494 26.334 15.998 26.334 15.998l9.941-7.282 4.911 7.818-13.645 16.945-9.399-8.578v15.999l10.719 9.895 18.925-23.758 15.54 24.745 12.535-10.057v-15.831l-10.057 7.585-10.198-16.26 18.44-23.155zm-64.07-35.624l5.853-4.287a38.53 38.53 0 0 0 5.328 3.598l-.216.195s-6.752 5.777-10.966 6.372zm10.253 37.603l-10.254-6.269V119.16c4.296-.761 14.774-5.756 20.2-11.182.07 1.028.047 11.407.024 18.44l-6.288-10.03-9.595 6.819v12.201l5.307-3.516 3.976 6.334z"/></g></g></svg>