<svg viewBox="0 0 233.575 233.575" xmlns="http://www.w3.org/2000/svg"><path d="m116.795 233.575c-64.395 0-116.795-52.392-116.795-116.787 0-64.396 52.4-116.788 116.795-116.788 64.397 0 116.78 52.392 116.78 116.788 0 64.395-52.384 116.787-116.78 116.787" fill="#002d62"/><path d="m174.207 83.314h38.408c-13.645-39.09-50.505-67.227-94.065-67.984l16.42 50.52h39.237zm-114.817 91.961v-17.42l13.775-4.95-3.2 1.13 3.2-1.13v-27.934l-53.218-38.671a101.69 101.69 0 0 0 -4.665 30.503c0 33.134 15.88 62.54 40.444 81.055l7.332-22.583zm0-109.425h39.23l16.42-50.52c-43.567.727-80.42 28.895-94.087 67.984h38.437zm64.916 96.307-7.51-5.476-7.526 5.477v13.12h-18.06l-33.28 24.19c16.598 11.85 36.907 18.827 58.864 18.827 21.95 0 42.253-6.992 58.865-18.826l-33.296-24.192h-18.06v-13.12zm89.338-75.827-53.196 38.64v27.936l13.76 4.95v17.42h-3.69l7.34 22.582c24.563-18.53 40.435-47.936 40.435-81.055a101.56 101.56 0 0 0 -4.65-30.473" fill="#002d62"/><path d="m116.795 7.904c-60.165 0-108.89 48.726-108.89 108.884 0 60.156 48.725 108.883 108.89 108.883 60.134 0 108.884-48.725 108.884-108.882 0-60.158-48.75-108.884-108.885-108.884m61.062 189.954-7.34-22.583h-28.152l33.295 24.176c-16.605 11.835-36.915 18.842-58.865 18.842s-42.275-6.977-58.857-18.84l33.273-24.177h-17.502l-19.338 26.773 1.355-4.192c-24.564-18.5-40.45-47.922-40.45-81.07 0-10.613 1.64-20.85 4.67-30.488l53.213 38.67v-6.698l-40.644-29.544-16.72-5.414h5.16c13.666-39.09 50.518-67.257 94.07-67.984l1.77-5.414v99.48h21.28v-21.166l-13.767-4.918v-17.462h10.657l-16.414-50.52c43.552.743 80.42 28.895 94.066 67.984h5.19l-16.723 5.43h-40.635v36.227l53.196-38.64a101.631 101.631 0 0 1 4.65 30.458c0 33.134-15.873 62.54-40.437 81.07" fill="#eb6e1f"/><path d="m138.072 152.906v-21.144h-32.91l-9.643 13.334v7.81l13.75 4.936v4.315l7.518-5.476 7.524 5.477v-4.315" fill="#eb6e1f"/><path d="m160.455 88.232v.512h40.62l16.722-5.43h-43.59m-64.937-17.464v17.465l-13.75 4.915v21.146h21.268v-99.46l-1.748 5.414-16.42 50.52m-3.1 79.246 9.636-13.334h-9.636m-25.556 22.288 3.2-1.144-3.2 1.145zm-14.238 43.808-1.354 4.193 19.35-26.775h-10.662m-3.67-91.962h-43.596l16.72 5.414 40.653 29.544v-30.04" fill="#f4911e"/><path d="m59.39 157.842v17.433l4.417-4.44h41.024v-9.884l4.44-3.108-13.75-4.936-4.45 3.125v-28.708h51.442l-4.44 4.44v21.144l-13.766 4.936v17.433l4.446-4.44h41.016v-9.884l4.44-3.108-13.76-4.936-4.463 3.125v-70.924l13.783-4.937v-9.868l4.44-4.456h-49.902v17.464l4.446-3.14 13.76 4.935-4.44 3.122v21.146h-42.553l-4.45 4.455v-28.721l13.76-4.937v-9.868l4.44-4.456h-49.88v17.464l4.417-3.14 13.79 4.935-4.43 3.122v64.674" fill="#fff"/><path d="m174.207 83.314v-17.464l-4.447 4.455v9.868l-13.768 4.936v70.92l4.463-3.124v-64.672m13.752 69.609-4.447 3.11v9.883h-41.008l-4.454 4.44h49.91m-78.688-43.513h42.55l4.432-4.44h-51.432v28.71l4.45-3.14v-7.796m13.75 17.061v-4.315l-4.43 3.11v9.883h-41.026l-4.424 4.44h49.88m-31.672-90.165-13.79-4.937-4.417 3.14 13.77 4.935m55.591-8.075-4.446 3.14 13.766 4.935 4.44-3.14m-33.242-1.794v-17.464l-4.43 4.455v9.868l-13.778 4.937v28.723l4.456-4.455v-21.146" fill="#e7e9ea"/><path d="m208.3 212.383h-2.42v6.56h-1.626v-6.56h-2.42v-1.422h6.466v1.423zm10.927 6.56h-1.63v-6.36h-.047l-2.313 6.36h-1.57l-2.243-6.36h-.032v6.36h-1.64v-7.983h2.824l1.872 5.213h.022l1.942-5.213h2.815v7.982z" fill="#002d62"/></svg>