<svg xmlns="http://www.w3.org/2000/svg" viewBox="0 0 161.276 142.372"><g data-name="Layer 2"><g data-name="Layer 1"><path d="M155.09 131.263h-1.376v3.722h-.915v-3.722h-1.366v-.804h3.657zm6.186 3.722h-.914v-3.601h-.027l-1.312 3.6h-.902l-1.257-3.6h-.028v3.6h-.923v-4.525h1.61l1.056 2.958h.008l1.099-2.958h1.59z" fill="#092c5c"/><path d="M155.09 131.263h-1.376v3.722h-.915v-3.722h-1.366v-.804h3.657zm6.186 3.722h-.914v-3.601h-.027l-1.312 3.6h-.902l-1.257-3.6h-.028v3.6h-.923v-4.525h1.61l1.056 2.958h.008l1.099-2.958h1.59z" fill="#092c5c"/><path d="M39.35 8.582H15.901l-.11.045C7.444 11.928 4.594 23.42 4.024 26.167a.702.702 0 0 0-.011.073l-3.64-.199L0 29.097l6.68.351.272-1.322c.453-2.204 3.096-13.286 10.702-16.403h21.695zm59.714 33.696v90.958h.039c.704.001 4.642.011 9.587.011-2.075-.001-5.15-.005-6.494-.007V45.321l3.98-.106c.176-.007 9.066-.413 15 5.213 3.517 3.333 5.346 8.162 5.454 14.351.013-.326.021-.661.021-1.002 0-22.955-22.032-21.704-22.032-21.704-1.166 0-3.678 0-5.001.14zm6.47 43.523l-.003 5.947 1.447.117c2.642.21 25.63 2.552 26.087 20.154.014-.347.02-.695.02-1.041 0-19.703-25.366-22.076-27.546-22.25v-2.927zM75.67 96.676s-13.45-2.448-15.619-2.845V11.703h21.732c7.1 2.945 10.227 15.696 11.02 19.557l.269 1.324 6.685-.355L95.967.003h-2.8L96.6 29.18l-.359.018-.682.035-2.624.14c-.538-2.63-3.669-17.427-12.091-20.769l-.108-.04-.006-.003H57.08v85.007s14.656 2.672 15.618 2.846v4.685H23.844l-.005 3.142h51.83zm5.844-52.595s-15.31-2.523-16.283-2.671v-4.7h-.009v7.602l16.284 2.673zm65.24 49.623c-5.067-4.951-11.79-6.983-16.733-7.824 6.957-3.437 17.25-10.875 17.25-24.897 0-16.56-11.16-24.273-35.125-24.273h-1.322c22.106.05 33.323 6.644 33.323 22.7 0 20.082-22.307 25.86-22.307 25.86v.019s28.769-.676 28.769 24.954c0 19.514-12.51 28.988-33.95 28.988H65.232v-4.44l-.017.005.008 1.317v6.259h52.995c22.907 0 35.523-10.853 35.523-30.557 0-7.491-2.35-13.584-6.986-18.111z" fill="#8fbce6"/><path d="M65.231 139.23h51.429c21.438 0 33.949-9.473 33.949-28.987 0-25.63-28.77-24.954-28.77-24.954v-.019s22.308-5.778 22.308-25.86c0-16.056-11.217-22.65-33.323-22.7l-.238-.001H65.23v4.7c.974.149 16.283 2.673 16.283 2.673v87.622l-.008.003c-.416.072-15.324 2.664-16.275 2.835v4.689zm61.42-75.453c0 .34-.008.676-.021 1.002-.703 18.774-21.09 20.865-21.09 20.865v3.084c2.18.175 27.545 2.547 27.545 22.25 0 .346-.006.694-.02 1.04-.418 10.673-7.347 21.23-23.872 21.23h-.503c-4.945 0-8.883-.01-9.587-.012h-.039V42.278l.554-.064c1.323-.141 3.835-.141 5.001-.141 0 0 22.032-1.251 22.032 21.704z" fill="#092c5c"/><path d="M23.844 96.415v4.685h48.853v-4.685c-.962-.174-15.618-2.846-15.618-2.846V8.562H80.73l.006.003.108.04c8.422 3.342 11.553 18.14 12.09 20.77l2.625-.141.682-.035.36-.018L93.167.003 93.165 0 3.482.046.374 26.04l3.64.199a.702.702 0 0 1 .011-.074c.57-2.746 3.42-14.238 11.766-17.54l.111-.044H39.35v84.987s-14.381 2.672-15.505 2.846z" fill="#092c5c"/></g></g></svg>