<svg viewBox="0 0 287.096 338" xmlns="http://www.w3.org/2000/svg"><g fill="#0c2c56"><path d="m285.656 180.534v24.209h-56.607v-17.999c0-6.12.27-11.25 4.68-16.02 3.87-4.229 9.899-7.109 15.029-9.72 13.41-6.75 14.31-7.92 14.31-12.239 0-3.061-1.53-6.03-5.13-6.03-5.13 0-4.68 5.851-4.68 9.45v2.97h-22.859v-20.879c8.28-6.12 18.989-8.19 29.159-8.19 6.569 0 13.679.99 19.169 4.771 5.31 3.689 8.37 9.72 8.37 17.189v2.699c0 13.14-7.919 18.72-14.399 21.869l-8.55 4.23c-12.959 6.479-11.789 7.829-11.789 11.969h2.79c6.03 0 7.74-2.069 7.92-8.279z"/><path d="m217.116 226.286v-134.649c.839-11.497 3.706-15.192 12.066-22.995-18.632-6.977-39.976-28.727-51.472-51.722-57.465 29.562-121.512 29.562-169.93-13.133-4.809-4.244-10.256-6.396-6.564 1.638 13.668 29.706 42.057 48.191 73.979 56.395-18.371 15.93-29.201 25.315-31.609 45.475-15.719 1.17-32.531 12.668-37.856 23.339-6.063 12.154 2.921 12.395 9.02 8.21 7.802-5.337 18.864-7.39 28.32-6.981l-.021 15.254c-15.707 1.172-31.174 12.667-36.498 23.339-6.066 12.151 2.917 12.389 9.013 8.213 7.808-5.339 18.049-8.213 27.504-7.802v45.978c0 18.064-9.027 27.09-14.376 32.022-5.32 4.926-2.388 10.068 5.35 6.974 16.228-6.495 33.09-21.888 36.93-45.331 6.209.798 13.656.867 18.897.033l-.006 6.303c0 18.064-9.033 27.09-14.366 32.022-.083.077-.138.157-.217.234-17.27 1.507-32.72 7.335-45.023 16.904-28.003 21.855-32.31 62.912-28.003 71.989.264.589 15.776-50.742 61.835-56.2 26.685-3.147 59.447 4.836 87.355 29.058 17.237-28.744 46.398-45.157 80.469-50.957-11.505-13.08-14.374-18.828-14.797-33.61m-36.937-151.076v40.342c-18.422 5.554-44.998 5.353-61.575-.594v-5.258c0-14.284 1.197-32.382 12.946-43.794 11.219-1.197 22.122-3.55 32.205-7.108l16.422 16.411h.002zm-61.575 53.709c16.578 5.942 43.154 6.144 61.575.592v39.2c-18.422-5.555-44.998-5.353-61.575.592zm-1.096-62.135c-8.653 7.555-16.048 14.576-21.017 22.733-6.58-2.182-12.619-3.473-18.488-3.798 3.794-7.624 9.224-14.745 15.765-20.253a162.629 162.629 0 0 0 23.742 1.321m-45.715 132.08v-89.164c0-3.922.619-8.08 1.744-12.286 6.49-.738 12.99-.072 18.539 1.91-1.307 4.175-2.143 8.642-2.115 13.717l-.078 85.309c-4.631 1-11.748 1.115-18.092.515m70.621 64.359c-17.827-8.813-35.393-13.384-51.792-14.321 14.724-9.897 27.983-27.346 27.983-50.53v-15.107c16.578-5.952 43.154-6.151 61.575-.596v58.397c-11.499 3.279-25.451 11.486-37.767 22.155m89.498 23.733h-1.589v-5.89l-2.151 5.89h-.936l-2.152-5.89v5.89h-1.588v-7.296h2.562l1.647 4.314 1.64-4.314h2.568v7.297zm-9.298-5.887h-2.225v5.89h-1.75v-5.89h-2.216v-1.409h6.192v1.409z"/></g></svg>