<svg xmlns="http://www.w3.org/2000/svg" viewBox="0 0 313.888 300.093">
  <path fill="#f89828" d="M254.977 79.564c8.177 7.788 16.245 15.516 24.365 23.19 2.293 2.168 4.716 4.2 7.124 6.242.492.418 1.18.605 1.778.898l-.632.754h-2.755c-11.976 0-23.952-.018-35.928.027-1.297.004-2.214-.398-3.134-1.287-5.8-5.603-11.535-11.28-17.53-16.67-3.339-3.001-7.151-5.475-10.719-8.227-.962-.742-1.636-.673-2.406.278a3674.149 3674.149 0 0 1-13.995 17.164c-7.396 9.024-14.806 18.037-22.21 27.055-2.644 3.22-5.312 6.422-7.904 9.683a3.416 3.416 0 0 0-.688 1.973c-.035 22.992-.03 45.984-.025 68.976 0 .438.066.876.12 1.554.59-.2 1.073-.29 1.482-.513 9.386-5.133 18.902-10.045 28.103-15.49 9.678-5.726 17.916-13.305 25.333-21.726 6.594-7.486 13.023-15.118 19.52-22.69.309-.36.569-.762 1.144-1.54-13.8-.203-27.202-1.05-38.982 6.53-3.009-3.695-5.827-7.276-8.779-10.743-2.923-3.432-5.983-6.748-9.021-10.16 6.452-5.113 12.474-11.831 17.34-19.535 8.315 4.913 17.17 6.893 26.534 6.893 26.212.001 52.424-.002 78.636-.002h1.946l.194.452c-.493.465-.967.953-1.483 1.392-5.105 4.347-10.386 8.504-15.288 13.07-7.761 7.23-15.496 14.515-22.824 22.176-7.788 8.141-15.078 16.758-22.608 25.147-5.382 5.996-10.592 12.166-16.256 17.885-7.379 7.45-15.955 13.387-25.153 18.433-10.263 5.631-20.976 10.473-30.558 17.3-2.75 1.96-5.41 4.046-8.114 6.071-.968.725-1.343 1.621-1.321 2.89.171 10.105.24 20.212.392 30.317.053 3.6.952 7.024 2.435 10.307 1.852 4.097 3.658 8.215 5.542 12.455-14.455-2.542-28.917-2.504-43.7-.004.41-.843.714-1.516 1.057-2.17 3.76-7.147 6.813-14.575 7.095-22.742.335-9.646.283-19.306.314-28.96.002-.642-.574-1.459-1.12-1.902-6.533-5.315-13.523-9.955-20.908-14.004-9.527-5.223-19.446-9.748-28.43-15.939-10.059-6.93-18.711-15.353-26.595-24.649-6.268-7.39-12.382-14.975-19.258-21.772-11.068-10.942-23.637-20.026-37.452-27.295-2.688-1.415-5.453-2.685-8.172-4.041-.418-.209-.784-.523-1.483-1 .786-.412 1.24-.68 1.716-.897 8.317-3.79 16.18-8.373 23.69-13.57 8.783-6.076 17.163-12.669 24.478-20.469 5.164-5.507 10.052-11.281 14.903-17.071 5.042-6.02 10.258-11.855 16.127-17.085 1.626-1.45 1.59-1.419.13-3.176-4.934-5.938-9.755-11.973-14.78-17.834-6.417-7.485-14.169-13.164-23.468-16.627-.533-.199-.988-.608-1.716-1.07C54.084 20.451 65.108 11.133 74.97.107c.91 3.532 1.6 6.743 2.569 9.867 2.529 8.157 7.088 15.183 12.445 21.736 4.567 5.588 9.156 11.156 13.697 16.765.716.885 1.413 1.2 2.453.663C117.3 43.364 128.599 37.778 138.557 30c5.77-4.507 11.246-9.392 16.772-14.201 1.122-.976 1.686-1.341 2.956-.104 12.204 11.896 25.907 21.698 41.226 29.217 2.777 1.363 5.488 2.861 8.207 4.337.808.438 1.4.472 2.027-.323 6.733-8.536 13.735-16.875 20.157-25.638 4.783-6.526 7.168-14.227 8.571-22.188.037-.21.107-.414.286-1.1 9.94 11.122 20.996 20.444 34.097 27.882-1.515.63-2.575 1.111-3.662 1.515-7.117 2.645-13.283 6.762-18.36 12.362-5.494 6.06-10.8 12.293-16.099 18.525-1.521 1.79-1.388 1.92.5 3.191 7.04 4.737 13.533 10.144 19.742 16.089m-193.26 64.28c4.117 4.25 8.423 8.337 12.311 12.787 7.632 8.734 14.432 18.224 23.26 25.862 4.51 3.9 8.967 8.02 14.021 11.1 9.936 6.052 20.27 11.451 30.451 17.1.438.242.99.277 1.586.435.058-.65.123-1.039.123-1.427.005-23.037.01-46.075-.025-69.113 0-.662-.29-1.448-.707-1.965a3168.685 3168.685 0 0 0-16.74-20.574c-7.217-8.794-14.465-17.561-21.7-26.34l-4.282-5.187c-.525.374-.942.582-1.243.9-5.57 5.893-11.212 11.722-16.66 17.727-4.237 4.67-7.99 9.796-12.392 14.294-5.156 5.266-10.757 10.1-16.231 15.048-1.099.993-1.133 1.545.018 2.467 2.725 2.183 5.364 4.472 8.21 6.886m79.52-49.673c4.823 5.885 9.678 11.745 14.445 17.675 1.004 1.25 1.609 1.002 2.465-.048 3.422-4.194 6.89-8.35 10.32-12.539 6.427-7.847 12.84-15.704 19.255-23.56 1.193-1.462 2.365-2.94 3.668-4.561-2.39-1.276-4.504-2.426-6.637-3.54-9.245-4.83-18.46-9.71-26.776-16.084-.787-.603-1.421-.652-2.246.003-1.367 1.085-2.828 2.052-4.266 3.046-8.602 5.946-17.93 10.614-27.172 15.434-1.867.974-1.95 1.166-.599 2.82 5.78 7.07 11.586 14.118 17.542 21.354z"/>
</svg>
