<svg xmlns="http://www.w3.org/2000/svg" viewBox="0 0 109.73 105">
  <path d="M108.84 100.68C107.65 99 96.3 83.32 96.3 68.05c0-17.5 10.42-30.15 11.48-33.27 1.06-3.12-.79-3.18-1.84-3.18H81.31c-1.05 0-1.9.85-1.9 1.89v19.44c-.07 1.92-1.63 2.19-2.08 2.23h-9.98c-.45-.04-2.1-.31-2.1-2.38V26.94c0-2.38 2.21-2.38 2.21-2.38h39.09c3.92 0 3.92-3.79 1.56-5.91-2.47-2.21-17.69-15.66-17.69-15.66S86.87-.02 83.48-.02c-7.28 0-10.87 9.7-28.26 9.7S34.25 0 27.31 0c-3.72 0-7.28 3.01-7.28 3.01S2.71 17.65 1.56 18.67c-2.37 2.12-2.37 5.91 2.37 5.91h38.56s2.2 0 2.2 2.38V52.8c0 2.05-1.62 2.33-2.08 2.38h-10.2c-.46-.04-2.09-.33-2.09-2.38V33.5c0-1.05-.85-1.89-1.89-1.89H3.79c-1.05 0-2.9.06-1.84 3.18 1.06 3.12 11.48 15.77 11.48 33.27 0 15.27-11.35 30.95-12.54 32.63-1.76 2.48.2 4.32 3.84 4.32h23.69c1.05 0 1.89-.85 1.89-1.9V73.45c0-2.38 2.2-2.38 2.2-2.38h9.97s2.1 0 2.2 2.22v29.66c0 1.05.85 1.9 1.9 1.9h16.78c1.05 0 1.89-.85 1.89-1.9V73.46c0-2.38 2.2-2.38 2.2-2.38h9.75s2.13 0 2.2 2.27v29.77c0 1.05.85 1.9 1.9 1.9h23.69c3.64 0 5.59-1.84 3.84-4.32Z"/>
</svg>
