<svg xmlns="http://www.w3.org/2000/svg" viewBox="0 0 131.341 131.352"><g data-name="Layer 2"><g data-name="Layer 1"><path d="M0 65.672a65.67 65.67 0 1 1 65.669 65.68A65.678 65.678 0 0 1 0 65.672z" fill="#fff"/><path d="M4.233 65.423a61.418 61.418 0 1 1 61.42 61.404 61.418 61.418 0 0 1-61.42-61.404zm61.42 45.36a45.364 45.364 0 1 0-45.364-45.36 45.368 45.368 0 0 0 45.364 45.36z" fill="#0e3386"/><path d="M85.62 78.243a23.726 23.726 0 1 1 .388-25.04l11.675-11.371a39.782 39.782 0 1 0-.241 47.494z" fill="#cc3433"/><path d="M58.628 69.356V54.924h7.146v14.603c0 5.242-1.227 6.473-5.402 6.473h-7.426c-3.423 0-4.537-2.212-4.537-6.839V54.924h7.146v14.432a1.538 1.538 0 0 0 3.073 0M68.356 76V54.924h11.289c4.248 0 6.063 1.02 6.063 5.935 0 2.585-.487 3.948-1.966 4.68 1.966 1.107 1.966 3.202 1.966 5.047 0 4.682-2.064 5.414-6.063 5.414z" fill="#cc3433"/><path d="M78.913 60.68c-.032-.865-.845-.802-3.053-.802v2.951c1.234 0 3.053.133 3.053-.981zm-.059 8.574c-.374-.997-.587-.88-2.994-.88v2.944c1.546 0 2.994.14 2.994-.98a5.571 5.571 0 0 0 0-1.084z" fill="#fff"/><path d="M99.973 76c3.848 0 5.837-1.052 5.837-4.44 0-.42-.027-4.3-.027-4.72a3.93 3.93 0 0 0-4.237-4.066h-5.14c-1.402 0-1.086-2.032-1.086-2.647 0-.981 2.912-1.293 2.912.303v.982h7.578c0-4.915-.9-6.488-5.837-6.488-1.145.031-5.35.031-6.655.031-3.174 0-4.907 1.223-5.02 4.923a25.761 25.761 0 0 0 0 3.442c0 1.363-.207 4.377 3.93 4.377h5.237c1.476 0 1.184 1.722 1.184 1.722v1.098c0 1.238-2.5 1.3-3.053.28a3.138 3.138 0 0 1-.187-1.744h-7.111c0 1.464-.802 6.947 3.497 6.947z" fill="#cc3433"/><path d="M98.15 79.738h-1.215v3.318h-.83v-3.318h-1.214v-.724h3.259zm5.538 3.318h-.825v-3.209h-.02l-1.173 3.209h-.801l-1.133-3.209h-.016v3.209h-.83v-4.042h1.437l.939 2.64h.015l.978-2.64h1.43z" fill="#0e3386"/></g></g></svg>