<svg viewBox="0 0 134 186.821" xmlns="http://www.w3.org/2000/svg"><g fill="#fd5a1e"><path d="m56.183 83.174v18.808s23.904 1.54 31.223-2.892c-1.31 4.154-.897 17.74 0 20.003-9.25-4.745-31.223-2.854-31.223-2.854v18.926h35.415l7.543-8.773v-32.43l-8.741-10.146c-5.196-.575-23.772-.642-34.215-.642zm-54.793-67.274c7.353-3.503 15.18-10.916 17.956-15.9 7.088 3.348 72.254 2.854 79.788 0 4.544 6.642 9.427 10.356 16.31 12.605-.644 6.374-.446 8.63 1.632 13.74h-17.942l-7.534-8.412h-63.9l-8.37 7.367v33.887l8.344 8.078 10.565.44c0-12.582.13-14.988-9.128-17.447 3.082-6.172 3.702-6.896 4.513-14.593 7.925 2.66 89.81 1.21 93.37-.83-.57 8.02 3.96 23.255 7.005 28.94h-17.945c-.912-6.238-4.85-11.058-11.115-12.23h-48.756v16.16s37.937 1.032 42.95-.686c2.493 6.477 11.464 15.975 17.942 18.605-2.175 13.218-1.77 35.822 0 49.533-7.058 3.504-14.265 10.7-17.94 17.956-8.923-2.458-42.952-1.248-42.952-1.248v10.155c1.756 6.927 5.478 8.594 12.008 9.162 0 0-5.245 9.864-5.458 15.64h-30.658c-.135-5.634-5.466-15.64-5.466-15.64 5.895-.276 10.733-3.758 11.63-9.16v-10.156s-10.76-.403-18.894 1.248c-2.461-5.522-11.435-15.414-17.955-17.956 1.506-3.967.807-28.745-1.39-33.968h19.346l-.015 25.204 7.54 8.773h11.37v-51.987s-9.952-.493-18.893.188c-2.57-5-10.246-13.054-17.957-16.857 2.41-9.153 2.62-41.97 0-50.61z"/><path d="m75.885 179.297h-2.178v5.925h-1.472v-5.925h-2.167v-1.3h5.818v1.3zm9.874 5.925h-1.473v-5.74h-.045l-2.077 5.74h-1.428l-2.02-5.74h-.046v5.74h-1.46v-7.225h2.552l1.67 4.715h.037l1.75-4.715h2.538v7.225z"/></g></svg>