<svg xmlns="http://www.w3.org/2000/svg" viewBox="0 0 108.325 173.36"><g data-name="Layer 2"><g data-name="Layer 1"><path d="M59.907 62.055a21.822 21.822 0 0 1 3.778 1.41l3.21-2.044c-2.586-1.395-5.263-2.904-7.808-4.548.288 1.809.577 3.63.82 5.182zm-14.393 41.087h.011a.017.017 0 0 1-.014-.006zm-1.61-.793l.004.008c-.004-.008-.01-.008-.017-.014a.018.018 0 0 0 .013.006z" fill="#006c67"/><path d="M94.422 86.296c-1.365.242-2.828.497-4.387.755l-.187.034c3.698 6.729 5.92 15.04 5.92 25.387 0 31.127-20.223 53.16-43.62 53.16-14.996 0-20.86-5.908-24.494-7.04l-16.189 5.86v-51.07c3.877.455 7.173 3.978 8.986 7.61 7.19 14.36 15.339 26.553 30.787 26.553 9.09 0 15.107-8.377 15.107-20.3 0-6.626-2.961-11.895-7.339-16.383-.04.245-.079.494-.12.738-.348 2.144-.675 4.18-.912 5.635 2.562 3.656 3.893 7.3 3.893 10.823 0 4.424-1.144 14.712-11.765 14.712-14.534 0-22.752-18.358-26.26-26.2-2.718-6.066-10.347-9.991-14.806-10.487l-2.324-.258v65.503s18.974-6.809 20.386-7.319l.958.41c5.642 2.398 14.16 6.029 23.182 6.029 24.254 0 49.345-21.516 49.345-57.52a56.647 56.647 0 0 0-6.16-26.632zM35.99 94.97l-.004-.006zm39.196-28.959c-.339.75-.703 1.55-1.104 2.417 0 0-.263.565-.65 1.42-.036.075-.072.162-.112.25a49.635 49.635 0 0 1 11.08 9.255l.211.033c2.065.355 4.167.711 6.213 1.068A54.562 54.562 0 0 0 75.186 66.01zM73.105 7.923A39.781 39.781 0 0 0 50.102 0C32.42 0 6.256 16.252 6.256 51.143c0 11.805 2.564 21.555 8 29.774 1.409-.242 2.917-.497 4.509-.765.199-.031.392-.068.598-.101-5.092-7.117-8.335-16.492-8.335-30.049 0-26.12 20.9-45.625 39.417-45.625 7.61 0 16.884 5.08 21.878 9.055 2.949-1 13.716-5.43 13.716-5.43v46.435a14.475 14.475 0 0 1-8.446-6.022c-7.041-12.041-11.465-25.6-23.287-25.6-9.091 0-13.407 6.518-13.407 15.604 0 6.341 3.307 11.984 8.617 16.932.021-.137.038-.266.065-.398.312-1.953.604-3.763.81-5.076-3.006-3.243-4.969-6.885-4.969-11.004 0-3.357.789-11.172 8.085-11.172 7.967 0 11.956 7.46 13.627 11.909a43.435 43.435 0 0 0 10.524 15.737l2.883-1.656-1.293 2.835c0 .003.02-.054 0 0a18.403 18.403 0 0 0 9.316 3.967l2.29.219V1.342s-15.99 5.924-17.75 6.581z" fill="#006c67"/><path d="M43.725 64.763l-.009.005.015-.008zm19.035 38.316l.003-.001h-.008z" fill="#c4ced4"/><path d="M69.557 127.391c0 15.629-8.592 23.646-17.771 23.646-26.649 0-32.578-29.25-37.013-32.02v40.735c3.741-.818 12.142-5.222 12.142-5.222 3.7 0 10.805 8.02 24.128 8.02 20.14 0 41.453-19.744 41.453-49.352 0-10.99-2.564-19.13-6.574-25.485-2.801.447-6.987 1.115-10.406 1.657a22.035 22.035 0 0 1-2.837 6.28c.324.733.546 1.217.546 1.217.558 1.242 7.165 17.286 7.165 17.286s-10.963-6.89-16.808-10.56a22.7 22.7 0 0 1-3.618 1.355c-.118.692-.235 1.449-.362 2.235 5.907 4.947 9.955 10.983 9.955 20.208z" fill="#c4ced4"/><path fill="#c4ced4" d="M71.273 96.245v-.002l-.004.005.004-.003zm-38.665-6.942c-.06-.003-.12-.019-.182-.028l.228.18c-.014-.049-.032-.1-.046-.152zm1.955-19.985a118.654 118.654 0 0 1-6.082-15.773s10.196 6.307 15.996 9.907a21.813 21.813 0 0 1 3.973-1.46c.126-.76.255-1.581.39-2.432-6.604-5.001-11.268-11.145-11.268-21.04 0-11.929 7.25-19.126 15.251-19.126 19.24 0 21.585 23.798 29.906 29.815v-36.39c-3.145 1.256-10.063 4.316-10.063 4.316-1.782 0-4.15-2.265-7.695-4.728a26.437 26.437 0 0 0-14.519-4.525c-17.025 0-36.304 17.065-36.304 42.353 0 13.044 3.433 22.261 8.584 29.273 2.653-.428 6.547-1.055 9.814-1.584a22.172 22.172 0 0 1 2.922-6.582l-.905-2.024zm25.544 34.736h.003-.006.003zm15.47-26.187c.664.111 1.359.228 2.064.344q-1.285-1.115-2.621-2.138c.207.587.399 1.183.557 1.794zm-42.15-.086v.005-.006.001z"/><path d="M39.903 67.459a25.134 25.134 0 0 0 .074-.065.924.924 0 0 1-.074.065z" fill="#c4ced4"/><path fill="#002b5c" d="M86.872 165.411h2.923v7.949h1.981v-7.949h2.916v-1.723h-7.82v1.723zm15.311 4.594h-.051l-2.247-6.317h-3.421v9.672h1.97v-7.704h.047l2.709 7.704h1.91l2.801-7.704h.042v7.704h1.981v-9.672h-3.399l-2.342 6.317z"/><path d="M48.192 73.569a3.273 3.273 0 0 1-.366.228 1.834 1.834 0 0 1-.587-.223l-.011-.002.004-.003a.164.164 0 0 1-.06-.084s.727-.504 1.146-.78c.199-1.34.443-2.909.706-4.62.266-1.738.564-3.626.87-5.582-.536.104-1.063.226-1.584.374a20.866 20.866 0 0 0-3.003 1.094c-.537.238-1.066.504-1.576.789l-.014.008c-.292.16-.58.33-.862.503-.016.011-.038.022-.055.033-.261.164-.518.33-.773.504-.033.024-.075.05-.114.078-.23.157-.456.326-.683.49-.052.04-.104.077-.153.117-.262.202-.524.406-.781.622a1.37 1.37 0 0 1 .294.332 6.157 6.157 0 0 1-.567 1.486s-.157-.135-.266-.253c-.18.049-1.138.34-1.544.434-.233.258-.46.525-.68.793a.178.178 0 0 0-.025.03c-.213.261-.424.532-.627.806q-.541.72-1.014 1.48c-.248.39-.475.795-.688 1.198-.04.069-.075.133-.106.202-.22.418-.428.84-.616 1.27a.03.03 0 0 1-.01.023c-.195.452-.377.908-.546 1.372a.08.08 0 0 1-.018.046c-.166.475-.321.96-.456 1.446v.008a20.31 20.31 0 0 0-.374 1.57l-.003.007c2.574-.415 5.03-.803 7.18-1.13 3.73-.577 6.55-.989 7.483-1.073.004-.125.023-.293.05-.488.081-.674.231-1.743.43-3.105zm-8.824-3.4s-.452-.267-.428-.46c0 0 1.7-.52 1.791-.51l.366.214.366-1.356.035-.128.114.066s.43.246.475.365a7.123 7.123 0 0 1-.562 1.561 3.5 3.5 0 0 1-.382-.26c-.103.035-1.691.517-1.775.508zm1.286.647s1.66-.616 1.747-.611l.399.198.23-1.367.022-.138.13.06a2.122 2.122 0 0 1 .52.334 6.788 6.788 0 0 1-.408 1.592 3.424 3.424 0 0 1-.421-.234c-.075.024-1.656.605-1.738.599 0 0-.496-.238-.481-.433zm1.978 1.014s1.615-.686 1.697-.686l.436.18.11-1.376.006-.14.131.055a2.306 2.306 0 0 1 .56.304 6.925 6.925 0 0 1-.27 1.615 3.418 3.418 0 0 1-.451-.225c-.032.013-1.611.683-1.692.688 0 0-.527-.217-.527-.415zm2.67 1.284a1.727 1.727 0 0 1-.551-.258h-.007l.007-.003a.205.205 0 0 1-.062-.092s1.467-.852 1.546-.858l.481.131-.158-1.362-.019-.152.153.044a2.454 2.454 0 0 1 .626.233 6.626 6.626 0 0 1 .04 1.631 4.542 4.542 0 0 1-.52-.169c-.027.019-1.459.847-1.536.855z" fill="#fff"/><path d="M39.695 68.384l.282-.99c-.329.286-.646.578-.958.882a2.347 2.347 0 0 1 .422-.097zm-6.599 19.48v.001c.11.535.244 1.066.397 1.586a21.271 21.271 0 0 0 2.493 5.513l.003.006q.478.753 1.022 1.462c.24.318.494.632.75.934.03.035.053.067.081.097.268.315.542.617.83.914a.883.883 0 0 1-.066-.293s.364-.31.524-.27a9.772 9.772 0 0 1 .423 1.323l-.054.054c.155.142.31.29.475.43l.944.36-.138.114s-.052.048-.123.103c.247.196.5.386.752.577.044.023.08.055.12.08.225.162.449.322.682.475.025.015.049.034.074.046.249.168.502.328.759.483a.065.065 0 0 1 .028.018c.27.155.547.32.819.465.008.007.013.007.017.015.525.28 1.058.535 1.603.779a.017.017 0 0 0 .014.006 20.883 20.883 0 0 0 2.75.984c.52.144 1.048.277 1.587.384-.301-1.898-.588-3.716-.845-5.395a1325.44 1325.44 0 0 1-.454-2.954 1.238 1.238 0 0 1-.345.048 11.463 11.463 0 0 1-1.245-1.161l-.041-.027.012-.008a.168.168 0 0 1-.04-.098s.344-.09.538-.12a8.56 8.56 0 0 1 .27-1.322 2.169 2.169 0 0 1 .436-.079 213.89 213.89 0 0 1-.314-2.25l-.014.015a.322.322 0 0 0 .013-.04c-.059-.45-.103-.808-.12-1.04-.929-.087-3.703-.494-7.38-1.065-2.163-.336-4.638-.73-7.237-1.15zm7.806 10.161l-.261.217 1.618.626-.134.109a2.081 2.081 0 0 1-.433.314 11.814 11.814 0 0 1-1.586-.727l-.007-.003v-.002c-.034-.03-.06-.056-.063-.078a3.634 3.634 0 0 1 .317-.248 8.767 8.767 0 0 1-.4-1.267s.366-.312.528-.267a10.932 10.932 0 0 1 .421 1.326zm4.222-2.439a11.49 11.49 0 0 1 .271-1.34s.531-.209.675-.095a12.529 12.529 0 0 1-.274 1.377l-.348.134 1.484.98-.184.078a3.303 3.303 0 0 1-.596.185 12.085 12.085 0 0 1-1.39-1.045l-.036-.025.009-.003a.196.196 0 0 1-.05-.09s.258-.105.44-.156zm-1.683-.559s.482-.248.635-.163a13.242 13.242 0 0 1-.014 1.381l-.317.16 1.554.892-.177.087a2.793 2.793 0 0 1-.558.221 12.564 12.564 0 0 1-1.448-.951l-.046-.027.01-.007a.192.192 0 0 1-.054-.088s.227-.114.4-.181a9.462 9.462 0 0 1 .015-1.324zm-1.085.665a10.896 10.896 0 0 1 .09 1.372l-.286.168 1.585.801-.158.097a3.012 3.012 0 0 1-.523.253 11.492 11.492 0 0 1-1.519-.887l-.027-.011.011-.002c-.034-.036-.058-.064-.058-.088 0 0 .203-.119.354-.192a11.712 11.712 0 0 1-.087-1.324s.463-.266.618-.187z" fill="#fff"/><path d="M47.713 94.927l.758.62c-.066-.436-.127-.856-.185-1.247a2.316 2.316 0 0 1-.13.508zm12.967-4.854c-.016.146-.03.336-.061.57-.083.664-.226 1.666-.412 2.927.138-.087.236-.149.258-.157a1.673 1.673 0 0 1 .58.227l.006.001h-.003a.161.161 0 0 1 .066.087s-.614.423-1.035.705c-.205 1.364-.454 2.96-.721 4.707l-.844 5.318h.001a20.4 20.4 0 0 0 1.589-.404l.006-.003a20.641 20.641 0 0 0 2.645-.972l.008-.002a21.789 21.789 0 0 0 1.6-.796c.296-.167.592-.34.885-.518l.04-.024c.262-.162.525-.333.783-.507a1.27 1.27 0 0 1 .111-.076c.235-.16.466-.326.697-.497.046-.038.098-.075.146-.11.264-.205.529-.413.784-.625a.486.486 0 0 1-.118-.149 6.1 6.1 0 0 1 .569-1.495s.159.138.27.258c.133-.038.652-.198 1.086-.32a19.8 19.8 0 0 0 .819-.921c.031-.037.058-.073.087-.103q.387-.468.743-.946l.008-.005c.353-.48.69-.974 1.007-1.482a21.414 21.414 0 0 0 1.341-2.521l.01-.02c.185-.42.36-.839.52-1.268a.421.421 0 0 1 .034-.089c.16-.441.312-.891.442-1.349.154-.518.285-1.047.4-1.579v-.003c-2.511.394-4.9.768-6.998 1.09-3.622.555-6.37.955-7.349 1.051zm1.068 6.622l-.155-.041a2.555 2.555 0 0 1-.628-.236 6.64 6.64 0 0 1-.04-1.633 4.59 4.59 0 0 1 .519.17c.046-.021 1.458-.845 1.533-.858a1.59 1.59 0 0 1 .556.265h.006a.17.17 0 0 1 .054.09s-1.464.85-1.544.862l-.483-.133zm2.214-.624l-.44-.18-.12 1.517-.13-.054a2.376 2.376 0 0 1-.561-.307 7.404 7.404 0 0 1 .266-1.616 4.157 4.157 0 0 1 .457.225c.046-.018 1.611-.686 1.693-.686 0 0 .52.214.52.409 0 0-1.61.692-1.685.692zm1.927.934l-.408-.198-.246 1.511-.125-.063s-.469-.222-.527-.338a6.967 6.967 0 0 1 .407-1.593 3.461 3.461 0 0 1 .418.242c.095-.03 1.66-.608 1.739-.601a1.527 1.527 0 0 1 .443.328l.005.003h-.002a.236.236 0 0 1 .04.103s-1.665.608-1.744.606zm3.46.498s-1.714.527-1.795.513l-.364-.216-.403 1.49-.115-.07s-.427-.248-.479-.363a7.767 7.767 0 0 1 .561-1.567 3.299 3.299 0 0 1 .38.263c.124-.038 1.704-.52 1.787-.507 0 0 .45.265.429.457z" fill="#fff"/><path d="M68.433 99.382c.131-.12.255-.242.385-.365l-.232-.189zm-9.112-31.32c.162 1.052.31 2.056.455 2.98a.961.961 0 0 1 .29-.039 12.334 12.334 0 0 1 1.242 1.156l.044.038-.014.003a.177.177 0 0 1 .042.097s-.345.092-.537.12a9.41 9.41 0 0 1-.264 1.326 3.884 3.884 0 0 1-.394.075c.13.897.235 1.654.312 2.25.061.473.106.847.13 1.088.95.089 3.69.485 7.313 1.042 2.132.326 4.573.71 7.137 1.113-.05-.272-.117-.543-.181-.812a16.49 16.49 0 0 0-.207-.776 21.028 21.028 0 0 0-2.379-5.413 21.007 21.007 0 0 0-1.764-2.46 4.303 4.303 0 0 1-.116-.142 21.495 21.495 0 0 0-.836-.938 1.763 1.763 0 0 1 .087.36s-.366.31-.53.269a10.3 10.3 0 0 1-.424-1.324l.09-.078c-.123-.12-.24-.237-.367-.352l-1.077-.413.13-.116s.08-.066.175-.139c-.25-.204-.498-.4-.755-.592-.03-.024-.063-.046-.095-.07a30.382 30.382 0 0 0-.7-.5.417.417 0 0 1-.04-.027 24.173 24.173 0 0 0-1.635-1.01 22.423 22.423 0 0 0-1.584-.794 21.307 21.307 0 0 0-2.814-1.04h-.003v-.002q-.782-.228-1.586-.395c.301 1.934.59 3.797.855 5.515zm3.84 3.567a13.014 13.014 0 0 1-.268 1.341s-.539.208-.68.095a13.858 13.858 0 0 1 .275-1.381l.346-.138-1.489-.979.194-.073a3.22 3.22 0 0 1 .595-.186 12.38 12.38 0 0 1 1.386 1.042l.038.025-.011.007c.032.038.055.072.052.095 0 0-.256.1-.438.152zm1.681.559s-.486.253-.635.155a12.238 12.238 0 0 1 .018-1.37l.313-.165-1.549-.89.172-.087a3.308 3.308 0 0 1 .56-.223 12.606 12.606 0 0 1 1.456.96l.04.02-.01.005c.031.041.055.071.055.093 0 0-.234.11-.4.173a9.861 9.861 0 0 1-.02 1.329zm1.698-.852s-.453.267-.613.183a10.056 10.056 0 0 1-.088-1.363l.29-.171-1.59-.802.164-.1a3.132 3.132 0 0 1 .518-.256 12.067 12.067 0 0 1 1.525.896l.014.01-.006.003c.033.03.063.06.063.08 0 0-.207.124-.364.199a10.144 10.144 0 0 1 .087 1.32zm1.64-2.685l.006.003v.002c.038.03.063.054.068.073a3.18 3.18 0 0 1-.322.253 9.636 9.636 0 0 1 .401 1.27s-.364.306-.527.267a10.259 10.259 0 0 1-.426-1.323l.258-.225-1.616-.62.133-.12a1.991 1.991 0 0 1 .44-.302 12.113 12.113 0 0 1 1.584.722z" fill="#fff"/><path d="M60.573 72.29l-.699-.574c.052.366.11.719.16 1.058a1.495 1.495 0 0 1 .097-.368z" fill="#fff"/><path d="M68.26 98.28a6.1 6.1 0 0 0-.569 1.495.486.486 0 0 0 .118.15c.049-.042.096-.085.147-.128l.192-.17a.545.545 0 0 0 .072-.06c.072-.06.143-.118.213-.185l.153-.554.232.189c.079-.072.153-.146.232-.22.094-.09.195-.19.287-.28l.279-.299c-.434.122-.953.282-1.085.32a4.3 4.3 0 0 0-.271-.258zm-1.506-.99a7.767 7.767 0 0 0-.56 1.567c.051.115.478.362.478.362l.115.072.403-1.49.364.215c.08.014 1.796-.513 1.796-.513.02-.192-.43-.456-.43-.456-.082-.013-1.662.468-1.786.506a3.299 3.299 0 0 0-.38-.263zm.839-.994h.002l-.005-.003a1.527 1.527 0 0 0-.443-.328c-.08-.007-1.644.572-1.74.601a3.461 3.461 0 0 0-.417-.242 6.967 6.967 0 0 0-.407 1.593c.058.116.527.338.527.338l.125.063.246-1.51.408.197c.08.002 1.744-.606 1.744-.606a.236.236 0 0 0-.04-.103zm-2.466-1.326c-.082 0-1.647.668-1.693.686a4.157 4.157 0 0 0-.457-.225 7.404 7.404 0 0 0-.266 1.616 2.376 2.376 0 0 0 .56.307l.13.054.12-1.516.44.179c.075 0 1.686-.692 1.686-.692 0-.195-.52-.409-.52-.409zm-1.534-.518a.17.17 0 0 0-.054-.09h-.006a1.59 1.59 0 0 0-.556-.265c-.075.013-1.487.837-1.533.859a4.59 4.59 0 0 0-.52-.171 6.64 6.64 0 0 0 .041 1.633 2.555 2.555 0 0 0 .628.236l.155.04-.182-1.513.483.133c.08-.013 1.544-.862 1.544-.862zm-2.545-.811h.003l-.007-.001a1.673 1.673 0 0 0-.58-.227c-.021.008-.12.07-.257.157-.037.274-.083.562-.128.863.42-.282 1.035-.705 1.035-.705a.161.161 0 0 0-.066-.087zm-13.606 1.155a6.7 6.7 0 0 0-.537.119.168.168 0 0 0 .04.098l-.013.008.041.027a11.463 11.463 0 0 0 1.245 1.16 1.238 1.238 0 0 0 .345-.047 35.07 35.07 0 0 1-.092-.614l-.758-.62.443-.119a2.316 2.316 0 0 0 .13-.508c-.053-.313-.094-.619-.138-.906a2.169 2.169 0 0 0-.435.08 8.56 8.56 0 0 0-.271 1.322zm-2.716 1.039l.036.025a12.085 12.085 0 0 0 1.39 1.045 3.303 3.303 0 0 0 .596-.185l.184-.077-1.484-.98.348-.135a12.529 12.529 0 0 0 .274-1.377c-.144-.114-.675.095-.675.095a11.49 11.49 0 0 0-.27 1.34c-.183.05-.44.155-.44.155a.196.196 0 0 0 .05.09zm-1.7.697a.192.192 0 0 0 .054.088l-.01.007.046.027a12.564 12.564 0 0 0 1.448.951 2.793 2.793 0 0 0 .558-.221l.177-.087-1.554-.892.317-.16a13.242 13.242 0 0 0 .014-1.381c-.153-.085-.635.163-.635.163a9.462 9.462 0 0 0-.016 1.324c-.172.067-.399.18-.399.18zm-1.287-.652a11.712 11.712 0 0 0 .086 1.323 6.24 6.24 0 0 0-.354.192c0 .023.024.052.058.088l-.01.002.026.011a11.492 11.492 0 0 0 1.52.887 3.012 3.012 0 0 0 .522-.253l.158-.097-1.585-.801.286-.168a10.896 10.896 0 0 0-.09-1.372c-.155-.079-.617.187-.617.187zm-1.785 1.086a8.767 8.767 0 0 0 .399 1.267 3.634 3.634 0 0 0-.317.248c.003.022.029.048.063.078v.002l.007.003a11.814 11.814 0 0 0 1.587.727 2.081 2.081 0 0 0 .432-.314l.135-.11-1.62-.625.262-.217a10.932 10.932 0 0 0-.42-1.326c-.162-.045-.528.267-.528.267zm-.824.849c-.16-.042-.524.269-.524.269a.883.883 0 0 0 .066.293c.105.107.206.222.314.33.128.121.261.243.391.368.041.038.078.078.122.116l.054-.054a9.772 9.772 0 0 0-.423-1.322zm1.788 2.166l-.944-.36c.078.065.16.134.238.203.079.067.152.133.233.203a.17.17 0 0 1 .047.041c.056.043.114.086.165.13.071-.055.123-.103.123-.103zm-.895-31.048a6.157 6.157 0 0 0 .567-1.485 1.37 1.37 0 0 0-.294-.333c-.107.09-.214.187-.319.279l-.282.99-.254-.205a2.347 2.347 0 0 0-.422.097c-.085.09-.176.177-.264.268-.095.102-.19.202-.282.302-.089.09-.176.177-.26.268.406-.094 1.364-.385 1.544-.434.11.118.266.253.266.253zm1.502.988a7.123 7.123 0 0 0 .562-1.561c-.045-.12-.475-.365-.475-.365l-.114-.066-.035.128-.366 1.356-.366-.214c-.092-.01-1.791.51-1.791.51-.024.193.428.46.428.46.084.009 1.672-.473 1.775-.507a3.5 3.5 0 0 0 .382.26zm1.769.963a6.788 6.788 0 0 0 .409-1.592 2.122 2.122 0 0 0-.522-.334l-.13-.06-.022.138-.23 1.367-.398-.198c-.088-.005-1.747.611-1.747.611-.015.195.48.433.48.433.083.006 1.664-.575 1.738-.6a3.424 3.424 0 0 0 .422.235zm2.008.898a6.925 6.925 0 0 0 .27-1.615 2.306 2.306 0 0 0-.56-.304l-.131-.054-.007.14-.109 1.376-.436-.181c-.082 0-1.697.686-1.697.686 0 .198.527.415.527.415.081-.005 1.66-.675 1.692-.688a3.418 3.418 0 0 0 .45.225zm2.016-.985a2.454 2.454 0 0 0-.626-.233l-.153-.044.019.152.158 1.362-.481-.131c-.08.006-1.546.858-1.546.858a.205.205 0 0 0 .062.092l-.007.003h.007a1.727 1.727 0 0 0 .55.258c.078-.008 1.51-.836 1.537-.855a4.542 4.542 0 0 0 .52.17 6.626 6.626 0 0 0-.04-1.632zm-.086 2.772l-.004.003.01.002a1.834 1.834 0 0 0 .588.223 3.273 3.273 0 0 0 .366-.228c.038-.278.083-.564.125-.863-.418.275-1.145.779-1.145.779a.164.164 0 0 0 .06.084zm13.611-1.152a6.67 6.67 0 0 0 .537-.12.177.177 0 0 0-.042-.097l.014-.003-.044-.038a12.334 12.334 0 0 0-1.242-1.156.961.961 0 0 0-.29.04c.032.23.065.452.098.673l.698.573-.441.117a1.495 1.495 0 0 0-.097.368c.052.362.104.71.15 1.043a3.884 3.884 0 0 0 .395-.074 9.41 9.41 0 0 0 .264-1.326zm2.715-1.042l-.038-.025a12.38 12.38 0 0 0-1.386-1.042 3.22 3.22 0 0 0-.595.187l-.194.073 1.49.978-.347.138a13.858 13.858 0 0 0-.275 1.381c.141.113.68-.095.68-.095a13.014 13.014 0 0 0 .268-1.341c.182-.053.438-.152.438-.152.003-.023-.02-.057-.052-.095zm1.649-.782l.01-.005-.04-.02a12.606 12.606 0 0 0-1.456-.96 3.308 3.308 0 0 0-.56.223l-.172.087 1.55.89-.314.165a12.238 12.238 0 0 0-.018 1.37c.15.098.635-.155.635-.155a9.861 9.861 0 0 0 .02-1.33c.166-.063.4-.172.4-.172 0-.022-.024-.052-.055-.093zm1.61-.776c0-.02-.03-.051-.063-.08l.006-.004-.014-.01a12.067 12.067 0 0 0-1.525-.896 3.132 3.132 0 0 0-.518.257l-.165.1 1.59.8-.29.172a10.056 10.056 0 0 0 .09 1.363c.16.084.612-.183.612-.183a10.144 10.144 0 0 0-.087-1.321c.157-.075.364-.198.364-.198zm-.662-1.586l-.133.12 1.616.62-.258.225a10.259 10.259 0 0 0 .426 1.323c.163.04.527-.267.527-.267a9.636 9.636 0 0 0-.4-1.27 3.18 3.18 0 0 0 .32-.253c-.004-.02-.03-.043-.067-.073v-.002l-.007-.003a12.113 12.113 0 0 0-1.583-.722 1.991 1.991 0 0 0-.44.302zm2.997 1.168c.163.04.529-.268.529-.268a1.763 1.763 0 0 0-.087-.361c-.113-.116-.22-.235-.335-.347-.094-.101-.202-.2-.311-.302a2.525 2.525 0 0 0-.13-.124l-.09.078a10.3 10.3 0 0 0 .424 1.324zm-1.779-2.167l1.077.413c-.093-.084-.19-.166-.288-.248-.057-.048-.11-.098-.165-.146l-.166-.142c-.054-.045-.101-.09-.154-.132-.093.073-.174.14-.174.14z" fill="#ed174f"/><path d="M47.834 91.144a.145.145 0 0 0-.001-.026.322.322 0 0 1-.013.041zM34.563 69.318l.905 2.024c.328-.496.669-.97 1.033-1.441-2.987-6.635-5.983-13.291-5.879-13.33 0 0 6.208 3.873 12.317 7.701.5-.293 1.01-.572 1.538-.82-5.8-3.6-15.996-9.907-15.996-9.907a118.654 118.654 0 0 0 6.082 15.773zm43.005 41.22s-6.142-3.834-12.417-7.761c-.51.29-1.034.56-1.57.817 5.846 3.67 16.81 10.559 16.81 10.559s-6.608-16.044-7.166-17.286c0 0-.222-.484-.546-1.218-.323.5-.665.978-1.028 1.445 3.066 6.813 6.036 13.402 5.917 13.444z" fill="#002b5c"/><path d="M39.377 66.84a22.142 22.142 0 0 1 3.562-2.568 8577.358 8577.358 0 0 0-12.317-7.702zm29.323-.051a22.161 22.161 0 0 1 2.992 3.185c2.993-6.52 6.207-13.174 6.193-13.429zM39.675 100.43a22.062 22.062 0 0 1-3.046-3.154c-2.998 6.665-5.961 13.239-5.85 13.28zm29.071-.243a22.794 22.794 0 0 1-3.595 2.59c6.275 3.927 12.417 7.761 12.417 7.761z" fill="#c4ced4"/><path d="M60.482 77.143c-.182.167-.757.743-1.48 1.481-1.81 1.83-4.589 4.688-4.836 4.997-.166.209-.761.849-1.544 1.655.783-.806 1.378-1.446 1.544-1.655.231-.285 3.02-3.16 4.835-4.997a71.56 71.56 0 0 1 1.481-1.48z" fill="#fff"/><path d="M54.155 83.633a.789.789 0 0 1 .078.065 1.136 1.136 0 0 1-.056-.065z" fill="#fff"/><path d="M60.482 77.143c.042.002.09.008.144.013a38.415 38.415 0 0 0-.13-1.088c-.076-.596-.182-1.353-.311-2.25-.046-.333-.099-.682-.15-1.044-.051-.34-.109-.692-.16-1.058-.034-.22-.067-.442-.1-.673-.145-.925-.292-1.93-.453-2.981l-.856-5.515c-.044-.286-.093-.571-.134-.863-1.801-11.408-4.017-24.805-4.166-24.749v46.686c.247-.309 3.027-3.168 4.835-4.997a63.793 63.793 0 0 1 1.481-1.48z" fill="#c4ced4"/><path d="M33.053 79.357c.105-.53.228-1.051.374-1.57v-.007c.135-.486.29-.971.456-1.446a.08.08 0 0 0 .018-.046c.169-.464.351-.92.546-1.372a.03.03 0 0 0 .01-.023c.188-.43.397-.852.615-1.27a2.8 2.8 0 0 1 .106-.202c.214-.403.441-.807.69-1.197q.47-.762 1.013-1.48c.203-.275.414-.546.627-.807a.178.178 0 0 1 .024-.03c.22-.267.448-.535.681-.793.084-.09.171-.178.26-.268.092-.1.187-.2.282-.302.088-.091.179-.178.264-.268.288-.28.583-.551.884-.817a.924.924 0 0 0 .074-.065c.105-.092.212-.189.319-.28.256-.215.52-.419.78-.621.05-.04.102-.077.154-.116.227-.165.453-.334.683-.491l.114-.078a22.5 22.5 0 0 1 .773-.503c.017-.011.04-.023.055-.034.282-.174.57-.343.861-.503l.009-.005.006-.003c.51-.285 1.039-.551 1.576-.789a20.866 20.866 0 0 1 3.003-1.094 19.64 19.64 0 0 1 1.583-.374c-.305 1.956-.603 3.844-.87 5.583-.262 1.71-.506 3.278-.706 4.62-.042.299-.087.585-.125.863a145.822 145.822 0 0 0-.429 3.105 5.261 5.261 0 0 0-.05.488.776.776 0 0 1 .104-.01c1.618 1.491 5.854 5.846 6.35 6.469V36.935c-.112-.02-2.326 13.326-4.14 24.711-.528.097-1.055.21-1.577.347a21.813 21.813 0 0 0-3.973 1.459 19.53 19.53 0 0 0-1.538.82 22.142 22.142 0 0 0-3.562 2.567L30.622 56.57c-.104.04 2.892 6.696 5.879 13.33-.364.473-.705.946-1.032 1.442a22.172 22.172 0 0 0-2.923 6.582c-.133.518-.24 1.044-.339 1.574.28-.043.566-.092.843-.133z" fill="#006c67"/><path d="M54.155 83.633l.011-.012c-.166.209-.761.849-1.544 1.655l-.339.36c-.318.324-.647.67-.993 1.018-.627.638-1.273 1.29-1.866 1.883a72.428 72.428 0 0 1-1.607 1.553c-.03-.004-.071-.007-.105-.01.018.23.062.589.12 1.038a.145.145 0 0 1 .002.026c.078.594.186 1.35.314 2.25.044.287.085.593.138.906.058.391.119.811.185 1.247.029.2.058.405.092.614l.454 2.954c.257 1.679.544 3.497.845 5.396.044.282.088.565.134.847 1.812 11.436 4.053 24.965 4.17 24.944z" fill="#c4ced4"/><path d="M65.151 102.777a22.794 22.794 0 0 0 3.595-2.59l8.822 10.351c.119-.042-2.85-6.63-5.917-13.444a20.3 20.3 0 0 0 1.028-1.445 22.035 22.035 0 0 0 2.836-6.279c.14-.516.266-1.044.37-1.576-.289.05-.577.092-.859.138v.003a21.13 21.13 0 0 1-.4 1.579 19.53 19.53 0 0 1-.441 1.35.421.421 0 0 0-.035.088c-.16.43-.334.847-.52 1.267 0 .003-.006.011-.009.02a21.414 21.414 0 0 1-1.341 2.522 23.77 23.77 0 0 1-1.007 1.482l-.004.005c-.242.318-.49.634-.747.946-.029.03-.056.066-.087.103a19.26 19.26 0 0 1-.82.921c-.093.1-.184.2-.278.298-.092.09-.193.19-.287.28-.079.075-.153.15-.232.22-.13.124-.254.246-.385.366-.07.067-.141.126-.213.186a.545.545 0 0 1-.072.058c-.064.06-.129.116-.192.171-.05.043-.098.086-.147.127-.255.212-.52.42-.784.624-.048.037-.1.073-.146.11a22.02 22.02 0 0 1-.697.498 1.27 1.27 0 0 0-.11.076c-.259.174-.522.345-.785.507a27.359 27.359 0 0 1-.925.541 21.79 21.79 0 0 1-1.6.798h-.007a20.641 20.641 0 0 1-2.645.973l-.003.004h-.003c-.518.153-1.049.29-1.589.403h-.001l.844-5.318c.267-1.747.516-3.343.72-4.707.046-.3.092-.589.129-.863.186-1.26.33-2.263.411-2.927.032-.234.046-.424.062-.57l-.168.017c-1.568-1.447-5.578-5.573-6.28-6.392a.789.789 0 0 0-.077-.064l.011 46.668c.108.021 2.374-13.546 4.21-24.987a24.287 24.287 0 0 0 1.588-.367 22.7 22.7 0 0 0 3.618-1.354c.535-.257 1.06-.526 1.57-.817z" fill="#006c67"/><path d="M54.166 83.62c-.495-.622-4.73-4.977-6.349-6.469a1.27 1.27 0 0 0-.104.011c-.933.084-3.753.496-7.484 1.073-2.149.327-4.605.715-7.179 1.13-.277.041-.562.09-.843.133C21.03 81.291 8.055 83.472 8.11 83.622z" fill="#c4ced4"/><path d="M90.035 87.051c1.559-.258 3.022-.513 4.387-.755 9.112-1.616 13.903-2.786 13.903-2.786s-8.263-1.462-17.5-3.057c-2.047-.356-4.149-.712-6.214-1.067-.07-.011-.138-.02-.21-.033a49.635 49.635 0 0 0-11.08-9.256c.039-.087.075-.174.112-.249.386-.855.65-1.42.65-1.42.4-.867.764-1.666 1.103-2.417 3.297-7.252 4.062-9.482 4.062-9.485l1.293-2.835-13.646 7.73-3.21 2.043a21.29 21.29 0 0 1 1.54.822c6.125-3.921 12.522-7.938 12.66-7.741.014.255-3.2 6.908-6.193 13.429.361.467.702.947 1.023 1.444a22.477 22.477 0 0 1 2.305 4.655q1.333 1.023 2.62 2.138c-.704-.116-1.4-.233-2.063-.344.135.518.25 1.048.349 1.584 10.163 1.612 21.955 3.565 24.445 4.059a2.795 2.795 0 0 1 .481.112c.02.11-13.525 2.357-24.966 4.172-.105.532-.231 1.06-.37 1.576 3.419-.542 7.605-1.21 10.406-1.657 4.01 6.354 6.574 14.495 6.574 25.485 0 29.608-21.312 49.351-41.453 49.351-13.323 0-20.429-8.019-24.128-8.019 0 0-8.4 4.404-12.142 5.222v-40.736c4.435 2.772 10.364 32.02 37.013 32.02 9.18 0 17.771-8.016 17.771-23.645 0-9.225-4.048-15.26-9.955-20.208.127-.786.244-1.543.362-2.235-.52.14-1.05.26-1.588.367-1.836 11.441-4.102 25.008-4.21 24.987-.117.021-2.358-13.508-4.17-24.944a21.142 21.142 0 0 1-1.584-.35c.151.923.31 1.94.48 2.993l1.826 11.39c1.926 11.695 3.44 18.917 3.44 18.917s1.524-7.217 3.465-18.899l.35-2.174c.238-1.456.564-3.491.913-5.635.041-.244.08-.493.12-.738 4.378 4.488 7.34 9.757 7.34 16.383 0 11.923-6.017 20.3-15.108 20.3-15.448 0-23.597-12.192-30.787-26.552-1.813-3.633-5.11-7.156-8.986-7.61v51.068l16.19-5.86c3.634 1.133 9.497 7.04 24.492 7.04 23.398 0 43.622-22.032 43.622-53.159 0-10.346-2.223-18.658-5.92-25.387z" fill="#002b5c"/><path d="M26.487 88.314c.23.04.462.075.697.114a75.386 75.386 0 0 0 7.171 5.316 22.12 22.12 0 0 1-1.701-4.289l-.228-.18c.062.01.122.025.182.028a22.9 22.9 0 0 1-.366-1.577c-11.165-1.8-24.15-3.994-24.133-4.104-.054-.15 12.92-2.33 24.098-4.124.099-.53.206-1.056.34-1.574-3.268.53-7.162 1.156-9.815 1.584-5.15-7.012-8.584-16.23-8.584-29.273 0-25.288 19.28-42.353 36.304-42.353a26.437 26.437 0 0 1 14.519 4.525c3.546 2.463 5.913 4.728 7.695 4.728 0 0 6.918-3.06 10.063-4.316v36.39c-8.32-6.017-10.666-29.815-29.906-29.815-8 0-15.251 7.197-15.251 19.126 0 9.895 4.664 16.039 11.268 21.04-.135.851-.264 1.671-.39 2.433.522-.136 1.049-.25 1.576-.347 1.815-11.385 4.03-24.732 4.14-24.711.15-.056 2.365 13.341 4.166 24.75.534.107 1.06.229 1.575.37-.243-1.552-.532-3.373-.82-5.182-.729-4.563-1.443-9.053-1.443-9.053-1.937-11.751-3.565-17.868-3.565-17.868s-1.435 6.197-3.357 17.873c0 0-.126.795-.331 2.052-.206 1.313-.498 3.124-.81 5.076-.026.132-.044.262-.065.398-5.31-4.948-8.617-10.59-8.617-16.932 0-9.086 4.316-15.604 13.407-15.604 11.822 0 16.246 13.56 23.287 25.6a14.475 14.475 0 0 0 8.447 6.022V8.002s-10.768 4.43-13.717 5.43c-4.994-3.975-14.268-9.055-21.878-9.055-18.518 0-39.417 19.504-39.417 45.625 0 13.557 3.243 22.932 8.335 30.049-.206.033-.399.07-.598.102-1.592.267-3.1.522-4.51.764C5.184 82.481 0 83.51 0 83.51s7.138 1.592 19.187 3.617q.245.043.485.081l6.815 1.106zm16.629 14.531c-6.168 3.921-12.282 7.815-12.337 7.71-.111-.04 2.852-6.614 5.85-13.279a22.257 22.257 0 0 1-1.039-1.416c-.451 1-.76 1.701-.76 1.701-.185.4-.358.783-.535 1.174-4.38 9.695-7.178 15.312-7.178 15.312s4.056-1.805 15.18-8.865c0 0 .58-.372 1.417-.901.299-.192.628-.4.975-.622-.532-.246-1.06-.52-1.573-.814z" fill="#002b5c"/><path d="M49.996 105.358c-.046-.282-.09-.565-.134-.847a22.599 22.599 0 0 1-1.587-.385 20.883 20.883 0 0 1-2.75-.984h-.011l-.003-.006a25.466 25.466 0 0 1-1.603-.78l-.004-.007a.018.018 0 0 1-.013-.006c-.273-.146-.55-.31-.82-.466a.065.065 0 0 0-.028-.017 18.09 18.09 0 0 1-.758-.484c-.026-.012-.05-.031-.075-.045a21.245 21.245 0 0 1-.68-.476c-.042-.025-.077-.057-.121-.08-.252-.19-.505-.38-.752-.577-.05-.044-.11-.087-.165-.13a.17.17 0 0 0-.047-.041c-.081-.07-.154-.136-.233-.203a7.101 7.101 0 0 0-.238-.202c-.164-.141-.32-.288-.475-.431-.044-.038-.08-.078-.122-.116-.13-.125-.263-.247-.391-.369-.108-.107-.21-.222-.314-.33a18.017 18.017 0 0 1-.83-.913c-.028-.03-.052-.062-.08-.097-.257-.302-.51-.616-.751-.934q-.542-.71-1.022-1.462l-.003-.006a21.271 21.271 0 0 1-2.493-5.513c-.153-.52-.286-1.05-.397-1.586v-.001c2.599.42 5.074.814 7.236 1.15 3.678.571 6.452.978 7.38 1.065l.105.011c.405-.373.976-.93 1.607-1.553.593-.593 1.239-1.245 1.866-1.883.346-.348.675-.694.993-1.019l.34-.359c.782-.806 1.377-1.446 1.543-1.655l-46.057.001c-.018.11 12.968 2.303 24.133 4.104.103.535.228 1.063.366 1.578.014.052.032.102.046.151a22.12 22.12 0 0 0 1.701 4.29 75.386 75.386 0 0 1-7.171-5.317c-.235-.039-.468-.075-.697-.114-3.71-.6-6.815-1.106-6.815-1.106q-.24-.038-.485-.08a64.112 64.112 0 0 0 15.108 11.607c.177-.391.35-.775.535-1.174 0 0 .31-.701.76-1.7.327.484.677.96 1.04 1.415a22.062 22.062 0 0 0 3.045 3.155l-8.896 10.125c.055.104 6.169-3.79 12.337-7.711.514.294 1.041.568 1.573.814-.347.221-.676.43-.975.622q2.793 1.841 5.179 3.72c-.17-1.053-.33-2.07-.48-2.993.52.138 1.048.252 1.583.35z" fill="#006c67"/><path d="M54.177 83.633c.012.016.037.043.056.065.701.82 4.712 4.945 6.28 6.392l.167-.017c.98-.097 3.727-.496 7.35-1.05 2.097-.323 4.486-.697 6.996-1.091.282-.046.57-.089.86-.138 11.441-1.815 24.985-4.062 24.966-4.172z" fill="#c4ced4"/><path d="M58.332 61.684c.04.292.09.577.134.863q.803.167 1.586.395v.001h.003a21.307 21.307 0 0 1 2.814 1.04c.54.245 1.066.51 1.584.796.56.317 1.104.65 1.634 1.009a.417.417 0 0 0 .041.027c.233.161.468.329.7.5.032.024.065.046.095.07.257.191.506.388.754.592.053.041.1.087.154.132l.166.142c.054.048.108.098.165.146.098.082.195.164.288.248.127.115.244.232.368.352.046.041.09.082.13.124.109.102.217.2.311.302.115.112.222.231.335.347a20.712 20.712 0 0 1 .952 1.08 20.996 20.996 0 0 1 1.764 2.46 21.028 21.028 0 0 1 2.379 5.413c.074.257.145.516.207.776.064.27.13.54.18.812-2.563-.403-5.004-.787-7.136-1.113-3.623-.557-6.363-.953-7.314-1.042-.053-.005-.102-.011-.144-.013a74.21 74.21 0 0 0-1.48 1.481c-1.815 1.837-4.605 4.712-4.836 4.997l-.01.012h.021l46.675-.01a2.795 2.795 0 0 0-.481-.113c-2.49-.494-14.282-2.447-24.445-4.06a22.344 22.344 0 0 0-.349-1.583 21.73 21.73 0 0 0-.557-1.794 22.477 22.477 0 0 0-2.305-4.655 20.927 20.927 0 0 0-1.023-1.444 22.161 22.161 0 0 0-2.991-3.185l9.184-10.244c-.138-.197-6.535 3.82-12.66 7.741a21.291 21.291 0 0 0-1.54-.822 21.822 21.822 0 0 0-3.778-1.41 23.863 23.863 0 0 0-1.575-.37z" fill="#006c67"/></g></g></svg>