<svg xmlns="http://www.w3.org/2000/svg" viewBox="0 0 170.822 160.144"><g data-name="Layer 2"><path d="M15.014 20.788c0-11.292-6.855-14.906-13.002-14.833L0 5.882V.032h40.054l.01 5.971c-5.745.467-11.607 4.342-11.607 14.785l-.01 35.14 2.786-1.726c5.775-9.024 20.923-32.932 24.073-39.828 3.87-8.47-2.049-8.47-7.737-8.47V0h35.507v5.904h-2.501c-3.866 0-8.644 0-15.02 8.725-8.165 11.174-24.362 38.24-24.362 38.24 24.81 2.052 34.145 39.78 40.524 44.911-3.646-26.947 14.343-60.566 40.75-59.283a45.626 45.626 0 0 1 15.02 2.309c8.425 2.567 9.19-2.054 10.326-7.184h6.298V78.02h-5.45c-.455-7.7-3.9-33.12-26.123-33.877-22.61-.77-26.859 28.217-27.166 47.992-1.135 73.144 44.845 70.831 53.27 47.219 1.229-3.433.694-4.39-.684-5.132-10.019-5.388 1.597-19.759 8.032-7.183 2.953 5.766-2.34 33.105-29.886 33.105-42.8 0-55.316-66.214-71.256-87.771-12.405-16.786-22.532-9.239-26.336-5.132l-.167 11.542.099 20.539c0 11.29 6.856 14.906 13.006 14.832l2.024.074v5.85H0v-5.85l2.012-.074c6.147.074 13.002-3.541 13.002-14.832V20.788m145.424 132.153h-2.287v6.24h-1.554v-6.24h-2.288v-1.352h6.129zm10.384 6.24h-1.548v-6.042h-.037l-2.198 6.042h-1.494l-2.133-6.042h-.037v6.042h-1.548v-7.592h2.69l1.761 4.958h.037l1.839-4.958h2.668z" data-name="Layer 1" fill="#004b8d"/></g></svg>