<svg enable-background="new 0 0 156.121 150.357" viewBox="0 0 156.121 150.357" xmlns="http://www.w3.org/2000/svg" xmlns:xlink="http://www.w3.org/1999/xlink"><linearGradient id="a" gradientUnits="userSpaceOnUse" x1="66.1995" x2="99.8952" y1="136.6548" y2="144.1091"><stop offset="0" stop-color="#fff" stop-opacity="0"/><stop offset=".0462" stop-color="#e4e2e3" stop-opacity=".0905"/><stop offset=".097" stop-color="#cdcbcc" stop-opacity=".19"/><stop offset=".1552" stop-color="#bcb8bb" stop-opacity=".3042"/><stop offset=".2243" stop-color="#b0acae" stop-opacity=".4397"/><stop offset=".3151" stop-color="#a9a4a7" stop-opacity=".6176"/><stop offset=".5102" stop-color="#a7a2a5"/><stop offset=".6681" stop-color="#a9a4a7" stop-opacity=".6777"/><stop offset=".7597" stop-color="#b1adaf" stop-opacity=".4906"/><stop offset=".8344" stop-color="#bebbbd" stop-opacity=".3381"/><stop offset=".8999" stop-color="#d1cfd0" stop-opacity=".2043"/><stop offset=".959" stop-color="#e9e8e9" stop-opacity=".0838"/><stop offset="1" stop-color="#fff" stop-opacity="0"/></linearGradient><path d="m155.925 93.919-.004-.023c-.307-1.632-1.053-3.132-2.164-4.354-1.885-4.053-6.508-6.205-10.855-5.012-4.79 1.327-10.071 1.971-16.145 1.971-.664 0-1.356-.007-2.056-.024-2.553-.056-5.201-.213-8.052-.48 2.553-10.057 2.343-20.842-.622-31.302-3.197-11.292-8.238-18.342-9.403-19.571-1.321-1.393-2.839-2.376-4.523-2.937.535-14.636-8.645-27.708-8.741-27.836-3.189-4.299-8.505-5.549-13.649-3.134-2.159 1.044-55.33 26.727-55.347 26.735l-.18.09c-4.708 2.42-7.754 5.764-9.054 9.937-.858 2.742-.818 5.845.076 8.535l-6.452 3.328c-.133.06-.262.126-.505.26-4.645 2.653-7.535 6.795-8.137 11.663-.443 3.592.55 6.387.861 7.15.941 2.346 2.838 4.189 5.203 5.059 2.357.868 4.995.702 7.237-.461l12.139-6.334c2.598 12.534.839 25.207-1.157 33.791-2.628 11.293-6.581 19.931-7.723 22.295l-.218.439c-.954 1.92-1.464 3.866-1.514 5.79-.013.694.052 1.384.195 2.054-.158.334-.235.52-.241.533-1.651 3.898-.313 8.47 3.183 10.873 1.494 1.023 3.242 1.564 5.056 1.564 2.335 0 4.546-.895 6.228-2.522.964-.934 1.976-1.855 3.028-2.754-.059 1.576.206 3.146.789 4.583l.498 1.162c.968 2.22 2.832 3.977 5.122 4.824.991.362 2.028.545 3.079.545 1.361 0 2.72-.315 3.922-.911l18.85-9.203.357-.156c2.421-1.141 4.877-2.299 7.411-3.5 10.401-4.945 19.022-10.787 25.636-17.373.625.14 1.025.237 1.119.26 1.724.411 3.492.314 5.143-.281 10.146 2.075 18.381 2.388 22.416 2.388 1.74 0 2.85-.054 2.986-.069 2.468-.151 4.746-1.307 6.32-3.19.817-.235 1.618-.5 2.39-.794 2.107.338 4.317-.094 6.134-1.21 13.707-8.446 11.466-21.832 11.364-22.398zm-145.939-40.899-.001-.001z" fill="#fff"/><path d="m154.589 94.17-.003-.013c-.274-1.459-.954-2.779-1.975-3.844-1.52-3.51-5.496-5.519-9.347-4.465-4.907 1.358-10.307 2.02-16.507 2.02-.675 0-1.378-.007-2.085-.024-3.044-.066-6.252-.278-9.749-.645 2.923-10.27 2.861-21.321-.201-32.124-3.138-11.084-8.14-18.014-8.995-18.919l-.087-.087c-1.414-1.491-3.1-2.457-4.952-2.85 1.035-14.65-8.322-27.921-8.417-28.05-2.771-3.736-7.355-4.887-11.874-2.765l-.093.044c-2.159 1.044-55.331 26.727-55.331 26.727l-.167.083c-4.371 2.246-7.191 5.32-8.379 9.136-1.056 3.376-.482 6.637.487 8.776l-7.598 3.916c-.108.049-.212.103-.393.203-4.264 2.436-6.915 6.219-7.463 10.651-.403 3.267.494 5.794.774 6.48.798 1.989 2.407 3.553 4.413 4.29 1.991.736 4.255.587 6.139-.391l13.705-7.152c3.181 13.259 1.384 26.836-.774 36.12-2.651 11.394-6.577 19.998-7.83 22.592l-.218.439c-.865 1.742-1.327 3.491-1.372 5.213-.015.746.077 1.478.273 2.186-.28.553-.412.869-.426.904-1.401 3.307-.266 7.186 2.7 9.224 1.267.868 2.75 1.327 4.289 1.327 1.981 0 3.857-.759 5.284-2.139 1.983-1.923 4.032-3.662 6.082-5.231-.191.48-.347.967-.47 1.466-.496 2.036-.356 4.176.397 6.033l.496 1.156c.82 1.882 2.4 3.373 4.343 4.091.84.306 1.72.463 2.614.463 1.154 0 2.308-.269 3.327-.773l18.904-9.228.32-.139c2.421-1.141 4.875-2.299 7.407-3.499 10.544-5.012 19.212-10.942 25.781-17.632 1.055.228 1.747.395 1.873.425 1.606.384 3.235.241 4.71-.371 10.183 2.119 18.458 2.441 22.532 2.441 1.771 0 2.796-.056 2.903-.066 2.244-.138 4.285-1.25 5.614-3.024 1.062-.288 2.082-.627 3.047-1.01 1.874.395 3.902.054 5.555-.961 12.933-7.973 10.833-20.475 10.737-21.004z" fill="#0a332b"/><path clip-rule="evenodd" d="m23.133 135.579s3.792-8.969 16.464-16.72l.51-1.918 1.694-.04s5.63-6.15 9.026-7.948l-.746 2.593s14.507-9.607 27.569-10.971l-.154-1.239 5.25.829 3.728.098-.39 1.155 8.476-1.159 7.685 2.768 2.369-.625.991 1.118s13.949-.811 15.588-1.332l.162 1.332 7.265-1.507 9.491-4.146s4.554.655 6.58-.155c2.029-.817 2.432-2.16 2.432-2.16s1.453 7.79-7.255 13.153c0 0 .712-2.021.77-3.262 0 0-3.989 6.49-19.481 5.145 0 0 5.778 1.962 8.017 2 0 0-12.993.795-29.834-3.761l1.944 1.96s-9.217-2.259-15.513-2.394l-1.763-1.962-2.682 2.168s-16.161.102-31.812 7.83l5.943-.143c-.002-.004-17.677 5.099-32.324 19.293z" fill="#e9ad00" fill-rule="evenodd"/><path d="m30.071 54.733c.218-.081.704-.04 1.203.397l-.005.005c13.07 32.963-5.996 70.941-6.803 72.559-.398.803-.566 1.493-.579 2.013 2.496-3.364 6.745-7.949 13.543-12.235l.701-2.649 2.387-.058c1.654-1.75 5.916-6.088 8.946-7.694l5.25-2.776-.635 2.207c5.104-2.774 13.054-6.489 20.928-7.779l-.241-1.98 8.03 1.267 6.963.187-.181.534 5.083-.697 7.515 2.713 3.187-.848 1.224 1.389c6.124-.373 12.59-.88 13.652-1.146l2.998-.942.199 1.634 4.201-.876 9.921-4.326.743.105c.016.004 1.832.259 3.518.216 1.15-.028 1.617-.175 1.734-.224 2.467-1.135 2.414-2.752 1.737-2.564-7.002 1.933-13.978 2.415-20.782 2.269-29.877-.656-59.435-13.921-71.209-3.22 0 0 8.415-29.809-3.059-50.921-.021-.04-1.198-1.978-2.879-1.232-.467.209-34.675 17.822-34.675 17.822-5.298 3.022-3.412 7.705-3.412 7.705z" fill="#f7f8f8"/><g clip-rule="evenodd" fill-rule="evenodd"><path d="m25.509 125.506c-.566 1.235-.943 1.992-1.044 2.188-.398.803-.566 1.493-.579 2.013.903-1.221 2.039-2.598 3.442-4.065z" fill="url(#a)"/><path d="m100.199 40.823c-.367-.39-.924-1.049-2.294-.594l-10.789 5.365c3.274-2.666 5.351-9.234 5.643-10.725 2.422-12.482-6.294-25.323-6.586-25.715-.494-.668-1.073-1.11-2.549-.418l-55.35 26.74c-6.862 3.524-4.403 8.116-4.403 8.116l39.253-18.854s1.068-.672 2.183.262c2.425 2.012 7.818 9.497 5.284 21.038-1.365 6.223-8.689 12.143-9.374 12.872-1.877 1.988-1.017 3.396-1.017 3.396l.292.701s15.829-7.698 16.53-8.03c1.888-.868 2.924.586 2.924.586 2.496 3.752 4.363 8.095 5.516 12.962 3.989 17.153-5.388 47.671-31.531 61.276l-6.471 3.151c-7.879 4.229-5.919 7.113-5.919 7.113s-.011.004-.018.004l.356.811 19.303-9.423h.021c2.411-1.135 4.857-2.29 7.377-3.483 27.776-13.199 32.819-28.601 36.311-36.073 12.42-26.628-4.118-50.467-4.692-51.078z" fill="#f7f8f8"/></g></svg>