<svg xmlns="http://www.w3.org/2000/svg" viewBox="0 0 300 122.069">
  <path fill="#006e43" d="M123.164 106.169c.223-.502.473-.934.751-1.297a.959.959 0 0 1 .906-.356 35.55 35.55 0 0 0 3.064.394c1.105.09 2.069.047 2.891-.131a8.403 8.403 0 0 0 1.646-.511 5.333 5.333 0 0 0 1.163-.679c.308-.247.557-.508.748-.784.19-.276.333-.552.429-.826.361-1.154-.152-1.811-.61-2.148-.294-.217-.667.104-.819.35a3.51 3.51 0 0 1-.665.757c-.291.259-.66.497-1.109.716-.45.219-.978.395-1.585.528a21.405 21.405 0 0 1-3.658.442 36.597 36.597 0 0 1-3.665-.054 70.63 70.63 0 0 1-3.548-.319c-1.158-.134-2.265-.26-3.321-.377a41.043 41.043 0 0 0-2.991-.226c-.939-.034-1.786.015-2.543.147-.861.155-1.585.383-2.171.683-.587.3-1.044.64-1.371 1.021-.327.381-.528.78-.6 1.197-.073.417-.032.814.126 1.192.157.378.424.72.802 1.027.378.307.866.533 1.464.679.685.177 1.317.229 1.897.153.579-.075 1.084-.229 1.514-.462.429-.233.764-.517 1.005-.852.24-.335.378-.677.413-1.028a1.435 1.435 0 0 0-.248-.971c-.201-.297-.898-.485-.796-.228.307.769-.065 2.082-1.159 2.493-.293.11-.67.172-1.037.203h-.008c-.654-.006-2.354-.228-2.167-1.918.285-2.57 4.548-2.506 4.571-2.506.124.003.249-.007.375.01 1.467.197 4.563 1.012 6.109 1.433.485.133.7.65.464 1.113-.316.62-.755 1.521-1.175 2.518-.441 1.05-1.762 5.186-2.074 6.137a75.29 75.29 0 0 1-.648 1.872c-.108.298-1.813 4.169-3.937 4.924-1.136.402-2.26.106-2.562-.06-.548-.3-.869-.69-1.048-1.255-.179-.566-.197-1.177-.056-1.832.14-.656.444-1.25.912-1.782-.001.378.105.683.321.913.215.231.527.331.933.299.421-.033.79-.147 1.107-.341.316-.194.572-.427.767-.697a2.09 2.09 0 0 0 .373-.853 1.489 1.489 0 0 0-.063-.818 1.205 1.205 0 0 0-.507-.596c-.242-.15-.572-.209-.989-.175-.894.072-1.661.352-2.305.84a4.986 4.986 0 0 0-1.484 1.768 5.031 5.031 0 0 0-.542 2.18c-.016.762.16 1.461.531 2.097.371.636.939 1.158 1.732 1.521 1.148.528 3.629.469 5.113 0 .931-.294 1.84-.888 2.145-1.118a9.27 9.27 0 0 0 .954-.827 12.194 12.194 0 0 0 1.893-2.463 23.117 23.117 0 0 0 1.406-2.855c.4-.987.76-1.981 1.081-2.983.316-1.002.624-1.95.924-2.846.297-.896.608-1.707.933-2.434Z"/>
  <path fill="#006e43" d="M146.221 108.178a2.632 2.632 0 0 0-1.168-1.084c-.506-.244-1.122-.336-1.848-.274a4.492 4.492 0 0 0-1.372.353 7.279 7.279 0 0 0-1.366.767l.526-1.708c.394-1.272.395-2.178.001-2.718-.394-.538-1.201-.754-2.422-.647a6.927 6.927 0 0 0-.638.084c-.19.035-.367.078-.532.13-.187.053-.447.166-.327.247.361.245 1.04.903.683 2.24a15.63 15.63 0 0 0-.187.624c-.109.379-.259.871-.448 1.477-.189.606-.397 1.291-.624 2.056-.226.765-.455 1.544-.687 2.337-.234.802-.484 1.656-.746 2.545-.192.499-.478.9-.859 1.201-.389.306-.759.501-1.111.584-.353.083-.647.06-.885-.069-.238-.128-.302-.371-.191-.729.023-.112.093-.361.209-.747.116-.385.253-.842.409-1.369.156-.527.324-1.088.502-1.681.178-.594.351-1.16.517-1.698.167-.538.312-1.014.435-1.429.123-.415.203-.707.239-.876l-2.394.202s-1.124.181-1.317.945c-.516-.47-1.165-.956-1.999-.886-1.474.124-2.818.676-4.03 1.654-1.211.977-2.109 2.42-2.693 4.327-.25.768-.352 1.482-.307 2.144.045.663.207 1.229.487 1.699.279.471.672.829 1.18 1.073.507.244 1.121.339 1.843.284a4.52 4.52 0 0 0 1.732-.516c.326-.169.646-.366.96-.592.367-.264.842-.24 1.141.05.154.15.337.272.548.366.455.204 1.012.28 1.67.23.51-.039 1.01-.16 1.502-.363a6.172 6.172 0 0 0 1.352-.766c.077-.058.143-.125.216-.186l-.269.908 3.472-.268c.015-.038.028-.085.041-.141.009-.074.049-.216.121-.424.55.455 1.229.652 2.036.59 1.443-.111 2.771-.662 3.983-1.655 1.046-.857 1.865-2.068 2.462-3.63.121-.243.44-1.287.478-1.544.107-.492.155-.96.133-1.4-.033-.665-.186-1.237-.459-1.715Zm-16.141 2.284-1.477 5.015c-.086.245-.14.488-.162.727a5.213 5.213 0 0 1-1.141.859c-.393.214-.77.334-1.131.362-.362.028-.639-.051-.835-.237-.195-.186-.313-.451-.352-.795-.04-.344-.011-.753.087-1.227.098-.474.261-.985.487-1.533.279-.736.556-1.362.833-1.878.276-.517.563-.938.863-1.265.299-.327.613-.573.941-.737a2.984 2.984 0 0 1 1.101-.298h.013c.554-.043.93.48.775 1.009Zm13.113.497c-.102.49-.258 1.012-.469 1.566-.575 1.471-1.149 2.516-1.723 3.134-.574.618-1.265.959-2.073 1.022-.425.033-.753-.061-.985-.283.123-.415.268-.893.435-1.432a191.976 191.976 0 0 0 1.024-3.419c.144-.496.288-.979.43-1.449a.95.95 0 0 1 .289-.443c.303-.259.602-.472.899-.639.366-.206.73-.325 1.093-.355.384-.032.668.046.851.234.183.188.292.457.328.805.036.349.003.769-.099 1.258ZM168.668 107.619c-.414-.313-.919-.516-1.516-.606s-1.218-.052-1.863.115c.215-.149.389-.357.522-.622s.229-.485.29-.659c.164-.635.124-1.153-.12-1.555-.245-.402-.677-.576-1.297-.522a2.801 2.801 0 0 0-1.663.708c-.467.416-.807.989-1.02 1.72a1.947 1.947 0 0 0-.044.876c.053.277.148.512.286.707.138.195.321.334.55.418.229.084.487.077.774-.023 1.168-.417 1.978-.382 2.429.106.451.489.49 1.426.117 2.811a7.682 7.682 0 0 1-.547 1.512c-.231.47-.49.886-.779 1.247a3.626 3.626 0 0 1-.981.868 2.638 2.638 0 0 1-1.153.373c-.425.034-.746-.063-.964-.289-.218-.226-.335-.526-.349-.9.176.024.316.031.423.022a2.748 2.748 0 0 0 1.653-.696c.464-.413.804-.976 1.019-1.688.165-.615.121-1.123-.135-1.525-.255-.401-.681-.577-1.278-.528a2.213 2.213 0 0 0-.56.145 2.696 2.696 0 0 0-.712.425c-.25.199-.501.464-.752.793a5.63 5.63 0 0 0-.684 1.223c-.08.173-.142.347-.196.522-.199.508-.49.915-.875 1.222-.393.312-.765.511-1.118.595-.353.084-.647.061-.883-.07s-.297-.378-.181-.743c.025-.114.098-.368.22-.761l.428-1.395.525-1.712c.186-.605.367-1.181.541-1.729.174-.548.326-1.033.455-1.456.129-.422.213-.72.251-.892l-2.384.204s-1.182.189-1.404.969c-.509-.479-1.085-.98-1.919-.909-1.474.126-2.863.642-4.048 1.685-1.829 1.608-2.765 4.608-2.936 5.118a1.061 1.061 0 0 0-.036.134 5.326 5.326 0 0 0-.115 1.342c.036.675.19 1.252.462 1.731.272.48.66.844 1.163 1.093s1.115.345 1.837.289c.573-.045 1.152-.22 1.737-.526.329-.172.652-.374.969-.605.369-.268.844-.24 1.142.058.151.15.33.273.538.368.452.207 1.007.285 1.665.234a4.854 4.854 0 0 0 1.505-.37 6.19 6.19 0 0 0 1.361-.781c.404-.306.759-.66 1.067-1.058.048.153.103.301.176.44.214.405.537.726.971.963.434.237.991.33 1.67.276a10.879 10.879 0 0 0 2.35-.438 6.859 6.859 0 0 0 2.01-.992 5.829 5.829 0 0 0 1.528-1.647c.417-.665.716-1.476.897-2.434.129-.727.094-1.36-.104-1.9-.199-.539-.505-.965-.919-1.28Zm-15.016 5.863c-.089.25-.147.497-.172.741a5.311 5.311 0 0 1-1.152.875c-.396.218-.774.341-1.135.369-.362.028-.638-.052-.83-.242-.192-.189-.306-.46-.341-.81-.036-.35 0-.767.105-1.25a9.15 9.15 0 0 1 .508-1.562c.289-.75.575-1.387.858-1.914.283-.526.576-.956.879-1.289.303-.333.62-.583.95-.751.33-.168.698-.269 1.104-.303.427-.036.757.067.99.308l-1.763 5.827ZM191.681 104.299a2.801 2.801 0 0 0-1.298-1.106c-.564-.247-1.229-.337-1.998-.27-1.667.146-3.101.762-4.301 1.847-1.199 1.083-2.078 2.551-2.637 4.403a7.02 7.02 0 0 0-.288 1.688c-.189.334-.44.66-.756.977-.32.32-.683.607-1.088.857a7.109 7.109 0 0 1-1.297.631c-.459.17-.912.272-1.358.308-1.148.092-1.971-.172-2.47-.794-.5-.621-.56-1.628-.182-3.02.137-.541.322-1.081.557-1.621a8.16 8.16 0 0 1 .822-1.474 5.464 5.464 0 0 1 1.023-1.109 2.159 2.159 0 0 1 1.192-.5c.427-.037.748.059.965.287.216.228.319.532.308.913a.449.449 0 0 0-.18-.013l-.208.018a2.778 2.778 0 0 0-1.663.71c-.469.419-.813.988-1.033 1.706-.169.62-.133 1.129.107 1.525.24.397.659.571 1.255.522.149-.012.341-.061.576-.147.235-.085.479-.229.73-.43a4.85 4.85 0 0 0 .76-.789c.255-.324.488-.733.699-1.225.227-.532.35-1.069.37-1.612.02-.543-.075-1.023-.285-1.442a2.247 2.247 0 0 0-.982-.983c-.445-.236-1.009-.325-1.693-.265-1.645.143-3.072.745-4.279 1.803-1.207 1.057-2.091 2.524-2.655 4.4-.228.792-.279 1.527-.158 2.205.122.679.391 1.256.806 1.732.414.476.956.835 1.625 1.074.669.24 1.449.324 2.341.254 1.741-.138 3.213-.539 4.418-1.204.852-.471 1.49-1.041 1.935-1.698.084.259.19.5.327.719.305.488.733.858 1.284 1.109.55.251 1.218.345 2.004.282a7.04 7.04 0 0 0 2.288-.569 7.308 7.308 0 0 0 1.982-1.291 9.029 9.029 0 0 0 1.594-1.922 9.695 9.695 0 0 0 1.085-2.486c.237-.804.331-1.549.283-2.234-.048-.685-.223-1.272-.527-1.762Zm-2.931 2.621c-.088.541-.22 1.113-.396 1.718a13.623 13.623 0 0 1-1.409 3.14 5.244 5.244 0 0 1-.811 1.021c-.276.26-.541.4-.796.421-.255.021-.452-.082-.59-.308-.139-.226-.22-.537-.243-.934-.023-.397.014-.86.113-1.39.099-.53.236-1.087.414-1.672.176-.603.387-1.181.633-1.734.247-.552.508-1.045.783-1.477.275-.432.556-.785.844-1.056.287-.272.558-.419.814-.441.256-.022.444.085.562.323.119.237.183.56.196.968.012.408-.026.882-.114 1.422ZM154.092 14.848l7.807-5.671h-9.649L149.268 0l-2.982 9.177h-9.649l7.806 5.671-2.982 9.178 7.807-5.672v-5.073l7.806 10.745-2.982-9.178z"/>
  <path fill="#006e43" d="m149.273 18.362 7.807 5.673-7.807-10.745v5.072z"/>
  <path fill="#006e43" d="M296.637 7.979c-8.906 2.513-17.819 5.005-26.724 7.52a2.186 2.186 0 0 0-.947.553c-2.748 2.886-5.16 6.048-7.5 9.265a1.756 1.756 0 0 0-.289.625c-.863 3.723-1.755 7.44-2.56 11.175-1.468 6.811-2.642 13.685-4.496 20.412-.166.603-.096 1.379.138 1.967 1.146 2.884 2.38 5.733 3.594 8.59.527 1.241 1.269 1.695 2.625 1.663 4.148-.097 8.295-.193 12.443-.288.271-.006.543 0 .893 0-.514 2.195-1.009 4.33-1.526 6.459-.026.107-.239.241-.366.242-1.562.017-3.125.011-4.795.011.257-1.029.484-1.86.669-2.7.373-1.696-.757-3.112-2.477-3.129l-11.938-.117c-1.611-.016-2.47.631-2.894 2.185-.271.991-.537 1.984-.812 3.004l-1.964-.147c-.014-.221-.033-.406-.035-.591l-.604-39.583c-.056-3.658-.103-7.316-.166-10.974-.03-1.75-1.315-2.859-2.932-2.588a14761.08 14761.08 0 0 1-20.956 3.495c-1.252.208-2.076 1.046-2.253 2.309-1.008 7.196-2.018 14.393-3.03 21.589-.216 1.534.564 2.681 2.084 3.05.053.013.095.066.157.112-.08.185-.151.359-.229.529-2.607 5.682-5.216 11.363-7.822 17.046-.449.979-.893 1.96-1.327 2.946-.13.294-.29.476-.623.3-.349-.185-.894-1.398-.84-1.812.157-1.194.354-2.385.447-3.584.132-1.691-.889-2.793-2.585-2.839-3.957-.109-7.914-.206-11.871-.296-1.538-.035-2.53.83-2.706 2.343-.187 1.611-.353 3.225-.537 4.916l-5.126-.275c-.007-.151-.017-.215-.012-.277.458-5.222.92-10.444 1.367-15.666.035-.408.191-.536.585-.546 1.714-.045 3.427-.118 5.14-.175.116-.004.233.042.353.066-.101 1.194-.203 2.351-.296 3.509-.124 1.537.869 2.817 2.331 2.825 4.274.024 8.549.002 12.823-.046 1.268-.014 2.251-.944 2.408-2.204.284-2.286.548-4.574.765-6.867.436-4.608.809-9.223 1.26-13.829.246-2.514-.46-4.617-2.36-6.316-1.34-1.199-2.651-2.431-3.962-3.662-.609-.572-1.299-.836-2.137-.742-1.45.162-2.902.323-4.355.452-4.193.373-8.386.754-12.583 1.085-3.312.261-6.629.458-9.944.673-.954.062-1.687.459-2.22 1.265-.712 1.075-1.454 2.13-2.187 3.192-.098.141-.219.267-.393.476v-4.482c-23.481.964-46.885.918-70.288-1.556l-1.367 8.939c-.095-.246-.143-.36-.183-.477-.951-2.82-1.906-5.639-2.847-8.462-.125-.376-.296-.56-.734-.618-7.043-.938-14.083-1.903-21.123-2.86-.722-.098-1.446-.186-2.161-.277-.026.127-.045.167-.042.206.695 8.198 1.919 16.323 3.451 24.402.418 2.204 1.74 3.325 3.981 3.436.71.035.941.3 1.06.974.885 5.012 1.814 10.017 2.728 15.024.26 1.423.516 2.846.789 4.35-.72 0-1.352-.019-1.983.007-.386.016-.496-.153-.557-.507a224.426 224.426 0 0 0-.863-4.673c-.284-1.46-1.286-2.228-2.774-2.08a968.05 968.05 0 0 0-10.477 1.095c-1.567.173-2.466 1.428-2.148 2.97.255 1.24.565 2.47.86 3.702.17.712.358 1.419.545 2.152-.165.038-.265.074-.366.082-.099.007-.2-.015-.329-.027-1.661-8.392-3.597-16.705-5.083-25.171 1.055.122 1.976.256 2.902.332 1.841.15 3.025-1.163 2.665-2.988-.863-4.371-1.768-8.735-2.631-13.106-.679-3.439-1.326-6.885-1.973-10.331-.29-1.546-.893-2.174-2.452-2.493-1.553-.318-3.108-.628-4.655-.973-6.332-1.413-12.66-2.843-18.993-4.256-1.747-.39-3.158.951-2.91 2.73.068.49.131.98.196 1.471a1.561 1.561 0 0 1-.521-.489c-1.156-1.591-2.318-3.178-3.46-4.779-.436-.611-.977-1.024-1.71-1.227a78.37 78.37 0 0 1-3.03-.928C20.681 11.706 14.506 9.719 8.33 7.736c-1.356-.435-2.406-.087-3.019 1.096-1.788 3.448-3.544 6.913-5.312 10.371v2.284c.249 1.323.496 2.646.747 3.968 1.394 7.341 2.723 14.695 4.196 22.02 3.371 16.763 7.383 33.383 11.348 50.012.28 1.174.908 2.043 1.951 2.592 1.233.649 2.497 1.239 3.748 1.853l5.445 2.673h1.27c.138-.041.274-.102.416-.119 6.319-.768 12.638-1.532 18.958-2.295.922-.111 1.564-.596 1.942-1.433.4-.886.788-1.776 1.187-2.662.072-.16.169-.309.302-.547.236.708.424 1.312.638 1.907.463 1.288 1.487 1.876 2.834 1.67 1.629-.248 3.263-.467 4.892-.718 3.879-.599 7.759-1.192 11.633-1.82 4.476-.725 8.934-1.58 13.424-2.207 5.651-.789 11.317-1.508 16.995-2.064 6.273-.614 12.56-1.141 18.853-1.467 7.058-.366 14.129-.626 21.194-.639 8.633-.016 17.267.275 25.901.426 1.241.022 2.483.003 3.847.003v-3.665l.169-.04c.124.157.252.311.373.471.675.894 1.26 1.881 2.053 2.654.536.523 1.339.985 2.067 1.065 6.853.754 13.72 1.389 20.574 2.137 1.412.154 2.584-.095 3.626-1.031.223-.2.466-.377.759-.611.254 1.426.95 2.321 2.322 2.448 4.045.373 8.096.679 12.139 1.065 1.503.144 2.46-.434 3.062-1.789 1.706-3.84 3.452-7.663 5.151-11.506.199-.451.412-.602.887-.546.671.08 1.351.091 2.026.137 1.155.079 2.309.161 3.535.247-.209 2.122-.443 4.176-.605 6.236a324.434 324.434 0 0 0-.571 8.477c-.074 1.406.864 2.462 2.232 2.625 1.659.198 3.321.373 4.985.53 4.297.406 8.592.829 12.893 1.185 4.407.365 8.818.693 13.231.971 4.372.276 8.751.433 13.122.721 1.322.087 2.319-.248 3.19-1.26a625.391 625.391 0 0 1 7.464-8.479c.542-.607.891-1.262 1.028-2.059.983-5.681 2.006-11.356 2.96-17.042 1.03-6.146 1.998-12.302 2.996-18.453.133-.823-.002-1.576-.4-2.321-1.691-3.168-3.353-6.352-5.024-9.532-.106-.201-.196-.41-.308-.645.122-.034.197-.065.276-.076 2.094-.294 4.187-.595 6.283-.874 1.525-.203 2.415-1.019 2.584-2.5.283-2.477.534-4.959.795-7.439.398-3.783.795-7.567 1.188-11.35.406-3.91.828-7.818 1.2-11.732.193-2.033-1.382-3.236-3.347-2.682Zm1.582 2.752c-.701 6.769-1.405 13.538-2.112 20.306-.343 3.279-.698 6.557-1.041 9.836-.063.603-.323.966-.967 1.05-2.516.328-5.029.679-7.544 1.019-.913.123-1.281.914-.821 1.796 1.873 3.591 3.741 7.185 5.634 10.765.275.519.344 1.013.252 1.578-1.178 7.256-2.32 14.518-3.529 21.77-.754 4.52-1.601 9.025-2.424 13.533-.058.316-.196.662-.404.9-2.545 2.917-5.12 5.809-7.663 8.727-.444.51-.908.705-1.594.665-4.584-.271-9.174-.456-13.756-.753a710.624 710.624 0 0 1-14.431-1.093c-4.595-.392-9.183-.866-13.773-1.309-.674-.065-1.344-.159-2.018-.23-.826-.087-1.023-.29-.979-1.138.086-1.689.155-3.381.3-5.065.283-3.285.612-6.565.927-9.847.097-1.016-.07-1.238-1.111-1.305-2.407-.155-4.817-.275-7.223-.449-.643-.047-.935.198-1.185.768-1.808 4.118-3.659 8.217-5.475 12.332-.282.638-.66.858-1.373.791-3.981-.376-7.966-.702-11.949-1.05-.634-.055-.904-.427-.776-1.102.228-1.203.485-2.401.727-3.602.037-.181.06-.366.117-.72-.31.259-.5.411-.683.571-1.34 1.167-2.684 2.329-4.016 3.505-.603.532-1.273.639-2.06.546a995.72 995.72 0 0 0-13.114-1.481c-2.482-.26-4.978-.391-7.459-.662-.464-.051-.996-.396-1.304-.766-.851-1.022-1.596-2.131-2.393-3.199a7.854 7.854 0 0 0-.735-.871c-.486-.483-1.137-.576-1.72-.195-.203.133-.389.448-.402.689a43.475 43.475 0 0 0-.046 3.106c.011.578-.131.821-.787.792-11.994-.539-23.994-.738-35.995-.375-6.344.192-12.681.622-19.021.947-.549.028-1.101.048-1.646.113-.364.044-.466-.105-.535-.433-.458-2.19-.937-4.375-1.516-6.585l-.79 4.324a7.299 7.299 0 0 1-.139.041l-2.349-4.128-.132.034 1.284 7.022-3.918.381c-3.094.3-6.191.563-9.28.908-3.018.337-6.038.682-9.036 1.156-6.558 1.036-13.101 2.174-19.655 3.235-3.945.638-7.901 1.203-11.851 1.814-.605.094-.839-.225-.995-.722-.595-1.893-1.199-3.784-1.8-5.675-.048-.151-.1-.302-.166-.501-1.08 2.43-2.151 4.793-3.175 7.176-.231.538-.548.777-1.116.845-5.334.639-10.665 1.299-15.997 1.947-.861.105-1.734.133-2.585.29-.692.127-1.264-.029-1.876-.332-2.159-1.069-4.342-2.088-6.511-3.135-.494-.239-.979-.5-1.455-.773-.557-.319-.888-.782-1.039-1.434-2.926-12.63-5.999-25.228-8.769-37.892-2.3-10.519-4.255-21.114-6.344-31.68a141.855 141.855 0 0 1-1.08-6.244c-.142-.937-.093-1.867.391-2.766a572.484 572.484 0 0 0 4.529-8.646c.269-.521.586-.605 1.128-.431 7.161 2.301 14.329 4.58 21.488 6.888.329.106.655.386.866.67 2.278 3.076 4.533 6.169 6.794 9.257.1.137.18.303.31.398.164.119.371.179.559.265.069-.195.218-.399.195-.582-.207-1.656-.443-3.309-.674-4.962-.088-.628-.193-1.253-.275-1.881-.089-.687.24-.968.933-.815 7.903 1.747 15.806 3.497 23.711 5.236.504.111.755.371.854.874 1.531 7.813 3.071 15.624 4.608 23.436.181.921-.041 1.186-.967 1.079-1.635-.188-3.267-.409-5.027-.632.489 2.62.928 5.157 1.441 7.679 1.401 6.891 2.834 13.776 4.254 20.663.162.785.331.917 1.126.814.797-.103 1.592-.22 2.387-.34.725-.109.898-.368.724-1.08-.533-2.174-1.077-4.344-1.602-6.52-.196-.812.012-1.07.856-1.156l9.911-1.019c.838-.086 1-.019 1.168.773.419 1.975.798 3.958 1.18 5.94.057.295.094.524.485.504 1.814-.095 3.628-.174 5.5-.262l-.912-4.969c-1.093-5.962-2.191-11.924-3.265-17.89-.078-.434-.26-.56-.653-.576-.592-.024-1.182-.081-1.773-.127-1.36-.104-2.054-.714-2.306-2.068-.27-1.454-.542-2.908-.768-4.368-.626-4.049-1.248-8.1-1.833-12.155-.241-1.673-.384-3.359-.565-5.04-.02-.185-.003-.373-.003-.635 1.387.191 2.737.38 4.089.563 5.197.702 10.393 1.414 15.594 2.088.642.083.991.28 1.191.936 1.567 5.149 3.171 10.286 4.764 15.427.055.177.113.352.186.582l2.021-15.967c22.394 2.281 44.719 2.315 67.157 1.496 0 .215.006.458 0 .701-.038 1.395-.056 2.792-.129 4.185-.033.639.38.965.825 1.127.425.155.894.003 1.208-.456 1.25-1.831 2.534-3.639 3.783-5.472.29-.425.632-.608 1.146-.648 8.1-.631 16.198-1.277 24.296-1.927.801-.064 1.597-.206 2.398-.243.279-.013.635.105.842.29 1.482 1.326 2.969 2.65 4.384 4.046 1.019 1.005 1.532 2.282 1.411 3.736-.255 3.054-.54 6.106-.82 9.158-.279 3.052-.559 6.104-.854 9.154-.091.946-.242 1.886-.348 2.831-.068.613-.386.892-1.004.893-4.084.011-8.168.036-12.252.043-.611.001-.89-.348-.833-1.006.122-1.432.251-2.864.4-4.293.1-.961-.145-1.254-1.088-1.211l-7.484.339c-.758.035-.949.233-1.015.988-.451 5.138-.908 10.275-1.359 15.413a66.912 66.912 0 0 0-.185 2.53c-.036.715.199.951.92.989 2.261.119 4.523.229 6.784.356.593.033.869-.273.929-.805.185-1.659.35-3.321.525-4.981.029-.273.058-.546.101-.818.076-.489.344-.741.863-.728 3.978.103 7.956.194 11.934.3.657.017.925.309.852.982a79.812 79.812 0 0 1-.486 3.708c-.088.571-.079 1.082.32 1.543.151.174.301.372.373.586.508 1.497 1.737 1.541 3.01 1.535.518-.003.662-.368.83-.739 1.622-3.578 3.233-7.161 4.871-10.731 1.788-3.897 3.601-7.782 5.4-11.674.105-.228.22-.466.252-.709.077-.59-.262-.924-.853-.874-.337.029-.671.09-1.007.124-.86.086-1.178-.235-1.042-1.091.16-1.001.381-1.993.523-2.996.552-3.912 1.088-7.826 1.618-11.741.298-2.199.59-4.398.848-6.601.078-.67.409-.945 1.044-1.041 3.617-.548 7.234-1.09 10.843-1.685 3.191-.526 6.372-1.115 9.556-1.684.955-.171 1.205.033 1.221 1.032l.552 36.348c.076 5.011.146 10.023.218 15.034.015 1.06.128 1.192 1.196 1.264 1.056.071 2.114.108 3.169.184.542.039.826-.197.955-.704.314-1.227.656-2.447.958-3.677.151-.615.488-.854 1.129-.844 3.958.059 7.916.087 11.874.13.731.008 1.033.387.856 1.109-.276 1.128-.587 2.247-.869 3.374-.206.825.033 1.15.892 1.177 2.243.07 4.486.11 6.728.187.573.02.877-.235.999-.754.661-2.816 1.323-5.632 1.97-8.452.181-.791-.09-1.097-.914-1.079-4.74.106-9.481.205-14.22.337-.644.018-1.006-.16-1.258-.773-1.117-2.714-2.289-5.406-3.403-8.121-.158-.384-.242-.89-.134-1.277 1.772-6.356 2.898-12.852 4.274-19.293.843-3.944 1.775-7.868 2.678-11.799.055-.239.16-.491.311-.68a988.45 988.45 0 0 1 6.768-8.392c.232-.284.623-.507.983-.609 8.701-2.462 17.408-4.901 26.113-7.352 1-.282 1.352-.017 1.245 1.02Z"/>
  <path fill="#006e43" d="M40.446 51.865c-1.509-7.493-2.924-15.005-4.398-22.505-.19-.966-.249-2.067-.767-2.838-1.894-2.824-3.943-5.545-5.974-8.274-.266-.358-.739-.637-1.172-.781-2.385-.793-4.797-1.503-7.181-2.299-3.947-1.318-7.879-2.683-11.819-4.021-.819-.278-1.247-.137-1.608.53-1.156 2.136-2.318 4.271-3.428 6.431a2.323 2.323 0 0 0-.217 1.333c.467 3.005.974 6.004 1.492 9 2.02 11.674 4.178 23.321 6.694 34.9 2.175 10.008 4.606 19.952 7.399 29.807.218.771.621 1.284 1.362 1.62 2.348 1.064 4.672 2.18 7.015 3.256.254.116.575.17.852.138 5.818-.675 11.634-1.373 17.452-2.047.569-.066.97-.307 1.184-.812.543-1.28 1.07-2.567 1.581-3.86.177-.448.287-.921.412-1.33-.072-.346-.114-.617-.184-.88-3.316-12.359-6.169-24.826-8.694-37.367Zm-4.442 29.852c-2.4.223-4.804.409-6.367.54-2.71.077-2.887-.049-3.299-1.757-2.153-8.924-4.367-17.835-6.433-26.779-1.24-5.366-2.251-10.784-3.362-16.18a2.744 2.744 0 0 1-.051-.504c-.019-1.052.616-1.565 1.636-1.312 1.886.467 3.77.942 5.655 1.414 1.127.282 2.248.586 3.381.843.799.181 1.237.66 1.409 1.44 1.524 6.926 3.064 13.848 4.575 20.777 1.426 6.537 2.826 13.08 4.231 19.621.253 1.177-.175 1.784-1.375 1.896ZM293.451 12.061c-7.149 2.05-14.324 4.006-21.483 6.02-.421.118-.878.378-1.151.709-1.92 2.335-3.804 4.7-5.674 7.074-.224.285-.359.674-.436 1.035-2.04 9.561-4.063 19.127-6.107 28.687-.162.756-.141 1.456.153 2.166.654 1.58 1.297 3.165 1.935 4.751.279.695.755.999 1.523.967 2.495-.104 4.992-.169 7.488-.25v.014c2.432-.085 4.865-.177 7.297-.253 1.345-.042 1.963.664 1.662 1.986-.983 4.323-1.994 8.641-3.013 12.956-.23.972-.729 1.318-1.738 1.292-3.364-.086-6.728-.177-10.092-.275-1.391-.041-1.947-.813-1.594-2.187.131-.511.295-1.015.406-1.53.189-.876-.164-1.966-1.526-1.932-1.798.045-3.598-.016-5.397-.029-1.257-.009-1.698.368-1.922 1.599-.915 5.028-1.835 10.056-2.752 15.084-.258 1.413-.519 2.825-.765 4.24-.178 1.025.3 1.796 1.188 1.891 3.281.348 6.561.718 9.848 1.01 4.594.409 9.194.745 13.79 1.139.718.062 1.267-.099 1.74-.655 1.96-2.303 3.949-4.582 5.899-6.893.259-.307.449-.731.519-1.128 2.024-11.417 4.031-22.837 6.02-34.26a1.822 1.822 0 0 0-.169-1.098c-1.419-2.642-2.879-5.262-4.318-7.893-.254-.465-.62-.661-1.141-.619-1.581.128-3.164.24-4.745.374-2.591.221-5.18.465-7.772.678-.863.071-1.397-.381-1.469-1.208-.027-.311.016-.632.062-.944.138-.94.298-1.877.441-2.817.378-2.485.744-4.972 1.131-7.455.114-.733.541-1.211 1.278-1.414 4.033-1.109 8.062-2.235 12.098-3.335 1.251-.341 2.04.397 1.829 1.669-.214 1.292-.448 2.581-.662 3.872-.121.729-.27 1.458-.32 2.193-.075 1.106.581 1.66 1.655 1.449 1.493-.293 2.983-.604 4.475-.904 1.012-.203 1.456-.65 1.596-1.686.117-.858.206-1.721.29-2.583.37-3.765.738-7.53 1.097-11.296.273-2.861.52-5.725.806-8.586.113-1.136-.512-2.051-1.981-1.63ZM128.02 79.014c-.126-1.559-.284-3.116-.402-4.675-.048-.635-.319-.9-.973-.839-.567.053-1.142.02-1.714.024-.854.006-.919-.053-1.077-.881-1.128-5.89-2.263-11.78-3.387-17.671-.321-1.68-.614-3.366-.914-5.05-.135-.755.058-.97.811-.953.444.01.889.002 1.333.002v.08c.465 0 .931-.006 1.396.002.744.013.881-.154.788-.903-.235-1.887-.455-3.776-.685-5.664-.347-2.853-.704-5.704-1.04-8.558-.074-.629-.331-.871-1.01-.917-4.686-.316-9.369-.676-14.051-1.054-.614-.05-.845.143-.91.726-.675 6.048-1.363 12.094-2.044 18.141-.09.798-.135 1.602-.261 2.394-.035.221-.286.407-.438.609-.177-.158-.373-.3-.524-.48-.089-.106-.109-.272-.155-.412-.808-2.468-1.645-4.926-2.417-7.405a1927.844 1927.844 0 0 1-4.318-14.109c-.165-.546-.455-.75-1.024-.823-3.251-.417-6.496-.877-9.742-1.334-1.759-.248-3.514-.523-5.271-.776-.795-.115-.94.037-.864.848.016.168.039.336.063.503.236 1.609.462 3.22.711 4.828.576 3.716 1.173 7.428 1.732 11.146.07.463.275.591.687.622.907.068 1.811.179 2.718.246 1.073.08 1.094-.03 1.333 1.253 1.037 5.564 2.078 11.128 3.114 16.692.65 3.488 1.293 6.977 1.941 10.466.101.542-.076.848-.666.894-1.096.086-2.191.196-3.286.303-.901.089-1 .181-.839 1.063.697 3.801 1.421 7.598 2.124 11.398.094.506.348.668.844.585.813-.135 1.63-.259 2.449-.346 3.807-.4 7.616-.786 11.424-1.175.816-.084.932-.206.801-.991-.643-3.854-1.298-7.706-1.942-11.56-.084-.5-.321-.754-.859-.688-.377.046-.762.03-1.14.073-.594.068-.819-.207-.908-.775-.64-4.09-1.306-8.176-1.959-12.264-.153-.96-.313-1.92-.411-2.885-.022-.216.203-.456.315-.685.204.14.418.267.606.425.072.06.087.188.128.286 1.046 2.515 2.088 5.032 3.139 7.544 1.809 4.324 3.62 8.648 5.449 12.964.099.234.373.395.565.59.146-.206.382-.395.424-.62 1.206-6.499 2.391-13.003 3.582-19.505.202-1.101.397-2.204.644-3.295.048-.21.322-.368.491-.55.156.177.331.342.46.536.063.095.039.246.057.372.449 3.094.884 6.19 1.351 9.282.34 2.256.728 4.504 1.08 6.758.106.679-.037.841-.717.871-.782.034-1.565.048-2.348.067-.79.019-.916.171-.841.951.162 1.662.304 3.325.465 4.987.212 2.188.428 4.375.656 6.561.074.711.25.815.942.766 4.706-.331 9.413-.656 14.12-.974.777-.053.916-.2.855-.973-.16-2.023-.305-4.047-.469-6.07ZM167.162 33.311c-6.199.15-12.398.296-18.429.44l-18.962-.348c-1.479-.027-2.172.765-2.048 2.266.209 2.528.382 5.059.576 7.588.113 1.475.21 2.953.37 4.423.112 1.025.779 1.571 1.794 1.592.381.008.762.011 1.143.019 1.462.033 2.059.619 2.167 2.063.224 3.014.454 6.028.704 9.041.295 3.56.626 7.117.916 10.677.137 1.676-.488 2.339-2.15 2.378-.127.003-.254.002-.381.003-1.317.01-2.023.693-1.934 2.012.197 2.91.435 5.818.686 8.724.093 1.068.773 1.665 1.795 1.655 11.007-.108 22.012-.062 33.013.351 1.459.055 2.098-.572 2.13-2.018.11-5.052.217-10.105.32-15.157a3.536 3.536 0 0 0-.067-.755c-.177-.898-.765-1.416-1.674-1.429-1.968-.027-3.938-.067-5.905-.011-.416.012-.957.317-1.196.659-.278.396-.369.977-.394 1.485-.046.927.048 1.86.026 2.789-.027 1.136-.736 1.797-1.853 1.789-3.302-.024-6.603-.049-9.905-.08-1.094-.01-1.712-.488-1.877-1.575a28.39 28.39 0 0 1-.319-3.278c-.042-1.236.737-1.945 1.983-1.937 1.714.011 3.429.025 5.143.029 1.198.003 1.921-.668 1.874-1.882-.089-2.323-.23-4.645-.397-6.965-.072-1.003-.785-1.586-1.791-1.588-2.159-.005-4.318-.003-6.477-.006-1.027-.002-1.722-.531-1.857-1.529a34.076 34.076 0 0 1-.286-3.283c-.047-1.269.669-1.947 1.942-1.954 3.704-.022 7.408-.045 11.111-.071 1.528-.01 2.171.629 2.206 2.187.022.972.033 1.946.108 2.915.085 1.114.769 1.7 1.891 1.686 1.989-.024 3.979-.058 5.968-.082 1.499-.018 2.154-.659 2.166-2.158.05-6.153.097-12.306.141-18.46.012-1.634-.629-2.241-2.272-2.201ZM248.462 78.369c-1.351-.094-2.702-.196-4.054-.261-.508-.024-.734-.255-.756-.733-.015-.338-.021-.676-.03-1.015-.143-5.137-.275-10.274-.431-15.41-.356-11.688-.725-23.376-1.087-35.065-.03-.973-.152-1.063-1.092-.897-4.914.864-9.829 1.717-14.744 2.575-2.158.377-1.887-.133-2.199 2.286-.386 2.997-.663 6.007-1.007 9.009-.206 1.805-.447 3.606-.678 5.408-.108.842.063 1.034.917.936.819-.094 1.632-.25 2.453-.319.323-.027.807.002.949.199.15.208.066.687-.067.978-1.01 2.209-2.08 4.39-3.089 6.599a7908.153 7908.153 0 0 0-10.364 22.78c-.237.524-.516.738-1.11.666-.923-.112-1.859-.107-2.785-.201-.604-.061-.838.211-.934.757-.737 4.159-1.486 8.316-2.227 12.475-.127.712.046.937.749.993 2.7.215 5.403.39 8.097.663.752.076 1.074-.184 1.326-.812 1.63-4.055 3.285-8.1 4.912-12.156.421-1.049.388-1.062 1.599-1.015.583.038 1.237.083 1.892.124 3.105.196 6.209.4 9.314.577.64.036.858.334.814.929-.103 1.392-.177 2.785-.298 4.175-.31 3.559-.642 7.115-.958 10.673-.069.781.045.923.778.993 3.707.353 7.413.702 11.121 1.044.868.08.939.026 1.093-.822.916-5.029 1.826-10.058 2.732-15.088.139-.773-.044-.991-.837-1.046Zm-14.529-11.808c-.19-.008-.38-.001-.466-.001-1.94-.138-3.776-.262-5.61-.401-.591-.045-.813-.431-.569-1.039.353-.881.74-1.749 1.121-2.619 1.516-3.46 3.035-6.918 4.554-10.377.025-.058.041-.129.085-.169.214-.196.437-.383.656-.573.161.263.431.512.464.79.105.88.119 1.77.171 2.655.21 3.564.418 7.128.632 10.691.054.897-.123 1.081-1.038 1.042ZM203.247 67.566c-1.798.022-3.597-.081-5.395-.124-1.155-.028-1.621.388-1.741 1.521-.154 1.45-.309 2.9-.477 4.348-.132 1.132-.586 1.529-1.701 1.474-3.276-.163-6.551-.348-9.827-.503-1.287-.061-1.799-.572-1.698-1.874.162-2.107.353-4.213.54-6.318.363-4.084.734-8.167 1.099-12.251.117-1.305.198-2.614.348-3.915.093-.808.56-1.254 1.247-1.287 3.889-.188 7.778-.367 11.667-.551.59-.028.992.267 1.171.787.119.347.141.745.124 1.116-.053 1.161-.172 2.319-.216 3.481-.039 1.045.442 1.534 1.483 1.521 2.137-.027 4.274-.076 6.41-.131.976-.025 1.404-.416 1.535-1.407.136-1.026.246-2.056.343-3.087.467-4.987.921-9.975 1.391-14.961.066-.705-.097-1.286-.658-1.751-1.124-.931-2.214-1.904-3.366-2.799-.297-.231-.777-.351-1.16-.327-1.371.087-2.736.269-4.105.395-4.044.373-8.089.746-12.134 1.1-2.445.214-4.894.373-7.337.604-.359.034-.805.239-1.021.514a246.616 246.616 0 0 0-4.566 6.01 2.287 2.287 0 0 0-.404 1.167c-.121 2.068-.19 4.14-.273 6.21-.19 4.732-.378 9.465-.566 14.197h-.003c-.085 2.134-.169 4.268-.257 6.401-.188 4.563-.392 9.126-.545 13.69-.016.467.165 1.013.43 1.404.914 1.346 1.914 2.634 2.862 3.957.305.426.665.644 1.204.691 3.54.306 7.081.613 10.616.975 2.966.304 5.925.676 8.885 1.034.527.064.941-.073 1.332-.423 1.228-1.102 2.496-2.161 3.693-3.295.325-.307.577-.8.652-1.243.453-2.665.853-5.34 1.253-8.014.312-2.089.597-4.183.895-6.274.158-1.106-.104-2.083-1.729-2.063ZM81.399 75.706c-.419-2.004-.925-3.99-1.394-5.983-.121-.515-.331-.907-.98-.832-1.849.215-3.7.404-5.549.617-1.065.122-1.245.41-.973 1.468.536 2.086 1.075 4.17 1.601 6.258.205.814-.014 1.15-.839 1.268-2.323.331-4.648.651-6.975.964-.755.101-.986-.096-1.149-.907-1.342-6.687-2.708-13.369-4.017-20.062-.88-4.497-1.683-9.009-2.515-13.515-.161-.874.212-1.243 1.074-1.113 1.254.188 2.511.363 3.767.541.534.076.805-.194.841-.699.016-.227-.031-.463-.077-.69-1.129-5.653-2.269-11.303-3.383-16.958-.133-.677-.447-1.012-1.131-1.146a220.215 220.215 0 0 1-6.389-1.346c-4.141-.941-8.275-1.916-12.413-2.875-.721-.167-1.034.089-1.017.831.004.19.029.379.052.568.366 2.999.728 5.998 1.102 8.996.385 3.082.786 6.161 1.172 9.242.083.659.402.999 1.092 1.083 1.174.144 2.335.396 3.508.545.664.084.936.438 1.07 1.048A30262.97 30262.97 0 0 0 55.08 75.73c.286 1.299.606 2.59.9 3.887.188.831-.06 1.172-.907 1.28-.671.086-1.343.171-2.015.249-1.106.129-1.32.425-1.055 1.491.412 1.659.803 3.325 1.251 4.975.565 2.077 1.174 4.143 1.773 6.21.13.449.335.843.921.765 1.212-.187 2.425-.367 3.635-.562 7.785-1.25 15.57-2.505 23.355-3.755 1.156-.185 1.337-.414 1.109-1.541-.877-4.343-1.741-8.689-2.649-13.025Z"/>
</svg>
