<svg xmlns="http://www.w3.org/2000/svg" viewBox="0 0 82.4 78.7"><path d="M19.4 58.8zM16.9 64z" fill="#231f20"/><path d="M76.8 16c0-.2.1-.4.1-.6 0-1.1-.3-2.2-.8-3.1-1.3-2.2-3.2-4-5.5-5.3-7.2-3.9-15.9-3.7-22.9.6-.7.5-1.2 1.3-1.2 2.1v.1c-.9.6-1.8 1.2-2.7 1.9-.1-2.5-1-4.9-2.6-6.8C37.4.6 31.2.1 30 0c-3.4-.1-6.8.5-9.9 2-.6-.8-1.5-1.2-2.4-1C9.1 2.5 2.5 9.9 1.6 19c-.1.7-.1 1.3-.1 2 0 1.3.1 2.7.4 4-.8.3-1.4 1-1.6 1.9L0 28.7v1.7c0 5.1 2.2 10 6.1 13.3-1.2 1.7-1.9 3.7-2.1 5.7 0 .4-.1.9-.1 1.3v1c.1 1.4 1.3 2.4 2.7 2.3.7-.1 1.3-.4 1.8-1 1.6-2 3.9-3.3 6.4-3.5-.8 1.9-1.4 3.8-1.6 5.9-.1.9-.1 1.7-.1 2.6-.1 2.5.5 4.9 1.5 7.1.5 1 1.7 1.5 2.8 1.3.2 0 .4-.1.6-.2 2.5 6.3 8.5 11.6 15.2 12.3 2.1.2 4.3 0 6.3-.5 1.1-.3 1.8-1.2 1.8-2.3v-.1c0-1.1-.7-2-1.7-2.4-.8-.3-1.5-.7-2.1-1.2 1 .3 2 .6 3 .7 1.2.1 2.3.1 3.5-.1.8-.1 1.7-.4 2.5-.7.9-.3 1.5-1.1 1.6-2v-.3c0-.8-.4-1.5-1-2-1.3-.9-2.2-2.2-2.8-3.6 1.4 1.1 3.1 1.8 4.9 2.1.9.1 1.9.1 2.8 0 1.4-.2 2.3-1.5 2.2-2.8-.1-.4-.2-.8-.5-1.2-.8-1-1.2-2.3-1.2-3.5V58c.1-.6.2-1.1.5-1.7.3.1.7.2 1 .2 4.4-.4 8.5-2.3 11.5-5.4.6.1 1.3 0 1.8-.3 4.2-2.7 6.9-7.2 7.4-12.2 0-.4.1-.9.1-1.3 0-2.5-.6-5.1-1.6-7.4 1.9.4 3.6 1.2 5.1 2.4 1.1.9 2.7.7 3.5-.4.3-.4.5-.8.5-1.3.1-.5.1-1.1.1-1.6-.1-4.9-2.1-9.5-5.6-13z" fill="#fff"/><path d="M72.1 27.3c2.8.3 5.5 1.4 7.7 3.2.4-5.2-1.8-10.3-5.8-13.6.5-1.1.5-2.4-.1-3.4-1.1-1.8-2.7-3.2-4.5-4.2C62.9 5.8 55.2 6 49 9.8c.6.2 1.1.4 1.6.8-5.2 2.1-9.2 6.4-10.8 11.8l1.5-.9c-.6 1.2-1 2.5-1.1 3.9-.3 1.9-.2 3.8.4 5.6-1.6.8-3.4 1.1-5.2.8-3-.3-5.6-1.9-7.3-4.4.3.1.7.1 1 .2 1.5.2 3-.1 4.4-.7 1.5.5 2.9 1.5 3.9 2.7 1.4-1.9 1.6-4.5.3-6.6.6-1 .9-2.2 1-3.3v-1.4c1.2-1.3 2.1-2.9 2.4-4.7.8-8.9-8-10.9-11.3-11.1-7.6-.4-14.7 3.9-16.3 9.6-.3-2.1.3-4.3 1.6-6C16 5.2 17 4.3 18 3.5 10.4 4.9 4.9 11.4 4 19.3c-.4 4.9 1.1 9.7 4.1 13.5-2.4-1.1-4.3-3-5.4-5.4-.1.5-.2 1-.2 1.5-.6 5.8 2.3 11.3 7.2 14.3-2.3 2.1-3.5 5.2-3.2 8.3 2.5-3.2 6.4-4.9 10.4-4.5.7.1 1.4.2 2.1.4-1.7 2.4-2.8 5.3-3.1 8.2-.2 2.4-.2 5.7 1.1 8.2.2-2 1.1-3.8 2.5-5.3-.8 8.1 6.1 16.4 14.2 17.3 1.8.2 3.6 0 5.4-.4-5.3-1.9-9.9-8.5-7.5-14.6.6 4.9 4.6 8.8 9.5 9.2.9.1 1.9.1 2.8-.1.7-.1 1.3-.3 1.9-.5-4.4-2.9-5.7-8.8-3-13.3.2 3.6 3.3 6.7 7 7.3.7.1 1.4.1 2.1 0-1.3-1.7-1.9-3.8-1.7-5.9.3-3.2 2.8-6.4 5.4-7.2-.1.6-.2 1.2-.5 1.7-.3.6-.6 1.2-1.1 1.7 4.8-.4 9.2-3 11.9-7.1.1.6.2 1.2.2 1.8 3.5-2.3 5.8-6.1 6.3-10.3.2-4.1-1.1-8.1-3.8-11.1 1 .1 2.3.1 3.5.3z" fill="#231f20"/><path d="M22.9 18c.3-2.9 2.3-5.3 5.1-6.1 2.9.9 4.6 4.1 3.6 7-.2.7-.6 1.3-1 1.9.5.1 1.1.1 1.6 0 2.1-.4 3.9-1.8 4.8-3.8 1 3.8-1.2 7.8-5.1 8.8-3.8 1-7.8-1.2-8.8-5.1-.2-.9-.3-1.8-.2-2.7z" fill="#fff"/><path d="M37.2 27.3v.2c-.6-.7-1.4-1.2-2.2-1.5.7-.4 1.2-1 1.8-1.6.4.9.6 1.9.4 2.9z" fill="#c4ced4"/><path d="M62.2 24c.9.4 1.7.9 2.4 1.5-3 .7-5.8 2.1-8 4.2-2.9-2.9-2.9-7.6 0-10.6 1.5-1.5 3.6-2.3 5.7-2.2.5 1.3 1.7 2.2 3 2.4 1.4.3 2.9-.2 3.9-1.2.6.5 1.1 1 1.5 1.6-3.8.1-7.4 1.3-10.5 3.5.7.3 1.4.5 2 .8z" fill="#fff"/><path d="M62.2 24c.9.4 1.7.9 2.4 1.5-3 .7-5.8 2.1-8 4.2-2.9-2.9-2.9-7.6 0-10.6 1.5-1.5 3.6-2.3 5.7-2.2.5 1.3 1.7 2.2 3 2.4 1.4.3 2.9-.2 3.9-1.2.6.5 1.1 1 1.5 1.6-3.8.1-7.4 1.3-10.5 3.5.7.3 1.4.5 2 .8z" fill="#fff"/><path d="M72.7 17.9c-.5.2-1.1.2-1.6.2.8.8 1.5 1.8 1.9 2.9-2.5-.1-5 .4-7.3 1.3 2.2-.2 4.4.2 6.3 1.1 0 0-4-.8-6.4.9.4.3.8.6 1.2 1 1.5-.2 2.9-.2 4.4-.1 2.5.2 4.9 1 7 2.3-.5-3.8-2.5-7.3-5.5-9.6zm-4.8-1.4c-.4.7-1.2.9-1.9.5-.5-.3-.8-.8-.7-1.4 0-.4.3-.8.6-1l-1.2-.9c-1.1.9-1.3 2.6-.4 3.8.9 1.1 2.6 1.3 3.8.4.3-.2.5-.5.7-.8-.3-.3-.6-.4-.9-.6zm-36.3 6.9c-2.2-.2-3.2-2.4-2.2-5.2.8-2.2-.1-4.2-2-4.4-1.1-.1-2.1.3-2.8 1.1.7-.5 1.5-.7 2.4-.6 1.7.2 1.9 1.8 1.2 4-1.3 3.9.8 6 3.1 6.2 2 .2 4-1.3 5.1-3-1.3 1.3-3 2-4.8 1.9z" fill="#a30046"/><path d="M72.5 18.8s3.6 3.2 4.1 7c-.6-.3-1.2-.6-1.9-.8.1 0 .5-2.6-2.2-6.2zM66.3 15c-.2.1-.3.2-.3.4 0 .3.1.5.4.6.3 0 .5-.1.6-.4l-.7-.6z" fill="#fff"/><path d="M62.3 24.1c-2.5 1-4.8 2.7-6.4 4.8.2.3.5.6.8.9 2.2-2.1 5-3.5 8-4.2-.8-.6-1.6-1.1-2.4-1.5z" fill="#c4ced4"/><path d="M71.3 13.6c-.7-.9-1.5-1.6-2.4-2.2-5-3.1-11.2-3.7-16.7-1.6.8.5 1.6 1.2 2.1 1.9-4.9.6-9.3 3.5-11.9 7.8 1-.6 2.2-.9 3.4-1-2.3 2-3.7 4.9-4.1 7.9-.3 3.1.5 6.1 2.2 8.7-.7-.3-1.4-.8-1.9-1.4-4.3 2.9-10.8 1.1-10.8 1.1 2.7.5 5.5 0 7.9-1.2-1.3.2-2.6.3-3.9.1-4.2-.4-7.9-3.2-9.5-7.1-.8-.5-1.6-1.1-2.2-1.8-4.9-.9-5.2-5-5.2-5 .8 1.3 2.1 2.2 3.6 2.4-1.5-3.6-.4-7.8 2.7-10.2-1 .3-1.9.9-2.6 1.6 1.8-2.9 5.7-3.9 8.6-2 2 1.3 3.2 3.6 2.9 6 0 .4-.1.8-.2 1.2 2.9-1.8 3.8-5.6 2-8.5-.2-.4-.5-.7-.7-1 1.7 1.1 2.8 2.9 2.9 4.9.3.5.6 1.1.8 1.6.4-.7.7-1.6.7-2.4.2-2.2-.9-7.6-8.8-8.5C23 4 16 8.1 15 14c-.3 1.7-.2 3.4.2 5-3.4-2.6-4.6-7.2-2.8-11-2.1 2.1-3.5 5-3.7 8-.3-1.3-.3-2.6 0-3.9-1 1.3-1.6 2.8-1.9 4.5-.5 3.1.3 6.3 2.1 8.9-1.1-.8-2-2-2.6-3.2.4 4.4 2.5 8.5 5.9 11.5.7.6 1.4 1.1 2.1 1.6-1 .2-2.1.2-3.2.1-2.6-.3-5-1.4-6.8-3.3 0 0 .7 6 5.6 6.6-.7.2-1.7.2-2.6-.2 1.2 1.4 2.7 2.5 4.4 3.2.8.4 1.7.7 2.6.9-2.5.9-4.6 2.7-5.8 5.1 2.7-2 6.1-2.9 9.4-2.6.9.1 1.7.3 2.5.5 3.8-4.2 8.6-7 24.4-9.1 2.3-.3 4.3-.7 6.1-1-4.6-3-6-9.2-3.2-13.9-.8.3-1.6.8-2.3 1.2 2.2-6.7 8.8-11 15.9-10.3-.8-1.1-3-1.4-3-1.4.9-.2 1.9-.3 2.9-.1 1.8.2 3.5 1 4.9 2.1.9.8 1.8 1.6 2.8 2.3.9.6 2.1 1 2.6.4s.5-1.5-.2-2.3z" fill="#c4ced4"/><path d="M47.1 18.4c-.4 0-.8 0-1.3.1-2.3 2-3.7 4.9-4.1 7.9-.3 3.1.5 6.1 2.2 8.7-1.5-2.7-2.1-5.8-1.5-8.8.6-3.2 2.3-6 4.7-7.9zm-4.6 1.1c3.1-3.8 7.5-6.2 12.3-6.8-.1-.3-.2-.6-.4-.9-5 .5-9.4 3.4-11.9 7.7zm28.8-5.9c-.7-.9-1.5-1.6-2.4-2.2-5-3.1-11.2-3.7-16.7-1.6 0 0 .3.2.7.5 5.1-1.5 10.7-.7 15.2 2.1.9.6 1.7 1.3 2.4 2.2.4.5.6 1.1.6 1.8.2 0 .4-.1.5-.2.6-.8.4-1.8-.3-2.6z" fill="#fff"/><path d="M66.6 27.5c-2.7.6-5.2 2-7.1 4 .5.2 1.1.3 1.6.4h.7c2.8-1.6 3.3-3 3.3-3-2 6.9-12.4 8.4-21.7 9.5-17.1 2.1-21.5 8.4-22.5 9.7-2.2 2.8-3.4 6.3-3.4 9.9.7-1.3 1.6-2.4 2.8-3.3.9-2.4 2.6-4.5 4.8-5.9-2.2 2.2-3 5.6-3.4 9-.4 4.2 1 8.4 3.8 11.6-.3-1.5-.3-3.1.1-4.6-.1 7.1 7.1 9.2 7.1 9.2-3-2.7-4.5-6.6-4.1-10.6.4-4 2.1-7.7 5.7-9.1-.6 1.2-1 2.5-1.1 3.8-.3 3.1.9 6.2 3.3 8.2-.5-1.4-.7-2.9-.6-4.4 1.7 5.9 5.9 6.5 5.9 6.5-3.9-4.7-3.2-11.7 1.6-15.6.7-.5 1.4-1 2.1-1.4-.4.6-.7 1.3-.9 2-.5 1.8-.2 3.7.8 5.3 0-.8.2-1.7.4-2.4-.1 2.1.6 3.8 1.8 4.6l.6.3c-.4-1.2-.6-2.5-.5-3.8.6-4.8 4.3-8.5 9.1-9.1.3.9.3 1.9.1 2.8 1.7-.9 3-2.3 3.8-4.1-.2 1-.4 1.9-.8 2.8 2.8-1.7 5-4.3 6.1-7.4.3.8.6 1.6.7 2.4 1.7-1.9 2.8-4.4 3.1-7 .6-3.4-1.2-7.8-3.2-10.3z" fill="#c4ced4"/><path d="M17.9 42.4c.8-1 1.8-1.7 2.9-2.2-1.1.2-2.3.2-3.4.1-2.8-.3-5.5-1.4-7.7-3.2 3.7 1.5 7.9 1.3 11.5-.4-4.4-1.3-8-4.6-9.6-8.9.9 1 2.2 1.7 3.5 1.9-3.7-3.4-5.5-8.3-5-13.3 0-.4.1-.9.2-1.4 0 6.1 4.3 11.4 10.4 12.6-4.8-3.4-5.9-9.9-2.6-14.7 2.8-3.9 7.8-5.5 12.3-3.8-1.2-1.1-2.7-1.8-4.3-2-.5-.1-1-.1-1.6 0 4-2.1 8.9-1.8 12.6.7-1.3-1.4-3.5-2.6-6.9-3C23 4 16 8.1 15 14c-.3 1.7-.2 3.4.2 5-3.4-2.6-4.6-7.2-2.8-11-2.1 2.1-3.5 5-3.7 8-.3-1.3-.3-2.6 0-3.9-1 1.3-1.6 2.8-1.9 4.5-.5 3.1.3 6.3 2.1 8.9-1.1-.8-2-2-2.6-3.2.4 4.4 2.5 8.5 5.9 11.5.7.6 1.4 1.1 2.1 1.6-1 .2-2.1.2-3.2.1-2.6-.3-5-1.4-6.8-3.3 0 0 .7 6 5.6 6.6-.7.2-1.7.2-2.6-.2 1.2 1.4 2.7 2.5 4.4 3.2.8.4 1.7.7 2.6.9-2.5.9-4.6 2.7-5.8 5.1 2.7-2 6.1-2.9 9.4-2.6.9.1 1.7.3 2.5.5.8-.9 1.8-1.8 2.8-2.6-.9-.4-2-.7-3-.8-.7 0-1.5 0-2.3.1zm48.7-14.9c-.5.1-.9.2-1.4.4 1.7 2 2.6 4.4 2.6 7 0 4.2-3.1 8.1-7 10.4 1.6-1.5 2.5-3.6 2.5-5.8-2.3 3.5-8.9 6-10 6.5-2.2 1.2-4.3 2.8-5.1 5.3-.5-2.5 1-5.8 2.7-6.8-5.4 1.6-10.4 5.4-12.4 10.6-.2-1-.2-2-.1-3.1.2-2.3 1.1-4.4 2.6-6.2-5.9 1.4-11.5 5.3-13.5 11-.1-1-.1-1.9 0-2.9.6-4.8 3.2-9 7.3-11.6-3.4.2-6.7 1.6-9.1 4.1C27.1 44.1 32 41 32 41c-7.9 2.7-10.4 6.3-11.1 7.3-2.2 2.8-3.4 6.3-3.4 9.9.7-1.3 1.6-2.4 2.8-3.3.9-2.4 2.6-4.5 4.8-5.9-2.2 2.2-3 5.6-3.4 9-.4 4.2 1 8.4 3.8 11.6-.3-1.5-.3-3.1.1-4.6-.1 7.1 7.1 9.2 7.1 9.2-3-2.7-4.5-6.6-4.1-10.6.4-4 2.1-7.7 5.7-9.1-.6 1.2-1 2.5-1.1 3.8-.3 3.1.9 6.2 3.3 8.2-.5-1.4-.7-2.9-.6-4.4 1.7 5.9 5.9 6.5 5.9 6.5-3.9-4.7-3.2-11.7 1.6-15.6.7-.5 1.4-1 2.1-1.4-.4.6-.7 1.3-.9 2-.5 1.8-.2 3.7.8 5.3 0-.8.2-1.7.4-2.4-.1 2.1.6 3.8 1.8 4.6l.6.3c-.4-1.2-.6-2.5-.5-3.8.6-4.8 4.3-8.5 9.1-9.1.3.9.3 1.9.1 2.8 1.7-1 3-2.4 3.9-4.2-.2 1-.4 1.9-.8 2.8 1.7-1 3.2-2.4 4.3-4 .8-1.1 1.4-2.2 1.8-3.5.3.8.6 1.6.7 2.4 1.7-1.9 2.8-4.4 3.1-7 .5-3.4-1.3-7.8-3.3-10.3z" fill="#fff"/><path d="M55.3 58.8h-.6v-.3h1.5v.3h-.6v1.6h-.4v-1.6zm1.3-.4h.6l.5 1.5.5-1.5h.6v2h-.4v-1.6l-.6 1.6h-.3l-.5-1.6v1.6h-.4v-2z" fill="#231f20"/></svg>