<svg xmlns="http://www.w3.org/2000/svg" viewBox="0 0 88.6 72"><path d="M50.4 72c-1.2 0-2.4-.1-3.5-.2-13.1-1.3-23.4-5.5-30.5-12.6-2.6-2.6-4.7-5.5-6.4-8.8-.7.6-1.8.5-2.4-.2-.1-.1-.2-.3-.3-.5C4.4 42.4 3.9 35.5 5.8 29l-1.1-.3c-1.9-.6-3.5-2.1-4.1-4-.7-2-.7-4.2.1-6.3.6-2.1 1.8-3.9 3.6-5.1 1.6-1 3.7-1.3 5.6-.6l5.2 2.1c3.8-3.2 8.1-5.9 12.8-7.8-.5-.8-.2-1.8.6-2.3.1-.1.2-.1.3-.1C39.3.7 49.5-.7 58.4.4c6.9.9 12.9 3.4 16 6.8 1.2 1.4 2 3.3 2.9 7.1.6 2.9-.9 5.6-4 7h-.1c-1.9.8-5 2.2-6.6 4.1l-.6.6c0 .5-.1.9-.3 1.3-.3.5-.4 1-.5 1.6 0 .1 0 .2.1.3.6.1 1.2.2 1.8.5h.3c1 0 2.1.3 2.9.9 1.3.2 2.5.9 3.3 2.1.3-.2.7-.3 1.1-.3 0 0 4.7-.2 6.2 1.8 2.3.7 3.6 1.8 3.8 3.4v.2c.7.4 1.2 1.1 1.5 1.8l.5.2c2 .7 2.5 3.2 1.4 6.9-.4 1.3-1.4 3.7-3 4.6-.4.2-.9.3-1.3.3-.3 0-.5 0-.8-.1l-1.4-.4c-.4 3.3-1.7 6.4-3.8 8.9.1.1.3.3.3.4.4.7.3 1.6-.3 2.1-6.7 5.7-17.5 9.5-27.4 9.5" fill="#caa977"/><path d="M86.1 41.3l-1.7-.5c.5-.8-.7-1.7-1.5-2.2v-.9c-.1-1-1.2-1.7-3.2-2.2-.1-.1-.1-.3-.2-.4-.7-1.2-4.6-1.2-4.7-1.2-.2 0-.4.1-.5.2-.1.1-.3.1-.4.2-.4-.1-.8-.1-1.2 0-.3-.5-1.5-2.2-3-2.1-.7-.5-1.5-.8-2.4-.9-.2 0-.5.1-.7.1-.8-.6-1.8-.8-2.8-.6-.1 0-.2.1-.4.1.1-.7.1-1.4-.1-2 .1-.9.4-1.8.8-2.6.1-.4.2-.9.1-1.3.4-.2.8-.4 1.1-.8 1.8-2.2 5.2-3.6 7.2-4.6s3.5-2.8 3-5.1c-.8-3.6-1.5-5.3-2.5-6.3-4.8-5.1-20.5-10.6-43.7-2.1 1.5 0 3.4.2 4.9.3-7.6 2.4-14 6-18.7 10.3l-6.1-2.5c-1.4-.5-3-.2-4.2.7-1.4 1-2.4 2.5-2.9 4.2-.6 1.6-.7 3.4-.1 5.1.4 1.4 1.6 2.6 3 3l2.8.7c-2.1 5.8-2.4 12.9.9 21.3.1-1.5.3-3 .6-4.5 1.4 4.6 7.7 22.6 37.6 25.5 10.3 1 22.4-2.7 29.6-9.1-1.3.4-2.5.7-3.8.8 2.1-1.5 6.6-4.4 7.2-12.5-2.3 1.9-4.8 3.6-7.4 5h-1.6c2.2-1.2 4.2-2.9 5.6-5 1.5.1 2.8-.6 3.6-1.8.1.7.3 1.2.8 1.4l2.4.8h.3c.2 0 .4 0 .5-.1.9-.5 1.7-2.2 2.2-3.6.6-2.2.7-4.5-.4-4.8" fill="#0c233f"/><path d="M73.2 15.2c-.4-1.8-1.1-4.4-1.9-5.3-3.9-4.1-15.8-8.1-32.8-4.1 2.8-.4 12.3-1.9 20.4 1.2-6.5-1.2-13.2-1-19.6.4-8.1 2-15.8 5.4-21.4 10.2l8.4 3.4 4.7 2c1.3-.9 2.7-1.7 4.1-2.2-1.4-3.8-1.1-8.1.6-11.8 1.1-.2 4.9-.5 10.6 3.1 1.3-.5 2.7-.6 4-.3-.3-.4-.7-.7-1.1-.9 2.2-.3 4.5.1 6.5 1 2.1-.4 4.1-1.2 5.8-2.4.2-.2.6-.4 1 0 2.2 2.7 1.8 7.6.7 9.6.8 2 .6 3 .2 3.6.7-.6 1.7-2.3 7.6-5 2-.9 2.3-1.6 2.1-2.5m3.8 38.9c-6 4-13.1 6.1-20.3 6 .5.4 1 .8 1.6 1.1-5.1 1.3-20-.5-27.2-8.5.1.8.3 1.6.6 2.3C27 53.3 17 42.1 22.8 31.6l-12.6-3.1A24.1 24.1 0 0 0 9 40.4c.3-3.8 1.6-7.4 3.6-10.6-1.4 3.4-1.9 7-1.6 10.6.7 8.4 8.9 25.1 36.3 27.5 7.3.6 14.7-.8 21.2-4.2-2.6.8-5.2 1.1-7.9.9 12.6-3 16.3-10.5 16.3-10.5" fill="#fff"/><path d="M31.3 25.2l-5.9-2.5c-2.8-1.1-13.8-5.5-16.2-6.4-.7-.3-1.5-.3-2.2 0l15.9 6.5-17.1-5.6c-.4.4-.8.9-1.1 1.5l3.5 1.6-3.8-.8c-.2.4-.3.9-.3 1.4l8.6 3.6L4.3 22c.6 1.3 1.8 2.2 3.2 2.5 2.3.7 11.2 3.3 16 4.8.2-.3.5-.5.7-.7L22 27.5l2.8.6c.4-.3.7-.6 1.1-.8l-8.2-3.5 9.4 2.9c.6-.3 1.2-.5 1.8-.7l-3.4-1.6 4.5 1.3c.4-.3.9-.4 1.3-.5" fill="#caa977"/><path d="M12.7 24.4l-8.4-2.5c.6 1.3 1.8 2.2 3.2 2.5 2.3.7 11.2 3.3 16 4.8.2-.3.5-.5.7-.7L22 27.4l2.8.6c.3-.2.5-.4.8-.6L4.2 20.2c0 .2 0 .4-.1.6l8.6 3.6" fill="#9a9999"/><path d="M31.3 25.2l-5.9-2.5c-2.8-1.1-13.8-5.5-16.2-6.4-.7-.3-1.5-.3-2.2 0l15.9 6.5-17.1-5.6c-.3.3-.5.5-.7.9C9.5 19.6 22 24 24.5 24.9l3.5 1.3.9-.3-3.4-1.6 4.5 1.3c.4-.2.8-.3 1.3-.4" fill="#fff"/><path d="M70.8 34.9c-.4-.6-1.1-1-1.7-.7-.6-.5-1.3-.8-2.1-1-.3.1-.6.2-.8.4-.6-.6-1.4-.9-2.2-.9-.5.2-.9.6-1.2 1 .2 2.1-.4 4.2-1.6 6 .4.2.8.3 1.3.2.2-.6.6-1.1 1.1-1.5 0 0-.9 1.7-.6 2.5.2.5 1.4 1.1 2.6 1.2.1-1 .5-2 1.2-2.7-.3.9-.7 2.2-.5 2.4.6.3 1.3.4 2 .3.3-2.5 1.1-5 2.5-7.2m-8.4-9c.1-.9-.2-1.9-.9-2.5.1 1.2-.5 2.3-1.5 2.8.7.3 1.3.7 1.9 1.1 0-.1 0-.4.5-1.4m-.8-14.3c-1.1.7-2.4 1.2-3.7 1.4 1.6.8 3 2.1 4 3.7.7-1.6.6-3.4-.3-5.1" fill="#caa977"/><path d="M61.5 32.2c-.7 1.3-2.1 2.2-3.6 2.4.2-.3.3-.6.3-1-.7.5-1.2 1.2-1.7 1.9 0 .2-.1.3-.1.5 1-.2 2.1-.1 3 .4.4.3-.6 2.5-1.4 3-.4.2-.8.2-1.3.2.5-.2 1.3-1.7 1-2.2-.5-.6-4.5.7-8.1 1.4-.5.1-.8.6-.8 1.1-.8-1-2.1-3.3-1.3-5.1-.3-.1-.7-.1-1.1 0 .2-1.3 3-1.6 5.5.4.7.5 1.6.9 2.5 1 .2-.2 1.1-.8.8-1.4-.7-.8-1.6-1.4-2.5-1.9 0 .5.1 1 .3 1.5-1.3-.2-2.4-.8-3.4-1.6-.6-.7-1.1-1.5-1.3-2.3-1.2 0-2.7.8-3.3 4.2.2-.3.5-.5.8-.8v.7c0 1.8.7 5.2 2 6.5s3.5 1.1 5.4.7c-.4.5-.8 1-1.3 1.5 1.6-.4 3.1-1.1 4.4-2.2-.4.7-.8 1.3-1.4 1.8 1.2-.1 2.3-.7 3.1-1.7 1.7-2.3 3.4-4.5 3.1-7.4.2-.4.3-1 .4-1.6" fill="#fff"/><path d="M60.5 30.2c-.4-.5-2.7.7-3.4 1-.5.3-1.1.3-1.6 0-5-1.9-5.4-1.5-5.5-1.2-.4.9.7 2.2 1.9 2.9-.2-.4-.2-.9-.2-1.4-.3-.1-.6-.2-.9-.4.8-.3 3.6.6 5.3 2.6.4-.6.6-1.2.6-1.9.1.5.1 1.1 0 1.6.9-1 2.7-2.2 3.2-2-.2.1-.4.2-.6.4-.1.4-.1.7-.2 1 1.6-1.1 1.6-2.4 1.4-2.6" fill="#fbbea1"/><path d="M59.9 27.3c-2.4-2.1-4.3-1.6-4.8-1.4.1-.3.4-.6.7-.7.2-.1.4-.2.5-.4-.7-.4.7-3.3.9-3.5.5-.4 1.1-.6 1.8-.5-.7.3-2.3 2.9-2 3.1.5.4 3.2-2.5 4.8-2.5a8.9 8.9 0 0 0-1.2-3.8c-1.5-2.4-4.9-4.3-8.3-4.9.5.5.9 1.1 1.3 1.8-2.5-1.4-6.5-1.7-9.2.3.1-.5.3-.9.6-1.3-2.3-1.4-5-2.3-7.7-2.5-1.2 1.8-1.8 7.7 1.2 11.2.5-.1.9-.3 1.3-.6-.1.9-1.3 1.5-1.3 1.6-.9 1.8-1.2 3.7-1 5.7.6-.8 1.5-1.4 2.5-1.5-1.2.9-3.5 3.7 2 5.7.3.1.6.3.8.5-.3-1.7.1-3.4 1.7-4.1-.2.6-.4 1.2-.5 1.8.7-1.6 2-2.7 3.6-3.2-.3.5-.4 1-.4 1.6.3-.4.7-.8 1.1-1.2 1-.8 6.3 1.4 7.1 1.5.5.1 1 .1 1.5 0 1.2-.2 3.2-1 4.2-.8-.3-.6-.5-1.3-1.2-1.9" fill="#caa977"/><path d="M43 31.1c-.1-.1-.6-1-2.8-1.8.4-.1.8-.1 1.2-.1-.9-.6-1.7-1.1-1.4-2-1.2.9-3.5 3.7 2 5.7.3.1.6.3.8.5-.1-.8 0-1.5.2-2.3m-4.1-12.5c.3-1.3 1.1-2.5 2.1-3.4-1.2-3-2.4-3.2-3.2-3.5 0 0 .7.4 1.1 3.4-.4-.3-.8-.6-1.2-1 .2 1.5.6 3 1.2 4.5" fill="#fff"/><path d="M37.8 11.7c.8.3 2.1.5 3.2 3.5-1.7 1.4-2.6 3.5-2.4 5.7.7-1.9 1.8-3.5 3.3-4.8.3.1.6.3.8.5-.1-1.6-1.9-4.9-4.9-4.9" fill="#0c233f"/><path d="M61.7 20.1c-.4-.6-1.1-1-1.8-1.2.6.5.9 1.2 1 2-1.9.7-3.2 3-3.8 3 .5.4 3.2-2.5 4.8-2.5 0-.4-.1-.8-.2-1.3m-10.3 16c-.1-.3-.6-.6-.8-.4 0-.4-.6-.8-1.2-.7-.3.1.3 2.8.7 2.8.2 0 .4-.9.5-1.6.1.3.2.7.4.7s.4-.3.5-.5c.1.3.3.6.4.6.2-.1.3-.3.4-.5-.1-.1-.4-.3-.9-.4" fill="#fff"/><path d="M29.2 29c-6.4 3.2-6.1 8.4-6 10 .3 4.7 2.6 9 6.2 12-.4-1.5-.7-3.1-.7-4.7 0 0 5 11.9 24.8 13.5-1.2-.6-2.1-1.5-2.8-2.6 6.1 1.3 12.5.7 18.3-1.6-1.4 0-2.8-.1-4.2-.4 1.9-.4 9-3.5 11.6-9.5 0 .6 0 1.1-.1 1.7 2.8.4 3.4-4.9 5.6-6.6.3-.2-.3-.9-1.2-1.3.1-.4.1-.7 0-1.1-.1-.5-.8-.8-2.6-1.1 0-.3-.1-.6-.3-.8-1-.5-2.2-.5-3.3-.1 0 0-2-.2-2.4.2-.7.6-2 3.4-2.4 5.7.4 0 .8-.1 1.2-.2-2.3 3.2-11.7 1.5-16.5 3.8 1 .8 2.1 1.4 3.3 1.8-1.6-.1-3.2-.4-4.7-.9-5.4-1.8-8-5.4-10.5-8.7-4-5-7.5-6.1-9.7-5.8 1.3-.6 2.7-.7 4.1-.2-1.1-.8-3.1-2-7.6-.8 1.6-1.2 3.6-1.8 5.6-1.9 0-.6 0-1.2.1-1.8-3.1-.6-6.4.2-8.9 2.2 1.2-.5 2.1-.7 3.1-.8m54.3 16.7c0-.2.1-.4.2-.6.2-.9.7-1.7 1.3-2.5 0-.1-.1-.1-.1-.1l-1.2-.4c-.3-.1-1 .9-1.5 2.5-.2.2-.2.4-.3.5l1.6.6" fill="#caa977"/><path d="M84.9 42.7c0-.1-.1-.1-.1-.1l-1.2-.4c-.2-.1-.7.5-1.2 1.5l1.6.5c.2-.6.5-1.1.9-1.5M48 20.3c1 1.2 3.2 3.1 4.3 2.8-1.3-.4-2.1-1.7-3.2-3L48 18.8c.2-.7 1.8-1.3 1.8-1.3-2-.5-4.1.1-5.7 1.4.9-.4 2-.9 3.9 1.4" fill="#fff"/><path d="M52.7 24.7c-.2-.1-.3-.3-.3-.5.3 0 .5-.1.8-.2.9-.9-.2-3.1-.6-3.4-.6-.3-1.3-.5-2-.5 1.8 1.4 2 2.8 1.8 2.9-1.1.5-3.4-1.5-4.5-2.7-2-2.3-3.1-1.8-3.9-1.3.6.1 1.1.3 1.5.7-1.1 3.1.4 5 1.8 5.8-.7.3-1.4.8-1.9 1.4.9-.3 1.8-.6 2.7-.8-.5.4-.9.9-1.2 1.4 2.1-1.6 4.9-2.3 7.5-1.8-.3-.6-1-1-1.7-1" fill="#0c233f"/><path d="M48.7 24.3c-.6.1-1.1-.5-1.3-1.2-.2-.1-.3-.3-.3-.5s.1-.4.3-.4c0-.2.1-.4.2-.6-.2-.2-.5-.6-.9-1-.8 1.6-.1 3.5 1.5 4.3.5.2 2.1.4 2.5-.9-.4-.1-.8-.3-1.1-.5-.1.3-.4.7-.9.8z" fill="#79bc43"/><path d="M47 22.6c0 .2.1.4.3.5h.1c.3 0 .5-.2.5-.5s-.2-.5-.5-.5h-.2c-.1.1-.2.3-.2.5z" fill="#fff"/><path d="M60.5 23.1l-.9.6v.2c.2 0 .3.2.3.3 0 .2-.1.4-.3.4h-.1c-.1.4-.6.7-1 .6-.3-.1-.5-.3-.6-.6-.2.1-.3.1-.5.1 0 .1.1.3.1.4.5.1 1.1.2 1.6.4.9-.3 1.5-1.3 1.4-2.4z" fill="#79bc43"/><path d="M59.9 24.3c0-.2-.1-.3-.3-.3h-.1c-.2 0-.3.2-.3.4 0 .1.1.3.2.3h.1c.2-.1.4-.2.4-.4z" fill="#fff"/><path d="M55 25.2c1-1.9 1.4-4.4-.6-6.1 1 1.9 1.2 4.1.6 6.1m21 43h-.1l-.5-1.4h-.8V69h.5v-1.8l.6 1.8h.5l.6-1.8V69h.5v-2.2h-.8zm-3.6-1h.7V69h.5v-1.8h.6v-.4h-1.8z" fill="#0c233f"/></svg>