<svg xmlns="http://www.w3.org/2000/svg" viewBox="0 0 152.64 153"><g data-name="Layer 2"><g data-name="Layer 1"><path d="M141.32 121.144h-1.436v3.919h-.98v-3.92h-1.437v-.847h3.853zm6.539 3.919h-.97v-3.792h-.016l-1.404 3.792h-.927l-1.336-3.792h-.042v3.792h-.954v-4.767h1.67l1.128 3.119h.016l1.16-3.12h1.675zM138.83 4.246C124.61-7.147 111.686 7.1 111.686 15.26c14.249 3.042 26.957 17.267 21.26 54.274-4.642 30.242-22.48 49.073-33.714 49.46a131.217 131.217 0 0 0 17.408-34.048c3.816-11.737 5.628-21.586 5.628-29.858.01-11.37-3.1-19.721-7.376-25.27a23.848 23.848 0 0 0-7.017-6.233 16.546 16.546 0 0 0-7.646-2.14 25.544 25.544 0 0 0-16.142 6.188c-6.862 5.744-12.204 14.642-15.961 24.898a99.075 99.075 0 0 0-5.845 33.271 71.553 71.553 0 0 0 4.176 25.156 43.805 43.805 0 0 0 7.201 12.63 43.02 43.02 0 0 1-5.924 4.924c-4.272 2.9-8.532 4.443-12.75 4.443a17.76 17.76 0 0 1-6.036-1.076 10.742 10.742 0 0 1-6.258-6.038c-1.436-3.103-2.21-7.427-2.2-12.615-.026-12.861 4.643-30.733 11.813-48.49 6.788-16.863 15.807-33.69 24.953-46.45a241.56 241.56 0 0 0-6.141-.118c-24.318.006-41.954 5.618-53.665 13.842C5.755 40.214.005 51.12 0 61.268A24.089 24.089 0 0 0 7.143 78.7a13.335 13.335 0 0 0 9.613 4.236 10.828 10.828 0 0 0 10.975-11.57 13.54 13.54 0 0 0-3.79-8.704 13.984 13.984 0 0 0-5.023-3.395 22.18 22.18 0 0 1 6.1-6.799c4.149-3.145 10.132-5.837 18.192-7.283a205.765 205.765 0 0 0-12.655 26.247c-6.062 15.397-9.363 30.01-9.369 42.682 0 8.625 1.537 16.38 4.95 22.803a30.072 30.072 0 0 0 15.95 14.202A27.313 27.313 0 0 0 52.091 153h.016c6.556-.005 13.068-2.228 19.3-5.956a74.086 74.086 0 0 0 14.721-11.897c9.873 5.368 32.824 7.554 50.232-23.48 20.884-37.201 21.642-92.036 2.47-107.421zM85.433 108.26c-7.323-14.464-6.28-36.056.1-51.209 5.454-12.953 16.27-16.12 16.27-.008 0 17.552-8.744 38.359-16.37 51.217z" fill="#11225b"/><path d="M136.704 6.91c-4.541-3.642-9.236-4.458-13.597-2.36a15.457 15.457 0 0 0-7.499 8.265c8.78 2.944 22.124 12.046 22.124 40.064a114.464 114.464 0 0 1-1.41 17.178c-4.398 28.539-20.285 47.923-32.998 51.664a12.892 12.892 0 0 1-9.432-.466 144.587 144.587 0 0 0 19.665-37.391c14.61-42.77-3.794-59.142-13.041-59.142-30.185-1.048-48.653 72.507-22.384 98.947-8.998 9.788-19.496 15.166-30.29 11.295-24.44-8.775-2.47-74.658 23.268-113.517-63.172.01-78.1 38.777-61.635 54.958 3.646 3.829 9.306 4.37 12.644 1.195 3.339-3.174 3.095-8.855-.551-12.686a10.2 10.2 0 0 0-7.165-3.264c2.634-9.205 13.566-18.77 35.023-20.575-28.918 47.571-34.975 95.739-6.153 106.997 13.63 5.325 29.146-2.615 42.664-17.183 3.81 2.083 9.12 4.022 13.673 3.959 9.045-.133 22.246-4.288 33.798-24.854 9.623-17.161 15.389-39.124 15.808-60.281.408-20.2-4.282-36.203-12.512-42.803zM96.541 42.893c16.258 0 7.515 43.915-11.144 71.5-16.21-21.725-6.603-71.5 11.144-71.5z" fill="#fff"/></g></g></svg>