<svg xmlns="http://www.w3.org/2000/svg" viewBox="0 0 109.483 138.18"><g data-name="Layer 2"><path d="M93.061 91.62a7.983 7.983 0 0 0-1.399-4.486 5.683 5.683 0 0 1-6.35 2.647c-2.312-.559-4.142-2.206-4.17-3.753V50.92l.495.201a8.734 8.734 0 0 1 5.086 6.696 10.813 10.813 0 0 1 .163 1.83 8.506 8.506 0 0 1-2.085 5.545c2.396-.479 9.472-2.638 9.472-11.569 0-8.242-6.66-13.281-12.846-14.479l-.284-.059V14.55c.027-1.547 1.857-3.194 4.17-3.753a5.69 5.69 0 0 1 6.349 2.644 7.966 7.966 0 0 0 1.4-4.483 9.14 9.14 0 0 0-2.364-6.098c-3.445-3.8-9.144-3.812-15.242-.036l-.192.119-.186-.119C68.974-.952 63.275-.94 59.832 2.863a9.121 9.121 0 0 0-2.36 6.092 8.006 8.006 0 0 0 1.4 4.486 5.701 5.701 0 0 1 6.36-2.644c2.307.562 4.135 2.21 4.161 3.759v27.417l-.198.098a41.612 41.612 0 0 0-12.701 10.374l-.272.334-.278-.334S24.596 14.438 24.519 14.136c.355-1.615 2.452-3.14 4.782-3.466a5.657 5.657 0 0 1 5.696 2.771 8.007 8.007 0 0 0 1.393-4.483 9.11 9.11 0 0 0-2.366-6.095C30.584-.94 24.88-.952 18.782 2.824l-.186.119-.19-.119c-6.104-3.78-11.8-3.764-15.245.039A9.134 9.134 0 0 0 .796 8.958a7.969 7.969 0 0 0 1.401 4.483 5.697 5.697 0 0 1 6.359-2.644c2.306.562 4.137 2.21 4.16 3.759v24.605l-.278.062C6.248 40.59 0 45.57 0 53.622c0 8.931 7.092 11.09 9.481 11.57a8.588 8.588 0 0 1-2.088-5.566 9.845 9.845 0 0 1 .116-1.49 8.876 8.876 0 0 1 4.699-6.818l.508-.251v34.961c-.023 1.544-1.854 3.194-4.16 3.753a5.686 5.686 0 0 1-6.359-2.647 7.983 7.983 0 0 0-1.401 4.484 9.135 9.135 0 0 0 2.365 6.098c3.446 3.803 9.141 3.818 15.245.035l.19-.118.186.118c6.1 3.78 11.803 3.768 15.242-.035a9.106 9.106 0 0 0 2.366-6.098 8.022 8.022 0 0 0-1.393-4.484 5.705 5.705 0 0 1-6.367 2.647c-2.307-.559-4.134-2.209-4.161-3.758V53.652l.562.381C33.722 59.957 40.43 72.067 41.237 79.7v40.063c0 4.264-2.884 7.54-5.666 8.239a4.37 4.37 0 0 1-4.865-2.165 7.714 7.714 0 0 0-1.381 4.318 7.898 7.898 0 0 0 2.055 5.305c3.38 3.735 9.197 3.617 15.544-.316l.189-.119.192.119c6.347 3.933 12.158 4.051 15.541.316a7.884 7.884 0 0 0 2.055-5.305 7.759 7.759 0 0 0-1.38-4.318 4.218 4.218 0 0 1-4.7 2.055c-2.818-.707-5.835-4.14-5.835-8.13V80.248a29.022 29.022 0 0 1 2.972-9.892l.243-.509.364.438s12.73 15.65 12.81 15.913c-.156 1.576-2.105 3.18-4.432 3.646a5.756 5.756 0 0 1-6.104-2.646 8.047 8.047 0 0 0-1.366 4.427 9.12 9.12 0 0 0 2.36 6.092c3.442 3.803 9.14 3.815 15.245.035l.186-.118.192.118c6.098 3.78 11.797 3.768 15.242-.035a9.13 9.13 0 0 0 2.363-6.095zm-45.94-22.504l-.316-.822c-5.9-15.559-15.298-22.964-22.141-26.439l-.195-.1V30.86l25.468 31.288.127.186zm22.272-.361l-6.973-8.45.192-.23a35.299 35.299 0 0 1 6.21-5.74l.571-.405zm38.156 14.556l-1.325 3.59h-.036l-1.265-3.59h-1.949v5.497h1.118v-4.374h.026l1.538 4.374h1.088l1.592-4.374h.02v4.374h1.127v-5.497h-1.934zm-10.017.982h1.654v4.515h1.12v-4.515h1.657v-.982h-4.431v.982z" data-name="Layer 1" fill="#ff5910"/></g></svg>