<svg viewBox="0 0 270 270" xmlns="http://www.w3.org/2000/svg"><path fill="#004c9d" d="M 115.877 0 C 189.619 0 250.151 59.771 250.872 133.655 C 251.603 208.706 190.766 270 115.877 270 C 78.462 270 44.562 254.7 20.083 230.028 C 18.743 228.677 18.793 226.464 20.195 225.164 L 58.654 189.324 C 59.304 188.715 60.137 188.41 60.969 188.41 C 61.801 188.41 62.654 188.725 63.304 189.354 C 76.929 202.533 95.47 210.656 115.877 210.656 C 157.656 210.656 191.629 176.612 191.527 134.812 C 191.426 93.763 157.088 59.436 116.029 59.354 C 115.978 59.354 115.927 59.354 115.867 59.354 C 95.46 59.354 76.919 67.477 63.294 80.656 C 62.644 81.285 61.801 81.6 60.959 81.6 C 60.116 81.6 59.294 81.295 58.644 80.686 L 20.185 44.846 C 18.783 43.546 18.733 41.343 20.072 39.982 C 44.288 15.574 77.722 0.335 114.658 0.01 L 115.856 0.01"/><g fill="#ffffff" transform="matrix(1.015305, 0, 0, 1.015305, -55.099846, -40.551258)"><path d="m105.12 89.57-.04-.08c-4.54-8.01-1.96-17.71 5.97-22.21 2.87-1.63 6.18-2.54 10.13-2.67.67-.02 1.3.36 1.58.97l1.44 3.11c.26.55-.15 1.18-.76 1.18-3.78.02-6.83.75-9 1.98-5.4 3.06-6.96 9.39-4 14.6l.04.08c2.96 5.21 9.18 7.12 14.58 4.06 2.17-1.23 4.37-3.48 6.32-6.71.32-.52 1.06-.55 1.41-.04l1.93 2.83c.38.56.39 1.29.02 1.85-2.14 3.33-4.63 5.7-7.5 7.32-7.93 4.5-17.59 1.74-22.13-6.27z"/><path d="m138.38 72.25v-.09c-1.21-9.13 4.84-17.15 14.31-18.39s17.38 4.95 18.57 14.07v.09c1.21 9.13-4.84 17.14-14.31 18.39-9.47 1.24-17.38-4.95-18.57-14.07zm26.78-3.51v-.09c-.79-5.94-5.84-10.05-11.74-9.28s-9.72 6.05-8.94 11.99v.09c.79 5.94 5.84 10.05 11.74 9.28s9.72-6.05 8.94-11.99z"/><path d="m180.08 72.75 4.46-18.16c.11-.45.56-.72 1.01-.61l4.28 1.05c.45.11.72.56.61 1.01l-4.5 18.29c-1.05 4.26.66 7.32 4.84 8.34 4.17 1.03 7.1-.89 8.15-5.15l4.5-18.29c.11-.45.56-.72 1.01-.61l4.03.99c.45.11.72.56.61 1.01l-4.46 18.16c-1.88 7.63-7.34 11.3-15.31 9.34s-11.11-7.74-9.23-15.37z"/><path d="m226.42 67.6 3.04 2.1c.44.31.71.81.72 1.34l.43 24.41 11.2-16.22c.26-.38.78-.47 1.16-.21l3.31 2.28c.38.26.47.78.21 1.16l-17.06 24.71c-.26.38-.78.47-1.16.21l-2.54-1.75c-.44-.31-.71-.81-.72-1.35l-.44-25.47-11.69 16.93c-.26.38-.78.47-1.16.21l-3.31-2.28c-.38-.26-.47-.78-.21-1.16l17.06-24.71c.26-.38.78-.47 1.16-.21z"/><path d="m253.33 94.32 2.98-2.22c.37-.28.89-.2 1.17.17l13.83 18.59c.28.37.2.89-.17 1.17l-2.98 2.22c-.37.28-.89.2-1.17-.17l-5.1-6.86-20.44 15.21c-.37.28-.89.2-1.17-.17l-2.63-3.54c-.28-.37-.2-.89.17-1.17l20.44-15.21-5.1-6.86c-.28-.37-.2-.89.17-1.17z"/><path d="m248.76 133.98 28.29-10.06c.43-.15.91.07 1.07.51l6.04 17c.15.43-.07.91-.51 1.07l-3.5 1.24c-.43.15-.91-.07-1.07-.51l-4.29-12.06-7.2 2.56 4 11.24c.15.43-.07.91-.51 1.07l-3.25 1.16c-.43.15-.91-.07-1.07-.51l-4-11.24-7.69 2.74 4.29 12.06c.15.43-.07.91-.51 1.07l-3.5 1.24c-.43.15-.91-.07-1.07-.51l-6.05-17c-.15-.43.07-.91.51-1.07z"/><path d="m287.05 160.77c.46 0 .84.37.84.83l.1 10.85c.07 7.38-3.63 11.15-9.45 11.21h-.09c-4.43.04-7.62-2.27-8.97-7.12l-11.81 7.52c-.55.35-1.28-.04-1.28-.7l-.04-4.41c0-.58.3-1.13.79-1.44l11.63-7.18-.03-3.3-11.67.11c-.46 0-.84-.37-.84-.83l-.04-4.41c0-.46.37-.84.83-.84zm-4.27 10.72-.04-4.6-8.77.08.04 4.6c.04 4.08 1.4 5.94 4.4 5.91h.09c3-.03 4.32-1.91 4.29-5.99z"/><path d="m105.15 256.37.04-.08c4.53-8.01 14.18-10.78 22.12-6.29 2.87 1.62 5.36 3.99 7.5 7.32.36.57.36 1.3-.02 1.85l-1.92 2.83c-.34.5-1.09.48-1.41-.04-1.96-3.23-4.16-5.48-6.33-6.7-5.4-3.06-11.63-1.14-14.58 4.07l-.04.08c-2.95 5.22-1.39 11.54 4.02 14.6 2.17 1.23 5.23 1.95 9.01 1.97.61 0 1.02.63.76 1.18l-1.44 3.11c-.28.61-.91.99-1.58.97-3.95-.13-7.27-1.04-10.14-2.66-7.94-4.49-10.53-14.19-6-22.2z"/><path d="m143.7 257.74 4.34.8c.45.08.75.52.67.97l-4.63 25.06 13.36 2.47c.45.08.75.52.67.97l-.67 3.65c-.08.45-.52.75-.97.67l-18.51-3.42c-.45-.08-.75-.52-.67-.97l5.45-29.53c.08-.45.52-.75.97-.67z"/><path d="m165.16 277.95v-.09c-1.18-9.13 4.88-17.13 14.36-18.35s17.36 5 18.53 14.13v.09c1.18 9.13-4.88 17.13-14.36 18.35-9.48 1.21-17.36-5-18.53-14.13zm26.79-3.43v-.09c-.77-5.94-5.81-10.07-11.71-9.31s-9.73 6.02-8.97 11.96v.09c.77 5.94 5.81 10.07 11.71 9.31s9.73-6.02 8.97-11.96z"/><path d="m206.16 270.62-.04-.08c-4.44-8.06-1.73-17.73 6.26-22.13 2.89-1.59 6.21-2.46 10.17-2.54.67-.01 1.29.38 1.57.99l1.4 3.13c.25.56-.16 1.18-.77 1.17-3.77-.03-6.84.66-9.03 1.86-5.44 2.99-7.08 9.3-4.19 14.55l.04.08c2.89 5.25 9.09 7.24 14.53 4.25 2.19-1.2 4.41-3.43 6.41-6.63.32-.52 1.07-.53 1.41-.03l1.89 2.86c.37.56.37 1.29 0 1.85-2.18 3.3-4.7 5.64-7.59 7.23-7.99 4.4-17.6 1.51-22.04-6.55z"/><path d="m228.03 238.41 2.87-3.35c.3-.35.83-.39 1.18-.09l11.51 9.84-4.23-18.61c-.12-.51.02-1.05.36-1.46l2.63-3.08c.45-.52 1.3-.31 1.45.36l3.09 13.85c.04.16.16.28.32.32l19.36 4.02c.62.13.88.88.46 1.36l-2.84 3.32c-.4.46-1.02.68-1.61.55l-14.66-3.1 1.32 7.06c.04.19.13.36.28.48l5.38 4.6c.35.3.39.83.09 1.18l-2.86 3.35c-.3.35-.83.39-1.18.09l-22.83-19.51c-.35-.3-.39-.83-.09-1.18z"/><path d="m273.6 209.27-.08-.03c-1.57-.62-3.02-.4-5.01 1.94l-2.85 3.31c-3.86 4.45-7.31 5.75-11.39 4.14l-.08-.03c-4.93-1.95-6.95-7.46-4.46-13.76.93-2.36 2.59-4.75 5.11-7.3.5-.51 1.28-.64 1.93-.33l3.22 1.58c.52.25.63.95.21 1.35-2.7 2.63-4.6 5.21-5.41 7.25-1.02 2.58-.38 4.61 1.28 5.27l.08.03c1.41.56 2.88.16 4.56-1.84l2.72-3.22c4.57-5.43 7.93-6.25 12.29-4.53l.08.03c4.89 1.93 6.79 7.86 4.32 14.12-1.21 3.06-3.16 5.88-5.79 8.63-.5.53-1.29.67-1.95.35l-3.29-1.61c-.51-.25-.63-.94-.22-1.34 2.87-2.86 5.11-5.87 6.04-8.23 1.05-2.66.43-5.11-1.31-5.79z"/></g></svg>
