<svg enable-background="new 0 0 426.957 363.057" viewBox="0 0 426.957 363.057" xmlns="http://www.w3.org/2000/svg"><path clip-rule="evenodd" d="m112.715 45.734c.349 1.061.677 2.061 1.005 3.06.552 1.685 1.105 3.372 1.656 5.059.075.223.154.445.208.674.044.19.134.248.33.246 1.451-.008 2.903-.005 4.353-.005h4.767.218c.003.016.006.031.011.047-2.587 1.85-5.173 3.702-7.773 5.564.974 2.96 1.947 5.914 2.919 8.87-.012.009-.026.02-.039.031-2.551-1.812-5.101-3.622-7.655-5.435-2.559 1.818-5.108 3.628-7.657 5.438-.012-.01-.025-.019-.037-.027.165-.495.33-.988.491-1.483.789-2.4 1.577-4.799 2.372-7.196.056-.168.011-.24-.12-.333-2.526-1.798-5.047-3.601-7.57-5.405-.011-.008-.014-.025-.037-.072h.252c3.033 0 6.065-.002 9.096.005.193 0 .276-.053.338-.24.661-2.049 1.334-4.098 2.003-6.146.282-.862.565-1.724.869-2.652" fill="#044c2d" fill-rule="evenodd"/><path clip-rule="evenodd" d="m162.078 22.062c.348 1.06.678 2.059 1.005 3.058.552 1.686 1.107 3.372 1.657 5.059.073.224.152.447.207.676.045.188.134.247.332.246 1.451-.009 2.9-.005 4.351-.005 1.591 0 3.18 0 4.769-.002h.216c.005.017.008.031.011.048-2.586 1.851-5.171 3.702-7.771 5.562.974 2.96 1.947 5.915 2.919 8.87-.014.011-.026.022-.04.031-2.55-1.81-5.101-3.621-7.653-5.434-2.56 1.818-5.109 3.627-7.658 5.437-.012-.008-.025-.017-.037-.026.165-.495.33-.988.493-1.482.789-2.4 1.575-4.8 2.37-7.196.056-.168.011-.24-.118-.333-2.526-1.799-5.048-3.603-7.571-5.407-.009-.006-.013-.023-.037-.072h.254c3.032 0 6.065 0 9.096.006.193 0 .276-.055.336-.24.663-2.051 1.335-4.098 2.004-6.146.28-.86.563-1.724.865-2.65" fill="#044c2d" fill-rule="evenodd"/><path clip-rule="evenodd" d="m217.781 0c.473 1.438.919 2.795 1.364 4.151.75 2.288 1.5 4.579 2.248 6.867.101.304.209.606.283.917.059.256.182.336.448.334 1.969-.013 3.937-.006 5.908-.006h6.47.294c.006.021.011.04.017.064-3.511 2.512-7.021 5.025-10.551 7.549 1.322 4.018 2.643 8.029 3.963 12.04-.017.015-.036.029-.053.042-3.462-2.456-6.924-4.915-10.39-7.376-3.473 2.467-6.935 4.924-10.395 7.38-.015-.01-.032-.023-.049-.036.224-.672.448-1.341.667-2.011 1.071-3.257 2.138-6.515 3.217-9.768.078-.228.017-.325-.161-.452-3.428-2.442-6.852-4.89-10.274-7.336-.015-.01-.02-.034-.051-.097h.342c4.115 0 8.232-.002 12.347.006.262 0 .374-.074.456-.325.9-2.784 1.812-5.562 2.721-8.341.383-1.173.766-2.346 1.179-3.602" fill="#044c2d" fill-rule="evenodd"/><path clip-rule="evenodd" d="m277.946 13.289c.349 1.06.677 2.059 1.005 3.058.553 1.686 1.105 3.374 1.656 5.059.075.224.154.447.209.676.044.188.134.247.33.246 1.451-.009 2.901-.005 4.353-.005h4.767.216c.005.016.008.03.012.047-2.587 1.85-5.173 3.702-7.774 5.562.974 2.96 1.947 5.915 2.92 8.871-.013.011-.027.022-.039.031-2.551-1.81-5.101-3.621-7.655-5.434-2.558 1.818-5.109 3.627-7.658 5.437-.011-.008-.023-.017-.036-.026.165-.495.33-.988.492-1.481.789-2.4 1.575-4.8 2.37-7.196.058-.168.013-.24-.118-.333-2.525-1.799-5.048-3.603-7.569-5.405-.011-.007-.014-.025-.038-.072h.252c3.031 0 6.065-.001 9.096.005.193 0 .275-.054.336-.24.663-2.051 1.335-4.098 2.005-6.146.282-.865.565-1.729.868-2.654" fill="#044c2d" fill-rule="evenodd"/><path clip-rule="evenodd" d="m328.668 34.414c.349 1.06.677 2.059 1.005 3.058.553 1.686 1.105 3.374 1.656 5.059.075.224.154.447.209.676.044.188.134.247.33.246 1.451-.009 2.901-.005 4.353-.005h4.767.216c.005.016.008.03.012.047-2.587 1.85-5.173 3.702-7.774 5.562.974 2.96 1.947 5.915 2.92 8.871-.013.011-.027.022-.039.031-2.55-1.81-5.101-3.621-7.655-5.434-2.558 1.818-5.109 3.627-7.658 5.437-.011-.008-.023-.017-.036-.026.165-.495.33-.988.492-1.481.789-2.4 1.575-4.8 2.37-7.196.058-.168.013-.24-.118-.333-2.525-1.799-5.048-3.603-7.569-5.405-.011-.007-.014-.025-.038-.072h.252c3.031 0 6.065-.001 9.096.005.193 0 .275-.054.336-.24.663-2.051 1.335-4.098 2.005-6.146.281-.864.564-1.728.868-2.654" fill="#044c2d" fill-rule="evenodd"/><path d="m308.486 194.846c.209-1.034.237-2.232.266-3.501.07-2.996.156-6.724 2.649-10.619 2.712-4.236 7.934-7.597 11.906-9.049 4.022-1.47 7.132-4.999 9.644-8.256l1.354-1.755 1.805.231c.665-.086 5.421-.958 11.233-9.36l.62-.895c4.664-6.735 10.468-15.118 9.665-18.889-.098-.462-.333-1.016-1.335-1.623-3.438-2.087-6.538-5.558-9.82-9.232-4.629-5.182-9.415-10.541-14.095-10.645l-5.141-.114 1.445-4.734c.186-.947.995-7.518-11.442-10.859l-1.932-.519-.706-1.872c-.014-.037-2.303-5.78-9.234-12.404-6.428-6.143-18.287-14.329-38.279-18.442-18.114-3.727-32.29-2.64-40.994-1.072-9.438 1.702-14.651 4.313-14.703 4.339l-.718.364-.815.056c-.27.017-27.523 1.887-54.984 15.881-10.443 5.322-19.576 11.703-27.316 19.049-30.693 30.559-38.649 77.219-16.488 113.382 26.226 42.794 84.679 54.691 130.569 26.573.013-.008.026-.017.039-.025-3.433-6.359-8.239-15.305-10.051-18.886l-1.176-2.326 20.145-23.436 2.774 1.529c.672.371 16.226 9.124 14.417 23.599.072.135.249.368.68.635 1.48.915 6.544 2.598 21.559-1.51 10.676-2.921 13.08-6.42 13.618-7.788.485-1.231.057-2.199.052-2.207l-1.331-2.15 1.421-2.093c.029-.048 3.44-5.167 4.699-11.377z" fill="#fff"/><g fill="#044c2d"><path d="m164.781 125.55c.198-.605 1.035-2.06 1.156-2.915"/><path d="m271.108 93.538s-3.445 2.452-11.049 5.16c-7.601 2.707-18.845 2.108-27.525 4.559-8.681 2.451-20.689 9.388-20.689 9.388s2.893.241 6.796.433c6.099.363 17.403 2.146 17.403 2.146 8.487-3.481 14.805-6.544 19.507-9.129 3.52-1.781 6.33-3.617 8.532-5.318 3.606-2.638 4.522-4.074 4.522-4.074l-.003.003c1.786-1.91 2.506-3.168 2.506-3.168z"/><path d="m183.51 151.675c18.576-17.294 23.275-32.253 53.823-26.515 0 0-18.19-9.084-38.332-3.169-20.536 6.834-26.482 37.114-61.611 41.445 0-.001 27.542 5.533 46.12-11.761z"/><path d="m179.436 174.271c17.978-6.052 23.027-29.868 58.245-36.685 0 0-23.663-3.865-44.443 15.546-20.779 19.409-23.933 20.963-49.15 18.713 0 0 19.098 7.752 35.348 2.426z"/><path d="m153.507 184.346c13.373 3.125 36.508 1.672 53.135-6.5 16.627-8.171 30.182-28.509 30.182-28.509s-7.221 6.881-29.755 21.4-53.562 13.609-53.562 13.609z"/><path d="m272.278 91.404s-62.521-3.452-97.292 39.458c0 0 13.24-28.996 51.069-42.759 0 0-13.19-3.611-27.795-2.287-.001 0 46.752-11.159 74.018 5.588"/><path d="m323.093 116.646c-.364-.025-.874-.028-1.487-.058-.309-.013-.64-.027-.991-.029-.351.001-.718-.033-1.098-.044-.383-.012-.775-.039-1.174-.042-.407-.005-.823-.008-1.237-.015-.427.041-.867.058-1.279.135-.114.017-.224.043-.335.065.423-.245.838-.485 1.238-.715.193.006.385.015.585.013.284.004.574.009.865.016.298.004.594-.016.887-.031.294-.012.579-.052.857-.079.554-.06 1.064-.151 1.5-.242.43-.087.802-.186 1.034-.244.123-.029.226-.063.3-.064.071-.009.109-.013.109-.013-.004.007-.129-.07-.397-.099-.282-.042-.642-.071-1.088-.09-.444-.022-.956-.028-1.502-.032-.273-.001-.555-.001-.841-.003-.264-.004-.533.007-.801.002.383-.219.731-.417 1.04-.593.091-.006.183-.008.274-.022.288-.035.585-.059.823-.132.252-.065.454-.128.7-.208.111-.05.215-.095.313-.144.095-.053.181-.116.26-.168.158-.118.273-.246.354-.36.079-.112.116-.216.139-.283.02-.072.024-.109.024-.109s-.022.033-.067.084c-.047.052-.121.115-.221.184-.102.067-.237.129-.391.185-.157.054-.342.085-.539.117-.137.007-.318.019-.501.034-.312-.089-1.14-.325-3.344-.952-.748-.213-1.741-.519-2.835-.84.67-.514 1.215-1.044 1.613-1.575.439-.558.737-1.091.955-1.533.229-.438.346-.812.433-1.056.082-.25.108-.387.108-.387s-.366.427-1.063 1.05c-.343.313-.789.658-1.306 1.005-.512.356-1.13.664-1.791.934-.618.215-1.284.362-1.978.406.168-.203.307-.419.428-.632.28-.591.345-1.169.363-1.676-.002-1.015-.244-1.79-.429-2.313-.192-.524-.356-.798-.356-.798s.026.318.035.858c.001.27-.004.596-.027.961-.016.366-.086.769-.165 1.186-.109.41-.263.828-.493 1.176-.136.156-.257.322-.433.428l-.118.092-.118.052c-.038.017-.074.038-.11.059-.032.022-.068.046-.151.063-.139.039-.279.079-.422.119l-.326.047c-.066.012-.131.014-.197.021-.019-.006-.038-.012-.056-.018l-.305-.092-.039-.012h-.002l-.08-.033-.179-.07c-.24-.093-.48-.187-.723-.281-.475-.196-.867-.397-1.322-.589-.734-.359-1.487-.728-2.248-1.112-.636-.714-1.153-1.485-1.584-2.174-.467-.776-.83-1.455-1.078-1.94-.244-.49-.384-.77-.384-.77s-.002.318.073.867c.074.548.219 1.332.532 2.24.076.226.163.461.262.7-.428-.208-.859-.415-1.295-.608-.983-.454-1.995-.852-2.994-1.197-.499-.17-1.006-.317-1.497-.455-.494-.134-.994-.233-1.472-.334-.971-.168-1.896-.281-2.758-.282-.214-.004-.424-.007-.628-.01-.205.008-.405.023-.601.04-.389.037-.756.058-1.097.105-.683.137-1.267.252-1.736.394-.469.15-.826.298-1.069.385-.24.096-.368.147-.368.147s.14.014.4.04c.257.018.636.062 1.102.082.468.039 1.034.157 1.663.228.312.067.644.138.994.213.172.036.349.073.53.111.178.053.361.107.548.161.745.19 1.531.475 2.351.781.405.177.828.321 1.25.516.419.207.857.374 1.291.594.433.227.881.419 1.328.657.45.233.905.469 1.364.706.935.487 1.887.981 2.838 1.475.44.218.889.433 1.341.643-2.149.172-4.493-.079-6.887-.759-2.709-1.342-4.691-.285-4.862-.192l-4.17 2.26 4.739-.14c.043-.002 4.244-.096 6.44 2.623 1.624 2.01 3.127 2.753 4.877 2.41 1.115-.219 2.211-.873 3.476-1.629l.16-.099c.568-.339 1.273-.594 2.105-.757 1.562-.306 3.18-.218 3.443-.22l.741.125c-2.212 1.346-6.479 3.667-10.23 4.097-5.338.613-10.759-4.755-10.759-4.755l-7.721-.402s.933.422 4.775 3.308c3.84 2.884 1.613 5.75-.569 8.24-2.18 2.49-12.789 12.091-17.216 16.114-4.426 4.023-5.451 9.925-5.183 13.614.27 3.69 3.277 16.165 3.277 16.165 2.886-3.833 17.159-20.116 17.159-20.116-.762-2.035-3.6-9.286.557-12.529 4.155-3.242 18.669-16.151 21.343-17.98.919-.628 2.631-1.666 4.483-2.759.232-.064.464-.129.721-.2.336-.078.687-.182 1.052-.249.183-.037.368-.081.556-.11.19-.022.38-.048.571-.079.384-.064.769-.063 1.157-.096.407-.007.813-.011 1.211-.017.41.001.812-.025 1.2-.036.779-.012 1.501-.12 2.115-.2.617-.076 1.126-.204 1.478-.278.177-.036.314-.083.408-.107.095-.025.144-.039.144-.039s-.205-.009-.569-.027zm-17.405-2.643-.164.097c-1.131.676-2.022 1.21-2.751 1.353-.419.082-1.195.234-2.687-1.612-.038-.047-.075-.096-.116-.142 1.814.157 3.565.08 5.193-.24.805-.158 1.409-.34 1.816-.468.052 0 .12.007.195.017l.108.03.094.025c-.008-.002.096.03.06.017l.012.003.028.004.056.011.243.043c-.782.214-1.483.502-2.087.862zm2.609-3.772-.01-.003c-.025-.008-.006-.002.013.004z"/><path d="m318.758 123.245c-.682-.1-1.428-.163-2.221-.172-.792.006-1.635.019-2.496.156-.859.123-1.75.283-2.626.56-.881.253-1.745.604-2.595.986-.422.195-.826.428-1.236.641-.396.24-.792.478-1.171.731-.759.507-1.453 1.078-2.106 1.644-.314.296-.636.574-.928.87-.281.304-.557.601-.823.891-.514.596-.993 1.165-1.377 1.731-.195.279-.383.546-.562.802-.17.258-.315.516-.461.751-.29.47-.527.888-.699 1.245-.357.706-.542 1.117-.542 1.117s.309-.336.815-.933c.244-.305.573-.649.934-1.052.355-.41.783-.844 1.241-1.32.224-.244.471-.482.735-.721.262-.239.508-.508.793-.754.281-.245.573-.498.87-.757.303-.245.614-.495.933-.751.317-.252.66-.48.996-.728.338-.239.703-.452 1.051-.691.359-.225.734-.424 1.1-.647.381-.192.756-.4 1.145-.579.773-.366 1.56-.708 2.365-.957.397-.142.804-.24 1.199-.367.401-.097.794-.212 1.192-.283.788-.164 1.564-.274 2.304-.358.741-.06 1.448-.108 2.104-.113.655.004 1.261.011 1.796.051.537.038 1.007.08 1.394.131.773.097 1.217.193 1.217.193s-.393-.23-1.138-.509c-.741-.283-1.839-.614-3.203-.808z"/><path d="m314.454 127.147c-.469.248-.958.57-1.426.976-.475.396-.936.877-1.337 1.433-.412.548-.745 1.183-1.017 1.849-.272.669-.453 1.379-.569 2.092-.062.357-.074.717-.113 1.073-.02.356-.009.711-.013 1.061.022.349.05.694.078 1.035.052.335.104.667.155.993.13.641.275 1.258.465 1.822.162.573.376 1.094.573 1.569.18.483.414.898.595 1.271.176.377.37.688.522.944.307.513.5.795.5.795s-.06-.34-.195-.917c-.067-.288-.15-.637-.234-1.037-.076-.402-.195-.845-.282-1.334-.093-.491-.196-1.017-.279-1.573-.102-.554-.145-1.144-.216-1.743-.02-.3-.042-.605-.063-.914-.001-.307-.006-.618-.016-.93.015-.31.029-.621.045-.935.038-.308.052-.624.109-.928.091-.613.239-1.213.434-1.783.206-.566.438-1.114.738-1.606.297-.493.615-.96.977-1.359.359-.399.725-.767 1.097-1.073.738-.617 1.446-1.055 1.957-1.335.514-.283.831-.417.831-.417s-.346-.007-.941.109c-.589.116-1.442.35-2.375.862z"/><path d="m351.02 134.296c-.032-.275-.122-.545-.183-.814-.316-1.067-.865-2.054-1.592-2.856-.193-.194-.371-.389-.576-.572l-.661-.515-.622-.375-.129-.08-.081-.04-.161-.076-.321-.156c-.423-.22-.845-.437-1.267-.655-.406-.242-.81-.486-1.206-.738-1.582-1.01-2.966-2.264-4.06-3.642-1.117-1.371-1.889-2.832-2.867-4.235-.501-.704-1.069-1.386-1.718-1.975-.167-.149-.352-.294-.527-.437-.179-.144-.356-.29-.506-.379-.158-.103-.315-.205-.469-.305l-.116-.075c.005.003-.092-.063-.059-.039l-.018-.009-.033-.018-.065-.036-.26-.143c-1.39-.754-2.766-1.171-3.987-1.398-1.225-.223-2.301-.263-3.177-.233-.709.022-1.282.095-1.72.167.051-.054.102-.114.15-.188.104-.158.17-.399.148-.638-.022-.235-.139-.457-.232-.586-.065-.097-.17-.227-.277-.337-.117-.114-.271-.241-.49-.318-.066-.023-.132-.022-.199-.028.008-.044.018-.086.019-.133.006-.285-.097-.506-.187-.663-.091-.16-.191-.296-.279-.405-.118-.151-.28-.302-.475-.413-.197-.11-.433-.169-.647-.16-.072.003-.134.017-.198.03.28-.355.619-.792.917-1.361.315-.573.626-1.275.745-2.131.075-.426.071-.889.03-1.371-.069-.479-.204-.972-.418-1.445-.44-.945-1.169-1.767-2.009-2.414-.839-.656-1.785-1.163-2.764-1.582-.978-.419-1.999-.735-3.02-1.004-1.043-.259-2.048-.444-3.019-.654-.047-.01-.092-.017-.14-.027-.682-2.007-2.538-6.18-6.949-9.487 0 0 2.085 3.377 1.184 7.93-.223-.238-.465-.49-.74-.754-.14-.14-.299-.295-.45-.443-1.915-14.247-16.58-22.178-16.58-22.178 6.89 8.066 7.814 14.191 7.907 16.325-.217-.067-.434-.134-.651-.202-.658-.193-1.327-.364-2.001-.522-1.031-3.907-6.576-19.84-29.278-24.63 0 0 15.578 6.288 20.579 23.804-.408.013-.812.037-1.207.075-.263.023-.525.046-.782.068-.115.016-.226.032-.34.048-2.621-4.989-22.678-38.932-72.822-16.502-19.977.534-42.244 7.391-59.246 17.804-43.252 26.516-58.287 80.711-33.569 121.056 22.698 37.037 68.77 47.144 109.627 28.067.029-.013.05-.028.078-.041l.001.003 5.406-2.716s-4.567-9.71-5.545-12.791c-.977-3.079-1.686-6.213 2.091-10.787 3.659-4.431 18.818-20.192 21.54-25.818.038.007.075.014.115.023.394.29.788.575 1.184.846.678.485 1.314 1.041 1.984 1.51.662.483 1.286 1.036 1.923 1.547.647.494 1.262 1.047 1.891 1.565.633.508 1.224 1.091 1.849 1.616.627.519 1.242 1.061 1.851 1.613.615.546 1.221 1.097 1.831 1.654l1.854 1.643.943.823.472.412c.158.139.331.276.43.388.233.237.465.473.709.697l.666.774c.231.246.412.562.623.838.209.276.402.579.59.884.396.591.734 1.249 1.071 1.901l.49 1.002.453 1.034c.278.705.55 1.417.81 2.139.255.724.479 1.461.693 2.201.058.199.11.398.166.597-.009.075-.005.175.03.329.363 1.611.662 3.376.662 3.376.557.192 1.57.181 2.317.14l.07.061c.263-.017.526-.038.787-.064l.391-.038.348-.054c.462-.076.937-.144 1.369-.238.437-.088.888-.171 1.31-.286l1.278-.327c.842-.229 1.682-.457 2.511-.702.416-.118.831-.238 1.24-.383l1.229-.415 2.44-.854 2.408-.954c.111-.043.221-.094.332-.139l.008.004c7.195-1.96 5.05-4.241 5.05-4.241-.454-.469-.881-.936-1.292-1.399.975-1.501 4.915-7.787 5.237-11.781.367-4.56-3.725-4.815-5.759-2.313-1.525 1.875-4.196 4.279-5.439 5.366-.789-1.585-1.168-2.654-1.25-2.899-.006-.018-.012-.036-.018-.054-.084-.296-.169-.593-.253-.893-.087-.303-.171-.606-.226-.886-.058-.297-.136-.55-.188-.886l-.076-.504-.038-.254c-.004-.026.02.106.009.037v-.028l-.001-.057-.002-.114c-.008-.306-.016-.613-.024-.925.002-.342.005-.685.007-1.031-.003-.688.025-1.409.04-2.132.075-2.896.191-5.972.319-9.136.034-.788.071-1.583.108-2.385.02-.404.037-.81.058-1.217.016-.384.061-.761.09-1.143.144-1.521.378-3.067.762-4.56.191-.744.408-1.484.671-2.174.126-.387.259-.605.371-.904.036-.123.167-.336.261-.515l.154-.277.048-.086.009-.012.045-.064c.965-1.342 1.935-2.688 2.904-4.037.934-1.35 1.97-2.72 2.978-4.081 1.002-1.366 1.999-2.727 2.99-4.078.996-1.348 1.956-2.714 2.904-3.976.473-.629.946-1.227 1.416-1.736.467-.508.927-.932 1.317-1.139.195-.116.368-.182.549-.218.176-.047.376-.046.605-.028.46.05 1.039.236 1.627.512 1.189.556 2.385 1.38 3.531 2.2 1.154.827 2.243 1.695 3.318 2.537.274.211.532.428.812.63.282.211.561.419.839.625.555.412 1.087.826 1.663 1.168.029.018.057.037.087.055-.309 2.625-1.417 6.763-5.12 10.439-.975.752-3.418 3.177 1.11 4.814 4.378 1.581 13.687-3.843 20.276-11.91.275-.085.547-.183.818-.294l.024.03s.083-.047.226-.129c.717-.318 1.397-.744 2.007-1.288.02-.015.038-.027.059-.042.352-.258.778-.549 1.162-.889.192-.17.392-.345.6-.528.104-.093.208-.188.313-.284l.079-.072.041-.038.02-.018.059-.071.184-.242c.48-.69.656-1.371.875-1.952.212-.592.458-1.141.782-1.687.639-1.094 1.587-2.161 2.722-3.216.283-.253.57-.508.861-.769.323-.271.652-.546.982-.824.074-.063.193-.156.227-.193l.268-.238c.177-.159.357-.32.536-.481.371-.304.681-.697 1.017-1.058 1.302-1.484 2.446-3.36 2.789-5.55.111-.536.106-1.1.111-1.65zm-18.389-15.969c.021.014.01.007-.004-.002zm-180.131 113.8c.252-.334.52-.687.81-1.066.455.33 1.04.695 1.755 1.019 1.302.595 2.391 1.114 3.278 1.301.291.097.603.197.839.289.601.217 2.688.514 2.569.213-.098-.255-2.243-1.153-2.839-1.389-.021-.008-.044-.008-.065-.015-.051-.036-.103-.072-.154-.109-.671-.465-2.475-1.257-3.11-1.644-.299-.171-.793-.571-1.304-.917.636-.816 1.335-1.697 2.09-2.63.362.186.763.37 1.223.533 1.425.499 2.61.95 3.565 1.057.302.071.622.143.866.215.639.184 2.874.298 2.736-.003-.116-.258-2.416-.999-3.064-1.185-.027-.008-.056-.007-.084-.012-.056-.032-.111-.064-.166-.096-.721-.42-2.667-1.096-3.349-1.429-.169-.082-.404-.228-.661-.387.674-.818 1.388-1.665 2.128-2.528.46.231 1.002.462 1.637.654 1.536.47 2.814.896 3.859.972.336.062.695.122.967.188.699.17 3.169.18 3.031-.131-.117-.277-2.628-.967-3.323-1.134-.029-.008-.062-.005-.092-.009-.059-.032-.119-.065-.179-.098-.776-.418-2.877-1.041-3.628-1.367-.243-.109-.597-.326-.992-.552.843-.959 1.719-1.931 2.62-2.901.463.294 1.028.6 1.706.872 1.486.588 2.709 1.106 3.741 1.266.333.092.688.183.956.272.683.226 3.136.428 3.024.101-.087-.274-2.516-1.164-3.201-1.387-.026-.009-.055-.009-.082-.015-.057-.038-.115-.075-.172-.112-.736-.476-2.776-1.265-3.488-1.654-.274-.153-.688-.465-1.142-.769 1.088-1.137 2.207-2.26 3.344-3.349.588.429 1.399.927 2.449 1.346 1.687.675 3.08 1.271 4.249 1.436.353.095.723.19 1.005.284.759.247 3.495.474 3.378.107-.1-.298-2.818-1.293-3.57-1.543-.035-.011-.075-.011-.111-.019-.06-.039-.12-.079-.18-.118-.818-.543-3.094-1.41-3.901-1.85-.391-.213-1.043-.73-1.719-1.141 1.111-1.012 2.233-1.982 3.358-2.885.18-.144.364-.289.553-.434.627.504 1.602 1.165 2.948 1.704 1.766.701 3.221 1.325 4.442 1.507.378.103.779.207 1.085.307.801.267 3.676.513 3.546.127-.104-.329-2.965-1.37-3.762-1.638-.039-.013-.081-.014-.122-.023-.06-.038-.119-.075-.178-.112-.861-.573-3.264-1.519-4.101-1.967-.44-.244-1.189-.844-1.945-1.288 1.594-1.092 3.392-2.194 5.319-3.285.587.541 1.505 1.257 2.796 1.873 1.712.83 3.119 1.559 4.321 1.818.367.128.756.259 1.05.382.78.312 3.628.744 3.522.359-.081-.331-2.847-1.573-3.625-1.886-.037-.016-.078-.018-.117-.029-.058-.043-.116-.087-.174-.131-.806-.628-3.131-1.731-3.93-2.232-.397-.255-1.041-.847-1.715-1.328 1.55-.834 3.16-1.658 4.795-2.463.493.573 1.189 1.247 2.144 1.883 1.595 1.074 2.904 2.002 4.111 2.44.377.19.784.388 1.085.559.754.437 3.703 1.254 3.702.835 0-.371-2.654-2.019-3.401-2.463-.041-.024-.084-.042-.13-.06-.045-.049-.091-.098-.137-.147-.712-.757-2.93-2.207-3.647-2.854-.31-.275-.759-.846-1.266-1.381 2.252-1.068 4.518-2.092 6.711-3.051.63.551 1.393 1.084 1.715 1.402.687.679 2.061 2.584 2.904 3.277.054.045.109.091.163.135.013.039.03.078.053.115.393.623 1.94 2.884 2.418 2.989.582.117.229-2.108-.15-2.741-.151-.242-.306-.557-.459-.856-.264-.948-1.194-2.109-2.233-3.506-.582-.787-1.265-1.421-1.883-1.906 2.036-.866 3.97-1.663 5.73-2.372.551.616 1.223 1.227 1.492 1.575.582.747 1.688 2.801 2.42 3.596.051.055.104.11.156.166.008.031.015.063.03.095.305.67 1.531 3.098 1.993 3.267.557.185.52-2.075.215-2.743-.114-.256-.222-.589-.332-.904-.137-.974-.897-2.235-1.73-3.742-.523-.94-1.193-1.71-1.788-2.287 2.582-1.017 4.576-1.765 5.64-2.159-.254 6.869.007 27.535 11.1 41.652-24.472 11.272-50.858 11.193-71.941.244zm142.703-34.748c1.55-1.147 2.835-2.707 2.835-2.707s.667-.411.159.81c-.439 1.055-3.416 6.451-4.782 8.459-1.048-1.397-1.909-2.716-2.594-3.888 1.67-.958 3.581-2.084 4.382-2.674zm22.517-31.331c-2.096 1.1-3.574.577-1.62-.932 1.953-1.508 4.728-9.636 4.728-9.636 1.944 2.28 5.312 2.968 5.312 2.968-1.026 1.566-6.324 6.501-8.42 7.6zm20.826-16.072c-.031.695-.09 1.299-.143 1.797-.001.017-.003.031-.005.047l-.044.103-.003.008c-.033.041.042-.048.032-.035l-.017.023-.033.042-.063.087c-.085.115-.167.228-.249.338-.16.226-.314.442-.462.65-.246.349-.488.62-.708.893-.801.848-2.209 1.949-4.314 2.307-.427.048-.896.087-1.401.108-.453.001-.932-.033-1.437-.107-1.358-.248-2.917-.714-4.59-1.467-1.819-.821-3.73-2.038-5.627-3.592-.489-.366-.943-.803-1.413-1.236-.234-.216-.472-.434-.711-.654-.246-.221-.488-.47-.734-.706-.998-.967-2.071-1.948-3.214-2.929-1.153-.98-2.379-1.958-3.915-2.826-.773-.424-1.652-.829-2.744-1.017-1.074-.203-2.43-.032-3.446.496-1.043.506-1.796 1.176-2.454 1.827-.655.658-1.216 1.324-1.757 1.984-1.077 1.321-2.076 2.639-3.094 3.966-1.016 1.331-2.039 2.673-3.068 4.02-1.02 1.356-2.046 2.69-3.061 4.129-1.004 1.422-2.01 2.845-3.011 4.263l-.047.066-.024.032c.005-.012-.133.224-.082.142l-.077.139-.151.28c-.102.195-.197.342-.312.615-.209.481-.455 1.021-.579 1.443-.316.892-.551 1.774-.756 2.655-.416 1.761-.627 3.521-.717 5.272-.016.436-.049.875-.05 1.306-.003.408-.008.815-.013 1.219-.01.808.007 1.632.01 2.436.031 3.215.122 6.305.273 9.256.046.739.077 1.46.141 2.191.028.363.058.724.084 1.081.034.371.094.772.145 1.148l.02.142.009.072.005.035.019.101.064.247.128.495c.085.325.227.709.336 1.052.113.362.24.681.367.994.127.315.251.627.375.935 1.045 2.431 2.242 4.526 3.488 6.264.284.448.624.844.924 1.24.154.197.305.388.451.578.08.097.141.178.232.285.076.085.153.17.228.254.386.434.744.836 1.088 1.223.163.21.326.42.498.631 2.446 3.01-.187 4.302-1.888 4.794-1.602.354-3.206.7-4.81 1.045-1.663.345-3.326.678-4.995.969l-1.254.205c-.418.073-.835.118-1.254.18-.418.064-.835.097-1.254.141-.338.043-.669.047-1.001.058-.126-.751-.278-1.485-.454-2.219-.198-.817-.424-1.628-.675-2.431-.252-.803-.539-1.594-.842-2.38l-.493-1.165c-.174-.383-.361-.763-.547-1.142-.395-.745-.795-1.492-1.274-2.192-.229-.356-.459-.711-.729-1.042-.267-.329-.497-.687-.794-.993l-.869-.935-.957-.85c-.648-.538-1.308-1.039-1.962-1.559l-1.98-1.536c-.659-.516-1.33-1.013-2.002-1.51-.106-.08-.217-.154-.323-.234.004.001.018.007.018.007s-.042-.027-.102-.067c-.537-.399-1.075-.796-1.627-1.175-.687-.478-1.364-.969-2.077-1.413-.708-.444-1.389-.932-2.126-1.336-.217-.121-.431-.247-.645-.371-4.377-2.919-9.512-6.381-10.577-7.258-1.923-1.586-5.613-17.164-6.014-18.504l-25.957 24.492c-.31.112-2.407.87-5.546 2.089.205-.772.299-1.606.328-2.024.034-.896.462-3.337.428-4.335-.006-.148-.021-.296-.044-.442.249-.323-.125-1.399-.21-2.118-.077-.757-1.319-2.689-1.759-2.174-.36.411-.207 3.066-.119 3.917-.627.952-1.03 2.486-.988 4.072.029 1.413.068 3.026.092 3.998-1.941.771-4.145 1.669-6.489 2.66.159-.882.139-1.919.102-2.403-.075-.88.016-3.347-.162-4.344-.025-.143-.059-.287-.1-.428.216-.323-.309-1.364-.481-2.071-.192-.744-1.68-2.505-2.052-1.942-.29.439.207 3.04.413 3.882-.495 1.02-.689 2.59-.434 4.152.228 1.446.494 3.091.647 4.038-2.175.94-4.434 1.95-6.7 3.011.122-.929-.001-2.087-.092-2.602-.161-.876-.28-3.337-.545-4.299-.038-.142-.084-.284-.137-.421.199-.338-.431-1.329-.672-2.033-.252-.724-1.893-2.373-2.209-1.784-.256.466.471 3.01.748 3.844-.398 1.051-.452 2.629-.069 4.16.367 1.458.798 3.138 1.035 4.056-1.84.885-3.666 1.798-5.431 2.73-.017-.894-.244-1.909-.381-2.376-.247-.857-.651-3.292-1.023-4.223-.055-.14-.12-.279-.19-.413.139-.361-.583-1.289-.899-1.946-.331-.69-2.158-2.158-2.405-1.542-.198.482.82 2.96 1.187 3.742-.281 1.082-.155 2.65.401 4.137.484 1.287 1.034 2.741 1.384 3.662-2.154 1.186-4.182 2.393-5.998 3.599-.091-.883-.395-1.868-.57-2.318-.315-.845-.896-3.242-1.334-4.146-.067-.135-.143-.269-.225-.398.111-.367-.68-1.245-1.044-1.877-.383-.665-2.319-2.014-2.525-1.386-.158.499 1.038 2.874 1.474 3.649-.199 1.101.047 2.661.721 4.107.595 1.28 1.275 2.736 1.691 3.625-.531.385-1.046.77-1.523 1.153-1.065.855-2.129 1.768-3.181 2.719-.145-.913-.637-2.016-.892-2.482-.403-.78-1.245-3.008-1.789-3.832-.078-.121-.165-.24-.257-.354.07-.365-.809-1.121-1.232-1.697-.452-.602-2.473-1.683-2.594-1.059-.103.502 1.354 2.662 1.855 3.349-.055 1.073.375 2.542 1.194 3.858.821 1.308 1.776 2.828 2.246 3.575-1.321 1.249-2.619 2.546-3.877 3.861-.185-.775-.782-1.75-1.059-2.145-.414-.609-1.374-2.378-1.917-3.004-.079-.093-.165-.185-.254-.271.012-.32-.796-.859-1.211-1.284-.446-.46-2.252-1.173-2.287-.636-.019.428 1.429 2.083 1.925 2.607.07.899.582 2.07 1.416 3.084.849 1.037 1.838 2.239 2.3 2.801-1.092 1.17-2.146 2.343-3.155 3.496-.026-.746-.843-2.051-1.19-2.529-.433-.604-1.43-2.348-1.972-2.983-.078-.093-.162-.183-.249-.269-.015-.29-.787-.862-1.201-1.296-.438-.462-2.125-1.244-2.107-.747.008.4 1.456 2.083 1.936 2.592.134.853.683 1.994 1.508 3.007.945 1.145 2.051 2.496 2.431 2.961-.338.298-.369.551-.364.659-.827.967-1.614 1.909-2.357 2.815-.014-.001-.029-.007-.043-.008.019-.576-.925-1.835-1.283-2.276-.407-.492-1.423-1.955-1.926-2.496-.072-.075-.147-.147-.224-.217-.042-.248-.741-.729-1.118-1.102-.407-.388-1.867-1.056-1.792-.653.052.34 1.428 1.765 1.866 2.189.207.71.784 1.666 1.565 2.512.807.879 1.753 1.901 2.186 2.369-.327.335-.233.615-.233.615s.053.049.14.124c-.827 1.024-1.59 1.989-2.272 2.868-.364-.489-.868-.999-1.115-1.231-.473-.441-1.639-1.735-2.197-2.192-.081-.066-.165-.129-.25-.19-.073-.233-.808-.62-1.228-.933-.438-.33-1.938-.818-1.827-.422.097.309 1.604 1.516 2.092 1.885.291.661.978 1.521 1.86 2.254.687.582 1.459 1.232 2.002 1.688-.378.493-.721.946-1.035 1.363-10.198-5.703-19.072-14.012-25.746-24.901-15.37-25.086-13.947-56.021.955-80.891.526.121 1.1.238 1.727.348-.504.677-1.08 1.544-1.46 2.416-.206.471-.406.916-.578 1.323-.004.011-.008.02-.012.03-.13.312-.243.599-.326.857-.009.02-.018.042-.026.062-.067.145-.11.367-.127.608v.01c-.044.635.096 1.394.464 1.202.272-.142.783-.977 1.188-1.713.108-.153.217-.309.324-.465.579-.85 1.31-2.591 1.747-3.33.104-.173.292-.44.506-.741.897.12 1.876.225 2.951.307-.488.709-1.018 1.619-1.336 2.607-.578 1.83-1.134 3.327-.706 4.071.062.634.253 1.211.567 1.102.305-.1.86-1.071 1.278-1.902.075-.121.15-.244.224-.366.567-.92 1.196-2.987 1.615-3.823.171-.333.597-.933.978-1.544.922.034 1.894.054 2.931.054.348 0 .707-.004 1.069-.008-.569.726-1.411 1.955-1.829 3.324-.472 1.527-.929 2.826-.807 3.642.025.736.22 1.521.588 1.408.182-.067.457-.449.738-.925.294-.3.575-.768.85-1.218.552-.925 1.153-2.976 1.561-3.801.257-.508 1.122-1.661 1.478-2.496.676-.025 1.364-.055 2.082-.095.782-.044 1.528-.088 2.257-.132-.358.737-.71 1.653-.861 2.62-.192 1.249-.399 2.352-.368 3.176-.006.087-.014.17-.024.246-.082.656.574 2.544 1.08 2.242.23-.144.479-.957.67-1.754.169-.297.322-.653.474-1.001.424-.997.73-3.161 1.02-4.046.118-.354.455-1.002.743-1.655 1.872-.124 3.549-.249 5.049-.37-.367.792-.715 1.744-.873 2.75-.292 1.902-.612 3.507-.256 4.428v.061c-.031.606.744 2.259 1.181 1.877.201-.174.361-.982.468-1.764.242-.368.456-.866.665-1.346.474-1.118.817-3.544 1.147-4.531.123-.382.465-1.054.776-1.746 3.25-.305 5.383-.58 6.735-.786-4.421 6.249-7 10.756-7 10.756 32.176-38.989 60.645-45.417 60.645-45.417s-15.781-1.811-29.041 7.802c-8.952 6.949-16.764 16.202-22.383 23.793-1.343.316-3.677.793-7.215 1.282.171-.749.082-1.744.014-2.176-.119-.7-.179-2.657-.397-3.426-.115-.398-.325-.808-.601-1.045-.372-.523-.835-.952-1.065-.73-.126.121-.184.528-.201 1.02-.602.77-.8 2.235-.416 3.685.261.988.556 2.101.759 2.862-.388.012-.719.088-.987.178-1.572.184-3.326.363-5.266.53.07-.58-.024-1.283-.094-1.603-.118-.561-.227-2.156-.437-2.788-.129-.405-.38-.828-.694-.983-.286-.405-.603-.681-.807-.511-.172.143-.275.75-.333 1.411-.151.496-.175 1.127-.06 1.787v.025c.002.044.012.084.027.122.031.152.066.303.113.456.225.759.48 1.597.668 2.217-1.623.127-3.36.246-5.231.351-.101.006-.196.009-.297.014.117-.412.187-.811.215-1.038.034-.337.173-.981.295-1.616.068-.135.095-.351.106-.598.051-.313.087-.598.086-.801-.002-.215-.034-.439-.093-.641-.16-.734-.66-1.758-1.038-1.529-.201.125-.405.747-.567 1.407-.529.609-.904 1.643-.928 2.752-.015.716-.027 1.504-.037 2.149-1.906.066-3.635.075-5.201.039.369-.458.627-1.359.705-1.745.123-.577.646-2.047.719-2.729.076-.666-.053-1.532-.646-1.485-.717.061-1.426 1.202-1.618 2.666-.192 1.439-.432 3.212-.438 3.252-1.56-.063-2.943-.171-4.165-.309.019-.103.014-.186-.045-.222.241-.417.441-1.013.522-1.302.139-.536.672-1.882.794-2.517.057-.294.083-.632.056-.921-.012-.597-.195-1.394-.482-1.284-.188.066-.489.661-.735 1.232-.257.408-.482.994-.624 1.677-.293 1.388-.643 3.095-.643 3.095s.01.008.136.117c-.906-.123-1.712-.261-2.426-.407 5.983-9.411 13.936-17.882 23.671-24.748 1.668-1.148 6.53-4.376 13.334-7.905 6.486-3.266 13.74-6.25 20.958-8.513l.958-.369c3.416-.977 6.945-1.775 10.527-2.317-8.475 5.018-17.676 11.52-27.654 19.824 0 0 63.574-48.813 105.568-7.751h.001l4.033-.958c.114-.017.227-.035.344-.053.382-.061.785-.125 1.204-.192.849-.081 1.759-.196 2.729-.234.242-.014.487-.027.735-.042.249 0 .5 0 .757-.001.509.003 1.026-.023 1.555.008 1.057.015 2.146.114 3.248.218.552.058 1.105.113 1.661.205.556.075 1.11.171 1.663.28 1.11.187 2.206.441 3.27.734.535.151 1.051.304 1.549.464.252.078.518.185.773.275.229.076.461.215.689.317.922.405 1.79.968 2.619 1.461.8.554 1.586 1.042 2.276 1.553 1.18.83 2.164 1.568 2.934 2.141-.696-.108-1.371-.208-1.996-.29-.759-.1-1.456-.216-2.073-.309-.617-.1-1.16-.164-1.607-.223-.893-.114-1.41-.154-1.41-.154s.467.225 1.296.574c.416.173.917.389 1.5.612.583.228 1.233.498 1.971.715 1.457.484 3.179.997 5.035 1.505.929.254 1.891.508 2.871.751.98.261 1.978.455 2.912.699.952.238 1.882.524 2.766.852.875.342 1.712.719 2.421 1.185.714.462 1.297 1.002 1.686 1.606.382.605.577 1.279.592 1.954.007.295-.015.584-.052.866-.016-.081-.036-.162-.064-.242-.049-.166-.092-.34-.16-.503-.168-.306-.311-.65-.55-.908l-.338-.406c-.121-.125-.258-.226-.387-.338-.129-.111-.258-.217-.39-.317-.141-.083-.279-.164-.415-.243-.272-.16-.534-.317-.806-.404-.263-.106-.517-.192-.75-.269-.226-.092-.457-.11-.65-.153-.196-.038-.367-.062-.508-.082-.281-.039-.444-.05-.444-.05s.133.1.37.257c.118.077.26.172.425.268.16.107.358.196.546.335.191.136.397.279.619.417.23.127.426.322.651.483.111.084.225.168.337.255.098.102.198.201.3.298.102.099.21.193.308.294l.26.328c.202.202.296.46.452.682.087.249.241.479.277.736.073.248.103.499.134.744-.003.243.024.483-.004.704-.026.447-.11.828-.171 1.098-.001.005-.002.008-.003.012-.003.007-.006.013-.009.021-.028.024-.06.049-.084.073-.188.184-.29.37-.35.503-.058.135-.075.219-.075.219s.064-.02.153-.047c-.005.011-.009.019-.009.019s.018-.018.023-.023c.134-.04.332-.094.56-.141.195-.035.41-.041.534.016.12.053.192.126.32.29.079.103.158.206.236.308.065.086.092.133.105.127.02-.007.05.023.023.105-.017.076-.065.169-.112.261-.115.194-.212.355-.279.468-.071.123-.108.204-.108.204s.086.002.233-.015c.064-.008.143-.023.226-.043.012-.001.018 0 .032-.001.125-.006.302-.02.475-.032.089-.003.175.003.232.02.059.02.059.05.055.07-.001.018.032.059.085.128.063.086.126.173.191.259.054.076.062.083.076.098.012.008.033.021.031.075 0 .106-.09.288-.181.439-.218.338-.364.564-.364.564s.112.021.282.012l.006.07s.238.039.685.112c.445.075 1.093.201 1.895.391.803.195 1.762.459 2.806.852 1.043.39 2.174.91 3.275 1.631l.21.132.052.034.018.011.101.076c.147.111.297.223.448.336.165.117.276.219.389.323.116.107.235.202.354.317.485.484.962 1.032 1.472 1.642 1.006 1.248 2.276 2.644 3.755 3.803 1.465 1.179 3.054 2.219 4.637 3.301.403.258.801.53 1.201.802l1.222.787.302.205.152.104.075.051c-.099-.062-.017-.008-.035-.019l.018.015.034.029.556.461.285.333c-.102.101-.225.206-.376.305-.302.198-.716.357-1.207.365-.491.011-1.047-.134-1.614-.4-.545-.278-1.198-.68-1.859-1.058-.681-.377-1.403-.776-2.169-1.15-.755-.396-1.57-.745-2.397-1.106-.85-.312-1.699-.67-2.604-.908-.879-.309-1.816-.463-2.73-.675-.471-.052-.941-.108-1.409-.145l-.349-.03-.044-.004-.022-.002c-.046-.001.051 0 .037-.001l-.01-.001-.08-.004-.16-.007c-.207-.012-.437-.015-.622-.034-.664-.049-1.406-.18-2.051-.345-.656-.169-1.258-.407-1.79-.678-.27-.133-.509-.286-.75-.426-.222-.157-.438-.309-.624-.467-.388-.309-.677-.634-.894-.922-.216-.29-.349-.549-.431-.735-.075-.192-.115-.295-.115-.295l-.223.005s-.016.12-.048.346c-.023.228-.016.576.087 1.002.022.108.055.217.095.33.015.162.036.335.074.526.115.529.323 1.174.687 1.831.358.659.828 1.36 1.406 2.053.571.701 1.243 1.394 1.977 2.087.724.703 1.529 1.383 2.366 2.063.844.671 1.733 1.328 2.619 2.001s1.745 1.393 2.546 2.152c.788.767 1.527 1.58 2.055 2.466l.196.332.156.318c.11.187.197.489.293.74.123.51.245 1.015.365 1.511.061.255.123.507.182.757.045.254.072.509.108.759.071.503.14.995.207 1.474.048.482.064.955.098 1.412.027.457.068.9.053 1.326-.001.86.007 1.645-.052 2.337zm10.073-13.685c-.387 1.564-1.368 2.943-2.506 4.095-.296.285-.568.576-.89.831-.325.275-.645.547-.962.818-.332.286-.659.551-.987.844-.329.321-.658.637-.98.95-1.225 1.267-2.238 2.698-2.894 4.195-.02.047-.036.095-.055.142.016-.165.032-.319.048-.491.055-.434.056-.89.073-1.361.001-.055.003-.113.005-.168.082-.119.195-.286.366-.535.555-.809 1.954-2.508 3.871-5.196 1.916-2.688 1.216-5.157.972-5.678-.245-.521-2.11-2.261-4.442-3.335-2.083-.751-4.418-1.962-6.073-2.883.249.037.498.08.747.138.848.146 1.68.419 2.509.645.814.285 1.631.53 2.401.84.781.281 1.513.607 2.222.891.719.303 1.345.599 2.035.854.681.227 1.362.323 1.961.237.601-.08 1.082-.345 1.396-.625.139-.122.246-.243.337-.357.093.133.183.269.274.4.44.734.693 1.547.768 2.357.106.807.011 1.621-.196 2.392z"/><path d="m249.05 177.425c1.178 2.667 11.172 10.243 17.411 16.309 6.24 6.068 6.24 6.068 6.24 6.068s-3.33-4.581-8.213-17.553c-4.884-12.972-7.311-13.43-9.568-15.885-2.258-2.456-3.404-13.543-1.348-20.211 2.058-6.666 10.508-20.291 14.845-25.349s8.084-11.217 8.084-11.217-16.137 9.244-24.063 11.733c.001.001-20.439 22.576-3.388 56.105z"/><path d="m365.255 131.128c-.588-2.766-2.288-5.071-4.915-6.666-2.443-1.483-5.167-4.532-8.05-7.761-4.566-5.111-9.639-10.792-15.882-12.636-.488-4.585-3.311-11.723-15.352-15.53-3.15-6.278-15.866-26.351-52.396-33.867-34.171-7.03-55.756 1.625-60.064 3.6-4.031.331-22.489 2.242-43.901 10.662-8.013 2.678-15.882 6.312-23.438 10.942-50.118 30.723-67.537 93.521-38.894 140.271 28.659 46.766 92.526 59.752 142.647 29.029 2.276-1.398 4.485-2.858 6.626-4.377l.735-.496-.119-.228.027-.014c-.018-.034-.341-.63-.878-1.62l-1.472-2.826-.088-.057c-.488-.903-1.029-1.904-1.604-2.969-.007-.038-.019-.057-.033-.061-2.769-5.132-6.301-11.705-8.426-15.768l12.424-14.454c3.405 2.565 8.836 7.787 7.797 14.421l-.04.382c-.101 1.782.702 4.609 3.299 6.71 5.003 4.049 14.431 4.102 28.827.165 10.35-2.832 16.681-7.023 18.818-12.457 1.053-2.677.861-5.041.427-6.703 1.381-2.409 3.704-7.024 4.8-12.425.347-1.711.384-3.317.42-4.87.059-2.537.106-4.541 1.42-6.595 1.429-2.232 4.876-4.781 8.017-5.93 5.296-1.937 9.223-5.941 12.144-9.553 3.186-.695 9.248-3.253 15.628-12.476l.616-.891c6.645-9.598 12.385-17.887 10.88-24.952zm-17.292 20.513-.62.895c-5.811 8.402-10.568 9.274-11.233 9.36l-1.804-.231-1.354 1.755c-2.512 3.257-5.622 6.786-9.644 8.256-3.972 1.452-9.194 4.814-11.906 9.049-2.493 3.894-2.58 7.623-2.649 10.619-.03 1.269-.057 2.467-.266 3.501-1.259 6.21-4.67 11.329-4.7 11.373l-1.421 2.093 1.332 2.15c.005.008.432.977-.052 2.207-.538 1.368-2.943 4.868-13.618 7.788-15.015 4.108-20.079 2.425-21.559 1.51-.431-.267-.608-.5-.68-.635 1.81-14.474-13.745-23.228-14.417-23.599l-2.774-1.529-20.145 23.436 1.176 2.326c1.811 3.581 6.618 12.527 10.051 18.886-.013.008-.026.017-.039.025-45.89 28.118-104.343 16.221-130.569-26.573-22.161-36.163-14.206-82.823 16.488-113.382 7.741-7.346 16.873-13.727 27.316-19.049 27.461-13.994 54.714-15.864 54.984-15.881l.815-.056.718-.364c.052-.026 5.265-2.637 14.703-4.339 8.703-1.568 22.88-2.654 40.994 1.072 19.992 4.113 31.851 12.299 38.279 18.442 6.931 6.624 9.22 12.367 9.234 12.404l.706 1.872 1.932.519c12.438 3.341 11.629 9.912 11.442 10.859l-1.445 4.734 5.142.114c4.68.104 9.467 5.463 14.095 10.645 3.282 3.674 6.382 7.144 9.82 9.232 1.001.608 1.236 1.162 1.335 1.623.801 3.775-5.003 12.158-9.667 18.893z"/><path d="m114.611 198.93.099.08-.123.077z"/></g><path d="m134.383 213.893.086.069-.107.067z" fill="#f26622"/><path d="m348.935 264.464-.471 5.559 5.377-.488c-1.966-1.428-3.599-3.124-4.906-5.071z" fill="#fff"/><path d="m253.918 303.254c.722 1.066.12-.09 1.727-.09.078 0 .531-.367.609-.373l1.568.224c4.333-.392 7.426-1.001 11.95-1.494 1.387-.151 3.296.002 4.705-.149l1.792-.373 1.53.685c1.6-18.229 3.097-35.133 4.571-51.62l.945-.209 1.065-.234 1.581-.349.146-1.613c.319-3.545.628-6.987.933-10.388l.231-2.576-2.581.172c-8.181.544-16.163 1.076-24.177 1.614l-1.884.127-.172 1.88-.386 4.245-.575 6.314-.204 2.262 2.265.146 1.114.071.147.01c-.452 4.999-.902 9.977-1.366 15.126-5.278-8.137-10.863-16.831-17.025-26.504-.408-.635-1.472-2.032-3.055-2.24l-.144-.048-.418.022c-5.673.308-11.469.71-17.073 1.099l-4.558.315-1.876.127-.175 1.874-.063.693-.957 10.26-.209 2.236 2.238.175c.543.042 1.009.071 1.407.095-.017.171-.035.354-.053.551-.368 4.188-.76 8.383-1.153 12.583-.183 1.952-.364 3.906-.544 5.86-.17 1.836-.342 3.673-.515 5.512-.468 4.985-.955 10.14-1.346 15.222-.008.11-.019.191-.03.247-.097.031-.269.075-.55.109-.47.056-.894.17-1.268.269-.137.037-.276.074-.418.108l-1.555.363-.145 1.59-.419 4.584-.581 6.362-.245 2.694 2.689-.294c8.225-.898 16.328-1.778 24.523-2.663l1.804-.195.162-1.807c.328-3.666.646-7.189.968-10.759l.207-2.3-2.306-.109c-.471-.022-.93-.044-1.384-.066.465-5.129.925-10.218 1.399-15.422 5.998 9.258 11.624 17.809 17.134 26.049z" fill="#fff"/><path d="m368.843 294.029c1.608.084 3.247.127 4.871.127 2.527 0 5.102-.103 7.651-.309 5.271-.422 10.616-1.288 15.889-2.574 10.085-2.464 16.766-7.955 18.812-15.465 1.324-4.845 1.124-9.357-.592-13.408-2.646-6.264-8.955-9.63-19.287-10.286-.683-.043-1.368-.083-2.052-.123-2.951-.172-6.004-.35-8.784-.81-2.292-.379-4.003-1.513-4.578-3.035-.48-1.27-.134-2.717.976-4.076.253-.31 1.316-.909 2.1-1.035 2.642-.426 5.385-.62 8.066-.785.009.374 0 .778-.011 1.213-.006.366-.015.741-.015 1.124l.004 2.375 2.368-.172 4.642-.338c5.198-.377 10.383-.754 15.576-1.127l1.393-.101.508-1.302c1.08-2.765.76-5.787-.899-8.511-2.456-4.033-7.369-6.802-13.139-7.406-3.098-.323-6.241-.487-9.345-.487-1.145 0-2.303.023-3.444.067-5.025.194-10.052.822-14.942 1.867-9.941 2.129-16.364 7.785-18.575 16.355-1.174 4.542-.903 8.772.807 12.572 2.918 6.48 9.658 9.751 20.604 9.998 2.869.068 6.628.194 10.246.582 3.679.394 3.571 1.92 3.524 2.571l-.05.717c-.095 1.388-.186 2.699-.439 3.989-.272 1.408-2.046 1.852-3.076 1.99-3.225.431-6.649.792-10.7 1.129.026-.35.067-.728.112-1.133.045-.418.095-.857.134-1.32l.218-2.635-2.631.249-21.075 1.991-.149.014-1.866.177-.132 1.871-.017.2-.012.126-.026.291.051.287.154.881c.11.633.219 1.265.336 1.898.926 5.023 4.59 11.139 16.794 11.777z" fill="#fff"/><path d="m295.986 261.185c-.708 8.034-1.415 16.068-2.113 24.102-.043.497-.091 1.048-.145 1.347-.414.177-1.367.437-2.293.689l-1.487.405-.143 1.539c-.298 3.425-.596 6.872-.899 10.383l-.231 2.675 2.669-.286c18.973-2.022 36.593-3.886 53.867-5.697l1.82-.191.153-1.824.466-5.567.673-8.028.222-2.64-2.637.253-9.6.924-6.325.608-1.441.139-.451 1.376c-.194.594-.377 1.151-.561 1.707l-3.435.339-4.356.431c.316-3.691.634-7.389.959-11.147l3.815-.338c4.005-.354 8.018-.711 12.119-1.071l1.852-.162.159-1.853.194-2.278.718-8.416.224-2.605-2.606.212-1.373.111c-4.583.371-9.177.743-13.844 1.125l.283-3.248.587-6.737 3.214-.232 4.776-.344.122.785.311 2.019 2.037-.15c5.278-.389 10.59-.778 15.903-1.165l1.882-.138.161-1.878.227-2.628.931-10.845.22-2.56-2.564.163c-15.468.983-32.461 2.088-53.476 3.478l-1.888.125-.17 1.885c-.219 2.437-.426 4.767-.629 7.047l-.301 3.378-.2 2.243 2.247.16 1.232.088.201.014-.011.132z" fill="#fff"/><path d="m187.913 241.332c-1.206-.054-2.462-.082-3.732-.082-1.317 0-2.688.031-4.076.089-3.328.138-6.898.435-11.234.934-14.411 1.659-23.991 9.738-25.626 21.611-1.596 11.555-2.689 23.156-3.25 34.482-.486 9.885 4.843 16.205 15.005 17.794 1.817.283 3.687.386 5.495.485.785.042 1.569.085 2.348.143l.205.015.204-.023c3.036-.338 6.074-.674 9.113-1.01l5.546-.614.204-.022.196-.06c.228-.069.457-.146.686-.222.383-.129.744-.25 1.046-.31 13.545-2.694 22.511-10.57 23.982-21.067 1.565-11.21 2.654-22.876 3.238-34.674.229-4.519-1.066-8.467-3.746-11.415-3.323-3.655-8.719-5.748-15.604-6.054z" fill="#fff"/><path d="m155.053 320.216c-.877-.426-1.255-1.196-2.985-1.46-2.815-.43-5.923 2.69-8.215 1.746l-10.356-1.301-1.366.153c-.842.094-1.669.187-2.499.28l-1.409 3.757z" fill="#fff"/><path d="m293.074 303.033-10.755-.317-3.734.299-8.738.523c-4.755.538-8.654 1.215-13.294 1.643l-2.315.523c-.445.039-3.468.523-3.958.523-3.102 0-2.842 1.564-5.004-.149l-5.377 1.867-13.958 3.886 70.898-8.387c-1.119-.373-2.34-.568-3.765-.411z" fill="#fff"/><path d="m69.729 326.477 1.779-.202.173-1.782c.78-8.01 1.543-15.783 2.305-23.549l.264-2.688-2.687.27-9.609.971-5.935.6-1.694.172-.267 1.682-1.047 6.604-.435 2.742c-3.402.365-6.701.721-10.009 1.077 1.47-14.735 2.944-29.467 4.428-44.199l1.163-.27.876-.203 1.542-.357.159-1.576.904-8.948.319-3.151.265-2.624-2.629.195c-9.72.72-19.252 1.43-28.783 2.143l-1.846.138-.19 1.841c-.426 4.146-.849 8.297-1.273 12.453l-.243 2.385 2.397.051 1.183.025c.098.002.196.004.296.007l-.039.386c-1.47 14.5-2.934 28.994-4.395 43.491-.054.54-.113 1.131-.176 1.494-.46.094-1.303.186-2.124.274l-1.784.193-.179 1.786c-.421 4.191-.841 8.391-1.26 12.591l-.273 2.732 2.729-.316c19.023-2.202 37.897-4.367 56.095-6.438z" fill="#fff"/><path d="m133.497 319.199.42-.047.17-1.789.598-6.316.854-8.999.256-2.688-2.685.278-7.125.733c-2.869.296-5.7.587-8.511.878l-1.466.151-.425 1.412-.509 1.699-.065.217-2.032.215c-1.938.204-3.848.405-5.755.607l1.142-11.773.159-1.646 13.356-1.272 2.744-.26 1.818-.173.174-1.818.335-3.495c.277-2.884.548-5.71.833-8.652l.257-2.65-2.652.232c-5.138.45-10.177.894-15.238 1.342.308-3.153.612-6.24.913-9.312l.258-2.631 7.957-.629.154 1.096.292 2.062 2.076-.167c4.441-.357 8.738-.702 13.089-1.051l2.464-.197 1.847-.148.178-1.844c.497-5.136.979-10.103 1.475-15.21l.254-2.607-2.614.187c-17.763 1.271-35.528 2.547-53.291 3.839l-1.856.135-.185 1.852-.636 6.401-.522 5.264-.218 2.194 2.193.226 1.535.159c-.01.1-.02.201-.031.301-1.624 16.29-2.913 29.618-4.059 41.951-.148 1.649-.268 1.659-1.414 1.747-.047.003-.109.008-.176.011h-.026l-.082.005c-.775.054-1.275.46-1.515.655l-.058.047-.873.582-.082 1.031-.21 2.168-.92 9.481-.263 2.719 2.714-.308c15.262-1.734 31.568-3.573 51.113-5.764l.329-.877z" fill="#fff"/><path d="m314.992 329.141h1.897c.402 0 .719-.042.946-.126.228-.084.4-.217.518-.401.118-.183.177-.382.177-.598 0-.315-.113-.574-.343-.778-.228-.203-.59-.304-1.085-.304h-2.111v2.207zm-.882 3.726v-6.669h2.956c.594 0 1.046.061 1.355.18.309.12.556.331.742.634.185.304.276.64.276 1.006 0 .474-.152.871-.46 1.196-.306.324-.779.531-1.419.619.234.112.411.222.533.332.258.236.501.533.733.887l1.16 1.815h-1.11l-.882-1.388c-.258-.399-.471-.706-.638-.918-.166-.213-.315-.362-.447-.446-.132-.085-.266-.144-.403-.178-.101-.02-.264-.031-.492-.031h-1.023v2.961z" fill="#004721"/><path d="m316.814 334.899c-3.015 0-5.468-2.453-5.468-5.468s2.453-5.468 5.468-5.468 5.468 2.453 5.468 5.468-2.453 5.468-5.468 5.468zm0-10.305c-2.667 0-4.836 2.17-4.836 4.836 0 2.667 2.17 4.836 4.836 4.836 2.667 0 4.836-2.17 4.836-4.836.001-2.666-2.169-4.836-4.836-4.836z" fill="#004721"/><path d="m259.701 249.245c1.307.084 2.432.158 3.526.227-.704 7.79-1.398 15.457-2.139 23.729-.931-1.411-1.554-2.35-2.162-3.292-6.168-9.49-12.281-19.017-18.363-28.564-.334-.518-.995-1.243-1.591-1.243-.011 0-.02.001-.031.001-.002 0-.009-.002-.009-.002-7.155.389-14.321.914-21.599 1.41-.35 3.746-.68 7.282-1.021 10.955 4.165.326 3.67-.192 3.385 3.046-.54 6.138-1.13 12.29-1.698 18.452-.633 6.889-1.326 13.796-1.858 20.7-.11 1.432-.713 2.165-2.521 2.383-.471.056-.948.218-1.447.335-.339 3.718-.667 7.291-1 10.946 8.226-.899 16.329-1.778 24.526-2.664.328-3.666.646-7.189.968-10.76-1.277-.061-2.467-.119-3.69-.179.718-7.926 1.422-15.708 2.171-23.902.558.758.914 1.184 1.208 1.642 6.392 9.903 12.85 19.763 19.402 29.56.373.551 1.049 1.344 1.681 1.344.019 0 .039-.001.058-.002l.002-.002c5.934-.523 11.891-1.208 18.099-1.873 1.558-17.747 3.128-35.494 4.716-53.237 1.374-.304 2.506-.553 3.593-.793.319-3.545.628-6.986.933-10.386-8.181.544-16.161 1.075-24.176 1.614-.33 3.607-.65 7.098-.963 10.555z" fill="#f26724"/><path d="m187.815 243.542c-1.201-.054-2.413-.08-3.634-.08-1.319 0-2.649.03-3.983.086-3.677.154-7.395.499-11.074.923-13.364 1.538-22.169 8.691-23.688 19.715-1.57 11.374-2.664 22.818-3.232 34.289-.393 8.002 3.353 13.969 13.137 15.5 2.472.384 5.105.417 7.665.607 4.884-.545 9.771-1.082 14.66-1.625.646-.197 1.294-.456 1.942-.585 12.262-2.439 20.856-9.43 22.225-19.205 1.597-11.437 2.648-22.945 3.219-34.476.464-9.179-5.932-14.646-17.237-15.149zm-5.319 34.284c-.532 5.749-.907 11.493-1.659 17.274-.553 4.286-2.862 6.002-8.138 6.643-.838.101-1.605.182-2.314.233-.696.053-1.332.082-1.912.082-4.604 0-5.636-1.794-5.203-7.116.886-10.752 1.99-21.497 3.076-32.206.244-2.405.605-5.103 4.021-6.322 2.106-.752 4.291-1.296 6.388-1.397.234-.012.467-.017.698-.017 1.652 0 3.235.299 4.662 1.015 1.285.646 2.011 2.556 1.936 4.003-.303 5.902-1.015 11.858-1.575 17.807.009.001.02.001.02.001z" fill="#f26724"/><path d="m181.123 257.992c-1.031-.517-2.266-.78-3.669-.78-.195 0-.392.005-.591.015-1.68.081-3.615.509-5.752 1.271-1.982.708-2.303 1.902-2.563 4.461l-.19 1.872c-1.008 9.925-2.05 20.188-2.882 30.29-.233 2.862.08 3.857.384 4.186.185.201.771.538 2.613.538.511 0 1.082-.025 1.75-.077.624-.045 1.346-.117 2.208-.223 4.869-.591 5.851-1.938 6.212-4.732.525-4.032.872-8.136 1.207-12.106.075-.89.15-1.78.227-2.67h-.031l.227-2.419c.154-1.634.32-3.268.484-4.903.427-4.218.867-8.579 1.084-12.813.046-.856-.452-1.776-.718-1.91z" fill="#044c2d"/><path d="m54.495 313.315c-4.941.529-9.629 1.035-14.401 1.549 1.612-16.163 3.228-32.324 4.857-48.486 1.29-.3 2.437-.566 3.582-.832.408-4.053.81-8.019 1.222-12.1-9.719.72-19.25 1.43-28.782 2.143-.426 4.146-.849 8.296-1.272 12.452 1.22.026 2.436.054 3.872.082-.106 1.031-.19 1.904-.28 2.774-1.469 14.495-2.934 28.989-4.395 43.485-.332 3.316-.331 3.32-4.262 3.746-.42 4.191-.84 8.391-1.26 12.591 18.699-2.165 37.398-4.312 56.103-6.44.78-8.01 1.542-15.785 2.305-23.552-5.273.532-10.346 1.046-15.543 1.57-.601 3.779-1.174 7.409-1.746 11.018z" fill="#f26724"/><path d="m84.206 262.648c1.279.132 2.448.253 3.725.384-.095.944-.167 1.724-.247 2.502-1.393 13.973-2.758 27.946-4.057 41.929-.197 2.193-.765 3.54-3.446 3.748-.098.007-.195.013-.296.017h-.005c-.123.009-.274.184-.482.322-.372 3.828-.747 7.697-1.129 11.648 17.87-2.031 35.742-4.042 53.615-6.045.495-5.213.972-10.277 1.452-15.315-5.354.553-10.525 1.082-15.636 1.612-.361 1.199-.672 2.249-.996 3.325-4.094.432-7.997.842-11.946 1.261.581-6.003 1.149-11.856 1.739-17.935 6.075-.579 11.986-1.14 17.916-1.704.397-4.137.769-8.03 1.169-12.15-6.036.529-11.934 1.05-17.892 1.577.549-5.634 1.08-11.024 1.611-16.44 4.061-.322 7.959-.631 11.877-.94.162 1.154.311 2.21.445 3.157 5.278-.426 10.352-.832 15.554-1.249.497-5.137.979-10.104 1.476-15.211-17.762 1.27-35.527 2.547-53.289 3.839-.398 3.987-.775 7.826-1.158 11.668z" fill="#f26724"/><path d="m392.769 239.981h.024c.475 0 1.171.574 1.236.976.175 1.134.072 2.32.074 3.625 6.755-.49 13.48-.981 20.218-1.465 2.208-5.653-3.491-12-12.208-12.912-3.003-.313-6.049-.475-9.114-.475-1.117 0-2.236.021-3.359.064-4.826.186-9.698.78-14.564 1.821-9.229 1.977-14.913 7.06-16.896 14.744-.996 3.852-.888 7.622.683 11.111 2.81 6.243 9.663 8.492 18.636 8.695 3.513.082 7.03.229 10.432.594 3.731.4 5.699 2.07 5.494 4.93-.119 1.653-.196 3.31-.522 4.973-.391 2.011-2.143 3.379-4.954 3.757-3.952.527-7.905.909-11.838 1.225h-.007c-.015.001-.03.002-.046.002-.523 0-1.27-.618-1.31-1.046-.112-1.156.123-2.376.248-3.882-7.194.678-14.208 1.342-21.223 2.005-.008.124-.022.247-.032.368.162.922.318 1.843.486 2.763 1.145 6.215 6.263 9.522 14.733 9.966 1.577.083 3.163.124 4.755.124 2.476 0 4.97-.101 7.474-.302 5.157-.413 10.354-1.253 15.541-2.519 9.447-2.307 15.379-7.207 17.203-13.897 1.134-4.154 1.101-8.194-.495-11.964-2.465-5.835-8.76-8.393-17.391-8.941-3.715-.236-7.514-.372-11.058-.959-6.17-1.02-8.544-6.296-4.952-10.694.65-.797 2.243-1.622 3.461-1.819 3.068-.494 6.18-.683 9.266-.868z" fill="#f26724"/><path d="m329.179 285.158c-3.981.393-7.818.774-11.871 1.173.443-5.178.888-10.346 1.346-15.65 5.911-.522 11.753-1.043 17.786-1.573.307-3.595.601-7.045.914-10.696-5.891.478-11.789.955-17.825 1.45.43-4.934.838-9.659 1.259-14.474 3.988-.287 7.877-.57 11.908-.86.136.901.274 1.778.432 2.802 5.278-.389 10.59-.778 15.904-1.167.387-4.495.773-8.987 1.158-13.471-17.825 1.132-35.648 2.299-53.47 3.478-.328 3.651-.631 7.062-.931 10.423 1.307.093 2.422.173 3.679.261-.075.877-.145 1.625-.21 2.37-1.061 12.085-2.132 24.167-3.182 36.252-.255 2.944-.255 2.942-4.068 3.982-.298 3.424-.596 6.87-.899 10.38 17.954-1.914 35.91-3.815 53.869-5.699.38-4.537.758-9.067 1.138-13.595-5.277.506-10.551 1.015-15.923 1.532-.351 1.079-.668 2.04-1.014 3.082z" fill="#f26724"/><path d="m304.302 325.147c.195-1.078.425-2.143.637-3.213.698-5.292 1.463-9.494 1.626-10.372-.144-.262-.321-.519-.495-.779-.02-.034-.05-.064-.072-.097-.71-.769-2.06-2.094-4.071-3.537-.283-.185-.561-.379-.881-.512l-1.237-.58c-.42-.183-.808-.425-1.253-.561l-1.315-.444-1.317-.449c-.442-.143-.911-.214-1.364-.324-.918-.196-1.826-.426-2.753-.599l-2.818-.348-1.411-.174-1.431-.058-2.86-.128c-.697-.055-1.397-.036-2.097-.012-.321-.002-.631-.01-.96-.008-22.692.125-47.333 10.083-60.532 12.821-12.895 2.677-39.395 8.848-80.045 5.899-.084-.008-.169-.013-.253-.02-3.792-.322-7.581-.668-11.347-1.24-.032.691-.063 1.385-.132 2.074-.056.782-.174 1.557-.286 2.331-.226 1.549-.549 3.084-.898 4.611-.695 3.059-1.666 6.042-2.711 8.992-1.06 2.947-2.222 5.857-3.499 8.717-.645 1.426-1.311 2.845-1.999 4.252-.375.759-.75 1.511-1.137 2.264l4.041.529 6.12.666c4.081.404 8.172.699 12.265.916 4.093.265 8.19.306 12.289.377 2.05.027 4.097-.013 6.149-.031 2.05-.08 4.101-.094 6.149-.225 4.1-.185 8.192-.538 12.287-.884 4.09-.399 8.178-.864 12.267-1.378 4.09-.502 8.17-1.121 12.245-1.78 4.077-.654 8.141-1.396 12.189-2.213 4.05-.806 8.087-1.69 12.117-2.603 4.028-.92 8.043-1.916 12.066-2.892.006-.001.012-.003.018-.004-.563.63-1.161 1.088-1.829 1.201 3.269.706 12.533 1.322 15.813 1.942 4.332.826 8.664 1.65 13.015 2.307 2.175.341 4.354.643 6.531.917l3.267.42 3.269.344c1.087.128 2.177.192 3.266.271 1.09.078 2.181.169 3.251.187 1.083.025 2.135.098 3.238.082l3.267-.058 3.224-.234c1.05-.152 2.121-.25 3.153-.433 2.059-.344 4.09-.911 5.598-1.851 1.5-.939 2.035-2.116 1.869-3.895-.222-.757-.388-1.63-.514-2.582-.04-.149-.08-.298-.121-.449l-.141-.485c-.038-.04-.071-.085-.111-.125-.185-.194-.388-.549-.603-1.002.014-.788.041-1.71.015-1.901-.216-2.492.009-4.725.246-6.984.238-2.251.615-4.457 1.006-6.656z" fill="#0d4027"/><path d="m164.094 338.892c-.019.002-.028.002-.049.002-.579-2.623-.868-3.936-1.447-6.565-1.607.173-2.411.252-4.016.399 1.283 4.109 1.929 6.155 3.214 10.241-.361 2.778-.542 4.165-.903 6.943 1.428-.154 2.152-.229 3.58-.398.361-2.778.534-4.169.892-6.947 2.387-4.504 3.582-6.764 5.971-11.301-1.551.21-2.32.313-3.871.503-1.348 2.854-2.025 4.28-3.371 7.123z" fill="#fff"/><path d="m181.096 341.91c-.225 1.759-.808 3.143-2.476 3.405-1.668.261-1.929-.989-1.705-2.746.635-4.936.952-7.406 1.588-12.342-1.434.22-2.153.326-3.586.536-.635 4.934-.955 7.404-1.59 12.336-.618 4.731 2.026 5.304 4.941 4.846 2.912-.456 5.831-2.115 6.419-6.628.633-4.941.948-7.412 1.583-12.353-1.434.244-2.156.367-3.588.6-.635 4.938-.951 7.407-1.586 12.346z" fill="#fff"/><path d="m196.767 326.757c-5.39.996-6.561 4.919-7.246 10.303-.687 5.381-.512 9.104 4.876 8.112 4.711-.864 6.083-4.355 6.581-8.177-1.439.27-2.157.404-3.593.67-.495 3.826-1.516 4.671-2.81 4.911-1.549.283-2.178-.546-1.488-5.909.644-5.012 1.283-6.901 3.104-7.237 1.622-.298 2.015.719 1.687 3.3 1.437-.267 2.156-.406 3.594-.678.326-2.579.434-6.246-4.705-5.295z" fill="#fff"/><path d="m209.946 324.597c-2.8 7.453-4.198 11.184-6.994 18.635 1.497-.285 2.242-.43 3.741-.717.521-1.562.782-2.344 1.303-3.906 1.897-.363 2.845-.544 4.742-.909.138 1.437.208 2.154.348 3.588 1.495-.283 2.249-.425 3.746-.711-.977-6.733-1.467-10.1-2.441-16.831-1.779.341-2.666.509-4.445.851zm-.952 10.961c1.096-3.321 1.642-4.977 2.737-8.298.022-.002.03-.004.052-.009.281 3.057.423 4.582.706 7.637-1.398.269-2.097.403-3.495.67z" fill="#fff"/><path d="m231.904 320.501c-4.548.799-6.822 1.225-11.374 2.083-.151 1.171-.225 1.756-.374 2.927 1.558-.294 2.335-.44 3.893-.728-.762 5.918-1.143 8.873-1.903 14.792 1.437-.268 2.154-.397 3.591-.658.761-5.918 1.138-8.875 1.901-14.792 1.558-.283 2.342-.417 3.9-.691.148-1.173.217-1.763.366-2.933z" fill="#fff"/><path d="m238.035 319.46c-2.793 7.393-4.193 11.098-6.989 18.51 1.498-.261 2.24-.391 3.735-.642.521-1.553.782-2.328 1.303-3.882 1.892-.313 2.843-.469 4.737-.763.138 1.444.199 2.169.339 3.615 1.491-.231 2.243-.344 3.733-.562-.97-6.799-1.456-10.195-2.428-16.98-1.771.272-2.656.412-4.43.704zm-.955 10.959c1.093-3.297 1.638-4.947 2.733-8.237.019-.002.032-.004.052-.004.281 3.07.424 4.606.704 7.68-1.396.219-2.093.33-3.489.561z" fill="#fff"/><path d="m243.989 314c-1.374.208-2.059.315-3.435.534-.715 1.515-1.071 2.271-1.784 3.787.935-.154 1.402-.227 2.34-.376 1.151-1.581 1.725-2.37 2.879-3.945z" fill="#fff"/><path d="m259.394 316.53c-.622 4.832-.937 7.25-1.56 12.085-.019.002-.026.005-.045.007-1.106-4.649-1.659-6.973-2.765-11.603-1.648.196-2.474.303-4.122.52-.911 7.068-1.367 10.607-2.277 17.676 1.313-.177 1.968-.268 3.281-.432.633-4.945.949-7.421 1.579-12.366.019-.002.03-.004.049-.007 1.117 4.731 1.674 7.101 2.789 11.85 1.629-.181 2.441-.266 4.065-.419.907-7.056 1.365-10.579 2.275-17.63-1.305.118-1.96.183-3.269.319z" fill="#fff"/><path d="m125.224 251.101.081.065-.101.063z"/><path d="m310.105 311.61-.084-.261-.292-.905-.029-.088-.032-.089c-.173-.467-.36-.823-.484-1.059l-.053-.1c-.372-.795-.803-1.395-1.122-1.837l-.094-.132c-.472-.71-.981-1.244-1.358-1.637l-.096-.101c-.427-.462-.951-1.027-1.659-1.557l-1.136-.912-.134-.108-.143-.097c-.353-.241-.716-.462-1.08-.681-.107-.065-.214-.129-.32-.195-1.133-.747-2.248-1.232-3.241-1.658-1.17-.559-2.296-.89-3.29-1.184l-.085-.025-1.384-.419-.039-.012-.038-.011c-.509-.143-.965-.226-1.332-.292-.127-.024-.255-.047-.381-.074l-.065-.013-.066-.012c-.309-.057-.617-.117-.924-.176-.666-.128-1.355-.262-2.078-.371l-.13-.019-.129-.012-2.884-.263c-1.446-.12-2.879-.177-4.414-.177-2.308 0-4.804.131-7.856.413l-1.382.116-.138.012-.137.021-1.411.207-2.815.411c-.334.051-.644.094-.954.138-.646.09-1.314.184-2.011.311l-.043.009-.043.008-2.783.569-.028.005-.027.005c-.627.137-1.257.261-1.887.387-1.243.246-2.529.501-3.84.845l-5.424 1.367c-1.62.379-3.177.834-4.681 1.275l-.949.277-5.425 1.573-2.144.595c-2.796.778-5.688 1.581-8.533 2.325-4.001.883-7.524 1.613-10.761 2.231l-5.497.904c-.423.069-.854.142-1.286.214-1.403.234-2.728.456-4.047.605-1.373.165-2.707.34-4.04.517-2.317.305-4.714.621-7.042.844-2.183.225-3.975.425-5.671.631-1.088.118-2.173.209-3.323.306-.726.062-1.451.123-2.176.191l-.032.003-.032.003c-3.092.335-6.29.553-9.383.764l-1.652.113c-3.767.242-7.507.435-11.094.574l-5.566.19-5.592.099c-1.815.036-3.787.053-6.217.053-1.342 0-2.683-.004-4.026-.01l-.928-.003c-3.415-.017-7.049-.109-11.102-.279l-1.071-.045-2.924-.312-.029.188-.103-.004-.287 2.582-.215 1.42c-.387 2.546-1.043 5.221-1.95 7.949-.973 2.878-1.976 5.488-3.058 7.96-1.002 2.314-2.153 4.72-3.74 7.82-.68 1.327-1.361 2.614-2.028 3.826-.676 1.229-1.392 2.48-2.132 3.722l-1.067 1.797-3.304 5.56 6.381 1.063 2.076.346 5.953.991.057.009.057.009c.559.078 1.117.16 1.676.239 1.436.208 2.92.424 4.421.594 4.167.467 8.242.903 12.322 1.1l3.007.154.052.002.053.002 2.991.082c.857.034 1.775.052 2.884.052.658 0 1.316-.007 1.974-.013.453-.005.906-.007 1.358-.009 1.619-.017 3.209-.073 4.746-.125l1.42-.048.064-.002.064-.004c.694-.043 1.389-.078 2.084-.112 1.303-.065 2.649-.134 4.012-.251 3.763-.25 7.77-.659 12.247-1.249 3.631-.499 7.894-1.121 12.172-1.964 5.707-1.063 11.468-2.327 17.039-3.549 2.183-.478 4.365-.957 6.549-1.426 3.96-.857 7.886-1.674 11.682-2.432 3.331-.659 6.935-1.318 11.681-2.13.422-.073.829-.14 1.236-.207.028-.004.055-.009.083-.013 1.305.404 2.396.728 3.441 1.022 2.298.661 4.353 1.231 6.264 1.737 1.689.467 3.426.882 5.107 1.283l1.227.296c2.503.586 4.533 1.037 6.421 1.428 1.978.422 4.089.836 6.434 1.261l.038.007.039.007 3.184.52.054.009.054.006 3.204.443c.9.136 1.823.231 2.717.324l.636.067.511.054c.95.102 1.93.205 2.979.259.338.019.7.045 1.061.069.762.054 1.548.11 2.36.123l3.268.048h.117l.117-.004 3.284-.128.156-.006.155-.015c.336-.039.672-.067 1.007-.1.772-.069 1.648-.147 2.56-.303l.205-.037c1.103-.192 2.35-.408 3.67-.823l.184-.052c.27-.076.54-.151.809-.244l.127-.044.125-.049.842-.346.883-.376.284-.119.265-.16.783-.469c1.909-1.093 3.505-2.798 4.503-4.809 1.202-2.363 1.197-4.725 1.087-6.297-.119-1.616-.49-2.973-.786-4.062l-.064-.233-.011-.041-.012-.039-.452-1.547-.012-.041-.02-.116-.082-.458c-.11-1.447.045-3.247.231-4.984.225-2.054.5-4.076.818-6.001.626-3.866 1.428-7.977 2.382-12.23l.093-.404.27-1.184zm-10.486 36.994c-1.458.91-3.424 1.458-5.416 1.791-.998.177-2.035.272-3.05.419l-3.119.227-3.161.056c-1.067.015-2.085-.056-3.133-.08-1.035-.017-2.091-.106-3.146-.181-1.054-.076-2.108-.138-3.16-.262l-3.163-.333-3.16-.406c-2.106-.265-4.215-.557-6.319-.887-4.21-.635-8.401-1.433-12.593-2.232-3.174-.6-6.338-1.268-9.501-1.951 2.709-.46 5.416-.925 8.125-1.359 3.945-.625 7.876-1.296 11.808-1.959 3.94-.651 7.84-1.353 11.799-1.942l2.962-.475 2.964-.564c1.938-.317 3.884-.615 5.83-.782 1.947-.17 3.902-.264 5.838-.145 1.929.102 3.862.348 5.675.946 1.812.568 3.554 1.452 4.87 2.828.039.039.071.082.108.121l.136.469c.27.994.534 1.955.607 2.821.195 1.787-.317 2.952-1.801 3.88zm1.59-23.296c-.378 2.128-.743 4.262-.97 6.44-.229 2.187-.447 4.347-.238 6.758.041.311.106.637.162.955-1.149-1.039-2.516-1.837-3.936-2.422-3.912-1.549-8.12-1.784-12.184-1.631-2.045.049-4.067.304-6.083.564l-2.945.456-2.975.384c-3.955.548-7.95 1.121-11.893 1.812-3.951.674-7.883 1.454-11.795 2.322-3.908.886-7.81 1.791-11.7 2.733-3.893.944-7.777 1.908-11.674 2.798-3.899.883-7.805 1.739-11.724 2.519-3.917.791-7.848 1.508-11.793 2.141-3.943.638-7.889 1.236-11.847 1.722-3.956.497-7.911.946-11.869 1.333-3.962.335-7.922.676-11.888.856-1.981.127-3.966.14-5.949.218-1.985.018-3.966.056-5.949.03-3.966-.069-7.931-.108-11.89-.365-3.96-.21-7.918-.495-11.867-.886l-5.922-.644-3.91-.512c.374-.728.737-1.456 1.1-2.19.665-1.361 1.309-2.733 1.934-4.113 1.235-2.767 2.359-5.582 3.385-8.434 1.011-2.854 1.951-5.74 2.623-8.7.337-1.478.65-2.962.868-4.461.108-.749.222-1.499.276-2.255.067-.667.097-1.339.128-2.007 3.644.553 7.31.888 10.979 1.199.082.007.163.012.245.02 39.33 2.853 64.97-3.118 77.446-5.708 12.77-2.649 36.611-12.284 58.566-12.405.318-.002.619.005.929.007.677-.023 1.355-.042 2.029.012l2.767.123 1.385.056 1.366.168 2.726.337c.897.167 1.776.389 2.664.579.438.106.892.175 1.32.313l1.275.434 1.272.43c.43.132.806.365 1.212.543l1.197.562c.41.171.745.451 1.121.667.363.236.741.454 1.093.7l.977.819c.347.255.616.57.892.879.279.307.577.603.778.946.222.333.477.655.611.998.075.167.188.344.235.497.017.058.039.114.056.173-.987 4.062-1.871 8.114-2.616 12.23z" fill="#044c2d"/><path d="m418.822 251.66 4.556-.348 2.59-6.604c1.639-4.184 1.227-8.656-1.158-12.594-3.524-5.816-10.867-9.856-19.642-10.806-4.906-.532-9.877-.717-14.779-.553-5.889.203-11.765.912-17.439 2.107-3.664.734-7.056 1.895-10.13 3.402l.301-3.512-12.562.749c-17.814 1.069-35.628 2.15-53.438 3.251l-11.742.724-.011.121-5.141.318c-6.058.376-9.719.607-14.776.924l-16.106 1.014-.317 3.469c-2.283-1.903-5.239-2.923-8.611-2.923-.205 0-.415.004-.694.015l-.158.007c-5.779.289-11.588.667-17.207 1.032l-16.304 1.05-.484 5.169c-4.511-2.526-9.97-3.977-15.634-4.04-2.787-.136-5.621-.142-8.836-.024-3.714.138-7.581.441-12.131.944-5.934.573-12.05 2.299-17.52 5.2l.343-3.556-12.638.842c-13.666.918-27.332 1.841-41.001 2.772l-23.958 1.646-3.055 30.51 3.725.376-.415 4.139c-.432 4.308-.895 8.955-1.361 13.736l-18.622 1.797c.652-6.557 1.086-10.914 1.773-17.767l3.584-.84 3.161-31.331-12.664.881c-11.506.802-17.257 1.203-28.76 2.018l-11.701.835-3.363 32.707 3.878.067-.524 5.159c-.829 8.169-1.657 16.334-2.481 24.503l-3.935.41-3.435 34.306 12.896-1.551c10.104-1.214 15.155-1.817 25.258-3.022 10.099-1.203 16.068-1.91 24.662-2.925l17.898-2.117.006-.076c11.445-1.348 18.073-2.126 30.378-3.565 8.153-.953 7.275-.851 15.428-1.797l3.433-9.154 13.892 1.746c2.292.944 5.401-2.176 8.215-1.746 2.342.358 2.204 1.644 4.182 1.746h3.137c.67.035 2.028-.047 2.689 0l4.332-.682 10.775-1.557 2.13 1.821c1.183 2.143 2.228.136 2.533.034l2.039.383c6.425-1.367 9.539-2.195 14.499-5.345l-.4 4.457 41.915-11.669 5.377-1.867c2.162 1.713 1.902.149 5.004.149.491 0 3.513-.484 3.958-.523l2.315-.523c4.64-.428 8.539-1.105 13.294-1.643l8.738-.523 3.734-.299 10.755.317c6.169-.682 8.595 5.081 14.768 4.4 11.772-1.297 25.037-2.755 36.872-4.052l11.717-1.279.223-2.653c2.832.875 6.014 1.419 9.525 1.59 1.679.08 3.396.121 5.102.121 3.066 0 6.18-.132 9.263-.391 6.079-.514 12.247-1.543 18.33-3.05 14.327-3.556 24.166-11.526 26.991-21.867 1.599-5.863 1.333-11.355-.786-16.321-1.031-2.416-2.893-5.313-6.255-7.869zm-344.837 49.284c-.762 7.766-1.525 15.54-2.305 23.549l-.174 1.782-1.779.202c-18.198 2.07-37.072 4.236-56.098 6.438l-2.729.316.273-2.732c.419-4.201.839-8.4 1.26-12.591l.179-1.786 1.784-.193c.821-.088 1.664-.18 2.124-.274.063-.363.122-.954.176-1.494 1.461-14.497 2.925-28.99 4.395-43.49l.039-.386c-.099-.002-.198-.004-.296-.006l-1.182-.025-2.397-.051.243-2.385c.424-4.157.847-8.308 1.273-12.454l.19-1.841 1.846-.138c9.532-.713 19.064-1.423 28.783-2.143l2.629-.195-.265 2.624-.319 3.151-.904 8.948-.159 1.576-1.542.357-.876.203-1.163.27c-1.484 14.732-2.958 29.464-4.428 44.199 3.308-.356 6.607-.712 10.009-1.077l.435-2.742 1.047-6.604.267-1.682 1.694-.172 5.935-.6 9.609-.971 2.687-.27zm65.216-36.534-1.847.148-2.464.197c-4.35.349-8.648.694-13.089 1.051l-2.076.167-.292-2.062-.154-1.096-7.957.629-.258 2.631c-.302 3.072-.605 6.159-.913 9.312 5.061-.448 10.1-.892 15.238-1.342l2.652-.232-.257 2.65c-.286 2.943-.557 5.769-.833 8.652l-.335 3.495-.174 1.818-1.818.173-2.744.26-13.356 1.272-.159 1.646-1.142 11.773c1.907-.202 3.817-.403 5.755-.607l2.032-.215.065-.217.509-1.699.425-1.412 1.466-.151c2.812-.292 5.643-.582 8.512-.878l7.125-.733 2.685-.278-.256 2.688-.854 8.999-.598 6.316-.17 1.789-1.786.2c-20.666 2.316-37.701 4.237-53.612 6.044l-2.715.308.263-2.719.92-9.482.21-2.168.082-1.031.873-.582.058-.047c.24-.194.74-.601 1.515-.655l.082-.005h.026c.067-.004.129-.008.176-.011 1.146-.088 1.266-.098 1.414-1.747 1.145-12.333 2.435-25.661 4.059-41.951.011-.101.021-.201.031-.301l-1.535-.159-2.193-.226.218-2.194.522-5.264.636-6.401.185-1.852 1.856-.135c17.763-1.292 35.528-2.568 53.291-3.839l2.614-.187-.254 2.607c-.496 5.107-.978 10.074-1.475 15.21zm68.06-5.611c-.583 11.798-1.672 23.464-3.238 34.674-1.471 10.497-10.437 18.373-23.982 21.067-.302.061-.663.182-1.046.31-.229.076-.458.153-.686.222l-.196.06-.204.022-5.546.614c-3.038.336-6.076.672-9.113 1.01l-.204.023-.205-.015c-.778-.057-1.563-.1-2.348-.142-1.808-.099-3.678-.202-5.495-.485-10.162-1.59-15.49-7.91-15.005-17.794.561-11.325 1.654-22.927 3.25-34.482 1.636-11.873 11.216-19.952 25.626-21.611 4.336-.499 7.906-.796 11.234-.934 1.388-.058 2.759-.089 4.076-.089 1.27 0 2.526.028 3.732.082 6.885.307 12.281 2.399 15.602 6.052 2.682 2.949 3.978 6.897 3.748 11.416zm79.781-21.528c-.305 3.4-.614 6.843-.933 10.388l-.146 1.613-1.581.349-1.065.234-.945.209c-1.475 16.487-2.972 33.391-4.571 51.62l-1.53-.685-1.792.373c-1.41.151-3.318-.002-4.705.149-4.524.492-7.616 1.101-11.95 1.494l-1.568-.224c-.078.007-.531.373-.609.373-1.607 0-1.006 1.156-1.727.09-5.51-8.239-11.135-16.791-17.132-26.049-.474 5.204-.934 10.294-1.399 15.422.454.022.913.044 1.384.066l2.306.109-.207 2.3c-.322 3.57-.64 7.093-.968 10.759l-.162 1.807-1.804.195c-8.195.886-16.298 1.765-24.523 2.664l-2.689.294.245-2.694.581-6.362.419-4.584.145-1.59 1.555-.363c.142-.034.281-.071.418-.108.374-.1.798-.213 1.268-.269.281-.035.452-.078.55-.109.011-.056.022-.137.03-.247.391-5.082.877-10.237 1.346-15.222.173-1.838.345-3.676.515-5.512.18-1.954.362-3.908.544-5.86.392-4.2.784-8.395 1.153-12.583.018-.196.036-.38.053-.551-.398-.024-.864-.053-1.407-.095l-2.238-.175.209-2.236.957-10.26.065-.695.175-1.874 1.876-.127 4.557-.315c5.604-.389 11.4-.791 17.073-1.099l.418-.022.144.048c1.582.208 2.646 1.605 3.055 2.24 6.162 9.673 11.747 18.367 17.025 26.504.463-5.149.914-10.128 1.366-15.126l-.147-.01-1.114-.071-2.265-.146.204-2.262.575-6.314.386-4.245.172-1.879 1.884-.127c8.015-.538 15.996-1.069 24.177-1.614l2.581-.172zm61.28 43.459-.673 8.028-.466 5.567-.153 1.824-1.82.191c-17.274 1.811-34.894 3.676-53.867 5.698l-2.669.286.231-2.674c.303-3.511.601-6.958.899-10.382l.143-1.54 1.487-.405c.926-.253 1.879-.512 2.293-.689.054-.299.102-.85.145-1.347.698-8.034 1.405-16.067 2.113-24.102l1.069-12.151.01-.132-.201-.014-1.232-.088-2.247-.16.2-2.243.301-3.378c.203-2.28.411-4.61.629-7.047l.17-1.885 1.888-.125c21.015-1.39 38.008-2.495 53.476-3.478l2.564-.163-.22 2.56-.931 10.845-.227 2.628-.161 1.878-1.882.138c-5.313.388-10.625.777-15.903 1.165l-2.037.15-.311-2.019-.122-.785-4.776.344-3.214.232-.587 6.737-.283 3.248c4.666-.381 9.26-.753 13.844-1.124l1.373-.111 2.606-.212-.224 2.605-.718 8.416-.194 2.278-.159 1.853-1.852.162c-4.102.36-8.114.716-12.12 1.07l-3.815.338c-.326 3.759-.643 7.456-.959 11.147l4.356-.431 3.435-.339c.184-.556.367-1.113.561-1.707l.451-1.376 1.441-.139 6.325-.608 9.6-.924 2.637-.253zm5.519-11.195-5.377.488.471-5.559c1.307 1.947 2.94 3.643 4.906 5.071zm30.008-26.501c-.784.126-1.847.724-2.1 1.035-1.11 1.359-1.456 2.806-.976 4.077.574 1.522 2.285 2.656 4.578 3.035 2.78.46 5.833.638 8.784.81.685.04 1.369.08 2.052.123 10.332.657 16.641 4.023 19.287 10.286 1.716 4.052 1.916 8.563.592 13.408-2.046 7.51-8.727 13.002-18.812 15.465-5.273 1.286-10.618 2.153-15.889 2.574-2.549.205-5.124.309-7.651.309-1.624 0-3.263-.043-4.871-.127-12.205-.638-15.869-6.754-16.793-11.776-.117-.633-.226-1.265-.336-1.898l-.154-.881-.051-.287.026-.292.012-.126.017-.2.132-1.871 1.866-.177.149-.014 21.075-1.99 2.631-.249-.218 2.635c-.039.463-.089.902-.134 1.32-.045.405-.087.783-.112 1.133 4.051-.337 7.474-.698 10.7-1.129 1.031-.138 2.804-.581 3.076-1.99.253-1.29.343-2.601.439-3.989l.05-.717c.048-.651.156-2.178-3.524-2.571-3.619-.388-7.378-.514-10.246-.582-10.946-.247-17.686-3.518-20.604-9.998-1.71-3.8-1.981-8.03-.807-12.572 2.212-8.57 8.635-14.226 18.576-16.355 4.89-1.045 9.917-1.674 14.942-1.867 1.141-.044 2.299-.067 3.444-.067 3.104 0 6.247.164 9.345.487 5.77.604 10.683 3.372 13.139 7.406 1.659 2.724 1.979 5.746.899 8.512l-.508 1.302-1.393.101c-5.193.372-10.378.75-15.576 1.127l-4.642.338-2.368.172-.004-2.375c0-.384.008-.758.015-1.124.011-.436.02-.839.011-1.213-2.682.162-5.426.356-8.068.782z" fill="#044c2d"/></svg>