<svg xmlns="http://www.w3.org/2000/svg" viewBox="0 0 84.8 83.5"><path d="M79.4 71.1h-.8v2.2H78v-2.2h-.8v-.5h2.2v.5zm3.7 2.2h-.6v-2.1l-.8 2.1h-.5l-.8-2.1v2.1h-.6v-2.7h.9l.6 1.8.7-1.8h.9v2.7z" fill="#231f20"/><path d="M54.4.5c-4.2 1.1-8 3.2-11.2 6.1-2-1.2-9.5-5-17.1-3.2-5.6 1.3-14 6.2-19 16-4.6 9-7 19-7.1 29.2 0 5.3.7 10.5 2 15.6l-1.7.4V79l7.9 4.4 17.6-3.7v-13c-3.1-3.9-4.7-10.9-4.7-17.5-.1-6.4 1.3-12.7 4-18.5 1.8-3.6 4.1-6.1 6.1-6.8-2.3 6.5-3.5 13.4-3.5 20.3 0 5 .6 10 1.8 14.8l-1.6.3v14.1l7.7 4.3 21.8-4.6V58.7l-1.7-1c1.3-5.3 1.9-10.7 1.9-16.2 0-5.8-.8-11.6-2.4-17.2 1.5-2.3 3.5-4.2 5.4-4 1.8 1.5 3.6 6.5 3.6 16.3 0 6.5-1.6 13.7-4.5 18.8v11.4l7.7 4.3 17.1-3.6V53.4l-1.5-.9c1.2-5 1.8-10.2 1.8-15.4 0-10.2-2.4-19.4-6.6-26C74.3 5.1 66.1-2 54.4.5z" fill="#fff"/><path fill="#231f20" d="M61 15.5zM55 3.2c-4.4 1.2-8.4 3.6-11.5 7-2.3-1.9-9.5-5.7-16.8-4.1C21.6 7.3 14 11.8 9.5 20.7c-4.4 8.7-6.7 18.2-6.8 27.9-.1 6 .9 12 2.7 17.7l-2.4.5v10.6l1.6.9 4 2.2 14.4-3v-10l-.3-.5c-2.8-4.3-4.4-10.6-4.4-17.8-.1-6.8 1.4-13.6 4.4-19.8 2.4-4.7 5.5-7.8 8.5-8.4.9-.2 1.8-.1 2.6.1.4.2.7.5 1.1.9-2.9 7-4.4 14.5-4.5 22.2 0 5.7.9 11.4 2.6 16.8l-2.3.5v10.3l1.6.9 3.8 2.2 13.9-3 4.7-1V60.3l-2.1-1.2c1.6-5.7 2.4-11.6 2.4-17.6.1-6-.8-12-2.7-17.7 2.1-3.5 4.7-5.8 7.1-6.3.8-.2 1.6-.1 2.4.1 3.4 2.1 5.2 8.8 5.2 18.9.1 6.6-1.4 13.1-4.3 19l-.2.5v9.1l5.4 3.1 13.9-2.9V55l-2-1.1c1.5-5.5 2.2-11.1 2.2-16.7 0-9.6-2.1-18.4-6.2-24.6C72.1 6.9 65 1 55 3.2z"/><path d="M80 37.1c0-9.3-2.1-17.6-5.8-23.5-4-6.2-9.4-9-15.2-7.7-4.2.9-8.2 3.8-11.6 8.3.4.5.8 1.1 1.2 1.7 1.1 1.8 2.1 3.6 2.9 5.6.8-1.2 1.8-2.4 2.9-3.4 1.6-2.1 3.8-3.7 6.4-4.3 3.5-.7 6.9 1.1 9.5 5.1 2.8 4.4 4.7 12.5 4.7 19.7 0 6.9-1.3 14.9-4.3 21v3.9l6.6-1.4 2.6 1.5v-7.4l-3 .6c2-6.3 3.1-13 3.1-19.7zM56.5 16.5zm-30 4.7zm1.2-.9l-.1.1.1-.1zm-.6.4zM46.7 17c-4.2-6.5-9.9-9.4-16-8.1-3.4.8-6.5 2.5-8.9 5-2 2.4-3.8 5-5.2 7.9-4.1 8.4-6.2 17.7-6.1 27.1 0 7.2 1.5 16.4 4.5 22.5L12.1 70l-3.2.7 2.4 1.4v3.8l6.9-1.4 2.8 1.6v-7.8c-3-4.6-4.7-11.3-4.7-18.9-.1-7.2 1.5-14.2 4.6-20.7 1.2-2.6 2.9-4.9 5-6.9 1.7-2.2 4-3.8 6.7-4.5 3.7-.8 7.2 1.1 9.9 5.4 3 4.6 4.9 13.1 4.9 20.7 0 7.2-1.3 15.6-4.5 22v4.1l6.9-1.4 2.8 1.5v-7.8l-3.2.7c2.3-6.6 3.4-13.6 3.4-20.6 0-10-2.1-18.8-6.1-24.9zm-18.3 2.9l-.2.1.2-.1zm1.4-.6l-.3.1.3-.1zm-.7.3l-.2.1.2-.1z" fill="#cfab7a"/><path d="M30.8 19c-.2 0-.4.1-.6.2.1-.1.3-.1.6-.2z" fill="#cfab7a"/><path d="M42.9 69.2v-4.1c3.1-6.4 4.5-14.8 4.5-22 0-7.5-1.9-16.1-4.9-20.7-2.7-4.2-6.2-6.1-9.9-5.4-2.7.7-5 2.3-6.7 4.5l.5-.5h.1l.5-.4.1-.1.5-.3.1-.1.5-.3.2-.1.4-.2.2-.1.4-.2.3-.1.3-.1c.2-.1.4-.1.6-.2 3.7-.8 7.2 1.1 9.9 5.4 3 4.6 4.6 11.3 4.6 18.8.1 7.2-1.5 14.4-4.7 20.9v7.8l12.1-2.6-2.8-1.5-6.8 1.6zM10.5 48.9c-.1-9.4 2-18.7 6.1-27.1 1.4-2.8 3.1-5.5 5.2-7.9l-.3.3-.6.6-.4.4c-.2.2-.4.4-.6.7l-.4.4-.5.7-.4.5-.5.7-.4.6-.5.7c-.2.2-.3.5-.5.7l-.4.6c-.2.3-.4.6-.6 1l-.3.5c-.3.5-.5 1-.8 1.5-4.1 8.4-6.2 17.7-6.1 27.1.1 6.5 1.2 13 3.6 19.1l2.9 1.4c-3-6-4.5-15.3-4.5-22.5zm.8 26.9v-3.7l-2.4-1.4v7.7L21 75.9l-2.8-1.5zm59.2-12.3v-3.9c3-6.1 4.3-14.1 4.3-21 0-7.2-1.8-15.3-4.7-19.7-2.6-4-6-5.9-9.5-5.1-2.6.7-4.8 2.2-6.4 4.3.7-.6 1.5-1.2 2.3-1.6l.5-.3h.1l.4-.2.2-.1.4-.1h.2l.6-.1c3.5-.7 6.9 1.1 9.5 5.1 2.8 4.4 4.4 10.8 4.4 17.9.1 6.9-1.5 13.8-4.5 20V66L79 63.8l.8-.2-2.6-1.5-6.7 1.4z" fill="#fff"/><path fill="#231f20" d="M33 18.9zm17.8 23.5v-1.7l.6-.1-.2-4.7-.8.1c-.4-3.6-1.2-7.1-2.5-10.5l.6-.3-1.8-4.3-.7.2c-.2-.4-.5-.8-.7-1.2-.9-1.5-2-2.8-3.3-4l-.1.2c.5.5.9 1.1 1.4 1.8.8 1.1 1.4 2.2 2 3.4l-.9.3.6 1.3 1.3-.4 1.3 3.1-.4.2C48.3 29 49 32.5 49.3 36l-.7.1.1 1.3 1.4-.2.1 3.5-.7.1c0 3.4-.2 6.9-.8 10.2h-.6l-.1 1.4 1.4.2-.5 3.2H50l.8-4.5-.7-.1c.5-2.9.7-5.9.7-8.8zM21.3 20.1l-.1-.1c-1.3 1.7-2.4 3.5-3.3 5.4l-.1.2-1-.4-.6 1.5 1.4.5-1.3 3.2-.5-.2c-1.3 3.6-2.3 7.4-2.8 11.2l-.9-.1-.1 1.6 1.6.2-.2 3.2h-.8c-.1 1.3-.1 2.6-.1 3.9 0 2.7.2 5.4.6 8.1l-.7.2.3 1.5 1.7-.3.8 3 1.3-.3-.9-4.5-.9.2c-.5-3.6-.7-7.3-.5-10.9v-.7h.6l.6-4.6-.8-.1c.5-3.7 1.3-7.4 2.4-11l.8.2 1.9-4.7-1-.4c.7-1.6 1.4-3.2 2.2-4.7.1-.4.2-.7.4-1.1zm19.5-6.9l-2.7-1.9C35.7 9.7 29 9.1 23.4 15l1.6 1.7 2.9.4-1.7-2c5.4-4.5 11.8-3.6 14.6-1.9zm37.3 24.7v-1.6l.6-.1-.2-4.5-.7.1c-.4-3.4-1.2-6.8-2.4-10l.6-.3-1.7-4.1-.8.3c-.2-.4-.4-.8-.7-1.1-.9-1.4-1.9-2.7-3.2-3.8l-.1.2c.4.5.9 1.1 1.3 1.7.7 1 1.4 2.1 2 3.2l-.8.2.5 1.2 1.2-.4 1.2 3-.3.1c1.1 3.2 1.8 6.5 2.1 9.8l-.6.2.1 1.2 1.2-.2.1 3.3-.6.1c0 3.3-.2 6.5-.8 9.8h-.6l-.2 1.2 1.3.2-.5 3.1h1.1l.8-4.3-.6-.1c.5-2.8.7-5.6.7-8.4zm-9.6-27.8l-2.6-1.8c-2.3-1.6-8.7-2.2-14.1 3.4l1.6 1.6 2.7.4-1.6-1.9c5.2-4.3 11.3-3.4 14-1.7z"/><path d="M38.4 30c-1.5 5.3-2.2 10.8-2.2 16.3 0 3.2.3 6.4.8 9.5C38.6 51 39.3 46 39.3 41c.1-3.7-.3-7.4-.9-11z" fill="#cfab7a"/></svg>