<svg xmlns="http://www.w3.org/2000/svg" viewBox="0 0 101.647 54"><path d="M36.509 22.558c.155-.131.31-.264.468-.395-.735-.47-2.472-1.74-3.129-3.58 0 0 1.474.915 2.839 1.604.483.245 1.094.529 1.709.855.467-.348.942-.68 1.425-.988.521-.331 1.038-.631 1.551-.9-.55-.335-1.226-.619-2.04-.75-2.607-.421-5.221-2.193-6.094-1.046-.429.563-.151 2.7.921 4.638.693.213 1.474.403 2.35.562" fill="#cf7418"/><path d="M72.516 44.622c-5.805 1.428-13.556.276-9.54 2.004 3.169 1.365-1.826 2.293-8.63 2.025-6.807-.268-18.904-1.771-20.508-.084-1.775 1.869-8.575 1.779-15.311 1.555-11.717-.388-13.008-3.661-6.86-5.01-.004-.275.017-.508.024-.68.003-.08.011-.158.023-.234-6.057.709-13.189 6.477 6.313 8.23 6.601.594 14.997.158 19.306-.787 3.415-.75-.837-2.771 7.209-1.932 5.168.54-1.823 1.592 3.681 1.842 4.586.207 4.013 1.808 9.292 1.881 2.792.039 5.367-1.258 2.341-1.56-4.965-.494-1.018-1.629 2.531-1.491 4.902.193 8.56-.893 5.341-1.334-2.889-.396.09-1.572 3.151-1.994 10.023-1.381 11.457-4.824.113-5.666.135.324.237.604.312.83 3.259.378 5.11 1.444 1.212 2.405" fill="#fff"/><path d="M34.344 24.489c-11.019-2.643-7.207-10.726-3.332-14.225 1.34-1.212 1.409-2.025-.592-1.748-3.149.437-5.497 2.417-6.205 3.078.196.548.654 1.021 1.453 1.382 0 0-1.699.755-2.873-.263-1.982-1.715.601-5.926 3.789-8.836 1.368-1.25.603-2.217-1.493-1.355-2.266.93-4.354 3.367-6.257 5.433-1.711 1.856-3.927 2.77-5.472 2.774.067 1.077 1.46 1.522 1.46 1.522s-1.278.728-2.539.014c-.809-.459-1.619-2.023.566-5.021 1.859-2.552 4.427-3.618 3.461-4.345-1.294-.974-9.366 2.823-10.186 10.414-.346 3.201 1.975 4.697 3.32 5.29 1.446-2.277 4.66-2.813 6.76-6.15 1.394-2.217 4.592-1.086 3.893 2.098.165.021.33.049.496.084 3.053.661 4.993 3.672 4.332 6.727a5.725 5.725 0 01-.429 1.254c1.399.334 2.523.824 2.866 1.547 0 0-4.165-.471-6.209-.383-2.897.126-5.08-.655-5.527-2.649-.419-1.873 2.038-3.803 2.932-6.573.452-1.399-.486-2.696-1.65-.549-2.107 3.887-7.088 4.502-5.574 8.577 1.966 5.289 14.163 3.127 20.438 4.19.733-.589 1.604-1.398 2.572-2.287" fill="#e7d2ad"/><path d="M20.219 16.358a3.9192 3.9192 0 00-.666-.086c-.366.953-.75 1.66-1.102 2.449.246-.138.49-.273.733-.405.007-.005.018-.006.026-.005l.094.019c.064.012.129.024.194.041.016.004.028.016.03.033.003.016-.006.031-.021.041-.215.115-.431.235-.649.357.183.03.372.071.575.124.257-.111.521-.223.785-.332a.0477.0477 0 01.029-.001c.092.034.183.066.274.1.015.007.026.021.027.036 0 .018-.01.031-.025.039-.224.09-.449.183-.67.277.163.052.337.115.551.203.265-.08.532-.16.797-.232.01-.003.02-.002.029.003.094.047.183.099.258.142.014.008.021.023.02.039a.0408.0408 0 01-.03.033c-.225.061-.453.125-.682.19.011.006.022.012.033.016.185.091.346.178.493.266.268-.047.537-.09.799-.127.011-.002.021 0 .03.008.031.023.062.045.093.068.049.035.097.07.143.107.012.01.017.025.013.041a.0383.0383 0 01-.033.029c-.229.031-.461.063-.689.1.194.131.348.244.491.357.267-.01.536-.014.799-.015.01-.001.021.003.028.011.08.076.147.142.213.211.011.012.014.029.007.043a.0393.0393 0 01-.037.024c-.224-.002-.452-.002-.679.003.153.136.304.28.449.429.044.006.088.012.131.017.035.006.07.009.104.013.002 0 .003.002.005.002.003-.012.006-.024.009-.037.457-2.103-.878-4.175-2.979-4.631" fill="#fff"/><path d="M22.803 21.973c-.005-.254-.009-.509-.016-.761-.154-.16-.301-.303-.449-.433.028.261.055.524.083.786a.0404.0404 0 01-.022.04.0398.0398 0 01-.045-.009c-.058-.059-.124-.121-.209-.201a.042.042 0 01-.012-.025c-.031-.282-.063-.563-.094-.844-.16-.125-.327-.246-.498-.358.054.253.107.507.159.763a.0406.0406 0 01-.018.042.039.039 0 01-.045-.001l-.05-.039c-.061-.047-.12-.094-.183-.138a.0465.0465 0 01-.016-.024c-.058-.271-.116-.543-.175-.812a8.8085 8.8085 0 00-.502-.274c-.013-.006-.025-.012-.037-.018.08.242.158.486.236.733a.039.039 0 01-.013.043.0377.0377 0 01-.045.004c-.051-.03-.102-.058-.154-.085-.033-.019-.065-.035-.097-.053a.0425.0425 0 01-.019-.021c-.084-.261-.17-.517-.256-.771-.213-.09-.399-.16-.579-.217.105.225.209.454.312.682a.044.044 0 01-.008.045.0353.0353 0 01-.043.008 4.8834 4.8834 0 00-.205-.075l-.063-.022a.0414.0414 0 01-.023-.022c-.109-.242-.222-.482-.334-.719a7.9064 7.9064 0 00-.608-.133c.13.209.259.418.382.623.009.014.007.031-.002.045-.01.013-.023.017-.042.014l-.027-.006a4.549 4.549 0 00-.256-.063.0393.0393 0 01-.026-.018c-.135-.221-.275-.44-.413-.654-.019-.002-.038-.003-.056-.006-.046.108-.092.221-.136.335-.014.036-.027.072-.041.108.017.022.034.043.052.064.01.012.012.03.003.044a.0392.0392 0 01-.038.021.4251.4251 0 00-.06-.007c-.476 1.394-.12 2.304 2.058 2.458.798.056 1.657.138 2.495.255.028-.042.054-.085.08-.13.002-.001.003-.004.005-.006.025-.043.05-.087.073-.132.001-.001.001-.001.002-.003a.0348.0348 0 01-.025-.033" fill="#fff"/><path d="M23.082 21.01c-.043-.005-.087-.011-.131-.016-.146-.15-.296-.294-.449-.429.227-.004.454-.006.679-.003.016 0 .031-.01.037-.024a.038.038 0 00-.007-.043 6.1329 6.1329 0 00-.213-.211.0317.0317 0 00-.027-.011c-.263 0-.532.005-.799.015a7.93 7.93 0 00-.491-.357c.229-.035.459-.07.689-.1a.0416.0416 0 00.033-.028.0412.0412 0 00-.014-.043c-.046-.036-.095-.071-.143-.106-.031-.024-.063-.046-.093-.068a.0405.0405 0 00-.03-.008c-.262.039-.53.08-.799.127-.146-.088-.308-.174-.493-.265-.011-.005-.022-.011-.033-.016.228-.066.458-.13.682-.191a.0409.0409 0 00.03-.032.0424.0424 0 00-.02-.04c-.075-.043-.165-.095-.259-.142a.0343.0343 0 00-.028-.003c-.265.074-.532.152-.797.232-.213-.088-.388-.152-.551-.204.221-.094.446-.188.67-.277a.0392.0392 0 00.024-.038c0-.016-.011-.031-.026-.035-.091-.034-.182-.066-.274-.1a.0365.0365 0 00-.029 0c-.263.109-.527.221-.784.334a5.8564 5.8564 0 00-.575-.126c.216-.121.433-.241.649-.358a.0408.0408 0 00.021-.039.0395.0395 0 00-.03-.033 3.3495 3.3495 0 00-.194-.041l-.093-.019a.0467.0467 0 00-.028.005c-.243.132-.487.267-.732.405-.041.091-.081.184-.12.277l.056.006c.139.214.278.435.413.654.006.01.016.016.026.02.085.016.169.038.255.061l.027.006c.02.003.032-.002.042-.014.009-.014.011-.031.002-.045a45.919 45.919 0 00-.382-.623c.211.038.415.081.608.133.112.234.225.477.335.719.004.009.012.018.022.02l.063.024c.069.024.139.049.205.075.015.008.032.004.044-.008.011-.013.014-.03.007-.045-.102-.227-.207-.457-.312-.682.18.057.366.127.579.217.087.254.172.511.256.771.003.009.01.017.018.021.033.018.065.034.097.053.052.027.103.055.153.084.014.01.032.008.045-.003.013-.011.018-.026.013-.043-.078-.247-.156-.491-.236-.733l.036.018c.161.079.325.169.503.274.059.269.118.54.175.812.002.01.008.017.016.023.063.045.123.091.184.139l.049.037c.013.01.031.012.045.003a.043.043 0 00.019-.042c-.053-.256-.106-.51-.159-.763.17.113.338.233.497.358.032.28.064.563.095.845.002.009.006.018.013.024.085.079.151.143.209.202.011.012.03.017.045.008a.0368.0368 0 00.022-.039c-.027-.263-.055-.524-.083-.786.149.13.297.273.45.433.006.252.011.507.016.761 0 .015.009.028.022.035.162-.303.287-.632.367-.983-.001-.001-.003-.001-.005-.001l-.104-.015M18.211 19.55a.0411.0411 0 00-.003-.044c-.018-.021-.035-.042-.053-.064-.015.041-.029.081-.043.122.02.001.039.003.06.006.016.001.031-.005.039-.02M65.523 31.683c-.953.728-3.167.961-4.432-.785-.377-.521-1.28-.367-2.107-.449-1.207-.118-2.075-1.716-1.797-3.41.153-.932-1.406-1.925.036-3.232 1.609-1.46 4.371-.768 6.149-.691.317.015.712-.01 1.16-.076 2.485-2.555 3.485-5.771 2.996-6.494-.786-1.162-2.724.015-4.584.631-3.472 1.154-4.531.813-7.159 3.73-1.657 1.842-3.679.677-3.679.677.87-.536 1.35-1.085 1.737-1.649-11.63-2.712-18.574 7.343-21.509 9.114-.721.434-2.037.125-3.007 1.126-.535.552-.681 1.103-.68 1.542.378-.03.733-.07 1.056-.124 2.536-.42 5.711-1.71 5.711-1.71s-.202 2.094-3.094 3.122c-4.957 1.763-13.423.042-16.727 4.468-.846 1.133-2.414 2.809-1.711 4.065.516.924 2.638 1.367 3.105 1.607 1.539.79 1.371 2.478.02 2.966-.992.36-1.561-.307-1.561-.307s1.196-.168.482-1.139c-.253-.346-.853-.551-1.541-.74-.075.165-.139.339-.179.516-.051 1.227.346 3.053 3.017 3.496 5.328.883 10.154.12 12.018-1.03 1.57-.968 4.815-1.62 9.232-1.766 2.175-.071 4.088-.031 5.958.058 2.622-1.332 3.694-2.832 3.989-3.314-1.219.479-2.445.731-3.368.125 0 0 2.296-1.279 3.648-2.221 3.511-2.441 6.135-2.74 7.792.111 0 0-.728-.16-1.883-.09.712.607 1.989 1.926 2.628 3.983 3.52-.362 10.557.354 10.638-1.64 0 0 .367-1.976-1.764-5.35 1.252.088 2.226-.242 2.226-.242-1.189-1.15-1.19-3.335-2.816-4.878M26.868 44.127c-1.285.515-1.983.877-1.349 1.245.613.354 1.976.113 1.976.113s-.695 1.126-2.581.926c-1.761-.187-2.546-2.34.524-3.603 2.284-.939 3.135-1.774 3.135-1.774.296.804-.206 2.492-1.705 3.093m3.983-2.212c.275-1.783-1.183-3.381-2.911-1.943-2.281 1.896-4.067 2.301-4.067 2.301s2.349-2.027 3.365-3.108c1.384-1.473 4.271-1.385 4.622.134.477 2.058-1.009 2.616-1.009 2.616m21.945-18.749c3.557 3.597.733 7.112.733 7.112s-.3-6.173-5.056-6.291c-4.496-.113-7.878 6.172-7.878 6.172 1.363-9.206 9.559-9.665 12.201-6.993m-6.942 14.907c-1.929 1.842-3.559 1.107-3.559 1.107s.937-.82 1.83-1.686c.085-.082.179-.178.281-.285-.966-.553-1.745-1.406-2.198-2.446-.474.29-.966.423-1.492.329-2.098-.371-1.451-2.356-1.451-2.356s.546 1.051 1.953.603c.198-.063.386-.159.568-.282-.002-.03-.003-.059-.006-.086l.021.074c2.052-1.418 3.227-6.357 6.824-6.782 2.224-.263 2.939 1.846 2.939 1.846s-.963-.323-2.17-.091c1.536.793 2.647 2.33 2.815 4.18.033.367.027.729-.014 1.082 2.429.139 3.092 1.726 3.092 1.726-3.257-.726-7.197.932-9.433 3.067m10.627-15c.975-2.807 4.495-3.148 5.907-3.706 2.337-.921 3.52-1.977 3.52-1.977s-.644 2.24-4.365 3.783c0 0 .198.209.961.623 0 0-.703.488-2.565.277-2.061-.236-3.458 1-3.458 1" fill="#cf7418"/><path d="M47.738 52.927c-2.334-.234-3.405.011-4.003.35-1.087.618.999.877 3.295.633 2.028-.218 4.488-.606.708-.983M9.826 52.968c-1.65-.7-4.717-1.582-5.199-1.359-.875.404 2.573 1.938 4.418 2.149 1.631.183 2.311-.143.781-.79M7.778 43.939c2.852-.563 1.107-.764-.884-.636-1.508.097-3.214.339-5.045 1.155-2.723 1.213-2.193 4.348-.002 4.985 1.542.448 1.733-.141 1.1-1.513-.856-1.861 1.864-3.406 4.831-3.991M76.851 49.686c-1.897.187-2.299-.308-1.031-.935 1.627-.807.847-1.386-1.254-.703-4.825 1.565-.099 2.398-6.741 3.671-5.501 1.054.331 1.403 2.933 1.147 5.771-.566 6.937-2.274 10.212-3.227-.001.001-2.439-.12-4.119.047" fill="#fff"/><path d="M59.938 22.072c1.863.212 2.565-.275 2.565-.275-.763-.415-.961-.624-.961-.624 3.722-1.543 4.364-3.783 4.364-3.783s-1.182 1.056-3.519 1.978c-1.412.557-4.932.9-5.906 3.703 0 0 1.397-1.232 3.457-.999" fill="#231f20"/><path d="M50.846 44.151l2.838-2.016c-.416-.672-.95-1.324-1.633-1.836-.189.06-.38.128-.575.203-.148.057-.303.123-.464.194-.41 1.142-1.385 3.214-3.407 4.685 1.6.103 3.255.215 5.097.296 1.295.058 1.979.028 2.318-.056-.027-.156-.171-.914-.535-1.855l-3.639.385zM47.047 29.267c-1.269 1.169-2.351 2.951-3.463 4.243.279 1.114 1.097 1.992 2.141 2.374.319-.294.673-.594 1.065-.881-.013-.003-.026-.006-.039-.011a.4028.4028 0 01-.058-.013c0-.002-.001-.002-.001-.002-.022-.004-.043-.012-.064-.018-.029-.01-.057-.02-.085-.028-.034-.013-.068-.025-.101-.039l-.006-.003c-.026-.012-.052-.021-.077-.035a.0076.0076 0 01-.005-.002c-.026-.012-.051-.023-.076-.037-.001-.002-.004-.002-.005-.003a1.4479 1.4479 0 01-.086-.048c-.004-.002-.007-.005-.01-.006-.03-.018-.058-.036-.086-.055h-.001c-.512-.339-.871-.9-.931-1.558-.104-1.153.745-2.171 1.898-2.276.192-.018.38-.008.562.024-.315.112-.526.424-.495.77.037.41.399.713.81.676.41-.037.713-.4.676-.811a.7265.7265 0 00-.049-.203c.426.344.719.852.772 1.441.03.337-.021.663-.138.957.172-.057.348-.11.529-.157.17-.043.336-.083.497-.116.081-.346.11-.71.076-1.083-.158-1.72-1.568-3.026-3.25-3.1" fill="#fff"/><path d="M46.628 34.96c-.029-.01-.057-.018-.085-.029.028.011.056.019.085.029M46.272 34.813c-.029-.017-.058-.032-.087-.048.029.015.058.031.087.048M49.332 32.769a2.0858 2.0858 0 00-.771-1.441c.025.064.042.132.048.203.037.41-.265.774-.675.811-.41.037-.773-.266-.811-.676a.7444.7444 0 01.495-.769 2.0583 2.0583 0 00-.562-.025c-1.152.105-2.002 1.123-1.898 2.275.059.66.419 1.22.931 1.559a2.1047 2.1047 0 01-.863-1.19l1.1-1.111 1.041.988 1.046-.674.914.46c-.021.191-.067.376-.136.55 0 0 .001 0 .002-.002.118-.295.17-.622.139-.958" fill="#00483a"/><path d="M48.413 32.718l-1.046.674-1.041-.988-1.1 1.111c.137.498.45.916.862 1.19.028.019.057.036.086.055l.009.006c.028.017.058.032.087.048 0 0 .003.001.004.001.025.015.05.027.076.04.001.001.003.001.005.002.025.011.051.022.078.034l.006.002c.033.015.067.027.101.039.028.01.056.02.085.029.021.008.043.014.064.018 0 .002.001.002.001.002.02.005.039.01.058.014a.558.558 0 00.039.01c.686-.504 1.483-.965 2.401-1.275.068-.174.115-.359.135-.55l-.91-.462z" fill="#f8962d"/><path d="M52.195 33.28c.04-.353.046-.715.014-1.082-.167-1.85-1.278-3.387-2.816-4.18 1.208-.232 2.17.091 2.17.091s-.716-2.108-2.94-1.846c-3.597.425-4.772 5.364-6.823 6.782l-.021-.074c.001.028.003.056.006.086-.182.123-.371.22-.568.282-1.407.447-1.954-.603-1.954-.603s-.647 1.985 1.452 2.358c.525.092 1.018-.041 1.491-.331.454 1.04 1.233 1.894 2.199 2.446a8.645 8.645 0 01-.281.285c-.892.865-1.83 1.686-1.83 1.686s1.63.734 3.559-1.107c2.236-2.136 6.177-3.793 9.434-3.067 0 0-.663-1.587-3.092-1.726m-1.976.172c-.161.033-.326.073-.497.116-.182.047-.357.101-.529.157 0 0-.001.002-.002.002-.918.31-1.715.771-2.401 1.275-.392.287-.746.587-1.065.881-1.043-.382-1.862-1.26-2.141-2.374 1.112-1.292 2.194-3.074 3.463-4.243 1.683.074 3.093 1.38 3.249 3.102.033.374.004.739-.077 1.084M25.439 42.809c-3.071 1.263-2.285 3.415-.524 3.603 1.886.2 2.581-.926 2.581-.926s-1.363.24-1.976-.113c-.634-.368.064-.73 1.349-1.245 1.499-.601 2.001-2.289 1.706-3.093-.001-.001-.853.834-3.136 1.774" fill="#231f20"/><path d="M27.238 39.164c-1.016 1.081-3.365 3.108-3.365 3.108s1.787-.404 4.066-2.301c1.727-1.438 3.186.16 2.911 1.943 0 0 1.485-.559 1.009-2.617-.351-1.518-3.237-1.605-4.621-.133" fill="#231f20"/><path d="M75.176 16.259c.361-.529.686-1.156 1.044-1.844.466-.9.973-1.874 1.661-2.782-.784-.808-1.65-1.461-2.486-1.909-2.395-1.292-3.293-.271-2.478.656 1.235 1.406 2.465 3.684 2.259 5.879M90.499 3.851c.512-.13 1.023-.238 1.534-.325.383-.065.765-.117 1.142-.155-.547-.582-1.05-.967-1.42-1.129-1.348-.588-2.07-.183-1.439 1.217.048.108.111.239.183.392" fill="#e7d2ad"/><path d="M94.009 16.272c-.931-.194-1.697-.899-1.954-1.841-.424-.213-.885-.461-1.343-.74-1.062-.65-1.86-1.322-2.397-2.014a14.3535 14.3535 0 01-2.254-3.174c-.764-1.459-2.17-3.514-2.842-4.408-.819-.97-1.63-1.658-2.406-2.004-1.534-.685-2.321.166-1.585 1.707.952 1.998 2.495 4.271 2.526 7.481.02 2.113-.345 6.589-2.899 8.272 0 0 .489-1.974.707-4.593-.167.305-.33.617-.496.934-.985 1.899-2.103 4.052-4.691 4.925a5.798 5.798 0 01-.599.166c-.41.088-.783.112-1.12.091-2.242 2.049-5.439 2.991-7.444 3.552-2.607.73-3.474.389-4.288.158-.774-.219-1.368-.187-1.821.26-.408.402.498.773.55 1.49.051.719-.956 1.327-.152 1.955.687.535 1.961-.014 2.594.445.633.461.562 1.088 1.408 1.164 1.61.144.644-2.488 3.47-2.633 2.826-.145 16.425 3.909 20.84 2.576 3.969-1.198 5.672-4.162 4.975-6.484-1.081-3.605-5.973-4.399-6.83-8.354-.429-1.982-1.663-2.337-1.92.284-.242 2.467.52 3.948 1.893 6.053 1.173 1.801.647 4.219-1.749 5.094-2.726.996-6.075-.392-9.659-.66 3.472-2.258 7.342.476 8.94-1.727 1.252-1.726-1.002-3.115-1.086-7.922-.074-4.248 3.742-6.279 5.01-2.32.962 3.006 4.246 4.178 6.125 6.272.26-.312.566-.702.886-1.162-.039.005-.061.006-.061.006-.056-.963-.215-2.113-.328-2.849M92.399 10.929c.321.197.65.377.962.535.261-.135.549-.226.858-.266 1.04-.129 2.012.381 2.522 1.225 0-.262-.012-.525-.035-.791-.051-.558-.132-1.096-.236-1.614h-.001A14.8832 14.8832 0 0095.3 6.542c-.768-.038-1.68.009-2.708.184-.275.047-.554.103-.833.164.236.727.432 1.501.527 2.274.07.577.082 1.15.014 1.701.031.022.064.042.099.064" fill="#e7d2ad"/><path d="M101.022 16.003c-.639-.643-1.128-1.074-1.426-1.323.194-.204.422-.503.467-.82 0 0-.503 0-1.173-.048.09-1.26-.007-2.484-.234-3.646.998-.393 1.727-1.07 2.099-1.971.495-1.203.15-2.516-.901-3.428-.953-.826-2.449-1.326-4.253-1.448-.463-.62-.92-1.138-1.33-1.528-2.608-2.48-5.716-1.393-5.851.365-.042.565.163 1.332.454 2.182-.786.27-1.572.588-2.357.959-.551-.785-1.107-1.567-1.591-2.182l-.034-.043a5.022 5.022 0 01-.067-.086c-.036-.044-.072-.088-.107-.132-3.113-3.784-6.901-3.398-7.793-1.2-.747 1.842 1.967 3.617 2.591 8.349a1.656 1.656 0 00-.19.122c-1.154-1.008-2.612-1.951-4.41-2.504-3.158-.973-5.77 1.102-3.521 4.159.954 1.296 1.455 2.485 1.543 3.626-.074.019-.147.041-.216.07-2.161.877-2.82 2.719-2.343 4.005.087.232.218.465.394.679-.771.709-1.67 1.281-2.585 1.727 1.598-2.9 2.068-5.956 1.247-7.18-1.158-1.725-3.4-1.357-5.497-.459-2.694 1.154-4.898 1.26-6.778 2.285-.707.386-1.226.766-1.63 1.142-2.032-.624-6.301-1.468-11.315.249-2.374-1.748-5.422-1.59-6.992-2.002-1.703-.445-4.132-1.698-5.379.027-.614.848-.958 2.727-.351 4.851-4.149-2.724-1.433-7.175 1.096-9.715 2.495-2.509.526-4.675-2.835-4.089-2.066.359-3.759 1.066-4.822 1.6.806-1.291 2.093-2.652 3.387-3.869 2.414-2.269.243-4.264-2.167-4.101-3.759.252-6.69 4.629-9.572 6.703-.715.514-1.499.713-2.08.785.739-1.183 1.671-2.256 3.053-3.58 1.84-1.765.067-4.061-3.725-2.873-3.792 1.186-10.144 5.666-10.11 12.493.022 4.468 3.105 6.415 4.84 7.157-.151 2.217 1.138 3.896 2.114 4.725 4.059 3.455 11.66 2.426 16.716 2.681-.044.046-.088.092-.133.14-.935 1.028-1.333 2.172-1.501 2.993-3.75.136-8.388.444-11.335 3.577-1.65 1.754-3.652 5.006-3.114 6.885.106.371.394.643.779.855-.166.301-.313.655-.369 1.031-.012.077-.02.155-.022.233-.008.171-.028.405-.025.681-6.148 1.348-4.857 4.622 6.861 5.011 6.735.224 13.535.313 15.311-1.556 1.604-1.688 13.702-.184 20.507.084 6.805.267 11.8-.66 8.631-2.025-4.016-1.728 3.735-.576 9.54-2.004 3.898-.959 2.047-2.027-1.21-2.404-.076-.227-.177-.506-.313-.828-.288-.691-.725-1.584-1.379-2.605-.001-.004 1.606-.021 2.63-1.036-2.074-1.519-2.17-5.226-4.874-7.966.858-.09 2.567.175 6.294 1.008 5.69 1.273 12.458 3.516 16.922.974 4.529-2.578 5.226-6.426 4.222-9.275 1.14-1.186 2.004-2.399 2.639-3.617.24.194.521.413.79.606.863.613 2.034.438 2.863-.468.56-.615.909-2.012-.08-3.008M91.756 2.241c.369.162.874.547 1.419 1.129-.375.039-.758.09-1.142.155-.51.087-1.021.194-1.534.325-.073-.152-.135-.284-.184-.393-.631-1.399.092-1.804 1.441-1.216m1.918 2.355c2.33-.181 4.329.242 5.351 1.128.645.559.849 1.284.56 1.987-.261.632-.76 1.012-1.299 1.239-.061-.23-.127-.459-.196-.684.363-.168.682-.428.846-.823.175-.424.05-.824-.371-1.188-1.476-1.281-5.85-1.574-10.887.682-.138-.188-.278-.385-.421-.588 2.66-1.22 4.89-1.636 6.417-1.753m-1.389 4.568c-.094-.773-.29-1.548-.526-2.274.28-.062.558-.117.834-.164 1.027-.175 1.939-.222 2.706-.184.489 1.014.906 2.181 1.169 3.476h.002c.105.519.187 1.057.237 1.614.024.266.035.529.035.791-.51-.844-1.481-1.354-2.521-1.225-.308.04-.597.131-.858.266-.311-.158-.64-.338-.962-.535-.035-.021-.068-.042-.101-.063.069-.551.055-1.125-.015-1.702M72.917 10.38c-.815-.928.083-1.947 2.477-.658.836.451 1.703 1.104 2.487 1.911-.688.907-1.195 1.884-1.662 2.782-.357.688-.683 1.314-1.044 1.842.207-2.193-1.024-4.472-2.258-5.877m-.088 6.441c-.094.412-.243.822-.446 1.233-.205.288-.252.567-.185.75.089.238.44.438 1.158.284.126-.028.26-.065.398-.111 1.846-.622 2.692-2.252 3.588-3.977.629-1.211 1.275-2.455 2.3-3.463.015.327.023.651.025.968-.708.847-1.223 1.839-1.726 2.806-.918 1.77-1.868 3.598-3.972 4.307-.158.053-.313.097-.461.128-1.149.247-1.758-.202-1.945-.704-.243-.664.13-1.619 1.266-2.221m-39.591.537c.874-1.148 3.487.625 6.094 1.046.814.131 1.491.415 2.04.75-.513.271-1.031.569-1.551.901-.483.308-.958.64-1.425.987-.615-.326-1.226-.61-1.709-.855-1.366-.689-2.839-1.604-2.839-1.604.657 1.84 2.394 3.11 3.129 3.58-.158.131-.313.264-.468.395-.876-.159-1.657-.348-2.35-.563-1.071-1.937-1.35-4.075-.921-4.637m-21.905 5.227c-1.515-4.075 3.466-4.691 5.574-8.577 1.165-2.148 2.102-.851 1.65.549-.895 2.771-3.352 4.7-2.932 6.574.447 1.992 2.63 2.774 5.527 2.647 2.043-.089 6.21.383 6.21.383-.345-.725-1.468-1.213-2.868-1.547.189-.392.334-.811.43-1.254.661-3.055-1.278-6.064-4.332-6.727a6.1886 6.1886 0 00-.496-.084c.7-3.184-2.5-4.314-3.894-2.098-2.099 3.338-5.313 3.873-6.759 6.148-1.346-.59-3.667-2.087-3.321-5.288.821-7.588 8.894-11.386 10.19-10.411.965.728-1.602 1.794-3.462 4.344-2.186 2.997-1.375 4.562-.566 5.019 1.261.714 2.538-.012 2.538-.012s-1.394-.445-1.459-1.523c1.543-.005 3.76-.918 5.47-2.774 1.903-2.065 3.992-4.503 6.258-5.433 2.096-.861 2.86.105 1.493 1.353-3.188 2.912-5.771 7.123-3.789 8.839 1.174 1.017 2.872.262 2.872.262-.798-.361-1.256-.834-1.453-1.382.707-.662 3.055-2.642 6.205-3.078 2.001-.277 1.933.537.591 1.748-3.873 3.5-7.686 11.582 3.334 14.225-.969.889-1.839 1.699-2.575 2.286-6.274-1.062-18.47 1.1-20.436-4.189M23.2 20.987c-.003.012-.006.024-.009.039-.079.35-.204.679-.366.98-.001.002-.002.002-.003.003a2.124 2.124 0 01-.074.132c-.001.002-.003.004-.004.006-.026.045-.053.088-.081.131-.838-.119-1.697-.2-2.495-.256-2.177-.154-2.534-1.064-2.058-2.457.014-.042.028-.082.043-.123.013-.036.027-.072.042-.108.044-.115.09-.226.135-.335.041-.094.08-.186.12-.277.351-.789.735-1.496 1.102-2.449.22.01.442.037.665.086 2.103.454 3.438 2.527 2.983 4.628m29.504 24.691c-1.843-.079-3.498-.192-5.098-.296 2.022-1.471 2.997-3.543 3.407-4.685.161-.072.316-.138.464-.194.195-.075.386-.143.575-.203.683.512 1.217 1.164 1.633 1.836l-2.838 2.016 3.641-.385c.363.943.508 1.699.535 1.854-.342.087-1.025.114-2.319.057m15.637-9.116s-.974.33-2.227.242c2.131 3.374 1.764 5.35 1.764 5.35-.081 1.994-7.118 1.277-10.638 1.639-.639-2.057-1.915-3.374-2.628-3.982 1.155-.07 1.883.089 1.883.089-1.658-2.851-4.282-2.553-7.792-.11-1.351.941-3.648 2.219-3.648 2.219.923.608 2.149.355 3.368-.124-.293.483-1.367 1.983-3.989 3.315-1.869-.089-3.783-.13-5.958-.058-4.417.146-7.662.798-9.232 1.766-1.865 1.149-6.69 1.912-12.018 1.029-2.671-.442-3.068-2.269-3.018-3.495.04-.177.104-.352.179-.516.689.189 1.288.395 1.541.739.714.972-.482 1.14-.482 1.14s.569.666 1.562.307c1.35-.488 1.518-2.176-.021-2.967-.467-.24-2.589-.683-3.105-1.606-.703-1.258.865-2.934 1.711-4.066 3.304-4.426 11.771-2.705 16.727-4.468 2.892-1.029 3.094-3.122 3.094-3.122s-3.175 1.289-5.711 1.711c-.324.053-.677.093-1.056.124-.001-.44.145-.991.68-1.544.97-.999 2.286-.691 3.007-1.125 2.935-1.771 9.88-11.826 21.509-9.114-.387.563-.867 1.112-1.737 1.649 0 0 2.021 1.164 3.68-.678 2.628-2.918 3.686-2.576 7.159-3.729 1.86-.617 3.798-1.794 4.584-.632.488.723-.511 3.939-2.996 6.494-.448.064-.843.09-1.161.076-1.778-.077-4.54-.769-6.149.691-1.442 1.308.117 2.301-.036 3.232-.277 1.694.591 3.292 1.798 3.41.828.082 1.729-.07 2.107.449 1.264 1.746 3.479 1.514 4.432.787 1.625 1.543 1.626 3.727 2.817 4.878m25.172-16.286c-1.878-2.094-5.162-3.266-6.125-6.272-1.268-3.959-5.083-1.928-5.009 2.32.084 4.807 2.338 6.195 1.086 7.922-1.599 2.203-5.467-.531-8.94 1.725 3.585.27 6.933 1.658 9.66.662 2.396-.875 2.921-3.293 1.748-5.094-1.373-2.104-2.135-3.586-1.893-6.053.257-2.621 1.491-2.266 1.919-.284.857 3.956 5.749 4.749 6.831 8.354.697 2.322-1.007 5.286-4.975 6.484-4.416 1.333-18.016-2.721-20.841-2.576-2.825.145-1.859 2.777-3.469 2.633-.847-.076-.774-.703-1.408-1.164-.633-.459-1.908.09-2.595-.445-.804-.628.204-1.236.152-1.955-.052-.718-.958-1.088-.55-1.49.454-.446 1.048-.479 1.822-.26.814.231 1.681.572 4.288-.158 2.003-.561 5.2-1.503 7.443-3.552.336.021.708-.003 1.119-.091.195-.042.396-.099.6-.166 2.588-.873 3.705-3.025 4.691-4.925.165-.317.328-.63.495-.934-.218 2.619-.706 4.593-.706 4.593 2.554-1.684 2.919-6.159 2.898-8.272-.031-3.209-1.573-5.483-2.526-7.481-.735-1.543.051-2.392 1.585-1.707.776.346 1.586 1.034 2.405 2.004.671.894 2.079 2.949 2.842 4.406a14.323 14.323 0 002.254 3.176c.537.691 1.335 1.363 2.396 2.014.459.279.92.527 1.344.74.256.941 1.022 1.647 1.954 1.841.112.736.271 1.887.329 2.849 0 0 .023-.001.062-.006-.318.46-.626.851-.886 1.162m4.856-2.008l-.921-.755c0 .193-.006.338-.006.338-.468-.271-.83-.604-.83-.604-.003.636-.449 1.015-.449 1.015-.17-.716-.528-1.281-.528-1.281-.189.493-.495.846-.495.846-.065-.917-.285-1.962-.432-2.584-.815.093-1.555-.487-1.656-1.303a1.463 1.463 0 01.007-.429c-.503-.236-1.099-.541-1.686-.901-2.011-1.229-2.864-2.447-2.533-3.621.198-.707.711-1.098 1.221-1.297.068.235.128.464.176.685-.298.131-.599.37-.72.803-.293 1.038 1.047 2.112 2.223 2.83.549.336 1.115.626 1.595.852a1.508 1.508 0 011.019-.596c.822-.102 1.57.481 1.673 1.303.019.15.015.298-.009.439 1.237.428 2.76.456 2.76.456-.313.255-.826.579-.826.579l.488.422c-.418.23-.891.311-.891.311.296.269.823.559.823.559-.277.163-.602.294-.796.365.371.334.743.662.919.799.417.326.827.594 1.15.281.448-.432-.229-1.071-.229-1.071l-.452.291-.04-1.608s.462.413.918.838c1.582 1.482-.144 3.127-1.473 2.038" fill="#231f20"/><path d="M94.774 13.843a.3536.3536 0 01-.242.218.3448.3448 0 01-.21-.011c-.022-.008-.203-.076-.487-.195.054.384.406.654.792.606.39-.049.667-.404.619-.795a.7103.7103 0 00-.795-.618.7044.7044 0 00-.358.152c.289.122.47.188.475.191.181.068.273.27.206.452" fill="#231f20"/><path d="M99.841 16.23c-.455-.426-.918-.838-.918-.838L98.964 17l.45-.293s.678.64.229 1.071c-.323.313-.733.044-1.15-.281-.176-.137-.547-.464-.919-.799a2.86 2.86 0 01-.175.06c.039.223.049.524.049.754.299.244.622.509.92.755 1.33 1.09 3.057-.553 1.473-2.037" fill="#e7d2ad"/><path d="M97.574 16.698c.194-.071.52-.202.796-.367 0 0-.527-.287-.823-.557 0 0 .473-.082.891-.312l-.488-.421s.512-.324.826-.58c0 0-1.522-.027-2.76-.455.024-.142.028-.289.009-.439-.103-.821-.851-1.404-1.673-1.301-.423.051-.783.277-1.019.594.292.139.553.253.758.338.1-.079.222-.135.359-.152.389-.048.746.229.794.619.048.39-.229.746-.619.795-.386.049-.738-.223-.792-.606-.209-.089-.476-.205-.775-.346-.022.14-.027.283-.007.431.102.815.841 1.396 1.656 1.302.147.623.366 1.668.432 2.585 0 0 .305-.352.495-.846 0 0 .358.565.528 1.281 0 0 .446-.379.449-1.015 0 0 .361.332.83.602 0 0 .006-.142.006-.336 0-.23-.009-.531-.048-.754.001.001.068-.021.175-.06" fill="#f8962d"/><path d="M94.322 14.05c.07.026.143.029.21.012a.351.351 0 00.242-.219.3509.3509 0 00-.206-.452c-.005-.001-.185-.069-.475-.192a16.419 16.419 0 01-.757-.338c-.48-.226-1.046-.516-1.596-.852-1.175-.718-2.514-1.792-2.222-2.83.121-.432.421-.67.72-.803a9.6085 9.6085 0 00-.176-.685c-.51.199-1.022.591-1.221 1.298-.331 1.172.522 2.391 2.533 3.62.587.358 1.184.665 1.686.899.3.141.565.257.775.346.284.12.465.188.487.196M98.563 6.255c.421.364.545.765.371 1.188-.164.397-.482.653-.845.824.069.224.134.452.196.683.539-.227 1.04-.607 1.299-1.239.29-.703.086-1.427-.559-1.987-1.021-.886-3.021-1.309-5.351-1.128-1.526.118-3.757.533-6.417 1.753.143.203.283.4.418.588 5.038-2.256 9.412-1.963 10.888-.682M73.51 19.745c.148-.033.303-.075.461-.128 2.105-.71 3.055-2.538 3.973-4.308.502-.968 1.017-1.959 1.726-2.805-.001-.317-.011-.642-.026-.971-1.024 1.01-1.672 2.254-2.299 3.465-.897 1.725-1.743 3.355-3.588 3.977a3.36 3.36 0 01-.399.111c-.718.154-1.069-.045-1.158-.283-.067-.183-.02-.462.184-.751.203-.409.352-.817.446-1.233-1.135.604-1.508 1.56-1.263 2.22.185.503.795.952 1.943.706" fill="#fff"/><path d="M48.473 23.987c4.756.118 5.057 6.291 5.057 6.291s2.822-3.517-.734-7.112c-2.643-2.672-10.839-2.212-12.201 6.995 0 0 3.383-6.287 7.878-6.174" fill="#231f20"/><path fill="#fff" d="M74.343 40.324h-.009l-.389-1.099h-.595v1.682h.342v-1.34h.008l.472 1.34h.332l.487-1.34H75v1.34h.342v-1.682h-.59zM71.683 39.524h.507v1.383h.343v-1.383h.507v-.299h-1.357z"/></svg>