<svg enable-background="new 0 0 591.642 251.595" viewBox="0 0 591.642 251.595" xmlns="http://www.w3.org/2000/svg"><path d="m568.32 142.755s-.189-21.606-6.013-35.883c0 0-3.944-4.696 4.134-17.471 0 0 10.708-10.896 4.696-12.024 0 0-29.308-3.006-36.822 4.885 0 0-13.902 10.333-28.931 28.369 0 0 .751-29.308-26.114-32.126 0 0-38.513-2.443-43.21 47.53 0 0-6.199 19.914-29.495 20.478 0 0-14.09-.564-12.775-18.787 0 0 1.879-29.871 15.405-36.634 0 0 6.763-2.255 8.266 1.879 0 0 3.193 8.454-5.072 14.654 0 0-6.388 5.447.751 10.896 0 0 10.146 11.272 16.908-2.443 0 0 18.975-28.367-8.266-40.016 0 0-21.605-6.012-37.574 18.599 0 0-10.583 19.224-11.02 27.553-.477 9.016-6.406 12.778-9.469 14.127l-4.748 2.509c-7.907 4.413-6.074-2.106-6.074-2.106 0-5.512 24.299-59.116 24.299-59.116-21.793 1.253-23.798-1.754-23.798-1.754l-21.042 52.103c-8.517 15.53-16.781 12.023-16.781 12.023-2.504-4.258-1.754-9.268-1.754-9.268.251-11.271 20.541-49.096 20.541-49.096 2.505-5.01-26.302-3.006-26.302-3.006-.501-3.006-14.78-6.763-14.78-6.763-13.778-5.01-10.269 20.54-10.269 20.54s-27.554 63.375-51.852 50.6c0 0-4.509-3.509 3.757-6.515 0 0 29.056-14.026 29.307-46.089 0 0 0-21.292-27.052-14.529 0 0-34.568 13.528-36.071 52.354 0 0-3.505 45.088 42.083 35.821 0 0 40.329-9.27 51.601-60.619 0 0 .753-8.267 7.265-3.758 0 0 5.761 4.683 1.252 9.981 0 0-14.279 23.084-15.782 38.364 0 0-2.755 12.777 11.022 16.032 0 0 18.036 3.757 28.807-10.021 0 0 17.534 22.295 45.589-5.761 0 0-1.001 15.285 29.059 17.035 0 0 24.549 1 35.821-17.035 0 0 6.01 22.544 32.563 18.787 0 0 16.032-2.757 29.559-35.07 0 0 14.278.5 24.048-18.535 0 0 9.517-17.535 14.027-15.531 0 0-1.001 20.541 2.005 31.814 0 0-32.315-6.012-37.325 18.536 0 0-4.507 17.879 29.809 19.209 0 0 16.782 1.582 27.554-6.935 0 0 9.018 11.521 7.516 18.034 0 0-.752 9.518-13.026 9.769 0 0-227.072-1.252-273.288-2.004 0 0-22.544.375-60.494-2.254 0 0-73.644-5.261-82.286 36.822 0 0 38.325-17.66 71.39 23.295 0 0 16.908-22.543 88.299-22.543l173.59-4.885s75.112 1.878 95.983-9.395c0 0 19.368-7.515 19.368-32.312-.002 0 1.5-19.915-18.789-32.314zm-325.389-46.403s6.763 14.653-14.278 20.665c0 0-.188-27.992 14.278-20.665zm224.879 51.737s-11.271-2.516-6.199-24.684c0 0 14.278 7.513 22.732 5.635 0 0-.564 21.377-16.533 19.049zm17.66-36.897c-8.643 6.576-16.345-4.508-16.345-4.508-.376-10.896 9.205-10.332 9.205-10.332 9.582 2.066 7.14 14.84 7.14 14.84zm43.773 44.151s-10.146 1.69-9.206-8.455c0 0-1.503-9.768 22.545-4.696 0-.001.564 10.145-13.339 13.151z" fill="#00553d"/><path d="m289.989 71.215c.969 0 2.062.204 3.291.651 0 0 14.279 3.757 14.78 6.763 0 0 5.691-.397 11.793-.395 7.628 0 15.899.619 14.509 3.401 0 0-20.29 37.825-20.541 49.096 0 0-.75 5.011 1.754 9.268 0 0 .8.339 2.158.339 3.008 0 8.756-1.664 14.623-12.362l21.042-52.103s1.37 2.06 14.198 2.06c2.674 0 5.844-.09 9.599-.306 0 0-24.299 53.604-24.299 59.116 0 0-1.022 3.639 1.758 3.639.94 0 2.316-.417 4.316-1.532l4.748-2.509c3.063-1.348 8.992-5.111 9.469-14.127.437-8.329 11.02-27.553 11.02-27.553 10.728-16.534 23.999-19.247 31.555-19.247 3.692 0 6.02.647 6.02.647 27.24 11.648 8.266 40.016 8.266 40.016-2.558 5.189-5.6 6.801-8.393 6.801-4.593 0-8.515-4.357-8.515-4.357-7.139-5.449-.751-10.896-.751-10.896 8.266-6.2 5.072-14.654 5.072-14.654-.72-1.977-2.64-2.492-4.45-2.492-1.975 0-3.816.614-3.816.614-13.526 6.763-15.405 36.634-15.405 36.634-1.314 18.223 12.775 18.787 12.775 18.787 23.296-.564 29.495-20.478 29.495-20.478 4.278-45.525 36.623-47.55 42.346-47.549.56 0 .864.019.864.019 26.865 2.818 26.114 32.126 26.114 32.126 15.029-18.035 28.931-28.369 28.931-28.369 4.266-4.479 15.551-5.447 24.513-5.447 6.828 0 12.31.562 12.31.562 6.012 1.128-4.696 12.024-4.696 12.024-8.078 12.775-4.134 17.471-4.134 17.471 5.824 14.277 6.013 35.883 6.013 35.883 20.289 12.399 18.786 32.314 18.786 32.314 0 24.798-19.368 32.312-19.368 32.312-15.654 8.455-61.817 9.512-83.922 9.512-7.367 0-12.062-.117-12.062-.117l-173.59 4.885c-71.391 0-88.299 22.543-88.299 22.543-17.755-21.992-37.025-27.082-51.064-27.082-12.106 0-20.326 3.787-20.326 3.787 6.913-33.668 55.432-37.034 74.558-37.033 4.781 0 7.728.211 7.728.211 29.518 2.045 49.715 2.273 57.233 2.273 2.147 0 3.262-.02 3.262-.02 46.216.752 273.288 2.004 273.288 2.004 12.274-.252 13.026-9.769 13.026-9.769 1.503-6.514-7.516-18.034-7.516-18.034-7.854 6.21-18.903 7.052-24.313 7.052-2.01 0-3.241-.117-3.241-.117-34.316-1.33-29.809-19.209-29.809-19.209 3.363-16.479 19.028-19.187 28.964-19.187 4.867 0 8.36.651 8.36.651-3.006-11.273-2.005-31.814-2.005-31.814-.244-.109-.502-.159-.774-.159-4.737 0-13.254 15.691-13.254 15.691-9.282 18.084-22.633 18.537-23.943 18.537-.068 0-.105-.002-.105-.002-13.526 32.314-29.559 35.07-29.559 35.07-2.043.289-3.963.422-5.77.422-21.669 0-26.793-19.209-26.793-19.209-10.148 16.236-31.056 17.046-35.126 17.046-.45 0-.695-.011-.695-.011-30.059-1.75-29.059-17.035-29.059-17.035-10.836 10.836-20.1 14.16-27.394 14.16-11.589 0-18.195-8.4-18.195-8.4-6.969 8.915-16.979 10.488-23.179 10.488-3.381 0-5.628-.468-5.628-.468-13.777-3.256-11.022-16.032-11.022-16.032 1.503-15.28 15.782-38.364 15.782-38.364 4.509-5.298-1.252-9.981-1.252-9.981-1.396-.966-2.526-1.346-3.442-1.346-3.358 0-3.823 5.104-3.823 5.104-11.272 51.35-51.601 60.619-51.601 60.619-4.252.864-8.07 1.254-11.511 1.254-33.449 0-30.573-37.074-30.573-37.074 1.503-38.825 36.071-52.354 36.071-52.354 3.708-.927 6.907-1.327 9.668-1.327 17.382.001 17.384 15.856 17.384 15.856-.251 32.063-29.307 46.089-29.307 46.089-8.266 3.006-3.757 6.515-3.757 6.515 2.225 1.169 4.476 1.7 6.732 1.7 22.38 0 45.12-52.3 45.12-52.3s-2.907-21.194 6.983-21.192zm-61.336 45.802c21.041-6.012 14.278-20.665 14.278-20.665-1.675-.849-3.151-1.224-4.457-1.223-9.967.003-9.821 21.888-9.821 21.888zm251.115-3.74c1.796 0 3.725-.579 5.702-2.085 0 0 2.442-12.774-7.14-14.84 0 0-.083-.005-.236-.005-1.472 0-9.31.463-8.969 10.338.001-.001 4.582 6.592 10.643 6.592zm-9.606 34.99c13.671 0 14.181-19.227 14.181-19.227-.94.209-1.951.301-3.007.301-8.445 0-19.725-5.935-19.725-5.935-5.072 22.168 6.199 24.684 6.199 24.684.825.119 1.607.177 2.352.177zm57.511 7.181c.936 0 1.57-.105 1.57-.105 13.903-3.006 13.339-13.151 13.339-13.151-4.957-1.045-8.827-1.46-11.85-1.46-11.642 0-10.695 6.156-10.695 6.156-.704 7.609 4.826 8.56 7.636 8.56zm-175.257-89.184-3.199 7.921-20.939 51.851c-4.166 7.497-7.819 9.291-9.645 9.688-.619-2.231-.353-4.333-.35-4.358l.034-.248.011-.287c.165-7.42 12.359-32.806 20.006-47.065l.031-.056.029-.058c.911-1.824.838-3.837-.203-5.521-1.725-2.791-5.277-4.406-18.339-4.406-3.804-.001-7.417.147-9.692.264-2.207-1.847-6.608-4.068-15.547-6.435-1.608-.563-3.163-.848-4.624-.848-.001 0-.001 0-.003 0-3.049 0-5.717 1.212-7.716 3.505-5.004 5.737-4.351 17.14-3.884 21.508-8.562 19.213-26.633 48.479-40.495 48.479-.103 0-.206-.002-.309-.004 4.785-2.526 30.9-17.763 31.15-49.756-.001-5.699-3.935-20.398-21.894-20.4-3.261 0-6.882.492-10.762 1.461l-.28.07-.27.106c-.385.15-9.552 3.795-18.904 12.518-8.666 8.082-19.168 22.238-20.025 43.786-.116 1.693-1.085 19.967 9.953 31.895 6.102 6.596 14.554 9.937 25.122 9.937 3.841 0 8.016-.453 12.409-1.346l.056-.011.056-.012c.451-.106 11.168-2.641 23.293-11.858 5.507-4.188 11.857-10.217 17.602-18.64-.987 3.238-1.718 6.428-2.03 9.387-1.358 6.896 1.352 18.01 14.448 21.105l.057.013.06.012c.276.059 2.81.564 6.547.564 5.594 0 15.44-1.208 23.38-8.568 3.607 2.902 9.727 6.48 17.994 6.48 8.286 0 16.756-3.563 25.248-10.604.562.943 1.258 1.914 2.114 2.886 5.506 6.23 15.205 9.791 28.827 10.585l.032.002.047.001s.31.015.879.015c3.93 0 21.965-.704 34.073-12.989 4.51 7.282 13.327 15.153 27.846 15.153 2.06 0 4.213-.158 6.401-.467l.067-.011.065-.011c1.668-.287 15.086-3.293 27.889-27.09-.291.935-.539 1.9-.744 2.894-.266 1.167-1.34 7.222 3.186 13.268 5.213 6.964 15.555 10.803 30.745 11.408.419.033 1.678.123 3.524.123 5.431 0 14.984-.766 23.162-5.381 2.685 4.187 4.744 8.797 4.273 10.842l-.095.412-.006.219c-.18 1.355-1.326 5.475-8.569 5.643-4.789-.025-227.776-1.265-273.177-2.003h-.074-.074c-.024.001-1.111.019-3.186.019-7.3 0-27.461-.221-56.921-2.263-.118-.007-3.155-.22-8.04-.22-21.236-.002-71.443 3.957-78.974 40.633l-1.793 8.732 8.097-3.731c.061-.027 7.579-3.371 18.439-3.371 12.338 0 30.603 4.406 47.557 25.406l3.639 4.506 3.476-4.635c.127-.156 17.267-20.74 84.692-20.74h.063l.063-.002 173.475-4.881c.8.02 5.276.115 12.051.115 25.079 0 69.473-1.295 85.847-9.935 2.739-1.16 21.886-10.205 21.951-36.26.125-2.33.544-21.779-18.852-34.951-.235-6.242-1.322-22.93-6.281-35.085l-.268-.655-.205-.246c-.203-.635-.929-4.128 3.996-12.066 4.163-4.308 8.628-10.265 7.173-14.893-.718-2.288-2.616-3.878-5.21-4.365l-.185-.035-.187-.019c-.234-.024-5.791-.585-12.77-.585-13.996 0-22.998 2.144-27.489 6.553-1.798 1.369-11.332 8.81-22.759 21.269-.477-1.969-1.127-4.083-2.011-6.224-3.36-8.14-10.743-18.196-26.83-19.883l-.077-.009-.107-.007s-.406-.028-1.149-.028c-3.044 0-13.785.537-24.207 7.455-5.322 3.532-9.738 8.087-13.234 13.641-.076-2.11-.39-4.252-1.019-6.373-2.206-7.43-7.721-13.076-16.391-16.783l-.276-.118-.289-.08c-.299-.084-3.042-.813-7.227-.813-8.034 0-23.31 2.767-35.337 21.301l-.09.137-.078.143c-1.135 2.061-11.094 20.391-11.574 29.49-.322 6.136-3.867 8.954-6.782 10.239l-.147.065-.143.074-3.462 1.829c2.861-8.599 13.264-32.88 23.151-54.694l3.078-6.791-7.442.428c-3.44.198-6.582.298-9.342.298-7.016 0-9.998-.639-11.051-.96zm58.477 29.027c.473-.124 1.331-.305 2.118-.305.14 0 .255.006.353.014.348 1.465.833 5.631-3.68 9.016l-.113.085-.108.092c-.444.38-4.347 3.858-4.208 8.983.062 2.269.961 5.593 4.842 8.686 1.272 1.31 5.813 5.523 11.559 5.523 2.965 0 6.948-1.11 10.386-5.866-.159 1.162-.297 2.345-.417 3.547-.937 2.531-6.902 16.392-24.963 16.932-.548-.057-3.571-.479-5.783-3.019-2.07-2.377-2.943-6.055-2.59-10.93.45-7.036 3.726-27.869 12.604-32.758zm-177.226 14.861c.589-4.077 1.71-8.127 3.442-9.867.534-.536.932-.646 1.367-.646.197 0 .46.025.797.107.269 1.343.396 3.413-.592 5.499-.884 1.866-2.583 3.52-5.014 4.907zm239.993-5.017c.113-1.371.493-2.398 1.136-3.062.922-.955 2.361-1.161 2.998-1.206 3.271 1.018 3.576 5.139 3.448 7.61-.496.195-.985.291-1.474.291-2.372.001-4.806-2.183-6.108-3.633zm-175.898 5.015c.514-1.86.991-3.776 1.425-5.755l.06-.276.025-.282c.018-.156.053-.337.097-.52 1.907 1.757.85 2.997.496 3.412l-.22.26-.18.291c-.117.19-.748 1.219-1.703 2.87zm230.209 5.406c1.644-3.019 3.595-6.072 5.372-8.506.03 5.193.272 11.755 1.095 17.586-.867-.039-1.8-.064-2.781-.064-3.77 0-7.28.353-10.502 1.043 2.378-2.653 4.704-5.954 6.816-10.059zm-59.176 28.115c-2.015-.789-4.792-4.56-3.753-13.744 3.853 1.576 9.16 3.382 14.112 3.824-.978 4.33-3.338 10.006-8.992 10.006-.435 0-.894-.029-1.367-.086zm34.235-7.468c.073-.012.148-.026.223-.04-.177.23-.348.463-.516.699.098-.216.196-.44.293-.659zm21.525 10.398c.266-.357 1.809-1.361 6.178-1.361 1.826 0 3.927.176 6.278.524-1.158 1.873-3.565 4.023-8.562 5.139-.114.012-.404.037-.776.037-1.24 0-2.271-.284-2.688-.742-.419-.459-.586-1.514-.458-2.892l.052-.553z" fill="#f5d30c"/><path d="m361.764 73.523c32.914 2.909 25.926-19.308 25.926-19.308-.77-4.427-3.668-12.237-14.566-10.466 0 0-17.471 5.072-18.599 18.599 0-.001-1.093 10.438 7.239 11.175z" fill="#00553d"/><path d="m376.133 43.492c8.441 0 10.862 6.735 11.557 10.723 0 0 6.16 19.571-20.301 19.571-1.731 0-3.604-.084-5.625-.263-8.332-.736-7.239-11.175-7.239-11.175 1.128-13.527 18.599-18.599 18.599-18.599 1.081-.176 2.079-.257 3.009-.257zm0-4.509c-1.189 0-2.445.107-3.732.316l-.27.044-.263.076c-.835.242-20.436 6.116-21.832 22.514-.094.965-.56 7.394 3.179 11.93 1.995 2.42 4.814 3.856 8.153 4.151 2.102.186 4.129.28 6.022.28 10.492 0 17.911-2.862 22.052-8.507 4.927-6.716 3.128-14.809 2.65-16.584-1.641-8.909-7.591-14.22-15.959-14.22z" fill="#f5d30c"/><path d="m198.093 95.663s17.785-55.609-26.302-77.903c0 0-31.813-22.044-76.65-9.269 0 0-35.069 11.023-46.842 31.563 0 0-19.038 29.808 4.007 40.83 0 0 25.3 9.268 32.064-15.03 0 0 4.509-14.528-9.018-21.04 0 0-4.759-3.257 1.503-8.768 0 0 49.598-37.323 76.15 4.509 0 0 16.783 37.073-3.507 60.869 0 0-9.518 15.28-31.061 13.026 0 0-4.008-42.083 21.542-60.119 0 0 9.519-4.008 4.76-12.274 0 0-2.256-5.009-10.771-1.753 0 0-45.34 22.545-50.349 56.862 0 0-6.263 31.813-8.016 67.633 0 0 0 29.807-6.262 39.577 0 0-11.272 19.414-22.544 14.842 0 0 16.157-13.526-6.388-29.308 0 0-8.642-7.515-21.793 0 0 0-14.654 9.206-14.09 25.927 0 0-1.503 32.877 45.465 31.186 0 0 40.956-4.697 53.919-41.52 0 0 16.532-38.451 11.773-72.518-.002 0 67.129 5.512 82.41-37.322z" fill="#00553d"/><path d="m123.176 4.509c29.491 0 48.615 13.252 48.615 13.252 44.086 22.294 26.302 77.903 26.302 77.903-12.153 34.067-57.105 37.552-74.995 37.552-4.603 0-7.416-.23-7.416-.23 4.759 34.066-11.773 72.518-11.773 72.518-12.963 36.822-53.919 41.52-53.919 41.52-1.178.043-2.323.062-3.442.062-43.449 0-42.023-31.248-42.023-31.248-.563-16.721 14.09-25.927 14.09-25.927 4.384-2.505 8.266-3.341 11.495-3.341 6.457.002 10.299 3.341 10.299 3.341 22.544 15.781 6.388 29.308 6.388 29.308 1.188.482 2.374.697 3.549.697 9.973 0 18.995-15.539 18.995-15.539 6.262-9.77 6.262-39.577 6.262-39.577 1.753-35.819 8.016-67.633 8.016-67.633 5.009-34.317 50.349-56.862 50.349-56.862 2.089-.799 3.801-1.1 5.195-1.1 4.291 0 5.576 2.853 5.576 2.853 4.76 8.266-4.76 12.274-4.76 12.274-25.55 18.036-21.542 60.119-21.542 60.119 1.48.155 2.902.226 4.271.226 18.533 0 26.79-13.253 26.79-13.253 20.289-23.797 3.507-60.869 3.507-60.869-9.537-15.026-22.042-19.838-34.159-19.838-21.618 0-41.99 15.329-41.99 15.329-6.262 5.511-1.503 8.768-1.503 8.768 13.526 6.512 9.018 21.04 9.018 21.04-3.837 13.783-13.638 16.765-21.402 16.765-5.923 0-10.661-1.735-10.661-1.735-23.045-11.022-4.007-40.83-4.007-40.83 11.771-20.54 46.84-31.563 46.84-31.563 10.073-2.87 19.489-3.982 28.035-3.982zm0-4.509c-9.745 0-19.593 1.398-29.271 4.155l-.058.017-.058.018c-1.499.472-36.801 11.773-49.352 33.535-.992 1.583-11.143 18.279-7.064 32.564 1.855 6.494 6.225 11.428 12.988 14.663l.194.092.201.073c.224.083 5.564 2.011 12.211 2.011 12.98 0 22.115-7.102 25.729-20.002 1.892-6.185 2.029-19.261-10.44-25.896.172-.318.566-.887 1.44-1.678 1.732-1.257 20.203-14.327 39.149-14.327 9.561 0 17.723 3.401 24.364 10.132-1.164-.409-2.51-.662-4.047-.662-2.09 0-4.38.471-6.805 1.397l-.203.078-.195.097c-1.935.962-47.423 23.966-52.786 60.14-.411 2.128-6.377 33.499-8.074 68.171l-.005.108v.111c-.003 11.019-1.513 30.846-5.549 37.143l-.053.084-.05.085c-1.992 3.411-5.64 8.155-9.429 10.956.616-1.906.983-4.053.882-6.401-.315-7.295-4.941-14.139-13.752-20.346-1.139-.916-5.789-4.258-13.031-4.259-4.543 0-9.164 1.323-13.732 3.934l-.082.048-.079.05c-.686.43-16.763 10.752-16.203 29.756-.035 1.777.115 13.318 9.277 22.908 8.139 8.518 20.674 12.838 37.256 12.838 1.175 0 2.388-.021 3.604-.066l.176-.006.176-.02c1.784-.205 43.813-5.457 57.608-44.361 1.221-2.877 15.243-36.774 12.62-69.436.727.012 1.517.02 2.366.02 19.476 0 66.187-3.951 79.243-40.548l.025-.07.023-.071c.192-.601 4.693-14.913 3.586-32.251-1.493-23.416-12.52-41.018-31.892-50.919-2.619-1.736-21.931-13.865-50.908-13.865zm19.081 58.245c1.617-.787 6.113-3.35 7.741-8.181.299-.888.541-1.983.575-3.246 3.431 10.015 9.786 34.919-4.506 51.681l-.219.255-.177.286c-.276.431-7.305 11.11-22.922 11.128-.204-10.298 1.029-38.563 19.508-51.923z" fill="#f5d30c"/><path d="m207.612 233.685s-21.042-38.076-57.112-21.042c0 0 9.019-25.55 70.138-19.538 0 0 229.952 11.131 250.993 3.006 0 0 5.01 10.02-130.757 13.025 0 0-114.726-.001-133.262 24.549z" fill="#008145"/></svg>