<?xml version="1.0" encoding="utf-8"?>
<!-- Generator: Adobe Illustrator 27.9.0, SVG Export Plug-In . SVG Version: 6.00 Build 0)  -->
<svg version="1.1" id="Capa_1" xmlns="http://www.w3.org/2000/svg" xmlns:xlink="http://www.w3.org/1999/xlink" x="0px" y="0px"
	 viewBox="0 0 2834.65 2834.65" style="enable-background:new 0 0 2834.65 2834.65;" xml:space="preserve">
<style type="text/css">
	.st0{fill:#737373;}
</style>
<g>
	<g>
		<path class="st0" d="M1955.64,620.64L1535.1,756.66l-73.22,118l15.73-98.63l-360.65,117.8l-61.72,305.79l82.91-29.08
			l-189.46,948.19l360.11-117.2l54.98-373.96l523.22-170.52c19.8-6.45,34.18-23.63,37.06-44.25l102.29-732.81
			C2031.9,640.17,1993.89,608.27,1955.64,620.64z M1397.14,1400.57l42.53-289.26c3.01-20.47,17.36-37.46,37.03-43.87l211.33-68.78
			l-40.91,288.48c-2.92,20.58-17.3,37.71-37.07,44.14L1397.14,1400.57z"/>
		<path class="st0" d="M2166.55,503.7c-48.96-56.26-119.67-88.53-193.99-88.53c-26.9,0-53.59,4.22-79.32,12.54L1472.7,563.74
			l-40.02,12.95l-30.69,9.93l-0.63,1.02l-347.35,113.45l-63.62,20.78l-48.78,15.93l-10.15,50.3l-13.24,65.61l-61.72,305.79
			l-39.92,197.79l-30.61,151.64l83.67-29.34l-119.77,599.42l-38.43,192.32l-29.46,147.44l142.98-46.53l186.49-60.69l360.11-117.2
			l67.68-22.03l51.89-16.89l7.94-53.98l10.35-70.42l36.7-249.62l403.72-131.57c92.84-30.26,161.55-112.3,175.05-209l102.28-732.81
			C2237.45,634.27,2215.36,559.8,2166.55,503.7z M2140.01,695.85l-102.29,732.81c-8.88,63.63-54.09,117.6-115.17,137.51
			l-455.58,148.47l-44.63,303.58l-10.35,70.42l-67.68,22.03l-360.11,117.2l-186.49,60.69l38.43-192.32l150.02-750.77l-83.34,29.23
			l39.92-197.79l61.72-305.79l13.24-65.61l63.62-20.78l360.65-117.8l17.22-5.63l0.56-0.9l40.02-12.95l420.54-136.02
			c16.97-5.49,34.55-8.27,52.24-8.27c48.86,0,95.37,21.25,127.61,58.3C2132.26,598.34,2146.78,647.33,2140.01,695.85z"/>
		<path class="st0" d="M230.71,2309.23c-17.29-9.6-33.62-25.25-33.62-25.25c-33.89-29.27-78.57,6.16-78.57,6.16
			c-32.73,28.64-26.34,52.07-13.15,67.73c12.33,14.65,31.28,22,50.41,21.13c34-1.54,56.97-6.71,72.37-13.46
			C251.75,2355.21,253.23,2321.73,230.71,2309.23z"/>
		<path class="st0" d="M2643.66,722.79c-22.73,9.83-39.01-10.72-13.61-36.09c83.15-70.5,27.7-120.77-30.62-52.22
			c-42.52,49.98-51.29,63.89-110.29,87.61c-8.13,3.27-16.36,6.35-24.76,9.19c-8.81,2.98-18.13,4.04-27.43,3.72
			c-32.37-1.11-58.53,9.59-62.85,27.61c-7.41,30.89-25.56,58.1-53.34,73.52c-15.58,8.65-32.88,18.4-51.02,28.8l-36.63,262.41
			c91.78-37.99,189.98-133.51,249.08-167.71c46,18,96.7-39.32,133.36-65.63c32.71,17.15,69.53-7.44,80.96-32.55
			c8.76-19.25,19.56-37.45,32.59-54.12c3.05-3.91,5.41-7.71,6.48-10.97C2749.29,754.79,2729.18,685.79,2643.66,722.79z"/>
		<path class="st0" d="M2709.94,2024.56c-6.74-15.83-6.98-33.93-0.61-49.92c4.18-10.49-0.18-23.46-11.77-31.88
			c-6.85-4.98-11.05-12.74-11.05-21.21c0.01-16.45-10.23-27.41-36.41-31.37c-8.83-1.33-17.56-3.24-25.97-6.24
			c-13.89-4.95-28.5-11.96-40.36-18.49c-14.01-7.72-30.4-16.2-46.24-24.14c-13.64-19.83-32.42-36.03-52.33-50.3
			c-29.87-21.41-61.58-40.51-92.4-60.53c-31.95-20.74-63.73-41.92-97.35-59.89c-10.76-5.75-21.7-11.16-32.69-16.45
			c-29.67-22.6-59.5-44.99-89.55-67.09c-1.93-1.42-4.25-2.53-6.76-3.37c-6.21-5.61-13.72-9.58-21.61-12.8
			c-39.33,64.91-101.09,115.52-175.2,139.68l-10.51,3.43c13.94,8.31,28.02,16.4,42.28,24.14c31.11,16.88,64.37,32.71,99.72,37.75
			c0.03,0,0.05,0.01,0.08,0.01c4.56,4.03,9.08,8.13,13.57,12.25c20.58,18.87,41.81,37.14,65.82,51.57
			c23.22,13.95,48.1,24.84,73.69,33.89c19.75,26.6,40.56,51.59,69.18,69.22c3.82,2.35,8.06,3.85,12.46,4.65
			c56.66,29.16,172.06,37.72,238.69,89.85c3.88,3.03,7.31,6.56,10.68,10.15C2622.24,2086.86,2731.35,2074.87,2709.94,2024.56z"/>
		<path class="st0" d="M722.46,1295.47c2.29,1,4.65,1.88,7.13,2.57c8.41,7.62,17.71,14.21,28.25,19.11c0.5,0.23,1.02,0.46,1.53,0.69
			l34.51-170.99l10.51-52.09c-29.81-28.48-44.75-57.76-129.71-55.84c-12.9,0.29-24.07-31.8-58.21-27.32
			c-57.53,15.52-107.67-48.01-208.14-101.83c-73.41-39.33-88.4,2.24-220.45-30.21c-37.97-9.33-54.94,34.59-39.17,74.98
			c8.96,22.95,50.24,44.4,49.98,55.21c-0.75,31.33,55.01,40.22,61.17,58.19c17.9,52.22,61.73,26.7,86.54,53.71
			c33.57,36.56,59.42,45.15,102.95,55.95c41.99,10.42,68.71,20.5,105.05,43.99c38.76,25.05,107.75,61.73,145.62,70.9
			C708.34,1294.5,715.69,1295.42,722.46,1295.47z"/>
		<path class="st0" d="M689.32,2055.97l58.69-293.74c-1.37,1.03-2.73,2.06-4.11,3.07c-5.18,3.79-10.44,7.47-15.83,10.96
			c-9.63,6.26-19.65,11.83-30.08,16.62c-19.48,7.51-40.45,12.79-57.49,25.08c-0.86,0.62-1.7,1.28-2.55,1.92
			c-23.33-2.88-53.14,18.67-81.17,53.03c-25.62,31.4,10.98,42.68-36.56,78.33c-59.68,44.76-109.67,27.6-144.47,92.9
			c-29.5,55.36-150.21,53.32-172.46,131c-6.18,21.59,44.62,71.16,90.51,84.96c24.4,7.34,45.1,0.13,57.35-11.58
			c11.9-11.38,29.28-15.4,44.25-8.57c14.88,6.79,41.6,4.11,41.22-28.77c-0.15-12.89,9.25-24.07,21.93-26.39
			c59.03-10.75,110.1-48.48,151.62-82.19C634.13,2083.17,660.85,2067.55,689.32,2055.97z"/>
	</g>
</g>
</svg>
