<svg xmlns="http://www.w3.org/2000/svg" xmlns:xlink="http://www.w3.org/1999/xlink" viewBox="0 0 252.17 300"><defs><path id="reuse-0" d="M0 0h252.17v300H0z" class="cls-1"/></defs><defs><clipPath id="clippath"><use xlink:href="#reuse-0" class="cls-1"/></clipPath><clipPath id="clippath-1"><use xlink:href="#reuse-0" class="cls-1"/></clipPath><style>.cls-1{fill:none}.cls-3{fill:#00b2e3}.cls-4{fill:#fff}.cls-5{fill:#ffd040}.cls-7{fill:#231f20}.cls-8{fill:#807f7f}</style></defs><g id="Layer_1-2" clip-path="url(#clippath)"><g id="Charleston" clip-path="url(#clippath-1)"><path d="M124.38 5.14h-.03c-7.57 0-13.72.35-18.26 1.06-5.87.9-8.94 2.37-10.26 4.91l-3.66 7.03c-6.13 1.3-22.95 6.04-33.48 20.16-10.95 14.68-13.74 28.48-14.45 34.51-4.31 1.78-11.88 6.03-14.33 14.56-2.1 7.33.87 13.12 3.99 16.52-1 3.32-1.79 8.94-.89 18.15.63 6.47 2.67 14.21 5.16 20.07-7.18 3.85-18.42 11.33-24.84 23.01-7.99 14.53-8.28 33.1-8.17 38.44a4.953 4.953 0 0 0 2.92 4.4l-.95 10.21c-.13 1.44.37 2.87 1.38 3.9 2.15 2.2 10.84 9.55 32.59 11.8 4.43.46 8.8.69 12.97.69 10.43 0 17.62-1.44 21.3-2.42.42.35.92.76 1.53 1.24 2.08 1.63 4.48 3.26 6.09 4.32.68 4.64 2.73 15.8 7.98 27.52 6 13.42 18.02 25.06 21.55 28.31.91.84 2.1 1.3 3.33 1.3 1.85 0 3.53-1.02 4.38-2.67l.18-.35a4.955 4.955 0 0 0 3.84 1.83c1.63 0 3.12-.78 4.05-2.11l.61.99c.9 1.47 2.48 2.35 4.2 2.35 1.23 0 2.4-.45 3.31-1.28 2.7-2.45 12-11.68 18.45-27.76 5.9-14.7 8.82-27.98 9.73-32.58 3.85 1.3 11.5 3.3 24.73 4.69 3.78.4 7.63.6 11.45.6 15.08 0 27.68-3.1 34.43-6.01 3.83-1.65 6.72-3.3 8.33-6.01 1.61-2.7 1.43-5.45 1.06-8.5-.11-.89-.21-1.71-.31-2.44a4.898 4.898 0 0 0 2.43-3.77c.4-3.99 1.88-24.64-8.67-39.75-7.07-10.11-22.16-22.28-32.35-29.88 2.87-5.33 5.81-13.02 6.92-20.67 1.1-7.53-.97-13.95-2.9-18.7.93-.85 1.97-1.92 2.95-3.16 3.89-4.95 4.78-10.36 2.5-15.23-3.3-7.04-10.3-10.51-14.34-11.98-1.1-6.84-4.68-24.27-13.76-36.2-9.66-12.69-26.17-17.94-31.85-19.43-1.72-2.87-4.39-7.16-5.78-8.6-2.57-2.67-7.65-3.05-25.07-3.05" class="cls-4"/><path d="M124.38 5.14c17.42 0 22.5.38 25.07 3.05 1.39 1.44 4.06 5.74 5.78 8.6 5.67 1.49 22.19 6.74 31.85 19.43 9.09 11.94 12.66 29.36 13.76 36.2 4.03 1.48 11.04 4.95 14.34 11.98 2.28 4.87 1.39 10.27-2.51 15.23-.98 1.24-2.02 2.31-2.95 3.16 1.93 4.75 4 11.17 2.9 18.7-1.11 7.64-4.05 15.33-6.92 20.67 10.19 7.6 25.29 19.77 32.35 29.88 10.55 15.1 9.08 35.76 8.67 39.74a4.94 4.94 0 0 1-2.43 3.78c.1.73.2 1.55.31 2.44.37 3.05.55 5.8-1.06 8.5-1.62 2.71-4.5 4.36-8.33 6.01-6.76 2.91-19.35 6.01-34.43 6.01-3.82 0-7.67-.2-11.45-.6-13.24-1.39-20.88-3.39-24.73-4.69-.91 4.6-3.84 17.88-9.73 32.58-6.45 16.08-15.75 25.31-18.45 27.76-.91.82-2.08 1.28-3.31 1.28-1.73 0-3.3-.88-4.2-2.35l-.61-.99a4.894 4.894 0 0 1-4.05 2.11c-1.49 0-2.9-.68-3.84-1.83l-.18.35a4.908 4.908 0 0 1-4.38 2.67 4.89 4.89 0 0 1-3.33-1.3c-3.54-3.25-15.55-14.89-21.55-28.31-5.25-11.72-7.3-22.87-7.98-27.52-1.61-1.06-4.01-2.69-6.09-4.32-.61-.48-1.11-.88-1.53-1.24-3.68.98-10.87 2.42-21.3 2.42-4.18 0-8.54-.23-12.97-.69-21.74-2.25-30.44-9.6-32.59-11.8a4.949 4.949 0 0 1-1.38-3.9l.95-10.21c-1.68-.76-2.88-2.45-2.92-4.4-.1-5.34.18-23.91 8.17-38.44 6.42-11.67 17.65-19.16 24.84-23.01-2.5-5.86-4.53-13.6-5.16-20.07-.9-9.21-.12-14.84.88-18.15-3.13-3.4-6.09-9.19-3.99-16.52 2.44-8.53 10.02-12.78 14.33-14.56.71-6.03 3.5-19.83 14.45-34.51 10.54-14.12 27.36-18.86 33.48-20.16l3.66-7.03c1.32-2.54 4.39-4.01 10.27-4.92 4.55-.7 10.69-1.05 18.26-1.05h.03m0-5.14h-.03c-7.83 0-14.24.38-19.05 1.12-5.42.83-11.32 2.39-14.04 7.62l-2.57 4.93c-8.21 2.08-23.78 7.68-34.13 21.55-10.08 13.51-13.72 26.3-15.02 34.09-5.18 2.65-12.02 7.72-14.58 16.63-1.93 6.74-.71 13.59 3.33 19.19-.94 4.68-1.07 10.51-.4 17.4.53 5.41 1.97 11.7 3.9 17.29-7.87 4.78-17.13 12.18-22.97 22.81C.22 178.29-.1 197.99.01 203.66c.05 2.49 1.03 4.84 2.68 6.63L2 217.7c-.28 2.95.75 5.85 2.82 7.97 3.14 3.22 12.92 10.96 35.74 13.32 4.61.48 9.15.72 13.5.72 8.81 0 15.49-.97 20.05-1.97 1.38 1.06 2.84 2.1 4.14 2.98.96 5.55 3.21 15.88 8.01 26.59 6.41 14.32 19.05 26.58 22.77 30 1.86 1.71 4.28 2.65 6.81 2.65 1.99 0 3.89-.58 5.49-1.62.93.28 1.91.43 2.92.43 1.09 0 2.17-.18 3.18-.51 1.64 1.12 3.61 1.74 5.68 1.74 2.51 0 4.91-.93 6.77-2.61 2.9-2.63 12.9-12.55 19.76-29.65 4.46-11.12 7.26-21.4 8.82-28.04 4.68 1.16 11.28 2.4 20.34 3.35 3.96.42 7.99.63 11.99.63 15.86 0 29.24-3.32 36.47-6.43 4.11-1.77 8.26-3.97 10.72-8.1 2.41-4.04 2.21-7.94 1.77-11.61 1.17-1.49 1.92-3.3 2.12-5.23.43-4.3 2.01-26.62-9.57-43.21-6.59-9.44-19.38-20.28-30.08-28.47 2.66-5.88 4.66-12.49 5.52-18.38 1.04-7.13-.31-13.27-2.02-18.2.36-.41.7-.82 1.02-1.23 5.08-6.46 6.22-13.97 3.12-20.59-3.37-7.19-9.68-11.29-14.42-13.47-1.6-8.5-5.57-24.25-14.25-35.65-9.56-12.56-24.75-18.41-32.6-20.72-3.63-5.91-4.95-7.28-5.42-7.77C148.92.23 142.45 0 124.38 0" class="cls-3"/><path d="M200.47 143.29c3.2-4.65 7.2-13.96 8.47-22.65 1.18-8.12-1.98-15.02-3.93-19.58 0 0 10.72-7.08 6.87-15.29-3.84-8.21-14.43-10.56-14.43-10.56s-2.65-23.07-13.41-37.22c-10.77-14.14-31.44-18.4-31.44-18.4s-4.63-7.89-6.16-9.47c-1.52-1.58-10.27-1.72-22.08-1.72-15.33 0-23.74 1.49-24.85 3.63-1.11 2.14-4.68 9-4.68 9s-21.2 3.01-33.14 19.01C47.94 58.47 47.76 75.41 47.76 75.41s-11.59 2.97-14.38 12.67c-2.63 9.19 5.1 14.23 5.1 14.23s-3.29 4.07-1.82 19.06c.71 7.23 3.5 17.11 6.71 22.68-5.88 2.69-19.85 10.19-27.07 23.32-7.64 13.91-7.77 32.27-7.69 36.53 0 .41.46.65.8.44l1.79-1.08c.37-.23.84.07.8.5l-1.43 15.37c-.02.15.04.3.15.42 1.2 1.22 9.02 8.39 30.13 10.58 20.63 2.14 32.63-1.42 34.97-2.21.21-.07.44 0 .58.16.28.34.99 1.04 2.83 2.47 2.87 2.24 6.44 4.54 7.33 5.1.13.08.22.22.24.38.22 1.91 1.88 14.78 7.93 28.3 5.83 13.02 18.04 24.66 20.68 27.08.26.24.67.16.83-.15l3.09-5.98a.53.53 0 0 1 .9-.07l3.59 4.92c.22.3.68.29.88-.03l3.23-5.12c.21-.33.69-.33.9 0l3.9 6.35c.17.28.56.34.81.12 2.16-1.96 11.22-10.8 17.46-26.35 7.13-17.77 9.88-33.65 9.88-33.65l.09.11 2.44-2.63c.15-.17.4-.22.6-.12 1.56.71 8.76 3.57 26.32 5.42 20.15 2.12 36.84-2.02 44.04-5.12 7.2-3.1 7.44-4.91 6.82-10.01-.42-3.39-.75-5.62-.92-6.72-.06-.39.3-.7.68-.59l1.7.51c.32.09.65-.12.68-.45.38-3.72 1.78-23.13-7.97-37.08-7.54-10.8-24.98-24.3-34.86-31.49" class="cls-7"/><path d="M46.21 142.91c-.09-.01-.17 0-.25.03-1.7.65-20.78 8.27-29.66 24.43-7.64 13.91-7.77 32.27-7.69 36.53 0 .41.45.65.8.44l1.79-1.08c.37-.23.84.07.8.5l-1.43 15.37c-.02.15.04.3.15.42 1.2 1.22 9.02 8.39 30.13 10.58 20.63 2.14 32.63-1.42 34.97-2.21.21-.07.44 0 .58.16.28.34.99 1.04 2.83 2.47 2.87 2.24 6.44 4.54 7.33 5.1.13.08.22.22.24.38.22 1.91 1.88 14.78 7.93 28.3 5.83 13.02 18.04 24.66 20.68 27.08.26.24.67.16.83-.15l3.09-5.98a.53.53 0 0 1 .9-.07l3.59 4.92c.22.3.68.29.88-.03l3.23-5.12c.21-.33.69-.33.9 0l3.9 6.35c.17.28.56.34.81.12 2.16-1.96 11.22-10.8 17.46-26.35 7.13-17.77 9.88-33.65 9.88-33.65l.09.11 2.44-2.63c.15-.17.4-.22.6-.12 1.56.71 8.76 3.57 26.32 5.42 20.15 2.12 36.84-2.02 44.04-5.12 7.2-3.1 7.44-4.91 6.82-10.01-.42-3.39-.75-5.62-.92-6.72-.06-.39.3-.7.68-.59l1.7.51c.32.09.65-.12.68-.45.38-3.72 1.78-23.13-7.97-37.08-10.25-14.67-38.75-34.32-41.76-36.37a.524.524 0 0 0-.54-.03l-16.6 8.5s-.08.05-.12.08l-18.66 17.15s-.05.05-.08.06l-25.28 15.3a.61.61 0 0 1-.3.08l-17.43-.73c-.05 0-.11-.01-.16-.03L76.38 164.8a.615.615 0 0 1-.19-.12l-20.53-20.44a.567.567 0 0 0-.31-.15l-9.1-1.16Z" class="cls-7"/><path d="M54.66 150.02c.32-.07.64.1.76.41.43 1.13 1.88 4 6.37 8.02 4.31 3.86 7.35 5.17 8.67 5.59.38.12.56.55.38.91l-1.42 2.93c-.09.19-.27.33-.48.36-1.28.22-5.95 1.18-8.6 4.03-2.5 2.68-2.92 4.73-3 5.42-.02.17-.1.33-.22.44-.66.59-2.72 2.47-3.5 3.81-.66 1.13-1.41 3.73-1.79 5.16-.12.45-.66.64-1.03.35-.94-.72-2.73-1.97-5.37-3.26-1.6-.78-3.37-1.07-4.93-1.12-.79-.03-.97 1.1-.2 1.3 1.31.34 2.72.76 3.92 1.24 2.1.84 3.38 2.12 4.02 2.91.27.33.15.83-.24 1-1.01.46-2.93 1.48-4.95 3.32-1.34 1.22-2.19 2.7-2.71 3.95-.28.66.56 1.22 1.07.72 1.25-1.22 2.96-2.73 4.64-3.74 3.2-1.91 5.34-1.42 6.31-.45.97.97-2.49 3.42-2.57 8.07-.06 3.66 1.94 6.04 2.8 6.89.21.21.25.53.1.78-.49.89-1.41 3.14-.89 6.82.38 2.63 1.41 4.18 2.27 5.05.4.4.13 1.08-.43 1.11-4.15.22-14.73.39-24.08-2.83-10.07-3.47-11.86-5.72-12.18-6.34a.492.492 0 0 1-.06-.29c.03-1.11.37-9.8 2.4-18.55 1.35-5.82 2.99-9.73 4.05-11.86.28-.58-.34-1.17-.9-.87l-3.6 1.94c-.55.29-1.16-.26-.92-.83 1.36-3.25 5.15-10.55 13.31-15.69 5.52-3.48 8.69-5.13 10.47-5.92.58-.26.5-1.1-.12-1.24l-1.51-.36c-.51-.12-.69-.77-.3-1.12 2.06-1.9 7.57-6.45 14.47-8.07" class="cls-5"/><path d="m67.14 180.71-1.23 8.06a.3.3 0 0 0 .37.34c1.45-.38 6.25-1.57 11.42-2.21 6.19-.77 6.34-1.11 8.27.66 1.51 1.39 5.66 6.12 7.4 8.11.2.23-.03.58-.32.48-1.5-.5-4.47-1.27-8.57-1.34-4.15-.07-6.82 1.56-8.09 2.59-.25.2-.05.6.26.53 1.89-.45 5.8-1.15 8.89-.33 3.42.92 5.29 4.36 5.89 5.65.1.21-.07.45-.3.42-1.2-.13-4.43-.29-8.56.89-3.65 1.04-5.28 3.09-5.94 4.26-.15.26.13.55.4.42 1.27-.65 3.99-1.8 7.46-1.9 4.88-.13 6.52 2.35 6.68 5.45.16 3.1-4.63 3.74-11.27 4.66-6.65.92-12.4 5.29-17.48-.2s-.23-6.9-2.14-11.04c-1.91-4.14-2.34-8.31-.26-10.48 2.08-2.16-.92-5.03-.81-8.14.1-2.9 4.14-3.16 7.4-7.11.2-.24.58-.07.53.23m115.59-33.06c.09-.29.37-.48.67-.43 1.65.26 7.11 1.44 15.7 6.47 6.65 3.89 9.06 6.14 9.93 7.26.3.38.05.94-.43.98l-3.58.3c-.64.05-.78.94-.18 1.17 4 1.57 11.81 5.24 18.12 11.77 6.5 6.72 8.52 12.84 9.14 15.64.12.56-.53.97-.98.6l-5.75-4.66c-.5-.41-1.22.14-.94.73 1.62 3.46 4.42 10.18 5.98 18.16 1.76 9.05 1.97 12.08 1.98 12.98a.6.6 0 0 1-.29.52c-1.32.79-7.37 4.02-19.76 4.89-10.31.73-14.42.39-15.9.16a.613.613 0 0 1-.48-.8c.34-.96.89-2.93.84-5.58-.04-2.53-.45-3.82-.72-4.4a.615.615 0 0 1 .16-.72c.97-.83 3.39-3.28 3.53-7.16.14-3.82-1.21-5.73-1.79-6.37a.624.624 0 0 1-.11-.63l.62-1.56a.62.62 0 0 1 .55-.39c.91-.01 3.2.2 5.86 2.34.89.71 1.55 1.37 2.05 1.96.45.53 1.3.04 1.04-.61-.38-.94-1.02-2.05-2.05-3.31-2.06-2.49-4.15-3.52-5.49-3.94-.51-.16-.58-.86-.11-1.11 1.13-.62 2.94-1.44 5.28-1.97 1.27-.28 2.36-.43 3.25-.5.68-.05.78-1 .13-1.19-.97-.3-2.18-.56-3.58-.67-2.81-.22-4.57.47-5.41.93-.31.17-.71.04-.84-.29-.5-1.2-1.76-3.71-3.9-5.22l-2.73-1.93a.601.601 0 0 1-.22-.28c-.3-.82-1.8-4.42-5.83-7.29-3.86-2.75-9.2-3.12-10.78-3.17-.27 0-.5-.19-.57-.45l-2.38-9.05c-.06-.24.03-.5.23-.65 1.53-1.11 7.79-5.97 9.76-12.52" class="cls-5"/><path d="m180.84 182.19.48 8.12a.37.37 0 0 1-.43.39c-2.58-.39-15.38-2.27-16.85-1.61-1.64.73-5.76 2.7-6.99 4.68-.58.94-.96 1.63-1.2 2.1-.15.29.12.62.44.52 1.38-.41 4.25-1.18 5.98-1.06 1.61.11 6.55 2.27 9.48 3.61.39.18.23.76-.2.71-3.4-.38-9.51-.75-12.63 1.07-3 1.75-4.1 3.48-4.51 4.42-.12.29.15.59.46.5 2.08-.66 8.58-2.25 14.22 1.54 4.82 3.23 5.85 5.77 6.04 6.98.05.33-.3.56-.58.37-1.78-1.21-7.29-4.7-12.27-5.09-6.04-.47-7.13 2.17-7.13 5.5s1.08 3.64 1.08 3.64 12.94 6.13 22.24 6.13c9.3 0 11.08-4.81 9.92-11.55-1.16-6.74 1.69-8.01 1.08-12.02-.61-4.02-1.89-5.75-.86-9.11.85-2.79-5.11-8.35-7.16-10.15a.373.373 0 0 0-.62.3" class="cls-5"/><path d="m85.28 172.84-1.79 6.69s3.96-.9 6.88 1.78 8.19 8.31 10.21 10.85c2.02 2.55-.2 6.41-.33 7.89-.13 1.48 1.24 4.16-.48 7s.03 3.03.34 6.61c.31 3.57-1.08 6.67-4.03 8.26-2.96 1.59-4.33 2.58-4.33 2.58s8.4 9.73 28.53 9.73 30.52-9.13 30.52-9.13-4.16-4.15-4.33-8.59c-.17-4.44 1.76-4.4.65-7.51-1.11-3.1-1.18-6.41-.07-8.23 1.11-1.82-1.75-5.88.52-8.89 2.27-3.01 10.16-10.53 10.72-10.77.56-.23 3.6-1.32 3.6-1.32l-2.88-8.33-13.22 2.75-14.39 7.09-19.08-.94-15.81-5.29-11.22-2.23Zm13.65 68.62c-.05-.39.33-.71.7-.58 3.02 1.05 13.95 4.55 24.63 4.55s21.92-5.3 25.19-6.95c.39-.2.84.13.76.57-.47 2.69-1.95 10.2-5 18.33-4.01 10.69-8.89 16.75-10.32 18.39a.52.52 0 0 1-.8-.01l-4.91-5.83a.526.526 0 0 0-.87.09l-3.82 7.02c-.19.35-.69.37-.91.04l-4.7-7.13a.529.529 0 0 0-.9.02l-3.69 6.12a.53.53 0 0 1-.86.07c-2.27-2.7-11.86-15.11-14.5-34.69" class="cls-5"/><path d="M205 101.04s10.72-7.08 6.87-15.29c-3.84-8.21-14.43-10.56-14.43-10.56s-2.65-23.07-13.41-37.22c-10.77-14.14-31.44-18.4-31.44-18.4s-4.63-7.89-6.16-9.47c-1.52-1.58-10.27-1.72-22.08-1.72-15.33 0-23.74 1.49-24.85 3.63-1.11 2.14-4.68 9-4.68 9s-21.2 3.01-33.14 19.01C47.93 58.45 47.75 75.39 47.75 75.39s-11.59 2.97-14.38 12.67c-2.63 9.19 5.1 14.23 5.1 14.23s-3.29 4.07-1.82 19.06c1.57 16.09 14.47 29.06 14.47 29.06l3.74-4.32s2.93 5.35 13.63 14.49c10.7 9.14 24.34 14.3 29.35 15.83s12.15 3.06 12.15 3.06 12.95 7.05 15.45 7.05 13.97-6.28 13.97-6.28 7.4 1.26 26.82-10.83 23.61-25.08 23.61-25.08l2.79 5.24s13.33-8.61 16.3-28.97c1.18-8.12-1.98-15.02-3.93-19.58" class="cls-7"/><path d="M104.35 81.34c-.15-.05-2.22-.35-2.37-.33-2.05.24-19.53 2.4-34.77 7.19-9.72 3.05-15.31 7.87-18.24 11.28-.75.87.25 2.14 1.28 1.61 1.9-1 3.88-1.8 4.48-1.21 1.24 1.23-6.42 9.57-6.23 19.18.1 5.28 1.17 8.68 2.11 10.68.41.87 1.68.77 1.94-.16.55-1.94 1.7-4.68 4.09-6.99 4.21-4.07 1.27 4.02 6.69 13.96 3.81 6.98 7.92 9.91 10.03 11.04.62.33 1.39-.03 1.51-.72.14-.82.5-1.94 1.34-3.15 1.68-2.42-.05 4.44 10.65 13.43 6.77 5.69 11.12 7.35 13.4 7.79.79.15 1.44-.61 1.17-1.37-.26-.73-.5-1.73-.51-3.01-.03-3.02 1.51-2.95 7.44 2.63 5.93 5.58 17.1 11.98 17.1 11.98s7.54-4.86 13.82-10.21c6.28-5.35 9.38-9.21 9.29-6.1-.05 1.59-.49 3.51-.92 5.01-.26.91.73 1.67 1.54 1.18 2.95-1.79 8.07-5.44 11.56-10.93 5.16-8.12 7.85-11.16 8.13-8.27.16 1.55.14 3.38.1 4.73-.03.85.92 1.37 1.62.9 3.31-2.26 10.51-8.16 13.44-18.37 3.87-13.48 4.43-10.78 6.3-7.32.7 1.29 1.28 2.38 1.73 3.25.44.84 1.68.7 1.93-.22 1.26-4.68 3.28-15.06-.56-23.33-5.13-11.04-8.78-10.19-8.7-11.58.08-1.4 4.45-.28 4.39-3.98-.05-3.5-37.51-8.34-41.9-8.88-.24-.03-.48.02-.68.15l-15.01 6.11c-.18.11-.38.17-.59.16l-13.63-.45c-.1 0-.2-.02-.3-.05l-12.67-5.59Z" class="cls-5"/><path d="m68.89 120.66 1.02 6.65c.07.45.6.65.94.35 2.02-1.72 7.9-6.19 16.73-8.36 9.96-2.45 17.75-1.75 19.23-1.58.17.02.33-.03.45-.15l7.02-4.32c.36-.32.18-.91-.29-1-2.37-.42-9.25-2.72-12.58-9.95-4.4-9.58-8.64-20.33-19.28-20.02-7.96.23-12.06 11.33-13.62 16.9-.17.61.63 1.02 1.01.51 1.02-1.34 2.37-2.88 3.82-3.85 1.57-1.05 2.65-1.32 3.32-1.34.43-.02.71.43.54.82-.6 1.34-1.81 4.74-1.89 10.54-.08 5.94 1.06 9.23 1.59 10.43.13.3-.01.64-.31.77l-7.36 2.98c-.25.1-.4.36-.35.62m109.46 0-1.02 6.65a.57.57 0 0 1-.94.35c-2.02-1.72-7.9-6.19-16.73-8.36-9.96-2.45-17.75-1.75-19.23-1.58a.532.532 0 0 1-.45-.15l-5.36-4.88c-.36-.32-.18-.91.29-1 2.37-.42 7.59-2.17 10.91-9.4 4.4-9.58 8.64-20.33 19.28-20.02 7.96.23 12.06 11.33 13.62 16.9.17.61-.63 1.02-1.01.51-1.02-1.34-2.37-2.88-3.82-3.85-1.57-1.05-2.65-1.32-3.32-1.34-.43-.02-.71.43-.54.82.6 1.34 1.81 4.74 1.89 10.54.08 5.94-1.06 9.23-1.59 10.43-.13.3.01.64.31.77l7.36 2.98c.25.1.4.36.35.62" class="cls-7"/><path d="M98.12 28.15S81.4 31.04 70.06 46.54C59.93 60.37 60.3 73.97 60.3 73.97S88.02 67 125.45 67s60.27 6.25 60.27 6.25.37-17.56-10.79-30.89c-11.16-13.33-23.04-13.62-23.04-13.62s-.59 6.35-2.25 6.11c-1.66-.24-5.63-14.88-8.13-16.32-2.5-1.44-32.34-1.15-34.27.3-1.93 1.45-5.43 13.39-6.26 15.15-1.18 2.5-2.87-5.84-2.87-5.84" class="cls-3"/><path d="M160.7 132.96s-6.88-8.01-15.07-15.46c-8.18-7.45-19.2-11.9-19.2-11.9-.99-.56-2.23-.42-2.92 0 0 0-9.62 4-18.38 11.98s-14.77 15.38-14.77 15.38c-1.05.96-.91 2.66.29 3.43l33.71 21.65c.72.46 1.63.46 2.35 0l33.71-21.65c1.2-.77 1.34-2.47.29-3.43" class="cls-7"/><path d="M91.58 94.86s-5.76.38-6.87 8.1c-1.11 7.73 1.62 12.11 1.62 12.11l-5.87.54s-3.15-8.13-.42-16.5 5.94-8.47 5.94-8.47 3.68.78 5.61 4.21m5.82 8.28c0-1.6-1.3-2.9-2.9-2.9s-2.9 1.3-2.9 2.9 1.3 2.9 2.9 2.9 2.9-1.3 2.9-2.9m58.29-7.93s.94-2.34 3.05-5.05c2.11-2.7 3.81-3.12 5.49-1.05 1.68 2.07 3.54 8.84 3.38 15.94-.15 7.1-2.32 10.58-2.32 10.58l-1.96-.59s8.57-22.31-7.65-19.83" class="cls-4"/><path fill="#ff7f30" d="m125.59 154.2 31.35-19.32c.16-.1.17-.33.02-.45 0 0-7.78-7.66-14.78-12.95-7-5.29-14.36-9.07-14.36-9.07a.268.268 0 0 0-.43.19l-1.62 20.76c-.03.33-.5.33-.54 0l-1.98-20.59a.268.268 0 0 0-.43-.19s-8.28 4.41-15.23 9.66c-6.95 5.25-13.66 12.17-13.66 12.17-.15.12-.14.35.02.45l31.35 19.32c.09.05.2.05.28 0"/><path d="M111.82 125.85 127.71 143c.08.09.21.13.33.11l14.35-5.58c.42-.09.61.51.21.68l-15.23 8.52a.36.36 0 0 1-.27 0L99 134.62a.355.355 0 0 1-.06-.62l12.42-8.18c.15-.1.34-.07.46.05" class="cls-7"/><path d="m103.65 134.45 7.98-5.21 13.2 14.22-21.18-9.01zm51.81-74.7c0-15.25-12.36-27.61-27.61-27.61s-27.61 12.36-27.61 27.61 12.36 27.61 27.61 27.61S155.46 75 155.46 59.75" class="cls-4"/><path d="M154.56 49.97c-4.97-12.17-15.92-21.46-29.72-21.74-17.47-.36-32.18 13.63-32.68 31.1-.52 18.13 14.02 33 32.04 33 15.26 0 28.03-10.66 31.26-24.94-.19-.81-1.28-.97-1.69-.25l-.06.1c-3.52 10.49-12.67 18.52-24.28 18.47-13.15-.06-24.16-10.49-24.88-23.62-.79-14.47 10.7-26.45 25-26.45 10.44 0 19.39 6.39 23.15 15.48.75.66 1.92.1 1.87-.9v-.26Z" class="cls-7"/><path d="M89.48 92.41s-6.45 3.9-6.84 12.63c-.36 8.11 1.26 10.26 1.26 10.26l2.42-.22s-3.35-6.97-1.07-13.37c2.27-6.41 6.33-6.84 6.33-6.84s-.4-.7-1-1.4-1.1-1.05-1.1-1.05m66.22 2.78s5.16-.43 7.83 3.07c2.08 2.72 1.73 7.96.8 11.47-.93 3.51-1.54 5.3-1.54 5.3l1.65.33s4.47-13.86.95-19.13c-3.43-5.14-8.75-3.02-8.75-3.02l-.94 1.99Z" class="cls-3"/><path d="M162.64 102.09c0-1.6-1.3-2.9-2.9-2.9s-2.9 1.3-2.9 2.9 1.3 2.9 2.9 2.9 2.9-1.3 2.9-2.9" class="cls-4"/><path d="M32.68 197.81c-.07-2.99.98-5.66 2.7-7.77-.2-.98-.31-2-.3-3.06.01-1.47.19-2.92.47-4.33.61-6.53 3.9-12.95 8.05-17.99 2.01-2.44 4.31-4.6 6.42-6.94.33-.37.65-.83 1.01-1.22.08-.12.17-.24.24-.36.07-.11.14-.25.22-.4.19-.69.44-1.36.75-2 .43-1.34 1.07-2.53 1.88-3.58-6.64 1.72-11.92 6.08-13.93 7.92-.39.36-.22 1 .3 1.12l1.51.36c.62.14.7.99.12 1.24-1.78.79-4.96 2.44-10.47 5.92-8.16 5.14-11.95 12.44-13.31 15.69-.24.57.38 1.12.92.83l3.6-1.94c.57-.3 1.19.29.9.87-1.05 2.13-2.7 6.04-4.05 11.86-2.03 8.75-2.36 17.44-2.4 18.55 0 .1.02.2.06.29.31.62 2.1 2.87 12.18 6.34 6.25 2.15 13.05 2.79 18.11 2.91-8.93-5.27-14.75-13.41-14.99-24.31m183.74-4.39c5.42 8.97 2.39 21.39-3.87 30.61 12.24-.89 18.23-4.08 19.54-4.87a.6.6 0 0 0 .29-.52c0-.9-.22-3.93-1.98-12.98-1.55-7.98-4.36-14.71-5.98-18.16-.28-.59.43-1.14.94-.73l5.75 4.66c.45.36 1.11-.04.98-.6-.62-2.8-2.64-8.92-9.14-15.64-6.31-6.53-14.12-10.19-18.12-11.77-.6-.24-.47-1.12.18-1.17l3.58-.3c.48-.04.73-.6.43-.98-.87-1.12-3.27-3.37-9.93-7.26a76.642 76.642 0 0 0-5.75-3.05c1.52 2.63 2.8 5.46 3.94 8.33 1.41 3.55 2.4 7.24 2.97 11.01 0 0 6.15-.15 12.05 8.74 5.89 8.88 4.11 14.7 4.11 14.7m-69.67 14.26c.35.27.24.86.4 1.29 1.11 3.1-.82 3.06-.65 7.51.17 4.44 4.33 8.59 4.33 8.59s-10.39 9.13-30.52 9.13-28.53-9.74-28.53-9.74 1.37-.99 4.33-2.57c2.96-1.59 4.35-4.69 4.03-8.26-.07-.77-.2-1.38-.35-1.89 0 0 11.96 2.43 20.79-1.76 8.83-4.18 17.01-9.5 26.17-2.29m46.7-102.25c-5.13-11.04-8.78-10.19-8.7-11.58.08-1.4 4.45-.28 4.39-3.98-.02-1.17-4.18-2.48-9.89-3.73 0 .16-.02.33-.02.49 1.37 13.58 9.15 14 7.83 25.34-.67 5.72-5.27 20.62-7.83 26.26-2.26 4.98-5.22 10.33-9.72 13.23.32.19.75.22 1.11-.03 3.31-2.26 10.51-8.16 13.44-18.37 3.87-13.48 4.43-10.78 6.3-7.32.7 1.29 1.28 2.38 1.73 3.25.44.84 1.68.7 1.93-.22 1.26-4.68 3.28-15.06-.56-23.33M62.56 128.04c-.92-5.76-5.42-13.58-4.94-19.37.47-5.72 5.44-9.22 6.84-14.79.43-1.72.86-3.47 1.33-5.2-8.85 3.06-14.04 7.57-16.83 10.81-.75.88.25 2.14 1.27 1.61 1.9-1 3.88-1.8 4.48-1.21 1.24 1.23-6.42 9.57-6.23 19.18.1 5.28 1.17 8.68 2.11 10.68.41.87 1.68.77 1.94-.16.55-1.94 1.7-4.68 4.09-6.99 4.21-4.07 1.27 4.02 6.69 13.96 1.63 3 3.32 5.24 4.89 6.92-2.59-4.86-4.77-9.97-5.64-15.43m11.99 39.4-2.99 14.61 6.62-1.13 2.36-9.09-5.99-4.39zm89.19 3.15 5.88-4.28 1.69 6.19-5.41 4.91-2.16-6.82z" class="cls-8"/><path d="m74.55 167.45 1.98 1.45-2.57 12.75-2.4.41 2.99-14.61zm89.19 3.15 2.16 6.82 1.87-1.69-2.01-6.6-2.02 1.47z" class="cls-4"/><path d="M104.55 246.48c-.11-.13-.3-.03-.29.14.13 1.83.7 8.19 2.54 12.7 1.83 4.5 4.75 10.07 5.6 11.68.08.15.29.11.31-.07l.25-1.87.54.52c.09.08.22.05.27-.06l3.78-9.47c.05-.14.23-.15.3-.02l5.55 9.76c.05.08.15.11.23.06l.56-.35c.11-.07.25.02.25.16v1.44c0 .18.21.26.31.11.9-1.37 3.51-5.85 4.16-12.43.63-6.39-.85-10.1-1.47-11.34-.08-.16-.3-.11-.32.07l-.23 2.06c-.02.15-.19.22-.29.11l-.55-.59c-.1-.1-.26-.05-.28.09l-.31 1.62c-.02.1-.12.17-.21.14l-.88-.27s.94 2.44 1.35 5.91c.34 2.91-.73 5.89-1.09 6.77-.05.12-.2.15-.28.04-.64-.82-2.92-3.82-4.29-6.82-1.2-2.61-1.86-4.68-2.12-5.56-.05-.16-.25-.17-.32-.02l-.46 1.13c-.04.09-.14.13-.22.09l-.6-.28c-.1-.05-.2 0-.23.12-.18.75-.84 3.41-1.6 5.52-.71 1.96-1.64 3.53-1.99 4.11-.07.11-.22.11-.28 0-.56-1.02-2.73-5.04-3.51-8.24-.9-3.69-1.13-7.33-1.13-7.33l-.66 1.51c-.06.14-.25.14-.31 0l-.35-.93c-.05-.12-.2-.15-.28-.05l-.52.62a.16.16 0 0 1-.25 0l-.67-.77Z" class="cls-7"/><path d="M107.6 246.11s.23 3.63 1.13 7.33c.78 3.2 2.94 7.23 3.51 8.24.03.06.09.09.14.09.05 0 .11-.03.14-.08.35-.57 1.28-2.15 1.99-4.11.77-2.1 1.42-4.77 1.6-5.52.02-.08.09-.13.16-.13.02 0 .05 0 .07.02l.6.28s.05.02.07.02c.07 0 .13-.04.16-.11l.46-1.12c.03-.07.09-.11.16-.11s.14.04.16.13c.26.88.92 2.95 2.12 5.56 1.38 2.99 3.65 6 4.3 6.82.03.04.08.07.13.07.06 0 .13-.04.15-.11.36-.88 1.43-3.86 1.09-6.77-.41-3.47-1.35-5.91-1.35-5.91l.87.27h.05c.08 0 .15-.06.17-.15l.31-1.63c.02-.09.09-.15.17-.15.04 0 .08.02.12.05l.55.59s.08.05.12.05c.08 0 .16-.06.17-.16l.23-2.06c.01-.1.09-.16.17-.16.06 0 .11.03.15.09.62 1.23 2.1 4.95 1.47 11.34-.65 6.58-3.26 11.06-4.16 12.43-.03.05-.08.08-.13.08-.09 0-.17-.07-.17-.19v-1.44c0-.11-.08-.18-.17-.18-.03 0-.06 0-.08.03l-.56.35s-.06.02-.08.02a.15.15 0 0 1-.14-.09l-5.55-9.76a.162.162 0 0 0-.14-.09c-.06 0-.13.04-.16.11l-3.79 9.47c-.03.07-.09.11-.16.11a.16.16 0 0 1-.11-.05l-.54-.52-.25 1.87c-.01.1-.09.16-.17.16-.06 0-.11-.03-.15-.09-.85-1.61-3.77-7.18-5.6-11.68-1.84-4.51-2.41-10.87-2.54-12.7 0-.12.08-.2.17-.2.04 0 .09.02.12.06l.67.77s.08.06.12.06.09-.02.13-.06l.52-.62s.08-.06.13-.06c.07 0 .13.04.16.11l.35.93c.03.08.09.11.16.11s.12-.03.15-.1l.66-1.51m0-.56a.56.56 0 0 0-.51.33l-.28.64-.02-.04a.713.713 0 0 0-.68-.47.73.73 0 0 0-.55.25l-.23.27-.37-.42c-.14-.16-.33-.25-.54-.25s-.39.08-.53.23c-.14.15-.21.35-.19.56.13 1.86.72 8.29 2.58 12.87 1.84 4.52 4.77 10.12 5.63 11.73.13.24.37.39.63.39.37 0 .67-.27.72-.64l.12-.87c.08.03.16.04.24.04.3 0 .56-.18.67-.46l3.49-8.72 5.15 9.06a.723.723 0 0 0 .98.28v.76c0 .41.33.74.73.74.24 0 .46-.12.6-.33 1.06-1.62 3.6-6.1 4.25-12.68.64-6.48-.86-10.3-1.53-11.64a.706.706 0 0 0-.64-.4c-.37 0-.68.28-.72.65l-.14 1.23a.703.703 0 0 0-.5-.2c-.35 0-.65.25-.71.6l-.23 1.21-.46-.14c-.05-.02-.11-.02-.16-.02-.15 0-.3.06-.41.18-.15.16-.19.38-.11.58 0 .02.92 2.42 1.32 5.78.27 2.27-.38 4.62-.81 5.85-.92-1.22-2.67-3.69-3.8-6.15-1.16-2.53-1.81-4.52-2.09-5.49a.714.714 0 0 0-.69-.53.73.73 0 0 0-.67.45l-.31.75-.23-.11a.67.67 0 0 0-.31-.07c-.33 0-.62.23-.7.56-.18.76-.83 3.38-1.58 5.46a22.77 22.77 0 0 1-1.59 3.42c-.83-1.56-2.47-4.82-3.13-7.5-.88-3.6-1.11-7.19-1.11-7.23a.544.544 0 0 0-.46-.51h-.1m24.53 1.9s2.27 5.89 2.04 11.43c-.19 4.7-1.4 9.09-1.77 10.32-.05.16.09.3.25.27l.93-.19c.14-.03.27.08.26.22l-.07 1.44s.06.08.09.04c.76-.93 5.95-7.38 8.7-14.21 2.38-5.92 2.35-10.52 2.24-12.12-.01-.21-.28-.27-.39-.1l-.78 1.16c-.07.11-.23.13-.32.04l-.65-.6-.07 1.28c0 .15-.17.25-.31.18l-.67-.32s.79.71-1.18 6.72c-1.25 3.81-2.15 5.3-2.64 5.89-.13.16-.39.05-.38-.16.13-1.44.38-5.52-.52-8.29-1.11-3.42-1.9-4.24-1.9-4.24l-.09 1.11c-.02.18-.24.27-.37.13l-.63-.68c-.13-.14-.37-.05-.37.14l-.03 1.01c0 .17-.19.27-.33.18l-1.03-.65Z" class="cls-7"/><path d="M144.64 244.45c.1 0 .21.07.21.2.11 1.59.14 6.2-2.24 12.12-2.75 6.83-7.94 13.28-8.7 14.21 0 .01-.02.02-.03.02-.03 0-.05-.02-.05-.05l.08-1.44c0-.13-.09-.23-.22-.23h-.04l-.93.19h-.05c-.14 0-.25-.13-.21-.27.37-1.23 1.58-5.62 1.77-10.32.23-5.55-2.04-11.43-2.04-11.43l1.03.65s.08.03.11.03c.11 0 .21-.09.22-.21l.03-1.01c0-.13.11-.21.22-.21.06 0 .11.02.16.07l.63.68s.1.07.16.07c.1 0 .21-.08.22-.2l.09-1.11s.78.82 1.9 4.24c.9 2.78.65 6.85.52 8.29-.01.14.1.23.22.23.06 0 .12-.02.16-.08.49-.58 1.39-2.07 2.64-5.89 1.97-6 1.18-6.72 1.18-6.72l.67.32s.06.02.09.02c.11 0 .21-.08.22-.2l.07-1.27.66.6s.09.06.14.06a.2.2 0 0 0 .18-.1l.78-1.16c.05-.07.11-.1.18-.1m0-.55c-.26 0-.5.13-.64.34l-.56.83-.36-.33c-.1-.1-.24-.15-.38-.15a.544.544 0 0 0-.55.52l-.04.76-.21-.1a.533.533 0 0 0-.24-.06c-.18 0-.35.09-.46.25-.13.2-.12.45 0 .63.05.15.35 1.33-1.25 6.22-.76 2.32-1.38 3.74-1.84 4.61.1-1.96.08-4.95-.64-7.18-1.12-3.44-1.94-4.36-2.03-4.45a.56.56 0 0 0-.58-.14c-.21.07-.35.26-.37.48l-.03.35-.11-.12a.766.766 0 0 0-1.33.5v.41l-.54-.33a.51.51 0 0 0-.29-.08c-.13 0-.25.04-.35.13-.18.15-.25.4-.16.63.02.06 2.23 5.85 2 11.21-.19 4.63-1.38 8.97-1.75 10.18-.07.23-.03.48.12.68.15.19.38.31.62.31.05 0 .11 0 .16-.02l.5-.1-.05 1a.618.618 0 0 0 .61.64c.18 0 .35-.08.47-.22.99-1.2 6.04-7.54 8.79-14.36 2.41-5.98 2.4-10.63 2.28-12.36a.767.767 0 0 0-.77-.72" class="cls-7"/><path d="M155.41 59.75c0-15.25-12.36-27.61-27.61-27.61s-27.61 12.36-27.61 27.61 12.36 27.61 27.61 27.61S155.41 75 155.41 59.75" class="cls-4"/><path d="M127.23 33.11c1.45-.09 1.9 1.92.57 2.5-4.46 1.95-8.2 4.76-11.04 8.22-4.02 4.86-6.12 10.85-6.12 16.89 0 6.04 2.12 12.03 6.13 16.88 2.84 3.47 6.6 6.28 11.07 8.23 1.33.58.87 2.59-.57 2.5-1.58-.1-3.17-.36-4.73-.77-3.71-.98-7.26-2.87-10.27-5.45-3.02-2.58-5.48-5.88-7.16-9.56-.38-.92-.76-1.85-1.09-2.79 0-.03-.02-.06-.03-.09-.27-.94-.55-1.88-.78-2.84 0-.04-.02-.07-.02-.11-.16-.96-.33-1.93-.46-2.9 0-.04 0-.08-.01-.12l-.17-2.91v-.15l.17-2.91s0-.08.01-.12c.13-.97.29-1.94.46-2.9 0-.04.01-.07.02-.11.23-.96.52-1.9.78-2.84 0-.03.02-.06.03-.09.32-.95.71-1.87 1.09-2.79 1.68-3.68 4.15-6.98 7.16-9.56 3.02-2.58 6.56-4.47 10.27-5.45 1.55-.41 3.12-.67 4.69-.77" class="cls-5"/><path d="M99.94 34.05c-.96-1.38-1.87-5.9-1.87-5.9s-16.72 2.89-28.06 18.39a51.495 51.495 0 0 0-8.53 18.33c6.06-15.99 21.51-28.25 38.47-30.82" class="cls-8"/><path d="m74.8 48.73.12-.42c.06.33.12.67.19 1.05.19-.37.36-.7.58-1.14.11.22.15.31.25.49.04-.3.06-.49.1-.78l.2.36c.05-.06.1-.11.17-.18.06.11.11.2.17.3.07-.1.14-.19.2-.27l.07.03c-.03.1-.06.2-.09.33.16 0 .29.02.34.02.1.19.19.37.27.53.53-.25.98-.47 1.47-.71.07.15.12.27.19.43.08-.09.1-.16.15-.17.23-.05.47-.1.72-.11.05 0 .2.16.21.24.1.56.19 1.12.24 1.67.06.72.06 1.43.09 2.24.68-.4 1.24-.75 1.84-1.07 1.14-.6 2.3-1.18 3.45-1.77-.13.15-.27.29-.42.46.48-.06.89-.12 1.44-.19-.16.18-.22.25-.35.4.34-.14.57-.23.75-.3.1.32.2.61.32.96-.04.07-.14.22-.21.32.64.18 1.2.34 1.78.51-.1.14-.15.22-.14.2.32.19.63.32.82.51.06.06-.13.32-.28.43-.42.32-.87.63-1.33.92-2.14 1.36-4.3 2.71-6.43 4.08-.17.11-.28.37-.23.55.2.73.43 1.46.73 2.17.72 1.69 1.65 3.32 3.24 4.74.56.5 1.22.95 1.76 1.37-.16.21-.33.41-.49.63-.6-.33-1.15-.63-1.7-.93-.02.02-.04.04-.06.07.42.29.83.59 1.25.88l-.05.07c-.2-.1-.4-.21-.65-.33.02.11.04.18.06.29-.82-.5-1.44-1.15-2.28-1.55-.05.04-.09.08-.14.13.57.45 1.13.9 1.7 1.35a.55.55 0 0 1-.07.09c-.35-.13-.69-.27-1.07-.42.22.25.42.49.63.74-.75-.46-1.7-.89-2.06-1.47-.43-.71-1.66-.91-1.61-1.83-.2.25-.31.39-.44.56-.11-.12-.18-.18-.26-.27-.01.1-.02.17-.03.23-.05 0-.1.01-.16.02-.6-1.05-1.2-2.09-1.81-3.14-.04.09-.04.17 0 .25.33.66.68 1.31 1 1.97.05.11-.03.24-.06.36-.04-.01-.08-.02-.13-.03-.1-.09-.23-.18-.29-.28-.41-.7-.8-1.41-1.23-2.18-1.06 1.25-2.1 2.49-3.14 3.73-.02-.01-.04-.03-.07-.04.02-.08.03-.15.05-.25-.23.03-.43.05-.8.09.22-.6.42-1.12.62-1.64-.03-.01-.06-.02-.08-.04l-.69.9c-.02-.01-.03-.02-.05-.03.3-.77.6-1.53.9-2.3-.07-.03-.14-.05-.21-.08-.33.46-.66.91-.99 1.37l-.12-.06c.04-.29.08-.58.14-.93l-.97.91c-.05-.08-.08-.12-.07-.14.41-.44.89-.84.77-1.5-.02-.12.28-.35.37-.32.43.14.41-.12.47-.27.08-.18.05-.4.14-.58.11-.21.3-.38.44-.56-.21-.04-.43-.09-.68-.14.08-.12.14-.2.23-.32-.17.04-.27.06-.52.12.86-.88 1.63-1.66 2.41-2.45-.04-.03-.08-.05-.13-.08l-2.56 2.38c-.05-.24-.07-.48.07-.63.76-.8 1.53-1.6 2.36-2.36.28-.26.31-.52.26-.86-.19-1.53-.37-3.05-.49-4.58-.07-.93-.04-1.85-.06-2.77m1.32 10.25c-.6.77-1.8 1.22-1.83 2.39.66-.7 1.02-1.48 1.73-2.04.04.02.08.05.12.07 0-.14-.01-.28-.02-.42m3.5 2.94c-.07.01-.13.03-.2.04l1.38 2.46c.07-.02.13-.03.2-.05.04-.47-.37-.83-.74-1.24-.32-.36-.44-.81-.65-1.22m2.27 2.27c0 .72.38 1.14.91 1.09l-.91-1.09m-7.31-2.2c.21-.09.49-.13.6-.26.11-.14.05-.37.07-.59q-.9.63-.68.86m7.37 3.18s-.09.05-.13.08c.43.22.19.83 1.06.84-.33-.32-.62-.62-.92-.92m-8.26-2.81c.24-.33.45-.61.65-.89-.05-.03-.1-.05-.15-.07-.11.33-.81.35-.51.96" class="cls-8"/><path d="M76.12 58.98c0 .14.01.28.02.42-.04-.02-.08-.05-.12-.07-.71.56-1.07 1.34-1.73 2.04.03-1.17 1.23-1.62 1.83-2.39m3.5 2.95c.21.41.33.86.65 1.22.37.41.78.76.74 1.24-.07.02-.13.03-.2.05l-1.38-2.46c.07-.01.13-.03.2-.04m2.26 2.25.91 1.09c-.53.05-.92-.37-.91-1.09m-7.31-2.2q-.22-.22.68-.86c-.02.22.04.46-.07.59-.11.13-.39.18-.6.26m4.27 2.65c.09.02.18.04.36.09.1.17.25.43.4.7-.61-.17-.79-.34-.89-.82l.13.03m3.09.54c.3.3.6.59.92.92-.87-.01-.63-.62-1.06-.84.05-.03.09-.05.13-.08m-8.25-2.81c-.31-.61.4-.63.51-.96.05.02.1.05.15.07-.21.28-.41.56-.65.89m111.54 10.77.43.11s.37-17.56-10.79-30.89c-11.16-13.33-23.03-13.62-23.03-13.62s-.33 3.6-1.21 5.28c18.1 4.91 31.27 20.44 34.61 39.12m-37.61-41.5c-1.9-4.46-4.41-12.08-6.18-13.1-2.5-1.44-32.33-1.15-34.27.3-1.73 1.3-4.71 10.99-5.91 14.27 0 0 5.69-9.97 22.47-10.51 16.79-.53 23.88 9.03 23.88 9.03" class="cls-8"/><path d="M154.51 49.97c-4.97-12.17-15.92-21.46-29.72-21.74-17.47-.36-32.18 13.63-32.68 31.1-.52 18.13 14.02 33 32.04 33 15.26 0 28.03-10.66 31.26-24.94-.19-.81-1.28-.97-1.69-.25l-.06.1c-3.52 10.49-12.67 18.52-24.28 18.47-13.15-.06-24.16-10.49-24.88-23.62-.79-14.47 10.7-26.45 25-26.45 10.44 0 19.39 6.39 23.15 15.48.75.66 1.92.1 1.87-.9v-.26Z" class="cls-7"/></g></g></svg>