<svg xmlns="http://www.w3.org/2000/svg" xmlns:xlink="http://www.w3.org/1999/xlink" viewBox="0 0 300 266.095">
  <defs>
    <linearGradient id="a" x1="104.739" x2="85.687" y1="-35.588" y2="271.151" gradientUnits="userSpaceOnUse">
      <stop offset="0" stop-color="#ffee25"/>
      <stop offset=".018" stop-color="#fee820"/>
      <stop offset=".102" stop-color="#fdd60e"/>
      <stop offset=".189" stop-color="#fdca03"/>
      <stop offset=".281" stop-color="#fdc700"/>
      <stop offset=".583" stop-color="#f08f34"/>
      <stop offset=".673" stop-color="#e86031"/>
      <stop offset=".805" stop-color="#e75931"/>
      <stop offset="1" stop-color="#e2312d"/>
    </linearGradient>
    <linearGradient xlink:href="#a" id="b" x1="83.47" x2="64.418" y1="-36.909" y2="269.83"/>
    <linearGradient xlink:href="#a" id="c" x1="96.937" x2="77.885" y1="-36.072" y2="270.667"/>
    <linearGradient xlink:href="#a" id="d" x1="65.078" x2="46.026" y1="-38.051" y2="268.688"/>
    <linearGradient xlink:href="#a" id="e" x1="187.203" x2="168.151" y1="-30.466" y2="276.273"/>
    <linearGradient xlink:href="#a" id="f" x1="128.075" x2="109.023" y1="-34.138" y2="272.601"/>
  </defs>
  <path fill="#1c2444" d="m34.297 111.334-.015.168c.004-.025.011-.096.024-.245a5.747 5.747 0 0 1-.009.077Z"/>
  <path fill="#1c2444" d="M297.869 34.741C287.725 7.674 254.153 1.133 228.647.136c-10.278-.402-20.572.113-30.793 1.213-2.985.321-5.553 2.05-5.932 5.237l-.001.032c-9.729-1.531-19.899-1.197-29.429-.05-21.52 2.589-43.069 8.203-61.767 19.481-8.765 5.286-17.113 11.608-23.706 19.488-1.893-1.722-4.901-2.109-7.118-.776-16.121 9.696-31.633 20.981-44.683 34.6C15.197 89.819 6 102.117 1.895 116.203c-3.365 11.545-2.473 24.417 4.503 34.494 7.741 11.182 20.245 17.65 33.041 21.337 18.527 5.339 38.44 5.646 57.541 3.988-3.221 11.873-6.679 23.685-10.537 35.361a347.936 347.936 0 0 1-4.044 11.611 216.317 216.317 0 0 1-1.85 4.829c-.297.747-.615 1.488-.909 2.236-.135.311-.269.624-.405.935-3.97 9.022-9.445 17.607-16.031 24.765-3.228 3.509-1.27 10.834 4.271 10.31 9.93-.939 19.228-4.455 27.672-9.724 8.502-5.305 17.026-12.079 23.432-19.844 11.62-14.084 17.715-32.176 22.238-49.626 1.824-7.038 3.46-14.123 5.001-21.231 1.187.556 2.579.722 4.039.308a557.152 557.152 0 0 0 15.137-4.522c3.474 10.361 7.826 20.853 14.979 29.051 7.176 8.223 16.671 13.848 27.572 14.897 9.992.961 20.715-.115 29.979-4.054 3.115-1.325 6.978-3.014 8.779-6.045 1.356-2.281 1.102-5.291-.499-7.35-.665-.855-1.5-1.524-2.452-2.048-1.271-.699-1.015-.421-1.957-1.026-5.117-3.29-8.534-5.739-12.916-9.974-9.007-8.705-15.817-19.119-21.504-30.363 21.216-10.292 41.53-22.88 59.103-38.648 13.774-12.359 27.27-27.804 32.228-46.062 2.216-8.157 2.45-17.042-.435-25.068Zm-126.105 2.348c.56-1.414.521-2.85.069-4.135.38.125.761.247 1.139.382.223.08.444.166.664.254.09.041.201.093.318.154 1.015.526 2.024 1.04 2.987 1.66.393.253.777.523 1.156.799.019.044.985.839 1.169 1.008 2.125 1.964 3.054 3.153 4.416 5.667 1.287 2.375 2.006 4.745 2.579 7.763 1.035 5.456.309 10.277-1.628 15.594-.472 1.297-.799 2.007-1.68 3.636a40.84 40.84 0 0 1-2.472 3.997c-1.639 2.343-3.986 4.832-6.416 7.029-4.367 3.948-9.589 7.067-14.994 9.548 1.268-7.031 2.623-14.047 4.125-21.032 2.339-10.876 4.755-21.858 8.569-32.326Zm47.226-20.571c7.285.164 14.262.9 21.288 2.861 6.277 1.752 12.223 4.371 16.929 8.93 4.429 4.29 7.695 10.427 8.054 16.299.375 6.142-1.66 12.349-3.979 17.968a8.725 8.725 0 0 1-.017.039 73.24 73.24 0 0 1-1.351 2.921 78.263 78.263 0 0 1-2.262 4.278 86.308 86.308 0 0 1-5.109 7.917c-6.604 9.127-16.843 18.54-26.004 25.268-9.283 6.818-19.201 12.728-29.435 18.006a257.087 257.087 0 0 1-2.504-7.559 299.432 299.432 0 0 1-3.332-11.449l-.19-.71c1.302-.621 2.62-1.219 3.871-1.888a123.032 123.032 0 0 0 7.519-4.362c4.391-2.766 8.61-5.856 12.525-9.264 6.124-5.33 11.634-11.841 14.908-19.327 7.262-16.602 2.921-37.182-11.362-48.71-.539-.435-1.102-.823-1.655-1.23.701.007 1.402-.004 2.103.011Zm-60.766 121.007c-1.488.509-2.98 1.011-4.478 1.491-.861.276-1.802.512-2.715.809 1.318-6.957 2.376-13.957 3.416-20.96 1.098 6.251 2.338 12.476 3.777 18.66Zm-54.122 10.697c-.673-.265-1.39-.435-2.166-.393-11.2.607-22.258-.3-32.874-2.799a88.224 88.224 0 0 1-7.88-2.232 76.191 76.191 0 0 1-3.529-1.282c-.157-.061-.872-.357-1.017-.413a62.132 62.132 0 0 1-1.705-.771 57.24 57.24 0 0 1-6.304-3.454c-.931-.592-1.826-1.229-2.727-1.863a9.927 9.927 0 0 0-.255-.176 8.543 8.543 0 0 0-.228-.195c-.474-.398-.952-.789-1.416-1.2-1.616-1.43-3.081-2.99-4.463-4.645-.061-.073-.093-.109-.131-.153a10.051 10.051 0 0 0-.149-.231c-.278-.418-.576-.822-.851-1.242a33.377 33.377 0 0 1-1.641-2.801c-.27-.517-.513-1.046-.768-1.57-.046-.095-.073-.146-.101-.199a6.707 6.707 0 0 0-.065-.206c-.492-1.468-.998-2.908-1.342-4.422-.031-.136-.154-.749-.221-1.058-.028-.236-.074-.601-.082-.703a24.814 24.814 0 0 1-.056-2.672c.021-.684.089-1.36.15-2.039-.005.037 0-.033.015-.168.012-.131.025-.262.035-.393l-.026.316c.017-.141.042-.32.077-.508.1-.539.203-1.077.321-1.612a44.705 44.705 0 0 1 1.805-6.013c.147-.393.303-.782.459-1.171.058-.128.298-.694.391-.898A62.316 62.316 0 0 1 39 97.725a72.656 72.656 0 0 1 3.925-6.536c5.452-8.116 12.872-15.443 21.049-21.707a41.336 41.336 0 0 0-.852 4.108c-.409 2.725.47 5.47 2.809 6.823-.075.174-.164.334-.236.511a4.012 4.012 0 0 0-.278 1.44c-.27.45-.483.934-.595 1.456-.418 1.945-.678 3.952-.698 5.943a26.336 26.336 0 0 0 12.835 22.379c1.546.923 3.369 1.008 4.976.444 3.702 1.963 8.007 2.825 12.327 2.568 5.012-.298 9.947-3.164 13.578-6.522 1.821-1.684 3.745-3.769 4.303-6.219.131-.576.218-1.15.299-1.725a6.19 6.19 0 0 0 2.407-3.313c2.73-9.005.312-18.956-6.22-25.713-3.384-3.501-7.638-5.833-12.206-6.965 4.419-7.772 10.618-13.345 18.066-18.19 10.901-7.091 23.034-11.852 35.837-14.183a58.903 58.903 0 0 1 4.574-.643 33.822 33.822 0 0 0-4.663 2.807c-7.162 5.15-12.664 12.133-17.175 19.656-5.705 9.514-9.992 19.936-13.587 30.408-3.601 10.492-6.975 21.488-8.817 32.44-1.763 10.484-4.06 20.886-6.559 31.232Zm132.424 40.067c-.174.081-.35.191-.525.301l-.036-.025c.821-1.344 1.793-.846.561-.277Z"/>
  <path fill="url(#a)" d="M97.274 81.329c4.842 1.61 10.957 6.563 11.754 14.44.601-1.904.922-3.91.922-6.008 0-10.991-8.901-19.895-19.89-19.895-1.709 0-3.366.219-4.947.618.365.724 4.37 8.267 12.16 10.845Z"/>
  <path fill="url(#b)" d="M70.167 89.761c0 7.331 3.959 13.713 9.843 17.164-1.717-1.688-2.556-3.349-2.85-3.985-.86-1.944-1.151-3.605-1.464-5.355-.346-1.96-.711-3.973-1.918-6.734a30.398 30.398 0 0 0-3.13-5.427 19.732 19.732 0 0 0-.482 4.338Z"/>
  <path fill="url(#c)" d="M82.77 71.246c-5.141 2.041-9.236 6.135-11.248 11.282.034.031.07.062.097.103a32.372 32.372 0 0 1 4.414 7.222c1.339 3.036 1.732 5.302 2.094 7.303.292 1.679.549 3.115 1.292 4.781.592 1.32 4.083 7.886 14.847 7.178.113-.006.217 0 .322.025a19.978 19.978 0 0 0 11.608-7.733c2.445-10.664-5.262-16.262-9.7-17.72-9.155-3.034-13.46-11.815-13.636-12.19-.047-.069-.066-.162-.089-.25Z"/>
  <path fill="url(#d)" d="M98.238 169.875c-.128-.187-.245-.375-.373-.555.315-1.083.666-2.316.942-3.439 1.082-4.762 3.129-12.012 3.129-12.012s-2.394.137-6.31.075c-33.246-.2-58.584-10.723-65.794-30.412a31.561 31.561 0 0 1-1.148-3.876.715.715 0 0 0-.034-.15 19.618 19.618 0 0 1-.354-1.919c-2.071-14.752 10.747-38.591 37.072-56.608.681-.474 1.378-.936 2.082-1.401.569-.375 1.141-.746 1.71-1.114-.296.197 3.779-8.464 3.791-8.488-47.33 28.364-74.726 64.127-65.045 90.551 8.607 23.456 44.301 33.639 90.332 29.348Zm-86.227-37.219c-5.639-30.53 43.364-68.644 43.364-68.644s-46.087 36.753-40.253 67.867c5.834 31.114 69.228 33.058 69.228 33.058s-66.7-1.75-72.339-32.28Z"/>
  <path fill="url(#e)" d="M292.045 36.346c-8.844-24.117-46.29-34.194-94.191-28.958a73.897 73.897 0 0 1 4.531 1.744c35.979-4.654 66.559 4.598 76.477 25.056-.92-2.903-2.308-5.485-4.054-7.795a25.751 25.751 0 0 1 4.063 7.814c.514 1.063.99 2.146 1.391 3.269 9.09 25.469-14.605 57.918-54.538 78.11-9.355 6.359-19.583 12.317-30.469 17.644v-.016c10.871-5.317 21.087-11.263 30.432-17.609l-.156.081c.066-.035.13-.073.196-.109 8.698-5.91 16.645-12.166 23.595-18.613-6.938 6.437-14.869 12.684-23.549 18.587C257 98.644 279.56 71.615 279.742 48.418c-.233 1.697-.535 3.405-.975 5.132.441-1.733.743-3.446.975-5.148.028-3.868-.544-7.633-1.825-11.222-7.915-22.178-40.412-31.157-75.317-27.954 1.276.54 2.467 1.074 3.446 1.533 0 0 3.195-.281 8.138-.303 12.723-.165 23.927 1.392 32.965 4.818 5.084 1.873 9.771 4.413 13.426 7.917.022.006.037.037.069.062 2.653 2.397 4.84 5.143 6.535 8.264 3.143 5.393 5.031 12.018 3.804 19.514-.059.356-.131.746-.206 1.111-7.443 36.65-45.851 62.209-77.018 77.289-3.495-9.147-6.641-19.168-9.434-30.097-.109-.911.128-1.489.724-1.716 30.019-14.106 43.211-31.726 42.358-48.706-.384-7.565-2.347-14-6.129-19.467-9.016-12.736-25.079-18.625-48.14-17.667-3.115.069-6.657.35-10.646.827-24.375 2.993-44.724 9.69-61.019 20.082-15.46 9.84-24.393 19.664-30.699 34.806-1.078 2.624-1.826 7.699-1.826 7.699s5.306-13.263 21.206-11.653c0 0 4.193-8.339 9.993-13.588 12.145-11.01 29.811-20.285 49.789-23.668 15.257-2.484 26.593-.143 34.01 7.044 4.756 4.55 7.611 10.664 8.548 18.325.193 1.532.269 2.853.243 3.938-.315 12.642-6.304 23.496-17.948 32.55-4.998 3.72-10.829 6.925-17.492 9.603 2.078 16.275 4.862 30.98 8.079 43.653-8.22 2.993-13.408 4.488-13.408 4.488s-2.27 8.133-3.718 14.243c6.532-1.851 13.757-3.939 20.631-6.26 4.566 14.683 9.7 25.606 14.806 31.694 7.19 8.573 15.47 11.784 15.47 11.784 6.213 2.447 11.25 2.322 19.804 2.094 0 0 12.324-.325 21.212-6.329.29-.194 1.071-.733.999-1.289-.028-.306-.54-.637-1.51-.983-16.39-9.344-29.972-25.722-40.745-49.121 64.076-29.704 104.605-74.084 93.13-105.373ZM205.328 8.294h-.006s4.441-.38 11.158-.363c-6.711-.016-11.148.363-11.152.363ZM100.486 41.249c-11.939 9.796-16.51 18.012-16.51 18.012s4.596-11.155 19.347-21.369c14.751-10.214 32.19-14.553 32.19-14.553s-23.086 8.114-35.026 17.91Zm65.914 104.04a284.238 284.238 0 0 1-9.279 3.052 270.557 270.557 0 0 0 9.279-3.058v.006Zm-1.446-47.678a80.226 80.226 0 0 0 2.59-.72c29.41-8.74 50.324-33.166 44.522-53.744-5.291-18.763-31.267-27.729-57.79-22.656 28.478-7.443 55.536 2.182 61.167 22.155 5.802 20.578-13.336 44.344-42.745 53.084a79.773 79.773 0 0 1-7.743 1.882Zm12.782 38.576c-5.33-18.839-3.99-30.7-3.99-30.7s1.229 13.298 6.387 29.69l-2.396 1.01Zm43.138 55.623c-3.395-1.431-25.249-11.499-36.798-37.994a146.103 146.103 0 0 1-2.166-5.243l2.704-1.09c1.891 4.527 4.089 9.096 6.657 13.527 13.26 22.873 26.959 29.658 29.604 30.8Z"/>
  <path fill="url(#f)" d="M165.94 35.484c.505-.996-.07-1.23-1.72-.715-13.819 2.781-25.882 17.408-36.173 43.875-4.266 10.951-8.05 23.861-11.362 38.741-5.056 31.12-23.799 101.166-34.534 121.466-4.566 8.498-9.454 15.554-14.678 21.178 13.399-1.17 27.263-8.635 41.608-22.37 8.014-7.053 14.619-18.2 20.924-35.627 7.113-19.842 14.738-61.382 16.443-70.311l1.785-12.121c3.827-25.993 7.922-47.813 12.289-65.471 1.74-7.381 3.553-13.579 5.418-18.646Zm-35.728 105.683c-13.842 57.135-19.732 72.744-27.095 84.23l-7.363 11.486s17.965-35.636 26.8-75.689c8.835-40.053 18.701-77.088 21.573-88.133 2.871-11.044 6.7-14.946 6.7-14.946s-6.774 25.917-20.616 83.052Z"/>
</svg>
