<svg xmlns="http://www.w3.org/2000/svg" viewBox="0 0 95.95 81.98"><g data-name="Layer 2"><path d="M95 54.37l-8.21-4.9a1.9 1.9 0 0 0-1.93 0l-1 .57A45.8 45.8 0 0 1 77 53.22a18.25 18.25 0 0 0 .75-3.49c2.68-2.06 6.61-1.68 6.65-1.67a1.91 1.91 0 0 0 2.11-2 6.85 6.85 0 0 0-1.19-3.47 1.89 1.89 0 0 0 .66-.81 1.91 1.91 0 0 0-.25-1.91c-.22-.28-.45-.54-.68-.79a11.51 11.51 0 0 0 6.06-1.62 8.89 8.89 0 0 0 4.23-5.88 9.9 9.9 0 0 0-1.5-7.58l.76-.26a1.9 1.9 0 0 0 .8-3.07l-3.77-4.19a1.9 1.9 0 0 0-1.36-.63h-.83a43.66 43.66 0 0 1-5.75-.85c2.72-5 5-5.9 5.66-5.82A2.11 2.11 0 0 0 91 8.86a1.9 1.9 0 0 0 .76-1.52V3a1.9 1.9 0 0 0-1.23-1.8c-6.07-2.45-10.8-.71-13.44 1.29A9.13 9.13 0 0 0 73.74.66a14.87 14.87 0 0 0-10.36.62 1.9 1.9 0 0 0-1 1.68v4.37a1.9 1.9 0 0 0 1.78 1.9c1.52.1 2.53.47 2.83 1.06a1.77 1.77 0 0 1 .14.92 94.35 94.35 0 0 0-12.33-1.15 15.25 15.25 0 0 0-7.74-1.46 4.12 4.12 0 0 0-3.33-.51A4.47 4.47 0 0 0 41 9.7a2.59 2.59 0 0 0-.15.26c-.7.28-1.43.61-2.16 1a83.82 83.82 0 0 0-8.93 1.75 3.34 3.34 0 0 1-.21-2.38c.3-.58 1.31-1 2.83-1.06a1.9 1.9 0 0 0 1.78-1.9V3a1.9 1.9 0 0 0-1-1.68 14.87 14.87 0 0 0-10.4-.66 9.13 9.13 0 0 0-3.35 1.83C16.77.49 12-1.25 6 1.2A1.9 1.9 0 0 0 4.78 3v4.33a1.9 1.9 0 0 0 .76 1.52 2.3 2.3 0 0 0 1.6.32c.75-.09 3.28 1 6.23 6.91l1.25 2.44a37.76 37.76 0 0 0-7.74 5.63C2.44 28.45.06 33.43 0 38.57s2.2 10.18 6.55 14.57c7 7.08 19.08 12.17 33.06 14.22l6.94 13.58a1.9 1.9 0 0 0 3.39 0l6.46-12.61C69.79 68 80.91 65.15 92 59.26l3-1.58a1.9 1.9 0 0 0 0-3.31z" fill="#fff"/><path d="M55.5 27.24l.87.6a1.79 1.79 0 0 0 .79 2.68l-.58.24a7.55 7.55 0 0 1-3.47.64q-.62-.2-1.29-.37a1.52 1.52 0 0 1-.39-.34 3.29 3.29 0 0 1 1.2-5.06 23.12 23.12 0 0 1 2.87 1.61zm17.69-5.46zm.01.02z" fill="#fff"/><path d="M94 56l-8.21-4.9-1 .58a53.1 53.1 0 0 1-11.46 4.76A15.56 15.56 0 0 0 76 48.79c3.36-3.23 8.68-2.63 8.68-2.63-.1-2.55-2.76-4.52-2.76-4.52a9.69 9.69 0 0 1 2.38-.58 10.83 10.83 0 0 0-6.78-3.9 11.4 11.4 0 0 0-2.29-2.59 33 33 0 0 0-2.66-2l4.6-9c1.19.46 2.31.94 3.34 1.43a6.07 6.07 0 0 0-1.54 1.08 5.87 5.87 0 0 0-1.81 4.19 6.23 6.23 0 0 0 .84 3.25 7.35 7.35 0 0 0 4.53 3.33 9.8 9.8 0 0 0 7.6-1 7 7 0 0 0 3.36-4.61 8.31 8.31 0 0 0-3-8.11L94 21.95l-3.77-4.19h-.83a54.88 54.88 0 0 1-8.52-1.38l.57-1.11c4.51-9 8.4-7.9 8.4-7.9V3C81.39-.44 76.91 5.28 76.91 5.28c-2-3.9-9.44-4-12.65-2.31v4.36c5.6.36 5.06 4 4.26 6.05a91.83 91.83 0 0 0-14.25-1.44 13.67 13.67 0 0 0-8.17-1.37l-.05-.26c-.09-.41-1-.58-1.93-.37s-1.71.7-1.63 1.11l.06.29a24.21 24.21 0 0 0-3.27 1.41 81 81 0 0 0-10.57 2.15s-4.37-7 3.55-7.52V3C29 1.28 21.6 1.38 19.59 5.28c0 0-4.48-5.71-12.91-2.31v4.36s3.89-1.12 8.39 7.9l2.09 4.08a37.53 37.53 0 0 0-9 6.22C4.14 29.45 2 34 1.9 38.6s2 9.19 6 13.21c6.89 7 19 11.93 33 13.82l7.39 14.45 7-13.62c13.6-.19 24.76-3 35.85-8.87zM22 28.72l1.38 2.69a35.35 35.35 0 0 0-4.1 5.2s2.34.64 2.72.86a52.59 52.59 0 0 0-3.82 6.67 11.76 11.76 0 0 1-1.29-5.37c.01-3.58 1.8-7.03 5.11-10.05z" fill="#231f20"/><path d="M65.76 30.13A34.51 34.51 0 0 1 72.34 34a12.68 12.68 0 0 0-5.45.46l-3.08-4a8.13 8.13 0 0 0 1.95-.33z" fill="#cfab7a"/><path d="M30.26 17.07a23.13 23.13 0 0 1 2.35 1.09 12 12 0 0 1 2.65-2.82q-2.93.56-5.66 1.3l.14.26a3.7 3.7 0 0 1 .52.17zM66 18.47l1.68-3.29A89.54 89.54 0 0 0 57.05 14a14.5 14.5 0 0 1 2.7 3.57c2.11.19 4.19.51 6.25.9zm20.19 4.15l4.44-1.53-1.31-1.45A58.57 58.57 0 0 1 80 18.09l-2 3.82a42.93 42.93 0 0 1 6.72 3.26c3.28 2 2.28 3.92 2.28 3.92a4.11 4.11 0 0 0-8 1.24 4.44 4.44 0 0 0 .66 2.25A5.43 5.43 0 0 0 83.07 35c3.8 1.05 7.91-.88 8.55-4.13.68-3.52-1.35-6.38-5.43-8.25zm-14.63 36.3a22.86 22.86 0 0 1-8.91 4.65 7.61 7.61 0 0 0-.65-2.85 68.42 68.42 0 0 1-9 .51C31.83 61 14.79 50.92 14.93 38.75c.05-4.36 2.3-8.4 6.15-11.78l-3-6C9.33 25.49 3.91 31.7 3.83 38.62c-.16 14 21.56 25.62 48.53 25.94 14.13.16 25.9-2.31 37.8-8.65l-4.34-2.59a57.26 57.26 0 0 1-14.26 5.6z" fill="#b0b7bc"/><path d="M64.58 29c-1.07.17-3.5.36-8.3-2.76-1.47-1-5.09-3.71-9.15-2.86-.95.2-3 1.46-2.91 3.15a3.58 3.58 0 0 1 2.24-1.91 7.46 7.46 0 0 1 4.31.27c-.83.66-2.61 2.57-.86 5.69a21.88 21.88 0 0 0-16.37 3 24.34 24.34 0 0 1 4.83 2 12.87 12.87 0 0 0-6 3.71 24.49 24.49 0 0 1 6.08 1.44 4.71 4.71 0 0 0-3.29 3.63c-.54 7.79 10.08 10.15 18.82 11.2 3.56.43 5.67 1.83 6.91 3.34a65.77 65.77 0 0 1-7.84.41C39.92 59.18 27.79 55 21.37 48.56a18.41 18.41 0 0 1-2.19-2.66A46.75 46.75 0 0 1 24.4 37a13.76 13.76 0 0 0-2.87-1.08s1.8-3.5 7.13-7.47a7.8 7.8 0 0 0 7.19.22S31.72 29.93 29 27.3c-.53-.52-4.45-4.75.05-8.79a1 1 0 0 1 1.13-.14A36.27 36.27 0 0 1 40 24.13a15.66 15.66 0 0 0-1.06-1.21 60 60 0 0 1 6.7-1.75 12.75 12.75 0 0 1 8.13 1.91 12.71 12.71 0 0 0 6.14 1.73 10.72 10.72 0 0 1 3.27 2.34 9.27 9.27 0 0 0-1.93-2.43 10.67 10.67 0 0 0 2-.48c1.34.08 3.35.52 3.76 2.43.07.59-.56 2.03-2.43 2.33z" fill="#cfab7a"/><path d="M77.15 39.67a4.21 4.21 0 0 1-2.1 4.91 4.56 4.56 0 0 1-5-.22 7.45 7.45 0 0 0 1.34-6 4.69 4.69 0 0 0 3.7-2.25 7.83 7.83 0 0 1 2.06 3.56z" fill="#fff"/><path d="M49.54 20.11a63.36 63.36 0 0 1 18.85.57 11 11 0 0 0-3.49 1.57c-2.75 1.67-7.44 1.3-9.4.19a19.69 19.69 0 0 0-5.96-2.33z" fill="#e31837"/><path d="M68.44 26.81a7.42 7.42 0 0 0 2.91-1.32l1.46.17a6.13 6.13 0 0 1-3.14 5.26 22.89 22.89 0 0 0-2.88-1.26 3.1 3.1 0 0 0 1.65-2.85z" fill="#cfab7a"/><path d="M52.65 25.63a23.31 23.31 0 0 1 2.86 1.6l.87.6a1.79 1.79 0 0 0 .79 2.68l-.59.25a7.55 7.55 0 0 1-3.47.64q-.62-.2-1.29-.37a1.5 1.5 0 0 1-.39-.34 3.29 3.29 0 0 1 1.22-5.06zM76 47.13a14.57 14.57 0 0 0-.13-1.61 5.38 5.38 0 0 0 2.65-5.64 5.74 5.74 0 0 0-.28-1.16c3 .44 3.83 1.71 3.83 1.71a7 7 0 0 0-2.26 1.14c3.26 1.88 3.54 3.51 3.54 3.51A11.84 11.84 0 0 0 76 47.13z" fill="#fff"/><path d="M30 25.4s-2.26-1.72 0-4.31a17.88 17.88 0 0 1 5 3.19 21.82 21.82 0 0 0-4.66-1.6s-1.12.78-.34 2.72z" fill="#231f20"/><path d="M74 46.21a6 6 0 0 1-4.56-1c-2.12 2.54-6.9 3.1-8.12 3-10.46-.48-11.87-6.58-12.09-7.63A4.77 4.77 0 0 1 50.58 36a4.15 4.15 0 0 0-1-.15 6.54 6.54 0 0 0-3.54 1 5 5 0 0 1 5.46-1.73 3.53 3.53 0 0 1 2.5 2.75l-1.52.64a2.54 2.54 0 0 0-1.21-2.19c-1.27.82-1.38 2.68-1.18 3.58 1.68 7.91 11.87 7.16 14 6.68 5.36-1.22 6.11-5.76 5.83-7.09a5.64 5.64 0 0 0-3.25-3.87c-.64-.14-.72-.56-.72-.56L63 30.43a9.29 9.29 0 0 1-1.15-.14c-4 2-6 2-6.64 1.9 5.08 2.24 6.46 5.42 6.46 5.42a19.64 19.64 0 0 0-10.41-5.67 23.23 23.23 0 0 0-14.67 1.24 30.13 30.13 0 0 1 5.79 3.4c-5.36.2-7 1.7-7 1.7a22.6 22.6 0 0 1 5.93 3s-4.08.2-4.11 4c0 1 .43 6.21 14.61 8.22 3 .42 10.48.83 12.1 8.15.09.05 10.54-2.3 10.09-15.44z" fill="#fff"/><ellipse cx="75.21" cy="41.52" rx=".81" ry=".56" transform="rotate(-70.09 75.214 41.522)" fill="#231f20"/><circle cx="64.26" cy="40.31" r=".81" transform="rotate(-11.96 64.252 40.317)" fill="#231f20"/><circle cx="60.69" cy="43.57" r=".71" transform="rotate(-11.5 60.157 42.348)" fill="#231f20"/><circle cx="57.98" cy="39.81" r=".71" transform="rotate(-11.96 57.984 39.805)" fill="#231f20"/><path d="M40.33 33.46a28.43 28.43 0 0 1 7.31-.81 25.12 25.12 0 0 0-5 2.17 14.76 14.76 0 0 0-2.31-1.36zm-1.51 4.77a26 26 0 0 1 5.34-.49 12.17 12.17 0 0 0-3 1.73 8.71 8.71 0 0 0-2.34-1.24z" fill="#b0b7bc"/><path d="M26.18 34.31a17.52 17.52 0 0 1 3.09-4 39 39 0 0 0-4.92 4.87 18.09 18.09 0 0 1 3.09.9 58 58 0 0 0-5.74 10c.32.39.66.77 1 1.14s.48.47.73.7c.61-2.22 2.66-8.75 6.33-12.22z" fill="#231f20"/><circle cx="57.87" cy="29.09" r=".41" transform="rotate(-11.94 57.859 29.107)" fill="#fff"/><ellipse cx="71.27" cy="35.32" rx=".42" ry="2.21" transform="rotate(-88.36 71.268 35.322)" fill="#fff"/><path d="M59.23 70.91h-.88v2.4h-.6v-2.4h-.88v-.52h2.36zm4 2.4h-.6V71l-.85 2.32h-.58L60.38 71v2.32h-.6v-2.94h1l.68 1.91.71-1.91h1z" fill="#231f20"/></g></svg>