<svg xmlns="http://www.w3.org/2000/svg" viewBox="0 0 75.3 72"><path d="M65.9 29.8l-.3-.2c-.3-3.8-1.4-7.4-3.1-10.8l1.1-1.7 2.6-4.2c.8-1.1 1.2-2.5 1.2-3.8 0-1.3-.4-2.5-1.1-3.6l-.4-.5-2.4-2.7c-1.5-1.7-3.8-2.5-6-2l-7 1.5c-1.9.5-3.5 1.6-4.7 3.1-9.2-2.9-19.3-1-26.8 5.2l-1-.2c-3.6-.5-14.5-2.2-17.5 5-2.8 6.8 5 13 8.3 15.5V32c0 7.3 2.8 14.4 7.9 19.6L15.8 62c-.2 1.9.4 3.9 1.8 5.3v-.1L20 70l.5.5c1.5 1.3 3.6 1.9 5.5 1.5l.5-.1c2.2-.6 4.1-2 5.3-4l4.7-7.5h.8c5.4 0 10.8-1.6 15.3-4.5 4.6.9 9.3-.9 12-4.7 4.1-.2 8.4-1.4 10.1-5.5.4-.9.6-2 .6-3 0-6-6.9-11.1-9.4-12.9" fill="#b0b7bc"/><path d="M67.5 40.7c-.1.2-.3.3-.5.3-.7.2-1.4.3-2.1.3h-1.2c-.3-1.1-.9-2.2-1.6-3.1.2-.9.4-1.9.5-2.8 3.7 2.6 5.2 4.5 4.9 5.3m-57-22c-.5-.5-1-1.1-1.3-1.7-.1-.2-.1-.4-.1-.6.3-.8 3-1 7.8-.2-1.2 1.6-2.3 3.4-3.1 5.2-1.2-.7-2.3-1.7-3.3-2.7m58.9 17.7c-1.6-1.6-3.3-3.1-5.1-4.4L63 31c-.1-4.4-1.4-8.6-3.6-12.4l1.9-3.1 2.6-4.2c1-1.3 1-3.1.1-4.4-.1-.1-.1-.2-.2-.3l-2.4-2.7c-.8-.9-2.1-1.4-3.3-1.1l-7 1.5c-1.5.4-2.7 1.4-3.5 2.7l-.7 1c-9.2-3.7-19.8-1.8-27.1 5-.8-.1-1.5-.3-2.2-.4-2.2-.4-4.5-.5-6.7-.5-4.2.1-6.8 1.4-7.7 3.8-1.4 3.5 1.1 7.6 7.9 12.6l.7.5c-.1 1-.2 1.9-.2 2.9 0 7 2.9 13.8 8 18.6l-1 11.7c-.1 1.2.2 2.3 1 3.2L22 68l.3.3c.9.8 2 1.1 3.2.8l.5-.1c1.5-.5 2.7-1.5 3.5-2.8l5.5-8.8c.8.1 1.5.1 2.3.1 5.3 0 10.5-1.6 14.8-4.7 4.3 1.4 8.9-.5 11-4.5 5 .1 8-1.2 9.1-3.8 1-2.4 0-5.1-2.8-8.1" fill="#231f20"/><path d="M61.5 44c0 3.6-2.9 6.5-6.5 6.5s-6.5-2.9-6.5-6.5 2.9-6.5 6.5-6.5 6.5 2.9 6.5 6.5" fill="#b0b7bc"/><path d="M30.9 33.6c-6.1-2.7-12-6-17.5-9.9C8.3 20 5.7 16.8 6 14.6c-.1.2-.3.4-.3.6-.9 2.2 1.6 5.7 7.2 9.8 5.4 3.8 11.2 7.1 17.3 9.8l.7-1.2m33.2 9.6v1.3c3.6 0 5.8-.8 6.5-2.3.1-.2.1-.4.2-.7-1 1.2-3.3 1.8-6.7 1.7" fill="#fff"/><path d="M55.4 24.8l-8 12.7.6.2c1.8-1.9 4.3-3.1 6.9-3h.5c.8-3.2.8-6.6 0-9.9m-40.3 6.4c.3 4.6 2.1 8.9 5.1 12.3l.8-8.8c-2.1-1.2-4.1-2.4-5.9-3.5M39.7 50c2.3-.5 4.6-1.4 6.6-2.6-.3-.8-.5-1.5-.6-2.3l-2.4-.8-3.6 5.7m-18-23.5l.8-9c.1-1.9 1.5-3.5 3.4-4l6-1.3c1.4-.3 2.7.2 3.6 1.3l2.4 2.7c.6.7.9 1.6.9 2.6v.4c0 .1-.1.9-.2 2.4l6.2-9.9c-10.1-5.1-22.4-1-27.5 9.1-.4.8-.8 1.6-1 2.5 1.5.9 3.3 2 5.4 3.2" fill="#7ac143"/><path d="M31.8 31.5l1.4-15.3c0-.6-.3-.9-.6-.9l-6 1.3c-.5.2-.8.6-.8 1.1l-.9 10.4c2 1.1 4.4 2.2 6.9 3.4" fill="#ee3524"/><path d="M58.8 6l-7 1.5c-.6.3-1.1.7-1.4 1.3l-2.7 4.4-16.6 26.1-.1.2c-2.4-1-4.7-2.1-7-3.3l-1.6 18.5-.7 7.6c0 .6.3 1 .6.9l.5-.1c.6-.3 1.1-.8 1.5-1.3l3.9-6.2L58.8 7c.4-.7.3-1 0-1" fill="#ee3524"/><path d="M54.9 37.4c-3.6 0-6.5 2.9-6.5 6.6 0 3.6 2.9 6.5 6.6 6.5 3.6 0 6.5-2.9 6.5-6.5s-3-6.5-6.6-6.6c0 .1 0 .1 0 0" fill="#b0b7bc"/><path d="M48.9 43c0-3.1 2.5-5.5 5.5-5.5 3.1 0 5.5 2.5 5.5 5.5 0 3.1-2.5 5.5-5.5 5.5s-5.5-2.4-5.5-5.5" fill="#fff"/><path d="M60.8 46.9c0-.1-.2-.3-.2-.3s-.1-.1-.1 0c-.2.2-.3.4-.5.6-.1-.2-.2-.3-.3-.4v-.2c.2-.2.3-.4.4-.7v-.2c0-.1-.2-.2-.2-.3s-.1-.1-.1 0c-.1.2-.3.5-.4.7l-.4-.3v-.2c.1-.2.2-.5.3-.7v-.2l-.3-.3s-.1-.1-.1.1c-.1.3-.2.5-.3.8l-.3-.3c-.1-.1-.1-.2 0-.2.1-.2.2-.5.2-.8 0-.1 0-.1-.1-.1l-.4-.3s-.1 0-.1.1c-.1.3-.1.5-.2.8l-.4-.3V44c.1-.3.1-.5.1-.8 0-.1 0-.1-.1-.1l-.4-.1s-.1 0-.1.1c0 .3-.1.5-.2.8l-.4-.2c-.1 0-.1-.1-.1-.2.1-.3.1-.5 0-.8l-.1-.1-.3-.1s-.1 0-.1.1v.8l-.5-.1c-.1 0-.1-.1-.1-.2 0-.3 0-.5-.1-.8l-.1-.1h-.3s-.1 0-.1.1c0 .3.1.5.1.8L54 43c-.1 0-.1-.1-.1-.2 0-.3-.1-.5-.2-.7l-.1-.1h-.3s-.1 0-.1.2c.1.3.1.5.2.8h-.5c-.1 0-.1-.1-.2-.2 0-.2-.2-.5-.3-.7 0 0-.1-.1-.1 0H52s-.1 0 0 .2.2.5.3.8l-.5.1c-.1 0-.2 0-.2-.1-.1-.2-.2-.4-.4-.6H51l-.3.1s-.1.1 0 .2c.1.2.3.5.3.7l-.5.2c-.1 0-.2 0-.2-.1-.1-.2-.3-.4-.5-.6h-.3s-.1.1 0 .2c.2.2.3.4.4.6l-.4.2c-.1 0-.1 0-.2-.1-.1-.2-.3-.4-.5-.5h-.3v.4c0 .1.3.3.3.4l-.3.2c0 .4.1.8.2 1.2l.3-.2.1-.1c0-.2 0-.5-.1-.7 0 0-.1-.2.1-.3l.3-.2c.1.3.1.5.1.8 0 .1.1.1.1.1h.4l.1-.1c.1-.2.1-.5 0-.7 0-.1 0-.2.2-.3l.3-.2v.8c0 .1 0 .1.1.1l.3-.1.1-.1c.1-.2.1-.4.1-.7 0-.1 0-.2.2-.2l.4-.1c0 .3 0 .5-.1.8 0 .1 0 .1.1.1l.3-.1c.1 0 .1-.1.1-.1.1-.2.2-.4.2-.7 0-.1 0-.2.2-.2h.4c0 .3-.1.5-.2.8 0 .1 0 .2.1.2h.1c.1 0 .1 0 .1-.1.1-.2.2-.4.2-.6 0-.1 0-.2.2-.2h.5c-.1.3-.2.5-.3.7-.1.1 0 .2 0 .2h.4c.2-.2.3-.4.3-.6 0 0 0-.2.2-.2l.3.1c-.1.2-.2.5-.4.7-.1.1 0 .2 0 .2l.3.1h.2c.2-.1.3-.3.4-.5 0 0 .1-.2.3-.1l.3.1c-.1.2-.3.4-.5.6-.1.1 0 .1 0 .2l.3.1h.2c.2-.1.3-.3.5-.5 0 0 .1-.2.3-.1l.3.2c-.2.2-.3.4-.5.5-.1.1-.1.1 0 .2l.3.2h.2c.2-.1.4-.2.5-.4 0 0 .1-.1.3 0l.3.2c-.2.2-.4.3-.6.5-.1.1-.1.1 0 .2l.2.2h.1l.6-.3s.1-.1.3 0l.2.3c-.2.1-.4.3-.7.4-.1 0-.1.1-.1.2s.2.2.2.3l.1.1c.2 0 .4-.1.6-.2 0 0 .1-.1.3.1l.2.3c-.2.1-.4.2-.7.3-.1 0-.1.1-.1.1s.1.2.2.3l.1.1c.2 0 .4-.1.6-.2 0 0 .1-.1.3.1s.1.2.2.3c-.2.1-.5.1-.7.2-.1 0-.1.1-.1.1s.1.2.1.3l.1.1h.1c.5-.5.9-1.1 1.3-1.8l-.2-.3zm-1-6.7c.1.2.2.3.4.5h.1l.2-.1c-.2-.3-.4-.5-.6-.8l-.3.1v-.4l-.2-.2h-.1s-.1 0-.1.1c-.1.2-.1.3-.1.5 0 0 0 .1-.2.2h-.3c0-.2.1-.4.1-.6 0-.1 0-.1-.1-.1h-.3s-.1 0-.1.1c-.1.1-.2.3-.2.5 0 0 0 .1-.2.1h-.3c0-.2.1-.4.2-.5v-.1h-.4c-.1.1-.2.3-.2.4 0 0 0 .1-.2.1h-.3c.1-.2.2-.3.3-.5.1-.1 0-.1 0-.1l-.3-.1h-.1c-.1.1-.2.2-.3.4 0 0 0 .1-.2.1l-.3-.1c.1-.2.2-.3.4-.5.1-.1 0-.1 0-.1h-.4c-.2.1-.3.2-.4.4 0 0-.1.1-.2.1l-.3-.1c.1-.2.3-.3.4-.4.1-.1 0-.1 0-.1l-.2-.1h-.1c-.2.1-.3.2-.4.3 0 0-.1.1-.2 0L54 39c.1-.1.3-.2.5-.3.1 0 0-.1 0-.1l-.2-.2h-.1c-.2 0-.3.1-.5.2 0 0-.1.1-.2 0l-.5-.4c.2-.1.3-.2.5-.3.1 0 .1-.1 0-.1l-.2-.2h-.1c-.5.1-1 .3-1.5.5v.2l.2.2h.1c.1-.2.2-.4.3-.5l.3.3v.2c-.1.2-.2.3-.2.5 0 0 0 .1.1.1l.2.2h.1c.1-.2.1-.4.2-.5l.3.2v.2c-.1.2-.1.4-.1.5 0 0 0 .1.1.1l.2.1s.1 0 .1-.1c0-.2.1-.4.1-.6l.4.2c.1 0 .1.1.1.2v.6s0 .1.1.1l.3.1s.1 0 .1-.1v-.6l.4.1c.1 0 .1.1.1.2 0 .2 0 .4.1.6l.1.1.3.1s.1 0 .1-.1v-.6l.4.1c.1 0 .1.1.1.1 0 .2.1.4.2.5l.1.1h.4s.1 0 .1-.1c-.1-.2-.1-.4-.1-.6h.4c.1 0 .1.1.1.1 0 .2.1.4.2.5h.4s.1 0 0-.1c-.1-.2-.2-.4-.2-.6h.4c.1 0 .1 0 .1.1.1.2.2.4.3.5h.4s.1 0 0-.1c-.1-.2-.2-.4-.3-.5l.4-.1c.1 0 .1 0 .2.1" fill="#ee3524"/><path fill="#231f20" d="M69.3 54.1l-.6-1.5h-.8V55h.5v-2l.6 2h.5l.7-2v2h.5v-2.4h-.8zM65.5 53h.7v2h.5v-2h.7v-.4h-1.9z"/></svg>