<svg xmlns="http://www.w3.org/2000/svg" viewBox="0 0 76.543 102.011"><g data-name="Layer 2"><g data-name="Layer 1"><path d="M41.817 102.011H70.89a16.162 16.162 0 0 1-6.12-8.677l-8.126-27.885c-.88-3 .549-6.008 2.835-8.035-3.243-.997-6.122-3.244-7.024-6.354l-4.55-15.612c6.47-2.164 10.688-5.999 10.688-10.455 0-5.816-7.196-10.577-17.218-11.943L37.568 0H33.31l-3.807 13.055c-10.023 1.362-17.229 6.122-17.229 11.938 0 4.456 4.228 8.29 10.703 10.455l-4.55 15.612c-.9 3.11-3.784 5.357-7.027 6.354 2.28 2.027 3.718 5.035 2.843 8.035l-8.13 27.885A16.3 16.3 0 0 1 0 102.01h29.077a7.844 7.844 0 0 1-2.612-8.677l.714-2.426h16.532l.708 2.426a7.863 7.863 0 0 1-2.602 8.677zM32.94 71.152l2.508-8.625 2.505 8.625z" fill="#fff"/><path d="M65.997 100.03a18.871 18.871 0 0 1-3.137-6.132l-8.075-27.705a9.322 9.322 0 0 1 1.4-8.015 11.143 11.143 0 0 1-5.64-6.57L45.63 34.752c6.929-1.844 11.65-5.518 11.65-9.758 0-5.358-7.588-9.834-17.644-10.825L36.09 1.986h-1.288l-3.549 12.182c-10.056.986-17.655 5.463-17.655 10.825 0 4.24 4.727 7.914 11.657 9.758L20.339 51.61a11.19 11.19 0 0 1-5.645 6.57 9.279 9.279 0 0 1 1.4 8.014l-8.07 27.705a18.775 18.775 0 0 1-3.143 6.132h20.13c-1.623-3.585-.77-6.198-.04-8.657l.714-2.455h19.514l.72 2.455c.714 2.46 1.57 5.072-.051 8.657zM30.273 73.142l5.175-17.721 5.157 17.72z" fill="#003263"/><path d="M40.794 29.333h.004l-2.594-8.9.51 1.772a61.177 61.177 0 0 0-3.266-.1v5.777l15.507 53.153 3.56 12.197 6.13 3.665a20.553 20.553 0 0 1-1.101-2.865l-7.72-26.414a11.14 11.14 0 0 1 .333-8.4 12.836 12.836 0 0 1-4.612-6.706l-5.86-20.119a.027.027 0 0 1-.011.005zm-3.532-12.149l-1.814-6.221v6.183c.613 0 1.217.016 1.814.038zm-20.986 76.37l4.953 3.343a13.327 13.327 0 0 1 .46-5.414l1.644-5.69-3.404-4.758z" fill="#ba0021"/><path fill="#ba0021" d="M26.1 76.266l9.348-32.007V27.882L19.929 81.035h31.026l-6.187-4.769H26.1z"/><path fill="#862633" d="M35.448 44.259l9.32 32.007 6.187 4.769-15.507-53.153v16.377z"/><path d="M60.646 96.897l-6.132-3.665-3.56-12.197H19.93l15.519-53.153v-5.777c1.112 0 2.208.043 3.265.1l-.51-1.772a51.596 51.596 0 0 0-2.756-.083c-.946 0-1.87.033-2.766.083l-2.592 8.9h.001l-.886 3.065c-.004 0-.005 0-.006-.004l-5.865 20.118a12.81 12.81 0 0 1-4.606 6.705 11.168 11.168 0 0 1 .333 8.401l-7.725 26.414a18.7 18.7 0 0 1-1.109 2.865H21.23l-4.953-3.343 3.653-12.519 3.404 4.759h24.212l1.667 5.689a14.1 14.1 0 0 1 .442 5.414zM35.448 10.963l-1.815 6.221a47.572 47.572 0 0 1 1.815-.038z" fill="#862633"/><path d="M30.09 29.333c-5.618-.67-9.608-2.369-9.608-4.34 0-2.269 5.253-4.157 12.199-4.56.897-.05 1.82-.083 2.767-.083.797 0 1.577.027 2.34.062.14.005.278.01.416.02 6.945.4 12.204 2.288 12.204 4.561 0 1.971-3.996 3.67-9.61 4.34h-.004l.88 3.065a.027.027 0 0 0 .012-.005c7.237-1.084 12.424-3.974 12.424-7.4 0-4.072-7.395-7.426-16.848-7.808a47.54 47.54 0 0 0-1.814-.04c-.614 0-1.218.017-1.815.04-9.471.382-16.853 3.736-16.853 7.808 0 3.426 5.179 6.316 12.418 7.4 0 .005.002.005.006.005z" fill="#c4ced4"/><path fill="#003263" d="M69.252 97.278h1.012v2.752h.687v-2.752h1.009v-.596h-2.708v.596zm5.302 1.59h-.018l-.78-2.186H72.57v3.348h.687v-2.667h.018l.936 2.667h.66l.968-2.667h.018v2.667h.686v-3.348h-1.179l-.81 2.186z"/></g></g></svg>