<svg xmlns="http://www.w3.org/2000/svg" viewBox="0 0 148.958 128.402"><g data-name="Layer 2"><g data-name="Layer 1"><path fill="#134a8e" d="M120.036 78.108h.906v2.465h.608v-2.465h.906v-.538h-2.42v.538zm4.741 1.426h-.014l-.697-1.964h-1.062v3.003h.61v-2.381h.015l.842 2.381h.592l.864-2.381h.017v2.381h.614V77.57h-1.056l-.725 1.964zM45.41 46.227a5.851 5.851 0 0 1 .245-4.407 5.996 5.996 0 0 1 2.375-2.334c8.177-5.487 25.508.136 25.508.136a46.64 46.64 0 0 0-10.344.077c4.837 1.505 10.005 3.54 13.508 4.39a57.72 57.72 0 0 0 11.459 1.839l-.139-1.688 2.385.409 6.349 1.084.938-2.378 1.033-2.62 2.018 1.965c.044.037 3.162 3.078 4.81 4.673a12810.08 12810.08 0 0 1-1.036-10.704l-.296-3.073 2.864 1.157 3.124 1.26 4.694-7.672 1.597-2.612 1.6 2.612 3.787 6.19c1.32-5.373 2.268-11.067 5.034-13.705-2.773.103-4.724.885-7.75 3.004 1.718-4.64 4.253-8.085 7.683-12.023a27.266 27.266 0 0 0-9.634 3.244 20.319 20.319 0 0 0 1.272-6.351c-14.627 16.978-55.421 16.763-65.987 20.228a23.195 23.195 0 0 0-12.95 9.778c-.24 3.845 2.56 7.521 5.852 7.521z"/><path fill="#1d2d5c" d="M104.422 70.567l-2.73 3.283 2.73-3.282v-.001z"/><path d="M97.403 76.084l2.852-3.43 1.546-1.87-5.981-5.159c-3.251 4.966-6.42 10.355-7.932 14.516l6.582-.029c-3.383 4.19-9.9 11.116-14.285 18.789-4.384-10.763-14.65-24.614-33.193-32.225-5.371-2.204-10.441-5.127-9.785-9.38a281.195 281.195 0 0 0-30.964-2.775c-.876-.015-1.692-.03-2.42-.038-.671-.005-.844.263-.116.839 3.161 2.29 13.874 6.434 27.017 8.883 6.321 1.179 9.212 2.907 13.75 6.079 9.877 6.91 23.342 25.427 31.553 49.53 15.566-30.23 33.64-43.803 35.072-44.849l-9.254.756zM3.407 53.728c6.595-.28 15.85-.606 32.014-.063 1.368.021 2.713.046 4.02.074.814-1.08 2.299-2.039 5.123-2.039h.833c5.252.073 6.225 5.463 11.804 5.463 5.556 0 6.542-5.348 11.75-5.457.142 0 .297-.003.434-.006h19.25l-.262-3.195H69.1c-5.345 0-6.292-5.468-11.906-5.468-5.531 0-6.524 5.401-11.67 5.444-5.57-.33-7.772-4.996-8.209-8.948-2.438 1.033-3.686 2.243-5.516 5.137C11.898 47.963 5.087 51.146 3.3 53.124c-.265.359-.148.524.107.604zm51.656-8.207a9.276 9.276 0 0 0-.08 3.624l-1.871-.001a4.414 4.414 0 0 1 1.95-3.623z" fill="#1d2d5c"/><path d="M55.063 45.52a4.414 4.414 0 0 0-1.951 3.624l1.87.001a9.276 9.276 0 0 1 .08-3.624z" fill="#fff"/><path d="M148.958 55.469l-3.083-1.06-1.682-.58.595-7.176.195-2.413-2.385.409-6.354 1.084-.933-2.378-1.034-2.62-2.02 1.965c-.04.037-3.16 3.078-4.809 4.673a5612.83 5612.83 0 0 0 1.038-10.704l.296-3.073-2.86 1.157-1.293.521q.193-.918.374-1.819c.758-3.78 2.662-10.414 6.258-15.47a12.432 12.432 0 0 0-5.821.468c-.995.285-.076.02-.11.03 1.17-2.787 6.377-9.932 6.377-9.932s-7.374-.133-10.155 1.55A18.218 18.218 0 0 0 121.834 0l-5.727 6.647c-9.88 11.474-33.965 14.643-49.9 16.743-6.445.848-11.54 1.517-14.678 2.549a26.348 26.348 0 0 0-13.926 10.056l-1.515.641a13.133 13.133 0 0 0-6.161 5.157C13.53 44.583 4.05 47.603.966 51.013l-.206.252a3.61 3.61 0 0 0-.65 3.072 3.725 3.725 0 0 0 1.645 3.45l.108.083c3.744 2.717 14.93 6.94 28.283 9.431 5.996 1.115 8.57 2.006 12.391 5.466 18.997 17.197 28.33 43.036 32.561 55.635l4.752-8.747c15.875-27.86 31.427-40.743 31.61-40.912l3.291-2.998.09.172 1.66 3.202 1.663-3.206.626-1.202 12.368 1.01 4.444.364-2.85-3.432-1.549-1.87 15.284-13.182zm-96.45-26.54c10.565-3.466 51.36-3.25 65.986-20.229a20.319 20.319 0 0 1-1.272 6.351 27.266 27.266 0 0 1 9.634-3.244c-3.43 3.938-5.965 7.382-7.684 12.023 3.027-2.12 4.978-2.901 7.751-3.004-2.766 2.638-3.714 8.332-5.034 13.705l-3.788-6.19-1.6-2.612-1.596 2.612-4.694 7.673-3.124-1.261-2.864-1.157.296 3.073c.007.09.744 7.707 1.036 10.704-1.648-1.595-4.766-4.636-4.81-4.673l-2.018-1.966-1.033 2.621-.938 2.378-6.35-1.084-2.384-.409.139 1.688a57.72 57.72 0 0 1-11.459-1.84c-3.503-.85-8.671-2.884-13.508-4.39a46.64 46.64 0 0 1 10.344-.076S56.208 34 48.03 39.486a5.996 5.996 0 0 0-2.375 2.334 5.851 5.851 0 0 0-.246 4.407c-3.291 0-6.092-3.676-5.851-7.52a23.195 23.195 0 0 1 12.95-9.779zM3.3 53.123c1.787-1.978 8.598-5.161 28.498-8.454 1.831-2.894 3.08-4.104 5.517-5.137.437 3.952 2.64 8.618 8.208 8.948 5.147-.043 6.14-5.444 11.67-5.444 5.615 0 6.562 5.468 11.907 5.468h19.273l.262 3.195h-19.25a30.29 30.29 0 0 1-.435.006c-5.207.11-6.193 5.457-11.75 5.457-5.578 0-6.551-5.39-11.803-5.463h-.833c-2.824 0-4.309.959-5.122 2.039a678.77 678.77 0 0 0-4.02-.074c-16.165-.543-25.42-.216-32.015.063-.255-.08-.372-.245-.107-.604zm72.727 66.69c-8.211-24.103-21.676-42.62-31.554-49.53-4.537-3.172-7.428-4.9-13.749-6.08-13.143-2.448-23.856-6.591-27.017-8.882-.728-.576-.555-.844.115-.839.729.008 1.545.023 2.42.038a281.195 281.195 0 0 1 30.965 2.776c-.656 4.252 4.414 7.175 9.785 9.38 18.542 7.61 28.809 21.46 33.193 32.224 4.385-7.673 10.902-14.6 14.285-18.789l-6.582.03c1.511-4.162 4.68-9.55 7.932-14.517l5.981 5.159-1.546 1.87-2.852 3.43 4.442-.363 9.254-.756c-1.431 1.046-19.506 14.619-35.072 44.85zm52.558-49.247l2.725 3.283-13.608-1.107-.58 1.114-.618 1.19-.002.003-.316-.61-.153-.292-.73-1.405-7.28.593-.01-.002-5.359.438-.962.078 2.73-3.283-16.68-14.387 3.056-1.05-.707-8.635 7.853 1.345 1.497-3.796s5.061 4.926 5.736 5.57a2.068 2.068 0 0 0 1.337.653c.656 0 1.141-.596 1.01-2.032-.012-.128-.033-.333-.058-.604-.255-2.61-1.08-11.115-1.081-11.14v-.003l4.598 1.855 5.519-9.023.002.003 5.52 9.02 2.106-.848 2.49-1.007v.003c-.002.025-.824 8.53-1.079 11.14-.027.27-.046.476-.06.604-.131 1.436.356 2.032 1.012 2.032a2.082 2.082 0 0 0 1.337-.652c.671-.645 5.736-5.57 5.736-5.57l1.497 3.794 7.853-1.344-.711 8.634 3.057 1.051z" fill="#fff"/><path d="M142.916 46.495l-7.853 1.345-1.497-3.796s-5.065 4.926-5.736 5.57a2.082 2.082 0 0 1-1.337.653c-.656 0-1.143-.596-1.012-2.032.014-.128.033-.333.06-.604.255-2.61 1.077-11.115 1.08-11.14v-.003l-2.491 1.007-2.106.848-5.52-9.02-.002-.003-5.519 9.023-4.598-1.855v.003c.002.025.826 8.53 1.081 11.14l.058.604c.131 1.436-.354 2.032-1.01 2.032a2.068 2.068 0 0 1-1.337-.652c-.675-.645-5.736-5.57-5.736-5.57l-1.497 3.795-7.853-1.345.707 8.634-3.056 1.051 16.68 14.387v.001l-2.73 3.282.962-.078 5.36-.437 7.289-.596.73 1.409.153.291.318.609.618-1.191.58-1.118 13.608 1.11-2.725-3.281v-.001l16.677-14.387-3.057-1.05z" fill="#e8291c"/></g></g></svg>