<svg xmlns="http://www.w3.org/2000/svg" viewBox="0 0 89.904 83.913"><g data-name="Layer 2"><g data-name="Layer 1" fill="#ce1141"><path d="M57.95 56.498c-8.453 1.56-13.084 1.473-20.251 3.468-6.15 12.756-12.726 23.817-22.13 23.945C3.154 84.082-1.39 74.123.36 68.189c1.287-4.38 2.447-4.252 2.447-1.803 0 1.312 3.485 8.934 12.24 8.505 4.385-.216 7.978-4.491 11.695-10.943-2.297.974-4.827 2.1-7.696 3.467-2.035.971-2.191.643-1.805-1.03.285-1.232 3.275-8.474 14.695-12.347 8.603-17.223 19.77-40.697 42.649-52.605 1.146-.596 5.355-3.65 2.194 1.547C66.211 20.36 63.052 35.563 63.56 47.51c8.416-3.067 12.98-7.532 13.738-14.116.299-2.592 1.01-2.627 2.447-1.032 1.683 1.87 5.262 16.39-15.343 22.618 2.565 13.756 10.048 21.463 14.054 20.812 4.157-.677 7.344-5.154 6.702-11.469-.375-3.67 1.009-2.298 2.318-1.031 3.87 3.737 3.546 15.756-4.124 19.074-11.06 4.785-21.528-6.574-25.402-25.868zm-.63-30.578c-6.15 5.432-11.038 15.675-15.878 26.059.098-.013.187-.016.284-.029a121.095 121.095 0 0 0 15.162-2.447 97.843 97.843 0 0 1 .432-23.583z"/><path d="M83.852 55.586h-.961v2.705h-.652v-2.705h-.961v-.582h2.574zm4.354 2.705h-.645v-2.618h-.02l-.92 2.618h-.627l-.893-2.618h-.014v2.618h-.65v-3.287h1.125l.739 2.146h.02l.773-2.146h1.112z"/></g></g></svg>