<svg viewBox="0 0 235.962 182.716" xmlns="http://www.w3.org/2000/svg"><path d="m225.882 176.278h-2.217v6.06h-1.51v-6.06h-2.23v-1.312h5.957zm10.08 6.06h-1.506v-5.865h-.03l-2.138 5.866h-1.445l-2.07-5.867h-.043v5.866h-1.506v-7.374h2.617l1.714 4.81h.042l1.786-4.81h2.58v7.373zm-157.915-27.058 28.135-47.246c.735 2.903 2.21 8.683 2.435 9.57-1.445 2.49-23.204 40.13-23.204 40.13s32.1-26.526 33.576-27.742c.54.644 23.786 28.845 23.786 28.845s-10.93-36.51-11.67-38.998c.557-.888 4.206-6.717 6.515-10.422l9.954 45.946-19.888 27.352h85.473l-40.853-182.715-56.852.036-115.454 182.68h91.11l-13.064-27.436zm29.143-48.936 17.933-30.11h5.308l6.523 30.11z" fill="#e3d4ad"/><path d="m123.963 7.19h42.332l37.494 168.324h-60.91l13.61-18.413-19.537-87.374-16.148-.012-52.11 85.723 9.722 20.003h-60.35l-5.92 3.668h72.774l-11.514-23.745 49.42-82.418h10.766l18.66 83.245-16.765 22.93h73.024l-39.063-175.624-47.928-.037"/><path d="m60.994 144.786 6.31-3.984-11.222-26.708 35.75-22.397-12.285-22.032 34.578-16.687-11.16-19.663 26.622-11.83-9.724-14.295-2.258-3.303-111.027 175.16"/><g fill="#a71930"><path d="m112.595 118.15-13.633 23.563s17.975-14.853 20.526-16.955c1.76 2.138 14.46 17.526 14.46 17.526s-6.28-20.987-6.882-22.99l5.776-9.22h-22.306s1.676 6.607 2.06 8.077z"/><path d="m68.695 155.437 52.11-85.723 16.148.012 19.537 87.374-13.61 18.414h60.91l-37.496-168.324h-42.332l10.433 16.02-26.3 11.83 11.325 19.614-34.553 16.542 11.563 21.437-35.763 22.542 11.016 27.025-53.616 33.24h60.35"/></g></svg>