<svg xmlns="http://www.w3.org/2000/svg" viewBox="0 0 114.501 183.245"><g data-name="Layer 2"><g data-name="Layer 1"><path d="M63.323 65.593a23.066 23.066 0 0 1 3.993 1.49l3.393-2.16c-2.734-1.475-5.563-3.07-8.253-4.808.305 1.912.61 3.838.867 5.478zm-15.213 43.43h.011a.018.018 0 0 1-.015-.007zm-1.703-.839l.005.009c-.005-.009-.01-.009-.018-.015a.02.02 0 0 0 .013.006z" fill="#005c5c"/><path d="M99.806 91.216c-1.443.256-2.99.526-4.637.799l-.198.035c3.91 7.113 6.258 15.899 6.258 26.835 0 32.902-21.376 56.19-46.109 56.19-15.85 0-22.047-6.244-25.89-7.441l-17.111 6.194v-53.98c4.098.48 7.581 4.203 9.498 8.044 7.6 15.178 16.214 28.065 32.542 28.065 9.61 0 15.97-8.854 15.97-21.456 0-7.004-3.131-12.574-7.758-17.318-.042.259-.084.522-.128.78-.368 2.266-.713 4.418-.964 5.956 2.709 3.865 4.115 7.716 4.115 11.44 0 4.676-1.209 15.551-12.435 15.551-15.363 0-24.05-19.404-27.758-27.694-2.872-6.412-10.936-10.56-15.65-11.084l-2.456-.273v69.238s20.055-7.197 21.548-7.736l1.013.432c5.963 2.536 14.966 6.373 24.503 6.373 25.637 0 52.16-22.742 52.16-60.799a59.876 59.876 0 0 0-6.513-28.15zm-61.765 9.169l-.003-.007zm41.432-30.61a281.41 281.41 0 0 1-1.167 2.554s-.278.598-.686 1.502c-.039.079-.077.17-.12.263a52.465 52.465 0 0 1 11.713 9.783c.077.014.149.024.222.036 2.183.374 4.405.751 6.568 1.128a57.673 57.673 0 0 0-16.53-15.266zm-2.2-61.4A42.05 42.05 0 0 0 52.96 0C34.268 0 6.613 17.18 6.613 54.059c0 12.478 2.71 22.784 8.455 31.472 1.49-.256 3.084-.526 4.766-.808.211-.034.416-.072.633-.108-5.382-7.523-8.81-17.431-8.81-31.762 0-27.61 22.09-48.226 41.664-48.226 8.044 0 17.847 5.369 23.125 9.57 3.117-1.056 14.5-5.738 14.5-5.738V57.54a15.3 15.3 0 0 1-8.928-6.365c-7.443-12.728-12.12-27.06-24.616-27.06-9.609 0-14.17 6.89-14.17 16.493 0 6.703 3.494 12.668 9.108 17.898.022-.144.04-.281.068-.42.33-2.065.638-3.978.856-5.366-3.178-3.428-5.252-7.277-5.252-11.631 0-3.55.834-11.809 8.546-11.809 8.421 0 12.638 7.885 14.404 12.587a45.911 45.911 0 0 0 11.124 16.635l3.047-1.75-1.366 2.996c0 .003.022-.057 0 0a19.453 19.453 0 0 0 9.847 4.193l2.42.231V1.42s-16.9 6.261-18.76 6.956z" fill="#005c5c"/><path d="M46.218 68.456l-.009.005.015-.009zm20.12 40.5l.003-.001-.008.001z" fill="#c4ced4"/><path d="M73.523 134.655c0 16.52-9.082 24.994-18.785 24.994-28.167 0-34.435-30.917-39.122-33.847v43.059c3.954-.865 12.833-5.52 12.833-5.52 3.91 0 11.422 8.476 25.504 8.476 21.29 0 43.817-20.868 43.817-52.165 0-11.616-2.71-20.221-6.949-26.938-2.96.473-7.386 1.18-11 1.752a23.292 23.292 0 0 1-2.998 6.637c.343.775.577 1.288.577 1.288.59 1.312 7.574 18.27 7.574 18.27s-11.588-7.282-17.767-11.16a23.994 23.994 0 0 1-3.824 1.43c-.125.732-.249 1.533-.383 2.363 6.244 5.23 10.523 11.61 10.523 21.36z" fill="#c4ced4"/><path fill="#c4ced4" d="M75.336 101.733v-.002l-.003.005.003-.003zm-40.869-7.338c-.063-.003-.127-.02-.192-.03.08.064.162.13.24.19-.014-.05-.033-.104-.048-.16zm2.066-21.125a125.42 125.42 0 0 1-6.428-16.672s10.777 6.666 16.908 10.472a23.056 23.056 0 0 1 4.2-1.542c.132-.805.27-1.673.412-2.572-6.981-5.286-11.911-11.78-11.911-22.24 0-12.609 7.664-20.216 16.121-20.216 20.337 0 22.816 25.155 31.611 31.515V13.55c-3.324 1.327-10.637 4.562-10.637 4.562-1.883 0-4.386-2.394-8.134-4.997A27.945 27.945 0 0 0 53.33 8.332c-17.996 0-38.375 18.038-38.375 44.767 0 13.788 3.63 23.531 9.074 30.942 2.804-.452 6.92-1.115 10.374-1.674a23.436 23.436 0 0 1 3.089-6.957c-.554-1.24-.958-2.14-.958-2.14zm27.001 36.717h.003-.006.003zm16.352-27.68l2.182.363q-1.359-1.178-2.771-2.26c.22.621.422 1.25.59 1.897zm-44.553-.091v.006-.007.001z"/><path d="M42.178 71.305a26.498 26.498 0 0 0 .079-.069.977.977 0 0 1-.079.069z" fill="#c4ced4"/><path fill="#0c2c56" d="M91.826 174.842h3.088v8.403h2.095v-8.403h3.082v-1.821h-8.265v1.821zm16.183 4.857h-.054l-2.375-6.678h-3.616v10.224h2.083v-8.143h.05l2.862 8.143h2.019l2.962-8.143h.043v8.143h2.095v-10.224h-3.593l-2.476 6.678z"/><path d="M50.94 77.763a3.46 3.46 0 0 1-.387.241 1.938 1.938 0 0 1-.62-.235l-.012-.002.005-.004a.173.173 0 0 1-.064-.088s.768-.533 1.21-.824c.211-1.418.47-3.075.747-4.883.281-1.838.596-3.834.919-5.901-.566.11-1.123.24-1.674.395a22.056 22.056 0 0 0-3.174 1.157c-.567.25-1.127.532-1.666.833l-.015.009a20.54 20.54 0 0 0-.91.532c-.017.012-.04.023-.06.035-.275.173-.546.348-.816.533-.035.025-.079.053-.12.081-.243.166-.483.345-.722.52-.055.041-.11.08-.162.122-.277.214-.554.43-.826.658a1.448 1.448 0 0 1 .312.351 6.508 6.508 0 0 1-.6 1.57s-.166-.142-.281-.267c-.19.052-1.203.36-1.632.458-.246.273-.487.556-.72.84a.189.189 0 0 0-.025.031c-.226.276-.449.562-.663.852q-.573.761-1.072 1.565c-.262.412-.502.839-.728 1.266a2.71 2.71 0 0 0-.112.212c-.231.442-.452.89-.65 1.343a.03.03 0 0 1-.011.025c-.206.477-.399.96-.578 1.45a.084.084 0 0 1-.018.048c-.176.503-.34 1.015-.482 1.529v.008a21.462 21.462 0 0 0-.395 1.66l-.003.008c2.72-.439 5.316-.85 7.588-1.196 3.944-.61 6.924-1.044 7.91-1.133.005-.132.025-.31.053-.516.086-.713.245-1.843.454-3.283zm-9.328-3.594s-.477-.281-.452-.485c0 0 1.796-.55 1.894-.54l.386.227.387-1.433.037-.136.12.07s.456.26.503.385a7.53 7.53 0 0 1-.595 1.651 3.7 3.7 0 0 1-.403-.274c-.109.036-1.788.545-1.877.535zm1.36.685s1.754-.651 1.846-.646l.422.209.243-1.445.023-.145.137.063a2.243 2.243 0 0 1 .551.353 7.175 7.175 0 0 1-.432 1.683 3.619 3.619 0 0 1-.445-.248c-.079.025-1.75.64-1.837.633 0 0-.524-.251-.508-.457zm2.09 1.071s1.708-.725 1.795-.725l.46.191.116-1.454.007-.148.139.057a2.438 2.438 0 0 1 .592.322 7.32 7.32 0 0 1-.286 1.707 3.613 3.613 0 0 1-.477-.237c-.034.013-1.703.72-1.788.726 0 0-.557-.23-.557-.439zm2.823 1.358a1.826 1.826 0 0 1-.583-.273h-.006l.006-.003a.216.216 0 0 1-.065-.097s1.55-.9 1.634-.908l.51.14-.169-1.44-.02-.161.163.047a2.594 2.594 0 0 1 .661.246 7.004 7.004 0 0 1 .042 1.724 4.8 4.8 0 0 1-.55-.179c-.028.02-1.541.896-1.623.904z" fill="#fff"/><path d="M41.959 72.283l.298-1.047c-.348.303-.683.611-1.013.933a2.481 2.481 0 0 1 .445-.102zm-6.976 20.59v.002c.117.566.258 1.127.42 1.676a22.484 22.484 0 0 0 2.635 5.827l.003.007q.505.796 1.08 1.545c.255.337.523.668.794.988.03.037.055.07.085.102.283.333.573.653.877.966a.933.933 0 0 1-.07-.31s.385-.328.554-.284a10.329 10.329 0 0 1 .447 1.398l-.057.056c.164.151.329.307.502.456l.998.38-.145.12s-.056.05-.131.11c.261.207.529.408.795.609.047.025.084.058.127.085.238.17.474.34.72.502.027.015.052.035.079.048.263.178.53.347.802.511a.068.068 0 0 1 .03.019c.284.164.578.338.866.492.008.006.013.006.018.015.554.296 1.118.566 1.694.823a.018.018 0 0 0 .015.007 22.074 22.074 0 0 0 2.906 1.04c.551.152 1.109.293 1.678.406-.318-2.007-.622-3.928-.893-5.703-.17-1.103-.333-2.154-.48-3.122a1.309 1.309 0 0 1-.365.05 12.117 12.117 0 0 1-1.316-1.227l-.043-.028.013-.009a.177.177 0 0 1-.042-.103s.363-.096.568-.126a9.048 9.048 0 0 1 .286-1.398 2.292 2.292 0 0 1 .46-.084c-.135-.952-.25-1.75-.331-2.378l-.015.016a.34.34 0 0 0 .013-.043 23.779 23.779 0 0 1-.127-1.099c-.981-.091-3.914-.522-7.801-1.126a1311.94 1311.94 0 0 1-7.65-1.216zm8.252 10.741l-.277.23 1.711.661-.142.115a2.2 2.2 0 0 1-.457.332 12.487 12.487 0 0 1-1.677-.768l-.007-.004v-.001c-.037-.032-.064-.06-.067-.082a3.841 3.841 0 0 1 .334-.263 9.267 9.267 0 0 1-.421-1.34s.386-.33.557-.281a11.555 11.555 0 0 1 .446 1.401zm4.462-2.578a12.145 12.145 0 0 1 .287-1.416s.56-.221.713-.1a13.243 13.243 0 0 1-.29 1.454l-.368.143 1.569 1.036-.195.082a3.491 3.491 0 0 1-.63.196 12.774 12.774 0 0 1-1.469-1.105l-.038-.027.01-.003a.207.207 0 0 1-.054-.096s.273-.11.465-.164zm-1.779-.59s.509-.263.671-.173a13.997 13.997 0 0 1-.015 1.46l-.335.169 1.643.942-.188.092a2.953 2.953 0 0 1-.589.235 13.28 13.28 0 0 1-1.53-1.006l-.049-.029.01-.007a.203.203 0 0 1-.056-.093s.239-.12.421-.191a10.001 10.001 0 0 1 .017-1.4zm-1.147.702a11.517 11.517 0 0 1 .095 1.45l-.302.178 1.675.847-.167.102a3.183 3.183 0 0 1-.552.268 12.148 12.148 0 0 1-1.606-.938l-.028-.012.011-.001c-.036-.039-.061-.069-.061-.094 0 0 .214-.125.374-.203a12.38 12.38 0 0 1-.092-1.4s.49-.28.653-.197z" fill="#fff"/><path d="M50.433 100.34l.802.654c-.07-.46-.134-.904-.196-1.317a2.448 2.448 0 0 1-.137.537zm13.707-5.131c-.017.154-.031.355-.065.603-.087.7-.238 1.76-.436 3.093.146-.092.25-.157.273-.165a1.769 1.769 0 0 1 .613.239l.007.002h-.004a.17.17 0 0 1 .07.092s-.649.447-1.094.745c-.216 1.44-.479 3.128-.762 4.975-.277 1.753-.579 3.651-.892 5.621h.002c.57-.12 1.131-.264 1.679-.427l.006-.003a21.818 21.818 0 0 0 2.796-1.028l.008-.001a22.949 22.949 0 0 0 2.627-1.39l.042-.025c.278-.17.556-.352.829-.536a1.341 1.341 0 0 1 .117-.08c.248-.169.492-.345.737-.526.048-.04.103-.078.153-.117.28-.216.56-.435.83-.66a.514.514 0 0 1-.125-.157 6.448 6.448 0 0 1 .601-1.58s.168.145.286.273c.14-.04.688-.21 1.147-.338.302-.315.586-.643.866-.975.033-.038.062-.077.092-.108q.41-.495.785-1l.008-.005c.374-.509.73-1.03 1.065-1.567a22.635 22.635 0 0 0 1.418-2.665c.003-.01.01-.018.01-.022.196-.443.38-.885.55-1.339a.445.445 0 0 1 .036-.094c.169-.467.33-.942.467-1.426.162-.548.301-1.106.422-1.669v-.003a2506.8 2506.8 0 0 1-7.396 1.153c-3.829.586-6.733 1.008-7.768 1.11zm1.128 7l-.164-.044a2.701 2.701 0 0 1-.663-.25 7.018 7.018 0 0 1-.043-1.726 4.853 4.853 0 0 1 .55.18c.048-.022 1.54-.893 1.62-.906a1.68 1.68 0 0 1 .587.28h.007a.18.18 0 0 1 .057.095s-1.547.897-1.632.91l-.511-.14zm2.34-.66l-.465-.19-.127 1.602-.137-.056a2.512 2.512 0 0 1-.593-.325 7.827 7.827 0 0 1 .281-1.708 4.394 4.394 0 0 1 .484.238c.049-.018 1.703-.725 1.79-.725 0 0 .55.226.55.432 0 0-1.704.732-1.782.732zm2.038.987l-.432-.21-.26 1.598-.131-.067s-.496-.234-.558-.357a7.364 7.364 0 0 1 .43-1.684 3.659 3.659 0 0 1 .442.256c.1-.031 1.755-.642 1.838-.636a1.614 1.614 0 0 1 .469.347l.005.003h-.002a.25.25 0 0 1 .042.11s-1.76.642-1.843.64zm3.658.526s-1.813.557-1.898.542l-.385-.227-.426 1.575-.122-.075s-.45-.262-.506-.384a8.21 8.21 0 0 1 .593-1.655 3.487 3.487 0 0 1 .402.277c.13-.04 1.801-.549 1.888-.535 0 0 .476.28.454.482z" fill="#fff"/><path d="M72.335 105.049c.139-.127.27-.256.406-.387l-.244-.199zm-9.631-33.106c.17 1.111.326 2.173.48 3.15a1.016 1.016 0 0 1 .307-.041 13.037 13.037 0 0 1 1.312 1.221l.047.04-.015.004a.187.187 0 0 1 .045.102s-.365.097-.568.127a9.946 9.946 0 0 1-.279 1.402 4.106 4.106 0 0 1-.417.078c.137.95.25 1.75.33 2.38.065.5.112.895.137 1.15 1.005.093 3.9.512 7.731 1.1 2.253.346 4.833.75 7.543 1.178-.053-.288-.123-.575-.19-.86a18.38 18.38 0 0 0-.22-.82 22.227 22.227 0 0 0-2.514-5.721 22.207 22.207 0 0 0-1.865-2.6c-.042-.05-.084-.1-.122-.15a22.72 22.72 0 0 0-.884-.992 1.864 1.864 0 0 1 .092.382s-.387.326-.56.283a10.887 10.887 0 0 1-.448-1.4l.095-.082c-.13-.127-.254-.251-.388-.372l-1.138-.436.137-.123s.085-.07.184-.147a21.566 21.566 0 0 0-.797-.626c-.031-.025-.067-.049-.1-.074a32.217 32.217 0 0 0-.74-.529.44.44 0 0 1-.044-.028 25.553 25.553 0 0 0-1.727-1.067 23.7 23.7 0 0 0-1.674-.84 22.521 22.521 0 0 0-2.975-1.1h-.003v-.002q-.827-.24-1.676-.417l.904 5.83zm4.058 3.77a13.756 13.756 0 0 1-.283 1.418s-.57.219-.718.1a14.648 14.648 0 0 1 .29-1.46l.366-.145-1.574-1.035.205-.077a3.404 3.404 0 0 1 .629-.198 13.085 13.085 0 0 1 1.465 1.102l.04.027-.012.007c.034.04.059.076.055.1 0 0-.27.105-.463.16zm1.778.59s-.514.268-.672.165a12.936 12.936 0 0 1 .019-1.448l.331-.175-1.637-.94.18-.092a3.497 3.497 0 0 1 .593-.236 13.324 13.324 0 0 1 1.539 1.014l.044.022-.012.005c.033.043.058.075.058.099 0 0-.247.115-.423.182a10.424 10.424 0 0 1-.02 1.405zm1.794-.9s-.479.283-.648.194a10.63 10.63 0 0 1-.093-1.441l.306-.181-1.68-.847.173-.105a3.31 3.31 0 0 1 .548-.272 12.755 12.755 0 0 1 1.612.948l.015.01-.007.003c.035.032.067.064.067.086 0 0-.219.13-.385.209a10.722 10.722 0 0 1 .092 1.396zm1.733-2.837l.007.003v.001c.04.032.067.057.072.077a3.362 3.362 0 0 1-.34.268 10.185 10.185 0 0 1 .423 1.343s-.385.323-.557.281a10.843 10.843 0 0 1-.45-1.397l.272-.238-1.707-.655.14-.127a2.105 2.105 0 0 1 .466-.32 12.804 12.804 0 0 1 1.674.764z" fill="#fff"/><path d="M64.026 76.41l-.738-.605c.055.387.116.76.17 1.118a1.58 1.58 0 0 1 .101-.388z" fill="#fff"/><path d="M72.152 103.884a6.448 6.448 0 0 0-.6 1.58.514.514 0 0 0 .123.158c.052-.044.102-.09.156-.134l.202-.181a.576.576 0 0 0 .077-.062c.076-.064.151-.126.225-.196l.162-.586.244.2c.084-.076.163-.155.247-.233l.303-.297.294-.314c-.459.128-1.007.298-1.147.338a4.182 4.182 0 0 0-.286-.273zm-1.592-1.046a8.21 8.21 0 0 0-.593 1.655c.056.122.506.384.506.384l.122.075.426-1.575.385.227c.085.015 1.898-.542 1.898-.542.022-.203-.454-.482-.454-.482-.087-.013-1.757.495-1.888.535a3.487 3.487 0 0 0-.402-.277zm.888-1.052h.001l-.005-.003a1.614 1.614 0 0 0-.469-.347c-.083-.006-1.737.605-1.838.636a3.659 3.659 0 0 0-.442-.256 7.364 7.364 0 0 0-.43 1.684c.062.123.558.357.558.357l.132.067.26-1.597.431.21c.084.001 1.843-.642 1.843-.642a.25.25 0 0 0-.041-.109zm-2.608-1.401c-.086 0-1.74.707-1.789.725a4.394 4.394 0 0 0-.484-.238 7.827 7.827 0 0 0-.28 1.708 2.512 2.512 0 0 0 .592.325l.137.056.127-1.602.466.19c.079 0 1.781-.732 1.781-.732 0-.206-.55-.432-.55-.432zm-1.621-.547a.18.18 0 0 0-.057-.096h-.007a1.68 1.68 0 0 0-.588-.28c-.078.014-1.571.885-1.62.908a4.853 4.853 0 0 0-.55-.18 7.018 7.018 0 0 0 .044 1.725 2.701 2.701 0 0 0 .663.25l.164.043-.192-1.6.51.14c.086-.013 1.633-.91 1.633-.91zm-2.691-.858h.004l-.007-.001a1.769 1.769 0 0 0-.613-.24 3.608 3.608 0 0 0-.273.166c-.038.29-.087.594-.135.913.445-.298 1.095-.745 1.095-.745a.17.17 0 0 0-.07-.092zm-14.381 1.22c-.205.031-.568.127-.568.127a.177.177 0 0 0 .042.103l-.013.009.043.028a12.117 12.117 0 0 0 1.316 1.227 1.309 1.309 0 0 0 .365-.05 36.8 36.8 0 0 1-.097-.65l-.802-.654.469-.126a2.448 2.448 0 0 0 .137-.537c-.055-.332-.099-.655-.146-.958a2.292 2.292 0 0 0-.46.084 9.048 9.048 0 0 0-.286 1.398zm-2.871 1.099l.038.027a12.774 12.774 0 0 0 1.47 1.105 3.491 3.491 0 0 0 .63-.196l.194-.082-1.57-1.036.37-.143a13.243 13.243 0 0 0 .289-1.454c-.152-.121-.713.1-.713.1a12.145 12.145 0 0 0-.287 1.416c-.192.054-.465.164-.465.164a.207.207 0 0 0 .054.096zm-1.796.737a.203.203 0 0 0 .056.093l-.01.007.049.029a13.28 13.28 0 0 0 1.53 1.006 2.953 2.953 0 0 0 .59-.235l.186-.092-1.642-.942.335-.17a13.997 13.997 0 0 0 .015-1.46c-.162-.09-.671.173-.671.173a10.001 10.001 0 0 0-.017 1.4c-.182.07-.421.19-.421.19zm-1.362-.69a12.38 12.38 0 0 0 .092 1.4c-.16.077-.374.202-.374.202 0 .025.025.055.061.094l-.011.001.028.012a12.148 12.148 0 0 0 1.606.938 3.183 3.183 0 0 0 .552-.268l.167-.102-1.675-.847.303-.178a11.517 11.517 0 0 0-.096-1.45c-.164-.083-.653.198-.653.198zm-1.886 1.148a9.267 9.267 0 0 0 .421 1.34 3.841 3.841 0 0 0-.334.263c.003.023.03.05.067.082v.001l.007.004a12.487 12.487 0 0 0 1.677.768 2.2 2.2 0 0 0 .457-.331l.142-.116-1.71-.661.276-.23a11.555 11.555 0 0 0-.446-1.4c-.17-.05-.557.28-.557.28zm-.871.898c-.169-.044-.554.284-.554.284a.933.933 0 0 0 .07.31c.11.114.218.234.332.348.135.13.276.258.413.39.044.04.082.082.13.122l.056-.056a10.329 10.329 0 0 0-.447-1.398zm1.89 2.29l-.998-.38c.083.068.17.14.252.214.083.07.16.14.246.214a.18.18 0 0 1 .05.044c.059.045.12.09.174.137a2.4 2.4 0 0 0 .13-.109zm-.946-32.819a6.508 6.508 0 0 0 .6-1.57 1.448 1.448 0 0 0-.312-.352c-.112.096-.226.198-.336.295l-.298 1.047-.27-.216a2.481 2.481 0 0 0-.445.102c-.09.095-.186.187-.28.283l-.298.32c-.093.095-.186.187-.274.282.429-.098 1.441-.407 1.632-.458.115.125.281.267.281.267zm1.587 1.045a7.53 7.53 0 0 0 .595-1.65c-.047-.126-.503-.386-.503-.386l-.12-.07-.037.136-.387 1.433-.386-.226c-.097-.01-1.894.539-1.894.539-.025.204.452.485.452.485.089.01 1.768-.499 1.877-.536a3.7 3.7 0 0 0 .403.275zm1.87 1.018a7.175 7.175 0 0 0 .432-1.683 2.243 2.243 0 0 0-.55-.353l-.138-.063-.023.145-.243 1.445-.422-.21c-.092-.004-1.846.647-1.846.647-.016.206.508.457.508.457.087.007 1.758-.608 1.837-.633a3.619 3.619 0 0 0 .445.248zm2.123.949a7.32 7.32 0 0 0 .286-1.707 2.438 2.438 0 0 0-.592-.322l-.14-.057-.006.148-.115 1.454-.46-.19c-.088 0-1.795.724-1.795.724 0 .21.557.439.557.439.085-.005 1.754-.713 1.788-.727a3.613 3.613 0 0 0 .477.238zm2.131-1.041a2.594 2.594 0 0 0-.661-.246l-.162-.047.02.16.167 1.44-.509-.139c-.084.007-1.634.908-1.634.908a.216.216 0 0 0 .065.097l-.006.003h.006a1.826 1.826 0 0 0 .583.273c.082-.008 1.595-.884 1.624-.904a4.8 4.8 0 0 0 .549.18 7.004 7.004 0 0 0-.042-1.725zm-.09 2.929l-.005.004.011.002a1.938 1.938 0 0 0 .621.235 3.46 3.46 0 0 0 .387-.24c.04-.294.087-.596.132-.913-.442.291-1.21.824-1.21.824a.173.173 0 0 0 .064.088zm14.387-1.217a7.05 7.05 0 0 0 .567-.127.187.187 0 0 0-.045-.102l.015-.003-.047-.04a13.037 13.037 0 0 0-1.312-1.222 1.016 1.016 0 0 0-.307.041c.034.245.069.479.104.712l.738.606-.467.124a1.58 1.58 0 0 0-.102.388l.16 1.103a4.106 4.106 0 0 0 .416-.078 9.946 9.946 0 0 0 .28-1.402zm2.869-1.101l-.04-.027a13.085 13.085 0 0 0-1.465-1.102 3.404 3.404 0 0 0-.63.198l-.204.077 1.574 1.035-.367.145a14.648 14.648 0 0 0-.29 1.46c.15.119.719-.1.719-.1a13.756 13.756 0 0 0 .283-1.418c.192-.056.463-.16.463-.16.004-.025-.021-.061-.055-.101zm1.743-.827l.012-.005-.044-.022a13.324 13.324 0 0 0-1.539-1.014 3.497 3.497 0 0 0-.592.236l-.181.092 1.637.94-.331.175a12.936 12.936 0 0 0-.019 1.448c.158.103.672-.164.672-.164a10.424 10.424 0 0 0 .02-1.405c.176-.067.423-.182.423-.182 0-.024-.025-.056-.058-.1zm1.702-.82c0-.022-.032-.054-.067-.086l.007-.003-.015-.01a12.755 12.755 0 0 0-1.612-.948 3.31 3.31 0 0 0-.548.272l-.174.105 1.68.847-.305.18a10.63 10.63 0 0 0 .093 1.442c.17.089.648-.194.648-.194a10.722 10.722 0 0 0-.092-1.396 5.84 5.84 0 0 0 .385-.21zm-.7-1.676l-.14.127 1.707.655-.272.238a10.843 10.843 0 0 0 .45 1.397c.172.042.557-.281.557-.281a10.185 10.185 0 0 0-.423-1.343 3.362 3.362 0 0 0 .34-.267c-.006-.02-.032-.046-.072-.078v-.001l-.007-.003a12.804 12.804 0 0 0-1.674-.764 2.105 2.105 0 0 0-.466.32zm3.168 1.234c.172.043.559-.283.559-.283a1.864 1.864 0 0 0-.092-.382c-.12-.122-.233-.248-.354-.366-.1-.108-.214-.212-.33-.32a2.678 2.678 0 0 0-.137-.131l-.095.082a10.887 10.887 0 0 0 .449 1.4zm-1.88-2.29l1.138.436a12.311 12.311 0 0 0-.304-.262c-.06-.05-.118-.104-.175-.155-.06-.051-.119-.1-.176-.15-.056-.047-.107-.095-.162-.139a9.506 9.506 0 0 0-.184.147z" fill="#d50032"/><path d="M50.562 96.34a.153.153 0 0 0-.002-.026.34.34 0 0 1-.013.043zM36.533 73.27l.958 2.14c.346-.524.706-1.025 1.091-1.524-3.157-7.012-6.324-14.048-6.214-14.09 0 0 6.562 4.094 13.02 8.14a20.342 20.342 0 0 1 1.625-.866 16703.13 16703.13 0 0 0-16.908-10.472 125.42 125.42 0 0 0 6.428 16.672zm45.457 43.571s-6.491-4.053-13.124-8.204c-.54.308-1.093.592-1.659.863 6.179 3.88 17.767 11.161 17.767 11.161s-6.984-16.958-7.574-18.27c0 0-.234-.513-.577-1.288a21.466 21.466 0 0 1-1.086 1.527c3.24 7.202 6.38 14.166 6.254 14.211z" fill="#0c2c56"/><path d="M41.622 70.65a23.404 23.404 0 0 1 3.765-2.713 9043.15 9043.15 0 0 0-13.019-8.141zm30.996-.053a23.425 23.425 0 0 1 3.162 3.366c3.164-6.892 6.56-13.924 6.545-14.194zm-30.681 35.56a23.32 23.32 0 0 1-3.22-3.334c-3.168 7.044-6.3 13.993-6.183 14.036zm30.729-.257a24.093 24.093 0 0 1-3.8 2.737c6.633 4.151 13.125 8.204 13.125 8.204z" fill="#c4ced4"/><path d="M63.93 81.542c-.192.176-.8.785-1.565 1.565-1.911 1.934-4.85 4.955-5.11 5.282-.176.22-.805.897-1.632 1.75.827-.853 1.456-1.53 1.632-1.75.244-.302 3.192-3.34 5.11-5.282a75.63 75.63 0 0 1 1.566-1.565z" fill="#fff"/><path d="M57.243 88.402a.834.834 0 0 1 .082.069c-.02-.024-.047-.052-.059-.069z" fill="#fff"/><path d="M63.93 81.542c.044.001.096.008.153.013a40.51 40.51 0 0 0-.137-1.15c-.08-.63-.193-1.43-.33-2.379-.048-.351-.104-.72-.159-1.103-.053-.358-.114-.732-.169-1.118-.035-.233-.07-.467-.104-.712-.154-.977-.31-2.039-.48-3.15l-.904-5.83c-.047-.302-.099-.604-.143-.912-1.903-12.058-4.245-26.219-4.402-26.16v49.348c.26-.327 3.199-3.348 5.11-5.282a67.44 67.44 0 0 1 1.566-1.565z" fill="#c4ced4"/><path d="M34.938 83.882c.11-.56.241-1.112.395-1.659v-.008c.142-.514.306-1.026.482-1.529a.084.084 0 0 0 .018-.048c.18-.49.372-.973.578-1.45a.03.03 0 0 0 .01-.025c.2-.454.42-.9.651-1.343.034-.072.07-.14.112-.212.226-.427.466-.854.728-1.266q.498-.806 1.072-1.565c.214-.29.437-.576.663-.852a.189.189 0 0 1 .025-.032c.233-.283.474-.566.72-.839.088-.095.18-.187.274-.283.098-.105.198-.21.298-.32.094-.095.19-.187.28-.282.305-.297.616-.583.934-.864a.977.977 0 0 0 .079-.069c.11-.097.224-.199.336-.294.272-.228.55-.444.826-.658.051-.042.107-.08.162-.122.24-.175.479-.354.721-.52.042-.028.086-.056.121-.081.27-.185.54-.36.817-.533.018-.012.042-.023.058-.035.298-.184.603-.363.911-.532l.009-.005.006-.004c.54-.3 1.099-.582 1.666-.833a22.056 22.056 0 0 1 3.174-1.157c.55-.156 1.108-.285 1.674-.395-.323 2.067-.638 4.063-.919 5.9-.278 1.809-.536 3.466-.747 4.884-.045.317-.092.62-.132.912-.21 1.44-.368 2.57-.454 3.283a5.56 5.56 0 0 0-.053.516c.035-.005.078-.01.11-.012 1.711 1.577 6.188 6.18 6.712 6.839V39.04c-.118-.022-2.458 14.085-4.376 26.12-.558.102-1.115.223-1.666.367a23.056 23.056 0 0 0-4.2 1.542 20.64 20.64 0 0 0-1.626.867 23.404 23.404 0 0 0-3.765 2.713l-9.254-10.854c-.11.042 3.057 7.078 6.214 14.09-.385.499-.745 1-1.091 1.524a23.436 23.436 0 0 0-3.089 6.957c-.14.547-.254 1.103-.358 1.664.296-.045.597-.097.89-.14z" fill="#005c5c"/><path d="M57.243 88.402l.012-.013c-.176.22-.805.897-1.632 1.75-.116.123-.237.248-.359.38-.336.342-.684.707-1.05 1.076a318.81 318.81 0 0 1-1.971 1.99 76.55 76.55 0 0 1-1.7 1.642c-.032-.005-.075-.008-.11-.012.018.245.065.623.127 1.099a.153.153 0 0 1 .002.027c.082.627.196 1.426.331 2.378.047.303.09.626.146.958.062.413.126.857.196 1.318a1400.187 1400.187 0 0 0 .577 3.772c.271 1.774.574 3.695.893 5.702.047.299.093.598.142.896 1.915 12.089 4.284 26.389 4.408 26.367z" fill="#c4ced4"/><path d="M68.866 108.637a24.093 24.093 0 0 0 3.8-2.738l9.325 10.942c.125-.045-3.013-7.01-6.254-14.211a21.46 21.46 0 0 0 1.086-1.527 23.292 23.292 0 0 0 2.998-6.637c.147-.546.281-1.104.392-1.666-.306.052-.611.097-.91.146v.003c-.12.563-.259 1.121-.421 1.669-.137.484-.298.96-.467 1.426a.445.445 0 0 0-.037.094c-.17.454-.353.896-.549 1.34 0 .003-.007.011-.01.02a22.635 22.635 0 0 1-1.418 2.666 25.148 25.148 0 0 1-1.065 1.567l-.003.005c-.256.336-.517.67-.79 1-.03.031-.059.07-.092.108-.28.332-.564.66-.866.975l-.294.314-.303.297c-.084.078-.163.157-.247.232-.137.131-.267.26-.406.387-.074.07-.15.132-.225.196a.576.576 0 0 1-.077.062 8.171 8.171 0 0 1-.202.18l-.156.135c-.27.224-.549.443-.828.66-.05.038-.106.076-.154.116-.245.181-.49.357-.737.526a1.341 1.341 0 0 0-.117.08c-.273.184-.551.365-.83.536-.016.01-.03.02-.04.025a23.04 23.04 0 0 1-2.627 1.39h-.004l-.005.001a21.818 21.818 0 0 1-2.796 1.028l-.003.003h-.003c-.548.163-1.108.307-1.68.427l.891-5.621c.283-1.847.546-3.534.762-4.975.048-.319.097-.623.136-.913.197-1.332.348-2.392.435-3.093.034-.248.048-.45.065-.603l-.177.018c-1.657-1.53-5.896-5.89-6.638-6.756a.834.834 0 0 0-.082-.069l.012 49.33c.113.022 2.51-14.319 4.45-26.412a25.67 25.67 0 0 0 1.678-.388 23.994 23.994 0 0 0 3.824-1.432c.566-.27 1.12-.555 1.659-.863z" fill="#005c5c"/><path d="M57.255 88.389c-.524-.658-5-5.262-6.712-6.839a1.327 1.327 0 0 0-.11.012c-.986.089-3.966.524-7.91 1.133-2.272.347-4.868.757-7.588 1.196-.294.043-.595.095-.891.14-11.816 1.895-25.53 4.2-25.473 4.36z" fill="#c4ced4"/><path d="M95.169 92.015c1.647-.273 3.194-.543 4.637-.799 9.63-1.707 14.695-2.945 14.695-2.945s-8.734-1.544-18.498-3.23c-2.163-.377-4.385-.754-6.568-1.129-.073-.012-.145-.021-.222-.035A52.465 52.465 0 0 0 77.5 74.094c.042-.092.08-.184.119-.263.408-.904.686-1.502.686-1.502.424-.915.809-1.76 1.167-2.554 3.485-7.666 4.294-10.023 4.294-10.026l1.366-2.997-14.424 8.171-3.393 2.16a22.47 22.47 0 0 1 1.629.869c6.473-4.145 13.235-8.39 13.38-8.183.015.27-3.381 7.302-6.545 14.194.382.494.742 1.001 1.081 1.527a23.758 23.758 0 0 1 2.436 4.92q1.41 1.082 2.77 2.26c-.744-.122-1.48-.246-2.18-.363.142.547.264 1.108.368 1.674 10.742 1.704 23.207 3.768 25.839 4.29a2.954 2.954 0 0 1 .509.12c.02.115-14.297 2.49-26.39 4.409-.11.562-.245 1.12-.392 1.666 3.615-.573 8.04-1.28 11-1.752 4.24 6.717 6.95 15.322 6.95 26.938 0 31.297-22.529 52.165-43.818 52.165-14.082 0-21.593-8.476-25.504-8.476 0 0-8.88 4.655-12.833 5.52v-43.059c4.687 2.93 10.955 33.847 39.122 33.847 9.703 0 18.785-8.475 18.785-24.994 0-9.752-4.279-16.131-10.523-21.361.134-.83.258-1.63.383-2.362-.55.149-1.11.274-1.679.388-1.94 12.093-4.336 26.434-4.45 26.412-.123.022-2.492-14.278-4.407-26.367a22.368 22.368 0 0 1-1.674-.37c.159.976.328 2.051.507 3.164.884 5.525 1.93 12.04 1.93 12.04 2.036 12.361 3.636 19.995 3.636 19.995s1.61-7.628 3.663-19.976l.37-2.299c.251-1.538.596-3.69.964-5.956.044-.258.086-.521.128-.78 4.627 4.744 7.757 10.314 7.757 17.318 0 12.602-6.36 21.456-15.969 21.456-16.328 0-24.941-12.887-32.542-28.065-1.917-3.84-5.4-7.564-9.498-8.044v53.98l17.112-6.194c3.842 1.197 10.04 7.441 25.89 7.441 24.732 0 46.108-23.288 46.108-56.19 0-10.936-2.349-19.722-6.258-26.835z" fill="#0c2c56"/><path d="M27.997 93.349c.243.042.489.08.737.12a79.685 79.685 0 0 0 7.58 5.62 23.382 23.382 0 0 1-1.798-4.533l-.241-.19c.065.01.129.026.192.03a24.206 24.206 0 0 1-.387-1.668c-11.8-1.903-25.527-4.222-25.509-4.338-.057-.159 13.657-2.464 25.473-4.359.104-.56.218-1.117.358-1.664-3.453.56-7.57 1.222-10.374 1.674-5.444-7.411-9.074-17.154-9.074-30.942 0-26.73 20.379-44.767 38.375-44.767a27.945 27.945 0 0 1 15.346 4.783c3.748 2.603 6.251 4.997 8.134 4.997 0 0 7.313-3.235 10.638-4.562v38.465C78.65 45.655 76.172 20.5 55.835 20.5c-8.457 0-16.121 7.607-16.121 20.216 0 10.46 4.93 16.954 11.91 22.24-.142.9-.279 1.766-.411 2.572.55-.144 1.108-.265 1.666-.367 1.918-12.035 4.258-26.142 4.376-26.12.157-.059 2.499 14.102 4.402 26.16.565.114 1.12.243 1.666.392-.257-1.64-.562-3.566-.867-5.478-.77-4.823-1.525-9.569-1.525-9.569-2.047-12.421-3.768-18.886-3.768-18.886s-1.517 6.55-3.55 18.892c0 0-.132.84-.35 2.17-.217 1.387-.525 3.3-.855 5.364-.028.14-.046.277-.068.42-5.614-5.23-9.109-11.194-9.109-17.897 0-9.604 4.562-16.493 14.171-16.493 12.497 0 17.173 14.332 24.616 27.06a15.3 15.3 0 0 0 8.927 6.365V8.459s-11.382 4.682-14.499 5.739c-5.278-4.202-15.081-9.57-23.125-9.57-19.573 0-41.664 20.615-41.664 48.225 0 14.33 3.428 24.24 8.81 31.762-.217.036-.422.074-.633.108-1.682.282-3.276.552-4.766.808C5.48 87.184 0 88.271 0 88.271s7.545 1.683 20.281 3.824q.259.045.513.086l7.203 1.168zm17.578 15.36c-6.52 4.145-12.982 8.26-13.041 8.15-.117-.043 3.015-6.992 6.184-14.036a23.529 23.529 0 0 1-1.098-1.497c-.477 1.056-.804 1.798-.804 1.798-.196.422-.378.827-.566 1.24-4.628 10.249-7.586 16.185-7.586 16.185s4.287-1.907 16.044-9.37c0 0 .614-.393 1.498-.952.316-.203.664-.424 1.031-.658-.562-.26-1.12-.55-1.662-.86z" fill="#0c2c56"/><path d="M52.847 111.365c-.049-.298-.095-.597-.142-.896a23.882 23.882 0 0 1-1.678-.406 22.074 22.074 0 0 1-2.906-1.04h-.012l-.003-.007a26.897 26.897 0 0 1-1.694-.823l-.005-.009a.02.02 0 0 1-.013-.006c-.288-.154-.582-.328-.866-.492a.068.068 0 0 0-.03-.019 19.176 19.176 0 0 1-.802-.51c-.027-.014-.052-.034-.079-.049a22.489 22.489 0 0 1-.72-.502c-.043-.027-.08-.06-.127-.085-.266-.201-.534-.402-.795-.61-.054-.047-.116-.092-.174-.137a.18.18 0 0 0-.05-.044c-.086-.073-.163-.144-.246-.214-.082-.074-.17-.146-.252-.214-.173-.149-.338-.305-.502-.456-.047-.04-.085-.081-.129-.122-.137-.132-.278-.26-.413-.39-.114-.114-.221-.234-.332-.348a19.056 19.056 0 0 1-.877-.966c-.03-.032-.055-.065-.085-.102-.271-.32-.54-.651-.794-.988q-.573-.75-1.08-1.545l-.003-.007a22.484 22.484 0 0 1-2.635-5.827 20.78 20.78 0 0 1-.42-1.676v-.002a1315 1315 0 0 0 7.649 1.216c3.887.604 6.82 1.035 7.801 1.126.035.004.078.007.11.012a76.642 76.642 0 0 0 1.7-1.642 328.37 328.37 0 0 0 1.972-1.99c.365-.369.713-.734 1.05-1.077.121-.13.242-.256.358-.38.827-.852 1.456-1.528 1.632-1.75L8.57 88.39c-.018.116 13.708 2.435 25.51 4.338.108.566.24 1.123.386 1.667.015.056.034.11.049.16a23.382 23.382 0 0 0 1.798 4.534 79.685 79.685 0 0 1-7.58-5.62c-.248-.04-.494-.078-.737-.12l-7.203-1.168q-.254-.04-.513-.086a67.767 67.767 0 0 0 15.97 12.27c.187-.414.37-.82.565-1.241 0 0 .327-.742.804-1.798.345.512.715 1.015 1.098 1.497a23.32 23.32 0 0 0 3.22 3.334l-9.404 10.702c.059.11 6.52-4.005 13.04-8.15.543.31 1.1.6 1.663.86-.367.234-.715.455-1.031.658q2.953 1.946 5.474 3.932c-.179-1.113-.348-2.188-.507-3.164.55.146 1.108.266 1.674.37z" fill="#005c5c"/><path d="M57.266 88.402c.012.017.039.045.059.069.742.865 4.98 5.226 6.638 6.756l.177-.018c1.035-.102 3.94-.524 7.768-1.11 2.218-.342 4.743-.737 7.396-1.154.298-.048.603-.093.909-.145 12.093-1.918 26.41-4.294 26.39-4.41z" fill="#c4ced4"/><path d="M61.657 65.201c.044.308.096.61.143.912q.848.176 1.676.417v.002h.003a22.521 22.521 0 0 1 2.975 1.1c.57.258 1.126.539 1.674.84a25.33 25.33 0 0 1 1.727 1.067.44.44 0 0 0 .044.028c.246.171.494.348.74.53.033.024.069.048.1.073.271.202.534.41.797.626.056.044.106.092.162.139.057.05.116.099.176.15.057.05.114.104.175.155.103.087.205.174.304.262.134.121.258.245.388.372.05.044.096.087.138.13.115.11.23.213.33.32.12.12.234.245.353.367.306.322.596.651.884.991.038.05.08.1.122.15a22.204 22.204 0 0 1 1.865 2.6 22.227 22.227 0 0 1 2.514 5.723c.079.27.154.545.22.82.067.284.137.57.19.859-2.71-.427-5.29-.833-7.543-1.177-3.83-.59-6.726-1.008-7.73-1.102-.058-.005-.11-.012-.153-.013a75.63 75.63 0 0 0-1.566 1.565c-1.918 1.942-4.866 4.98-5.11 5.282l-.012.013h.023l49.337-.012a2.954 2.954 0 0 0-.51-.119c-2.63-.522-15.096-2.586-25.838-4.29a23.625 23.625 0 0 0-.369-1.674 22.957 22.957 0 0 0-.589-1.897 23.758 23.758 0 0 0-2.435-4.92 22.12 22.12 0 0 0-1.082-1.527 23.425 23.425 0 0 0-3.162-3.366l9.707-10.828c-.145-.208-6.907 4.038-13.38 8.183a22.285 22.285 0 0 0-1.63-.869 23.066 23.066 0 0 0-3.992-1.49 25.24 25.24 0 0 0-1.666-.392z" fill="#005c5c"/></g></g></svg>