<svg xmlns="http://www.w3.org/2000/svg" viewBox="0 0 161.984 153.147"><g data-name="Layer 2"><g data-name="Layer 1"><path d="M119.682 138.615h-1.776v4.844h-1.203v-4.844h-1.78v-1.05h4.76zm8.07 4.844h-1.204v-4.697h-.024l-1.718 4.697h-1.158l-1.654-4.697h-.027v4.697h-1.2v-5.895h2.077l1.377 3.851h.03l1.432-3.85h2.069z" fill="#df4601"/><path d="M160.272 17.467c-1.523-3.616-5.16-6.915-11.016-7.939-9.236-.938-24.785 2.925-40.322 6.148-5.538 1.157-17.132 2.662-17.132 2.662a40.329 40.329 0 0 0-25.968-14.23c-3.725-.496-5.508-.13-7.043-.63A16.76 16.76 0 0 0 45.503.237a23.738 23.738 0 0 0-12.764 6.726 18.715 18.715 0 0 0-4.034 6.428c-1.401 1.28-2.529 1.56-5.703 4.634C3.067 34.91 11.22 56.96 14.436 64.296-3.562 78.309.362 94.552.362 94.552l5.544-.89c-.408 72.252 104.296 77.458 116.88 22.288 4.56-20.048 8.253-29.084 26.263-33.784 3.637-1.011 5.088-3.418 4.96-5.225-.78-7.089-16.232-14.909-39.487-12.688a33.818 33.818 0 0 1-1.49-6.406c11.762-2.672 27.899-7.893 39.082-16.844 8.935-7.153 12.197-13.903 8.158-23.536zm-26.62 23.786c-11.22 5.118-24.285 8.164-27.478 9.03-5.1 1.38-4.904 2.72-3.92 4.935 2.227 4.984 2.927 8.158 3.786 19.886 7.364-2.211 20.615-1.894 32.45.957a49.69 49.69 0 0 0-21.54 16.618c-19.442 25.818-50.342 23.448-64.316 10.013-3.052 2.572.923 11.296.923 11.296-.63.591-2.12-.006-2.12-.006-10.37-17.209.72-21.73 9.365-22.208 3.65-.664 3.186 1.523-.165 2.145-14.44 3.305 5.484 19.887 30.165 13.407 21.751-5.706 20.448-19.573 39.86-30.33-15.537-2.94-26.425.969-31.062 3.367a16.21 16.21 0 0 1-10.436.898c-2.864 8.77-12.247 11.232-30.187 6.87-12.743-3.101-22.845 9.428-17.24 25.51 5.74 16.493 34.254 33.004 65.437 13.605a37.83 37.83 0 0 1-9.441 8.463c-8.07 5.145-18.513 7.988-29.422 7.988h-.006c-15.549 0-29.992-5.581-39.606-15.311-8.81-8.92-13.197-20.7-13.026-35.028 0-2.528.89-8.11 1.755-9.827l-6.294.432s1.995-9.145 15.579-17.014l-.012-.009-.025.015-.59-1.173c-13.917-26.509-.683-37.044 5.099-41.82 4.716-3.9 5.922-3.753 6.78-7.098.5-1.98 2.517-4.08 5.03-5.417 3.202-1.937 7.084-2.156 9.374-.457 2.157 2.142 6.361 2.648 8.932 2.648 20.009.716 26.02 15.338 26.02 15.338 4.542-1.41 11.975-1.575 24.754-4.155 24.52-5.435 26.324-5.581 30.305-5.937 4.588-.415 8.4-.14 10.014 3.677 1.596 3.734-2.693 8.444-3.808 9.547-1.471 1.45-6.936 5.493-14.933 9.145z" fill="#df4601"/><path d="M68.71 36.903a1.962 1.962 0 0 0 1.438-1.005 8.016 8.016 0 0 0 .798-4.022 19.227 19.227 0 0 0-.78-5.026 5.373 5.373 0 0 1-6.016.012 9.162 9.162 0 0 0 .009 4.932c.67 2.324 2.4 5.526 4.551 5.109zM66.852 26.07a3.443 3.443 0 0 0 3.04-.177c-.761-2.601-2.2-5.703-3.82-5.696a1.837 1.837 0 0 0-1.578.834 2.992 2.992 0 0 0-.091 2.74 4.487 4.487 0 0 0 2.449 2.3zm11.134 4.07a.685.685 0 0 0 .092.75.63.63 0 0 0 .713.127.835.835 0 0 0 .52-.505 1.172 1.172 0 0 0-.024-.908.742.742 0 0 0-.097-.177s-.049-.03-.073-.049a1.742 1.742 0 0 0-1.13.762z"/><path d="M152.394 22.56c-1.615-3.817-5.426-4.09-10.014-3.676-3.98.356-5.785.502-30.305 5.937-12.78 2.58-20.212 2.745-24.755 4.155 0 0-6.01-14.622-26.019-15.338-2.57 0-6.775-.506-8.932-2.648-2.29-1.7-6.172-1.48-9.373.457-2.514 1.338-4.53 3.437-5.03 5.417-.859 3.345-2.065 3.199-6.781 7.098-5.782 4.776-19.016 15.311-5.1 41.82l-1.334-2.656a75.24 75.24 0 0 0 20.886-6.166L26.7 66.94l.012.01c-13.584 7.868-15.58 17.013-15.58 17.013l6.295-.432c-.866 1.718-1.755 7.299-1.755 9.827-.17 14.327 4.216 26.108 13.026 35.027 9.614 9.73 24.057 15.312 39.606 15.312h.006c10.91 0 21.352-2.843 29.422-7.988a37.83 37.83 0 0 0 9.44-8.463c-31.182 19.4-59.696 2.888-65.436-13.605-5.605-16.082 4.497-28.611 17.24-25.51 17.94 4.362 27.323 1.9 30.187-6.87a16.21 16.21 0 0 0 10.436-.898c4.637-2.398 15.525-6.306 31.061-3.367-19.411 10.757-18.108 24.624-39.859 30.33-24.681 6.48-44.605-10.102-30.165-13.407 3.351-.622 3.814-2.809.165-2.145-8.646.479-19.735 5-9.365 22.208 0 0 1.49.597 2.12.006 0 0-3.975-8.724-.923-11.296 13.974 13.435 44.874 15.805 64.315-10.013A49.69 49.69 0 0 1 138.49 76.06c-11.835-2.851-25.086-3.168-32.45-.957-.859-11.728-1.56-14.902-3.786-19.886-.984-2.215-1.18-3.555 3.92-4.935 3.193-.866 16.259-3.912 27.479-9.03 7.997-3.652 13.462-7.695 14.933-9.145 1.115-1.103 5.404-5.813 3.808-9.547zm-110.93-3.247c2.507-9.297 9.821-3.692 9.821-3.692zm35.002 9.316a7.874 7.874 0 0 1 .22-1.81l1.035-.743.085-.06.013.103a1.303 1.303 0 0 0 .405.707l.32.261.89.753a2.237 2.237 0 0 1 .651.81l.116.381.036.177a2.102 2.102 0 0 1-1.108 2.2 1.324 1.324 0 0 1-1.097.088.993.993 0 0 1-.579-.619c-.158-.469.061-1.395 1.347-1.882a1.28 1.28 0 0 0 .122-.043.676.676 0 0 0-.11-.067 5.852 5.852 0 0 1-1.371-1.307.906.906 0 0 1-.073-.116c-.028.07-.046.131-.046.131a4.821 4.821 0 0 0-.14.759l-.082 1.106-.012.298-.073 1.036-.159 1.142a3.205 3.205 0 0 1-1.675 2.538l-.104.049.207-1.143.024-.015c.652-.4.866-1.328.994-2.7zm-1.486-3.376c.17-.353.28-.505.414-.566.036-.012.085-.03.134-.043a3.413 3.413 0 0 0-.153.847c.287-.043.433.019.506.19a1.277 1.277 0 0 1-.176 1.007.59.59 0 0 1-.311.271c-.347.15-.536.162-.597.022a2.77 2.77 0 0 1 .183-1.728zM62.154 23.95a4.414 4.414 0 0 1 .534-3.936 4.02 4.02 0 0 1 3.183-1.697c2.282-.125 4.417 2.056 6.056 6.382a4.734 4.734 0 0 0 .932-1.413l.89.317a5.86 5.86 0 0 1-1.469 2.065c1.073 2.93 1.31 7.497-.112 10.449a4.956 4.956 0 0 1-2.873 2.705 4.165 4.165 0 0 1-3.327-.323c-1.748-1-3.134-2.967-4.033-5.669a13.229 13.229 0 0 1 .22-8.88zm16.283 61.524c-3.055 1-6.644-1.054-9.27-4.874 1.56 1.194 3.32 1.581 4.649.841 2.126-1.17 2.406-4.725.627-7.933-1.77-3.205-4.929-4.85-7.043-3.674a3.39 3.39 0 0 0-1.584 2.12c-.84-5.611.853-10.497 4.38-11.661 4.247-1.39 9.53 3.12 11.806 10.077 2.275 6.95.685 13.71-3.565 15.104zm16.837-6.897c-2.878.768-6.068-1.106-8.426-4.527a3.63 3.63 0 0 0 3.54.488c2.008-.969 2.459-4.222.987-7.272-1.474-3.043-4.292-4.722-6.306-3.756a3.093 3.093 0 0 0-1.532 1.791c-.838-6.056 1.13-11.314 4.926-12.316 4.31-1.152 9.337 3.643 11.223 10.72 1.876 7.067-.098 13.727-4.412 14.872zM74.65 51.184c-10.046-1.365-16.563-1.291-10.101-5.568 0 0 15.03-11.686 32.02-13.62 15.75-1.972 40.77-7.528 40.77-7.528s-12.326 7.488-24.435 15.938C99.649 48.33 89.98 51.522 74.65 51.184zm47.238-11.1s24.575-17.13 25.47-15.909c2.221 3.031-10.199 10.73-25.47 15.908z"/><path d="M41.463 19.313l9.822-3.692s-7.314-5.605-9.822 3.692zM96.57 31.995c-16.99 1.935-32.021 13.62-32.021 13.62-6.462 4.278.055 4.204 10.101 5.57 15.33.337 25-2.855 38.254-10.779 12.109-8.45 24.435-15.938 24.435-15.938s-25.02 5.556-40.77 7.527zm25.318 8.088c15.271-5.179 27.691-12.877 25.47-15.908-.895-1.222-25.47 15.908-25.47 15.908z" fill="#df4601"/><path d="M24.75 63.126l1.335 2.656.591 1.173.025-.015 18.936-9.98a75.24 75.24 0 0 1-20.886 6.166zm45.447-2.833c-3.528 1.164-5.222 6.05-4.38 11.662a3.39 3.39 0 0 1 1.583-2.12c2.114-1.177 5.273.468 7.043 3.673 1.78 3.208 1.5 6.763-.627 7.933-1.328.74-3.09.353-4.649-.841 2.626 3.82 6.215 5.873 9.27 4.874 4.25-1.395 5.84-8.155 3.565-15.104-2.276-6.957-7.559-11.466-11.805-10.077zm18.266-7.308c-3.796 1.002-5.764 6.26-4.926 12.316a3.093 3.093 0 0 1 1.532-1.791c2.014-.966 4.832.713 6.306 3.756 1.471 3.05 1.02 6.303-.987 7.272a3.63 3.63 0 0 1-3.54-.488c2.358 3.421 5.548 5.295 8.426 4.527 4.314-1.145 6.288-7.805 4.412-14.872-1.886-7.077-6.913-11.872-11.223-10.72z" fill="#fff"/><path d="M65.968 38.5a4.165 4.165 0 0 0 3.327.322 4.956 4.956 0 0 0 2.873-2.705c1.422-2.952 1.185-7.519.112-10.449a5.86 5.86 0 0 0 1.469-2.065l-.89-.317a4.734 4.734 0 0 1-.932 1.413c-1.639-4.326-3.774-6.507-6.056-6.382a4.02 4.02 0 0 0-3.183 1.697 4.414 4.414 0 0 0-.534 3.936 13.229 13.229 0 0 0-.22 8.88c.9 2.702 2.286 4.67 4.034 5.67zm-1.474-17.47a1.837 1.837 0 0 1 1.578-.834c1.62-.007 3.059 3.095 3.82 5.696a3.443 3.443 0 0 1-3.04.177 4.487 4.487 0 0 1-2.45-2.3 2.992 2.992 0 0 1 .092-2.739zm-.344 5.831a5.373 5.373 0 0 0 6.016-.012 19.227 19.227 0 0 1 .78 5.026 8.016 8.016 0 0 1-.798 4.022 1.962 1.962 0 0 1-1.438 1.005c-2.15.417-3.881-2.785-4.551-5.109a9.162 9.162 0 0 1-.01-4.932z" fill-rule="evenodd" fill="#df4601"/><path d="M75.394 26.96a.59.59 0 0 0 .31-.272 1.277 1.277 0 0 0 .177-1.008c-.073-.17-.22-.232-.506-.189a3.413 3.413 0 0 1 .153-.847c-.049.012-.098.03-.134.043-.134.06-.244.213-.414.566a2.77 2.77 0 0 0-.183 1.728c.06.14.25.128.597-.022zm-.086 6.403l-.024.015-.207 1.143.103-.05a3.205 3.205 0 0 0 1.676-2.537l.159-1.142.073-1.036.012-.298.082-1.106a4.821 4.821 0 0 1 .14-.759s.018-.06.046-.13a.906.906 0 0 0 .073.115 5.852 5.852 0 0 0 1.37 1.307.676.676 0 0 1 .11.067 1.28 1.28 0 0 1-.121.043c-1.286.487-1.505 1.413-1.347 1.882a.993.993 0 0 0 .579.618 1.324 1.324 0 0 0 1.097-.088 2.102 2.102 0 0 0 1.108-2.2l-.036-.176-.116-.38a2.237 2.237 0 0 0-.652-.811l-.89-.753-.32-.261a1.303 1.303 0 0 1-.404-.707l-.013-.104-.085.061-1.035.743a7.874 7.874 0 0 0-.22 1.81l-.164 2.035c-.128 1.37-.342 2.3-.994 2.7zm3.882-3.936a.742.742 0 0 1 .097.177 1.172 1.172 0 0 1 .025.908.835.835 0 0 1-.521.505.63.63 0 0 1-.713-.128.685.685 0 0 1-.092-.749 1.742 1.742 0 0 1 1.13-.762c.025.019.074.049.074.049z" fill="#df4601"/></g></g></svg>