<svg xmlns="http://www.w3.org/2000/svg" viewBox="0 0 134.682 189.361"><g data-name="Layer 2"><g data-name="Layer 1" fill="#fdb827"><path d="M126.25 62.85c0-9.646 1.353-20.118 7.408-30.524-15.971-3.96-28.286-19.015-32.272-32.326-6.625 6.473-13.119 7.979-23.393 7.979L9.343 7.88 0 31.248a15.25 15.25 0 0 1 9.342 14.215v107.04A15.243 15.243 0 0 1 0 166.712l9.342 22.648h26.215l9.352-22.649a15.249 15.249 0 0 1-9.352-14.21v-42.196l42.436.02c10.274 0 16.768 2.533 23.393 9.004 4.323-13.312 17.325-23.235 33.296-27.193-6.055-10.406-8.432-19.643-8.432-29.288zM90.02 87.078H35.687V30.447h54.331c8.604 0 13.992 5.419 13.992 12.607V75.41c0 7.545-4.26 11.67-13.992 11.67z"/><path d="M46.965 188.368v-5.779h2.123v-1.258h-5.683v1.258h2.123v5.779h1.437zm11.752 0v-7.037h-2.475l-1.705 4.598h-.034l-1.635-4.598H50.38v7.037h1.437v-5.597h.027l1.972 5.597h1.389l2.041-5.597h.034v5.597h1.437z"/></g></g></svg>