<svg xmlns="http://www.w3.org/2000/svg" viewBox="0 0 276.463 189"><g data-name="Layer 2"><g data-name="Layer 1"><path fill="#c6011f" d="M111.918 90.514h7.921l2.075-1.733v-2.448h-9.996v4.181zm93.949 15.525h6.555l2.074-1.736v-17.97h-8.629v19.706z"/><path d="M276.463 93.121C276.463 38.493 215.449 0 150.296 0 97.994 0 61.738 30.949 42.023 54.387 14.953 86.566 0 90.667 0 90.667c20.966 18.368 30.828 27.709 40.56 38.24C68.011 158.613 90.75 189 155.394 189c76.99 0 121.068-50.26 121.068-95.879zm-22.966-2.64l8.603 7.183 4.23 4.234.04 6.376-11.14 9.133h-8.255l-2.258-1.902v2.005h-8.549l-4.235-4.237v-11.444h8.551l4.397 4.168 6.577.044 2.09-1.746v-2.397h-7.986l-13.63-11.417v-8.427l8.783-7.27h10.616l2.217 1.861v-1.86h8.552l4.23 4.23v11.44h-8.547l-4.365-4.138-6.31.008-2.207 1.84v2.316zm-96.761 91.82c-55.927 0-77.54-21.643-103.436-49.15-10.62-11.27-17.453-21.043-33.985-34.573l-3.534-8.172s6.957-2.269 33.391-33.581C69.12 33.205 103.865 6.973 149.346 6.973c46.299 0 92.6 21.346 110.536 56.763 0 0 1.81 4.911 2.55 6.386h-40.497c-8.152-12.887-32.425-27.734-64.59-27.734-53.48 0-74.13 35.095-74.13 52.514 0 5.992.772 15.253 4.048 21.406 12.97 19.595 39.841 30.323 65.563 30.323 27.862 0 49.786-10.964 67.673-24.553h38.245l2.682 6.265c-17.824 29.772-55.723 53.958-104.69 53.958zm34.856-95.968h-.06l-4.17-4.235h-.062v-7.314h27.15l8.647 7.27 4.237 4.23v21.749l-11.349 9.297h-24.452l-4.172-4.235h-.06v-7.051h.06v-.005h5.674V86.333zm-24.197 4.147l4.234 4.232v7.186h-10.581v4.14h8.62v-4.13h8.609l4.232 4.236v11.186H146.71l-4.178-4.235h-.054v-7.052h.054v-.004h5.68V86.333h-1.502l-4.178-4.235h-.054v-7.314h35.799l4.232 4.23v11.441h-8.606l-4.378-4.122h-8.477v4.147zm-53.98 15.563l4.238 4.235v7.052H97.576l-4.23-4.235v-7.051h5.734V86.333h-1.504l-4.23-4.235v-7.314h28.519l8.654 7.27 4.235 4.23v8.428l-6.373 5.225 2.638 6.106h2.387l4.234 4.235v7.052h-10.935l-4.233-4.235-4.85-11.289h-5.703v4.238z" fill="#c6011f"/><path d="M258.744 122.078c-17.821 29.774-55.724 53.966-104.687 53.966-55.928 0-77.917-23.986-103.816-51.492-10.62-11.272-17.262-21.46-34.46-34.146l3.534 8.172c16.532 13.53 23.364 23.302 33.985 34.574 25.896 27.506 47.509 49.15 103.436 49.15 48.967 0 86.866-24.187 104.69-53.959z"/><path d="M155.49 36.004c-54.697 0-76.171 36.36-76.171 53.772a47.318 47.318 0 0 0 7.944 26.532c-3.276-6.153-4.047-15.414-4.047-21.406 0-17.419 20.649-52.514 74.13-52.514 32.164 0 56.437 14.847 64.59 27.734h40.497c-.741-1.475-2.55-6.386-2.55-6.386H221.21c-8.15-12.884-33.556-27.732-65.72-27.732z"/><path d="M50.241 124.552c25.9 27.506 47.888 51.492 103.816 51.492 48.963 0 86.866-24.192 104.687-53.966H220.5c-17.887 13.589-39.81 24.553-67.673 24.553-25.722 0-52.592-10.728-65.563-30.323a47.318 47.318 0 0 1-7.944-26.532c0-17.412 21.474-53.772 76.17-53.772 32.165 0 57.572 14.848 65.721 27.732h38.672C241.945 28.319 195.645 6.973 149.346 6.973c-45.481 0-80.227 26.232-100.174 49.852-26.434 31.312-33.391 33.58-33.391 33.58 17.198 12.688 23.84 22.875 34.46 34.147z" fill="#fff"/><path d="M169.525 86.333l4.378 4.122h8.606V79.014l-4.232-4.23V86.22h-8.609v-4.122h-12.855v8.383h4.235v-4.148h8.477zm-26.993 26.762l4.178 4.235h35.799v-11.186l-4.232-4.235v11.186h-35.745zm14.281-15.431v8.375h4.235v-4.141h10.581v-7.186l-4.234-4.231v7.183h-10.582zm-14.281-15.566l4.178 4.235h1.502v-4.235h-5.68zm-49.186 0l4.23 4.235h1.504v-4.235h-5.734zm0 30.997l4.23 4.235h20.077v-7.052l-4.237-4.234v7.051h-20.07zm30.803-17.39l4.463 10.339h2.407l-2.638-6.107 6.373-5.225v-8.428l-4.235-4.23v8.427l-6.37 5.224zm-6.527 6.101l-1.82-4.23h-8.121v8.468h4.237v-4.238h5.704zm4.85 11.289l4.233 4.235h10.935v-7.052l-4.234-4.234v7.051h-10.934zm-10.554-26.762h9.996v-2.42l-2.174-1.815h-12.059v8.416h4.237v-4.181z"/><path fill="#fff" d="M156.813 82.098h12.855v4.122h8.609V74.784h-35.799v7.314h5.734v23.941h-5.68v.005h-.054v7.051h35.799v-11.186h-8.609v4.13h-12.855v-8.375h10.582v-7.183h-10.582v-8.383zm-49.132 15.478h8.121l1.82 4.23 4.85 11.29h10.934v-7.052h-4.794l-4.463-10.34 6.37-5.223v-8.427l-8.654-7.27H93.346v7.314h5.734v23.946h-5.734v7.051h20.07v-7.052h-5.735zm0-15.478h12.059l2.174 1.815v4.868l-2.075 1.733h-12.158z"/><path d="M187.361 82.098l4.172 4.235h1.502v-4.235h-5.674zm18.506 4.235h8.629v-2.42l-2.171-1.815H201.64v23.941h4.227V86.333z"/><path d="M214.45 113.095h-27.089l4.172 4.235h24.452l11.349-9.297V86.284l-4.237-4.23V106l-8.647 7.095zm36.937-15.431h-10.849l-8.605-7.183 13.629 11.417h7.986v-2.43l-2.161-1.804zm2.117 15.511H242.74l-2.256-1.9v1.998h-8.551l4.235 4.237h8.549v-2.005l2.258 1.902h8.255l11.14-9.133-.041-6.376-4.229-4.234.051 8.236-8.647 7.275zm-6.395-26.85l6.308-.008 4.366 4.138h8.546V79.014l-4.229-4.23V86.22h-8.552v-2.3l-2.199-1.84-8.475.012-2.208 1.844v4.753l2.148 1.792h2.087v-2.315l2.208-1.841zm-4.525 19.652l2.297.02-4.397-4.168v2.404l2.1 1.744z"/><path d="M187.361 106.039v.005h-.06v7.051h27.149l8.647-7.095V82.054l-8.647-7.27H187.3v7.314h5.735v23.94zm14.28-23.94h10.684l2.171 1.814v20.39l-2.074 1.736H201.64zm39.025 6.59v-4.753l2.208-1.844 8.475-.012 2.199 1.84v2.3h8.552V74.784h-8.552v1.862l-2.217-1.862h-10.616l-8.782 7.27v8.427l8.605 7.183h10.849l2.161 1.804v4.827l-2.09 1.746-6.577-.044-2.297-.02-2.1-1.744v-2.404h-8.551v11.444h8.551v-1.998l2.256 1.9h10.764l8.647-7.275-.051-8.236-8.603-7.183h-10.683l-2.148-1.792z" fill="#fff"/><path d="M260.667 168.148h-.042l-2.117-5.949h-3.219v9.105h1.86v-7.249h.046l2.546 7.245h1.79l2.637-7.245h.044v7.245h1.859v-9.101h-3.195l-2.209 5.949zm-14.404-4.319h2.747v7.475h1.859v-7.475h2.753v-1.63h-7.359v1.63z"/></g></g></svg>