<svg xmlns="http://www.w3.org/2000/svg" viewBox="0 0 198.163 213.358"><g data-name="Layer 2"><g data-name="Layer 1"><path d="M42.5 13.592S7.222 27.417 7.188 72.369c-.042 46.054 34.01 54.755 34.01 54.755s-17.53-22.017-17.479-57.35c.065-38.046 18.78-56.182 18.78-56.182z" fill="#c4ced4"/><path d="M162.45 198.403c-7.296-7.173-20.609-44.856-31.61-47.336 4.033-2.027 29.41-7.94 29.523-35.378-.113-29.662-27.586-39.274-55.06-39.274-5.838 0-16.483.433-27.301 1.074-13.734.859-20.775 1.502-31.238 2.36v10.089c14.754 0 17.848 3.433 17.848 19.53v19.194c-20.332-4.291-33.68-26.917-33.68-58.717 0-33.668 15.817-57.344 38.924-57.344a30.528 30.528 0 0 1 22.42 9.774c6.088 6.296 10.426 15.422 12.341 26.5h8.165l-1.554-45.4h-6.44c-.691 2.173-1.558 3.044-3.131 3.044C97.317 6.519 87.07 0 68.473 0c-20.158 0-37.364 7.387-49.35 20.42C6.955 33.67 0 51.7 0 73.42c0 14.989 4.342 31.93 14.257 45.399 9.9 13.467 25.893 23.241 49.171 23.241.401 0 .784-.03 1.184-.038v42.352c0 15.666-3.434 18.884-17.848 18.884v10.092h65.065v-10.092c-13.394 0-18.374-1.929-18.374-17.81v-28.762h9.099s33.539 56.676 34.452 56.672c2.374-.008 40.055-.026 40.055-.026v-10.036a19.144 19.144 0 0 1-14.612-4.893zM7.188 72.37c.034-44.952 35.31-58.777 35.31-58.777S23.785 31.728 23.72 69.774c-.052 35.333 17.479 57.35 17.479 57.35s-34.052-8.701-34.01-54.755zm79.28 130.858H71.64V88.198l14.827-1.025zm65.143-86.96c.075 22.597-27.566 28.29-27.566 28.29s10.21-6.154 10.218-28.036c.012-22.091-9.77-28.339-9.77-28.339s27.043 2.438 27.118 28.085zM93.455 146.17v-7.09c.652-.022 1.313-.06 1.948-.06a21.762 21.762 0 0 1 5.562.435 19.433 19.433 0 0 1 5.041 1.3l.528-1.517c5.034-14.77 9.209-30.844 10.596-43.231h-8.167q-6.228 16.696-15.508 25.028V86.72h8.411c16.652 0 25.417 11.158 25.417 28.11 0 22.11-8.924 31.768-33.828 31.34zm44.355 57.119s-19.1-34.154-27.879-46.388c0 0 6.444-1.02 9.588-1.927 2.867-.814 4.955-1.638 4.955-1.638 7.487 3.767 18.188 20.484 23.905 34.157 6.16 12.336 10.57 15.844 10.57 15.844z"/><path fill="#c4ced4" d="M71.641 203.227h14.827V87.172l-14.827 1.025v115.03zm62.623-86.707c-.008 21.883-10.218 28.036-10.218 28.036s27.641-5.692 27.566-28.289c-.075-25.647-27.119-28.085-27.119-28.085s9.783 6.248 9.771 28.339zm14.115 70.973c-5.717-13.673-16.418-30.39-23.905-34.157 0 0-2.088.824-4.955 1.638-3.144.907-9.588 1.927-9.588 1.927 8.78 12.234 27.88 46.388 27.88 46.388l21.138.048s-4.41-3.508-10.57-15.844z"/><path d="M195.456 205.654l-1.866 5.032h-.037l-1.789-5.032h-2.73v7.704h1.577v-6.129h.035l2.158 6.129h1.516l2.229-6.129h.045v6.129h1.569v-7.704h-2.707zm-14.047 1.372h2.322v6.332h1.569v-6.332h2.322v-1.372h-6.213v1.372z"/></g></g></svg>