<svg xmlns="http://www.w3.org/2000/svg" viewBox="0 0 154.92 225.789"><g data-name="Layer 2"><path d="M145.036 151.163V61.216c.56-7.68 2.477-10.149 8.06-15.361-12.447-4.66-26.703-19.191-34.383-34.551C80.324 31.05 37.54 31.05 5.196 2.53 1.984-.305-1.654-1.743.812 3.623c9.13 19.845 28.094 32.192 49.419 37.674-12.271 10.641-19.506 16.91-21.116 30.378-10.5.782-21.73 8.462-25.287 15.59-4.052 8.12 1.951 8.28 6.025 5.484 5.212-3.565 12.601-4.936 18.917-4.662l-.013 10.19c-10.492.782-20.825 8.462-24.381 15.59-4.052 8.117 1.95 8.276 6.02 5.486a31.18 31.18 0 0 1 18.374-5.212v30.714c0 12.068-6.03 18.096-9.603 21.39-3.554 3.292-1.595 6.727 3.574 4.66 10.841-4.339 22.104-14.621 24.67-30.282a48.887 48.887 0 0 0 12.623.022l-.004 4.21c0 12.068-6.034 18.096-9.597 21.39-.056.052-.091.107-.145.159-11.537 1.006-21.857 4.899-30.076 11.29-18.707 14.601-21.583 42.028-18.707 48.092.176.393 10.538-33.897 41.306-37.543 17.827-2.1 39.712 3.23 58.355 19.412 11.515-19.201 30.995-30.165 53.754-34.04-7.685-8.738-9.602-12.578-9.884-22.452zM120.362 50.242v26.947c-12.306 3.71-30.059 3.576-41.133-.395v-3.512c0-9.544.8-21.632 8.647-29.256a95.238 95.238 0 0 0 21.513-4.747zM79.229 86.12c11.074 3.967 28.827 4.104 41.133.393V112.7c-12.306-3.711-30.059-3.576-41.133.395zm-.732-41.509c-5.781 5.045-10.722 9.736-14.042 15.185a47.473 47.473 0 0 0-12.349-2.538 42.74 42.74 0 0 1 10.53-13.529 108.405 108.405 0 0 0 15.861.882zm-30.54 88.233V73.282a32.025 32.025 0 0 1 1.166-8.205 27.938 27.938 0 0 1 12.384 1.275 29.629 29.629 0 0 0-1.412 9.164l-.052 56.986a44.245 44.245 0 0 1-12.087.343zm47.176 42.994a89.85 89.85 0 0 0-34.597-9.568c9.835-6.611 18.693-18.267 18.693-33.756v-10.09c11.074-3.976 28.827-4.11 41.133-.397v39.01c-7.68 2.191-17.001 7.673-25.23 14.801zm59.787 15.855h-1.062v-3.934l-1.437 3.934h-.624l-1.438-3.934v3.934h-1.06v-4.875h1.711l1.1 2.883 1.095-2.883h1.715zm-6.212-3.934h-1.486v3.934h-1.17v-3.934h-1.481v-.941h4.137z" data-name="Layer 1" fill="#0c2c56"/></g></svg>