<svg xmlns="http://www.w3.org/2000/svg" viewBox="0 0 178.016 249.674"><g data-name="Layer 2"><g data-name="Layer 1"><path d="M27.321 20.855c-6.46 6.864-12.688 20.489-13.583 29.728-.288 2.953-.43 5.696-.43 8.266 0 9.257 1.895 16.351 6.027 23.258 5.187 8.649 13.392 15.761 23.738 20.559 9.756 4.528 23.806 10.835 25.485 11.52.57.229 1.318.58 2.107.966-3.216 2.334-5.111 3.707-6.647 4.823-8.697-1.985-19.624-.458-22.167.142-10.335 2.45-19.815 7.104-26.686 13.111-7.008 6.124-12.257 13.157-14.037 18.82-1.984 6.303-1.349 10.778 1.893 13.296 4.784 3.72 10.948-.086 12.97-1.346 4.157-2.629 11.809-7.438 21.453-8.87 8.385-1.243 19.639-.099 24.809 3.278v9.14c-1.25 1.136-2.57 2.348-2.57 2.348a6.928 6.928 0 0 0-2 4.927 7.497 7.497 0 0 0 .462 2.585 6.49 6.49 0 0 0 2.845 3.341c16.68 10.163 16.675 10.163 27.9 17.007-.162.06-.495.07-.62.122-1.479.651-4.912 2.802-4.912 8.794v24.414l14.51 13.863c3.218 3.22 6.334 3.745 8.379 3.613a8.801 8.801 0 0 0 6.472-3.49s9.662-12.396 15.643-20.078c4.436 6.865 11.425 17.672 11.425 17.672a3.192 3.192 0 0 0 .168.377c.81 1.74 2.493 5.357 6.459 6.384 1.757.458 4.537.507 7.76-1.841 4.336-3.152 14.429-11.023 16.16-12.756l.32-.318c1.202-1.18 3.012-2.973 3.012-5.925V205.28a7.442 7.442 0 0 0-4.423-6.91c-2.249-.902-4.824-.902-7.897 1.6-1.373 1.117-3.72 2.812-7.133 5.392-1.975-3.154-3.03-4.84-4.531-7.227 2.939-3.698 9.916-12.494 13.813-17.412.506.4 1.525 1.198 1.525 1.198l.177.117c4.1 2.731 7.23 1.718 8.723.863 4.076-2.3 4.158-7.426 4.082-8.94l.013-19.573-12.327-12.754a8.228 8.228 0 0 0-6.847-2.836 8.494 8.494 0 0 0-6.457 3.953c-.666.955-6.526 8.323-12.61 15.908v-25.61c.75-.754 1.529-1.542 1.529-1.542a11.328 11.328 0 0 0 3.601-7.672 7.449 7.449 0 0 0-.483-2.658c-.713-1.9-2.422-4.043-6.184-4.93a50.912 50.912 0 0 0 1.592-11.618c.004-.3.008-.6.008-.896 0-8.55-1.968-15.76-5.86-21.443-4.627-6.754-8.211-9.024-13.162-12.17l-1.28-.81c-5.772-3.685-36.037-19.59-37.324-20.267l-11.603-5.747c-7.592-3.843-8.14-6.531-8.14-7.99 0-.096.01-.176.013-.257.177-.884 2.239-4.07 6.573-4.07a35.752 35.752 0 0 1 13.41 2.101c9.265 3.108 9.53 6.884 9.532 8.281-.02.338-.306 4.248-.306 4.248l19.274 13.167 28.889-37.08L116.395 6.01l-3.105 3.108a21.872 21.872 0 0 1-2.078 1.921c-.455-.077-1.672-.277-1.672-.277l-5.172-1.964C96.228 5.509 82.596 0 70.198 0 48.513 0 37.123 10.3 27.32 20.855z" fill="#fff"/><path d="M30.227 23.658C24.382 29.87 18.546 42.625 17.733 50.95c-.265 2.792-.407 5.38-.407 7.799 0 8.498 1.714 14.959 5.439 21.178 4.747 7.928 12.327 14.47 21.91 18.919 10.2 4.731 23.845 10.846 25.342 11.456 2.796 1.138 7.033 3.443 8.15 4.637-1.465 1.062-12.637 9.168-13.346 9.681-7.348-2.386-18.908-1.058-22.185-.277-9.686 2.29-18.53 6.62-24.905 12.19C11.37 142.09 6.468 148.58 4.93 153.458c-1.397 4.438-1.244 7.355.456 8.674 1.643 1.281 4.302.756 8.126-1.61 4.082-2.58 12.566-7.905 23.119-9.477a57.31 57.31 0 0 1 21.58 1.198 35.577 35.577 0 0 1 8.144 3.827v13.51c-.62.561-3.824 3.49-3.824 3.49a2.669 2.669 0 0 0-.746 1.916 3.218 3.218 0 0 0 .197 1.11 2.441 2.441 0 0 0 1.07 1.186l39.76 24.24s9.449-7.215 11.092-8.468l1.92 3.196c-.864 1.052-11.049 13.503-12.308 15.038l-8.883-7.922c-2.213-2.038-3.936-1.735-4.765-1.37-1.506.655-2.364 2.444-2.364 4.893v22.637l13.28 12.696c2.103 2.101 3.938 2.453 5.116 2.38a4.648 4.648 0 0 0 3.385-1.858s15.357-19.707 19.357-24.845c1.513 2.336 14.706 22.745 14.706 22.745l.45.886c.655 1.413 1.651 3.541 3.669 4.066a5.021 5.021 0 0 0 4.203-1.162c4.321-3.148 14.267-10.931 15.68-12.35l.33-.323c.977-.971 1.754-1.736 1.754-2.916v-23.344a3.32 3.32 0 0 0-1.831-2.998c-.808-.348-2.122-.424-3.775 1.166.086-.071-8.012 6.045-10.749 8.118a9914.556 9914.556 0 0 1-8.611-13.733c.888-1.12 17.107-21.556 18.343-23.118l4.699 3.687c1.757 1.175 3.193 1.413 4.35.758 2.051-1.163 1.947-4.654 1.932-5.049v-18.087l-11.269-11.668a3.954 3.954 0 0 0-3.319-1.429 4.313 4.313 0 0 0-3.213 1.986c-.595.953-9.302 11.84-15.44 19.47a17.834 17.834 0 0 0-5.068-2.597V131.43l2.994-3.034a7.161 7.161 0 0 0 2.15-4.454 3.297 3.297 0 0 0-.212-1.192c-.653-1.74-2.667-2.612-5.986-2.612-.051 0-1.099.093-2.102.188a41.834 41.834 0 0 0 3.218-15.72c0-.274.007-.552.007-.825 0-7.69-1.724-14.103-5.128-19.072-4.136-6.042-7.072-7.905-11.943-10.993l-1.3-.83c-5.63-3.591-35.796-19.443-37.075-20.114l-11.534-5.714c-9.065-4.586-10.515-8.568-10.515-11.894 0-.15 0-.297.01-.45.092-2.74 4.016-8.077 10.844-8.077a39.848 39.848 0 0 1 14.786 2.329c8.385 2.812 12.463 6.888 12.465 12.468-.007.005-.15 1.984-.15 1.984l13.981 9.553 23.66-30.372-16.779-11.221-.644.64c-3.604 3.612-3.755 3.582-7.604 2.807a49.93 49.93 0 0 1-5.937-2.192c-7.872-3.18-21.045-8.507-32.641-8.507-20.014 0-30.254 9.24-39.82 19.532zm35.495 103.04l15.043-10.92v-.56c-.175-2.531-7.373-5.868-9.912-6.968-1.428-.615-15.289-6.79-25.246-11.413-9.182-4.258-16.426-10.504-20.947-18.05-3.305-5.515-6.165-12.677-4.72-27.627.756-7.784 6.426-20.169 11.903-25.99C41.067 15.245 50.92 6.34 70.047 6.34c11.163 0 24.09 5.225 31.812 8.345a48.552 48.552 0 0 0 6.333 2.313c4.24.846 5.367.692 8.94-2.784 1.244.827 11.675 7.812 13.31 8.904-1.329 1.701-19.755 25.36-20.918 26.856-1.425-.977-10.32-7.05-11.212-7.664l.055-.8c0-6.632-4.7-11.531-13.97-14.643a42.265 42.265 0 0 0-15.487-2.441c-8.332 0-12.927 6.65-13.056 10.212-.212 5.748 3.41 10.187 11.727 14.4.012.003 11.52 5.705 11.52 5.705.287.153 31.341 16.463 36.887 20.01l1.309.83c4.78 3.04 7.42 4.705 11.304 10.377 3.257 4.76 4.851 11.025 4.73 18.617-.067 4.429-.775 10.888-3.714 16.506l-.95 1.803 5.863-.545c2.103.005 3.53.437 3.814 1.186.366.978-.87 2.802-1.324 3.206l-3.828 3.894.078.356v32.655l.794.236c1.768.518 4.888 1.782 5.743 2.959l.848 1.167.907-1.129c1.572-1.948 15.408-19.14 16.297-20.554a2.117 2.117 0 0 1 1.527-.962 1.788 1.788 0 0 1 1.484.692s9.158 9.495 10.709 11.094v17.249c.002.082.005.172.005.261 0 1.08-.26 2.495-.815 2.805-.345.198-1.084-.037-1.963-.623-.002-.008-6.36-4.995-6.36-4.995l-20.686 26.071 10.722 17.104 12.779-9.664c.8-.76 1.276-.895 1.474-.81a1.185 1.185 0 0 1 .487.964v23.344c0 .26-.506.76-1.097 1.338l-.34.34c-1.236 1.24-10.891 8.831-15.42 12.12a3.012 3.012 0 0 1-2.348.811c-1.004-.26-1.702-1.762-2.217-2.858l-.591-1.152-16.397-25.36-21.278 27.303a2.46 2.46 0 0 1-1.774 1.009 4.765 4.765 0 0 1-3.413-1.736s-11.973-11.45-12.635-12.079V206.89c0-1.779.54-2.65 1.044-2.874.557-.243 1.453.127 2.39.99.015.017 10.619 9.471 10.619 9.471l14.753-18.03-3.994-6.652-11.85 9.05c-1.251-.761-38.541-23.49-38.603-23.528a.808.808 0 0 1-.076-.33.549.549 0 0 1 .099-.356l4.464-4.064.008-.498v-15.238l-.514-.325a29.38 29.38 0 0 0-9.778-4.436 59.498 59.498 0 0 0-21.96-1.216c-11.006 1.755-19.774 7.137-23.976 9.8-4.046 2.502-5.31 1.958-5.602 1.732-.616-.48-.907-2.406.304-6.264 1.398-4.447 6.166-10.7 12.143-15.928 6.113-5.335 14.62-9.49 23.96-11.699 3.672-.872 15.093-2.007 21.552.346l.557.198z" fill="#c4ced4"/><path d="M169.924 242.393h-1.668v4.544h-1.128v-4.544h-1.662v-.986h4.458zm7.563 4.544h-1.128v-4.397h-.029l-1.6 4.397h-1.086l-1.55-4.397h-.025v4.397h-1.129v-5.53h1.957l1.285 3.612h.024l1.336-3.612h1.945zm-7.705-72.203v-16.591l-10.37-9.327-28.726 35.67-4.037-6.435c3.495-2.615 8.006-5.97 8.51-6.221.83-.418 2.9-1.656 3.934-1.656.938 0-1.452-4.15-8.293-4.15v-36.698l3.94-4.357s-4.79.756-7.053.066a17.189 17.189 0 0 1-2.263-1.044 30.87 30.87 0 0 0 3.305-7.104c4.708-14.867 1.626-28.592-9.537-37.053-7.834-5.936-40.015-22.219-40.015-22.219s-19.47-9.543-21.568-11.64c-1.5-1.501-4.558-3.836-4.558-11.196 0-4.391 4.887-9.225 6.999-10.22 3.367-1.6 4.466-2.351 11.292-2.452a38.411 38.411 0 0 1 7.934.926c4.25.45 14.306 3.76 19.494 10.785 1.984 1.984 2.38 7.804 2.38 7.804l8.087 5.18L126.86 23.79l-9.537-6.427c-2.696 2.905-7.876 3.107-9.953 2.075-2.07-1.038-19.867-7.52-22.394-8.325-4.769-1.526-15.134-2.665-20.729-1.838-5.6.83-14.792 2.534-21.982 10.163-8.394 8.912-8.497 16.064-8.497 19.904a28.52 28.52 0 0 0 8.29 20.702c9.713 9.708 24.467 15.786 27.784 17.623 5.895 3.262 24.478 12.981 27.16 14.542 11.408 6.636 15.759 13.687 14.518 22.602-.058.439-.2.847-.296 1.271-4.995-2.938-12.026-7.367-14.843-10.187 0 0-1.706 1.817-2.799 2.905l-8.276 6.198a48.903 48.903 0 0 0 .916-11.588c-.205-.83-.827-7.469-6.634-11.608A175.54 175.54 0 0 0 59.27 79.978c-3.248-1.601-13.814-7.992-18.867-12.199 0 0-8.709-8.117-10.054-13.095-2.596-5.704-2.698-19.182-1.351-20.529 0 0-3.317 3.732-5.598 11.202a44.655 44.655 0 0 0-1.864 11.61c0 5.387.93 14.821 6.838 22.804A46.398 46.398 0 0 0 39.39 90.147a80.357 80.357 0 0 0 10.963 5.794c1.452 1.036 15.136 6.814 16.38 7.438 1.243.621 7.516 3.535 8.85 4.252 4.722 2.526 7.153 4.147 8.647 8.17l-14.183 10.623a6.527 6.527 0 0 1 .624 2.902v1.342a40.372 40.372 0 0 0-5.8-1.52c-9.332-1.585-15.009-1.488-22.392.332-8.195 2.02-16.798 5.332-24.886 13.415-9.128 9.128-9.017 15.248-9.017 15.248l9.121-5.378c7.626-4.29 17.672-6.851 24.782-6.851 16.95 0 25.745 4.895 28.192 7.615v16.438c0 3.263-.982 3.674-1.708 4.299-.277.242-.52.257-1.503.93a6.95 6.95 0 0 1 1.556.781c.826.62 33.107 20.113 33.107 20.113l12.498-9.156 6.174 9.83-17.154 21.303-11.817-10.784v20.114l13.476 12.44 23.793-29.868 19.537 31.11 15.76-12.645v-19.903l-12.645 9.536-12.82-20.443 23.183-29.11zm-80.55-44.786l7.359-5.39a48.44 48.44 0 0 0 6.698 4.524l-.27.244s-8.49 7.264-13.788 8.012zm12.891 47.275l-12.892-7.881V149.81c5.4-.957 18.575-7.236 25.396-14.058.088 1.293.06 14.342.03 23.183l-7.905-12.61-12.064 8.573v15.34l6.672-4.42 5 7.962z"/></g></g></svg>