<svg xmlns="http://www.w3.org/2000/svg" viewBox="0 0 233.701 243.498"><g data-name="Layer 2"><g data-name="Layer 1" fill="#132448"><path d="M217.884 207.41c-3.433 4.125-23.711 24.055-41.237 36.088-2.904-41.876-23.046-68.823-56.014-91.785l-.008.023c-1.028 22.34-1.144 41.945-.344 55.675.688 11.853 6.365 19.07 15.638 26.634-12.03 2.749-47.257 2.232-59.283-1.548 1.368-1.032 16.25-9.265 17.526-36.084.908-19.254 1.028-33.511.344-57.054l-1.396-6.04c-16.062-11.82-30.06-23.96-48.093-43.447 16.498 43.647-4.473 97.948-6.869 117.879-.82 6.704-2.932 20.282-2.244 34.195C30.755 238.858 9.957 225.281 0 212.223c29.035-49.661 50.002-98.466 4.46-142.801 8.597-12.888 21.31-24.4 31.444-29.384 10.661 30.76 34.028 55.16 50.873 65.814C73.887 58.08 57.37 42.447 46.905 37.116 53.77 21 76.465 4.295 88.497 0c-5.508 17.87-5.972 29.555-.523 48.627 5.5 19.249 14.093 42.619 23.714 60.147 5.165-8.937 23.375-46.741 28.18-63.237 4.82-16.498 4.82-31.275 2.755-41.93 10.482 5.328 32.996 26.464 38.149 36.775-11.001 2.405-16.162 8.037-22.683 19.247-6.709 11.51-23.718 54.987-33.163 73.718 9.969 8.592 27.322 19.418 41.064 35.911-15.122-59.454.344-104.647 20.278-118.222 9.281 2.748 21.134 10.309 29.731 19.246-32.307 13.575-30.227 54.836-30.41 57.908-1.47 23.63 8.072 65.651 25.974 75.912a56.429 56.429 0 0 0 6.32 3.309c-3.432 4.124-23.71 24.054-41.236 36.087"/><path d="M218.348 184.836h-3.385v9.225h-2.292v-9.225h-3.388v-2h9.065zm15.353 9.225h-2.284v-8.929h-.056l-3.256 8.93h-2.212l-3.145-8.93h-.056v8.93h-2.284v-11.226h3.964l2.609 7.333h.056l2.724-7.333h3.94z"/></g></g></svg>