<svg id="Layer_2" xmlns="http://www.w3.org/2000/svg" viewBox="0 0 172.8 108"><defs><style>.cls-3{fill:#85361b}.cls-4{fill:#84371b}.cls-6{fill:#f5b41a;stroke:#85361b;stroke-width:.24px}</style></defs><g id="DESIGN"><path style="fill:#5887da" d="M0 0h172.8v108H0z"/><path style="fill:#fff" d="M0 36h172.8v36H0z"/><g id="rays"><path id="ray1" class="cls-6" d="m85.72 54.28 6.15 13.39s.11.26.28.19c.17-.07.06-.33.06-.33l-5.12-13.81m-.15 5.21c-.07 2.04 1.18 3.16 1.01 4.97-.16 1.82.84 2.85 1.07 3.55.23.71-.25 1.13-.04 1.23.21.1.66-.46.51-1.46-.15-1.01-.91-1.3-.73-3.53.18-2.22-.91-2.74-.64-4.76"/><path id="ray1-2" class="cls-6" d="m85.66 54 .55 14.72s0 .28.18.28.18-.28.18-.28L87.12 54m-2.13 4.76c-.85 1.85-.12 3.37-.97 4.98-.85 1.62-.32 2.95-.37 3.69-.06.74-.66.95-.51 1.12.15.17.79-.17 1.04-1.16.25-.99-.34-1.55.67-3.54 1.02-1.98.21-2.88 1.23-4.65"/><path id="ray1-3" class="cls-6" d="M85.72 53.72 80.6 67.53s-.11.26.06.33c.17.07.28-.19.28-.19l6.15-13.39m-3.79 3.58c-1.49 1.39-1.4 3.06-2.8 4.23-1.4 1.17-1.42 2.6-1.76 3.27-.34.66-.98.62-.9.84.08.22.79.15 1.4-.67.61-.82.28-1.57 1.97-3.01 1.7-1.44 1.29-2.58 2.91-3.82"/><path id="ray1-4" class="cls-6" d="m85.88 53.48-10.02 10.8s-.2.2-.07.33.33-.07.33-.07l10.8-10.02m-4.87 1.86c-1.91.71-2.47 2.3-4.21 2.84-1.74.54-2.31 1.86-2.88 2.35-.56.48-1.14.2-1.15.43-.01.23.68.44 1.55-.08s.86-1.34 2.98-2.03c2.12-.68 2.18-1.89 4.16-2.42"/><path id="ray2" class="cls-3" d="M87.33 59.27c.1 1.96 1.21 2.82.99 4.6.48-1.41-.67-2.5-.61-4.58m-1.65-5.13 4.21 9.2-3.53-9.48"/><path id="ray2-2" class="cls-3" d="M85.24 59.23c-.66 1.84.04 3.07-.85 4.63.98-1.12.33-2.57 1.19-4.47m.44-5.37.37 10.11.37-10.11"/><path id="ray2-3" class="cls-3" d="M83.33 58.39c-1.31 1.45-1.14 2.85-2.56 3.95 1.33-.66 1.29-2.25 2.81-3.67m2.46-4.8-3.53 9.48 4.21-9.2"/><path id="ray2-4" class="cls-3" d="M81.89 56.88c-1.77.84-2.14 2.19-3.87 2.68 1.48-.1 2.05-1.58 4-2.32m4.11-3.49-6.89 7.41 7.41-6.89"/></g><g id="rays-2"><path id="ray1-5" class="cls-6" d="m86.12 53.32-13.39 6.15s-.26.11-.19.28.33.06.33.06l13.81-5.12m-5.21-.15c-2.04-.07-3.16 1.18-4.97 1.01-1.82-.16-2.85.84-3.55 1.07-.71.23-1.13-.25-1.23-.04-.1.21.46.66 1.46.51 1.01-.15 1.3-.91 3.53-.73 2.22.18 2.74-.91 4.76-.64"/><path id="ray1-6" class="cls-6" d="m86.4 53.26-14.72.55s-.28 0-.28.18.28.18.28.18l14.72.55m-4.76-2.13c-1.85-.85-3.37-.12-4.98-.97-1.62-.85-2.95-.32-3.69-.37-.74-.06-.95-.66-1.12-.51-.17.15.17.79 1.16 1.04.99.25 1.55-.34 3.54.67 1.98 1.02 2.88.21 4.65 1.23"/><path id="ray1-7" class="cls-6" d="M86.68 53.32 72.87 48.2s-.26-.11-.33.06c-.07.17.19.28.19.28l13.39 6.15m-3.58-3.79c-1.39-1.49-3.06-1.4-4.23-2.8-1.17-1.4-2.6-1.42-3.27-1.76-.66-.34-.62-.98-.84-.9-.22.08-.15.79.67 1.4.82.61 1.57.28 3.01 1.97 1.44 1.7 2.58 1.29 3.82 2.91"/><path id="ray1-8" class="cls-6" d="m86.92 53.48-10.8-10.02s-.2-.2-.33-.07.07.33.07.33l10.02 10.8m-1.86-4.87c-.71-1.91-2.3-2.47-2.84-4.21-.54-1.74-1.86-2.31-2.35-2.88-.48-.56-.2-1.14-.43-1.15-.23-.01-.44.68.08 1.55s1.34.86 2.03 2.98 1.89 2.18 2.42 4.16"/><path id="ray2-5" class="cls-3" d="M81.13 54.93c-1.96.1-2.82 1.21-4.6.99 1.41.48 2.5-.67 4.58-.61m5.13-1.65-9.2 4.21 9.48-3.53"/><path id="ray2-6" class="cls-3" d="M81.17 52.84c-1.84-.66-3.07.04-4.63-.85 1.12.98 2.57.33 4.47 1.19m5.37.44-10.11.37 10.11.37"/><path id="ray2-7" class="cls-3" d="M82.01 50.93c-1.45-1.31-2.85-1.14-3.95-2.56.66 1.33 2.25 1.29 3.67 2.81m4.8 2.46-9.48-3.53 9.2 4.21"/><path id="ray2-8" class="cls-3" d="M83.52 49.49c-.84-1.77-2.19-2.15-2.68-3.87.1 1.49 1.58 2.05 2.32 4m3.49 4.11-7.41-6.89 6.89 7.41"/></g><g id="rays-3"><path id="ray1-9" class="cls-6" d="m87.08 53.72-6.15-13.39s-.11-.26-.28-.19c-.17.07-.06.33-.06.33l5.12 13.81m.15-5.21c.07-2.04-1.18-3.16-1.01-4.97.16-1.82-.84-2.85-1.07-3.55-.23-.71.25-1.13.04-1.23-.21-.1-.66.46-.51 1.46.15 1.01.91 1.3.73 3.53-.18 2.22.91 2.74.64 4.76"/><path id="ray1-10" class="cls-6" d="m87.14 54-.55-14.72s0-.28-.18-.28-.18.28-.18.28L85.68 54m2.13-4.76c.85-1.85.12-3.37.97-4.98.85-1.62.32-2.95.37-3.69.06-.74.66-.95.51-1.12-.15-.17-.79.17-1.04 1.16-.25.99.34 1.55-.67 3.54-1.02 1.98-.21 2.88-1.23 4.65"/><path id="ray1-11" class="cls-6" d="m87.08 54.28 5.12-13.81s.11-.26-.06-.33c-.17-.07-.28.19-.28.19l-6.15 13.39m3.79-3.58c1.49-1.39 1.4-3.06 2.8-4.23 1.4-1.17 1.42-2.6 1.76-3.27.34-.66.98-.62.9-.84-.08-.22-.79-.15-1.4.67-.61.82-.28 1.57-1.97 3.01-1.7 1.44-1.29 2.58-2.91 3.82"/><path id="ray1-12" class="cls-6" d="m86.92 54.52 10.02-10.8s.2-.2.07-.33-.33.07-.33.07l-10.8 10.02m4.87-1.86c1.91-.71 2.47-2.3 4.21-2.84 1.74-.54 2.31-1.86 2.88-2.35.56-.48 1.14-.2 1.15-.43.01-.23-.68-.44-1.55.08s-.86 1.34-2.98 2.03c-2.12.68-2.18 1.89-4.16 2.42"/><path id="ray2-9" class="cls-3" d="M85.47 48.73c-.1-1.96-1.21-2.82-.99-4.6-.48 1.41.67 2.5.61 4.58m1.65 5.13-4.21-9.2 3.53 9.48"/><path id="ray2-10" class="cls-3" d="M87.56 48.77c.66-1.84-.04-3.07.85-4.63-.98 1.12-.33 2.57-1.19 4.47m-.44 5.37-.37-10.11-.37 10.11"/><path id="ray2-11" class="cls-3" d="M89.47 49.61c1.31-1.45 1.14-2.85 2.56-3.95-1.33.66-1.29 2.25-2.81 3.67m-2.46 4.8 3.53-9.48-4.21 9.2"/><path id="ray2-12" class="cls-3" d="M90.91 51.12c1.77-.84 2.14-2.19 3.87-2.68-1.49.1-2.05 1.58-4 2.32m-4.11 3.49 6.89-7.41-7.41 6.89"/></g><g id="rays-4"><path id="ray1-13" class="cls-6" d="m86.68 54.68 13.39-6.15s.26-.11.19-.28-.33-.06-.33-.06l-13.81 5.12m5.21.15c2.04.07 3.16-1.18 4.97-1.01 1.82.16 2.85-.84 3.55-1.07.71-.23 1.13.25 1.23.04.1-.21-.46-.66-1.46-.51-1.01.15-1.3.91-3.53.73-2.22-.18-2.74.91-4.76.64"/><path id="ray1-14" class="cls-6" d="m86.4 54.74 14.72-.55s.28 0 .28-.18-.28-.18-.28-.18l-14.72-.55m4.76 2.13c1.85.85 3.37.12 4.98.97 1.62.85 2.95.32 3.69.37.74.06.95.66 1.12.51.17-.15-.17-.79-1.16-1.04-.99-.25-1.55.34-3.54-.67-1.98-1.02-2.88-.21-4.65-1.23"/><path id="ray1-15" class="cls-6" d="m86.12 54.68 13.81 5.12s.26.11.33-.06c.07-.17-.19-.28-.19-.28l-13.39-6.15m3.58 3.79c1.39 1.49 3.06 1.4 4.23 2.8 1.17 1.4 2.6 1.42 3.27 1.76.66.34.62.98.84.9.22-.08.14-.79-.67-1.4-.82-.61-1.57-.28-3.01-1.97-1.44-1.7-2.58-1.29-3.82-2.91"/><path id="ray1-16" class="cls-6" d="m85.88 54.52 10.8 10.02s.2.2.33.07-.07-.33-.07-.33l-10.02-10.8m1.86 4.87c.71 1.91 2.3 2.47 2.84 4.21.55 1.74 1.86 2.31 2.35 2.88.48.56.2 1.14.43 1.15.23.01.44-.68-.08-1.55s-1.34-.86-2.03-2.98-1.89-2.18-2.42-4.16"/><path id="ray2-13" class="cls-3" d="M91.67 53.07c1.96-.1 2.82-1.21 4.6-.99-1.41-.48-2.5.67-4.58.61m-5.13 1.65 9.2-4.21-9.48 3.53"/><path id="ray2-14" class="cls-3" d="M91.63 55.16c1.84.66 3.07-.04 4.63.85-1.12-.98-2.57-.33-4.47-1.19m-5.37-.44 10.11-.37-10.11-.37"/><path id="ray2-15" class="cls-3" d="M90.79 57.07c1.45 1.31 2.85 1.14 3.95 2.56-.66-1.33-2.25-1.29-3.67-2.81m-4.8-2.46 9.48 3.53-9.2-4.21"/><path id="ray2-16" class="cls-3" d="M89.28 58.51c.84 1.77 2.19 2.15 2.68 3.88-.1-1.49-1.58-2.05-2.32-4m-3.49-4.11 7.41 6.89-6.89-7.41"/></g><path d="M86.4 48c3.31 0 6 2.69 6 6s-2.69 6-6 6-6-2.69-6-6 2.69-6 6-6Z" style="fill:#f5b41a;stroke:#85361b;stroke-width:.32px"/><path id="loweyecontour" class="cls-4" d="M88.45 52.72c-.41 0-.8.18-1.03.55.46.42 1.48.46 2.17-.05-.3-.32-.73-.5-1.14-.5Zm0 .09c.4 0 .77.18.82.36-.46.51-1.2.46-1.66.09.2-.32.53-.45.84-.45Z"/><path id="uppalpebra" class="cls-3" d="M88.52 52.43c-.6 0-.74.14-1.02.37-.28.23-.42.18-.46.23-.05.05 0 .18.09.14.09-.05.28-.14.55-.37.28-.23.55-.23.83-.23.83 0 1.29.69 1.38.65.09-.05-.46-.78-1.38-.78Z"/><path id="eyebrow_nose" class="cls-3" d="M90.18 52.71c-1.06-.92-2.4-1.06-3.14-.37-.18.24-.3.5-.34.77-.09.53.07 1.09.48 1.68-.05 0-.14.05-.18.09-.37-.7-.5-1.42-.38-2.11.03-.18.08-.35.14-.53 1.02-.83 2.4-.92 3.42.46Z"/><path id="pupil" class="cls-3" d="M88.43 52.75c.23 0 .42.19.42.42s-.19.42-.42.42-.42-.19-.42-.42.19-.42.42-.42Z"/><path id="lowpalpebra" class="cls-3" d="M89.63 53.45c-.78.6-1.57.55-2.03.28-.46-.28-.46-.37-.37-.37s.18.09.55.28c.37.18.92.18 1.85-.18Z"/><path class="cls-3" d="M85.48 54.83c-.2.04-.34.21-.34.41 0 .23.19.41.42.41.14 0 .26-.06.34-.18.16.12.38.13.5.14h.05c.12 0 .34-.01.5-.14a.417.417 0 0 0 .76-.23c0-.2-.14-.38-.34-.41a.28.28 0 0 1-.1.54c-.16 0-.27-.12-.28-.26-.04.09-.22.36-.57.37a.665.665 0 0 1-.57-.37c0 .15-.13.26-.28.26s-.28-.12-.28-.28c0-.12.07-.22.18-.26ZM85.93 56.06c-.46 0-.64.42-1.06.7.23-.09.41-.27.74-.46.32-.18.6.04.78.04.18 0 .46-.22.78-.04s.51.37.74.46c-.42-.28-.6-.7-1.07-.7-.09 0-.27.05-.46.14a1.26 1.26 0 0 0-.46-.14Z"/><path class="cls-3" d="M85.78 56.6c-.18 0-.42.04-.77.15.83-.18 1.01.09 1.38.09.37 0 .55-.28 1.38-.09-.92-.28-1.11-.09-1.38-.09-.17 0-.31-.07-.61-.05Z"/><path class="cls-3" d="M85.05 56.75h-.18c.97.09.5.65 1.52.65s.56-.56 1.53-.65c-1.02-.09-.69.51-1.53.51-.78 0-.54-.52-1.34-.51ZM87.23 58.25c0-.46-.37-.83-.83-.83s-.83.37-.83.83c.09-.38.44-.66.83-.66s.74.27.83.66Z"/><path id="eyebrow_nose-2" class="cls-3" d="M82.67 52.71c1.06-.92 2.4-1.06 3.14-.37.18.24.3.5.34.77.09.53-.07 1.09-.48 1.68.05 0 .14.05.18.09.37-.7.5-1.42.38-2.11-.03-.18-.08-.35-.14-.53-1.02-.83-2.4-.92-3.42.46Z"/><path id="uppalpebra-2" class="cls-3" d="M84.33 52.43c.6 0 .74.14 1.02.37.28.23.42.18.46.23.05.05 0 .18-.09.14-.09-.05-.28-.14-.55-.37-.28-.23-.55-.23-.83-.23-.83 0-1.29.69-1.38.65-.09-.05.46-.78 1.38-.78Z"/><path id="loweyecontour-2" class="cls-4" d="M84.3 52.72c-.41 0-.8.18-1.03.55.46.42 1.48.46 2.17-.05-.3-.32-.73-.5-1.14-.5Zm0 .09c.4 0 .77.18.82.36-.46.51-1.2.46-1.66.09.2-.32.53-.45.84-.45Z"/><circle id="pupil-2" class="cls-3" cx="84.36" cy="53.17" r=".42"/><path id="lowpalpebra-2" class="cls-3" d="M83.22 53.45c.78.6 1.57.55 2.03.28.46-.28.46-.37.37-.37s-.18.09-.55.28c-.37.18-.92.18-1.85-.18Z"/></g></svg>