<svg xmlns="http://www.w3.org/2000/svg" fill="none" viewBox="0 0 600 361"><g clip-path="url(#a)"><path fill="#003876" d="M600 0H0v360.014h600z"/><path fill="#fff" d="m160.374 248.539 31.789-12.116-18.674 28.225 28.938 17.249-33.642 2.922 4.633 33.571-23.521-24.59-23.308 24.59 4.491-33.571-33.5-2.922 28.796-17.249-18.532-28.225 31.646 12.116 10.407-32.288zM459.869 49.751l15.111-5.702-8.838 13.4 13.685 8.125L463.861 67l2.209 15.894-11.119-11.618-11.119 11.618L446.042 67l-15.895-1.426 13.614-8.125-8.767-13.4 14.968 5.702 4.989-15.253zM459.869 289.808l15.111-5.702-8.838 13.328 13.685 8.197-15.966 1.425 2.209 15.824-11.119-11.618-11.119 11.618 2.21-15.824-15.895-1.425 13.614-8.197-8.767-13.328 14.968 5.702 4.989-15.325zM539.917 123.235l15.111-5.702-8.91 13.329 13.757 8.196-15.966 1.355 2.209 15.894-11.19-11.618-11.048 11.618 2.139-15.894-15.895-1.355 13.685-8.196-8.838-13.329 15.039 5.702 4.918-15.324zM369.92 147.256l15.039-5.702-8.838 13.4 13.685 8.125-15.894 1.426 2.138 15.894-11.119-11.618-11.048 11.618 2.138-15.894-15.894-1.426 13.614-8.125-8.767-13.4 15.039 5.702 4.918-15.253zM490.95 179.472l-3.492 10.834-11.476.071 9.338 6.7-3.493 10.834 9.195-6.771 9.266 6.771-3.564-10.905 9.194-6.7-11.404.071zM300 152.53l-54.526-32.715h54.455V60.157h-54.455L300 27.513V0h-45.83l-74.341 44.619V0h-59.658v44.619L45.831 0H0v27.441l54.597 32.716H0v59.658h54.526L0 152.53v27.441h45.688l74.483-44.618v44.618h59.658v-44.618l74.412 44.618H300z"/><path fill="#e03a3e" d="M300 107.983V71.989H167.997V0h-35.994v71.989H0v35.994h132.003v71.988h35.994v-71.988z"/><path fill="#e03a3e" d="M231.076 119.886h-31.219L300 179.972v-17.391zM0 0v17.391l68.995 42.695h31.219zM179.902 60.086h19.886L300.002 0h-31.29l-88.81 54.669zM120.1 119.886h-19.886L0 179.972h31.219l88.881-54.669z"/></g><defs><clipPath id="a"><path fill="#fff" d="M0 0h600v360.014H0z"/></clipPath></defs></svg>