<svg xmlns="http://www.w3.org/2000/svg" fill="none" viewBox="0 0 600 361"><g clip-path="url(#a)"><path fill="#005941" d="M600 0H0v360.042h600z"/><path fill="#fff236" d="M548.679 179.995 299.973 43.686 51.268 180.048l248.705 136.255z"/><path fill="#fff" d="M390 180.048c0 49.73-40.241 89.97-89.971 89.97s-90.024-40.24-90.024-89.97c0-49.731 40.293-90.024 90.024-90.024 49.73 0 89.971 40.293 89.971 90.024"/><path fill="#00529b" d="M212.603 158.576c-1.644 6.892-2.598 14.049-2.598 21.472 0 49.73 40.293 89.971 90.024 89.971 39.074 0 72.316-24.918 84.775-59.698-51.268-49.041-122.63-59.486-172.201-51.692"/><path fill="#00529b" d="M388.727 195.476a93 93 0 0 0 1.272-15.481c0-49.678-40.24-90.024-89.971-90.024-36.688 0-68.233 21.896-82.283 53.388 49.625-7.369 120.138 3.394 170.982 52.117"/><path fill="#005941" d="m265.142 145.851-6.574-.583h-.106l-.053.106-.637 8.005v.106l.106.053 6.628.53h.159v-.053l.159-1.378v-.159h-.159l-4.719-.424.159-1.909 4.295.371.106.053v-.159l.159-1.325v-.159h-.159l-4.295-.371.159-1.538 4.613.424h.159v-.106l.106-1.378v-.106zM277.653 147.442l-2.597-.371h-.16v.106l-2.173 4.772-.743-5.196v-.106h-.159l-2.597-.424h-.106v.159l-1.167 8.006v.053h.106l1.644.318h.106l.053-.159.742-5.408.742 5.673v.106l.106.053 1.697.212h.106l.053-.106 2.174-5.196-.69 5.355-.053.159h.106l1.644.212h.159v-.106l1.113-7.953v-.106zM290.962 151.259l-5.514-1.166-.159-.053v.106l-1.431 6.786-.053.106.159.053 5.567 1.167.159.053v-.106l.265-1.167v-.106l-.106-.053-3.977-.901.318-1.538 3.606.796h.106l.053-.106.212-1.114v-.159h-.053l-3.658-.795.318-1.272 3.87.848.106.053.053-.159.212-1.114.053-.159zM333.005 163.666c-1.325-.584-2.491-.637-3.552-.212-1.007.371-1.802 1.166-2.333 2.279-.795 1.856-.583 4.454 2.492 5.832 1.644.743 3.287.583 4.03.371h.106v-.053l1.272-2.916v-.106l-.053-.053-3.499-1.537h-.159v.106l-.583 1.219v.106l.106.106 1.749.743-.318.742c-.318.106-1.166.159-2.067-.212-1.962-.849-1.432-2.704-1.114-3.446.318-.69.636-1.114 1.114-1.379.795-.424 1.59-.212 2.173 0 .424.212 1.326.742 1.22 1.803v.106h.053l1.802.424h.106v-.106c.265-1.591-.583-2.916-2.545-3.764M355.537 175.223l-5.673-3.181-.106-.106-.106.106-3.923 7.051-.053.106.106.053 5.885 3.287.106.053.053-.106.689-1.166.053-.106-.106-.106-4.188-2.386.954-1.591 3.711 2.068.159.053.053-.106.637-1.166.106-.106-.16-.107-3.764-2.12.689-1.273 4.136 2.227.106.106.053-.106.689-1.219.053-.053zM361.577 178.722c-2.704-1.696-3.87-.106-4.082.265-1.008 1.538.53 3.075 1.113 3.658 1.22 1.22 1.538 1.591 1.22 2.068-.053.106-.266.265-.478.265-.265.106-.742.106-1.378-.318-1.272-.795-.954-1.696-.795-2.174v-.212l-1.538-.795h-.106l-.053.106c-.795 1.75-.212 3.234 1.697 4.401.742.477 1.378.689 2.014.848.796.106 1.856-.159 2.492-1.114 1.114-1.749-.318-3.128-1.325-4.082-1.061-1.007-1.326-1.431-1.114-1.749.265-.425 1.061-.107 1.485.159 1.06.636.848 1.325.689 1.643v.106h.053l1.538.954h.106l.053-.053c.848-1.431.212-2.862-1.644-4.029M370.329 184.342c-1.06-.689-2.015-.954-2.757-.795-.795.106-1.166.583-1.378.848-1.008 1.538.371 3.075.954 3.764 1.166 1.273 1.485 1.644 1.166 2.068a.77.77 0 0 1-.477.318c-.265.053-.742 0-1.378-.424-1.22-.848-.796-1.802-.689-2.227l.106-.106-.106-.106-1.538-.848h-.106l-.106.053c-.848 1.75-.371 3.234 1.537 4.507.69.477 1.326.795 1.962.901.795.159 1.909-.053 2.545-.954 1.166-1.697-.159-3.129-1.113-4.136-1.008-1.06-1.273-1.484-1.008-1.802 0-.106.159-.213.265-.266.318 0 .849.213 1.22.425 1.06.742.795 1.378.583 1.696v.106l.053.053 1.484.955.16.106v-.159c.901-1.379.371-2.863-1.379-4.083M232.325 148.98c-.159-2.545-1.855-4.029-4.453-3.976v1.643c.636 0 1.166.159 1.484.477.637.53.796 1.379.849 1.962 0 .901-.106 1.643-.583 2.121-.478.53-1.22.636-1.591.689-1.166.053-1.697-.583-1.909-.795-.212-.319-.477-.743-.477-1.697-.106-.954.106-2.598 2.121-2.757h.106v-1.643h-.265c-1.379.106-2.439.583-3.181 1.378-.689.795-1.008 1.962-.954 3.234 0 .742.265 2.068 1.378 3.022.795.689 1.962 1.007 3.287.901 3.234-.212 4.241-2.438 4.135-4.559M242.925 151.154c-.795-1.114-1.166-1.485-1.697-1.803.159 0 .425-.106.69-.212a2.265 2.265 0 0 0 1.378-2.121c0-.795-.424-1.802-1.537-2.173-.266-.053-.743-.213-2.068-.16h-.477v1.591c1.113 0 1.272 0 1.59.212a.78.78 0 0 1 .424.689c0 .265-.106.637-.583.849-.265.106-1.007.106-1.59.106h-1.167v-1.803l1.22-.053h.106v-1.591h-3.446v.107l.106 8.005v.159h2.014v-3.393h.212c1.114 0 1.167.106 2.28 1.485l1.273 1.749h2.544l-.212-.159-1.06-1.59zM253.952 146.382c-.901-1.379-2.439-1.538-3.446-1.538h-.159v1.644c.742.053 1.272.106 1.696.53.318.424.478 1.113.425 2.121-.107 2.492-1.114 2.439-2.386 2.386h-1.22l.212-5.09h.69s.424 0 .583.053v-1.644l-3.075-.106h-.159v.106l-.265 8.059v.106h.106l3.34.106c.583 0 2.067.106 3.075-.795 1.219-1.114 1.325-2.598 1.325-3.128 0-1.485-.318-2.333-.689-2.863M303.208 153.38c-.425-.371-.849-.53-2.386-.954l-.53-.159v1.697c.954.265 1.325.371 1.537.742q.238.318.159.795c-.106.265-.212.424-.424.53-.477.265-1.272.053-1.856-.106l-.795-.212.53-1.961.69.159h.106v-1.697l-2.227-.583h-.106v.106l-2.121 7.74v.106h.053l1.75.478h.106v-.106l.795-2.81 1.007.265c.849.212 1.75.477 2.386.371s1.697-.424 2.121-1.909c.424-1.484-.424-2.333-.795-2.598M313.548 156.507s-.636-.477-1.908-.848l-1.008-.318v1.697c1.061.371 1.273.424 1.538.689s.159.583.106.795c-.053.265-.265.583-.795.583-.319 0-1.008-.212-1.538-.424l-1.166-.318.583-1.697 1.272.372v-1.697l-2.545-.848h-.159v.106l-2.491 7.687v.106l.106.053 1.696.584h.106v-.107l1.007-3.075.16.106c1.113.319 1.113.478 1.749 2.174l.636 2.068.106.106 2.015.636.265.106v-.265l-.636-1.803c-.371-1.325-.636-1.802-1.06-2.332.212.053.424.053.636.053.954-.053 1.749-.636 2.014-1.591.266-.742.159-1.855-.795-2.545M324.626 161.385c-.477-.954-1.378-1.749-2.598-2.279-.424-.159-.795-.213-1.166-.266v1.697s.371.106.583.159c.583.212 1.008.583 1.22 1.113.371.743.159 1.591-.053 2.174-.266.848-.743 1.432-1.326 1.644-.636.318-1.378.159-1.749 0-1.061-.424-1.326-1.22-1.379-1.591-.053-.318-.106-.848.212-1.696.212-.584.636-1.326 1.379-1.644a1.72 1.72 0 0 1 1.166-.106v-1.697c-.795-.159-1.644-.106-2.333.213-.954.477-1.696 1.325-2.173 2.544-.743 1.909-.425 4.401 2.597 5.514s4.878-.477 5.62-2.439q.636-1.828 0-3.34M343.395 168.702l-1.167-.583v1.802c.955.531 1.167.584 1.326.849.212.318.106.583 0 .848a.775.775 0 0 1-.902.424c-.318 0-1.007-.371-1.484-.583l-1.007-.53.795-1.591 1.113.583h.106v-1.802l-2.173-1.114h-.159l-3.606 7.211v.106h.053l1.591.795h.106l.053-.053 1.378-2.916.212.106c1.008.477 1.061.636 1.326 2.386l.318 2.174.106.106 1.856.954.212.106v-.265l-.265-1.856c-.212-1.325-.372-1.855-.743-2.385.212 0 .478.053.69.106.901.106 1.802-.425 2.226-1.273.371-.689.424-1.749-.424-2.598-.212-.159-.53-.53-1.749-1.113M381.142 193.833c-.106-1.114-.795-2.068-1.856-2.916-.742-.584-1.59-.955-2.385-1.008v1.803c.477 0 .901.159 1.378.53 1.644 1.219.901 2.704.265 3.446-.583.689-1.166 1.167-1.802 1.22-.743.053-1.379-.319-1.644-.531-.954-.689-.954-1.537-.954-1.855 0-.371.106-.849.689-1.591.424-.583 1.113-1.272 2.015-1.272v-1.803h-.902c-1.06.106-2.014.742-2.863 1.803-1.219 1.643-1.643 4.082.955 6.044 1.113.795 2.173 1.219 3.287 1.06 1.007-.106 2.014-.795 2.81-1.802.742-1.008 1.113-2.121.954-3.182"/><path fill="#fff" d="m301.458 246.638-.318.848h-.902l.743.583-.319.849.796-.53.742.53-.318-.902.795-.53h-.954zM243.35 193.143l-.477 1.484h-1.591l1.326.954-.477 1.485 1.219-.954 1.325.954-.53-1.485 1.326-.954h-1.591zM299.07 207.14l-.478 1.485h-1.59l1.325.954-.53 1.484 1.273-.901 1.272.901-.477-1.537 1.272-.901h-1.59zM376.585 210.32l-.583 1.803h-1.856l1.538 1.06-.583 1.75 1.484-1.007 1.485 1.007-.53-1.75 1.484-1.007h-1.856zM349.067 227.71l-.53 1.75h-1.909l1.537 1.113-.583 1.75 1.485-1.114 1.537 1.114-.583-1.75 1.538-1.113h-1.909zM355.746 227.71l-.583 1.75h-1.855l1.537 1.113-.583 1.75 1.484-1.114 1.538 1.114-.583-1.75 1.537-1.113h-1.908zM349.067 242.662l-.53 1.749h-1.909l1.537 1.114-.583 1.749 1.485-1.06 1.537 1.06-.583-1.802 1.538-1.061h-1.909zM335.497 227.816l-.583 1.803h-1.855l1.484 1.113-.583 1.75 1.537-1.113 1.485 1.113-.583-1.75 1.484-1.113h-1.802zM329.821 239.852l-.53 1.749h-1.855l1.484 1.113-.583 1.803 1.484-1.113 1.538 1.113-.53-1.803 1.537-1.113h-1.908zM323.832 174.533l-.53 1.803h-1.908l1.537 1.113-.583 1.75 1.484-1.06 1.538 1.06-.583-1.803 1.537-1.06h-1.908zM250.561 217.425l-.583 1.803h-1.909l1.538 1.06-.583 1.75 1.537-1.061 1.485 1.061-.531-1.75 1.538-1.06h-1.909zM292.607 199.823l-.53 1.75h-1.909l1.537 1.06-.636 1.803 1.538-1.114 1.484 1.114-.583-1.803 1.538-1.06h-1.856zM322.398 227.021l-.583 1.803h-1.856l1.484 1.113-.583 1.697 1.538-1.06 1.484 1.06-.53-1.697 1.485-1.113h-1.856zM361.896 222.939l-.689 2.174h-2.386l1.909 1.378-.689 2.227 1.855-1.378 1.909 1.378-.795-2.227 1.961-1.378h-2.332zM366.033 217.85l-.742 2.226h-2.333l1.962 1.379-.743 2.174 1.856-1.379 1.909 1.379-.743-2.227 1.909-1.326h-2.386zM349.065 235.344l-.742 2.227h-2.28l1.909 1.379-.743 2.173 1.856-1.325 1.909 1.325-.743-2.173 1.909-1.379h-2.333zM223.31 205.708l-.689 2.174h-2.386l1.909 1.379-.742 2.279 1.908-1.431 1.856 1.431-.689-2.279 1.908-1.379h-2.332zM252.945 205.708l-.689 2.174h-2.333l1.855 1.379-.689 2.279 1.856-1.431 1.908 1.431-.742-2.279 1.909-1.379h-2.386zM311.427 200.035l-.69 2.227h-2.385l1.908 1.378-.742 2.227 1.909-1.325 1.908 1.325-.742-2.227 1.962-1.378h-2.386zM300.61 190.439l-.689 2.226h-2.386l1.909 1.379-.742 2.227 1.908-1.379 1.909 1.379-.742-2.227 1.908-1.379h-2.333zM267.899 180.313l-.689 2.173h-2.386l1.909 1.432-.742 2.227 1.908-1.379 1.909 1.379-.689-2.28 1.855-1.326h-2.333zM364.494 209.101l-.848 2.651h-2.81l2.28 1.59-.902 2.704 2.28-1.696 2.227 1.696-.795-2.704 2.279-1.59h-2.863zM328.707 148.449l-.848 2.651h-2.81l2.28 1.644-.849 2.651 2.227-1.591 2.28 1.591-.902-2.651 2.333-1.644h-2.81zM301.882 217.319l-.848 2.704h-2.81l2.226 1.643-.848 2.651 2.28-1.643 2.28 1.643-.902-2.704 2.28-1.59h-2.81zM234.709 197.172l-.848 2.704h-2.81l2.28 1.644-.902 2.65 2.28-1.643 2.28 1.643-.902-2.703 2.333-1.591h-2.863zM266.199 225.219l-.848 2.65h-2.81l2.28 1.697-.902 2.651 2.28-1.644 2.28 1.644-.848-2.704 2.279-1.591h-2.862zM225.909 159.265l-.849 2.651h-2.863l2.28 1.696-.848 2.598 2.28-1.643 2.279 1.643-.901-2.651 2.333-1.643h-2.863z"/></g><defs><clipPath id="a"><path fill="#fff" d="M0 0h600v360.042H0z"/></clipPath></defs></svg>