<svg xmlns="http://www.w3.org/2000/svg" fill="none" viewBox="0 0 600 362"><g clip-path="url(#a)"><path fill="#ec174c" d="M598.642.012 449.017.56l1.316 359.243 149.625-.549zM149.632 1.657.007 2.206l1.317 359.242 149.624-.548z"/><path fill="#fff" d="M449.017.49 149.625 1.586l1.317 359.242 299.392-1.097z"/><path fill="#ec174c" d="M307.373 330.816c-1.924-29.213-2.707-48.094-3.491-66.334-.356-7.838 6.413-7.125 11.543-6.341 42.037 6.412 61.987 9.333 61.987 9.333-15.247-28.428-4.631-30.138 3.634-37.05 47.239-39.758 57.286-48.308 57.286-48.308-21.946-7.338-18.953-4.631-4.988-57.142-45.671 14.677-41.895 10.331-51.657-12.113 0 0-3.491 3.99-31.991 36.338-3.99 4.56-10.83 1.567-9.476-5.487 14.606-73.601 15.319-76.665 15.319-76.665-28.928 17.599-27.788 18.596-32.419 9.548-15.961-30.923-23.584-46.1-23.584-46.1s-7.553 15.248-23.228 46.313c-4.631 9.05-3.491 8.052-32.561-9.333 0 0 .783 3.063 15.888 76.522 1.497 7.054-5.343 10.118-9.405 5.558a195489 195489 0 0 1-32.276-36.124c-9.619 22.586-5.771 26.79-51.585 12.54 14.321 52.44 17.313 49.733-4.56 57.214 0 0 10.046 8.479 57.641 47.88 8.265 6.841 18.882 8.479 3.919 36.979 0 0 19.879-3.063 61.845-9.832 5.13-.784 11.899-1.568 11.685 6.27-.712 18.24-1.425 37.121-3.063 66.405h13.609z"/></g><defs><clipPath id="a"><path fill="#fff" d="M0 0h600v361.454H0z"/></clipPath></defs></svg>