<?xml version="1.0" encoding="UTF-8"?><svg id="Layer_2" xmlns="http://www.w3.org/2000/svg" viewBox="0 0 83.26 50.15"><defs><style>.cls-1{fill:#ffe252;}.cls-2{fill:#ed1c2e;}</style></defs><g id="DESIGN"><g><rect class="cls-2" x=".09" y=".15" width="83.08" height="49.85" transform="translate(-.09 .15) rotate(-.21)"/><g><polygon class="cls-1" points="13.87 5.35 12.25 10.45 6.86 10.46 11.24 13.62 9.58 18.71 13.9 15.54 18.25 18.68 16.57 13.56 20.91 10.44 15.54 10.46 13.87 5.35"/><polygon class="cls-1" points="24.46 3.59 25.39 5.14 24.2 6.5 25.97 6.1 26.88 7.65 27.04 5.85 28.8 5.45 27.14 4.74 27.31 2.95 26.12 4.31 24.46 3.59"/><polygon class="cls-1" points="30.27 7.92 30.53 9.7 28.91 10.5 30.7 10.8 30.94 12.59 31.78 10.99 33.56 11.3 32.3 10 33.15 8.42 31.53 9.22 30.27 7.92"/><polygon class="cls-1" points="29.02 16.97 30.5 17.98 29.99 19.72 31.43 18.61 32.91 19.63 32.3 17.94 33.73 16.84 31.92 16.89 31.33 15.19 30.82 16.92 29.02 16.97"/><polygon class="cls-1" points="24.46 21.08 25.45 22.57 24.32 23.99 26.07 23.51 27.05 25.02 27.13 23.21 28.87 22.74 27.18 22.1 27.27 20.3 26.15 21.71 24.46 21.08"/></g></g></g></svg>