<svg xmlns="http://www.w3.org/2000/svg" fill="none" viewBox="0 0 600 361"><g clip-path="url(#a)"><path fill="#fff" d="M599.47.477H.476v359.439H599.47z"/><path stroke="#231f20" d="M599.47.477H.476v359.439H599.47z"/><path fill="#ed334e" d="m334.882 233.151 3.176-3.229c-7.887-7.833-7.887-20.536 0-28.37 7.833-7.833 20.589-7.833 28.37 0l3.228-3.175c-9.633-9.686-25.247-9.686-34.774 0-9.633 9.58-9.633 25.141 0 34.827"/><path fill="#009c57" d="m308.471 222.089 3.175 3.176c7.834-7.781 20.537-7.781 28.37 0 7.887 7.886 7.887 20.589 0 28.422l3.229 3.229c9.58-9.686 9.58-25.194 0-34.827-9.633-9.633-25.247-9.633-34.774 0"/><path fill="#ed334e" d="M425.866 145.819c-9.156-28.053-35.515-45.678-63.567-44.937-7.939-26.888-32.816-46.577-62.35-46.577s-54.358 19.69-62.403 46.577c-27.999-.688-54.358 16.884-63.462 44.937-9.103 28.105 1.853 57.851 24.983 73.729-9.369 26.412-.741 56.952 23.077 74.259 23.87 17.361 55.522 16.091 77.805-1.058V275.97c-17.731 20.219-48.271 23.977-70.554 7.834-22.177-16.143-28.105-46.366-14.291-69.548-24.771-10.586-37.791-38.533-29.27-64.732 8.469-26.041 35.41-41.02 61.662-35.039 2.435-26.835 25.036-47.848 52.506-47.848s50.017 21.013 52.452 47.742c26.253-5.875 53.246 9.104 61.662 35.145 8.522 26.146-4.499 54.093-29.217 64.732 13.762 23.129 7.887 53.352-14.29 69.548-22.23 16.143-52.823 12.438-70.554-7.834v16.779c22.23 17.096 53.934 18.366 77.805 1.058 23.765-17.36 32.445-47.9 23.024-74.312 23.077-15.878 34.086-45.677 24.982-73.676"/><path fill="#0067a5" d="M444.972 139.626c-10.321-31.863-37.632-53.458-68.648-57.957C362.403 53.564 333.451 34.245 300 34.245s-62.456 19.319-76.323 47.477c-31.016 4.499-58.327 26.094-68.648 57.904-10.374 31.81-.953 65.367 21.542 87.226-5.24 30.858 6.774 63.568 33.821 83.204 27.047 19.69 61.874 21.066 89.608 6.511v-12.65c-24.929 15.772-57.851 15.614-83.151-2.7-25.247-18.366-35.515-49.7-28.317-78.228-22.653-18.843-32.709-50.23-23.076-79.976 9.686-29.693 36.309-49.17 65.684-51.129 10.956-27.364 37.632-46.683 68.913-46.683s57.957 19.372 68.861 46.683c29.428 1.959 56.051 21.383 65.737 51.076 9.633 29.746-.423 61.133-23.077 79.976 7.251 28.528-3.017 59.862-28.317 78.228-25.247 18.367-58.221 18.419-83.151 2.753v12.65c27.735 14.555 62.509 13.179 89.609-6.511 27.099-19.689 39.114-52.293 33.874-83.204 22.442-21.912 31.81-55.416 21.436-87.226"/><path fill="#0067a5" d="M232.412 229.922c-7.833-7.833-7.833-20.536 0-28.369l-3.176-3.176c-9.633 9.58-9.633 25.194 0 34.827 9.581 9.633 25.142 9.633 34.828 0l-3.229-3.229c-7.834 7.834-20.589 7.834-28.37 0"/><path fill="#231f20" d="m282.109 233.151 3.175-3.229c-7.833-7.833-7.833-20.536 0-28.369 7.887-7.834 20.59-7.834 28.37 0l3.229-3.176c-9.58-9.633-25.194-9.633-34.774 0-9.633 9.58-9.633 25.141 0 34.827"/><path fill="#fbb031" d="m255.696 222.089 3.176 3.176c7.886-7.781 20.589-7.781 28.476 0 7.78 7.886 7.78 20.589 0 28.422l3.175 3.229c9.633-9.686 9.633-25.194 0-34.827-9.58-9.633-25.247-9.633-34.827 0"/><path fill="#231f20" d="M313.655 229.922c-7.834 7.834-20.536 7.834-28.37 0l-3.176 3.229c9.58 9.633 25.194 9.58 34.775 0s9.58-25.194 0-34.827l-3.229 3.176c7.833 7.833 7.833 20.589 0 28.369"/><path fill="#fbb031" d="M258.876 253.687c-7.833-7.833-7.833-20.536 0-28.423l-3.176-3.175c-9.633 9.633-9.633 25.194 0 34.827 9.58 9.58 25.194 9.58 34.827 0l-3.175-3.229c-7.887 7.834-20.59 7.834-28.476 0"/><path fill="#009c57" d="M311.645 253.687c-7.834-7.833-7.834-20.536 0-28.423l-3.176-3.175c-9.633 9.633-9.633 25.194 0 34.827 9.58 9.58 25.141 9.58 34.827 0l-3.229-3.229c-7.833 7.834-20.589 7.834-28.369 0"/><path fill="#ed334e" d="M366.423 229.922c-7.833 7.834-20.536 7.834-28.369 0l-3.176 3.282c9.58 9.58 25.141 9.58 34.774 0 9.58-9.58 9.58-25.194 0-34.774l-3.229 3.176c7.887 7.833 7.834 20.589 0 28.369"/><path fill="#0067a5" d="m229.182 198.377 3.176 3.176c7.833-7.834 20.536-7.834 28.369 0 7.834 7.886 7.834 20.589 0 28.369l3.229 3.229c9.633-9.58 9.633-25.194 0-34.827s-25.247-9.633-34.827 0M339.699 141.426c0 21.701-17.625 39.379-39.326 39.379s-39.326-17.678-39.326-39.379 17.625-39.273 39.326-39.273 39.326 17.572 39.326 39.273"/><path fill="#fff" d="m300.371 106.598 4.341 18.525 12.967-13.867-5.452 18.154 18.155-5.504-13.867 13.02 18.525 4.287-18.525 4.34 13.867 13.021-18.155-5.505 5.452 18.155-12.967-13.762-4.341 18.473-4.34-18.473-12.967 13.762 5.451-18.155-18.154 5.505 13.867-13.021-18.525-4.34 18.525-4.287-13.867-13.02 18.154 5.504-5.451-18.154 12.967 13.867z"/><path fill="#0067a5" d="M318.47 141.426c0 9.951-8.098 17.996-18.048 17.996-9.951 0-18.049-8.098-18.049-17.996s8.098-17.996 18.049-17.996 18.048 8.098 18.048 17.996"/><path fill="#fff" d="M313.923 141.425c0 7.463-6.034 13.497-13.55 13.497s-13.55-6.034-13.55-13.497 6.034-13.55 13.55-13.55 13.55 6.034 13.55 13.55"/></g><defs><clipPath id="a"><path fill="#fff" d="M0 0h600v360.445H0z"/></clipPath></defs></svg>