<svg xmlns="http://www.w3.org/2000/svg" fill="none" viewBox="0 0 600 361"><g clip-path="url(#a)"><path fill="#ec1c2e" d="M599.998 0h-300v180.014h300zM300 180.014H0v180.015h300z"/><path fill="#005a9a" d="M300 0H0v180.014h300zM599.998 180.014h-300v180.015h300z"/><path fill="#fff" d="M337.5 360.029V216.003H600v-71.977H337.5V0h-75v144.026H0v71.977h262.5v144.026z"/><path fill="#005a9a" d="M300.003 153.527h-22.385l3.887 3.815v19.362h18.498z"/><path stroke="#000" stroke-width=".072" d="M300.003 153.527h-22.385l3.887 3.815v19.362h18.498z"/><path fill="#005a9a" d="M299.998 199.664c3.023-3.31 5.038-3.167 13.46-3.167 4.534 0 5.038-3.095 5.038-8.997v-10.796h-18.498z"/><path stroke="#000" stroke-width=".072" d="M299.998 199.664c3.023-3.31 5.038-3.167 13.46-3.167 4.534 0 5.038-3.095 5.038-8.997v-10.796h-18.498z"/><path fill="#ec1c2e" d="M300.003 199.664c-2.951-3.31-5.038-3.167-13.46-3.167-4.534 0-5.038-3.095-5.038-8.997v-10.796h18.498z"/><path stroke="#000" stroke-width=".072" d="M300.003 199.664c-2.951-3.31-5.038-3.167-13.46-3.167-4.534 0-5.038-3.095-5.038-8.997v-10.796h18.498z"/><path fill="#ec1c2e" d="M299.998 153.527h22.457l-3.959 3.815v19.362h-18.498z"/><path stroke="#000" stroke-width=".072" d="M299.998 153.527h22.457l-3.959 3.815v19.362h-18.498z"/><path fill="#fff" d="M303.241 197.217v-43.69h-6.406v43.69c1.08.36 2.231 1.224 3.167 2.376.864-1.008 2.159-2.016 3.239-2.376"/><path stroke="#000" stroke-width=".072" d="M303.241 197.217v-43.69h-6.406v43.69c1.08.36 2.231 1.224 3.167 2.376.864-1.008 2.159-2.016 3.239-2.376Z"/><path fill="#fff" d="M318.501 173.465h-36.996v6.406h36.996z"/><path stroke="#000" stroke-width=".072" d="M318.501 173.465h-36.996v6.406h36.996z"/><path fill="#005a9a" d="m299.998 172.384 12.164-12.956v3.887l2.231-1.871v21.665c0 8.061-12.668 7.269-14.395 3.527-1.728 3.742-14.395 4.534-14.395-3.527v-21.665l2.231 1.871v-3.887z"/><path stroke="#000" stroke-width=".072" d="m299.998 172.384 12.164-12.956v3.887l2.231-1.871v21.665c0 8.061-12.668 7.269-14.395 3.527-1.728 3.742-14.395 4.534-14.395-3.527v-21.665l2.231 1.871v-3.887z"/><path fill="#fff" d="M299.998 186.277c-5.83 3.167-9.573.648-9.573-2.303v-3.671c-2.231 0-4.822-1.152-4.822-1.871v-3.239c0 .935 3.814 1.799 4.822 1.799v-11.228l2.087 1.655v-2.951l3.167 3.311v2.303l-2.087-1.799v9.429c2.159 0 3.887 1.295 6.406 1.295s4.247-1.295 6.406-1.295v-9.429l-2.087 1.799v-2.303l3.239-3.311v2.951l2.087-1.655v11.228c1.008 0 4.822-.864 4.822-1.799v3.239c0 .719-2.519 1.871-4.822 1.871v3.671c0 3.023-3.815 5.47-9.645 2.303v-3.239c3.167 1.8 6.406 2.231 6.406.288v-2.303c-2.159 0-3.887 1.295-6.406 1.295s-4.175-1.295-6.406-1.295v2.303c0 1.943 3.239 1.512 6.406-.288z"/><path stroke="#000" stroke-width=".072" d="M299.998 186.277c-5.83 3.167-9.573.648-9.573-2.303v-3.671c-2.231 0-4.822-1.152-4.822-1.871v-3.239c0 .935 3.814 1.799 4.822 1.799v-11.228l2.087 1.655v-2.951l3.167 3.311v2.303l-2.087-1.799v9.429c2.159 0 3.887 1.295 6.406 1.295s4.247-1.295 6.406-1.295v-9.429l-2.087 1.799v-2.303l3.239-3.311v2.951l2.087-1.655v11.228c1.008 0 4.822-.864 4.822-1.799v3.239c0 .719-2.519 1.871-4.822 1.871v3.671c0 3.023-3.815 5.47-9.645 2.303Zm0 0v-3.239m0 0c3.167 1.8 6.406 2.231 6.406.288v-2.303c-2.159 0-3.887 1.295-6.406 1.295s-4.175-1.295-6.406-1.295v2.303c0 1.943 3.239 1.512 6.406-.288Z"/><path fill="#ec1c2e" d="M304.319 167.851v2.303l2.088-1.799v9.429c-2.16 0-3.887 1.295-6.406 1.295-2.52 0-4.247-1.295-6.406-1.295v-9.429l2.087 1.799v-2.303l4.319 4.606z"/><path stroke="#000" stroke-width=".072" d="M304.319 167.851v2.303l2.088-1.799v9.429c-2.16 0-3.887 1.295-6.406 1.295-2.52 0-4.247-1.295-6.406-1.295v-9.429l2.087 1.799v-2.303l4.319 4.606z"/><path fill="#ec1c2e" d="M285.604 178.359v4.751c0 8.061 12.668 7.269 14.396 3.526 1.727 3.743 14.395 4.535 14.395-3.526v-4.751c0 .72-2.519 1.872-4.822 1.872v3.742c0 2.951-3.815 5.471-9.645 2.304-5.831 3.167-9.573.647-9.573-2.304v-3.742c-2.232 0-4.823-1.152-4.823-1.872"/><path stroke="#000" stroke-width=".072" d="M285.604 178.359v4.751c0 8.061 12.668 7.269 14.396 3.526 1.727 3.743 14.395 4.535 14.395-3.526v-4.751c0 .72-2.519 1.872-4.822 1.872v3.742c0 2.951-3.815 5.471-9.645 2.304-5.831 3.167-9.573.647-9.573-2.304v-3.742c-2.232 0-4.823-1.152-4.823-1.872z"/><path fill="#005a9a" d="M304.896 145.825c.216-.576.431-1.44.647-2.16a45 45 0 0 0-5.542-.36c-1.871 0-3.887.144-5.542.36.216.792.432 1.584.648 2.16.144.432-.72 1.511-3.887 1.367-2.663-.144-6.55.072-10.005.72.576.864.792 1.08.72 1.727 0 .792-1.871 1.44-4.966 1.944-3.095.432-4.319 3.671-5.399 8.349-1.223-.504-3.167-1.008-4.39-1.223.719-3.023 3.095-9.861 6.118-10.581-.72-1.656-.576-2.447 2.231-3.815 3.095-1.439 8.205-2.303 13.964-2.519-.36-1.368 0-1.943 1.799-2.735 1.512-.648 3.959-1.152 8.637-1.152s7.126.504 8.637 1.152c1.8.792 2.16 1.295 1.8 2.735 5.686.216 10.868 1.08 13.963 2.519 2.808 1.296 3.023 2.159 2.232 3.815 3.023.72 5.47 7.558 6.19 10.581-1.224.215-3.167.719-4.391 1.223-1.08-4.678-2.303-7.917-5.398-8.349s-4.895-1.152-4.967-1.944c0-.719.144-.863.72-1.727-3.383-.576-7.341-.864-10.005-.72-3.095.216-3.958-.935-3.886-1.367"/><path stroke="#000" stroke-linecap="round" stroke-linejoin="round" stroke-width=".072" d="M304.896 145.825c.216-.576.431-1.44.647-2.16a45 45 0 0 0-5.542-.36c-1.871 0-3.887.144-5.542.36.216.792.432 1.584.648 2.16.144.432-.72 1.511-3.887 1.367-2.663-.144-6.55.072-10.005.72.576.864.792 1.08.72 1.727 0 .792-1.871 1.44-4.966 1.944-3.095.432-4.319 3.671-5.399 8.349-1.223-.504-3.167-1.008-4.39-1.223.719-3.023 3.095-9.861 6.118-10.581-.72-1.656-.576-2.447 2.231-3.815 3.095-1.439 8.205-2.303 13.964-2.519-.36-1.368 0-1.943 1.799-2.735 1.512-.648 3.959-1.152 8.637-1.152s7.126.504 8.637 1.152c1.8.792 2.16 1.295 1.8 2.735 5.686.216 10.868 1.08 13.963 2.519 2.808 1.296 3.023 2.159 2.232 3.815 3.023.72 5.47 7.558 6.19 10.581-1.224.215-3.167.719-4.391 1.223-1.08-4.678-2.303-7.917-5.398-8.349s-4.895-1.152-4.967-1.944c0-.719.144-.863.72-1.727-3.383-.576-7.341-.864-10.005-.72-3.095.216-3.958-.935-3.886-1.367z"/><path fill="#ffce46" d="m293.089 139.491.144 1.079h.504l-.144-.648s.288 0 .504-.072c.215 0 .431 0 .431.36 0 .288-.072.576-.288.576h-.503v-.36h-.576l.288 1.944h.504l-.144-1.152s.36 0 .647-.072c.432-.072.648-.648.576-1.152-.072-.575-.432-.863-.863-.791-.648.072-1.08.144-1.08.144M296.906 141.507l.216.576h.504l-1.008-3.023h-.648l-.575 3.167.503-.072.072-.648h.432v-.504h-.288l.216-1.223.432 1.223h-.36v.504zM298.923 142.011v-2.591h.72v-.504h-1.944v.504h.72v2.591zM300.434 138.916v.864h.503v-.36h.648c.216 0 .36.144.36.432s-.144.431-.288.431h-.72v-.503h-.503v2.231h.503v-1.152h.504c.288 0 .432.072.432.504v.72h.504v-.864c0-.36-.216-.648-.36-.648.144 0 .432-.288.432-.719 0-.432-.216-.864-.576-.864h-1.439M303.454 142.083l.288-3.023-.576-.072-.216 3.095zM305.758 141.795l.072.576.504.072-.504-3.095-.576-.072-1.151 2.951.503.072.216-.648.432.072.072-.503-.36-.072.504-1.224.216 1.296h-.36l-.072.503zM277.182 144.53s.647-.144.935-.216 1.08-.144 1.368 1.151c.216.792 0 1.656-.576 1.8s-1.008.216-1.008.216l-.359-1.584h.503l.288.936s.288 0 .432-.072.576-.216.36-1.152c-.216-.863-.648-.863-.792-.791-.072 0-.432.072-.432.072l.216.935h-.503l-.36-1.295zM280.527 143.852l-.499.072.442 3.063.499-.072zM282.585 146.042c-.432 0-.72-.36-.792-1.008s.144-1.08.576-1.152c.432 0 .72.36.792 1.008s-.144 1.08-.576 1.152v.503c.792-.072 1.152-.791 1.08-1.727-.144-.936-.648-1.512-1.368-1.44s-1.08.792-1.008 1.728c.144.936.648 1.583 1.368 1.439v-.503zM286.037 143.882c0-.504-.36-.936-1.151-.864-.72.072-.864.72-.792 1.08 0 .36.216.72 1.079.792.36 0 .576.143.576.359s-.072.432-.432.504c-.288 0-.575-.072-.647-.432h-.504a.95.95 0 0 0 1.079.936c.72-.072 1.008-.504.936-1.152-.072-.575-.504-.719-1.008-.791-.575 0-.647-.144-.647-.36 0-.144 0-.36.36-.432.359 0 .575.072.647.36zM310.075 143.089v2.376h1.152v.575h-1.656v-1.439c.144-.36.432-1.08.504-1.44M312.163 143.019h-.504v3.095h.504zM312.671 146.114h1.152c.647 0 .863-.504.863-.864s-.072-.575-.288-.719c.144-.144.288-.432.288-.648 0-.504-.432-.792-.863-.864h-1.008v.864h.504v-.36h.647c.216 0 .288.216.288.36 0 .072-.072.36-.288.36h-.647v-.36h-.504v1.223h.432v-.431h.719c.144 0 .288.143.288.431s-.144.432-.288.36h-.719v-.432h-.504v.936zM317.127 143.377l-1.799-.144-.288 3.023 1.799.216.072-.503-1.295-.144.072-.792 1.151.072.072-.576-1.151-.072.072-.648 1.295.072zM317.635 143.45v.863l.432.072v-.36s.504.072.72.072.288.216.288.432-.216.432-.36.36c-.144 0-.72-.144-.72-.144v-.432l-.432-.072-.288 2.232h.504l.144-1.08s.288 0 .504.072c.288 0 .432.144.36.504 0 .36-.072.72-.072.72h.504s.072-.576.144-.792c0-.36-.072-.648-.288-.648.144 0 .504-.216.504-.648s-.072-.864-.432-.935c-.36 0-1.44-.144-1.44-.144M320.44 147.121l.576-2.519.719.216.144-.504-1.943-.432-.144.504.72.144-.504 2.447zM322.672 147.121v.648l.432.144.144-3.167-.504-.216-1.8 2.663.504.144.36-.503.432.143.144-.503-.288-.072.648-1.08v1.224l-.36-.072-.144.503zM324.758 145.249l.864.432c.288.144.864.576.288 1.727-.36.792-1.008 1.296-1.584 1.08-.575-.288-.935-.504-.935-.504l.719-1.439.432.216-.504.935s.216.144.36.216c.144 0 .576.216 1.008-.648.432-.791 0-1.079-.144-1.151-.072 0-.432-.216-.432-.216l-.432.864-.432-.216.648-1.296z"/><path stroke="#000" stroke-linecap="round" stroke-linejoin="round" stroke-width=".072" d="M266.744 161.157c.144-.936.288-1.872.576-2.736M267.25 161.229c.144-.936.288-1.8.504-2.664M267.756 161.301c.144-.936.288-1.728.504-2.591M268.185 161.373c.144-.864.288-1.728.503-2.519M268.69 161.445c.144-.864.288-1.727.504-2.447M269.197 161.517c.144-.864.288-1.655.504-2.375M269.696 161.587c.144-.791.288-1.583.504-2.303M270.202 161.659c.144-.791.288-1.583.432-2.303M270.708 161.732c.144-.792.288-1.512.432-2.232M271.207 161.804l.432-2.16M333.329 161.157c-.144-.936-.288-1.872-.576-2.736M332.821 161.229c-.144-.936-.288-1.8-.504-2.664M332.315 161.301a28 28 0 0 0-.503-2.591M331.887 161.373c-.144-.864-.288-1.728-.504-2.519M331.381 161.445c-.144-.864-.288-1.727-.504-2.447M330.881 161.517c-.144-.864-.288-1.655-.504-2.375M330.375 161.587c-.144-.791-.288-1.583-.504-2.303M329.867 161.659c-.144-.791-.287-1.583-.431-2.303M329.368 161.732c-.144-.792-.288-1.512-.431-2.232M328.863 161.804l-.432-2.16M294.533 143.594c-2.375.288-4.102.791-3.599 1.439M278.549 151.224c-4.174.647-8.349-1.08-10.076 3.527M282.006 149.568v-.288c-.36-.863-2.807 0-3.887.504-1.08.576-2.879 1.656-3.311.864-.504-.864 1.296-1.44 2.807-1.943q1.62-.54 3.671-.864"/><path stroke="#000" stroke-linecap="round" stroke-linejoin="round" stroke-width=".072" d="M295.182 145.825c-.216-.72-1.368-.864-2.664-.504-1.799.504-1.871-.648-2.519-2.303-.144-.432-.288-.864-.432-1.224M273.372 148.057l.216.432c.936 1.943 1.08 2.375 1.655 2.447M305.544 143.594c2.375.288 4.103.791 3.599 1.439M321.521 151.224c4.174.647 8.349-1.08 10.076 3.527M318.069 149.568v-.288c.36-.863 2.807 0 3.887.504 1.08.576 2.807 1.656 3.311.864.504-.864-1.296-1.44-2.879-1.943q-1.62-.54-3.671-.864"/><path stroke="#000" stroke-linecap="round" stroke-linejoin="round" stroke-width=".072" d="M304.897 145.825c.216-.72 1.368-.864 2.664-.504 1.799.504 1.943-.648 2.519-2.303.144-.432.288-.864.432-1.224M326.702 148.057l-.215.432c-.936 1.943-1.08 2.375-1.656 2.447"/><path fill="#996b38" d="m299.998 173.465 14.899-12.74.36.432-15.259 13.028z"/><path stroke="#000" stroke-width=".072" d="m299.998 173.465 14.899-12.74.36.432-15.259 13.028z"/><path fill="#996b38" d="m299.998 172.097 12.596-13.676.36.36-12.956 14.036z"/><path stroke="#000" stroke-width=".072" d="m299.998 172.097 12.596-13.676.36.36-12.956 14.036z"/><path fill="#996b38" d="m299.998 170.225 10.005-13.819.432.288-10.437 14.395z"/><path stroke="#000" stroke-width=".072" d="m299.998 170.225 10.005-13.819.432.288-10.437 14.395z"/><path fill="#996b38" d="m300.075 173.465-14.9-12.74-.36.432 15.26 13.028z"/><path stroke="#000" stroke-width=".072" d="m300.075 173.465-14.9-12.74-.36.432 15.26 13.028z"/><path fill="#996b38" d="m300.07 172.097-12.596-13.676-.36.36 12.956 14.036z"/><path stroke="#000" stroke-width=".072" d="m300.07 172.097-12.596-13.676-.36.36 12.956 14.036z"/><path fill="#996b38" d="m300.074 170.225-10.004-13.819-.432.288 10.436 14.395z"/><path stroke="#000" stroke-width=".072" d="m300.074 170.225-10.004-13.819-.432.288 10.436 14.395z"/><path fill="#ffce46" d="m314.686 160.58 2.16-1.152-1.44 1.944s-.792-.72-.72-.792"/><path stroke="#000" stroke-width=".072" d="m314.686 160.58 2.16-1.152-1.44 1.944s-.792-.72-.72-.792Z"/><path fill="#ffce46" d="m312.38 158.278 2.016-1.368-1.224 2.087s-.864-.647-.792-.719"/><path stroke="#000" stroke-width=".072" d="m312.38 158.278 2.016-1.368-1.224 2.087s-.864-.647-.792-.719Z"/><path fill="#ffce46" d="m309.786 156.262 1.8-1.584-.936 2.232s-.936-.504-.864-.648"/><path stroke="#000" stroke-width=".072" d="m309.786 156.262 1.8-1.584-.936 2.232s-.936-.504-.864-.648Z"/><path fill="#ffce46" d="m285.386 160.58-2.159-1.152 1.439 1.944s.792-.72.72-.792"/><path stroke="#000" stroke-width=".072" d="m285.386 160.58-2.159-1.152 1.439 1.944s.792-.72.72-.792Z"/><path fill="#ffce46" d="m287.695 158.278-2.015-1.368 1.223 2.087s.864-.647.792-.719"/><path stroke="#000" stroke-width=".072" d="m287.695 158.278-2.015-1.368 1.223 2.087s.864-.647.792-.719Z"/><path fill="#ffce46" d="m290.284 156.262-1.8-1.584.936 2.232s.936-.504.864-.648"/><path stroke="#000" stroke-width=".072" d="m290.284 156.262-1.8-1.584.936 2.232s.936-.504.864-.648Z"/><path fill="#ffce46" d="M300.794 171.09v-6.478h1.584v-1.439h-1.584v-2.16h-1.511v2.16h-1.584v1.439h1.584v6.478z"/><path stroke="#000" stroke-width=".072" d="M300.794 171.09v-6.478h1.584v-1.439h-1.584v-2.16h-1.511v2.16h-1.584v1.439h1.584v6.478z"/><path fill="#ec1c2e" d="M302.085 179.655c.216 3.311 2.447 7.342 2.591 9.285-.288-.144-.864.216-1.08.216.216 1.008.36 2.016.288 2.879-.864-.504-1.511-.36-1.871 0-.36 1.584-1.008 3.095-1.944 4.679.144-1.08-1.223-3.383-3.311-6.406-1.727-2.375-.359-8.349 1.872-11.876-.288-.216 0-.792.72-1.584.791-.72 1.583-.648 2.519-.504.863.144 1.871.72 1.439 1.8-.576 1.583-1.151 1.727-1.151 1.511"/><path stroke="#000" stroke-linecap="round" stroke-linejoin="round" stroke-width=".072" d="M302.085 179.655c.216 3.311 2.447 7.342 2.591 9.285-.288-.144-.864.216-1.08.216.216 1.008.36 2.016.288 2.879-.864-.504-1.511-.36-1.871 0-.36 1.584-1.008 3.095-1.944 4.679.144-1.08-1.223-3.383-3.311-6.406-1.727-2.375-.359-8.349 1.872-11.876-.288-.216 0-.792.72-1.584.791-.72 1.583-.648 2.519-.504.863.144 1.871.72 1.439 1.8-.576 1.583-1.151 1.727-1.151 1.511z"/><path fill="#fff" d="M300.719 177.928c-3.167 4.966.864 13.603-.72 18.714.144-1.08-1.224-3.455-3.311-6.406-1.727-2.375-.36-8.349 1.871-11.876.144-.36 1.08-.72 2.16-.432"/><path stroke="#000" stroke-linecap="round" stroke-linejoin="round" stroke-width=".072" d="M300.719 177.928c-3.167 4.966.864 13.603-.72 18.714.144-1.08-1.224-3.455-3.311-6.406-1.727-2.375-.36-8.349 1.871-11.876.144-.36 1.08-.72 2.16-.432"/><path fill="#005a9a" d="M298.559 178.358c-2.231 3.527-3.598 9.429-1.871 11.876q.972 1.404 1.728 2.592c-.648-3.671-1.512-9.789 1.943-14.972-.432 0-1.368-.144-1.8.504"/><path stroke="#000" stroke-linecap="round" stroke-linejoin="round" stroke-width=".072" d="M298.559 178.358c-2.231 3.527-3.598 9.429-1.871 11.876q.972 1.404 1.728 2.592c-.648-3.671-1.512-9.789 1.943-14.972-.432 0-1.368-.144-1.8.504"/><path stroke="#000" stroke-linecap="round" stroke-linejoin="round" stroke-width=".072" d="M298.564 178.36c.504-.648 1.44-.72 2.448-.432.432.144.863.288 1.079.576v1.079"/><path stroke="#000" stroke-linecap="round" stroke-linejoin="round" stroke-width=".072" d="M302.014 191.963c.359-1.584.359-3.311 0-5.327-.504-3.023-.792-6.118-.144-8.277M302.086 179.655q.432-.648 0-1.08"/><path stroke="#000" stroke-linecap="round" stroke-linejoin="round" stroke-width=".072" d="M301.873 178.431c-.864 3.239 1.007 7.27 1.727 10.797"/><path fill="#000" d="M299.643 169.506c.864-.935 2.807-1.727 3.743-.935l2.231 6.981c-.791.072-1.871.36-2.159.72-.288.288-1.008.576-1.296.504-.288.144-.863.576-1.439.432-.792-.144-1.368.216-2.447.864l-2.376-7.054.576-.72c.576-.504 2.231-1.296 3.167-.792"/><path stroke="#000" stroke-linecap="round" stroke-linejoin="round" stroke-width=".072" d="M299.643 169.506c.864-.935 2.807-1.727 3.743-.935l2.231 6.981c-.791.072-1.871.36-2.159.72-.288.288-1.008.576-1.296.504-.288.144-.863.576-1.439.432-.792-.144-1.368.216-2.447.864l-2.376-7.054.576-.72c.576-.504 2.231-1.296 3.167-.792"/><path fill="#fff" d="M296.399 170.226c.576-.504 2.232-1.295 3.167-.792.792-.863 2.52-1.583 3.527-1.079l2.088 6.406c-.576.36-1.728.216-2.448.648-.216.143-.791.431-.863.719-.36-.144-1.152 0-1.728.072-.504.144-.863.72-1.511.792l-2.232-6.694z"/><path stroke="#000" stroke-linecap="round" stroke-linejoin="round" stroke-width=".072" d="M296.399 170.226c.576-.504 2.232-1.295 3.167-.792.792-.863 2.52-1.583 3.527-1.079l2.088 6.406c-.576.36-1.728.216-2.448.648-.216.143-.791.431-.863.719-.36-.144-1.152 0-1.728.072-.504.144-.863.72-1.511.792l-2.232-6.694M299.64 169.506l2.231 6.55"/><path fill="#549334" d="M319.794 204.271c1.943 0 4.462.503 5.254.791-.792-.647-2.015-1.295-3.383-1.727 1.728.288 2.16.504 3.383.864.792.216.936.288.936 1.511 0 .792 0 1.8.504.144.432-1.439.576-1.655-.216-2.159-.792-.576-1.872-1.08-3.023-1.584 2.231.576 4.102 1.296 5.182 2.016a9.8 9.8 0 0 0-2.735-2.735c1.296.287 3.023 1.007 4.319 1.655-.576-.792-1.584-2.087-2.808-2.663 1.944.432 4.103 1.08 5.255 1.727-1.08-1.439-2.375-2.735-4.031-3.239 2.231.288 4.319.936 5.254 1.512-1.295-1.224-2.663-2.519-3.958-2.951 1.799.216 3.527.72 4.462 1.151-1.223-1.223-3.311-2.303-5.254-2.591 1.367 0 3.167.144 4.606.432-1.223-.792-3.311-1.295-4.318-1.295 2.231-.504 4.75-.432 7.557.503-1.151-.719-3.239-1.583-5.182-2.015 1.08 0 2.735-.36 3.743-.144-1.08-.36-3.887-.936-5.039-.864 2.232-.647 4.391-1.079 5.759-1.367-2.304-.144-4.967 0-7.27.432 2.591-2.16 4.463-2.16 6.118-2.448s2.879-.647 1.224-.863q-1.728-.216-2.807-.216c1.799-.576 4.102-1.728 4.822-2.088.792-.431 2.663-1.727.648-.863-2.016.935-4.895 1.079-7.486 1.367-1.08.144-1.943.36-2.735.792 1.44-.792 2.951-1.655 4.607-2.447 1.655-.792 1.295-1.08 2.735.576.719.791.647 0-.216-2.088-.72-1.583-1.368-.863-2.951-.288-.576.216-1.368.576-2.232 1.008.936-1.08 4.103-4.75 4.607-5.326.576-.576 1.367.072 2.447.792 1.08.719.72 0-.288-1.08-1.007-1.152-1.439-1.296-2.087-.792-.648.576-3.815 2.591-5.542 4.247 3.239-3.095 6.981-6.55 7.845-7.486q-2.807 1.512-4.966 3.239c.504-.72 1.439-2.087 1.943-2.663-.72.504-1.799 1.08-2.375 1.583.864-1.511 1.799-2.951 1.871-3.239.216-.359.432-.503.72-.503s.72 0 1.656-.144c.935-.072.575-.288.143-.36-2.591-.648-2.447-.36-3.023.144a16 16 0 0 0-1.583 1.871c.648-2.015 2.591-3.887 2.951-4.462-2.015 1.079-3.095 2.015-3.815 2.879.936-1.512 3.815-3.815 4.679-4.679-.936.36-2.807 1.296-3.311 1.872.504-.864.935-1.728 1.367-2.664-1.583 1.008-2.735 2.376-3.67 3.887.072-.36.287-.936.431-1.439.504-.936 1.872-2.376 2.592-3.167.719-.792.863-1.008 2.951.288-.288-.864-.72-1.512-1.08-2.016-.648-.864-.936-.504-1.727.144-.432.36-.864.864-1.728 1.584.864-2.304 1.943-4.751 2.519-6.334-1.511 1.439-2.663 3.455-3.599 5.686.072-1.584.936-4.895.792-6.55-.72.864-1.439 2.375-1.799 4.103 0-1.728 0-3.959-.504-5.183.144 1.08-1.008 3.599-1.296 5.327-.719-1.656-1.511-3.311-1.943-4.391 0 .864.288 2.879.648 5.254-.576-1.799-2.663-3.742-2.735-5.182-.072 2.087 1.439 5.686 1.583 6.694 0 .288.144.792.288 1.367-.72-1.151-2.447-3.239-2.951-4.678 0 .864.36 2.375.504 3.311-.936-.864-1.512-.36-3.095 2.519.504-.144 1.079-.792 1.511-1.08s.864-.575 1.296.144c.576.936 2.159 3.167 3.023 5.974-.288-.791-1.728-2.663-2.231-3.526.072.431.359 1.727.575 2.519-.719-1.944-1.439-3.311-2.015-4.031 0 .936.648 3.599.792 4.751-.432-.936-.864-1.8-1.224-2.52.288.792.648 3.455.648 4.751-.648-1.08-1.224-1.944-1.655-2.591.359 1.079.719 3.311.791 4.534-.216-.432-.432-.72-.504-.936-.719-1.151-1.223.936-1.655 2.016-.432 1.079-.216.936.288.144.792-1.152.648-1.008 1.152.288.287.791 1.007 2.519 1.655 4.894-.648-1.008-1.512-2.375-1.943-3.383-.504-1.007-.504-.935 0 1.08.36 1.295 1.151 3.815.863 6.406-.432-1.656-1.079-3.671-1.727-5.47.072 1.151.216 3.239.216 4.174-.288-.504-.576-.935-1.008-1.295.504 1.511.648 4.174.648 5.902-.288-1.08-.648-2.088-.936-2.735 0 1.223.288 4.03.576 5.326-.288-1.008-.648-2.015-1.08-2.807.216 1.367.288 3.599 0 5.038-.072-.72-.288-1.439-.575-2.231-.072.72-.288 2.663-.792 3.527.288-1.296.288-2.447.216-3.095a17 17 0 0 1-1.44 3.671c.144-.648.432-1.872.504-3.095-.144.791-.72 1.367-.936 2.015.144-1.08.144-1.943.144-2.375-.576 1.799-1.367 3.095-2.375 4.534.576-1.511.72-3.095.72-3.958-.936 1.655-1.008 2.375-2.519 4.318a6 6 0 0 0 .503-3.815c-.143.432-.647 1.656-1.367 3.023-.144-.935.072-3.311.36-3.958-.648.432-1.512 1.655-1.512 2.663-.216-1.008-.576-1.8-1.151-2.447.503 3.239.288 6.046-1.656 7.413-4.39 2.879-8.061 9.213-13.388 11.517.36.215 1.224.935 1.656 1.439 5.11-2.231 8.493-7.342 12.452-10.149 1.871-1.007 6.19 1.224 10.868 0 1.872-.504 5.399.576 6.982 1.224-.72-1.008-2.159-1.799-4.75-2.375"/><path stroke="#000" stroke-linecap="round" stroke-linejoin="round" stroke-width=".072" d="M319.794 204.271c1.943 0 4.462.503 5.254.791-.792-.647-2.015-1.295-3.383-1.727 1.728.288 2.16.504 3.383.864.792.216.936.288.936 1.511 0 .792 0 1.8.504.144.432-1.439.576-1.655-.216-2.159-.792-.576-1.872-1.08-3.023-1.584 2.231.576 4.102 1.296 5.182 2.016a9.8 9.8 0 0 0-2.735-2.735c1.296.287 3.023 1.007 4.319 1.655-.576-.792-1.584-2.087-2.808-2.663 1.944.432 4.103 1.08 5.255 1.727-1.08-1.439-2.375-2.735-4.031-3.239 2.231.288 4.319.936 5.254 1.512-1.295-1.224-2.663-2.519-3.958-2.951 1.799.216 3.527.72 4.462 1.151-1.223-1.223-3.311-2.303-5.254-2.591 1.367 0 3.167.144 4.606.432-1.223-.792-3.311-1.295-4.318-1.295 2.231-.504 4.75-.432 7.557.503-1.151-.719-3.239-1.583-5.182-2.015 1.08 0 2.735-.36 3.743-.144-1.08-.36-3.887-.936-5.039-.864 2.232-.647 4.391-1.079 5.759-1.367-2.304-.144-4.967 0-7.27.432 2.591-2.16 4.463-2.16 6.118-2.448s2.879-.647 1.224-.863q-1.728-.216-2.807-.216c1.799-.576 4.102-1.728 4.822-2.088.792-.431 2.663-1.727.648-.863-2.016.935-4.895 1.079-7.486 1.367-1.08.144-1.943.36-2.735.792 1.44-.792 2.951-1.655 4.607-2.447 1.655-.792 1.295-1.08 2.735.576.719.791.647 0-.216-2.088-.72-1.583-1.368-.863-2.951-.288-.576.216-1.368.576-2.232 1.008.936-1.08 4.103-4.75 4.607-5.326.576-.576 1.367.072 2.447.792 1.08.719.72 0-.288-1.08-1.007-1.152-1.439-1.296-2.087-.792-.648.576-3.815 2.591-5.542 4.247 3.239-3.095 6.981-6.55 7.845-7.486q-2.807 1.512-4.966 3.239c.504-.72 1.439-2.087 1.943-2.663-.72.504-1.799 1.08-2.375 1.583.864-1.511 1.799-2.951 1.871-3.239.216-.359.432-.503.72-.503s.72 0 1.656-.144c.935-.072.575-.288.143-.36-2.591-.648-2.447-.36-3.023.144a16 16 0 0 0-1.583 1.871c.648-2.015 2.591-3.887 2.951-4.462-2.015 1.079-3.095 2.015-3.815 2.879.936-1.512 3.815-3.815 4.679-4.679-.936.36-2.807 1.296-3.311 1.872.504-.864.935-1.728 1.367-2.664-1.583 1.008-2.735 2.376-3.67 3.887.072-.36.287-.936.431-1.439.504-.936 1.872-2.376 2.592-3.167.719-.792.863-1.008 2.951.288-.288-.864-.72-1.512-1.08-2.016-.648-.864-.936-.504-1.727.144-.432.36-.864.864-1.728 1.584.864-2.304 1.943-4.751 2.519-6.334-1.511 1.439-2.663 3.455-3.599 5.686.072-1.584.936-4.895.792-6.55-.72.864-1.439 2.375-1.799 4.103 0-1.728 0-3.959-.504-5.183.144 1.08-1.008 3.599-1.296 5.327-.719-1.656-1.511-3.311-1.943-4.391 0 .864.288 2.879.648 5.254-.576-1.799-2.663-3.742-2.735-5.182-.072 2.087 1.439 5.686 1.583 6.694 0 .288.144.792.288 1.367-.72-1.151-2.447-3.239-2.951-4.678 0 .864.36 2.375.504 3.311-.936-.864-1.512-.36-3.095 2.519.504-.144 1.079-.792 1.511-1.08s.864-.575 1.296.144c.576.936 2.159 3.167 3.023 5.974-.288-.791-1.728-2.663-2.231-3.526.072.431.359 1.727.575 2.519-.719-1.944-1.439-3.311-2.015-4.031 0 .936.648 3.599.792 4.751-.432-.936-.864-1.8-1.224-2.52.288.792.648 3.455.648 4.751-.648-1.08-1.224-1.944-1.655-2.591.359 1.079.719 3.311.791 4.534-.216-.432-.432-.72-.504-.936-.719-1.151-1.223.936-1.655 2.016-.432 1.079-.216.936.288.144.792-1.152.648-1.008 1.152.288.287.791 1.007 2.519 1.655 4.894-.648-1.008-1.512-2.375-1.943-3.383-.504-1.007-.504-.935 0 1.08.36 1.295 1.151 3.815.863 6.406-.432-1.656-1.079-3.671-1.727-5.47.072 1.151.216 3.239.216 4.174-.288-.504-.576-.935-1.008-1.295.504 1.511.648 4.174.648 5.902-.288-1.08-.648-2.088-.936-2.735 0 1.223.288 4.03.576 5.326-.288-1.008-.648-2.015-1.08-2.807.216 1.367.288 3.599 0 5.038-.072-.72-.288-1.439-.575-2.231-.072.72-.288 2.663-.792 3.527.288-1.296.288-2.447.216-3.095a17 17 0 0 1-1.44 3.671c.144-.648.432-1.872.504-3.095-.144.791-.72 1.367-.936 2.015.144-1.08.144-1.943.144-2.375-.576 1.799-1.367 3.095-2.375 4.534.576-1.511.72-3.095.72-3.958-.936 1.655-1.008 2.375-2.519 4.318a6 6 0 0 0 .503-3.815c-.143.432-.647 1.656-1.367 3.023-.144-.935.072-3.311.36-3.958-.648.432-1.512 1.655-1.512 2.663-.216-1.008-.576-1.8-1.151-2.447.503 3.239.288 6.046-1.656 7.413-4.39 2.879-8.061 9.213-13.388 11.517.36.215 1.224.935 1.656 1.439 5.11-2.231 8.493-7.342 12.452-10.149 1.871-1.007 6.19 1.224 10.868 0 1.872-.504 5.399.576 6.982 1.224-.72-1.008-2.159-1.799-4.75-2.375z"/><path stroke="#000" stroke-linecap="round" stroke-linejoin="round" stroke-width=".072" d="M324.114 193.977c1.224-1.008 3.023-2.015 4.535-2.231M321.879 199.449c1.871-1.943 4.319-3.599 7.27-4.247M331.529 193.69c-1.583-.36-3.167-.432-4.175 0M325.767 197.361c1.223-.144 2.591-.072 3.814.072M326.778 196.065h2.088M321.521 197.002c.647-1.224 1.439-3.527 1.871-5.398.072 1.367 0 4.174-1.296 6.693M317.275 201.248c1.512-.576 4.031-.72 5.687-.216-1.08-.72-2.232-1.368-4.103-1.296M308.637 197.504c.144.648.216 1.368.216 2.088M307.273 202.328c.936-.936 1.872-2.231 2.592-3.527M308.419 202.543c1.152-1.008 1.871-1.943 2.303-2.879M314.756 197.144c-.216 1.368-.72 3.743-2.591 5.326M312.452 199.304c-.287.72-.647 1.367-1.151 1.943"/><path stroke="#000" stroke-linecap="round" stroke-linejoin="round" stroke-width=".072" d="M313.895 200.312c.431-.576.935-1.295 1.367-2.087M314.253 202.399c1.439-1.512 1.943-3.599 2.231-4.751M321.162 188.075c.36 1.511.936 3.599.936 5.398M319.651 186.852c.864 1.727 1.8 6.55 1.224 10.725M319.293 191.459c.216.936 1.152 4.175.864 6.118M318.927 194.122c.36 1.439.576 3.239.288 4.822M317.776 196.353c.144 1.296-.36 4.247-1.872 6.046M324.331 187.428c0-4.031-2.087-7.99-2.951-9.717M324.114 172.817c1.008 2.663 2.591 6.262 2.088 11.588M322.892 173.537c.935 2.16 2.375 5.399 2.519 8.925M322.315 175.695c1.224 2.087 2.736 5.542 2.592 9.429M322.315 184.046c.504 1.727 1.08 4.102 1.008 6.621M327.425 174.905c-.72-3.311-1.656-5.039-3.239-7.126-.504-.648-.864-1.152-1.224-1.511M325.767 173.896c.503 1.655 1.367 3.743 1.007 5.758"/><path stroke="#000" stroke-linecap="round" stroke-linejoin="round" stroke-width=".072" d="M325.479 167.563c.287 1.151.647 2.663.863 3.598M327.854 172.24c-.648-2.375-1.151-5.182-1.511-7.558M329.149 169.434c.072-1.368-.72-3.527-1.584-5.614M329.365 163.676v2.015M328.143 172.889c.647-2.303 1.367-4.606 2.231-6.766M330.3 169.937c.288-.936.72-2.015 1.151-3.167M327.636 176.56c.72-1.871 1.367-3.599 2.303-5.182M327.277 179.654c.936-2.376 1.224-4.679 2.663-6.334.864-1.008 1.584-2.088 2.304-3.239"/><path stroke="#000" stroke-linecap="round" stroke-linejoin="round" stroke-width=".072" d="M329.007 176.704c.72-1.584 1.008-2.664 1.871-3.815M327.425 181.094c.864-1.727 2.735-4.535 4.318-6.55M330.736 179.151c.288-.72.792-1.583 1.224-2.447M326.919 183.253c1.224-1.655 3.095-3.599 5.542-5.47M325.767 186.421c1.151-1.584 2.447-3.239 3.742-4.463M325.767 187.789c1.439-1.584 3.239-2.808 4.678-3.599M324.831 190.667c1.584-1.727 2.591-2.735 3.671-3.311M323.468 195.921c1.511-1.439 4.174-2.519 6.766-3.311M324.901 192.251c2.088-1.871 4.679-4.175 8.278-4.031M323.32 199.232c1.368-.504 3.239-.576 4.967-.36M324.114 200.096c.792 0 1.872.144 3.023.36M325.696 201.464a8 8 0 0 0-2.088-.935M323.247 202.111c-1.656-.648-3.599-1.152-5.255-1.08M316.77 202.542c1.367-.143 3.238.216 4.894.792M318.357 204.414c.36-.072.864-.144 1.368-.144"/><path fill="#549334" d="M283.082 201.031c.864-.144 3.239-.144 5.182.144-1.295-.504-.432-3.455-1.943-4.607 1.583.72 2.231.432 3.023.576.072 0 .216 0 .288.072 0-.432 0-1.295.36-1.727.216.791 1.079.935 1.871 1.583.144.072.216.216.36.36 0-.936 1.44-2.159 1.584-2.807.287.864 1.079 1.44 1.367 2.663.72 3.095-1.655 3.743-.792 5.902 4.319 2.879 8.206 8.566 13.532 10.941-.36.216-1.224.935-1.655 1.439-7.054-3.095-11.589-12.164-18.067-12.596-.144 0-.288.144-.503.216-1.584.792-3.096 1.368-4.535 1.08s-2.663.144-3.887.72c1.8-2.735 2.735-3.527 3.815-3.815-.936.36-2.735.648-4.103.072-.791 1.943-2.663 2.519-4.318 2.663-1.656.216-2.951.936-3.455 1.799-.216-.863-.072-2.303.144-2.735-.72-.072-1.584-.144-2.663 0 1.007-.36 1.871-3.167 4.318-3.527-.432-.287-.864-.719-1.223-1.151.575.36 1.079 0 2.159-.288.576-.144 1.367-.288 2.159-.216-.792-.576-1.439-1.655-1.583-2.375-.72 2.303-3.239 2.879-4.679 3.023-1.727.144-2.591.72-2.879 1.151 0-1.079.36-1.943.72-2.591-.72.072-1.368.144-1.8.288.288-1.655 1.152-2.663 2.016-3.239-1.08-.288-2.519-2.087-2.591-3.455.791 1.008 4.318 0 5.974 1.872-1.08-.936-1.656-2.088-1.728-3.383.432.504 1.224.504 2.016 1.007-1.152-4.102-3.959-3.167-5.687-4.534-2.159-1.656-1.295-4.607-3.023-5.974.72 0 1.368 0 1.872.144-.36-.864-.36-2.663-.288-3.671.432 1.296 1.871 1.152 2.807 2.375.144-.36.216-.72.144-1.079.648.791 1.224 1.439 1.655 2.159-.143-1.368.432-2.159.864-2.519 0 .432.144 1.655.648 2.735.576 1.079.792 2.375.36 4.318-.36 1.872.36 3.383 1.367 4.751.072-.864 0-3.239-.287-4.031-.288-.792-.36-2.015-.072-3.455.143.576.863 1.44 1.583 2.16.216.216.288.431.432.719.216-.503.36-.935.576-1.367.216-.648-2.807-1.8-2.663-5.183-2.016-1.079-3.887-2.663-4.391-5.326.216.216.648.432 1.152.576-1.152-1.655-1.44-3.815-1.008-4.822.288.863 1.152 1.151 2.087 1.799.216-1.799-1.655-3.095-1.655-4.894.072-2.736 1.511-2.808 2.087-4.535.36.648.648 1.224.864 1.871.288-1.151 1.727-2.015 1.727-2.879.72 1.08 1.224 2.232.864 3.455.936-.288 2.015-.072 2.663.36-1.799.36-1.655 2.447-2.879 3.023-1.152.576-3.383 2.087-2.807 4.391.72.791 1.368 2.087 1.799 4.246.36.36.648.72.864 1.224a9.6 9.6 0 0 0 .792-1.728c-.072-.935-1.296-1.943-1.656-2.807-.431-1.151.648-3.023.144-4.606.576.216 1.584.576 2.232 1.439.575-1.223 1.583-2.087 1.583-4.174.432.791.792 1.727 1.008 2.663.648-.864 1.799-1.872 3.167-2.303-.864 1.439-.576 2.879-.576 4.102s-.072 3.239-1.799 4.535c-1.728 1.367-2.232 1.727-2.592 5.11.72-1.583 2.52-2.807 2.592-3.671.359 1.512.647 2.736.647 3.743.576-.72 1.656-1.079 2.879-1.151-.863 1.007-1.511 4.966-3.886 5.47-2.304.504-3.239 2.807-3.887 3.815-.792 1.223-1.008 2.087-.216 3.742 0-1.295.216-2.663.648-3.454.792-1.584 2.447-2.16 2.519-3.239.216 1.151.36 2.087.288 2.807 1.152-2.376 3.671-1.728 4.318-2.376-.431.648-.935 1.512-1.223 2.736-.216 1.295-1.224 2.447-2.591 3.095-1.08.503-2.016.575-2.591 1.727-.144.648.431 1.224.431 2.159 0-.36.144-.719.36-.935.648-.936 1.08-1.656 1.08-2.232 1.439 1.44 1.799 2.879 1.296 4.391-.504 1.511-.792 2.807.143 4.031.576.503 1.224.863 1.8 1.007.792-.791-.144-1.727-1.008-2.591-.863-.936-.792-3.023-.072-3.959.72-.863 1.368-1.799 1.296-2.591.576.504 1.151 1.368 1.295 1.8.288-.72.648-1.296 1.224-1.656.072 1.296.936 1.872.936 3.239.36-.792 1.007-1.583 1.799-1.799-.144.719.432 1.727.576 2.447 0 .504 0 1.08-.288 1.799-.288.648-.72 1.368-1.799 1.944-.36.144-.864.36-1.368.576 1.224-.144 3.455.287 4.031 1.151-.936-.36-2.951.36-3.959.792"/><path stroke="#000" stroke-linecap="round" stroke-linejoin="round" stroke-width=".072" d="M283.082 201.031c.864-.144 3.239-.144 5.182.144-1.295-.504-.432-3.455-1.943-4.607 1.583.72 2.231.432 3.023.576.072 0 .216 0 .288.072 0-.432 0-1.295.36-1.727.216.791 1.079.935 1.871 1.583.144.072.216.216.36.36 0-.936 1.44-2.159 1.584-2.807.287.864 1.079 1.44 1.367 2.663.72 3.095-1.655 3.743-.792 5.902 4.319 2.879 8.206 8.566 13.532 10.941-.36.216-1.224.935-1.655 1.439-7.054-3.095-11.589-12.164-18.067-12.596-.144 0-.288.144-.503.216-1.584.792-3.096 1.368-4.535 1.08s-2.663.144-3.887.72c1.8-2.735 2.735-3.527 3.815-3.815-.936.36-2.735.648-4.103.072-.791 1.943-2.663 2.519-4.318 2.663-1.656.216-2.951.936-3.455 1.799-.216-.863-.072-2.303.144-2.735-.72-.072-1.584-.144-2.663 0 1.007-.36 1.871-3.167 4.318-3.527-.432-.287-.864-.719-1.223-1.151.575.36 1.079 0 2.159-.288.576-.144 1.367-.288 2.159-.216-.792-.576-1.439-1.655-1.583-2.375-.72 2.303-3.239 2.879-4.679 3.023-1.727.144-2.591.72-2.879 1.151 0-1.079.36-1.943.72-2.591-.72.072-1.368.144-1.8.288.288-1.655 1.152-2.663 2.016-3.239-1.08-.288-2.519-2.087-2.591-3.455.791 1.008 4.318 0 5.974 1.872-1.08-.936-1.656-2.088-1.728-3.383.432.504 1.224.504 2.016 1.007-1.152-4.102-3.959-3.167-5.687-4.534-2.159-1.656-1.295-4.607-3.023-5.974.72 0 1.368 0 1.872.144-.36-.864-.36-2.663-.288-3.671.432 1.296 1.871 1.152 2.807 2.375.144-.36.216-.72.144-1.079.648.791 1.224 1.439 1.655 2.159-.143-1.368.432-2.159.864-2.519 0 .432.144 1.655.648 2.735.576 1.079.792 2.375.36 4.318-.36 1.872.36 3.383 1.367 4.751.072-.864 0-3.239-.287-4.031-.288-.792-.36-2.015-.072-3.455.143.576.863 1.44 1.583 2.16.216.216.288.431.432.719.216-.503.36-.935.576-1.367.216-.648-2.807-1.8-2.663-5.183-2.016-1.079-3.887-2.663-4.391-5.326.216.216.648.432 1.152.576-1.152-1.655-1.44-3.815-1.008-4.822.288.863 1.152 1.151 2.087 1.799.216-1.799-1.655-3.095-1.655-4.894.072-2.736 1.511-2.808 2.087-4.535.36.648.648 1.224.864 1.871.288-1.151 1.727-2.015 1.727-2.879.72 1.08 1.224 2.232.864 3.455.936-.288 2.015-.072 2.663.36-1.799.36-1.655 2.447-2.879 3.023-1.152.576-3.383 2.087-2.807 4.391.72.791 1.368 2.087 1.799 4.246.36.36.648.72.864 1.224a9.6 9.6 0 0 0 .792-1.728c-.072-.935-1.296-1.943-1.656-2.807-.431-1.151.648-3.023.144-4.606.576.216 1.584.576 2.232 1.439.575-1.223 1.583-2.087 1.583-4.174.432.791.792 1.727 1.008 2.663.648-.864 1.799-1.872 3.167-2.303-.864 1.439-.576 2.879-.576 4.102s-.072 3.239-1.799 4.535c-1.728 1.367-2.232 1.727-2.592 5.11.72-1.583 2.52-2.807 2.592-3.671.359 1.512.647 2.736.647 3.743.576-.72 1.656-1.079 2.879-1.151-.863 1.007-1.511 4.966-3.886 5.47-2.304.504-3.239 2.807-3.887 3.815-.792 1.223-1.008 2.087-.216 3.742 0-1.295.216-2.663.648-3.454.792-1.584 2.447-2.16 2.519-3.239.216 1.151.36 2.087.288 2.807 1.152-2.376 3.671-1.728 4.318-2.376-.431.648-.935 1.512-1.223 2.736-.216 1.295-1.224 2.447-2.591 3.095-1.08.503-2.016.575-2.591 1.727-.144.648.431 1.224.431 2.159 0-.36.144-.719.36-.935.648-.936 1.08-1.656 1.08-2.232 1.439 1.44 1.799 2.879 1.296 4.391-.504 1.511-.792 2.807.143 4.031.576.503 1.224.863 1.8 1.007.792-.791-.144-1.727-1.008-2.591-.863-.936-.792-3.023-.072-3.959.72-.863 1.368-1.799 1.296-2.591.576.504 1.151 1.368 1.295 1.8.288-.72.648-1.296 1.224-1.656.072 1.296.936 1.872.936 3.239.36-.792 1.007-1.583 1.799-1.799-.144.719.432 1.727.576 2.447 0 .504 0 1.08-.288 1.799-.288.648-.72 1.368-1.799 1.944-.36.144-.864.36-1.368.576 1.224-.144 3.455.287 4.031 1.151-.936-.36-2.951.36-3.959.792z"/><path stroke="#000" stroke-linecap="round" stroke-linejoin="round" stroke-width=".072" d="M270.132 168.931c.288-2.591 1.799-5.183 2.807-5.83.216-.144.432-.216.648-.288M270.13 161.084c.144 1.367-.72 3.886-.36 5.614"/><path stroke="#000" stroke-linecap="round" stroke-linejoin="round" stroke-width=".072" d="M275.022 163.243c-1.512.216-3.239 2.951-3.815 3.599M273.084 167.491c.576.791.576 3.454 1.08 4.39M276.749 166.195c.072 1.512-1.008 3.743-1.008 5.399M267.826 169.146c.36 1.295 2.591 2.735 3.167 3.959M268.185 173.249c.503.864 2.591 1.655 3.167 2.447M269.912 186.42c-.719-1.871-2.159-1.008-2.591-3.815-.288-1.583-.72-2.591-2.447-3.023M278.045 176.055c-1.008 1.728-.576 3.527-1.728 5.039M272.431 177.064c.288 1.727 1.583 2.303 1.727 3.311M264.944 177.35c.144.72 1.296 1.944 1.512 2.808M267.756 178.359c.432 1.368.36 3.167.576 4.175M263.869 180.014c2.447 1.368 2.087 4.319 3.599 5.183M281 177.783c-1.08.863-1.872 3.095-3.023 3.743M276.898 184.406c-.288 1.943-1.224 1.871-1.656 3.527M280.638 184.692c-1.368.792-2.231 3.383-4.103 4.247M270.202 189.804c.36.648 1.8 1.08 2.087 1.871M265.957 191.243c.792.864 3.095.72 4.031 1.44M266.962 196.353c.864-1.008 3.455-1.296 4.606-2.303M268.044 198.08c.936-1.008 3.599-.72 4.894-2.447M277.472 191.746c.144.936-.648 3.239-.36 4.534M280.852 192.178c.072 1.512-.792 3.383-.504 4.607M282.942 191.746c-.504 1.943-.072 3.239-.432 4.39M270.42 202.183c1.511-.792 4.103-.144 5.542-1.08M280.57 203.695c1.512-1.367 5.543-.791 6.982-1.511M285.389 193.689c-.72 1.296-.288 2.592-1.079 3.455M287.768 197.648c1.655.792 2.591 2.304 3.598 2.952M293.813 195.777c.648 1.655-.216 3.167 0 3.959M290.066 196.281c.288.864 1.44 1.152 1.8 2.232M282.151 200.528c1.152-.648 2.735-.792 3.887-.648M272.143 182.246c.216 1.656 1.223 2.519.935 3.671M272.937 198.729c1.007.576 3.023-.288 4.462.504M272.795 160.365c-.072.936-.791 1.799-.863 2.879M270.996 162.236c.36 1.152.504 2.232.144 3.239M270.637 170.586s-.576-.576-.864-.792M272.436 174.832c-1.08-1.079-2.663-1.511-3.815-1.943M274.089 174.328c.432-1.224.648-2.664.504-3.743-.072-.936 0-1.584.288-2.16"/><path stroke="#000" stroke-linecap="round" stroke-linejoin="round" stroke-width=".072" d="M274.09 177.351c-.144-1.8.791-3.239 2.879-5.542.935-1.008 1.007-3.024.503-4.967M273.295 176.055s.288.648.288 1.08M266.604 180.59c0-.791.431-1.583.719-2.231M272.36 188.795s.144.144.144.216"/><path stroke="#000" stroke-linecap="round" stroke-linejoin="round" stroke-width=".072" d="M275.459 179.51c-.504-2.015-2.952-2.735-3.239-3.455-.144.576-.288 1.152-.288 1.584M278.913 178.359c0 .936-.288 1.728-1.008 2.519-1.511 1.728-2.879 2.232-3.598 5.111"/><path stroke="#000" stroke-linecap="round" stroke-linejoin="round" stroke-width=".072" d="M274.596 182.75c.576-1.296.791-2.232.791-3.095 0-.504.144-.936.36-1.296M273.941 184.19c.288.791.072 1.943-.288 2.879M273.801 190.523v-.288M277.329 186.276c0 1.007-.36 1.727-1.223 2.303-1.44 1.079-1.512 1.943-1.368 2.735M273.154 191.674c-.432-.936-1.008-1.44-1.511-1.728M271.932 192.826s-.432-.288-.648-.504"/><path stroke="#000" stroke-linecap="round" stroke-linejoin="round" stroke-width=".072" d="M273.228 192.034c-1.152 1.008-2.159 1.08-3.239 1.152-.504 0-1.296.216-2.015.719M274.02 192.538c-.792.144-1.512 1.944-2.952 3.311-.863.792-2.231 1.008-3.382 1.08M274.884 192.683c.072-.504.216-.864.36-1.224M274.596 195.345c.144-.432.216-.936.216-1.584M276.177 197.721c.792 0 1.511.215 1.871.719.144.144.288.36.504.504M280.352 199.952s.359.072.575.072M276.535 197.288c-.719-1.223-1.007-2.591-.863-3.599M271.354 202.83c.792.072 1.44.288 1.872.288 1.223 0 3.527-.504 4.534-2.447M273.084 199.376c1.727 1.223 4.247 1.295 6.838 1.08M278.771 200.959l.287.144M281.357 198.872c.36-.791.504-1.943.216-2.879-.216-.648-.144-2.159.36-3.455M282.439 199.016c.648-1.079 1.008-1.583 1.152-2.951 0-.576.216-1.223.504-1.871M281.505 200.239c.288-.576.864-.935 1.511-1.223M283.59 200.887s-.36 0-.504.072M291.437 202.112c-1.224.072-2.015.144-3.311.792M292.805 201.823c.144-2.807-2.16-4.247-3.167-4.607M289.849 201.463c1.583.072 3.095.72 4.534 1.656"/><path stroke="#000" stroke-linecap="round" stroke-linejoin="round" stroke-width=".072" d="M292.224 197.432c.719.72 1.439 2.088.791 4.103M269.12 179.438c.576.864.432 2.303.288 3.599-.216 1.296-.288 1.871-.144 2.375M291.29 201.823c-.864-.288-1.944-.504-3.023-.648M283.011 199.016c-.648.144-1.223.575-1.583 1.079"/><path fill="#fff" d="M279.484 166.123c-1.08 1.8-.36 4.391-1.8 6.118s-2.807 2.736-2.735 5.543"/><path stroke="#000" stroke-linecap="round" stroke-linejoin="round" stroke-width=".072" d="M279.484 166.123c-1.08 1.8-.36 4.391-1.8 6.118s-2.807 2.736-2.735 5.543"/><path fill="#ec1c2e" d="M295.397 208.949c-1.008.072-2.087.288-2.807.648.072.504.36 2.231.36 2.663.576-.36 1.727-.719 2.447-.791v-2.52"/><path stroke="#000" stroke-linecap="round" stroke-linejoin="round" stroke-width=".072" d="M295.397 208.949c-1.008.072-2.087.288-2.807.648.072.504.36 2.231.36 2.663.576-.36 1.727-.719 2.447-.791v-2.52"/><path fill="#ec1c2e" d="M299.064 209.02c-2.447-.863-3.959-.503-3.959.288v2.16c0 .36.864.863 3.959.144z"/><path stroke="#000" stroke-linecap="round" stroke-linejoin="round" stroke-width=".072" d="M299.064 209.02c-2.447-.863-3.959-.503-3.959.288v2.16c0 .36.864.863 3.959.144z"/><path stroke="#000" stroke-linecap="round" stroke-linejoin="round" stroke-width=".072" d="M299.064 211.612c-2.735-.792-3.959-.72-3.959-.144"/><path fill="#ec1c2e" d="M304.75 208.949c.936.072 2.087.288 2.807.648-.072.504-.36 2.231-.36 2.663-.576-.36-1.727-.719-2.447-.791v-2.52"/><path stroke="#000" stroke-linecap="round" stroke-linejoin="round" stroke-width=".072" d="M304.75 208.949c.936.072 2.087.288 2.807.648-.072.504-.36 2.231-.36 2.663-.576-.36-1.727-.719-2.447-.791v-2.52"/><path fill="#ec1c2e" d="M301.08 209.02c2.447-.863 3.959-.503 3.959.288v2.16c0 .36-.864.863-3.959.144z"/><path stroke="#000" stroke-linecap="round" stroke-linejoin="round" stroke-width=".072" d="M301.08 209.02c2.447-.863 3.959-.503 3.959.288v2.16c0 .36-.864.863-3.959.144z"/><path stroke="#000" stroke-linecap="round" stroke-linejoin="round" stroke-width=".072" d="M301.08 211.612c2.735-.792 3.959-.72 3.959-.144"/><path fill="#ec1c2e" d="M299.998 208.733c1.223 0 1.511.36 1.511 1.584 0 1.223-.288 1.583-1.511 1.583-1.224 0-1.512-.36-1.512-1.583 0-1.224.288-1.584 1.512-1.584"/><path stroke="#000" stroke-linecap="round" stroke-linejoin="round" stroke-width=".072" d="M299.998 208.733c1.223 0 1.511.36 1.511 1.584 0 1.223-.288 1.583-1.511 1.583-1.224 0-1.512-.36-1.512-1.583 0-1.224.288-1.584 1.512-1.584"/><path fill="#fff" d="M266.744 211.684c-.36.359-.936 1.223-1.223 1.799Z"/><path stroke="#000" stroke-linecap="round" stroke-linejoin="round" stroke-width=".072" d="M266.744 211.684c-.36.359-.936 1.223-1.223 1.799"/><path fill="#fff" d="M267.182 212.044c-.36.36-.935 1.223-1.295 1.799Z"/><path stroke="#000" stroke-linecap="round" stroke-linejoin="round" stroke-width=".072" d="M267.182 212.044c-.36.36-.935 1.223-1.295 1.799"/><path fill="#fff" d="M267.541 212.476c-.36.36-.936 1.224-1.296 1.872Z"/><path stroke="#000" stroke-linecap="round" stroke-linejoin="round" stroke-width=".072" d="M267.541 212.476c-.36.36-.936 1.224-1.296 1.872"/><path fill="#fff" d="M267.899 212.836c-.36.36-1.008 1.224-1.295 1.872Z"/><path stroke="#000" stroke-linecap="round" stroke-linejoin="round" stroke-width=".072" d="M267.899 212.836c-.36.36-1.008 1.224-1.295 1.872"/><path fill="#fff" d="M268.329 213.267c-.359.36-1.007 1.295-1.367 1.943Z"/><path stroke="#000" stroke-linecap="round" stroke-linejoin="round" stroke-width=".072" d="M268.329 213.267c-.359.36-1.007 1.295-1.367 1.943"/><path fill="#fff" d="M268.688 213.627c-.36.36-1.008 1.296-1.368 1.944Z"/><path stroke="#000" stroke-linecap="round" stroke-linejoin="round" stroke-width=".072" d="M268.688 213.627c-.36.36-1.008 1.296-1.368 1.944"/><path fill="#fff" d="M269.048 214.059c-.36.36-1.008 1.296-1.44 1.944Z"/><path stroke="#000" stroke-linecap="round" stroke-linejoin="round" stroke-width=".072" d="M269.048 214.059c-.36.36-1.008 1.296-1.44 1.944"/><path fill="#fff" d="M269.413 214.492c-.36.36-1.008 1.295-1.439 2.015Z"/><path stroke="#000" stroke-linecap="round" stroke-linejoin="round" stroke-width=".072" d="M269.413 214.492c-.36.36-1.008 1.295-1.439 2.015"/><path fill="#fff" d="M269.844 214.852c-.36.36-1.08 1.296-1.512 2.015Z"/><path stroke="#000" stroke-linecap="round" stroke-linejoin="round" stroke-width=".072" d="M269.844 214.852c-.36.36-1.08 1.296-1.512 2.015"/><path fill="#fff" d="M270.202 215.282c-.36.36-1.08 1.296-1.512 2.088Z"/><path stroke="#000" stroke-linecap="round" stroke-linejoin="round" stroke-width=".072" d="M270.202 215.282c-.36.36-1.08 1.296-1.512 2.088"/><path fill="#fff" d="M333.322 211.684c.36.359.936 1.223 1.224 1.799Z"/><path stroke="#000" stroke-linecap="round" stroke-linejoin="round" stroke-width=".072" d="M333.322 211.684c.36.359.936 1.223 1.224 1.799"/><path fill="#fff" d="M332.894 212.044c.359.36.935 1.223 1.295 1.799Z"/><path stroke="#000" stroke-linecap="round" stroke-linejoin="round" stroke-width=".072" d="M332.894 212.044c.359.36.935 1.223 1.295 1.799"/><path fill="#fff" d="M332.535 212.476c.36.36.936 1.224 1.296 1.872Z"/><path stroke="#000" stroke-linecap="round" stroke-linejoin="round" stroke-width=".072" d="M332.535 212.476c.36.36.936 1.224 1.296 1.872"/><path fill="#fff" d="M332.177 212.836c.36.36 1.007 1.224 1.295 1.872Z"/><path stroke="#000" stroke-linecap="round" stroke-linejoin="round" stroke-width=".072" d="M332.177 212.836c.36.36 1.007 1.224 1.295 1.872"/><path fill="#fff" d="M331.741 213.267c.36.36 1.008 1.295 1.368 1.943Z"/><path stroke="#000" stroke-linecap="round" stroke-linejoin="round" stroke-width=".072" d="M331.741 213.267c.36.36 1.008 1.295 1.368 1.943"/><path fill="#fff" d="M331.383 213.627c.36.36 1.007 1.296 1.367 1.944Z"/><path stroke="#000" stroke-linecap="round" stroke-linejoin="round" stroke-width=".072" d="M331.383 213.627c.36.36 1.007 1.296 1.367 1.944"/><path fill="#fff" d="M331.024 214.059c.36.36 1.008 1.296 1.44 1.944Z"/><path stroke="#000" stroke-linecap="round" stroke-linejoin="round" stroke-width=".072" d="M331.024 214.059c.36.36 1.008 1.296 1.44 1.944"/><path fill="#fff" d="M330.588 214.492c.36.36 1.008 1.295 1.439 2.015Z"/><path stroke="#000" stroke-linecap="round" stroke-linejoin="round" stroke-width=".072" d="M330.588 214.492c.36.36 1.008 1.295 1.439 2.015"/><path fill="#fff" d="M330.229 214.852c.36.36 1.08 1.296 1.512 2.015Z"/><path stroke="#000" stroke-linecap="round" stroke-linejoin="round" stroke-width=".072" d="M330.229 214.852c.36.36 1.08 1.296 1.512 2.015"/><path fill="#fff" d="M329.871 215.282c.36.36 1.08 1.296 1.512 2.088Z"/><path stroke="#000" stroke-linecap="round" stroke-linejoin="round" stroke-width=".072" d="M329.871 215.282c.36.36 1.08 1.296 1.512 2.088"/><path fill="#ec1c2e" d="M300.001 206.718c6.622 0 12.02.36 16.267 1.295-.504.432-1.008.936-1.296 1.224-.36.36-.288 1.224.648 2.015.864.792 3.023 1.44 5.11.504.432-.144.792-.36 1.224-.504-.576.504-1.08 1.152-.792 1.8 1.224 2.807 6.118-.864 8.997 2.663.792-1.008 2.663-3.023 3.455-3.815-1.655-2.015-3.959-1.655-5.83-1.511.72-1.152.792-2.016-.72-3.095-.648-.432-2.735-.36-4.678.504.36-.936.288-2.448-2.735-3.743-4.607-2.016-12.381-2.447-19.578-2.447-7.198 0-14.971.431-19.578 2.447-3.023 1.367-3.095 2.807-2.663 3.743-1.943-.864-4.103-.936-4.679-.504-1.511 1.079-1.439 1.943-.719 3.095-1.872-.144-4.175-.504-5.83 1.511.791.792 2.735 2.807 3.454 3.815 2.879-3.527 7.702.144 8.926-2.663.287-.648-.216-1.296-.792-1.8.36.216.792.36 1.223.504 2.088.936 4.247.288 5.111-.504.863-.791 1.007-1.655.648-2.015-.36-.288-.792-.792-1.296-1.224 4.247-.935 9.645-1.295 16.267-1.295"/><path stroke="#000" stroke-linecap="round" stroke-linejoin="round" stroke-width=".072" d="M300.001 206.718c6.622 0 12.02.36 16.267 1.295-.504.432-1.008.936-1.296 1.224-.36.36-.288 1.224.648 2.015.864.792 3.023 1.44 5.11.504.432-.144.792-.36 1.224-.504-.576.504-1.08 1.152-.792 1.8 1.224 2.807 6.118-.864 8.997 2.663.792-1.008 2.663-3.023 3.455-3.815-1.655-2.015-3.959-1.655-5.83-1.511.72-1.152.792-2.016-.72-3.095-.648-.432-2.735-.36-4.678.504.36-.936.288-2.448-2.735-3.743-4.607-2.016-12.381-2.447-19.578-2.447-7.198 0-14.971.431-19.578 2.447-3.023 1.367-3.095 2.807-2.663 3.743-1.943-.864-4.103-.936-4.679-.504-1.511 1.079-1.439 1.943-.719 3.095-1.872-.144-4.175-.504-5.83 1.511.791.792 2.735 2.807 3.454 3.815 2.879-3.527 7.702.144 8.926-2.663.287-.648-.216-1.296-.792-1.8.36.216.792.36 1.223.504 2.088.936 4.247.288 5.111-.504.863-.791 1.007-1.655.648-2.015-.36-.288-.792-.792-1.296-1.224 4.247-.935 9.645-1.295 16.267-1.295z"/><path stroke="#000" stroke-linecap="round" stroke-linejoin="round" stroke-width=".072" d="m283.803 208.013-1.08.216c-1.943.503-4.246 2.231-2.231 2.375M278.984 212.979c.359-.864-.648-1.08-1.584-.72-.792.288-1.655.36-2.663.288-1.44 0-2.087-1.439-1.152-2.303.792-.72 2.519 0 4.535.936"/><path stroke="#000" stroke-linecap="round" stroke-linejoin="round" stroke-width=".072" d="M285.099 209.238c-.431-.288-1.295-.144-1.871.288-.72.504-1.727 1.079-2.807 1.151-1.08 0-1.584-.935-2.447-2.375-.072-.144-.144-.288-.216-.504M272.36 210.316c.288.432.648.936 1.08 1.584M316.271 208.013l1.079.216c1.944.503 4.247 2.231 2.231 2.375M321.089 212.979c-.36-.864.648-1.08 1.584-.72.792.288 1.655.36 2.663.288 1.44 0 2.087-1.439 1.152-2.303-.792-.72-2.52 0-4.535.936"/><path stroke="#000" stroke-linecap="round" stroke-linejoin="round" stroke-width=".072" d="M314.97 209.238c.432-.288 1.295-.144 1.871.288.72.504 1.728 1.079 2.807 1.151 1.08 0 1.584-.935 2.447-2.375.072-.144.144-.288.216-.504M327.71 210.316c-.287.432-.647.936-1.079 1.584"/><path fill="#ffce46" d="M300 202.903h.863s.936.072.936 1.295c0 .72-.288 1.44-.864 1.44h-1.007v-1.44h.432v.936h.359s.576-.072.576-.936c0-.792-.36-.863-.504-.863h-.431v.863h-.432v-1.295zM303.243 205.278c-.36 0-.648-.36-.648-1.008s.216-1.007.648-1.007.648.359.648 1.007-.288 1.008-.648 1.008v.504c.648 0 1.079-.576 1.079-1.44s-.431-1.439-1.079-1.439-1.08.575-1.08 1.439.432 1.44 1.08 1.44zM305.905 205.71l.504-2.088-.072 2.088h.504v-2.735h-.648l-.432 2.087-.432-2.087-.648-.072-.072 2.807h.432l.072-2.088.36 2.088zM307.627 205.782l.144-2.735-.504-.072-.072 2.807zM308.708 203.119l.792 1.943.072-1.871h.504l-.216 2.735h-.432l-.792-2.016-.072 1.944h-.503l.144-2.807zM310.8 205.998l.216-2.735-.504-.072-.216 2.807zM313.313 204.414c0-.432-.216-1.079-.791-1.079-.648-.072-1.08.432-1.224 1.367-.072.864.216 1.512.792 1.584.576 0 1.007-.288 1.079-.936h-.431s-.216.432-.576.432-.504-.432-.432-1.008c0-.576.288-.935.72-.864.359 0 .503.36.431.576h.432zM314.681 205.998v.576l.504.072-.288-2.879-.503-.072-1.224 2.591.432.072.216-.503h.432l.072-.432-.288-.072.504-1.008.071 1.152-.287-.072-.072.432zM316.557 204.127l.432 2.016.432-1.8.431.072-.647 2.663-.432-.072-.432-2.159-.432 1.943-.504-.144.72-2.663zM319 207.149l-.072.576.359.216.36-2.879-.504-.216-1.727 2.303.432.144.36-.431.36.144.144-.432-.216-.072.647-.936-.143 1.152-.288-.144-.144.432zM279.705 205.278l.288.72.432-.144-.144-.288s.36-.144.576-.216c.144 0 .36 0 .432.216s0 .36-.072.432c-.144 0-.576.216-.576.216l-.144-.432-.432.144.72 1.872.432-.144-.36-1.008s.216-.072.432-.216c.216-.072.359 0 .503.288s.216.576.216.576l.432-.144s-.216-.576-.288-.72c-.144-.288-.36-.432-.504-.36.144 0 .288-.36.144-.72-.144-.359-.503-.647-.791-.575-.288.144-1.224.503-1.224.503M284.527 203.839l.216 1.008h.432l-.072-.648s.288 0 .432-.072c.216 0 .36 0 .432.288 0 .288 0 .504-.288.576-.216 0-.432.072-.432.072v-.288l-.504.072.288 1.728h.432l-.144-1.08s.288 0 .576-.072c.432-.072.576-.648.504-1.08-.072-.504-.432-.791-.792-.72-.576.072-1.008.144-1.008.144M287.767 205.782s.36-.288.36-.576c0-.216-.216-1.871-.216-1.871h.504s.144 1.44.216 1.799c0 .432-.072 1.008-.792 1.08s-.936-.432-1.008-.864c0-.36-.216-1.871-.216-1.871h.504s.216 1.583.216 1.799.144.504.504.432M289.203 205.998s.647 0 1.007-.072c.576 0 .72-.576.648-.864 0-.36-.144-.504-.36-.648a.69.69 0 0 0 .144-.647c0-.504-.504-.648-.936-.648-.647 0-.863.072-.863.072v.792h.576v-.288h.575c.216 0 .288.144.288.288 0 .071 0 .287-.216.359h-.575v-.288h-.504l.144 1.152h.432v-.36h.647c.144 0 .288.072.288.36 0 .216 0 .36-.216.432h-.647v-.432h-.504v.864zM291.289 203.119l.072 2.735 1.512-.072v-.504l-1.08.072-.072-2.303zM293.742 205.71l-.072-2.735h-.504l.144 2.807zM296.114 203.838c0-.504-.36-1.007-.935-1.007s-1.008.575-1.008 1.511c0 .864.432 1.512 1.008 1.44a.984.984 0 0 0 1.007-1.008h-.432s-.216.576-.503.576-.576-.36-.576-1.008.144-.936.576-.936.503.36.503.504h.432zM297.698 205.134l.144.504h.504l-.792-2.735h-.575l-.72 2.807h.432l.144-.576h.431v-.504h-.287l.287-1.08.288 1.08h-.288v.504zM283.805 203.983l-1.583.432.647 2.663 1.584-.36-.072-.431-1.152.216-.216-.648 1.08-.288-.144-.504-1.008.288-.143-.648 1.151-.288z"/><path fill="#ec1c2e" d="M269.701 169.794c1.08 0 1.08-1.583 0-1.583-.72 0-.936.648-.72 1.152.144.072.576.36.72.431"/><path stroke="#000" stroke-linecap="round" stroke-linejoin="round" stroke-width=".072" d="M269.701 169.794c1.08 0 1.08-1.583 0-1.583-.72 0-.936.648-.72 1.152.144.072.576.36.72.431"/><path fill="#ec1c2e" d="M270.994 171.09c1.008 0 1.08-1.584 0-1.584-.504 0-.72.36-.792.72.216.216.648.648.792.864"/><path stroke="#000" stroke-linecap="round" stroke-linejoin="round" stroke-width=".072" d="M270.994 171.09c1.008 0 1.08-1.584 0-1.584-.504 0-.72.36-.792.72.216.216.648.648.792.864"/><path fill="#ec1c2e" d="M276.321 177.28s-.359-.36-.719-.36c-1.08 0-1.08 1.583 0 1.583.144-.359.504-1.007.719-1.223"/><path stroke="#000" stroke-linecap="round" stroke-linejoin="round" stroke-width=".072" d="M276.321 177.28s-.359-.36-.719-.36c-1.08 0-1.08 1.583 0 1.583.144-.359.504-1.007.719-1.223"/><path fill="#ec1c2e" d="M274.092 177.639c1.008-.144.792-1.727-.216-1.583-.216 0-.432.144-.504.288.144.36.288.72.288.863.144.072.36.288.504.36"/><path stroke="#000" stroke-linecap="round" stroke-linejoin="round" stroke-width=".072" d="M274.092 177.639c1.008-.144.792-1.727-.216-1.583-.216 0-.432.144-.504.288.144.36.288.72.288.863.144.072.36.288.504.36z"/><path fill="#ec1c2e" d="M269.915 186.78c-1.079 0-1.079 1.583 0 1.583 1.08 0 1.08-1.583 0-1.583"/><path stroke="#000" stroke-linecap="round" stroke-linejoin="round" stroke-width=".072" d="M269.915 186.78c-1.079 0-1.079 1.583 0 1.583 1.08 0 1.08-1.583 0-1.583"/><path fill="#ec1c2e" d="M276.533 197.72c.791-.719-.216-1.871-1.008-1.223-.432.36-.36.863 0 1.151h1.08"/><path stroke="#000" stroke-linecap="round" stroke-linejoin="round" stroke-width=".072" d="M276.533 197.72c.791-.719-.216-1.871-1.008-1.223-.432.36-.36.863 0 1.151h1.08z"/><path fill="#ec1c2e" d="M280.423 199.953c.864-.576 0-1.871-.864-1.296a.88.88 0 0 0-.36.72c.216.144.864.504 1.224.576"/><path stroke="#000" stroke-linecap="round" stroke-linejoin="round" stroke-width=".072" d="M280.423 199.953c.864-.576 0-1.871-.864-1.296a.88.88 0 0 0-.36.72c.216.144.864.504 1.224.576"/><path fill="#ec1c2e" d="M273.804 190.163c-1.008.288-1.44-1.152-.504-1.512h.576c0 .432-.144 1.152-.144 1.512"/><path stroke="#000" stroke-linecap="round" stroke-linejoin="round" stroke-width=".072" d="M273.804 190.163c-1.008.288-1.44-1.152-.504-1.512h.576c0 .432-.144 1.152-.144 1.512z"/><path fill="#ec1c2e" d="M289.057 201.32c.792-.72-.359-1.871-1.079-1.08-.288.288-.288.648-.144.936.36 0 1.079.144 1.223.216"/><path stroke="#000" stroke-linecap="round" stroke-linejoin="round" stroke-width=".072" d="M289.057 201.32c.792-.72-.359-1.871-1.079-1.08-.288.288-.288.648-.144.936.36 0 1.079.144 1.223.216z"/><path fill="#ec1c2e" d="M282.729 199.16s-.144-.432-.432-.504c-.936-.504-1.656.864-.72 1.368.216-.288.72-.72 1.152-.864"/><path stroke="#000" stroke-linecap="round" stroke-linejoin="round" stroke-width=".072" d="M282.729 199.16s-.144-.432-.432-.504c-.936-.504-1.656.864-.72 1.368.216-.288.72-.72 1.152-.864"/></g><defs><clipPath id="a"><path fill="#fff" d="M0 0h600v360.029H0z"/></clipPath></defs></svg>