<svg xmlns="http://www.w3.org/2000/svg" fill="none" viewBox="0 0 600 361"><g clip-path="url(#a)"><path fill="#003876" d="M600 0H0v360.072h600z"/><path fill="#fff" d="M600 305.075 490.942 239.64H600V120.36H490.942L600 54.997V0h-91.638L359.64 89.262V0H240.36v89.262L91.638 0H0v54.925l109.13 65.435H0v119.28h109.058L0 305.075v54.997h91.35l149.01-89.406v89.406h119.28v-89.406l148.866 89.406H600z"/><path fill="#e03a3e" d="M600 216.029v-71.986H336.029V0h-72.058v144.043H0v71.986h263.971v144.043h72.058V216.029z"/><path fill="#e03a3e" d="M462.222 239.784h-62.484L600.002 360v-34.841zM0 0v34.769l137.996 85.519h62.412zM359.788 120.288h39.736L600.004 0h-62.555L359.788 109.274zM240.288 239.784h-39.952L0 360.072h62.34l177.948-109.418z"/></g><defs><clipPath id="a"><path fill="#fff" d="M0 0h600v360.072H0z"/></clipPath></defs></svg>