<svg xmlns="http://www.w3.org/2000/svg" fill="none" viewBox="0 0 600 361"><g clip-path="url(#a)"><path fill="#fff" d="M599.427.504H.506v359.381h598.921z"/><path fill="#003876" d="m348.588 180.194 24.602 42.584h-49.347l-23.882 41.29-23.882-41.29h-49.347s24.458-42.584 24.674-42.584c-.216 0-24.674-42.585-24.674-42.585h49.347l23.882-41.29 23.882 41.29h49.347s-24.458 42.585-24.602 42.585"/><path fill="#fff" d="M249.899 150.989h18.415l-9.207 15.898zM350.099 150.989h-18.487l9.208 15.898zM308.449 137.61l-8.488-14.674-8.488 14.674zM249.899 209.399h18.415l-9.207-15.898zM350.099 209.399h-18.487l9.208-15.898zM333.05 180.194l-16.76 29.205h-32.658l-16.761-29.205 16.761-29.205h32.658zM308.449 222.779l-8.488 14.603-8.488-14.603z"/><path fill="#003876" d="M599.427 34.24H.506V90.35h598.921zM599.427 270.04H.506v56.108h598.921z"/><path stroke="#231f20" d="M599.427.504H.506v359.381h598.921z"/></g><defs><clipPath id="a"><path fill="#fff" d="M0 0h600v360.388H0z"/></clipPath></defs></svg>