<svg xmlns="http://www.w3.org/2000/svg" fill="none" viewBox="0 0 600 360"><g clip-path="url(#a)"><path fill="#fff" d="M400.001 0h-200v359.986h200z"/><path fill="#ec1c2e" d="M600.001 0h-200v359.986h200z"/><path fill="#008248" d="M200 0H0v359.986h200z"/><path fill="#0099d8" d="M288.303 215.689c-6.765 1.871-9.716-3.526-10.723-7.413-.72 3.527-.648 5.47-3.383 4.75s-11.011-4.462-13.098-5.253c-2.015-.72-2.447 1.079.792 2.806 3.31 1.728 6.405 3.671 6.477 4.894s-2.879 2.735-3.886 3.239c4.965 0 10.435 1.007 12.234 1.439 3.311.792 3.527 3.023-1.871 6.621 13.746-1.511 13.242 5.182 20.223 5.11 5.11-.072 10.723 0 13.026-.072 6.334-.216 1.656-2.807 7.701-4.246 4.246-1.08 8.564-2.591 11.875-3.599-3.383-.719-5.254-1.583-5.254-2.303 0-.719 6.765-3.31 10.004-4.677-1.152-.36-3.887-.792-7.269.143-3.383.864-9.284 1.8-16.481.936-7.125-.792-14.969.432-20.367-2.231"/><path stroke="#000" stroke-width=".288" d="M288.303 215.689c-6.765 1.871-9.716-3.526-10.723-7.413-.72 3.527-.648 5.47-3.383 4.75s-11.011-4.462-13.098-5.253c-2.015-.72-2.447 1.079.792 2.806 3.31 1.728 6.405 3.671 6.477 4.894s-2.879 2.735-3.886 3.239c4.965 0 10.435 1.007 12.234 1.439 3.311.792 3.527 3.023-1.871 6.621 13.746-1.511 13.242 5.182 20.223 5.11 5.11-.072 10.723 0 13.026-.072 6.334-.216 1.656-2.807 7.701-4.246 4.246-1.08 8.564-2.591 11.875-3.599-3.383-.719-5.254-1.583-5.254-2.303 0-.719 6.765-3.31 10.004-4.677-1.152-.36-3.887-.792-7.269.143-3.383.864-9.284 1.8-16.481.936-7.125-.792-14.969.432-20.367-2.231z"/><path fill="#fdbc11" d="M312.124 228.355c1.007 1.367 2.951 1.079 3.742-.072.864-1.224.288-2.735-.647-3.311.647-1.799 1.007-5.973 0-7.557 1.007-.575 1.511-2.087.647-3.31-.791-1.152-2.735-1.439-3.742 0-5.686-1.152-18.424-.864-22.526 0-1.008-1.367-2.951-1.08-3.743 0-.863 1.223-.287 2.735.648 3.31-1.079 1.584-.648 5.758 0 7.557-1.007.576-1.511 2.087-.648 3.311.792 1.151 2.807 1.439 3.743.072 4.75 1.871 17.632 1.871 22.526 0"/><path stroke="#000" stroke-width=".288" d="M312.124 228.355c1.007 1.367 2.951 1.079 3.742-.072.864-1.224.288-2.735-.647-3.311.647-1.799 1.007-5.973 0-7.557 1.007-.575 1.511-2.087.647-3.31-.791-1.152-2.735-1.439-3.742 0-5.686-1.152-18.424-.864-22.526 0-1.008-1.367-2.951-1.08-3.743 0-.863 1.223-.287 2.735.648 3.31-1.079 1.584-.648 5.758 0 7.557-1.007.576-1.511 2.087-.648 3.311.792 1.151 2.807 1.439 3.743.072 4.75 1.871 17.632 1.871 22.526 0Z"/><path stroke="#000" stroke-width=".288" d="M288.015 225.909c1.295-.72 2.734.936 1.583 2.447M289.598 214.034c1.079 1.511-.288 3.238-1.583 2.447M313.71 225.909c-1.295-.72-2.735.936-1.583 2.447M312.125 214.034c-1.08 1.511.288 3.238 1.583 2.447M290.031 213.962c4.894-.288 6.405 16.121 11.731 15.833M293.271 213.529c5.038-.359 7.269 16.841 12.883 15.977M296.8 213.386c5.038-.36 7.7 16.552 12.666 15.617"/><path fill="#fff" d="M264.916 216.265c-3.022 0-3.022 4.534 0 4.534 3.023 0 3.095-4.534 0-4.534"/><path stroke="#000" stroke-width=".288" d="M264.916 216.265c-3.022 0-3.022 4.534 0 4.534 3.023 0 3.095-4.534 0-4.534Z"/><path fill="#fff" d="M276.935 206.333c-3.023 0-3.023 4.534 0 4.534s3.023-4.534 0-4.534"/><path stroke="#000" stroke-width=".288" d="M276.935 206.333c-3.023 0-3.023 4.534 0 4.534s3.023-4.534 0-4.534Z"/><path fill="#fff" d="M326.596 221.951c-3.023 0-3.023 4.534 0 4.534s3.023-4.534 0-4.534"/><path stroke="#000" stroke-width=".288" d="M326.596 221.951c-3.023 0-3.023 4.534 0 4.534s3.023-4.534 0-4.534Z"/><path fill="#81683b" d="M260.811 206.046c-1.799-.936-4.03-.576-4.678.432-.72 1.079 1.008 3.094 2.807 3.886s3.454.144 3.958-.576c.504-.792 0-2.735-2.087-3.742"/><path stroke="#000" stroke-width=".288" d="M260.811 206.046c-1.799-.936-4.03-.576-4.678.432-.72 1.079 1.008 3.094 2.807 3.886s3.454.144 3.958-.576c.504-.792 0-2.735-2.087-3.742Z"/><path fill="#81683b" d="M274.27 224.109c-1.943.648-3.31 2.375-3.094 3.599.288 1.223 2.878 1.511 4.75.791 1.871-.648 2.519-2.375 2.159-3.31-.432-1.296-1.656-1.872-3.887-1.152"/><path stroke="#000" stroke-width=".288" d="M274.27 224.109c-1.943.648-3.31 2.375-3.094 3.599.288 1.223 2.878 1.511 4.75.791 1.871-.648 2.519-2.375 2.159-3.31-.432-1.296-1.656-1.872-3.887-1.152z"/><path fill="#81683b" d="M331.63 219.359c1.943-.576 4.174-2.591 3.671-3.742-.576-1.44-3.095-1.152-4.966-.504-1.871.576-2.879 2.159-2.591 3.023.432 1.295 1.583 1.943 3.886 1.223"/><path stroke="#000" stroke-width=".288" d="M331.63 219.359c1.943-.576 4.174-2.591 3.671-3.742-.576-1.44-3.095-1.152-4.966-.504-1.871.576-2.879 2.159-2.591 3.023.432 1.295 1.583 1.943 3.886 1.223Z"/><path fill="#cd7418" d="M337.246 231.521c.144-.863-.575-3.67-1.367-4.462 1.152-.143 1.583-1.655.576-2.446-.792-.576-1.799-.216-2.159.215-.36.432-.36 1.944.791 2.231.144.936 1.008 4.175.288 5.47 1.512 0 4.174.936 4.894 1.583-.36 1.08.864 1.872 1.44 1.872.575 0 1.439-.72 1.367-1.656-.144-1.223-1.583-1.655-2.375-.863-.432-.792-2.591-1.584-3.455-1.944"/><path stroke="#000" stroke-width=".288" d="M337.246 231.521c.144-.863-.575-3.67-1.367-4.462 1.152-.143 1.583-1.655.576-2.446-.792-.576-1.799-.216-2.159.215-.36.432-.36 1.944.791 2.231.144.936 1.008 4.175.288 5.47 1.512 0 4.174.936 4.894 1.583-.36 1.08.864 1.872 1.44 1.872.575 0 1.439-.72 1.367-1.656-.144-1.223-1.583-1.655-2.375-.863-.432-.792-2.591-1.584-3.455-1.944Z"/><path fill="#cd7418" d="M358.333 214.105c-.144-.863-1.727-3.31-2.735-3.742 1.008-.504.936-2.087-.215-2.519-.936-.288-1.728.36-1.944.936-.215.503.288 1.943 1.44 1.871.432.863 2.303 3.598 2.015 5.11 1.439-.432 4.246-.432 5.11-.072 0 1.151 1.439 1.511 1.943 1.295s1.151-1.079.719-2.015c-.503-1.152-2.087-1.08-2.518 0-.648-.576-2.951-.648-3.887-.72"/><path stroke="#000" stroke-width=".288" d="M358.333 214.105c-.144-.863-1.727-3.31-2.735-3.742 1.008-.504.936-2.087-.215-2.519-.936-.288-1.728.36-1.944.936-.215.503.288 1.943 1.44 1.871.432.863 2.303 3.598 2.015 5.11 1.439-.432 4.246-.432 5.11-.072 0 1.151 1.439 1.511 1.943 1.295s1.151-1.079.719-2.015c-.503-1.152-2.087-1.08-2.518 0-.648-.576-2.951-.648-3.887-.72z"/><path fill="#cd7418" d="M370.208 190.716c-.504-.719-2.375-2.303-3.238-2.591.647-.935-.144-2.303-1.368-2.087-1.007.144-1.367 1.152-1.295 1.728 0 .575 1.151 1.583 2.087 1.007.791.576 2.807 2.591 3.238 4.102 1.08-1.079 3.887-1.799 4.822-1.871.504 1.008 2.015.72 2.303.216.36-.432.504-1.511-.288-2.159-1.007-.792-2.303 0-2.231 1.08-.863-.216-3.238.215-4.102.575"/><path stroke="#000" stroke-width=".288" d="M370.208 190.716c-.504-.719-2.375-2.303-3.238-2.591.647-.935-.144-2.303-1.368-2.087-1.007.144-1.367 1.152-1.295 1.728 0 .575 1.151 1.583 2.087 1.007.791.576 2.807 2.591 3.238 4.102 1.08-1.079 3.887-1.799 4.822-1.871.504 1.008 2.015.72 2.303.216.36-.432.504-1.511-.288-2.159-1.007-.792-2.303 0-2.231 1.08-.863-.216-3.238.215-4.102.575z"/><path fill="#008248" d="M369.054 193.451c.72-3.598.936-6.765-1.152-9.787-2.303-3.383-.071-7.629-1.151-9.788 1.439 1.511 4.39 5.038 5.038 6.765 1.151-2.159 4.03-6.693 6.405-7.341-.144 1.296.216 3.095.504 4.606.503 2.303-2.159 5.758-4.39 7.701-1.512 1.367-3.743 2.303-4.39 8.42l-.936-.648z"/><path stroke="#000" stroke-width=".288" d="M369.054 193.451c.72-3.598.936-6.765-1.152-9.787-2.303-3.383-.071-7.629-1.151-9.788 1.439 1.511 4.39 5.038 5.038 6.765 1.151-2.159 4.03-6.693 6.405-7.341-.144 1.296.216 3.095.504 4.606.503 2.303-2.159 5.758-4.39 7.701-1.512 1.367-3.743 2.303-4.39 8.42l-.936-.648z"/><path fill="#008248" d="M369.633 193.091c1.223-8.636-1.224-19 3.094-22.454 3.095 4.822 3.239 10.795 1.296 13.386s-4.03 6.045-4.39 9.14"/><path stroke="#000" stroke-width=".288" d="M369.633 193.091c1.223-8.636-1.224-19 3.094-22.454 3.095 4.822 3.239 10.795 1.296 13.386s-4.03 6.045-4.39 9.14z"/><path fill="#008248" d="M354.156 217.416c2.951-2.447 5.182-4.174 4.606-8.852-.791-6.189.864-13.386 6.477-14.466.36 1.727.72 6.189.432 8.061 2.303-2.303 4.03-5.038 8.852-5.326-3.598 3.454-4.822 11.875-9.212 13.674-4.462 1.799-8.06 5.326-10.219 8.276l-.936-1.295z"/><path stroke="#000" stroke-width=".288" d="M354.156 217.416c2.951-2.447 5.182-4.174 4.606-8.852-.791-6.189.864-13.386 6.477-14.466.36 1.727.72 6.189.432 8.061 2.303-2.303 4.03-5.038 8.852-5.326-3.598 3.454-4.822 11.875-9.212 13.674-4.462 1.799-8.06 5.326-10.219 8.276l-.936-1.295z"/><path fill="#008248" d="M356.244 216.408c1.871-2.231 3.167-3.455 4.102-8.708 1.08-5.902 4.534-13.818 9.572-15.977.864 4.318-.72 10.291-4.246 14.681-3.526 4.318-8.204 8.564-9.428 10.076"/><path stroke="#000" stroke-width=".288" d="M356.244 216.408c1.871-2.231 3.167-3.455 4.102-8.708 1.08-5.902 4.534-13.818 9.572-15.977.864 4.318-.72 10.291-4.246 14.681-3.526 4.318-8.204 8.564-9.428 10.076z"/><path fill="#008248" d="M334.579 232.529c3.887-2.447 4.966-4.102 5.83-6.693 2.303-6.693 9.068-9.284 9.284-12.09.791 3.382.216 7.196-.792 9.14 1.871-1.584 5.614-3.095 8.205-3.311-1.512 3.023 0 6.909-5.758 8.78-5.757 1.871-8.348-.935-16.912 5.182l.215-1.008z"/><path stroke="#000" stroke-width=".288" d="M334.579 232.529c3.887-2.447 4.966-4.102 5.83-6.693 2.303-6.693 9.068-9.284 9.284-12.09.791 3.382.216 7.196-.792 9.14 1.871-1.584 5.614-3.095 8.205-3.311-1.512 3.023 0 6.909-5.758 8.78-5.757 1.871-8.348-.935-16.912 5.182l.215-1.008z"/><path fill="#008248" d="M334.724 232.817c3.454-2.879 7.988-7.125 10.435-10.22s7.413-7.341 12.307-7.341c-2.087 6.118-7.269 11.155-13.818 13.314-6.549 2.088-6.621 2.951-8.924 4.247"/><path stroke="#000" stroke-width=".288" d="M334.724 232.817c3.454-2.879 7.988-7.125 10.435-10.22s7.413-7.341 12.307-7.341c-2.087 6.118-7.269 11.155-13.818 13.314-6.549 2.088-6.621 2.951-8.924 4.247Z"/><path fill="#008248" d="M312.198 237.424c5.686-1.008 7.053-9.284 18.424-7.773-1.655 1.511-3.023 5.398-5.398 6.765 2.735.432 6.766 1.368 9.644 3.023-3.166-.432-10.363 5.253-16.337 2.375-5.973-2.879-5.109-3.311-6.333-4.39"/><path stroke="#000" stroke-width=".288" d="M312.198 237.424c5.686-1.008 7.053-9.284 18.424-7.773-1.655 1.511-3.023 5.398-5.398 6.765 2.735.432 6.766 1.368 9.644 3.023-3.166-.432-10.363 5.253-16.337 2.375-5.973-2.879-5.109-3.311-6.333-4.39Z"/><path fill="#008248" d="M314.86 239.942c4.606 2.879 17.273-1.079 21.447-8.132-5.254-.576-11.443 1.799-14.898 3.454s-6.549 1.655-9.284 1.224c-7.34-1.296-15.761-1.368-24.181 4.606-.648.359.72 1.943 1.583 1.295 7.125-5.398 16.913-7.629 25.261-2.447"/><path stroke="#000" stroke-width=".288" d="M314.86 239.942c4.606 2.879 17.273-1.079 21.447-8.132-5.254-.576-11.443 1.799-14.898 3.454s-6.549 1.655-9.284 1.224c-7.34-1.296-15.761-1.368-24.181 4.606-.648.359.72 1.943 1.583 1.295 7.125-5.398 16.913-7.629 25.261-2.447z"/><path fill="#cd7418" d="M264.487 231.883c-.143-1.943-.359-3.383-.935-4.39-.504-1.08-.792-3.455.216-3.527 1.007 0 1.799 1.656 1.367 3.095s0 4.678 1.008 5.829z"/><path stroke="#000" stroke-width=".288" d="M264.487 231.883c-.143-1.943-.359-3.383-.935-4.39-.504-1.08-.792-3.455.216-3.527 1.007 0 1.799 1.656 1.367 3.095s0 4.678 1.008 5.829z"/><path fill="#cd7418" d="M263.837 226.7c-1.368-.504-1.727.216-1.224 1.296.72 1.439 2.519 1.583 3.167.503.936-1.511.288-2.303-.288-2.015s-1.295.36-1.655.216"/><path stroke="#000" stroke-width=".288" d="M263.837 226.7c-1.368-.504-1.727.216-1.224 1.296.72 1.439 2.519 1.583 3.167.503.936-1.511.288-2.303-.288-2.015s-1.295.36-1.655.216Z"/><path fill="#cd7418" d="M264.127 232.314c-1.943.359-3.383.575-4.534.36-1.152-.216-3.527.143-3.311 1.151s2.087 1.295 3.311.432c1.223-.792 4.678-1.368 6.117-.792l-1.583-1.223z"/><path stroke="#000" stroke-width=".288" d="M264.127 232.314c-1.943.359-3.383.575-4.534.36-1.152-.216-3.527.143-3.311 1.151s2.087 1.295 3.311.432c1.223-.792 4.678-1.368 6.117-.792l-1.583-1.223z"/><path fill="#cd7418" d="M259.017 233.106c-.863-1.224-.287-1.727.864-1.512 1.583.288 2.231 2.016 1.367 2.951-1.151 1.296-2.159.936-2.015.288s0-1.367-.216-1.655"/><path stroke="#000" stroke-width=".288" d="M259.017 233.106c-.863-1.224-.287-1.727.864-1.512 1.583.288 2.231 2.016 1.367 2.951-1.151 1.296-2.159.936-2.015.288s0-1.367-.216-1.655z"/><path fill="#cd7418" d="M243.399 213.889c.36-1.943.504-3.526.216-4.677-.288-1.152 0-3.527 1.08-3.383 1.079.144 1.367 2.015.576 3.311-.792 1.295-1.008 4.534-.36 5.973l-.648-.36z"/><path stroke="#000" stroke-width=".288" d="M243.399 213.889c.36-1.943.504-3.526.216-4.677-.288-1.152 0-3.527 1.08-3.383 1.079.144 1.367 2.015.576 3.311-.792 1.295-1.008 4.534-.36 5.973l-.648-.36z"/><path fill="#cd7418" d="M244.046 208.564c-1.223-.792-1.727-.288-1.511.935.36 1.584 2.087 2.159 2.951 1.296 1.223-1.224.863-2.159.216-2.015-.648.144-1.368 0-1.656-.144"/><path stroke="#000" stroke-width=".288" d="M244.046 208.564c-1.223-.792-1.727-.288-1.511.935.36 1.584 2.087 2.159 2.951 1.296 1.223-1.224.863-2.159.216-2.015-.648.144-1.368 0-1.656-.144z"/><path fill="#cd7418" d="M245.198 215.905c-1.296-.864-5.326-1.08-6.694-.504-1.367.576-3.166 0-3.166-1.008 0-1.079 2.375-1.007 3.454-.575s2.663.359 4.606.359l1.008.504z"/><path stroke="#000" stroke-width=".288" d="M245.198 215.905c-1.296-.864-5.326-1.08-6.694-.504-1.367.576-3.166 0-3.166-1.008 0-1.079 2.375-1.007 3.454-.575s2.663.359 4.606.359l1.008.504z"/><path fill="#cd7418" d="M238.069 214.178c-.647-1.295 0-1.799 1.152-1.367 1.511.576 1.799 2.375.864 3.095-1.368 1.007-2.303.503-2.016-.072.216-.648.216-1.368 0-1.656"/><path stroke="#000" stroke-width=".288" d="M238.069 214.178c-.647-1.295 0-1.799 1.152-1.367 1.511.576 1.799 2.375.864 3.095-1.368 1.007-2.303.503-2.016-.072.216-.648.216-1.368 0-1.656Z"/><path fill="#cd7418" d="M231.017 193.667c.504-2.591 2.087-5.541 3.31-6.405 1.224-.864 1.728-2.663.792-3.239-.864-.575-2.087 1.512-2.375 2.663-.216 1.152-1.295 2.735-2.375 4.39v1.368l.576 1.295z"/><path stroke="#000" stroke-width=".288" d="M231.017 193.667c.504-2.591 2.087-5.541 3.31-6.405 1.224-.864 1.728-2.663.792-3.239-.864-.575-2.087 1.512-2.375 2.663-.216 1.152-1.295 2.735-2.375 4.39v1.368l.576 1.295z"/><path fill="#cd7418" d="M233.393 186.254c-.792-1.223-1.511-.936-1.727.288-.288 1.583 1.079 2.807 2.231 2.375 1.583-.576 1.655-1.655 1.007-1.799-.647-.144-1.223-.576-1.439-.864"/><path stroke="#000" stroke-width=".288" d="M233.393 186.254c-.792-1.223-1.511-.936-1.727.288-.288 1.583 1.079 2.807 2.231 2.375 1.583-.576 1.655-1.655 1.007-1.799-.647-.144-1.223-.576-1.439-.864z"/><path fill="#cd7418" d="M229.727 191.005c-1.727-.936-3.095-1.728-3.814-2.591-.72-.936-2.807-2.159-3.311-1.296-.504.936.792 2.303 2.231 2.519 1.511.216 4.894 2.447 5.542 3.814l-.288-1.007-.432-1.439z"/><path stroke="#000" stroke-width=".288" d="M229.727 191.005c-1.727-.936-3.095-1.728-3.814-2.591-.72-.936-2.807-2.159-3.311-1.296-.504.936.792 2.303 2.231 2.519 1.511.216 4.894 2.447 5.542 3.814l-.288-1.007-.432-1.439z"/><path fill="#cd7418" d="M225.187 188.341c.144-1.44.935-1.512 1.655-.576 1.008 1.223.36 2.951-.864 3.095-1.727.215-2.231-.72-1.727-1.08.504-.432.864-1.079.864-1.439"/><path stroke="#000" stroke-width=".288" d="M225.187 188.341c.144-1.44.935-1.512 1.655-.576 1.008 1.223.36 2.951-.864 3.095-1.727.215-2.231-.72-1.727-1.08.504-.432.864-1.079.864-1.439z"/><path fill="#008248" d="M230.372 196.834c.144-3.239-1.152-6.693-1.655-8.924s-2.159-1.944-2.375-3.527c-.144-.935-.432-1.151-2.231-2.015-1.8-.864-2.375-1.223-2.303-2.375 0-1.151.719-1.151 2.159-.432s1.583-.144.791-1.295-1.367-1.871-1.295-3.095c.072-1.223 1.151-1.511 1.943-.504.72 1.008 1.511.648 2.159-.216.648-.863-.576-2.087.36-4.03.648-1.367 1.367-.576 1.871 0 .576.72 1.943-.791 2.519-.863.576 0 .864.719 0 1.367-.936.576 0 1.439-1.151 2.303-.936.648-.144 1.152.719.864.792-.288 1.584-.144 1.727.431.36 1.296-1.367 2.447-2.95 3.383-1.296.72 0 1.151 2.231.936 1.367-.072.576 1.367-1.224 2.087-1.223.431-2.015 1.655-1.223 2.231s.863.863-.288 2.159c-1.08 1.295 1.367 7.988 1.583 10.795l-.144.72h-1.223"/><path stroke="#000" stroke-width=".288" d="M230.372 196.834c.144-3.239-1.152-6.693-1.655-8.924s-2.159-1.944-2.375-3.527c-.144-.935-.432-1.151-2.231-2.015-1.8-.864-2.375-1.223-2.303-2.375 0-1.151.719-1.151 2.159-.432s1.583-.144.791-1.295-1.367-1.871-1.295-3.095c.072-1.223 1.151-1.511 1.943-.504.72 1.008 1.511.648 2.159-.216.648-.863-.576-2.087.36-4.03.648-1.367 1.367-.576 1.871 0 .576.72 1.943-.791 2.519-.863.576 0 .864.719 0 1.367-.936.576 0 1.439-1.151 2.303-.936.648-.144 1.152.719.864.792-.288 1.584-.144 1.727.431.36 1.296-1.367 2.447-2.95 3.383-1.296.72 0 1.151 2.231.936 1.367-.072.576 1.367-1.224 2.087-1.223.431-2.015 1.655-1.223 2.231s.863.863-.288 2.159c-1.08 1.295 1.367 7.988 1.583 10.795l-.144.72h-1.223Z"/><path fill="#008248" d="M247.714 216.193c-5.038-2.663-6.909-4.822-7.053-7.629-.144-2.375-.072-3.526.792-4.534.792-1.007.36-2.015-.648-1.151-1.079.863-2.087.575-1.871-1.008s.864-3.598.288-4.822c-.576-1.223-2.015-1.151-2.303.432-.144.648-.72 1.439-1.439 1.439s-.72-1.655-.36-2.734c.288-1.008-.648-1.8-1.224-.864-.503.864-1.727 1.799-2.231.432-.504-1.368-1.799-.576-1.511.288-1.296-.432-1.439.503-1.008 1.151.576.792.864 1.512 0 1.296-.791-.216-2.447-.792-2.159.503.288 1.224 3.023 2.159 4.75 2.447 1.727.36 1.871 1.152 1.08 1.368-.792.288-1.296.144-2.447 0-1.224-.216-1.44.719-.504 1.727s3.383 1.295 4.534 1.439c1.799.144 1.943 1.512 1.152 1.512s-2.303-.576-2.375.216c-.144.791 2.015 1.655 3.526 1.511 1.583-.144 1.799.216 2.087.648 2.159 2.95 6.189 6.405 8.708 7.34l.936-.359-.648-.792z"/><path stroke="#000" stroke-width=".288" d="M247.714 216.193c-5.038-2.663-6.909-4.822-7.053-7.629-.144-2.375-.072-3.526.792-4.534.792-1.007.36-2.015-.648-1.151-1.079.863-2.087.575-1.871-1.008s.864-3.598.288-4.822c-.576-1.223-2.015-1.151-2.303.432-.144.648-.72 1.439-1.439 1.439s-.72-1.655-.36-2.734c.288-1.008-.648-1.8-1.224-.864-.503.864-1.727 1.799-2.231.432-.504-1.368-1.799-.576-1.511.288-1.296-.432-1.439.503-1.008 1.151.576.792.864 1.512 0 1.296-.791-.216-2.447-.792-2.159.503.288 1.224 3.023 2.159 4.75 2.447 1.727.36 1.871 1.152 1.08 1.368-.792.288-1.296.144-2.447 0-1.224-.216-1.44.719-.504 1.727s3.383 1.295 4.534 1.439c1.799.144 1.943 1.512 1.152 1.512s-2.303-.576-2.375.216c-.144.791 2.015 1.655 3.526 1.511 1.583-.144 1.799.216 2.087.648 2.159 2.95 6.189 6.405 8.708 7.34l.936-.359-.648-.792z"/><path fill="#008248" d="M267.145 234.688c-2.231-1.151-4.247-3.023-6.046-4.246-1.799-1.295-3.31-.792-4.822-.288-1.511.432-1.655-.288-1.367-.792.288-.503.144-1.151-1.511-.575-1.728.575-3.527.863-5.398-.288s-1.583-2.231-.288-2.015c1.368.216 2.231.144 3.455-.504 1.223-.72.503-1.583-1.512-1.583s-3.67-.576-4.75-1.8c-1.007-1.223 0-1.655.72-1.295.648.288 1.439.504 2.231.216.792-.36.648-1.224 0-1.367-.72-.144-1.511-.36-2.591-1.368-1.079-1.007 0-1.223 1.296-1.223 1.295 0 .647-1.296.575-2.879 0-1.511 1.08-.792 1.872.648.791 1.439 1.439 1.079 1.439-.432 0-1.512.504-1.583 1.223-.864.72.72.72 2.231.648 3.887 0 1.583 1.08 2.662 1.511.719.504-1.943 1.44-1.439 2.375-.432.936 1.008.504 3.023 1.08 5.326.432 1.871 1.511 1.08 1.871.504s.864-1.224 1.08 1.223c.144 2.375 3.166 6.909 7.988 8.421l-1.151 1.223z"/><path stroke="#000" stroke-width=".288" d="M267.145 234.688c-2.231-1.151-4.247-3.023-6.046-4.246-1.799-1.295-3.31-.792-4.822-.288-1.511.432-1.655-.288-1.367-.792.288-.503.144-1.151-1.511-.575-1.728.575-3.527.863-5.398-.288s-1.583-2.231-.288-2.015c1.368.216 2.231.144 3.455-.504 1.223-.72.503-1.583-1.512-1.583s-3.67-.576-4.75-1.8c-1.007-1.223 0-1.655.72-1.295.648.288 1.439.504 2.231.216.792-.36.648-1.224 0-1.367-.72-.144-1.511-.36-2.591-1.368-1.079-1.007 0-1.223 1.296-1.223 1.295 0 .647-1.296.575-2.879 0-1.511 1.08-.792 1.872.648.791 1.439 1.439 1.079 1.439-.432 0-1.512.504-1.583 1.223-.864.72.72.72 2.231.648 3.887 0 1.583 1.08 2.662 1.511.719.504-1.943 1.44-1.439 2.375-.432.936 1.008.504 3.023 1.08 5.326.432 1.871 1.511 1.08 1.871.504s.864-1.224 1.08 1.223c.144 2.375 3.166 6.909 7.988 8.421l-1.151 1.223z"/><path fill="#008248" d="M312.987 242.029c-7.412-5.326-16.049-7.989-23.317-5.974-1.656.432-2.807 1.008-3.743-.647-1.007-1.656-1.511-.936-1.871-.432-.432.504-1.583.504-2.519-1.224-1.007-1.727-1.799-2.302-3.022-2.159-1.224.144-1.584.792-1.008 1.872.648 1.151 0 2.015-1.008.935-1.007-1.079-2.447-2.447-3.598-2.447-1.152 0-2.303.216-1.511 1.296.719 1.151.719 2.303-.576 1.295-1.367-1.079-2.303-1.583-3.598-1.439-1.872.288-.504 1.943-2.16 2.375-.863.216-2.087.791-2.518 1.367-.432.576-.504 2.087 3.166 1.511 3.671-.575 3.814-.359 3.527.72-.288 1.152-.288 2.447 1.727 2.015 2.591-.575 4.03-2.591 5.038-1.655.575.576-.144 1.439-.72 2.015-.936.936 1.151 1.727 2.375.864 1.151-.936 2.591-2.519 3.382-2.231.864.288 0 1.367-.287 1.943-.288.648 0 1.871 1.511 1.151 1.439-.719 2.375-5.037 6.837-4.462 1.295-2.447 11.875-3.742 20.583 3.455.576.576 1.295.576 2.159.504.792-.072 2.015 0 1.151-.72"/><path stroke="#000" stroke-width=".288" d="M312.987 242.029c-7.412-5.326-16.049-7.989-23.317-5.974-1.656.432-2.807 1.008-3.743-.647-1.007-1.656-1.511-.936-1.871-.432-.432.504-1.583.504-2.519-1.224-1.007-1.727-1.799-2.302-3.022-2.159-1.224.144-1.584.792-1.008 1.872.648 1.151 0 2.015-1.008.935-1.007-1.079-2.447-2.447-3.598-2.447-1.152 0-2.303.216-1.511 1.296.719 1.151.719 2.303-.576 1.295-1.367-1.079-2.303-1.583-3.598-1.439-1.872.288-.504 1.943-2.16 2.375-.863.216-2.087.791-2.518 1.367-.432.576-.504 2.087 3.166 1.511 3.671-.575 3.814-.359 3.527.72-.288 1.152-.288 2.447 1.727 2.015 2.591-.575 4.03-2.591 5.038-1.655.575.576-.144 1.439-.72 2.015-.936.936 1.151 1.727 2.375.864 1.151-.936 2.591-2.519 3.382-2.231.864.288 0 1.367-.287 1.943-.288.648 0 1.871 1.511 1.151 1.439-.719 2.375-5.037 6.837-4.462 1.295-2.447 11.875-3.742 20.583 3.455.576.576 1.295.576 2.159.504.792-.072 2.015 0 1.151-.72z"/><path fill="#008248" d="M301.689 242.461c1.943 1.439 4.318 2.735 4.822 4.318a5.8 5.8 0 0 0-1.439 1.511c-1.152-1.439-3.167-2.662-4.822-4.174.36-.36 1.223-1.223 1.439-1.655"/><path stroke="#000" stroke-width=".288" d="M301.689 242.461c1.943 1.439 4.318 2.735 4.822 4.318a5.8 5.8 0 0 0-1.439 1.511c-1.152-1.439-3.167-2.662-4.822-4.174.36-.36 1.223-1.223 1.439-1.655Z"/><path fill="#008248" d="M296.652 239.799c-2.015 1.943-6.261 2.807-7.197 6.621.792-.288 1.727-.504 2.663-.36.288-1.943 4.606-4.102 6.333-5.685-.576 0-1.367-.216-1.799-.576"/><path stroke="#000" stroke-width=".288" d="M296.652 239.799c-2.015 1.943-6.261 2.807-7.197 6.621.792-.288 1.727-.504 2.663-.36.288-1.943 4.606-4.102 6.333-5.685-.576 0-1.367-.216-1.799-.576Z"/><path fill="#008248" d="M298.236 240.302c-1.728-.216-2.519-.935-2.519-3.31 0-2.447.36-3.023 2.591-3.095.791 0 .647 1.583.647 3.023 0 1.439.216 3.526-.791 3.382"/><path stroke="#000" stroke-width=".288" d="M298.236 240.302c-1.728-.216-2.519-.935-2.519-3.31 0-2.447.36-3.023 2.591-3.095.791 0 .647 1.583.647 3.023 0 1.439.216 3.526-.791 3.382z"/><path fill="#ec1c2e" d="M303.779 239.727c2.015 2.015 6.333 2.878 7.269 6.693-.792-.288-1.727-.504-2.663-.36-.216-1.727-3.958-3.743-5.829-5.326.072-.144.072-.36.144-.504.287-.072.791-.216 1.079-.503"/><path stroke="#000" stroke-width=".288" d="M303.779 239.727c2.015 2.015 6.333 2.878 7.269 6.693-.792-.288-1.727-.504-2.663-.36-.216-1.727-3.958-3.743-5.829-5.326.072-.144.072-.36.144-.504.287-.072.791-.216 1.079-.503Z"/><path fill="#ec1c2e" d="M302.696 240.231c-.863 3.814-5.253 5.614-7.268 8.061a5.8 5.8 0 0 0-1.44-1.512c.72-2.375 5.326-3.958 6.837-6.405.504 0 1.656-.072 1.871-.216"/><path stroke="#000" stroke-width=".288" d="M302.696 240.231c-.863 3.814-5.253 5.614-7.268 8.061a5.8 5.8 0 0 0-1.44-1.512c.72-2.375 5.326-3.958 6.837-6.405.504 0 1.656-.072 1.871-.216z"/><path fill="#ec1c2e" d="M301.333 240.374c2.303-.144 3.311-.72 3.311-3.382s-.432-3.095-3.239-3.095c.792 0 .72 1.655.72 3.095 0 1.439.288 3.598-.792 3.454"/><path stroke="#000" stroke-width=".288" d="M301.333 240.374c2.303-.144 3.311-.72 3.311-3.382s-.432-3.095-3.239-3.095c.792 0 .72 1.655.72 3.095 0 1.439.288 3.598-.792 3.454z"/><path fill="#fff" d="M300.827 240.445c-1.439 2.447-6.117 4.031-6.837 6.406a4.35 4.35 0 0 0-1.871-.72c.216-1.943 4.678-4.174 6.333-5.757.504.143 2.087.143 2.447.071"/><path stroke="#000" stroke-width=".288" d="M300.827 240.445c-1.439 2.447-6.117 4.031-6.837 6.406a4.35 4.35 0 0 0-1.871-.72c.216-1.943 4.678-4.174 6.333-5.757.504.143 2.087.143 2.447.071z"/><path fill="#fff" d="M301.691 242.461c1.944 1.439 4.319 2.734 4.822 4.318a4.36 4.36 0 0 1 1.871-.72c-.215-1.799-3.886-3.742-5.829-5.326-.144.432-.648 1.44-.864 1.728"/><path stroke="#000" stroke-width=".288" d="M301.691 242.461c1.944 1.439 4.319 2.734 4.822 4.318a4.36 4.36 0 0 1 1.871-.72c-.215-1.799-3.886-3.742-5.829-5.326-.144.432-.648 1.44-.864 1.728Z"/><path fill="#fff" d="M301.333 240.374c1.008.144.792-2.015.792-3.455s.072-3.094-.72-3.094h-3.022c.791 0 .719 1.583.719 3.022 0 1.44.216 3.527-.791 3.383.575.072 1.223.072 1.943.072h1.151"/><path stroke="#000" stroke-width=".288" d="M301.333 240.374c1.008.144.792-2.015.792-3.455s.072-3.094-.72-3.094h-3.022c.791 0 .719 1.583.719 3.022 0 1.44.216 3.527-.791 3.383.575.072 1.223.072 1.943.072h1.151z"/><path fill="#ec1c2e" d="M251.456 183.807c-1.296 1.296-3.743-.072-4.822-1.151-1.008-1.008-2.159-2.879 0-4.966 1.655-1.583 3.67-.72 4.965 1.367 1.296 2.015 1.008 3.599-.072 4.75"/><path stroke="#000" stroke-width=".288" d="M251.456 183.807c-1.296 1.296-3.743-.072-4.822-1.151-1.008-1.008-2.159-2.879 0-4.966 1.655-1.583 3.67-.72 4.965 1.367 1.296 2.015 1.008 3.599-.072 4.75z"/><path fill="#ec1c2e" d="M244.045 178.698c-1.295-1.007-1.295-1.655-.504-2.447.792-.791 1.512-.648 2.303.288 1.08 1.224 1.152 2.159.648 2.591-.504.504-1.151.576-2.447-.432"/><path stroke="#000" stroke-width=".288" d="M244.045 178.698c-1.295-1.007-1.295-1.655-.504-2.447.792-.791 1.512-.648 2.303.288 1.08 1.224 1.152 2.159.648 2.591-.504.504-1.151.576-2.447-.432Z"/><path fill="#ec1c2e" d="M243.899 179.993c-1.223-.359-1.439-.791-1.08-1.583.36-.792.864-.72 1.728-.288 1.151.576 1.511.936 1.295 1.44s-.72.791-1.943.431"/><path stroke="#000" stroke-width=".288" d="M243.899 179.993c-1.223-.359-1.439-.791-1.08-1.583.36-.792.864-.72 1.728-.288 1.151.576 1.511.936 1.295 1.44s-.72.791-1.943.431Z"/><path fill="#ec1c2e" d="M247.785 175.458c0-1.655.288-2.159 1.583-2.015 1.08.072 1.44.791 1.152 2.015-.288 1.583-.576 2.231-1.511 2.231-.72 0-1.224-.576-1.224-2.231"/><path stroke="#000" stroke-width=".288" d="M247.785 175.458c0-1.655.288-2.159 1.583-2.015 1.08.072 1.44.791 1.152 2.015-.288 1.583-.576 2.231-1.511 2.231-.72 0-1.224-.576-1.224-2.231Z"/><path fill="#ec1c2e" d="m244.479 171.213 1.799 3.238-.791.432-1.799-3.166z"/><path stroke="#000" stroke-width=".288" d="m244.479 171.213 1.799 3.238-.791.432-1.799-3.166z"/><path fill="#ec1c2e" d="M243.757 169.414c-1.584 0-1.656 2.59 0 2.59s1.727-2.59 0-2.59"/><path stroke="#000" stroke-width=".288" d="M243.757 169.414c-1.584 0-1.656 2.59 0 2.59s1.727-2.59 0-2.59Z"/><path fill="#ec1c2e" d="M245.626 177.113c-1.008-1.511-.864-2.231.144-2.806s1.799-.288 2.375 1.007c.72 1.656.504 2.663-.144 3.023-.576.36-1.367.216-2.375-1.224"/><path stroke="#000" stroke-width=".288" d="M245.626 177.113c-1.008-1.511-.864-2.231.144-2.806s1.799-.288 2.375 1.007c.72 1.656.504 2.663-.144 3.023-.576.36-1.367.216-2.375-1.224ZM248.077 189.708l-1.655-.791M255.994 181.504l.216 2.231M261.532 190.14l1.655-1.8M254.912 198.776l3.311-1.296M249.872 195.754l2.807-.575M251.888 194.603l-2.662.071M266.929 192.443l-.864-1.439M261.603 202.663l2.303-.503M268.371 205.254l1.655-1.295M269.594 205.83l1.583-1.655M282.905 209.859l1.871-1.799M289.891 211.155l2.159-2.159M284.346 197.048l-3.023-1.511M285.786 193.235l1.727 2.807M287.157 193.091l1.008 2.807M293.918 194.314l.36 2.735M295.72 194.458l-.144 2.807M296.153 210.291l.72-1.727M298.096 208.276l-.72 2.591M325.369 211.228c.072.719.72 1.871 1.152 2.303M331.628 202.663c-.072-.504.216-2.375.504-2.951M335.735 200.288l1.224-2.735M336.164 212.018l2.591 1.08M337.028 211.514l2.519.504M342.068 208.491l3.023-.431M314.574 211.372l2.807 1.655M315.579 211.228l3.383.791"/><path fill="#008248" d="M262.036 198.272c-7.629-.287-13.818-4.39-14.25-9.14-.431-4.821 3.959-7.7 8.061-5.829 7.053 3.167 5.253 10.507 9.284 11.083l-3.167 3.886z"/><path stroke="#000" stroke-width=".288" d="M262.036 198.272c-7.629-.287-13.818-4.39-14.25-9.14-.431-4.821 3.959-7.7 8.061-5.829 7.053 3.167 5.253 10.507 9.284 11.083l-3.167 3.886z"/><path fill="#008248" d="M281.899 199.64c-3.598-3.454-11.587-9.931-16.84-6.621-5.254 3.311-3.599 7.197-2.087 8.852 2.087 2.375 11.586 3.887 18.136 1.799l.719-4.03z"/><path stroke="#000" stroke-width=".288" d="M281.899 199.64c-3.598-3.454-11.587-9.931-16.84-6.621-5.254 3.311-3.599 7.197-2.087 8.852 2.087 2.375 11.586 3.887 18.136 1.799l.719-4.03z"/><path fill="#008248" d="M307.376 201.583c-10.508-4.174-17.705-8.132-23.534-4.678-5.829 3.455-3.742 8.564-.288 10.939s14.106 1.368 18.784.144c4.678-1.223 5.829-3.454 5.11-6.477"/><path stroke="#000" stroke-width=".288" d="M307.376 201.583c-10.508-4.174-17.705-8.132-23.534-4.678-5.829 3.455-3.742 8.564-.288 10.939s14.106 1.368 18.784.144c4.678-1.223 5.829-3.454 5.11-6.477z"/><path fill="#008248" d="M323.567 206.693c5.686.216 5.47-1.512 6.981-3.527 1.655-2.159 6.117-4.894 9.5-2.159 3.742 3.023 4.534 7.053 0 9.5s-7.629 3.167-12.235 1.727-7.341-2.303-8.348-2.447c2.303-.935 3.454-1.943 4.03-3.094"/><path stroke="#000" stroke-width=".288" d="M323.567 206.693c5.686.216 5.47-1.512 6.981-3.527 1.655-2.159 6.117-4.894 9.5-2.159 3.742 3.023 4.534 7.053 0 9.5s-7.629 3.167-12.235 1.727-7.341-2.303-8.348-2.447c2.303-.935 3.454-1.943 4.03-3.094z"/><path fill="#008248" d="M308.458 218.64c.432-10.939 16.769-4.39 15.617-14.969-.504-4.822-9.14-4.174-16.049-2.591-6.909 1.655-7.341 9.14-7.629 17.848 0 .576 1.368.576 4.031.576s4.102.144 4.03-.936"/><path stroke="#000" stroke-width=".288" d="M308.458 218.64c.432-10.939 16.769-4.39 15.617-14.969-.504-4.822-9.14-4.174-16.049-2.591-6.909 1.655-7.341 9.14-7.629 17.848 0 .576 1.368.576 4.031.576s4.102.144 4.03-.936z"/><path fill="#ec1c2e" d="M341.852 200.216c-2.087 1.295-2.591 2.879-2.015 4.03.647 1.224 3.166.936 4.822 0 1.655-1.007 2.662-2.951 1.871-4.102-.792-1.224-2.951-.936-4.678.144"/><path stroke="#000" stroke-width=".288" d="M341.852 200.216c-2.087 1.295-2.591 2.879-2.015 4.03.647 1.224 3.166.936 4.822 0 1.655-1.007 2.662-2.951 1.871-4.102-.792-1.224-2.951-.936-4.678.144z"/><path fill="#ec1c2e" d="m351.567 195.825-2.519 2.663-.648-.648 2.519-2.591z"/><path stroke="#000" stroke-width=".288" d="m351.567 195.825-2.519 2.663-.648-.648 2.519-2.591z"/><path fill="#ec1c2e" d="M353.148 194.674c-.432-1.583-2.951-.863-2.447.72.432 1.511 2.951.935 2.447-.72"/><path stroke="#000" stroke-width=".288" d="M353.148 194.674c-.432-1.583-2.951-.863-2.447.72.432 1.511 2.951.935 2.447-.72Z"/><path fill="#ec1c2e" d="M344.515 197.265c.863-1.439 1.439-1.943 2.519-1.223.935.575.719 1.511 0 2.446-1.008 1.296-1.584 1.728-2.375 1.296-.576-.36-.936-1.152-.072-2.519"/><path stroke="#000" stroke-width=".288" d="M344.515 197.265c.863-1.439 1.439-1.943 2.519-1.223.935.575.719 1.511 0 2.446-1.008 1.296-1.584 1.728-2.375 1.296-.576-.36-.936-1.152-.072-2.519z"/><path fill="#ec1c2e" d="M347.966 200.072c1.655-.288 2.375-.144 2.519 1.079.144 1.08-.648 1.512-1.943 1.584-1.583 0-2.375-.072-2.519-1.008-.144-.648.288-1.439 1.871-1.655"/><path stroke="#000" stroke-width=".288" d="M347.966 200.072c1.655-.288 2.375-.144 2.519 1.079.144 1.08-.648 1.512-1.943 1.584-1.583 0-2.375-.072-2.519-1.008-.144-.648.288-1.439 1.871-1.655z"/><path fill="#ec1c2e" d="M346.525 198.129c1.295-1.296 2.015-1.224 2.807-.144.647.863.288 1.727-1.008 2.303-1.511.576-2.087 1.007-2.663.288-.431-.504-.216-1.224.936-2.375"/><path stroke="#000" stroke-width=".288" d="M346.525 198.129c1.295-1.296 2.015-1.224 2.807-.144.647.863.288 1.727-1.008 2.303-1.511.576-2.087 1.007-2.663.288-.431-.504-.216-1.224.936-2.375z"/><path fill="#549334" d="M252.175 186.758c-1.439.72-.719 2.088.72 1.368s.792-2.087-.72-1.368"/><path stroke="#aac456" stroke-width=".144" d="M252.175 186.758c-1.439.72-.719 2.088.72 1.368s.792-2.087-.72-1.368Z"/><path fill="#549334" d="M256.278 186.326c-1.584.432-1.152 1.943.431 1.512 1.584-.432 1.152-1.944-.431-1.512"/><path stroke="#aac456" stroke-width=".144" d="M256.278 186.326c-1.584.432-1.152 1.943.431 1.512 1.584-.432 1.152-1.944-.431-1.512Z"/><path fill="#549334" d="M250.954 190.501c-.216 1.583 1.367 1.799 1.511.215.216-1.583-1.295-1.799-1.511-.215"/><path stroke="#aac456" stroke-width=".144" d="M250.954 190.501c-.216 1.583 1.367 1.799 1.511.215.216-1.583-1.295-1.799-1.511-.215Z"/><path fill="#549334" d="M254.771 190.428c-.864 1.079 0 1.799.863.719.864-1.151 0-1.871-.863-.719"/><path stroke="#aac456" stroke-width=".144" d="M254.771 190.428c-.864 1.079 0 1.799.863.719.864-1.151 0-1.871-.863-.719Z"/><path fill="#549334" d="M259.521 189.492c-1.583.288-1.295 1.799.288 1.511 1.583-.36 1.295-1.871-.288-1.511"/><path stroke="#aac456" stroke-width=".144" d="M259.521 189.492c-1.583.288-1.295 1.799.288 1.511 1.583-.36 1.295-1.871-.288-1.511Z"/><path fill="#549334" d="M258.868 194.027c-1.007 1.152-.144 2.159.864 1.008 1.007-1.152.144-2.159-.864-1.008"/><path stroke="#aac456" stroke-width=".144" d="M258.868 194.027c-1.007 1.152-.144 2.159.864 1.008 1.007-1.152.144-2.159-.864-1.008Z"/><path fill="#549334" d="M254.912 194.098c-.791 1.439.504 2.159 1.368.792.791-1.368-.504-2.159-1.368-.792"/><path stroke="#aac456" stroke-width=".144" d="M254.912 194.098c-.791 1.439.504 2.159 1.368.792.791-1.368-.504-2.159-1.368-.792Z"/><path fill="#549334" d="M265.132 196.906c-.792 1.439.504 2.159 1.295.791.792-1.367-.504-2.231-1.295-.791"/><path stroke="#aac456" stroke-width=".144" d="M265.132 196.906c-.792 1.439.504 2.159 1.295.791.792-1.367-.504-2.231-1.295-.791Z"/><path fill="#549334" d="M268.152 194.53c-1.08 1.224.144 2.231 1.151 1.008 1.08-1.224-.072-2.231-1.151-1.008"/><path stroke="#aac456" stroke-width=".144" d="M268.152 194.53c-1.08 1.224.144 2.231 1.151 1.008 1.08-1.224-.072-2.231-1.151-1.008Z"/><path fill="#549334" d="M266.354 200.791c0 1.656 1.511 1.656 1.511 0 0-1.583-1.511-1.655-1.511 0"/><path stroke="#aac456" stroke-width=".144" d="M266.354 200.791c0 1.656 1.511 1.656 1.511 0 0-1.583-1.511-1.655-1.511 0Z"/><path fill="#549334" d="M270.312 199.351c-.575 1.512.936 2.015 1.44.504.576-1.511-.936-2.087-1.44-.504"/><path stroke="#aac456" stroke-width=".144" d="M270.312 199.351c-.575 1.512.936 2.015 1.44.504.576-1.511-.936-2.087-1.44-.504Z"/><path fill="#549334" d="M275.858 200.36c-.575 1.511.936 2.087 1.44.504.575-1.511-.936-2.087-1.44-.504"/><path stroke="#aac456" stroke-width=".144" d="M275.858 200.36c-.575 1.511.936 2.087 1.44.504.575-1.511-.936-2.087-1.44-.504Z"/><path fill="#549334" d="M272.764 202.663c0 1.583 1.511 1.655 1.583 0 0-1.655-1.511-1.655-1.583 0"/><path stroke="#aac456" stroke-width=".144" d="M272.764 202.663c0 1.583 1.511 1.655 1.583 0 0-1.655-1.511-1.655-1.583 0Z"/><path fill="#549334" d="M284.781 201.223c-.791 1.439.504 2.159 1.368.791.791-1.367-.504-2.159-1.368-.791"/><path stroke="#aac456" stroke-width=".144" d="M284.781 201.223c-.791 1.439.504 2.159 1.368.791.791-1.367-.504-2.159-1.368-.791Z"/><path fill="#549334" d="M286.432 205.829c.432 1.583 1.943 1.151 1.512-.432-.432-1.584-1.944-1.152-1.512.432"/><path stroke="#aac456" stroke-width=".144" d="M286.432 205.829c.432 1.583 1.943 1.151 1.512-.432-.432-1.584-1.944-1.152-1.512.432Z"/><path fill="#549334" d="M288.521 197.985c-.791 1.439.504 2.159 1.296.791s-.504-2.159-1.296-.791"/><path stroke="#aac456" stroke-width=".144" d="M288.521 197.985c-.791 1.439.504 2.159 1.296.791s-.504-2.159-1.296-.791Z"/><path fill="#549334" d="M291.181 201.872c-1.08 1.223.072 2.231 1.151 1.007 1.08-1.223 0-2.231-1.151-1.007"/><path stroke="#aac456" stroke-width=".144" d="M291.181 201.872c-1.08 1.223.072 2.231 1.151 1.007 1.08-1.223 0-2.231-1.151-1.007Z"/><path fill="#549334" d="M294.997 198.92c-1.079 1.223.072 2.231 1.152 1.007s0-2.303-1.152-1.007"/><path stroke="#aac456" stroke-width=".144" d="M294.997 198.92c-1.079 1.223.072 2.231 1.152 1.007s0-2.303-1.152-1.007Z"/><path fill="#549334" d="M293.053 206.693c.648 1.439 2.087.864 1.367-.648-.647-1.511-2.087-.863-1.367.648"/><path stroke="#aac456" stroke-width=".144" d="M293.053 206.693c.648 1.439 2.087.864 1.367-.648-.647-1.511-2.087-.863-1.367.648Z"/><path fill="#549334" d="M296.652 203.383c-.576 1.511.864 2.087 1.439.576s-.863-2.087-1.439-.576"/><path stroke="#aac456" stroke-width=".144" d="M296.652 203.383c-.576 1.511.864 2.087 1.439.576s-.863-2.087-1.439-.576Z"/><path fill="#549334" d="M306.585 212.306c-1.44-.792-2.375.719-1.008 1.583 1.439.792 2.447-.72 1.008-1.583"/><path stroke="#aac456" stroke-width=".144" d="M306.585 212.306c-1.44-.792-2.375.719-1.008 1.583 1.439.792 2.447-.72 1.008-1.583Z"/><path fill="#549334" d="M303.998 207.773c-1.44-.792-2.375.792-1.008 1.583 1.439.792 2.447-.719 1.008-1.583"/><path stroke="#aac456" stroke-width=".144" d="M303.998 207.773c-1.44-.792-2.375.792-1.008 1.583 1.439.792 2.447-.719 1.008-1.583Z"/><path fill="#549334" d="M312.846 207.268c-1.439-.791-2.591.936-1.223 1.727 1.439.792 2.663-.935 1.223-1.727"/><path stroke="#aac456" stroke-width=".144" d="M312.846 207.268c-1.439-.791-2.591.936-1.223 1.727 1.439.792 2.663-.935 1.223-1.727Z"/><path fill="#549334" d="M314.5 202.518c-1.511-.504-2.015.936-.503 1.439 1.511.504 2.087-.935.503-1.439"/><path stroke="#aac456" stroke-width=".144" d="M314.5 202.518c-1.511-.504-2.015.936-.503 1.439 1.511.504 2.087-.935.503-1.439Z"/><path fill="#549334" d="M308.023 206.981c-1.223-.576-1.583 1.08-.36 1.655 1.224.576 1.656-1.079.36-1.655"/><path stroke="#aac456" stroke-width=".144" d="M308.023 206.981c-1.223-.576-1.583 1.08-.36 1.655 1.224.576 1.656-1.079.36-1.655Z"/><path fill="#549334" d="M317.451 208.348c-1.511-.504-2.015.935-.503 1.439 1.511.504 2.087-.936.503-1.439"/><path stroke="#aac456" stroke-width=".144" d="M317.451 208.348c-1.511-.504-2.015.935-.503 1.439 1.511.504 2.087-.936.503-1.439Z"/><path fill="#549334" d="M319.827 203.958c-1.511-.504-2.159 1.079-.647 1.655 1.511.504 2.231-1.079.647-1.655"/><path stroke="#aac456" stroke-width=".144" d="M319.827 203.958c-1.511-.504-2.159 1.079-.647 1.655 1.511.504 2.231-1.079.647-1.655Z"/><path fill="#549334" d="M326.736 208.492c-1.08-1.224-2.231-.216-1.152 1.007 1.08 1.224 2.231.216 1.152-1.007"/><path stroke="#aac456" stroke-width=".144" d="M326.736 208.492c-1.08-1.224-2.231-.216-1.152 1.007 1.08 1.224 2.231.216 1.152-1.007Z"/><path fill="#549334" d="M332.421 207.844c-1.368-.863-2.303.72-.936 1.583 1.368.864 2.375-.719.936-1.583"/><path stroke="#aac456" stroke-width=".144" d="M332.421 207.844c-1.368-.863-2.303.72-.936 1.583 1.368.864 2.375-.719.936-1.583Z"/><path fill="#549334" d="M336.525 208.781c-1.367-.864-2.303.719-.935 1.583s2.375-.72.935-1.583"/><path stroke="#aac456" stroke-width=".144" d="M336.525 208.781c-1.367-.864-2.303.719-.935 1.583s2.375-.72.935-1.583Z"/><path fill="#549334" d="M334.151 202.518c-1.367-.864-2.447.791-1.08 1.655 1.368.864 2.519-.792 1.08-1.655"/><path stroke="#aac456" stroke-width=".144" d="M334.151 202.518c-1.367-.864-2.447.791-1.08 1.655 1.368.864 2.519-.792 1.08-1.655Z"/><path fill="#549334" d="M337.313 204.389c-1.367-.863-2.447.792-1.079 1.656 1.367.863 2.518-.792 1.079-1.656"/><path stroke="#aac456" stroke-width=".144" d="M337.313 204.389c-1.367-.863-2.447.792-1.079 1.656 1.367.863 2.518-.792 1.079-1.656Z"/><path fill="#ec1c2e" d="M272.83 191.004c-2.231 1.511-2.879 4.462-1.583 6.333 1.223 1.871 3.31 1.368 4.534 0 1.151-1.367.935-4.606.288-5.685l-3.167-.648z"/><path stroke="#000" stroke-width=".288" d="M272.83 191.004c-2.231 1.511-2.879 4.462-1.583 6.333 1.223 1.871 3.31 1.368 4.534 0 1.151-1.367.935-4.606.288-5.685l-3.167-.648z"/><path fill="#ec1c2e" d="M275.426 186.397c-1.584 0-1.656 2.591 0 2.591s1.727-2.591 0-2.591"/><path stroke="#000" stroke-width=".288" d="M275.426 186.397c-1.584 0-1.656 2.591 0 2.591s1.727-2.591 0-2.591Z"/><path fill="#ec1c2e" d="M273.77 187.478c-1.727 0-1.727 2.734 0 2.734s1.799-2.734 0-2.734"/><path stroke="#000" stroke-width=".288" d="M273.77 187.478c-1.727 0-1.727 2.734 0 2.734s1.799-2.734 0-2.734Z"/><path fill="#ec1c2e" d="M276.357 187.982c-1.727 0-1.727 2.735 0 2.735s1.799-2.735 0-2.735"/><path stroke="#000" stroke-width=".288" d="M276.357 187.982c-1.727 0-1.727 2.735 0 2.735s1.799-2.735 0-2.735Z"/><path fill="#ec1c2e" d="M275.281 191.723c.792 1.295 3.31.504 3.31-1.727-.503.216-2.087.719-3.022.144l-.36 1.583z"/><path stroke="#000" stroke-width=".288" d="M275.281 191.723c.792 1.295 3.31.504 3.31-1.727-.503.216-2.087.719-3.022.144l-.36 1.583z"/><path fill="#ec1c2e" d="M274.058 190.068c-.936-.144-1.943-.576-2.159-1.655-1.511 1.511.072 4.03 2.231 3.094v-1.439z"/><path stroke="#000" stroke-width=".288" d="M274.058 190.068c-.936-.144-1.943-.576-2.159-1.655-1.511 1.511.072 4.03 2.231 3.094v-1.439z"/><path fill="#ec1c2e" d="M274.273 192.227c-.935-.288-.935-1.655-.863-2.303.288-1.439 3.166-.647 2.806.936-.287 1.223-1.079 1.655-2.015 1.295"/><path stroke="#000" stroke-width=".288" d="M274.273 192.227c-.935-.288-.935-1.655-.863-2.303.288-1.439 3.166-.647 2.806.936-.287 1.223-1.079 1.655-2.015 1.295zM251.601 190.572l-1.799-1.007M251.025 185.679l1.368 1.871M256.135 184.886l.144 2.159M255.056 190.644l-1.368-1.223M255.419 194.529l-1.871-1.079M259.083 194.387l-1.655-1.44M259.592 189.925l-.575-2.159M252.75 187.189l-.144-2.087M265.709 197.337l-1.871-.863M267.218 193.81l1.295 1.224M265.566 201.151l1.512-.216M267.146 200.504l-2.015-.72M268.947 199.712l1.728.144M270.892 199.424l-1.727-1.367M274.485 200.144l2.447.216M273.336 202.518h-2.232M283.053 201.728l2.015.215M285.574 201.08l-1.727-1.296M287.298 197.553l1.727.719M293.63 198.489l1.655.864M289.097 202.16l2.015.575M291.688 202.016l-1.439-1.439M294.853 202.95l2.374.576M291.761 207.053l1.943-.648M303.418 208.564l-.216-2.231M306.007 213.026v-2.303M308.528 211.802l-2.015 1.224M312.198 207.989l.216-2.159M312.774 208.06l2.591-1.295M317.525 209.067l1.584-1.007M319.684 204.678l1.367-1.584M314.355 203.382l1.44-1.871M326.304 208.996l1.367-1.583M332.136 206.116l-.575 2.231M331.989 208.709l1.512-1.296M336.023 209.499l1.656-1.511M336.593 205.326l1.367-1.583M333.719 203.454l.863-2.447"/><path fill="#ad6119" d="M271.179 133.142c-1.295-.936-1.007-2.159 1.368-3.886 1.799-1.296 3.886-3.599 3.814-5.182-.072-1.727.432-1.871.936-.144.36 1.367.432 2.519.144 3.383 1.007-1.512 1.439-4.391 1.439-5.542 0-1.152.792-2.231 1.152-.288s.359 2.591.215 3.455c.576-.36 1.224-.576 1.872-.936.359-1.223.575-2.375.647-3.239.072-1.871.648-2.878.936-1.223.216.936.288 2.159.288 3.454.791-.575 1.439-1.223 1.799-2.087.648-1.511 1.08-2.878 1.439-.144q.108.648 0 1.728c3.167-1.8 7.557 1.727 9.86 1.223s2.087 0 1.367.72c-.287.288-.791.576-1.367.863 2.735.792 4.39 2.951 5.758 5.182 1.223-4.822-2.303-8.276-5.47-8.636s-6.837-.864-4.966-4.606c1.008-1.943 2.087-3.454 5.758-3.526.647-1.728 2.95-2.519 7.772-2.16 6.189.432 12.379 1.656 17.776 4.678s8.708 4.678 11.659 3.311a6.17 6.17 0 0 1-1.439 2.807c9.14 5.685 16.121 13.602 18.496 21.23 1.367 4.319 2.375 8.853 6.189 9.428-.576.504-1.223.792-2.087.936 1.439 4.966 1.295 13.098.072 17.56-1.224 4.462 0 12.235-1.583 17.488-1.44 4.894-1.8 1.584-1.8-.647 0-6.118-1.367-8.133-1.295-21.087 0-1.799-1.008-3.383-2.015-4.822-.648 8.204 2.519 13.026.576 24.685-.576 3.383-1.584.432-1.8-4.678-.216-5.109-1.871-7.916-2.447-12.594-.215-1.727-.791-3.167-1.511-4.462.072 4.894 1.871 14.25 1.367 19.215-.359 3.455-1.511.72-1.511-1.151 0-5.254-2.159-8.133-2.807-12.811-.144-1.295-1.079-3.238-2.519-5.469.936 3.67 1.44 8.06 1.512 10.147.072 2.088-.216 3.167-1.08 1.8-.791-1.368-1.655-3.887-1.943-7.125s-2.591-4.894-4.39-6.693c1.295 2.375 2.591 6.261 3.167 8.78.503 2.303-.144 2.735-.576 1.799-.432-.864-1.871-3.382-2.663-5.685-.72-2.375-2.519-4.462-4.606-5.254-2.015-.792-2.087-.72-4.39-3.095 2.231 2.519 4.75 5.974 6.045 8.636 1.296 2.663.936 3.095-.287 2.016s-1.656-1.728-2.735-3.599c-2.375-3.958-2.879-3.095-4.39-3.454-1.512-.36-3.023-.936-5.038-3.455-.288.432-.792.792-1.439.936 2.015 3.67 3.022 7.556 3.166 11.227 5.254 3.886 17.992 12.162 25.837 17.56 3.67 2.519.791 3.67-2.015 3.742-2.015.072-2.951 0-3.743-.431-.503 1.799-4.03 3.166-6.261 1.511-.936 1.511-3.454 2.015-5.613.072-1.152 1.223-2.807 1.008-3.959-.072-1.079-1.08-1.727-1.511-5.038-4.678.216 3.886-1.079 1.727-1.655.288-.216 4.174-1.223 3.382-2.015 1.943-.648 3.383-2.159 3.598-3.167 2.015-.359-.648-.863-1.367-1.367-2.231-.72 4.03-2.087 2.879-2.807 1.511-.647-1.367-1.583-2.59-3.31-5.037-.648.791-1.584-.504-3.239-2.951a47 47 0 0 0-1.439-1.871c-.504 5.254-1.943 4.822-3.239 3.166-1.439.648-4.102 1.944-6.693 2.159-2.735.216-2.807-.935-1.871-2.374-3.454-.432-6.477-1.152-6.549-2.447 0-1.296 4.39-3.815 6.909-5.47-2.303-1.871-3.239-3.886-2.879-4.318.504-.504 2.231.072 3.814.935-2.159-2.59-4.893-7.124-4.318-8.636-.503-.575-1.007-1.151-1.583-1.655-.936.576-2.159.792-1.871-.72.288-1.727-1.943-5.325-2.087-8.204s1.871-4.174 2.735-7.053c-.72-.144-.864-.648-.72-1.367.36-1.368 2.591-3.311 3.31-5.542-1.007 0-1.223 0-.503-.935.719-.936 1.295-2.375 1.511-3.671-.504.36-.72.144-.72-.36 0-.935-.575-1.223-1.223-1.367-1.44-.36-10.651-.864-13.026-2.591"/><path stroke="#000" stroke-width=".288" d="M271.179 133.142c-1.295-.936-1.007-2.159 1.368-3.886 1.799-1.296 3.886-3.599 3.814-5.182-.072-1.727.432-1.871.936-.144.36 1.367.432 2.519.144 3.383 1.007-1.512 1.439-4.391 1.439-5.542 0-1.152.792-2.231 1.152-.288s.359 2.591.215 3.455c.576-.36 1.224-.576 1.872-.936.359-1.223.575-2.375.647-3.239.072-1.871.648-2.878.936-1.223.216.936.288 2.159.288 3.454.791-.575 1.439-1.223 1.799-2.087.648-1.511 1.08-2.878 1.439-.144q.108.648 0 1.728c3.167-1.8 7.557 1.727 9.86 1.223s2.087 0 1.367.72c-.287.288-.791.576-1.367.863 2.735.792 4.39 2.951 5.758 5.182 1.223-4.822-2.303-8.276-5.47-8.636s-6.837-.864-4.966-4.606c1.008-1.943 2.087-3.454 5.758-3.526.647-1.728 2.95-2.519 7.772-2.16 6.189.432 12.379 1.656 17.776 4.678s8.708 4.678 11.659 3.311a6.17 6.17 0 0 1-1.439 2.807c9.14 5.685 16.121 13.602 18.496 21.23 1.367 4.319 2.375 8.853 6.189 9.428-.576.504-1.223.792-2.087.936 1.439 4.966 1.295 13.098.072 17.56-1.224 4.462 0 12.235-1.583 17.488-1.44 4.894-1.8 1.584-1.8-.647 0-6.118-1.367-8.133-1.295-21.087 0-1.799-1.008-3.383-2.015-4.822-.648 8.204 2.519 13.026.576 24.685-.576 3.383-1.584.432-1.8-4.678-.216-5.109-1.871-7.916-2.447-12.594-.215-1.727-.791-3.167-1.511-4.462.072 4.894 1.871 14.25 1.367 19.215-.359 3.455-1.511.72-1.511-1.151 0-5.254-2.159-8.133-2.807-12.811-.144-1.295-1.079-3.238-2.519-5.469.936 3.67 1.44 8.06 1.512 10.147.072 2.088-.216 3.167-1.08 1.8-.791-1.368-1.655-3.887-1.943-7.125s-2.591-4.894-4.39-6.693c1.295 2.375 2.591 6.261 3.167 8.78.503 2.303-.144 2.735-.576 1.799-.432-.864-1.871-3.382-2.663-5.685-.72-2.375-2.519-4.462-4.606-5.254-2.015-.792-2.087-.72-4.39-3.095 2.231 2.519 4.75 5.974 6.045 8.636 1.296 2.663.936 3.095-.287 2.016s-1.656-1.728-2.735-3.599c-2.375-3.958-2.879-3.095-4.39-3.454-1.512-.36-3.023-.936-5.038-3.455-.288.432-.792.792-1.439.936 2.015 3.67 3.022 7.556 3.166 11.227 5.254 3.886 17.992 12.162 25.837 17.56 3.67 2.519.791 3.67-2.015 3.742-2.015.072-2.951 0-3.743-.431-.503 1.799-4.03 3.166-6.261 1.511-.936 1.511-3.454 2.015-5.613.072-1.152 1.223-2.807 1.008-3.959-.072-1.079-1.08-1.727-1.511-5.038-4.678.216 3.886-1.079 1.727-1.655.288-.216 4.174-1.223 3.382-2.015 1.943-.648 3.383-2.159 3.598-3.167 2.015-.359-.648-.863-1.367-1.367-2.231-.72 4.03-2.087 2.879-2.807 1.511-.647-1.367-1.583-2.59-3.31-5.037-.648.791-1.584-.504-3.239-2.951a47 47 0 0 0-1.439-1.871c-.504 5.254-1.943 4.822-3.239 3.166-1.439.648-4.102 1.944-6.693 2.159-2.735.216-2.807-.935-1.871-2.374-3.454-.432-6.477-1.152-6.549-2.447 0-1.296 4.39-3.815 6.909-5.47-2.303-1.871-3.239-3.886-2.879-4.318.504-.504 2.231.072 3.814.935-2.159-2.59-4.893-7.124-4.318-8.636-.503-.575-1.007-1.151-1.583-1.655-.936.576-2.159.792-1.871-.72.288-1.727-1.943-5.325-2.087-8.204s1.871-4.174 2.735-7.053c-.72-.144-.864-.648-.72-1.367.36-1.368 2.591-3.311 3.31-5.542-1.007 0-1.223 0-.503-.935.719-.936 1.295-2.375 1.511-3.671-.504.36-.72.144-.72-.36 0-.935-.575-1.223-1.223-1.367-1.44-.36-10.651-.864-13.026-2.591z"/><path stroke="#000" stroke-width=".288" d="M278.878 128.896c1.871-.864 3.023-1.655 4.174-2.591s2.879-2.231 2.879 0-2.879 4.102-5.758 4.39M287.01 123.569c2.95 0 6.693 1.799 7.772 2.951 1.08 1.151 1.296 2.59-1.727 2.303"/><path stroke="#000" stroke-width=".288" d="M286.144 125.584c2.735.864 5.182 2.088 6.621 3.239 1.439 1.152 1.295 2.231-1.511 1.583s-4.462-1.439-5.974-2.303M296.224 125.584c3.886 3.599 5.613 6.622 6.189 8.709s.216 5.109-.432 4.246c-.576-.72-1.727-1.152-2.807-1.296"/><path stroke="#000" stroke-width=".288" d="M295.431 128.32c2.447 2.231 4.102 6.909 3.527 10.363-.576 3.455-1.872 1.512-3.023.432-1.152-1.079-3.886-4.102-3.598-8.42M282.118 131.199c2.447-.792 6.477-.504 5.974 1.151-.432 1.655-4.103-.288-5.686 0"/><path stroke="#000" stroke-width=".288" d="M287.654 129.471c-.144.432-.287 1.079-1.151 1.511M287.516 133.141c1.007 1.871 3.454 2.951 4.965 0M291.616 151.854c-.791 3.814-.791 7.845 1.872 10.148 2.734 2.303 3.382 2.446 4.174 1.151.863-1.367 1.223-3.598.575-6.189-.575-2.519-.863-4.678-.144-6.765"/><path stroke="#000" stroke-width=".288" d="M292.121 160.201c-.144 1.08-.36 2.303-1.224 2.951-.791.576-1.295.504-1.511-.72s-3.67-6.477-1.007-11.587"/><path stroke="#000" stroke-width=".288" d="M286.006 150.845c-3.455 6.549 0 8.133-.144 10.292-.072 2.159 1.079 1.583 1.439.935s.72-1.655.72-3.382M294.206 139.115c-3.023 4.822-3.814 8.852-3.31 11.155.503 2.303 2.231 3.239 3.526 1.8 1.295-1.44 1.799-2.519 2.303-3.743"/><path stroke="#000" stroke-width=".288" d="M296.942 141.417c-1.079 4.319-.791 6.837.936 8.565 1.367 1.367 2.303.072 2.879-1.152 1.223-2.519 1.727-6.765 1.223-10.363M287.948 141.273c-1.079 3.167-1.727 6.261-1.943 7.701-.216 1.511.144 2.734 1.727 2.015 1.584-.648 2.735-1.8 3.167-3.743M286.869 162.648c1.008 1.224 2.303 2.087 3.095 3.239 1.079 1.583 1.871-.864 1.871-4.031M289.528 170.853c-.144 2.015.216 6.549 1.008 7.988.791 1.439 2.231 3.67 4.246.576"/><path stroke="#000" stroke-width=".288" d="M301.623 146.312c-.072 3.886 3.095 6.261 2.015 11.515-.432 2.231-1.367 3.742-5.11.648M301.905 144.511c-.144 1.44 1.295 2.591 2.231 3.671 1.007 1.151 1.511 1.223 2.159-1.8.719-3.022.431-6.837-.144-8.708"/><path stroke="#000" stroke-width=".288" d="M303.849 154.661c2.015.719 3.526.288 3.526-1.512 0-1.799-.792-3.526-1.727-4.75M272.976 132.206c-.072.72 1.296.72 2.375.576 1.08-.216 2.375-1.151 2.519-2.231.144-1.151-.216-2.231-1.079-2.159"/><path stroke="#000" stroke-width=".288" d="M273.769 130.983c.143.575 2.159 1.511 3.022-1.152"/><path stroke="#000" stroke-width=".288" d="M274.415 130.335s.648.503 1.08.216c.431-.288.791-1.44.072-1.224M324.793 119.108c.72 1.223 1.223 2.591 1.079 3.598-.143 1.008-.791 1.512-1.799.36-1.007-1.151-1.727-1.511-2.591-1.799M319.177 116.588c1.151 1.152 2.159 2.735 2.159 3.743 0 1.007-.576 2.591-1.727 1.655-1.152-.864-1.728-1.583-2.519-2.159"/><path stroke="#000" stroke-width=".288" d="M314.5 116.084c1.368 1.151 2.231 2.231 2.591 3.454s.576 2.519-1.727 1.584c-2.303-.936-7.485-2.087-10.939-2.231"/><path stroke="#000" stroke-width=".288" d="M309.105 115.87c3.527.575 3.671 4.462 5.47 5.037M316.443 125.082c3.239.719 7.269 2.087 8.565 2.806 1.295.648 2.878 1.44 3.526.432.72-.935 1.727-2.303 1.295-3.598"/><path stroke="#000" stroke-width=".288" d="M327.309 128.75c.72 1.872.288 4.535-1.511 5.83M317.455 130.479c2.879-.144 5.973 1.583 7.341 3.167 1.439 1.583 2.303 4.318-.72 6.549"/><path stroke="#000" stroke-width=".288" d="M329.756 126.665c6.333 5.829 14.465 16.121 16.049 20.079s.36 5.686-3.527 1.727c-3.886-4.03-11.803-13.602-14.681-17.2M325.728 138.539c3.67 4.246 8.636 10.723 11.011 12.523s4.246 3.022 3.742-4.391"/><path stroke="#000" stroke-width=".288" d="M323.352 143.504c3.382 3.455 7.916 8.133 10.219 9.572 2.375 1.44 3.598 2.087 3.167-2.015M309.464 150.701c2.087 2.879 4.606 6.405 5.541 7.341.864 1.007.792 2.447.648 3.598-.144 1.152-.576 1.008-1.871.72M309.966 145.736c1.511 2.015 1.511 3.67-.72 3.958M310.758 146.744c2.015-.072 3.598-.864 3.742-3.814"/><path stroke="#000" stroke-width=".288" d="M312.557 142.137c2.591 2.303 5.613-1.872 3.814-4.031M314.722 137.747c2.591.288 3.598-2.087 1.727-5.254"/><path stroke="#000" stroke-width=".288" d="M314.434 132.638c3.238.432 4.102-3.239 1.295-6.477M313.639 126.737c.503-.432.719-.72 1.511-.648.72 0 1.583-.504 1.008-1.943-.576-1.367-.864-2.375-.792-2.951M293.7 118.892c1.871-.504 4.39-1.511 6.261-.432M299.751 121.194c1.367-.504 3.598-.792 5.254.072M304.354 124.002c1.008-.576 4.822.072 5.47 2.59M306.007 128.103c1.223-.647 4.246.432 4.606 2.232M306.442 132.349c2.591-.072 4.894 1.943 4.606 3.958M285.357 163.295c1.8 2.231 8.277 8.924 10.436 11.084 1.079 1.151 1.583 1.367 2.015-1.008M291.254 166.031c2.375 2.735 6.189 7.341 8.924 8.852s2.231-.216 2.231-3.598M297.734 163.152c1.296 3.094 3.959 7.772 6.693 9.715 2.735 1.944 2.879.36 2.735-2.087-.288-3.742-2.95-8.348-4.246-10.867M292.983 174.738c.936 1.08 3.023 1.008 2.016-1.008"/><path stroke="#000" stroke-width=".288" d="M297.088 175.171c2.231 4.175 7.701 9.284 9.356 10.508 1.655 1.295 1.727 1.007 2.159-.864"/><path stroke="#000" stroke-width=".288" d="M302.127 175.388c2.447 4.534 5.11 8.564 7.053 9.715 1.943 1.08 2.519 1.224 2.663-1.655"/><path stroke="#000" stroke-width=".288" d="M306.583 173.73c1.655 4.031 3.742 8.205 5.542 10.076s2.59 1.08 2.59-2.087M307.161 154.299c2.303 4.606 3.958 9.572 4.174 13.314.216 3.671-.072 3.815-4.534 1.224"/><path stroke="#000" stroke-width=".288" d="M309.323 152.14c2.591 4.966 4.174 8.924 4.606 11.731.36 2.735.216 3.454-2.735 2.303"/><path stroke="#000" stroke-width=".288" d="M313.714 166.606c1.871 5.254 3.166 10.939 3.238 13.386.072 2.375-.288 5.398-2.735.504-.575-1.224-2.446-6.621-3.382-9.932M315.727 162.217c1.799 4.822 3.238 9.428 3.31 13.818 0 4.318 0 7.556-2.015 4.102M313.854 154.157c3.31-1.799 3.526-5.038-1.368-7.629"/><path stroke="#000" stroke-width=".288" d="M316.299 150.198c3.742-1.511 6.117-4.534-.72-7.844"/><path stroke="#000" stroke-width=".288" d="M319.684 145.448c2.447-.144 4.03-1.871 3.958-3.742s-1.583-4.39-6.693-4.606M318.601 157.107c3.166 1.008 5.613 1.728 5.037-3.67M319.396 148.399c2.734 3.095 3.958 5.254 7.052 5.902 3.671.863 3.527.36 2.087-5.47M277.441 127.312c-.143.503-.431.935-.791 1.151-1.152.792-4.75 3.598-3.455 5.038M277.437 127.312c1.007-1.295 1.943-1.943 2.806-2.374M280.318 128.103c.72-1.007 1.296-2.59 1.728-4.03M283.991 122.922c0 .936 0 1.872-.144 2.663M302.844 130.407c1.511 2.519 2.59 5.038 4.462 6.046 2.59 1.367-.72 1.223-1.08 1.223-1.079-.144-2.879-1.008-3.67-2.735M297.085 125.224c-.864.432-2.015.792-2.879.72M287.227 122.49c-.144.936-.431 2.087-1.223 3.311M325.728 123.353c2.806 2.447 6.333 1.368 8.348-1.079M333.505 163.153c-1.799-1.8-4.102-4.103-4.39-6.19M339.328 164.95c-.792-1.223-1.728-2.447-2.735-3.742M344.8 165.168c-1.152-2.159-2.735-3.958-3.815-5.973M349.985 162.288c-1.152-1.583-2.375-2.951-2.519-4.246M356.605 153.868c-2.878.504-7.268-1.223-10.651-6.333"/><path stroke="#000" stroke-width=".288" d="M298.236 113.638c-.144.504-.288 1.008-.216 1.655.216 2.807 1.871 3.167 4.75 4.75 6.045 3.383 6.621 2.447 7.989 11.083 1.007 6.334 0 7.989-3.887 11.587.864 4.894 1.584 6.118 2.303 7.341.72 1.224.792 2.519-1.583 2.447M318.03 159.841c1.151-1.655.143-4.678-2.303-6.981M315.797 159.337c.288.504.576.936.863 1.439M319.106 179.848c.648-2.375.936-5.038.72-7.916M328.032 194.387c-2.519-2.303-5.11-4.75-9.284-8.492M333.645 194.314c-2.159-1.655-11.227-9.859-14.897-12.954"/><path stroke="#000" stroke-width=".288" d="M339.905 192.876c-3.886-2.447-15.113-10.724-20.799-15.834M314.722 182.584c1.079 3.455 2.087 5.974 2.591 7.413M310.83 191.723c-.792-1.295-1.799-3.023-3.095-5.11M315.364 191.94c-.863-1.44-2.447-3.887-4.03-6.334M319.036 189.708c-.216-3.886-.36-6.333-.576-7.988M288.38 186.399c.288-.36.576-.792 1.007-1.152 1.296-1.295 2.879-2.447 5.614-2.951"/><path stroke="#000" stroke-width=".288" d="M296.867 186.542c-.288-.36-.576-.863-.864-1.295-1.295-2.447-1.439-5.686-1.295-8.349M304.783 188.269c.36-.432.648-1.368.936-3.023M288.738 178.41c.72.575 1.656 1.223 2.663 1.727"/><path stroke="#000" stroke-width=".288" d="M285.428 166.462c5.685 5.973 11.587 12.882 14.681 16.984M283.847 164.735s.288-.144.36-.288c.935-.72 1.439-1.799 1.727-2.879M282.547 148.758h.72c1.295-.144 2.159-.72 3.166-1.8M285.21 141.922h.36c1.295 0 3.238-.72 5.038-2.807M286.215 137.388s.36-.288.576-.504c.575-.575 1.295-1.439 1.079-3.166"/><path fill="#fab381" d="M270.673 132.637c-1.008.072-2.159.864-1.584 1.871-3.31 1.944-3.526 5.83-1.943 8.133 1.296 1.871 4.606 1.799 5.47 1.655-1.727-.576-2.447-4.462-1.656-5.541s2.591-3.167 6.765 1.295c1.368-1.295 2.663-2.375 3.959-2.447 1.655-.072 3.31-1.583 2.231-2.951-1.08-1.367-6.765.792-8.492-.503-1.728-1.296-3.815 0-4.822-1.44"/><path stroke="#000" stroke-width=".288" d="M270.673 132.637c-1.008.072-2.159.864-1.584 1.871-3.31 1.944-3.526 5.83-1.943 8.133 1.296 1.871 4.606 1.799 5.47 1.655-1.727-.576-2.447-4.462-1.656-5.541s2.591-3.167 6.765 1.295c1.368-1.295 2.663-2.375 3.959-2.447 1.655-.072 3.31-1.583 2.231-2.951-1.08-1.367-6.765.792-8.492-.503-1.728-1.296-3.815 0-4.822-1.44z"/><path stroke="#000" stroke-width=".288" d="M281.758 137.532c.216-1.368-.935-1.728-2.519-1.44-1.583.288-2.878 1.224-3.742 1.943M269.088 134.509c0 .575 2.375.935 2.375-1.224"/><path fill="#fdbc11" d="M311.842 193.378c.504 1.871-2.807 3.311-4.606 2.591-1.799-.648-3.886.072-3.886 2.375 0 1.511.863 2.375 2.447 2.807-.288 1.151 1.007 3.094 2.734 3.166 1.728 0 3.167-1.439 3.167-3.094 2.303.431 5.685-1.943 8.204-.36.72 1.871 2.735 2.231 5.038 1.007 2.375-1.295 1.367-4.246-.72-4.174-3.67.072-6.405-2.159-8.78-5.685-.647 3.094-2.015 4.03-3.526 1.439"/><path stroke="#000" stroke-width=".288" d="M311.842 193.378c.504 1.871-2.807 3.311-4.606 2.591-1.799-.648-3.886.072-3.886 2.375 0 1.511.863 2.375 2.447 2.807-.288 1.151 1.007 3.094 2.734 3.166 1.728 0 3.167-1.439 3.167-3.094 2.303.431 5.685-1.943 8.204-.36.72 1.871 2.735 2.231 5.038 1.007 2.375-1.295 1.367-4.246-.72-4.174-3.67.072-6.405-2.159-8.78-5.685-.647 3.094-2.015 4.03-3.526 1.439z"/><path stroke="#000" stroke-width=".288" d="M305.796 201.151c.432-1.511 3.742-2.231 4.39-3.022.576-.792 2.159-1.727 2.807-1.799"/><path stroke="#000" stroke-width=".288" d="M312.845 194.675c.072.576.144 1.799.144 2.231s0 1.007 1.583 1.007 2.159 0 2.015-1.007c-.144-1.008-.36-2.447-.36-3.742M311.692 201.222c1.368 0 2.807-.935 3.167-2.303M314.574 200.935c.864-.216 1.871-.936 2.087-2.016M316.949 200.431c.864-.144 1.512-.72 1.512-1.512M311.192 197.265c-.575.431-.143 1.511 1.08 2.015M308.961 198.848c-.72.359-.288 2.375 1.008 2.591M323.495 197.625c-1.079-.072-2.807-.144-3.095.359"/><path fill="#fff" d="M305.721 206.26c-2.951-1.295-2.375-4.534-.216-4.965s2.231.935 2.231 1.799-3.023 1.295-2.087 3.095"/><path stroke="#000" stroke-width=".288" d="M305.721 206.26c-2.951-1.295-2.375-4.534-.216-4.965s2.231.935 2.231 1.799-3.023 1.295-2.087 3.095z"/><path fill="#fff" d="M300.975 201.87c-2.303-1.727-.576-4.75 1.655-4.822 2.231 0 2.087 2.303 1.296 2.879s-3.455-.648-2.951 1.943"/><path stroke="#000" stroke-width=".288" d="M300.975 201.87c-2.303-1.727-.576-4.75 1.655-4.822 2.231 0 2.087 2.303 1.296 2.879s-3.455-.648-2.951 1.943Z"/><path fill="#fff" d="M324.72 205.398c3.239-.359 3.455-2.806 2.735-4.174-.792-1.439-2.375-1.295-2.879-.863-.504.503-1.079 1.799-.072 2.447 1.008.647 1.08 1.583.216 2.59"/><path stroke="#000" stroke-width=".288" d="M324.72 205.398c3.239-.359 3.455-2.806 2.735-4.174-.792-1.439-2.375-1.295-2.879-.863-.504.503-1.079 1.799-.072 2.447 1.008.647 1.08 1.583.216 2.59ZM306.801 195.897c.863.216 1.367.648 1.439 1.08"/><path fill="#fdbc11" d="M284.274 179.488c1.511.576 5.901 1.871 9.932 3.023-1.08.288-2.663.791-3.815 1.799-2.519-.576-7.053-1.367-9.571-1.655-1.512 1.439-2.303 1.583-2.807.935-.432-.575-1.655-1.151-3.167-2.015-.719.504-1.223.648-1.655.648-.792.792-1.439.935-2.015.72-.648 1.079-1.296 1.511-2.519.431s-1.727-2.95-1.727-3.958c0-1.007.719-1.439 1.295-1.511.36-1.44 1.368-2.087 2.447-1.943.216-1.368 1.655-2.375 3.383-2.159 2.231.287 7.484-1.08 8.708.503.863 1.224 3.166 3.527 1.511 5.182"/><path stroke="#000" stroke-width=".288" d="M284.274 179.488c1.511.576 5.901 1.871 9.932 3.023-1.08.288-2.663.791-3.815 1.799-2.519-.576-7.053-1.367-9.571-1.655-1.512 1.439-2.303 1.583-2.807.935-.432-.575-1.655-1.151-3.167-2.015-.719.504-1.223.648-1.655.648-.792.792-1.439.935-2.015.72-.648 1.079-1.296 1.511-2.519.431s-1.727-2.95-1.727-3.958c0-1.007.719-1.439 1.295-1.511.36-1.44 1.368-2.087 2.447-1.943.216-1.368 1.655-2.375 3.383-2.159 2.231.287 7.484-1.08 8.708.503.863 1.224 3.166 3.527 1.511 5.182Z"/><path stroke="#000" stroke-width=".288" d="M268.228 177.833c-.144.504.575 1.224 1.007 2.447.288.792.936 2.159 1.871 2.591M270.676 175.962s0 .72.072 1.151c.288 1.008.791 2.087.935 3.383.072.864.576 1.655 1.44 1.727M279.596 181.143c-1.728-.647-1.8-1.799-1.872-2.878 0-1.08-1.799-1.8-3.166-.936-1.368.864-2.015 2.735-.288 3.814.216.144.36.216.576.36M284.272 179.488c-.864.864-1.44 1.296-3.455 3.095"/><path fill="#fff" d="M273.34 182.152c.576 1.151 2.303 2.231 4.246 1.007-.792-.648-2.231-1.367-2.735-1.655-.432.288-.935.576-1.511.648"/><path stroke="#000" stroke-width=".288" d="M273.34 182.152c.576 1.151 2.303 2.231 4.246 1.007-.792-.648-2.231-1.367-2.735-1.655-.432.288-.935.576-1.511.648Z"/><path fill="#fff" d="M271.393 182.944c.359.935 2.375 1.727 4.174.791-.864-.143-1.799-.647-2.231-1.511h-.144c-.288.36-1.152.936-1.799.792"/><path stroke="#000" stroke-width=".288" d="M271.393 182.944c.359.935 2.375 1.727 4.174.791-.864-.143-1.799-.647-2.231-1.511h-.144c-.288.36-1.152.936-1.799.792z"/><path fill="#fff" d="M269.952 183.95c.288.72 2.087 1.008 2.879.072-.432-.144-1.296-.575-1.439-1.079h-.216c-.216.36-.648 1.079-1.224 1.079"/><path stroke="#000" stroke-width=".288" d="M269.952 183.95c.288.72 2.087 1.008 2.879.072-.432-.144-1.296-.575-1.439-1.079h-.216c-.216.36-.648 1.079-1.224 1.079z"/><path fill="#fff" d="M276.936 173.012c-3.383-.216-4.174 2.519-4.03 4.75.072 1.151 1.079 1.295 2.087 1.007.647-.144 1.223-.719.863-2.087-.36-1.223-.288-2.735 1.152-3.742"/><path stroke="#000" stroke-width=".288" d="M276.936 173.012c-3.383-.216-4.174 2.519-4.03 4.75.072 1.151 1.079 1.295 2.087 1.007.647-.144 1.223-.719.863-2.087-.36-1.223-.288-2.735 1.152-3.742z"/><path fill="#fdbc11" d="M265.562 124.866c1.152 1.079 1.08 4.174-.143 5.253.215-1.079.287-2.878-.576-3.742z"/><path stroke="#000" stroke-width=".288" d="M265.562 124.866c1.152 1.079 1.08 4.174-.143 5.253.215-1.079.287-2.878-.576-3.742z"/><path fill="#549334" d="M266.209 139.979c-6.549 2.591-8.06-1.223-8.132-2.663s-.288-2.95-.864-4.39c-.864-2.231-.576-3.67 1.583-4.966 2.159-1.295 4.246-2.806 5.398-3.742s2.303-1.655 1.583.576c-.288 1.007-1.007 3.166-2.231 4.39s-2.015 2.447-1.007 3.382c1.079.936 3.958-.647 5.325-2.087.288.72-.863 2.159-2.087 2.519-1.223.36-3.814 1.008-3.598 2.015.288 1.512 3.31.216 5.829.432-.863.864-1.943 2.231-1.727 4.534"/><path stroke="#000" stroke-width=".288" d="M266.209 139.979c-6.549 2.591-8.06-1.223-8.132-2.663s-.288-2.95-.864-4.39c-.864-2.231-.576-3.67 1.583-4.966 2.159-1.295 4.246-2.806 5.398-3.742s2.303-1.655 1.583.576c-.288 1.007-1.007 3.166-2.231 4.39s-2.015 2.447-1.007 3.382c1.079.936 3.958-.647 5.325-2.087.288.72-.863 2.159-2.087 2.519-1.223.36-3.814 1.008-3.598 2.015.288 1.512 3.31.216 5.829.432-.863.864-1.943 2.231-1.727 4.534z"/><path fill="#549334" d="M277.944 179.561c2.375-1.007 6.477-3.31 4.102-9.212-3.022-7.34-11.875-2.015-14.106-5.181-3.166-4.534-2.518-7.269 5.398-13.17 7.629-5.686 6.909-9.572 4.462-12.019-.576-.72-2.807-2.807-4.534-2.735-1.655.072-2.951 1.943-2.519 3.311 2.015 1.511 2.879 4.318.72 5.901-6.909 5.11-13.458 10.291-10.436 19.431 2.303 6.981 8.277 5.686 10.292 5.758 3.454.144 6.549-.144 5.398 2.087-.216.36-.576.864-1.08 1.295 0 .432 0 1.296.216 1.8.576 0 1.295.215 1.583.647.432.576.216 1.44.432 1.871"/><path stroke="#000" stroke-width=".288" d="M277.944 179.561c2.375-1.007 6.477-3.31 4.102-9.212-3.022-7.34-11.875-2.015-14.106-5.181-3.166-4.534-2.518-7.269 5.398-13.17 7.629-5.686 6.909-9.572 4.462-12.019-.576-.72-2.807-2.807-4.534-2.735-1.655.072-2.951 1.943-2.519 3.311 2.015 1.511 2.879 4.318.72 5.901-6.909 5.11-13.458 10.291-10.436 19.431 2.303 6.981 8.277 5.686 10.292 5.758 3.454.144 6.549-.144 5.398 2.087-.216.36-.576.864-1.08 1.295 0 .432 0 1.296.216 1.8.576 0 1.295.215 1.583.647.432.576.216 1.44.432 1.871z"/><path fill="#cd7418" d="M266.856 158.33c-1.296 2.303-.72 4.318 1.079 6.837 2.231 3.167 11.084-2.159 14.106 5.182 2.375 5.829-1.727 8.204-4.102 9.212-.216-.432 0-1.296-.432-1.871-.36-.432-1.007-.72-1.583-.648-.144-.504-.288-1.368-.216-1.799.504-.504.864-.936 1.08-1.368 1.079-2.231-2.16-1.943-5.614-2.087-7.988-.36-7.413-9.572-4.246-13.458"/><path stroke="#000" stroke-width=".288" d="M266.856 158.33c-1.296 2.303-.72 4.318 1.079 6.837 2.231 3.167 11.084-2.159 14.106 5.182 2.375 5.829-1.727 8.204-4.102 9.212-.216-.432 0-1.296-.432-1.871-.36-.432-1.007-.72-1.583-.648-.144-.504-.288-1.368-.216-1.799.504-.504.864-.936 1.08-1.368 1.079-2.231-2.16-1.943-5.614-2.087-7.988-.36-7.413-9.572-4.246-13.458z"/><path fill="#cd7418" d="M270.887 139.043c.36-.935 1.295-1.655 2.375-1.727 1.655 0 3.886 2.015 4.534 2.735 2.375 2.303 3.166 5.973-3.455 11.299 4.822-3.671 1.727-11.515-3.454-12.307"/><path stroke="#000" stroke-width=".288" d="M270.887 139.043c.36-.935 1.295-1.655 2.375-1.727 1.655 0 3.886 2.015 4.534 2.735 2.375 2.303 3.166 5.973-3.455 11.299 4.822-3.671 1.727-11.515-3.454-12.307Z"/><path fill="#549334" d="M269.954 183.951c-4.893 4.03-8.996 1.295-10.003-4.319-.72-3.742-1.655-4.534-4.75-6.693-4.678-3.31-2.807-7.412-1.583-10.795s-.288-4.75-2.663-5.829c-2.303-1.152-7.485-3.887-.216-3.743s7.701 8.205 6.405 10.94c-1.367 2.734-1.871 4.821 2.375 6.477 4.246 1.655 2.879 7.7 5.83 9.428.431.287.935.359 1.583.359.288 1.944 1.439 3.959 2.951 4.175"/><path stroke="#000" stroke-width=".288" d="M269.954 183.951c-4.893 4.03-8.996 1.295-10.003-4.319-.72-3.742-1.655-4.534-4.75-6.693-4.678-3.31-2.807-7.412-1.583-10.795s-.288-4.75-2.663-5.829c-2.303-1.152-7.485-3.887-.216-3.743s7.701 8.205 6.405 10.94c-1.367 2.734-1.871 4.821 2.375 6.477 4.246 1.655 2.879 7.7 5.83 9.428.431.287.935.359 1.583.359.288 1.944 1.439 3.959 2.951 4.175z"/><path fill="#cd7418" d="M248.22 152.645c.504-.432.936-1.727-.431-2.159-1.656-.432-1.728 1.008-2.663 1.295-1.224.36-1.512.72-.432 1.656.72.647.072 1.943 1.727 2.375 1.368.359 1.727-1.08 1.44-1.656-.216-.431 0-1.223.431-1.583"/><path stroke="#000" stroke-width=".288" d="M248.22 152.645c.504-.432.936-1.727-.431-2.159-1.656-.432-1.728 1.008-2.663 1.295-1.224.36-1.512.72-.432 1.656.72.647.072 1.943 1.727 2.375 1.368.359 1.727-1.08 1.44-1.656-.216-.431 0-1.223.431-1.583z"/><path fill="#cd7418" d="M250.09 153.148c.503-.36.935-1.727-.432-2.159-1.656-.432-1.727 1.007-2.663 1.295-1.224.36-1.511.72-.432 1.656.72.647.072 2.015 1.727 2.375 1.368.359 1.728-1.08 1.44-1.656-.216-.432 0-1.223.36-1.583"/><path stroke="#000" stroke-width=".288" d="M250.09 153.148c.503-.36.935-1.727-.432-2.159-1.656-.432-1.727 1.007-2.663 1.295-1.224.36-1.511.72-.432 1.656.72.647.072 2.015 1.727 2.375 1.368.359 1.728-1.08 1.44-1.656-.216-.432 0-1.223.36-1.583z"/><path fill="#cd7418" d="M251.959 153.652c.503-.432.935-1.799-.432-2.159-1.655-.432-1.727 1.007-2.663 1.223-1.223.36-1.511.792-.432 1.656.72.647.072 1.943 1.727 2.375 1.368.359 1.728-1.08 1.44-1.656-.216-.431 0-1.223.432-1.583"/><path stroke="#000" stroke-width=".288" d="M251.959 153.652c.503-.432.935-1.799-.432-2.159-1.655-.432-1.727 1.007-2.663 1.223-1.223.36-1.511.792-.432 1.656.72.647.072 1.943 1.727 2.375 1.368.359 1.728-1.08 1.44-1.656-.216-.431 0-1.223.432-1.583zM270.816 139.043c5.182.792 8.277 8.636 3.455 12.307M271.968 146.096c-.791.863-.072 5.253.72 6.405M272.546 152.645c-1.583-.36-5.398-1.224-6.621-1.583"/><path stroke="#000" stroke-width=".288" d="M269.524 147.967c-.432 1.224-.072 5.614.287 6.909"/><path stroke="#000" stroke-width=".288" d="M268.729 148.614c1.152-.144 6.837 1.223 7.341.432"/><path stroke="#000" stroke-width=".288" d="M272.764 144.369c0 1.367 3.958 4.534 2.447 6.045"/><path stroke="#000" stroke-width=".288" d="M271.751 146.311c.864.288 4.894-1.007 4.39-2.591M265.851 151.133c-.072 1.296 1.079 4.822 1.511 6.262"/><path stroke="#000" stroke-width=".288" d="M263.331 153.796c1.295-.288 4.966 1.44 6.405 1.224M260.745 158.403c.36-1.08 6.117-.288 6.837-1.224"/><path stroke="#000" stroke-width=".288" d="M262.973 154.083c-.576.864 1.943 4.031 2.879 5.686M260.666 158.546c-.288 1.224 4.318 3.383 4.102 4.39"/><path stroke="#000" stroke-width=".288" d="M260.453 163.655c-.144-1.367 4.75-3.166 5.47-4.102M261.602 167.398c-.719-1.655 3.023-4.174 3.311-5.398"/><path stroke="#000" stroke-width=".288" d="M260.527 164.088c.576-.576 3.815.504 4.103 2.159M264.99 162.577c.36.216 1.44-.072 1.727.432M264.702 164.734c0 .504 2.807 0 3.239.432M265.132 167.542c-.216-.864 1.871-2.519 3.094-1.944M266.138 169.558c-.288-.864 1.511-3.886 2.663-3.671M268.01 170.997c-.576-.359 1.223-4.677 2.591-4.749M270.313 171.645c-.648-.072.72-5.397 2.303-5.397M272.043 171.789c-.936 0 .36-5.469 2.159-5.541M274.131 171.86c-1.008 0 0-5.686 1.583-5.614M275.567 172.004c-.935-.288.72-5.83 2.015-5.542M276.647 172.364c-.792-.792 1.727-5.83 2.591-5.326M276.864 172.868c-.143-.504 3.527-5.11 4.103-4.246M276.79 173.659c.216-.72 5.542-2.807 5.686-1.943M276.432 174.307c.431-.576 6.621-1.224 6.405 0M275.996 174.812c.432-.432 6.837.287 6.189 1.223M275.708 175.53c1.295 0 6.045 1.295 5.542 1.871M275.785 176.539c2.087.215 4.678 1.439 4.03 2.015"/><path stroke="#000" stroke-width=".288" d="M261.891 167.902c.359.72 2.447-.216 3.238-.432M263.619 170.061c.504.504 1.943.001 2.663-.359M272.759 143.864c-.072-.936 1.295-2.015 2.159-2.303"/><path stroke="#000" stroke-width=".288" d="M275.995 143.36c-.719-.216-3.526-.935-4.174-1.655M272.545 139.547c.504-.576 1.871-2.015 2.519-1.728M274.415 140.842c.648-.792 1.871-2.303 2.519-1.655M275.42 142.281c.792-.791 2.447-2.087 2.951-1.439M276.073 143.505c1.08-.791 3.023-1.871 3.239-.863M276.649 145.232c1.296-.72 2.951-1.656 2.807-.864M276.649 146.815c1.152-.503 2.447-1.079 2.159-.503M276.502 148.183c.432-.144 1.008-.36 1.367-.36M267.22 135.373c-1.223 0-3.67 5.469-4.894 5.397M260.311 140.483c-.792-.504 2.087-4.534 3.742-4.75M258.004 136.884c0-1.151 2.591-2.375 4.102-2.231"/><path stroke="#000" stroke-width=".288" d="M262.108 134.796c-1.223.288-2.519 3.239-.504 6.046M262.61 135.661c-.72 1.223 1.943 3.958 3.166 4.534M261.68 183.951c.719.936 4.75-1.151 5.829-2.159"/><path stroke="#000" stroke-width=".288" d="M265.562 179.561c.719.431-1.656 6.333 0 6.333M264.055 178.049c.864 2.231-3.094 4.75-2.591 5.614M263.116 175.388c.288 1.079-3.383 4.462-2.879 5.829M260.668 170.564c.72.576-2.375 4.391-1.655 6.046"/><path stroke="#000" stroke-width=".288" d="M256.493 173.947c.792.647 5.542-1.728 6.261.143M259.951 179.777c.144.791 3.599 1.007 6.046-.072M259.156 176.971c.432 1.007 2.879 2.015 4.822.863M258.796 169.629c-.72-.36-3.671 3.238-2.879 3.814M253.546 171.429c-.72-.936 2.519-3.815 3.167-3.167M252.322 168.981c-.431-1.439 3.599-2.735 3.887-1.943M252.396 165.958c.359-1.367 4.03-1.727 3.886-.144M253.26 163.153c.576-1.583 4.318-.648 3.886.36M253.906 161.137c.144-1.224 3.815-1.655 3.815-.072M253.903 159.05c-.216-1.224 3.094-2.447 3.526-.936M253.257 157.827c-.864-1.151 2.591-3.166 3.238-2.231M252.539 157.25c-1.008-.648 1.151-4.246 2.015-3.599M260.023 134.006c-.432-.72-.576-2.231.144-2.951.648-.576 1.511-1.511 1.799-2.663.216-.792-.288-.504-.576-.288-.36.288-.863.144-.791-.216 0-.432.431-1.007 1.007-1.079.36-.072.36.432.288.647"/></g><defs><clipPath id="a"><path fill="#fff" d="M0 0h600v359.986H0z"/></clipPath></defs></svg>