<svg xmlns="http://www.w3.org/2000/svg" viewBox="0 0 137.97 82.8"><defs><style>.cls-2{fill:#fff}.cls-3{fill:#e31837}</style></defs><g id="Layer_2" data-name="Layer 2"><g id="Layer_1-2" data-name="Layer 1"><path fill="#002b5c" d="M0 0h137.97v82.8H0z"/><path class="cls-2" d="M103.48 10.44L102 15.07h-4.9l3.97 2.88-1.52 4.63 3.93-2.88 3.95 2.88-1.51-4.67 3.95-2.82h-4.89l-1.5-4.65zM84.34 29.67l-1.48 4.62h-4.91l3.99 2.89-1.53 4.62 3.93-2.87 3.94 2.87-1.5-4.67 3.96-2.81h-4.88l-1.52-4.65zM119.95 25.2l-1.36 4.24h-4.49l3.65 2.63-1.41 4.23 3.61-2.62 3.6 2.62-1.38-4.26 3.63-2.58h-4.47l-1.38-4.26zM103.48 59.44l-1.67 5.17h-5.48l4.45 3.22-1.71 5.18 4.41-3.21 4.4 3.21-1.69-5.22 4.43-3.15h-5.46l-1.68-5.2z"/><path class="cls-3" d="M103.48 12.7l-.96 3h-3.17l2.58 1.85-.99 3 2.54-1.87 2.55 1.87-.97-3.01 2.55-1.83h-3.16l-.97-3.01zM84.34 31.93l-.95 2.98h-3.17l2.57 1.87-.99 2.99 2.54-1.86 2.55 1.86-.97-3.01 2.56-1.82h-3.15l-.99-3.01zM119.95 27.71l-.81 2.52h-2.67l2.17 1.57-.84 2.52 2.15-1.57 2.15 1.57-.83-2.54 2.16-1.54h-2.65l-.83-2.53zM103.48 61.88l-1.12 3.48h-3.7l3 2.18-1.15 3.48 2.97-2.16 2.97 2.16-1.14-3.52 2.98-2.12h-3.68l-1.13-3.5z"/><path class="cls-2" d="M68.99 35.07l-12.54-7.52h12.54V13.84H56.45l12.54-7.51V0H58.45l-17.1 10.26V0H27.64v10.26L10.53 0H0v6.3l12.54 7.54H0v13.71h12.54L0 35.07v6.33h10.51l17.13-10.28V41.4h13.71V31.12L58.46 41.4h10.53v-6.33z"/><path class="cls-3" d="M68.99 24.84v-8.28H38.64V0h-8.28v16.56H0v8.28h30.36V41.4h8.28V24.84h30.35z"/><path class="cls-3" d="M53.14 27.57h-7.18l23.03 13.81v-3.99l-15.85-9.82zM0 0v4l15.86 9.83h7.19L0 0zM41.37 13.83h4.57L68.99 0h-7.2L41.37 12.56v1.27zM27.62 27.57h-4.57L0 41.4h7.18l20.44-12.57v-1.26z"/></g></g></svg>