<svg xmlns="http://www.w3.org/2000/svg" fill="none" viewBox="0 0 600 361"><g clip-path="url(#a)"><path fill="#1f3d7b" d="M600 0H0v360.042h600z"/><path fill="#fff" d="M600 119.978H0V240.01h600z"/><path fill="#1f3d7b" d="m337.509 201.148-37.536-63.939-37.484 63.939z"/><path fill="#ffcf46" d="m263.711 200.353 36.264-61.606 36.317 61.606z"/><path fill="#1f3d7b" d="m264.928 199.611 35.044-59.38 35.098 59.38z"/><path fill="#fff" d="m333.854 198.869-33.878-57.1-33.878 57.1z"/><path stroke="#231f20" stroke-width=".106" d="m333.854 198.869-33.878-57.1-33.878 57.1z"/><path fill="#ee3e42" d="M297.907 173.208h-.478c-.212 0-.106-.053-.106-.424 0-1.325.053-2.491.531-2.969.477-.477 1.06-.53 1.484-.53s.583-.424.106-.583c-.53-.159-.795-.265-1.431-.159 0-.795.265-1.644 1.219-1.644h1.591c.795 0 1.696 1.167 1.696 2.439v3.499c0 .478-.265.584-.689.584h-1.06c-.266 0-.425 0-.425.424s-.053.954-.053 1.431-.371.742-1.007.371c-.636-.318-.954-.848-1.378-2.492"/><path fill="#ffcf46" d="m248.916 170.452-.53 3.446 1.538.212.477-3.075 1.272.212-.477 3.075 1.856.265.53-3.446 1.113.212-.742 4.825-6.945-1.06.742-4.825zM250.827 166.422c.583.159 1.219.371 1.219.371l.424-1.272c.213-.636-.159-1.167-.795-1.379s-1.113.212-1.272.743c-.159.53-.371 1.272-.371 1.272s.424.106.901.265l-.318 1.273-2.121-.637s.371-1.166.901-2.81c.372-1.113 1.485-1.643 2.704-1.272 1.061.318 1.962 1.431 1.591 2.598-.212.742-.477 1.59-.477 1.59l2.439.743-.372 1.219-4.612-1.431.318-1.273zM257.401 159.688c.424-.848 0-1.378-.583-1.643-.531-.265-4.189-2.068-4.189-2.068l.583-1.219s3.34 1.643 4.136 2.067c1.007.531 1.908 1.591 1.007 3.394-.848 1.749-2.28 1.749-3.287 1.219l-4.135-2.068.583-1.219 4.135 2.068c.53.265 1.22.318 1.644-.531M259.629 153.433c.371.265.795.583.795.583l1.061-1.484c.265-.371.159-.848-.318-1.167-.478-.318-.902-.265-1.167.106l-1.06 1.485s.371.265.689.53l-.795 1.113c-.743-.53-1.591-1.166-2.333-1.696l.795-1.113c.318.265.636.477.636.477s.637-.902 1.008-1.379c.371-.53 0-.954-.159-1.06-.265-.159-.796-.212-1.114.159-.318.424-1.007 1.378-1.007 1.378s.318.212.583.425l-.795 1.113c-.901-.636-1.591-1.113-1.591-1.113s.425-.637 1.591-2.174c.795-1.061 1.962-1.697 2.916-1.007.424.318.742.848.795 1.431.583-.106 1.114-.159 1.856.371.689.477 1.431 1.591.371 2.969l-1.803 2.492s-.795-.583-1.802-1.326l.795-1.113zM261.217 143.731l4.135 4.029 2.174-2.226.901.901-3.181 3.234-4.983-4.931zM269.966 145.109l-4.453-5.461 1.113-.901 4.454 5.46zM274.156 136.414c-.212-.371-.901-.848-1.856-.265-.901.583-.848 1.59-.106 2.81.743 1.166 1.803 1.643 2.598 1.113.795-.477.795-1.378.53-1.855l1.061-.637c.742 1.22.371 2.704-1.008 3.552-1.378.849-3.075.266-4.188-1.537s-.901-3.605.53-4.507c1.485-.901 2.969-.265 3.552.637l-1.06.636zM292.34 130.848c.159 1.166.265 2.386.265 2.386s.689-.053 1.113-.106 1.644-.372 1.379-2.598c-.212-2.015-1.432-2.068-1.856-2.015-.212 0-1.166.106-1.166.106s.106 1.113.265 2.227l-1.273.159c-.212-1.697-.371-3.393-.371-3.393.69-.106 1.75-.212 2.598-.318s2.81-.053 3.128 2.969c.212 1.855-.477 3.817-2.068 3.976-1.59.212-2.862.318-2.862.318l-.425-3.605 1.273-.159zM304.641 128.196l-3.446-.159-.106 1.59 3.128.106-.053 1.326-3.128-.159-.106 1.855 3.499.159-.053 1.167-4.878-.265.318-6.999 4.878.212zM314.819 128.885l1.113 4.825 1.273-4.029 1.325.424-2.12 6.68-1.273-.424-1.219-5.09-1.379 4.295-1.325-.425 2.121-6.733zM318.582 137.687l3.022-6.362 1.272.636-3.022 6.362zM328.232 137.739c.212-.371.371-1.166-.583-1.749-.901-.583-1.855-.106-2.545 1.113-.742 1.167-.689 2.333.106 2.81.796.477 1.591.159 1.909-.318l1.06.636c-.795 1.22-2.279 1.485-3.658.637-1.378-.849-1.59-2.651-.424-4.454s2.81-2.386 4.294-1.431c1.485.901 1.538 2.544.955 3.446l-1.008-.636zM348.802 164.619c.583-.477.795-1.113.583-1.802-.318-1.008-1.431-1.326-2.757-.849-1.325.478-2.067 1.432-1.696 2.439.318.848 1.007 1.22 1.908.954l-.477-1.272 1.061-.371.795 2.386-3.393 1.166-.265-.742s.53-.212.689-.371c-.689-.159-1.22-.636-1.538-1.379-.583-1.537.425-3.34 2.386-4.029s3.658 0 4.242 1.697c.477 1.378 0 2.809-1.273 3.234l-.371-1.061zM346.895 171.989c.159.954.796 1.113 1.432 1.007.583-.106 4.559-.742 4.559-.742l.212 1.326s-3.658.583-4.559.742c-1.113.212-2.439-.212-2.81-2.121-.318-1.961.848-2.757 1.962-2.916.901-.159 4.559-.742 4.559-.742l.212 1.325s-3.976.637-4.559.743-1.167.477-1.008 1.431M256.55 206.398c.265.371.478.795.478.795l1.961-2.279-2.916.742s.212.318.424.689l-1.007.583c-.318-.477-.583-.954-.583-.954l-1.432.371-.689-1.113 7.157-1.803.796 1.326-4.825 5.62-.689-1.114 1.007-1.113s-.371-.636-.742-1.167l1.007-.583zM259.47 214.88l3.128-4.559-3.976 3.605-.901-.955 5.248-4.718 1.326 1.484-3.181 4.56 4.824-2.757 1.379 1.538-5.249 4.718-.848-1.007 3.976-3.605-4.824 2.703zM272.351 218.857l-2.756-2.174-.955 1.272 2.439 1.909-.795 1.007-2.439-1.908-1.113 1.484 2.703 2.121-.689.901-3.87-3.022 4.347-5.567 3.871 3.022zM274.948 222.727c.424.213.954.531 1.219.69.371.212.902.053 1.167-.424.265-.478.106-1.008-.371-1.22a71 71 0 0 0-1.538-.901l-.901 1.643s.212.106.424.265l-.477 1.167c-.318-.159-.583-.318-.583-.318l-1.326 2.386-1.219-.69 3.446-6.15s2.492 1.379 3.34 1.856.848 1.643.371 2.492c-.477.901-1.484 1.06-1.802.901.424.212.583.954.212 1.697-.212.371-.955 1.749-.955 1.749l-1.166-.636s.371-.689.795-1.432c.424-.742.212-1.113-.424-1.484-.212-.106-.424-.265-.636-.371l.477-1.167zM281.253 222.543l-2.667 6.528 1.276.521 2.667-6.528zM288.255 227.499c.106-.424 0-1.22-1.06-1.538-1.061-.265-1.803.478-2.121 1.803-.371 1.325 0 2.386.901 2.651.902.265 1.591-.318 1.697-.848l1.166.318c-.424 1.431-1.749 2.067-3.287 1.643-1.59-.424-2.28-2.067-1.696-4.135s2.014-3.075 3.658-2.651c1.696.477 2.227 1.962 1.908 3.022l-1.166-.318zM308.882 228.187c-.053-.424-.531-1.113-1.591-.954s-1.431 1.167-1.219 2.492c.212 1.378 1.007 2.174 1.961 2.068.902-.159 1.326-.955 1.22-1.485l1.219-.212c.212 1.432-.742 2.598-2.333 2.863-1.59.265-2.969-.954-3.287-3.022-.318-2.121.583-3.658 2.28-3.923s2.81.901 3.022 1.961l-1.219.212zM316.462 224.847l-3.287 1.061.477 1.484 2.969-.954.424 1.219-2.969.954.531 1.803 3.34-1.113.318 1.113-4.666 1.485-2.12-6.681 4.665-1.484zM319.432 222.356l4.189 2.651-1.909-3.817 1.219-.584 3.181 6.257-1.166.583-4.453-2.757 2.014 3.976-1.272.636-3.181-6.256zM330.615 224l-3.446-4.719-1.644 1.167-.689-.955 4.347-3.128.69.955-1.697 1.219 3.446 4.719zM340.958 202.21l5.09 2.598 1.432-2.757 1.166.583-2.068 4.029-6.256-3.234zM294.249 230.626c.425.053.955.106.955.106l-.583-2.916-1.167 2.757s.371 0 .795.106l-.159 1.166c-.583-.053-1.113-.106-1.113-.106l-.583 1.379-1.326-.159 2.916-6.787 1.538.159 1.484 7.211-1.325-.106-.265-1.485s-.742-.053-1.379-.159l.159-1.166zM341.113 210.162c.265-.371.583-.742.583-.742l-2.81-.955 1.803 2.386s.212-.318.477-.636l.901.742c-.318.477-.636.901-.636.901l.901 1.22-.742 1.06-4.401-5.938.902-1.272 6.998 2.279-.795 1.061-1.432-.477s-.424.583-.795 1.113l-.901-.742zM334.223 215.941l.954-.955c.319-.318.319-.848-.106-1.272-.424-.424-.954-.371-1.272 0l-1.272 1.272 1.325 1.326zl1.007.795-.477.477 1.909 1.909-1.007 1.007-4.984-4.983 2.704-2.704c.689-.69 1.802-.371 2.545.318.689.742.636 1.749.371 2.014.318-.318 1.06-.318 1.696.265l1.379 1.379-.955.954s-.583-.53-1.166-1.166c-.583-.583-1.06-.477-1.537 0l-.531.53-1.007-.795zM349.066 179.888v.954l2.863-.848-2.863-.901zh-1.167v-1.166l-1.431-.424v-1.326l7.051 2.28v1.537l-7.051 2.227v-1.325l1.431-.424v-1.379zM342.708 156.083l.424.849 2.068-2.174-2.916.583zl-1.06.53-.53-.954-1.485.318-.636-1.166 7.263-1.432.743 1.379-5.09 5.355-.636-1.167 1.06-1.06s-.371-.636-.689-1.22l1.06-.53zM332.42 143.413c.372.318.69.636.69.636l1.272-2.704-2.598 1.538zl-.795.848-.848-.742-1.326.795-.954-.848 6.362-3.764 1.167 1.06-3.022 6.733-.955-.901.636-1.379s-.53-.477-1.007-.901l.795-.848zM281.097 135.141c.424-.159.901-.371.901-.371l-1.908-2.333.265 2.969.742-.318.371 1.114-1.06.424.106 1.484-1.22.477-.636-7.369 1.432-.583 4.771 5.673-1.219.53-.954-1.167s-.69.266-1.273.531l-.371-1.114zM249.923 181.743v-1.378c0-.424-.371-.795-.955-.795-.583 0-.901.424-.901.901v1.803h1.856zl1.272-.106v.637h2.704v1.378h-7.051v-3.817c0-.954 1.007-1.538 2.014-1.538 1.008 0 1.697.796 1.697 1.167 0-.477.53-1.008 1.378-1.008h1.962v1.379h-1.644c-.848 0-1.06.424-1.06 1.113v.742l-1.272.107zM338.73 147.919c.265.371.689.848.848 1.06.265.318.796.371 1.273 0 .424-.371.477-.901.159-1.272-.318-.424-1.114-1.379-1.114-1.379l-1.484 1.167s.159.159.318.424l-.901.901c-.212-.265-.424-.477-.424-.477l-2.121 1.697-.848-1.114s5.513-4.4 5.46-4.4c0 0 1.803 2.227 2.386 3.022.583.742.212 1.856-.583 2.439-.795.636-1.803.424-2.015.159.318.371.212 1.113-.477 1.643a127 127 0 0 1-1.537 1.22l-.849-1.061s.637-.477 1.273-1.06c.689-.53.583-.954.159-1.538-.159-.212-.318-.424-.477-.583l.901-.901zM252.204 194.521a1.2 1.2 0 0 0 1.219-1.219 1.2 1.2 0 0 0-1.219-1.219 1.2 1.2 0 0 0-1.22 1.219 1.2 1.2 0 0 0 1.22 1.219M347.796 194.521a1.2 1.2 0 0 1-1.22-1.219 1.2 1.2 0 0 1 1.22-1.219 1.2 1.2 0 0 1 1.219 1.219 1.2 1.2 0 0 1-1.219 1.219"/><path fill="#b5d2ee" d="m284.81 167.377-1.378 2.28 10.921 2.12v-.689l-9.49-3.711zM288.31 161.438l-1.114 1.962 8.006 3.658s.159-.371.265-.53zM286.668 164.195l-1.113 1.909 8.854 3.393s.106-.477.159-.689l-7.847-4.613zM304.587 175.276l12.459 8.801c1.166 0 4.4-.212 5.09-.212l-17.178-9.225s-.212.477-.371.689M299.495 178.192l-.583 6.044h1.113v-5.991h-.53M300.347 163.665l1.484-18.821-1.802-3.022-.796 1.325.637 20.571h.424M323.408 181.267l-2.863-4.772-15.163-3.234a3.4 3.4 0 0 1-.319.955l18.292 7.104zM318.478 172.944l-1.644-2.757-11.187 1.644c0 .318-.053.583-.159.901l12.99.265zM315.934 168.649l-1.22-2.121-9.066 3.34c0 .265 0 .583.053.848l10.286-2.12zM313.546 164.62l-.848-1.432-7.423 5.09s.106.477.159.742l8.059-4.4zM311.901 161.862l-1.061-1.855-6.15 6.733s.212.477.319.689l6.945-5.567zM310.42 159.318l-.743-1.219-5.779 7.528s.266.318.425.53zM309.04 156.985l-.742-1.22-5.461 8.854s.318.265.477.371zM307.395 154.228l-1.061-1.749-4.294 11.663s.318.159.477.265l4.825-10.179zM305.063 150.251l-1.431-2.386-2.757 15.852s.318.054.424.107l3.711-13.573zM297.321 146.223l-1.484 2.491 3.022 15.057s.318-.053.477-.106zM294.564 150.888l-1.114 1.855 4.454 11.399.318-.159-3.711-13.095zM292.445 154.492l-.848 1.432 5.62 8.642s.212-.106.318-.212l-5.037-9.915zM290.641 157.515l-1.431 2.439 6.945 5.567s.212-.266.318-.372l-5.885-7.687zM281.207 173.102l-1.855 3.34 15.269-2.916s-.106-.318-.106-.53zM276.91 180.631l-2.067 3.499 20.199-9.649-.159-.477-17.92 6.627zM285.286 181.638l.849 1.379 9.331-7.582s-.159-.212-.212-.318l-10.021 6.521zM286.932 184.236c.795 0 1.908.053 2.12.053l7.105-7.9s-.212-.212-.265-.318l-8.96 8.218zM293.662 181.268a24 24 0 0 0 1.697-.212l1.802-3.764s-.318-.266-.477-.372zM296.313 181.797c.213.478.743 1.538.849 1.644l1.378-5.461s-.371-.159-.53-.212l-1.643 4.029zM301.403 184.183h1.591l-1.75-6.097s-.371.106-.53.106l.742 5.991zM304.637 184.183h2.015l-4.454-6.468s-.371.159-.583.265zM307.872 184.183h2.757l-7.422-7.211s-.212.159-.318.265zM311.741 184.183h2.969l-10.551-8.218s-.318.424-.53.636l8.059 7.635z"/><path fill="#4f318f" d="M320.86 176.92c.318 1.432.478 2.916.478 4.507q0 1.352-.16 2.704h.425q.159-1.352.159-2.704c0-1.166-.106-2.28-.265-3.393l-.637-1.061zM313.282 164.196c-3.658-2.863-8.27-4.507-13.307-4.507s-9.596 1.697-13.308 4.507l-.636 1.06c3.764-3.234 8.589-5.195 13.944-5.195s10.179 1.961 13.943 5.195zM279.141 176.92l-.637 1.061a24 24 0 0 0-.265 3.393c0 1.06.053 2.121.212 3.128h.424c-.159-1.007-.212-2.068-.212-3.128q0-2.306.478-4.454"/><path fill="#1f3d7b" d="M321.498 177.98a24 24 0 0 1 .265 3.394q0 1.352-.159 2.703h.425q.159-1.351.159-2.703c0-.849 0-1.644-.159-2.439l-.584-.955zM312.7 163.241a22 22 0 0 0-12.725-4.029 22 22 0 0 0-12.724 4.029l-.583.955c3.658-2.863 8.324-4.507 13.307-4.507s9.597 1.697 13.308 4.507zM278.499 178.033l-.583.955a19 19 0 0 0-.159 2.438c0 1.061.053 2.068.212 3.128h.424c-.159-1.007-.212-2.067-.212-3.128 0-1.166.106-2.279.265-3.393"/><path fill="#119bd7" d="M322.082 178.987c.106.796.159 1.644.159 2.439q0 1.352-.159 2.704h.424q.159-1.352.159-2.704c0-.53 0-1.06-.053-1.59zM312.219 162.34a22.57 22.57 0 0 0-12.247-3.606 22.26 22.26 0 0 0-12.194 3.606l-.53.848a22 22 0 0 1 12.724-4.029c4.719 0 9.119 1.484 12.724 4.029l-.53-.848zM277.92 178.987l-.477.849c0 .53-.053 1.06-.053 1.59 0 1.06.053 2.121.212 3.128h.424c-.159-1.007-.212-2.068-.212-3.128 0-.848 0-1.643.106-2.439"/><path fill="#00ad8d" d="M322.561 179.835c0 .53.053 1.06.053 1.591 0 .901 0 1.802-.159 2.703h.424q.159-1.352.159-2.703v-.796zM311.741 161.598c-3.447-2.067-7.476-3.234-11.77-3.234-4.295 0-8.324 1.167-11.77 3.234l-.477.796c3.552-2.28 7.74-3.606 12.194-3.606 4.453 0 8.695 1.326 12.194 3.606l-.477-.796zM277.442 179.835l-.477.795v.796c0 1.06.053 2.12.212 3.128h.424a21 21 0 0 1-.212-3.128c0-.531 0-1.061.053-1.591"/><path fill="#fbed21" d="M323.038 180.631v.796q0 1.351-.159 2.704h.424q.159-1.353.159-2.704zM311.266 160.803a23.23 23.23 0 0 0-11.292-2.916c-4.083 0-7.953 1.06-11.293 2.916l-.424.742c3.446-2.068 7.475-3.234 11.77-3.234 4.294 0 8.324 1.166 11.77 3.234l-.424-.742zM276.965 180.631l-.424.743c0 1.113.053 2.173.212 3.181h.424c-.159-1.008-.212-2.068-.212-3.128z"/><path fill="#f9ab55" d="M323.463 181.373c0 .954-.053 1.856-.159 2.757h.424l.159-2.068zM310.895 160.113c-3.234-1.697-6.946-2.598-10.869-2.598s-7.634.954-10.868 2.598l-.425.689a23.25 23.25 0 0 1 11.293-2.916c4.083 0 7.953 1.061 11.293 2.916zM276.489 181.373l-.425.689c0 .849.106 1.644.213 2.439h.424c-.159-1.007-.212-2.068-.212-3.128"/><path fill="#ed2130" d="M323.886 182.063c0 .689-.053 1.378-.106 2.068h.424c0-.424.053-.902.106-1.379zM310.469 159.424a24 24 0 0 0-10.498-2.385c-3.764 0-7.316.848-10.497 2.385l-.424.69c3.287-1.697 6.945-2.598 10.868-2.598s7.635.954 10.869 2.598l-.424-.69zM275.693 182.752c0 .583.106 1.219.159 1.803h.424c-.106-.796-.159-1.644-.212-2.439l-.424.689z"/><path fill="#1f3d7b" d="M287.781 185.614h2.386c.318 0 .742.371 0 .371h-2.068l-.265-.477zM288.573 186.728c.371 0 1.008-.053 1.273 0 .212 0 .318.212 0 .265-.371 0-.743.106-1.061.159l-.159-.371zM298.172 185.456c.318.053 2.28 0 2.598 0v.371c-.796 0-2.068.159-2.386.106zM307.766 185.084h1.802v.265c-.583 0-1.484.106-1.643.106l-.159-.424zM314.13 185.19h2.121v.318h-1.909l-.265-.424zM327.12 187.524c-.795 0-1.908.106-2.226.212-.318.053-.477.424.106.371.477-.053 1.643-.106 2.332-.159l-.212-.371zM272.668 187.789c.742 0 2.439.159 3.34.318l.901-.477c-.53-.106-2.916-.265-3.976-.265l-.265.477zM273.413 186.516l-.212.424c1.167-.265 3.34-.159 4.507.106l.424-.371c-.901-.424-3.552-.318-4.719-.106M274.102 185.403l-.424.742c1.484-.318 4.135-.583 5.461-.318l.371-.318c-1.432-.531-4.242-.212-5.408-.106M280.939 197.437c-.265-.053.106-.265.477-.424 1.59-.689 3.658-.318 4.665-.106.955.212.849.424.584.477 1.113 0 2.226 0 3.181-.053-.743 0-1.591-.212-3.128-.689-2.174-.689-5.037-.318-5.991 0-.796.265-1.75.424-2.757.265.954.265 2.014.477 2.969.583M324.942 183.811c-1.59 0-6.097.212-7.581.265-1.697.106-9.331.106-11.187.106-1.908 0-11.08.159-13.731.159s-15.004-.106-17.602-.159l-.371.637c1.484 0 8.483.106 10.815.053h11.24c2.227 0 7.582-.212 8.589-.159 1.06 0 8.536 0 9.914-.106 1.326-.106 6.309-.212 10.233-.319l-.319-.53zM325.529 184.82c-1.379 0-3.34.106-3.659.159-.371 0-.742.371.106.318h3.818l-.265-.424zM326.059 185.721c-1.061 0-3.075.106-3.393.159s-.583.53.053.371c.53-.106 2.598-.159 3.499-.159l-.212-.371zM326.64 186.675c-.954 0-2.545.212-2.863.212-.371 0-.689.371 0 .371.583 0 2.28-.159 3.075-.212zM331.042 194.097c-.902.053-2.121-.159-2.598-.371-.583-.212-1.061-.319-.318.106.689.371 2.332.689 3.181.689l-.265-.477zM331.679 195.158c-1.007 0-3.075-.318-4.559-1.007-1.644-.796-3.818-.531-5.673-.265-3.446.424-5.196.212-8.006-.425-2.81-.636-6.627-.583-7.899 0-1.326.531-1.061.69.371.425 1.378-.266 4.612-.637 7.369.106 2.757.742 5.408.901 7.104.742 1.697-.106 3.075-.318 3.818-.265.742 0 .636.265 0 .371-5.143.636-7.317.848-10.233 0-2.969-.848-5.673-.53-7.687-.265-1.962.265-3.924.159-5.779-.583-1.856-.69-3.287-.955-4.401-.584-.424.159-.53.371.106.265.69-.106 2.545-.106 4.189.637 1.59.742 4.082.901 6.256.636 2.174-.318 4.878-.636 7.21.318 2.333.954 5.037.742 7.37.371 2.386-.371 3.976-.795 5.885-.318 1.643.424 3.923.53 4.824.424l-.371-.583z"/><path fill="#1f3d7b" d="M332.312 196.218c-1.06.159-3.764 0-4.93-.318-1.273-.319-3.393 0-6.415.53-2.969.583-6.256-.371-7.953-.795-1.697-.372-3.817-.425-5.302-.266-1.537.159-3.923.478-7.369-.53-4.295-1.272-6.521-.689-7.635-.371-1.06.318-3.34.318-5.779-.371-2.439-.636-4.612-.477-6.097-.106-1.484.371-3.711.689-5.779.106-1.908-.583-4.347-.583-5.832-.477l-.318.477c1.273-.212 4.295-.265 6.097.424 2.174.848 5.09.477 6.044.159 2.174-.689 3.606-.583 5.779.106 1.538.477 4.401.53 6.256.106 2.969-.742 4.719-.318 7.158.477 2.439.796 5.832.902 7.687.743 1.856-.106 3.393-.584 5.673.159 2.227.689 5.249 1.166 7.847.583 2.598-.636 4.93-.689 6.15-.477 1.113.212 3.234.477 5.036.212l-.212-.371z"/><path fill="#1f3d7b" d="M332.843 197.066c-.795.106-2.598.159-4.348-.106-2.81-.371-4.824-.159-6.68.265-2.757.637-4.347.425-6.574-.106-2.227-.53-4.294-.636-6.786-.371s-6.203-.159-9.066-.901-5.196-.424-7.317.106c-2.12.53-5.354 0-6.415-.53-1.007-.477-2.545-.53-4.612-.106s-3.924.318-5.991-.265c-1.962-.53-4.56-.743-6.362-.477l-.213.371c1.326-.159 4.719-.265 6.628.477 2.226.848 4.771.583 6.044.318s3.552-.371 4.506.159c2.121 1.06 5.408.795 6.627.477 2.704-.742 4.719-.742 7.052 0 2.332.689 6.574 1.167 9.225.795 1.802-.265 4.506-.159 6.68.478 2.174.636 4.347.689 6.786 0 2.439-.69 5.143-.478 6.627-.266 1.432.213 2.545.372 4.401.107z"/><path fill="#1f3d7b" d="M333.429 198.126c-.848.106-3.658.106-4.824 0-1.326-.159-3.393-.424-5.726.212-2.333.637-5.62.584-7.476 0-1.855-.583-4.188-.848-6.415-.53-2.174.318-4.984.53-8.271-.424s-4.612-1.166-8.111-.212c-1.485.371-8.589.318-10.604.371-2.014.106-4.506-.636-6.044-1.272-1.431-.583-5.196-.849-7.899-.53l-.319.53c2.545-.53 5.885-.053 7.158.689-1.644-.371-5.567-.212-7.635.159l-.477.795c3.34-.742 8.271-.53 10.073-.159 2.015.424 5.355.796 7.476.265 2.068-.53 5.408.106 7.422.955h9.332c-1.432-.902-3.182-.371-4.454-.265-1.325.106-2.651-.159-3.287-.584-.636-.371 0-.371 1.06-.636 3.128-.901 5.567.159 7.37 1.485h7.316c2.015-1.326 3.764-.69 4.772-.318.265.106.795.212 1.537.318h7.741c1.855-.743 4.347-.477 5.567-.318 1.166.159 2.757.318 4.983 0l-.212-.425z"/><path fill="#00ad8d" d="M328.071 189.113c-4.772-.106-6.733-2.862-8.536-5.778-.901 0-2.174.159-3.022.106-.106.424-.742 1.961-1.06 3.075-1.061-.637-2.121-2.863-2.757-4.083h-2.333c-.318.689-1.272 2.81-1.643 3.711-.743-.795-2.598-3.499-3.287-4.506-.849 0-2.121.106-3.076.106-.53 1.591-1.59 3.923-2.968 5.249-.955-.955-2.863-4.507-3.5-5.991-.636 0-1.908.265-2.598.265-.636 1.219-2.385 4.93-3.499 6.839-1.802-1.855-4.029-5.62-5.567-8.165l-2.12.159c-2.704 7.529-7.37 8.589-10.18 8.854l-2.12 3.553c1.06 0 2.916.212 4.294.636 1.538.477 4.348.848 6.521 0 2.174-.795 4.507-.636 6.787-.212 2.279.424 6.15.689 9.49-.902 4.294 2.174 7.051.955 9.119.531 2.12-.425 5.036-.743 7.263 0 2.969.954 6.733.954 9.543.159 3.393-.902 5.355.848 7.9.954l-2.704-4.56z"/><path fill="#ffdf15" d="M282.158 180.1c.159 4.03 2.439 8.218 8.218 13.202h1.272c-1.537-1.485-4.93-5.249-6.097-7.051 0-.319-.106-.637-.106-.849 3.181 3.605 5.461 6.362 8.483 7.688.53-.106 1.273-.265 1.75-.477-4.984-2.545-7.688-6.363-11.399-12.672-.689.053-1.644.106-2.121.159M303.418 181.638c-.849 2.598-1.856 5.036-3.341 6.362.265.265.637.583.902.848.636-.477 1.431-1.431 1.643-1.643.371.159.53.901-.477 2.65 1.326.902 3.499 2.068 5.09 2.598-1.326.212-2.863.636-3.552.743-2.863-2.068-5.143-3.5-7.317-7.211-.318 1.432-.106 2.068.901 3.234.902 1.008 2.28 2.598 4.984 4.136-1.59 0-3.287-.266-5.196-1.273-1.06-1.802-3.234-5.832-3.605-10.815.795 0 1.856-.266 2.598-.266.795 1.803 2.386 4.772 3.499 5.991.955-.954 2.227-3.075 2.969-5.248h1.008M311.162 182.433c-.265 1.272-1.166 3.287-1.802 4.347-.159-.212-.477-.53-.636-.742l1.643-3.711s.636.053.795.053M309.62 187.735s.69.477.849.53c.53-.795.636-1.431.477-2.598-.583.478-.689 1.591-1.379 2.068M315.455 186.516s.53.425.742.584c.424-1.22.955-2.81 1.114-3.659h-.796c-.477 1.273-.954 2.651-1.06 3.075"/><path stroke="#231f20" stroke-width=".212" d="m333.854 198.869-33.878-57.1-33.878 57.1z"/></g><defs><clipPath id="a"><path fill="#fff" d="M0 0h600v360.042H0z"/></clipPath></defs></svg>