<svg xmlns="http://www.w3.org/2000/svg" fill="none" viewBox="0 0 600 361"><g clip-path="url(#a)"><path fill="#fff" d="M599.641.288H.288V359.93h599.353z"/><path fill="#0067a4" d="M299.965 180.396H.288v179.605h299.677zM150.198 30.773l-13.302 41.27H93.182l35.446 25.74-13.661 41.27 35.231-25.668 35.087 25.668-13.445-41.701 35.302-25.093h-43.499z"/><path fill="#ee3e42" d="M599.639.288H299.963v180.036h299.676zM449.872 210.306l-13.302 41.27h-43.715l35.519 25.74-13.733 41.27 35.231-25.668 35.087 25.668-13.374-41.63 35.231-25.164h-43.499z"/><path stroke="#231f20" stroke-miterlimit="2.5" d="M599.641.288H.288V359.93h599.353z"/></g><defs><clipPath id="a"><path fill="#fff" d="M0 0h600v360.288H0z"/></clipPath></defs></svg>