<svg xmlns="http://www.w3.org/2000/svg" viewBox="0 0 138.01 82.8"><defs><style>.cls-3{fill:#fff}</style></defs><g id="Layer_2" data-name="Layer 2"><g id="Layer_1-2" data-name="Layer 1"><path fill="#e31837" d="M0 0h138.01v41.4H0z"/><path fill="#003d79" d="M0 41.4h138.01v41.4H0z"/><path class="cls-3" d="M138.01 27.6H66.29L24.88 0h-9.95l49.69 33.12h73.39V27.6zM138.01 55.2H66.29L24.88 82.8h-9.95l49.69-33.11h73.39v5.51z"/><path fill="#00693f" d="M47.19 41.4L0 72.85v9.95h14.93l49.69-33.11h73.39V33.12H64.62L14.93 0H0v9.95L47.19 41.4z"/><path fill="#fdbb30" d="M47.19 41.4L0 72.85v-6.63L37.23 41.4 0 16.58V9.95L47.19 41.4z"/><path d="M0 66.22L37.23 41.4 0 16.58v49.64z"/></g></g></svg>