<svg xmlns="http://www.w3.org/2000/svg" fill="none" viewBox="0 0 600 361"><g clip-path="url(#a)"><path fill="#fff" d="M600 0H0v360.029h600z"/><path fill="#d53647" d="M600.001 0H240.188v27.711h359.813zM600.001 55.422H240.188v27.711h359.813zM600.001 110.772H240.188v27.711h359.813zM600.001 166.195H240.188v27.711h359.813zM600 221.545H0v27.712h600zM600 276.967H0v27.711h600zM600 332.317H0v27.711h600z"/><path fill="#003876" d="M273.656 0H0v193.906h273.656z"/><path fill="#fff" d="m22.677 8.493-2.448 7.557h-8.061l6.55 4.75-2.52 7.63 6.479-4.75 6.477 4.75-2.447-7.701 6.478-4.607h-7.99zM68.308 8.493l-2.447 7.557H57.8l6.55 4.75-2.52 7.63 6.478-4.75 6.478 4.75-2.519-7.701 6.55-4.607h-8.061zM113.94 8.493l-2.447 7.557h-8.061l6.55 4.75-2.52 7.63 6.478-4.75 6.478 4.75-2.519-7.701 6.55-4.607h-8.062zM159.573 8.493l-2.447 7.557h-8.062l6.55 4.75-2.519 7.63 6.478-4.75 6.478 4.75-2.519-7.701 6.55-4.607h-8.062zM205.207 8.493l-2.448 7.557h-8.133l6.55 4.75-2.447 7.63 6.478-4.75 6.478 4.75-2.52-7.701 6.55-4.607h-8.061zM250.767 8.493l-2.447 7.557h-8.061l6.55 4.75-2.52 7.63 6.478-4.75 6.55 4.75-2.519-7.701 6.55-4.607h-8.061zM22.677 47.146l-2.448 7.63h-8.061l6.55 4.75-2.52 7.557 6.479-4.678 6.477 4.678-2.447-7.63 6.478-4.678h-7.99zM68.308 47.146l-2.447 7.63H57.8l6.55 4.75-2.52 7.557 6.478-4.678 6.478 4.678-2.519-7.63 6.55-4.678h-8.061zM113.94 47.146l-2.447 7.63h-8.061l6.55 4.75-2.52 7.557 6.478-4.678 6.478 4.678-2.519-7.63 6.55-4.678h-8.062zM159.573 47.146l-2.447 7.63h-8.062l6.55 4.75-2.519 7.557 6.478-4.678 6.478 4.678-2.519-7.63 6.55-4.678h-8.062zM205.207 47.146l-2.448 7.63h-8.133l6.55 4.75-2.447 7.557 6.478-4.678 6.478 4.678-2.52-7.63 6.55-4.678h-8.061zM250.767 47.146l-2.447 7.63h-8.061l6.55 4.75-2.52 7.557 6.478-4.678 6.55 4.678-2.519-7.63 6.55-4.678h-8.061zM22.677 85.796l-2.448 7.63h-8.061l6.55 4.75-2.52 7.629 6.479-4.75 6.477 4.75-2.447-7.701 6.478-4.678h-7.99zM68.308 85.796l-2.447 7.63H57.8l6.55 4.75-2.52 7.629 6.478-4.75 6.478 4.75-2.519-7.701 6.55-4.678h-8.061zM113.94 85.796l-2.447 7.63h-8.061l6.55 4.75-2.52 7.629 6.478-4.75 6.478 4.75-2.519-7.701 6.55-4.678h-8.062zM159.573 85.796l-2.447 7.63h-8.062l6.55 4.75-2.519 7.629 6.478-4.75 6.478 4.75-2.519-7.701 6.55-4.678h-8.062zM205.207 85.796l-2.448 7.63h-8.133l6.55 4.75-2.447 7.629 6.478-4.75 6.478 4.75-2.52-7.701 6.55-4.678h-8.061zM250.767 85.796l-2.447 7.63h-8.061l6.55 4.75-2.52 7.629 6.478-4.75 6.55 4.75-2.519-7.701 6.55-4.678h-8.061zM22.677 124.448l-2.448 7.63h-8.061l6.55 4.75-2.52 7.63 6.479-4.751 6.477 4.751-2.447-7.702 6.478-4.606h-7.99zM68.308 124.448l-2.447 7.63H57.8l6.55 4.75-2.52 7.63 6.478-4.751 6.478 4.751-2.519-7.702 6.55-4.606h-8.061zM113.94 124.448l-2.447 7.63h-8.061l6.55 4.75-2.52 7.63 6.478-4.751 6.478 4.751-2.519-7.702 6.55-4.606h-8.062zM159.573 124.448l-2.447 7.63h-8.062l6.55 4.75-2.519 7.63 6.478-4.751 6.478 4.751-2.519-7.702 6.55-4.606h-8.062zM205.207 124.448l-2.448 7.63h-8.133l6.55 4.75-2.447 7.63 6.478-4.751 6.478 4.751-2.52-7.702 6.55-4.606h-8.061zM250.767 124.448l-2.447 7.63h-8.061l6.55 4.75-2.52 7.63 6.478-4.751 6.55 4.751-2.519-7.702 6.55-4.606h-8.061zM22.677 163.171l-2.448 7.63h-8.061l6.55 4.75-2.52 7.558 6.479-4.75 6.477 4.75-2.447-7.63 6.478-4.678h-7.99zM68.308 163.171l-2.447 7.63H57.8l6.55 4.75-2.52 7.558 6.478-4.75 6.478 4.75-2.519-7.63 6.55-4.678h-8.061zM113.94 163.171l-2.447 7.63h-8.061l6.55 4.75-2.52 7.558 6.478-4.75 6.478 4.75-2.519-7.63 6.55-4.678h-8.062zM159.573 163.171l-2.447 7.63h-8.062l6.55 4.75-2.519 7.558 6.478-4.75 6.478 4.75-2.519-7.63 6.55-4.678h-8.062zM205.207 163.171l-2.448 7.63h-8.133l6.55 4.75-2.447 7.558 6.478-4.75 6.478 4.75-2.52-7.63 6.55-4.678h-8.061zM250.767 163.171l-2.447 7.63h-8.061l6.55 4.75-2.52 7.558 6.478-4.75 6.55 4.75-2.519-7.63 6.55-4.678h-8.061zM45.492 143.954l-2.447 7.63h-8.062l6.55 4.75-2.519 7.558 6.478-4.751 6.478 4.751-2.447-7.63L56 151.584h-8.062zM91.125 143.954l-2.447 7.63h-8.062l6.55 4.75-2.52 7.558 6.479-4.751 6.478 4.751-2.52-7.63 6.55-4.678h-8.06zM136.758 143.954l-2.447 7.63h-8.133l6.55 4.75-2.448 7.558 6.478-4.751 6.478 4.751-2.519-7.63 6.55-4.678h-8.061zM182.391 143.954l-2.519 7.63h-8.061l6.549 4.75-2.519 7.558 6.55-4.751 6.478 4.751-2.519-7.63 6.55-4.678h-8.062zM228.023 143.954l-2.519 7.63h-8.062l6.55 4.75-2.519 7.558 6.55-4.751 6.478 4.751-2.519-7.63 6.55-4.678h-8.062zM45.492 105.159l-2.447 7.63h-8.062l6.55 4.75-2.519 7.63 6.478-4.751 6.478 4.751-2.447-7.702L56 112.861h-8.062zM91.125 105.159l-2.447 7.63h-8.062l6.55 4.75-2.52 7.63 6.479-4.751 6.478 4.751-2.52-7.702 6.55-4.606h-8.06zM136.758 105.159l-2.447 7.63h-8.133l6.55 4.75-2.448 7.63 6.478-4.751 6.478 4.751-2.519-7.702 6.55-4.606h-8.061zM182.391 105.159l-2.519 7.63h-8.061l6.549 4.75-2.519 7.63 6.55-4.751 6.478 4.751-2.519-7.702 6.55-4.606h-8.062zM228.023 105.159l-2.519 7.63h-8.062l6.55 4.75-2.519 7.63 6.55-4.751 6.478 4.751-2.519-7.702 6.55-4.606h-8.062zM45.492 66.435l-2.447 7.63h-8.062l6.55 4.75-2.519 7.557 6.478-4.678 6.478 4.678-2.447-7.63L56 74.065h-8.062zM91.125 66.435l-2.447 7.63h-8.062l6.55 4.75-2.52 7.557 6.479-4.678 6.478 4.678-2.52-7.63 6.55-4.678h-8.06zM136.758 66.435l-2.447 7.63h-8.133l6.55 4.75-2.448 7.557 6.478-4.678 6.478 4.678-2.519-7.63 6.55-4.678h-8.061zM182.391 66.435l-2.519 7.63h-8.061l6.549 4.75-2.519 7.557 6.55-4.678 6.478 4.678-2.519-7.63 6.55-4.678h-8.062zM228.023 66.435l-2.519 7.63h-8.062l6.55 4.75-2.519 7.557 6.55-4.678 6.478 4.678-2.519-7.63 6.55-4.678h-8.062zM45.492 27.712l-2.447 7.558h-8.062l6.55 4.75-2.519 7.63 6.478-4.75 6.478 4.75-2.447-7.63L56 35.342h-8.062zM91.125 27.712l-2.447 7.558h-8.062l6.55 4.75-2.52 7.63 6.479-4.75 6.478 4.75-2.52-7.63 6.55-4.678h-8.06zM136.758 27.712l-2.447 7.558h-8.133l6.55 4.75-2.448 7.63 6.478-4.75 6.478 4.75-2.519-7.63 6.55-4.678h-8.061zM182.391 27.712l-2.519 7.558h-8.061l6.549 4.75-2.519 7.63 6.55-4.75 6.478 4.75-2.519-7.63 6.55-4.678h-8.062zM228.023 27.712l-2.519 7.558h-8.062l6.55 4.75-2.519 7.63 6.55-4.75 6.478 4.75-2.519-7.63 6.55-4.678h-8.062z"/></g><defs><clipPath id="a"><path fill="#fff" d="M0 0h600v360.101H0z"/></clipPath></defs></svg>